<svg width="519" height="504" viewBox="0 0 519 504" fill="none" xmlns="http://www.w3.org/2000/svg">
<path d="M298.291 333.428C298.291 333.428 294.819 325.758 285.695 325.758C276.57 325.758 275.105 329.588 275.105 329.588C275.105 329.588 265.253 332.507 265.796 334.514C266.339 336.521 262.693 339.256 262.693 339.256L298.291 333.418V333.428Z" fill="white" stroke="#595CFF" stroke-width="1.54895" stroke-miterlimit="10"/>
<path d="M105.357 302.213C105.357 302.213 138.21 308.788 192.242 324.846C246.273 340.904 266.346 336.531 266.346 336.531C266.346 336.531 278.031 330.693 283.5 329.229C288.969 327.765 301.391 328.502 307.228 341.825C313.066 355.149 312.523 365.922 307.228 373.224C301.934 380.526 294.089 383.076 291.345 383.445C288.601 383.813 266.336 385.82 261.953 385.82C257.57 385.82 219.975 388.739 215.408 389.108C210.841 389.476 170.501 389.835 165.032 389.108C159.563 388.38 123.966 380.894 121.958 380.894C119.951 380.894 99.1414 378.16 97.3184 379.43" stroke="#595CFF" stroke-width="1.54895" stroke-miterlimit="10"/>
<path d="M154.812 314.257C154.812 314.257 121.057 363.547 121.969 380.894C121.969 380.894 99.8788 380.099 95.137 389.534C95.137 389.534 75.9758 319.202 87.0401 299.993C87.0401 299.993 129.794 303.299 154.812 314.267V314.257Z" fill="#E5E5FF" stroke="#595CFF" stroke-width="2.06003" stroke-linecap="round" stroke-linejoin="round"/>
<path d="M17 307L60.8205 299.294C73.9599 296.734 87.0411 299.973 87.0411 299.973C78.1684 327.124 95.138 389.515 95.138 389.515C92.2193 409.287 97.3296 506.208 97.3296 506.208H17" stroke="#595CFF" stroke-width="2.06003" stroke-linecap="round" stroke-linejoin="round"/>
</svg>
