<svg width="534" height="354" viewBox="0 0 534 354" fill="none" xmlns="http://www.w3.org/2000/svg">
<g>

<path d="M518.836 333.911C514.874 293.633 491.974 182.158 491.974 182.158C491.974 182.158 463.348 75.1285 461.585 44.288C459.823 13.4475 443.521 10.3743 439.122 8.12797C434.723 5.88161 412.259 9.04835 412.259 9.04835C412.259 9.04835 271.753 3.32327 207.888 20.4985C152.369 35.4274 86.3198 34.1482 86.3198 34.1482C86.3198 34.1482 46.3847 35.9422 31.019 33.4618C15.6534 30.9815 -23.7046 23.2596 -23.7046 23.2596C-23.7046 23.2596 -39.0546 17.6438 -41.9562 17.6126C-44.8577 17.5814 -54.2487 17.5502 -63.5305 25.7088C-72.8123 33.8674 -91.7347 41.9948 -91.7347 41.9948L-106.242 51.2454C-106.242 51.2454 -125.711 61.8376 -131.28 68.0151C-136.849 74.2081 -157.596 90.4318 -157.596 90.4318C-157.596 90.4318 -166.551 95.3301 -168.079 97.8884C-169.608 100.447 -168.937 99.854 -168.937 99.854C-168.937 99.854 -168.142 104.503 -166.816 105.392C-165.49 106.281 -161.372 110.602 -151.965 107.014C-142.558 103.426 -139.423 100.665 -139.064 100.65C-138.705 100.634 -127.832 93.6765 -126.881 91.711C-126.881 91.711 -116.647 89.5114 -107.522 82.0704C-98.3958 74.6293 -96.4926 74.6605 -96.4926 74.6605C-96.4926 74.6605 -86.93 76.9381 -68.4912 64.5675L-62.6569 60.6988C-62.6569 60.6988 -52.2052 63.5536 -47.5253 63.2104C-42.8454 62.8672 -37.5415 62.9608 -35.4043 62.446C-33.2672 61.9312 -28.3689 69.6686 -28.3689 69.6686C-28.3689 69.6686 -41.535 74.2081 -48.82 75.1129C-56.1051 76.0177 -74.8871 77.8741 -80.0974 79.0908C-85.3077 80.3232 -90.8767 81.5712 -95.2446 84.4259C-95.2446 84.4259 -101.516 89.3398 -97.569 102.069C-93.6223 114.798 -57.1815 108.98 -57.1815 108.98C-57.1815 108.98 -44.1713 105.735 -33.0956 102.147C-22.0354 98.5592 -5.99896 100.4 -5.99896 100.4C-5.99896 100.4 9.5071 104.752 17.9933 103.785C26.4795 102.818 48.3815 102.428 53.389 100.135C58.3964 97.8416 63.0296 95.2053 63.0296 95.2053C63.0296 95.2053 99.3144 92.0698 124.383 98.7776C149.452 105.501 193.209 112.287 193.209 112.287L275.123 128.448C275.123 128.448 326.461 133.596 352.403 130.008L356.771 129.727C356.771 129.727 354.572 203.732 355.898 233.231C357.224 262.73 361.623 333.896 361.623 333.896" stroke="#595CFF" stroke-width="4.30743" stroke-miterlimit="10"/>
</g>

</svg>
