<svg width="496" height="526" viewBox="0 0 496 526" fill="none" xmlns="http://www.w3.org/2000/svg">
<path d="M181.816 356.163C181.816 356.163 184.297 354.404 184.999 352.411L181.369 353.255L181.816 356.163Z" fill="#E5E5FF" stroke="#595CFF" stroke-width="2.03343" stroke-linecap="round" stroke-linejoin="round"/>
<path d="M288.581 325.489C288.581 325.489 290.187 326.069 292.963 326.302C295.739 326.536 295.119 328.6 295.119 328.6C295.119 328.6 294.02 331.782 288.347 330.857L286.578 330.654L287.32 325.174L288.591 325.479L288.581 325.489Z" fill="white" stroke="#595CFF" stroke-width="1.52507" stroke-miterlimit="10"/>
<path d="M292.952 326.313C292.952 326.313 299.368 322.694 299.886 320.457C300.405 318.22 298.931 317 297.04 317.569L290.39 318.881L284.91 323.548V325.195L292.952 326.323V326.313Z" fill="white" stroke="#595CFF" stroke-width="1.52507" stroke-miterlimit="10"/>
<path d="M299.867 318.728C299.867 318.728 303.903 317.335 303.822 314.438C303.822 314.438 303.872 312.658 302.723 312.709H294.447L292.465 318.84L299.867 318.728Z" fill="white" stroke="#595CFF" stroke-width="1.52507" stroke-miterlimit="10"/>
<path d="M350.782 51.4187C348.635 50.254 339.613 46.1426 339.613 46.1426V43.9523L297.092 13.6953L294.093 14.6688L277.978 58.1116C277.978 58.1116 273.693 68.0639 274.093 74.1223C274.493 80.1806 275.935 81.667 275.935 81.667L274.588 88.0382L275.709 91.1152C275.709 91.1152 276.553 94.6702 275.327 97.4951C274.101 100.32 273.119 102.284 273.119 102.284C273.119 102.284 269.13 109.707 267.721 117.374L265.879 126.335C265.879 126.335 266.678 128.3 260.298 131.855L254.405 148.665L230.867 150.795C230.867 150.795 223.914 153.324 222.992 161.503C222.071 169.682 222.106 206.511 222.106 206.511C222.106 206.511 222.001 211.178 226.486 212.943C230.98 214.707 232.753 214.273 232.753 214.273L260.238 215.333L323.472 217.297C323.472 217.297 335.745 216.871 338.127 214.985C340.508 213.099 342.89 207.64 342.89 207.64L343.603 192.942L342.421 188.97L344.55 188.57L346.541 138.782L345.202 137.374L346.628 136.314V131.142L337.075 121.92L337.779 95.7654C337.779 95.7654 345.141 94.8093 347.201 93.4968C349.261 92.1843 349.983 86.1347 349.983 86.1347L352.191 58.6505C352.191 58.6505 352.929 52.5747 350.782 51.41V51.4187ZM318.865 101.302L315.067 111.176C315.067 111.176 307.965 130.377 307.288 132.22C306.61 134.062 303.793 138.296 302.437 140.503C301.081 142.711 294.276 146.084 292.807 146.822C291.338 147.561 284.949 147.857 282.88 146.023C280.812 144.189 284.149 135.505 287.209 130.377C290.269 125.249 293.545 111.176 293.545 111.176C293.545 111.176 294.954 105.04 295.632 103.136C296.31 101.233 297.839 101.476 299.621 101.476C301.403 101.476 302.159 99.5465 302.159 99.5465C302.159 99.5465 301.646 93.1926 301.525 91.1673C301.403 89.1421 303.115 87.734 304.567 87.7948C306.018 87.8557 307.661 88.412 312.138 88.412C316.614 88.412 317.231 90.8631 318.874 93.6272C320.517 96.3913 318.874 101.294 318.874 101.294L318.865 101.302Z" fill="white"/>
<path d="M342.868 207.815C342.868 207.815 340.721 208.875 338.887 209.353C337.053 209.84 333.976 210.666 328.274 210.7C322.564 210.735 245.37 208.414 234.583 207.58C223.796 206.737 221.667 203.616 221.667 203.616L221.562 206.511C221.562 206.511 223.179 211.431 226.856 213.143C230.533 214.855 242.449 214.699 242.449 214.699C242.449 214.699 318.366 217.324 322.607 217.472C326.858 217.619 335.341 216.168 337.34 215.264C339.348 214.368 342.851 207.806 342.851 207.806L342.868 207.815Z" fill="#E6E6E6"/>
<path d="M237.61 214.793C233.864 214.662 228.97 214.297 226.806 213.289C223.103 211.568 221.495 206.77 221.426 206.561V206.509L221.53 203.146L221.791 203.528C221.791 203.528 224.042 206.605 234.594 207.422C244.955 208.23 321.723 210.595 328.277 210.542C333.883 210.508 336.943 209.699 338.768 209.221L338.855 209.204C340.654 208.726 342.784 207.683 342.801 207.674L343.227 207.465L343.001 207.891C342.853 208.161 339.446 214.506 337.412 215.419C335.448 216.297 326.904 217.792 322.61 217.635L242.452 214.862C242.252 214.862 240.209 214.888 237.602 214.802L237.61 214.793ZM221.721 206.501C221.852 206.883 223.486 211.412 226.928 213.011C230.535 214.689 242.339 214.549 242.46 214.549L322.627 217.322C326.895 217.47 335.352 216.001 337.299 215.132C338.942 214.393 341.706 209.604 342.514 208.161C341.793 208.491 340.272 209.16 338.942 209.508L338.855 209.525C337.012 210.012 333.927 210.821 328.286 210.864C321.732 210.907 244.946 208.543 234.577 207.735C225.694 207.04 222.643 204.823 221.808 204.006L221.721 206.492V206.501Z" fill="#747C80"/>
<path d="M259.08 215.95C247.189 215.542 238.071 215.211 236.811 215.124C236.324 215.09 235.803 215.064 235.273 215.037C231.648 214.838 227.137 214.594 224.59 212.708C221.687 210.561 220.818 206.884 220.783 206.728L220.766 206.554L222.408 159.756C222.53 159.382 225.529 150.621 231.448 149.952C236.472 149.387 251.04 148.404 253.752 148.222L259.732 131.359L259.975 131.238C259.975 131.238 263.443 129.551 264.695 127.457C265.304 126.431 265.738 123.936 266.251 121.042C266.799 117.948 267.468 114.097 268.624 110.62C269.632 107.569 270.979 104.901 272.162 102.554C273.639 99.6334 274.908 97.104 275.247 94.5747C275.56 92.2017 275.143 90.8719 274.743 90.1765C274.109 89.09 273.891 87.8036 274.126 86.5606L275.056 81.554C274.439 80.3024 271.77 74.0093 275.021 64.6828C278.498 54.7217 293.248 14.8601 293.396 14.4603L293.509 14.156L297.099 13L340.437 43.7002L337.743 121.694L347.382 130.933L347.182 136.731L345.366 137.887L344.653 136.766L345.879 135.983L346.035 131.481L336.396 122.241L339.09 44.3608L296.873 14.469L294.535 15.2165C293.153 18.9453 279.585 55.6257 276.282 65.1174C272.909 74.7916 276.299 81.0673 276.334 81.1281L276.447 81.3367L275.43 86.804C275.256 87.734 275.421 88.6989 275.89 89.5072C276.629 90.7849 276.855 92.5494 276.568 94.7485C276.203 97.5039 274.882 100.12 273.352 103.154C272.188 105.466 270.866 108.082 269.884 111.046C268.763 114.427 268.128 118.069 267.563 121.277C267.007 124.423 266.573 126.918 265.842 128.143C264.591 130.247 261.679 131.863 260.81 132.324L254.717 149.5L254.282 149.526C254.108 149.534 237.089 150.656 231.605 151.281C226.807 151.82 224.025 159.209 223.704 160.095L222.096 206.511C222.235 207.023 223.086 209.944 225.381 211.639C227.606 213.282 231.9 213.516 235.342 213.708C235.881 213.734 236.403 213.768 236.898 213.794C239.905 213.994 289.998 215.663 311.389 216.385L321.593 216.724C327.643 216.932 335.214 215.855 337.473 214.455C339.351 213.299 341.48 209.266 342.219 207.658L342.845 193.038L341.793 189.283L343.071 188.927L344.175 192.994L343.488 208.093C343.384 208.327 340.837 213.951 338.178 215.594C335.387 217.315 327.33 218.262 321.558 218.062L311.354 217.723C297.812 217.271 275.734 216.532 259.089 215.959L259.08 215.95Z" fill="#221F1F"/>
<path d="M328.746 124.554L346.443 138.47L344.705 188.675L338.134 189.918C336.934 190.144 335.717 190.239 334.5 190.196L325.626 189.892C324.435 189.848 323.392 189.092 322.983 187.979L315.161 166.553C314.039 163.468 314.031 160.095 315.161 157.01L326.756 125.136C327.051 124.319 328.068 124.032 328.755 124.571L328.746 124.554Z" fill="#E6E6E6"/>
<path d="M334.474 190.934L325.599 190.63C324.104 190.577 322.8 189.639 322.288 188.231L314.465 166.805C313.283 163.563 313.283 159.99 314.465 156.748L326.06 124.874C326.286 124.257 326.773 123.797 327.407 123.623C328.033 123.44 328.694 123.571 329.215 123.979L347.208 138.121L345.434 189.291L338.281 190.647C337.029 190.882 335.751 190.986 334.482 190.934H334.474ZM327.972 125.022C327.92 125.022 327.859 125.022 327.807 125.04C327.642 125.092 327.511 125.213 327.451 125.37L315.855 157.243C314.795 160.155 314.795 163.363 315.855 166.275L323.678 187.7C323.982 188.535 324.756 189.1 325.643 189.126L334.517 189.43C335.682 189.474 336.847 189.378 337.994 189.169L343.983 188.031L345.686 138.799L328.285 125.118C328.189 125.048 328.085 125.005 327.972 125.005V125.022Z" fill="#747C80"/>
<path d="M337.246 55.5471C337.246 55.5471 320.974 51.8183 316.541 51.3141C312.108 50.81 308.64 52.9135 307.11 56.2599C305.589 59.6063 301.017 69.8716 301.017 69.8716L276.836 81.3364C276.836 81.3364 293.698 57.781 299.957 49.8017C306.206 41.8137 312.795 44.3866 317.176 46.4118C321.556 48.4371 337.246 55.5384 337.246 55.5384V55.5471Z" fill="#F2F2F2"/>
<path d="M275.699 82.2932L276.534 81.1284C276.699 80.8938 293.474 57.4774 299.663 49.5764C306.373 41.0147 313.501 44.309 317.334 46.0822C321.663 48.0814 337.247 55.1393 337.404 55.2088L337.169 55.9129C337.004 55.8781 320.863 52.184 316.5 51.6885C312.458 51.2279 308.99 53.0445 307.451 56.417C305.93 59.7634 301.358 70.0287 301.358 70.0287L301.306 70.1504L275.708 82.2932H275.699ZM310.085 44.7262C307.025 44.6219 303.575 45.778 300.246 50.0284C294.865 56.8951 281.462 75.5308 277.977 80.3809L300.732 69.5941C301.262 68.412 305.348 59.2332 306.773 56.1041C308.451 52.4187 312.214 50.4456 316.578 50.941C319.742 51.2974 328.729 53.2531 333.779 54.3831C328.921 52.184 320.107 48.177 317.021 46.7515C315.291 45.9518 312.849 44.8218 310.085 44.7262Z" fill="#747C80"/>
<path d="M287.807 148.318C284.756 148.214 282.548 147.075 281.714 145.65C280.584 143.711 282.878 138.235 286.512 130.108C287.285 128.378 288.007 126.762 288.554 125.423C290.345 121.086 291.736 115.288 292.761 111.055C293.109 109.621 293.396 108.404 293.639 107.526L293.961 106.353C294.734 103.484 295.16 101.911 296.368 101.068C297.168 100.512 298.202 100.547 299.193 100.59C299.88 100.616 300.584 100.651 301.036 100.451C301.445 100.268 301.488 100.251 301.279 99.1298C301.21 98.7821 301.14 98.3823 301.097 97.9477C300.914 96.1832 300.688 92.6021 300.966 90.3943C301.079 89.4816 301.314 88.456 302.149 87.8128C302.966 87.1869 304.183 87.0392 306.225 87.326C307.503 87.5085 308.772 87.5259 309.989 87.552C311.927 87.5868 313.761 87.6215 315.421 88.2647C318.498 89.4555 321.662 95.2618 319.75 100.851C319.663 101.103 311.041 124.893 308.624 130.96C306.408 136.523 303.444 142.755 296.264 146.284C293.109 147.84 290.197 148.396 287.807 148.309V148.318ZM298.82 102.068C298.176 102.042 297.559 102.05 297.22 102.285C296.455 102.815 296.055 104.293 295.395 106.744L295.073 107.926C294.839 108.787 294.543 109.995 294.204 111.403C293.17 115.688 291.762 121.555 289.928 125.997C289.371 127.344 288.641 128.969 287.868 130.717C285.738 135.489 282.166 143.476 283 144.902C284.017 146.649 289.111 148.162 295.612 144.963C302.322 141.66 305.043 135.967 307.251 130.421C309.641 124.406 318.185 100.851 318.359 100.373C320.089 95.3227 317.064 90.4986 314.9 89.6555C313.483 89.1079 311.779 89.0731 309.98 89.0383C308.711 89.0123 307.407 88.9862 306.034 88.795C304.469 88.5777 303.531 88.6385 303.07 88.9949C302.748 89.2383 302.566 89.7163 302.453 90.5768C302.192 92.6542 302.427 96.2093 302.592 97.7999C302.635 98.191 302.696 98.5474 302.757 98.8603C302.957 99.9294 303.183 101.138 301.653 101.816C300.888 102.155 299.993 102.111 299.141 102.085C299.037 102.085 298.933 102.085 298.828 102.076L298.82 102.068Z" fill="#747C80"/>
<path d="M304.452 100.112L302.131 100.034L302.148 99.5647L304.469 99.6429C304.878 99.6603 305.26 99.5038 305.538 99.217C305.825 98.9302 305.964 98.5477 305.947 98.1479C305.886 96.705 305.868 95.2795 305.921 93.9149C306.034 90.6206 306.512 88.0651 306.52 88.0391L306.981 88.126C306.981 88.126 306.503 90.6727 306.39 93.9323C306.346 95.2882 306.355 96.6963 306.416 98.1305C306.442 98.6607 306.242 99.1735 305.868 99.556C305.495 99.9384 304.973 100.138 304.443 100.121L304.452 100.112Z" fill="#747C80"/>
<path d="M229.006 161.495C225.494 161.374 223.008 160.096 222.982 160.079L223.095 159.87C223.095 159.87 225.99 161.356 229.901 161.269C233.604 161.182 273.188 159.157 288.703 158.149C301.854 157.288 310.668 151.786 314.901 141.791C318.56 133.151 325.574 113.698 329.338 101.764C332.415 92.02 329.338 84.3884 320.203 79.0863C314.057 75.5225 301.115 70.0466 300.985 69.9944L301.08 69.7771C301.211 69.8293 314.17 75.3052 320.324 78.8863C329.564 84.258 332.676 91.9765 329.564 101.833C325.8 113.776 318.777 133.238 315.118 141.877C310.85 151.96 301.967 157.514 288.72 158.384C273.205 159.392 233.613 161.417 229.91 161.504C229.606 161.504 229.31 161.504 229.015 161.504L229.006 161.495Z" fill="#747C80"/>
<path d="M276.751 80.3892C276.734 80.311 275.404 72.21 277.23 66.6819C279.046 61.1799 296.691 14.1734 296.874 13.6953L297.091 13.7822C296.908 14.2603 279.263 61.2668 277.447 66.7601C275.648 72.2274 276.969 80.2762 276.977 80.3545L276.743 80.3892H276.751Z" fill="#747C80"/>
<path d="M276.359 209.196L278.167 206.44L314.135 207.683L315.239 210.421L276.359 209.196Z" fill="#CCCCCC"/>
<path d="M276.16 209.3L278.116 206.328L314.214 207.579L314.24 207.649L315.405 210.543H315.24L276.16 209.3ZM278.229 206.554L276.56 209.092L315.074 210.309L314.057 207.788L278.229 206.545V206.554Z" fill="#747C80"/>
<path d="M337.273 96.46L339.055 44.8555L350.92 50.7313C351.285 50.9051 353.136 52.1655 352.771 59.3798L352.71 60.6141C351.989 75.0516 350.972 90.167 348.912 92.792C346.426 95.9559 338.343 96.4166 337.995 96.434L337.273 96.4687V96.46ZM340.316 46.9589L338.655 95.0432C341.22 94.8172 346.287 93.9828 347.869 91.9576C349.946 89.3152 351.033 67.6547 351.389 60.5359L351.45 59.3016C351.772 52.9738 350.32 51.9047 350.303 51.896L340.316 46.9589Z" fill="#221F1F"/>
<path d="M147.178 295.119C147.178 295.119 174.354 296.268 191.964 295.119C209.573 293.97 245.931 286.508 255.498 284.21C255.498 284.21 284.21 274.307 294.113 276.605C304.016 278.903 306.598 291.53 306.598 291.53C306.598 291.53 309.76 304.015 303.152 312.342C303.152 312.342 294.398 320.09 293.035 320.527C291.673 320.964 287.799 325.976 287.942 327.125C288.084 328.274 289.09 334.944 287.728 337.028C286.366 339.112 283.499 338.899 282.848 337.028C282.197 335.157 281.485 333.297 281.201 333.012C280.916 332.727 280.479 328.345 280.479 327.481C280.479 326.617 276.961 322.743 276.961 322.743C276.961 322.743 259.382 330.714 243.084 336.662C226.786 342.61 184.522 352.523 184.522 352.523C184.522 352.523 155.332 358.979 147.178 364.652V295.109V295.119Z" fill="white" stroke="#595CFF" stroke-width="1.52507" stroke-miterlimit="10"/>
<path d="M88.7513 294.154C88.7513 294.154 101.046 292.243 106.028 292.243C111.01 292.243 130.144 295.303 134.353 294.154C138.563 293.005 156.172 289.559 159.995 289.559C163.818 289.559 184.203 291.379 188.412 292.141C192.255 292.843 198.264 294.317 198.264 294.317C198.264 294.317 180.329 329.119 180.655 341.228C180.98 353.337 181.803 356.153 181.803 356.153C181.803 356.153 168.789 362.274 164.194 362.66C159.598 363.047 152.329 367.256 152.329 371.851V416.637C152.329 423.907 148.12 438.07 147.164 442.279C146.208 446.488 132.251 509.926 132.251 509.926L100.102 511.461H78.2402L88.7513 294.154Z" fill="#E5E5FF" stroke="#595CFF" stroke-width="2.03343" stroke-linecap="round" stroke-linejoin="round"/>
<g>
<path d="M25 557.5L31.5 236L115.5 218L120 477.5L219 477.5L223.5 506.5L210.5 568L25 557.5Z" fill="#F1F4F9"/>
</g>
<path d="M134.346 294.154C134.346 294.154 153.734 343.089 153.033 369.34L134.346 294.154Z" fill="#E5E5FF"/>
<path d="M134.346 294.154C134.346 294.154 153.734 343.089 153.033 369.34" stroke="#595CFF" stroke-width="1.01671" stroke-miterlimit="10"/>
<path d="M282.59 334.302C283.068 334.13 284.044 334.262 284.115 334.923L284.247 335.4C284.4 336.041 284.593 336.682 284.563 337.373C284.563 337.424 284.512 337.464 284.461 337.464C284.41 337.464 284.369 337.424 284.369 337.383C284.278 336.753 284.034 336.132 283.82 335.533C283.739 335.38 283.617 334.882 283.475 334.841C283.302 334.74 282.946 334.77 282.671 334.811C282.356 334.862 282.275 334.374 282.58 334.313L282.59 334.302Z" fill="#595CFF"/>
<path d="M391.983 403.369C394.156 403.422 396.308 403.779 398.385 404.429L453.071 421.567C454.781 422.105 456.261 423.197 457.279 424.678L470.705 444.24C471.43 445.289 471.813 446.535 471.813 447.813V461.576C471.813 463.083 471.312 464.547 470.391 465.74L466.929 470.23C464.591 473.266 460.996 475.071 457.167 475.135L381.4 476.478C379.611 476.509 377.843 476.089 376.25 475.269C373.033 473.607 366.344 470.917 357.018 471.082C356.257 471.093 355.5 470.928 354.824 470.576L351.735 468.952C350.686 468.403 349.525 468.11 348.342 468.105L314.065 467.999L279.787 468.105C278.605 468.105 277.438 468.398 276.395 468.952L273.305 470.576C272.629 470.933 271.873 471.098 271.111 471.082C261.786 470.917 255.096 473.607 251.879 475.269C250.287 476.089 248.524 476.509 246.729 476.478L170.963 475.135C167.133 475.066 163.538 473.261 161.2 470.23L157.738 465.74C156.817 464.547 156.316 463.083 156.316 461.576V447.813C156.316 446.541 156.705 445.294 157.424 444.24L167.123 424.678C168.14 423.197 169.621 422.105 171.33 421.567L210.039 404.429C212.111 403.779 214.268 403.422 216.441 403.369H391.983Z" fill="white" stroke="black" stroke-width="1.59778" stroke-miterlimit="10"/>
<path d="M351.652 418.937L334.215 405.905C333.56 405.415 332.766 405.154 331.946 405.154H235.664C235.068 405.154 234.482 405.303 233.96 405.58L210.59 418.122C210.462 418.191 210.51 418.388 210.654 418.388L351.498 419.379C351.737 419.379 351.838 419.076 351.647 418.932L351.652 418.937Z" fill="#FBFBFF" stroke="black" stroke-width="1.06518" stroke-miterlimit="10"/>
<path d="M471.549 456.681C471.549 456.681 468.343 459.286 458.719 459.286H388.545C388.545 459.286 377.115 459.685 370.096 456.681C363.076 453.672 360.674 453.273 353.255 453.07H315.851H314.078H276.674C269.255 453.273 266.848 453.672 259.833 456.681C252.819 459.69 241.384 459.286 241.384 459.286H171.2C159.77 459.302 156.324 455.403 156.324 455.403" stroke="black" stroke-width="1.06518" stroke-miterlimit="10"/>
<path d="M156.365 447.11C156.365 447.11 161.425 450.513 167.438 450.513H238.72C238.72 450.513 249.398 451.264 256.162 444.271C262.926 437.278 266.09 431.415 278.947 431.265H310.822H355.56C368.417 431.415 371.575 437.278 378.344 444.271C385.113 451.264 395.786 450.513 395.786 450.513C395.786 450.513 454.659 450.513 460.677 450.513C466.69 450.513 471.75 447.11 471.75 447.11" stroke="black" stroke-width="1.06518" stroke-miterlimit="10"/>
<path d="M272.184 471.002L274.341 465.404C274.341 465.404 275.092 462.246 282.159 462.699H311.856H316.383H346.081C353.148 462.246 353.899 465.404 353.899 465.404L356.056 471.002" stroke="black" stroke-width="1.06518" stroke-miterlimit="10"/>
<path d="M169.884 422.197C169.884 422.197 168.643 424.05 176.765 424.199H445.49C445.49 424.199 453.042 423.949 454.528 422.197" stroke="black" stroke-width="0.532592" stroke-miterlimit="10"/>
<path d="M190.819 444.054C191.689 444.054 192.395 443.582 192.395 443C192.395 442.417 191.689 441.945 190.819 441.945C189.948 441.945 189.242 442.417 189.242 443C189.242 443.582 189.948 444.054 190.819 444.054Z" stroke="#CDCDD8" stroke-width="0.532592" stroke-miterlimit="10"/>
<path d="M237.848 429.403C238.719 429.403 239.424 428.931 239.424 428.348C239.424 427.766 238.719 427.294 237.848 427.294C236.977 427.294 236.271 427.766 236.271 428.348C236.271 428.931 236.977 429.403 237.848 429.403Z" stroke="#CDCDD8" stroke-width="0.532592" stroke-miterlimit="10"/>
<path d="M440.231 444.054C441.101 444.054 441.807 443.582 441.807 443C441.807 442.417 441.101 441.945 440.231 441.945C439.36 441.945 438.654 442.417 438.654 443C438.654 443.582 439.36 444.054 440.231 444.054Z" stroke="#CDCDD8" stroke-width="0.532592" stroke-miterlimit="10"/>
<path d="M393.205 429.403C394.076 429.403 394.782 428.931 394.782 428.348C394.782 427.766 394.076 427.294 393.205 427.294C392.335 427.294 391.629 427.766 391.629 428.348C391.629 428.931 392.335 429.403 393.205 429.403Z" stroke="#CDCDD8" stroke-width="0.532592" stroke-miterlimit="10"/>
<path d="M361.919 420.6L377.087 422.197C377.407 422.197 377.556 421.936 377.417 421.622C377.284 421.303 376.911 421.047 376.597 421.047L361.429 419.449C361.109 419.449 360.96 419.71 361.099 420.024C361.232 420.344 361.605 420.6 361.919 420.6Z" stroke="#CDCDD8" stroke-width="0.532592" stroke-miterlimit="10"/>
<path d="M208.443 423.228C209.358 423.228 210.1 423.025 210.1 422.775C210.1 422.525 209.358 422.323 208.443 422.323C207.529 422.323 206.787 422.525 206.787 422.775C206.787 423.025 207.529 423.228 208.443 423.228Z" stroke="#CDCDD8" stroke-width="0.532592" stroke-miterlimit="10"/>
<path d="M196.581 420.6L181.413 422.197C181.094 422.197 180.945 421.936 181.083 421.622C181.216 421.303 181.589 421.047 181.903 421.047L197.071 419.449C197.391 419.449 197.54 419.71 197.402 420.024C197.268 420.344 196.896 420.6 196.581 420.6Z" stroke="#CDCDD8" stroke-width="0.532592" stroke-miterlimit="10"/>
<path d="M257.766 423.228C258.681 423.228 259.422 423.025 259.422 422.775C259.422 422.525 258.681 422.323 257.766 422.323C256.851 422.323 256.109 422.525 256.109 422.775C256.109 423.025 256.851 423.228 257.766 423.228Z" stroke="#CDCDD8" stroke-width="0.532592" stroke-miterlimit="10"/>
<path d="M307.086 423.228C308.001 423.228 308.742 423.025 308.742 422.775C308.742 422.525 308.001 422.323 307.086 422.323C306.171 422.323 305.43 422.525 305.43 422.775C305.43 423.025 306.171 423.228 307.086 423.228Z" stroke="#CDCDD8" stroke-width="0.532592" stroke-miterlimit="10"/>
<path d="M356.414 423.228C357.329 423.228 358.071 423.025 358.071 422.775C358.071 422.525 357.329 422.323 356.414 422.323C355.499 422.323 354.758 422.525 354.758 422.775C354.758 423.025 355.499 423.228 356.414 423.228Z" stroke="#CDCDD8" stroke-width="0.532592" stroke-miterlimit="10"/>
<path d="M397.42 423.228C398.335 423.228 399.076 423.025 399.076 422.775C399.076 422.525 398.335 422.323 397.42 422.323C396.505 422.323 395.764 422.525 395.764 422.775C395.764 423.025 396.505 423.228 397.42 423.228Z" stroke="#CDCDD8" stroke-width="0.532592" stroke-miterlimit="10"/>
<path d="M430.442 423.228C431.356 423.228 432.098 423.025 432.098 422.775C432.098 422.525 431.356 422.323 430.442 422.323C429.527 422.323 428.785 422.525 428.785 422.775C428.785 423.025 429.527 423.228 430.442 423.228Z" stroke="#CDCDD8" stroke-width="0.532592" stroke-miterlimit="10"/>
<path d="M235.363 421.797C236.278 421.797 237.02 421.594 237.02 421.344C237.02 421.094 236.278 420.891 235.363 420.891C234.449 420.891 233.707 421.094 233.707 421.344C233.707 421.594 234.449 421.797 235.363 421.797Z" stroke="#CDCDD8" stroke-width="0.532592" stroke-miterlimit="10"/>
<path d="M281.975 421.797C282.89 421.797 283.631 421.594 283.631 421.344C283.631 421.094 282.89 420.891 281.975 420.891C281.06 420.891 280.318 421.094 280.318 421.344C280.318 421.594 281.06 421.797 281.975 421.797Z" stroke="#CDCDD8" stroke-width="0.532592" stroke-miterlimit="10"/>
<path d="M326.734 421.797C327.649 421.797 328.391 421.594 328.391 421.344C328.391 421.094 327.649 420.891 326.734 420.891C325.82 420.891 325.078 421.094 325.078 421.344C325.078 421.594 325.82 421.797 326.734 421.797Z" stroke="#CDCDD8" stroke-width="0.532592" stroke-miterlimit="10"/>
<path d="M369.219 417.925C370.134 417.925 370.875 417.722 370.875 417.472C370.875 417.222 370.134 417.02 369.219 417.02C368.304 417.02 367.562 417.222 367.562 417.472C367.562 417.722 368.304 417.925 369.219 417.925Z" stroke="#CDCDD8" stroke-width="0.532592" stroke-miterlimit="10"/>
<path d="M409.164 419.523C410.079 419.523 410.821 419.32 410.821 419.07C410.821 418.82 410.079 418.617 409.164 418.617C408.249 418.617 407.508 418.82 407.508 419.07C407.508 419.32 408.249 419.523 409.164 419.523Z" stroke="#CDCDD8" stroke-width="0.532592" stroke-miterlimit="10"/>
<path d="M394.783 413.664C395.698 413.664 396.44 413.461 396.44 413.211C396.44 412.961 395.698 412.759 394.783 412.759C393.869 412.759 393.127 412.961 393.127 413.211C393.127 413.461 393.869 413.664 394.783 413.664Z" stroke="#CDCDD8" stroke-width="0.532592" stroke-miterlimit="10"/>
<path d="M384.4 409.398C385.168 409.398 385.79 409.228 385.79 409.019C385.79 408.811 385.168 408.641 384.4 408.641C383.632 408.641 383.01 408.811 383.01 409.019C383.01 409.228 383.632 409.398 384.4 409.398Z" stroke="#CDCDD8" stroke-width="0.532592" stroke-miterlimit="10"/>
<path d="M371.335 413.589C372.103 413.589 372.725 413.42 372.725 413.211C372.725 413.002 372.103 412.833 371.335 412.833C370.568 412.833 369.945 413.002 369.945 413.211C369.945 413.42 370.568 413.589 371.335 413.589Z" stroke="#CDCDD8" stroke-width="0.532592" stroke-miterlimit="10"/>
<path d="M363.638 409.27C364.406 409.27 365.028 409.101 365.028 408.892C365.028 408.683 364.406 408.514 363.638 408.514C362.87 408.514 362.248 408.683 362.248 408.892C362.248 409.101 362.87 409.27 363.638 409.27Z" stroke="#CDCDD8" stroke-width="0.532592" stroke-miterlimit="10"/>
<path d="M348.838 406.326C349.494 406.326 350.026 406.18 350.026 406.001C350.026 405.821 349.494 405.676 348.838 405.676C348.182 405.676 347.65 405.821 347.65 406.001C347.65 406.18 348.182 406.326 348.838 406.326Z" stroke="#CDCDD8" stroke-width="0.532592" stroke-miterlimit="10"/>
<path d="M375.228 406.187C375.748 406.187 376.171 406.073 376.171 405.932C376.171 405.79 375.748 405.676 375.228 405.676C374.707 405.676 374.285 405.79 374.285 405.932C374.285 406.073 374.707 406.187 375.228 406.187Z" stroke="#CDCDD8" stroke-width="0.532592" stroke-miterlimit="10"/>
<path d="M192.817 469.947L193.301 474.229H190.031L192.817 469.947Z" fill="#C5C5D3" stroke="black" stroke-width="0.532592" stroke-linecap="round" stroke-linejoin="round"/>
<path d="M210.893 470.166L205.844 470.097L206.643 474.384L211.542 474.448L210.893 470.166Z" fill="#C5C5D3" stroke="black" stroke-width="0.532592" stroke-linecap="round" stroke-linejoin="round"/>
<path d="M224.241 474.613L229.732 474.682L228.943 470.394L223.756 470.331L224.241 474.613Z" fill="#C5C5D3" stroke="black" stroke-width="0.532592" stroke-linecap="round" stroke-linejoin="round"/>
<path d="M200.464 474.31L205.551 474.374L204.746 470.086L199.66 470.017L200.464 474.31Z" fill="#C5C5D3" stroke="black" stroke-width="0.532592" stroke-linecap="round" stroke-linejoin="round"/>
<path d="M217.033 470.24L211.984 470.177L212.634 474.464L217.518 474.528L217.033 470.24Z" fill="#C5C5D3" stroke="black" stroke-width="0.532592" stroke-linecap="round" stroke-linejoin="round"/>
<path d="M198.568 470.005L193.939 469.947L194.504 474.229L199.372 474.293L198.568 470.005Z" fill="#C5C5D3" stroke="black" stroke-width="0.532592" stroke-linecap="round" stroke-linejoin="round"/>
<path d="M222.659 470.315L218.127 470.257L218.612 474.539L223.149 474.597L222.659 470.315Z" fill="#C5C5D3" stroke="black" stroke-width="0.532592" stroke-linecap="round" stroke-linejoin="round"/>
<path d="M230.109 470.364L230.828 474.651H234.098L230.109 470.364Z" fill="#C5C5D3" stroke="black" stroke-width="0.532592" stroke-linecap="round" stroke-linejoin="round"/>
<defs>

</defs>
</svg>
