<svg width="519" height="504" viewBox="0 0 519 504" fill="none" xmlns="http://www.w3.org/2000/svg">
<g clip-path="url(#clip0_236_19614)">
<path d="M298.291 333.428C298.291 333.428 294.819 325.758 285.695 325.758C276.57 325.758 275.105 329.588 275.105 329.588C275.105 329.588 265.253 332.507 265.796 334.514C266.339 336.521 262.693 339.256 262.693 339.256L298.291 333.418V333.428Z" fill="white" stroke="#595CFF" stroke-width="1.54895" stroke-miterlimit="10"/>
<path d="M375.216 376.811C377.418 376.865 379.599 377.227 381.705 377.886L437.141 395.259C438.874 395.805 440.375 396.911 441.406 398.412L455.017 418.243C455.751 419.306 456.14 420.57 456.14 421.865V435.816C456.14 437.344 455.633 438.829 454.699 440.038L451.189 444.589C448.819 447.667 445.175 449.497 441.293 449.562L364.488 450.922C362.674 450.955 360.881 450.528 359.267 449.697C356.006 448.012 349.225 445.286 339.772 445.453C339 445.464 338.233 445.297 337.547 444.94L334.416 443.294C333.352 442.738 332.175 442.441 330.977 442.435L296.229 442.327L261.482 442.435C260.283 442.435 259.101 442.732 258.043 443.294L254.911 444.94C254.226 445.302 253.459 445.469 252.687 445.453C243.233 445.286 236.452 448.012 233.191 449.697C231.577 450.528 229.79 450.955 227.971 450.922L151.165 449.562C147.284 449.492 143.639 447.661 141.269 444.589L137.76 440.038C136.826 438.829 136.318 437.344 136.318 435.816V421.865C136.318 420.575 136.712 419.312 137.441 418.243L147.273 398.412C148.304 396.911 149.805 395.805 151.538 395.259L190.777 377.886C192.878 377.227 195.064 376.865 197.267 376.811H375.216Z" fill="white" stroke="black" stroke-width="1.61968" stroke-miterlimit="10"/>
<path d="M334.331 392.591L316.655 379.38C315.991 378.883 315.186 378.619 314.355 378.619H216.753C216.148 378.619 215.555 378.77 215.025 379.051L191.335 391.765C191.205 391.835 191.254 392.035 191.4 392.035L334.174 393.039C334.417 393.039 334.52 392.731 334.326 392.586L334.331 392.591Z" fill="#FBFBFF" stroke="black" stroke-width="1.07979" stroke-miterlimit="10"/>
<path d="M455.871 430.855C455.871 430.855 452.62 433.495 442.865 433.495H371.728C371.728 433.495 360.142 433.9 353.026 430.855C345.911 427.804 343.476 427.399 335.955 427.194H298.038H296.24H258.324C250.803 427.399 248.363 427.804 241.252 430.855C234.142 433.905 222.55 433.495 222.55 433.495H151.403C139.817 433.511 136.324 429.559 136.324 429.559" stroke="black" stroke-width="1.07979" stroke-miterlimit="10"/>
<path d="M136.367 421.152C136.367 421.152 141.496 424.602 147.592 424.602H219.851C219.851 424.602 230.676 425.363 237.532 418.274C244.389 411.185 247.596 405.241 260.629 405.09H292.942H338.293C351.326 405.241 354.527 411.185 361.389 418.274C368.251 425.363 379.071 424.602 379.071 424.602C379.071 424.602 438.75 424.602 444.851 424.602C450.947 424.602 456.076 421.152 456.076 421.152" stroke="black" stroke-width="1.07979" stroke-miterlimit="10"/>
<path d="M253.773 445.371L255.96 439.697C255.96 439.697 256.721 436.496 263.886 436.954H293.99H298.579H328.684C335.848 436.496 336.609 439.697 336.609 439.697L338.796 445.371" stroke="black" stroke-width="1.07979" stroke-miterlimit="10"/>
<path d="M150.069 395.896C150.069 395.896 148.811 397.775 157.044 397.926H429.453C429.453 397.926 437.108 397.672 438.615 395.896" stroke="black" stroke-width="0.539893" stroke-miterlimit="10"/>
<path d="M171.293 418.053C172.176 418.053 172.891 417.574 172.891 416.984C172.891 416.394 172.176 415.915 171.293 415.915C170.411 415.915 169.695 416.394 169.695 416.984C169.695 417.574 170.411 418.053 171.293 418.053Z" stroke="#CDCDD8" stroke-width="0.539893" stroke-miterlimit="10"/>
<path d="M218.965 403.202C219.848 403.202 220.563 402.723 220.563 402.133C220.563 401.543 219.848 401.064 218.965 401.064C218.083 401.064 217.367 401.543 217.367 402.133C217.367 402.723 218.083 403.202 218.965 403.202Z" stroke="#CDCDD8" stroke-width="0.539893" stroke-miterlimit="10"/>
<path d="M424.125 418.053C425.008 418.053 425.724 417.574 425.724 416.984C425.724 416.394 425.008 415.915 424.125 415.915C423.243 415.915 422.527 416.394 422.527 416.984C422.527 417.574 423.243 418.053 424.125 418.053Z" stroke="#CDCDD8" stroke-width="0.539893" stroke-miterlimit="10"/>
<path d="M376.452 403.202C377.334 403.202 378.05 402.723 378.05 402.133C378.05 401.543 377.334 401.064 376.452 401.064C375.569 401.064 374.854 401.543 374.854 402.133C374.854 402.723 375.569 403.202 376.452 403.202Z" stroke="#CDCDD8" stroke-width="0.539893" stroke-miterlimit="10"/>
<path d="M344.739 394.278L360.116 395.898C360.439 395.898 360.591 395.633 360.45 395.315C360.315 394.991 359.937 394.732 359.619 394.732L344.243 393.112C343.919 393.112 343.768 393.377 343.908 393.695C344.043 394.019 344.421 394.278 344.739 394.278Z" stroke="#CDCDD8" stroke-width="0.539893" stroke-miterlimit="10"/>
<path d="M189.158 396.943C190.085 396.943 190.837 396.737 190.837 396.484C190.837 396.231 190.085 396.025 189.158 396.025C188.23 396.025 187.479 396.231 187.479 396.484C187.479 396.737 188.23 396.943 189.158 396.943Z" stroke="#CDCDD8" stroke-width="0.539893" stroke-miterlimit="10"/>
<path d="M177.134 394.278L161.758 395.898C161.434 395.898 161.283 395.633 161.424 395.315C161.559 394.991 161.936 394.732 162.255 394.732L177.631 393.112C177.955 393.112 178.106 393.377 177.966 393.695C177.831 394.019 177.453 394.278 177.134 394.278Z" stroke="#CDCDD8" stroke-width="0.539893" stroke-miterlimit="10"/>
<path d="M239.156 396.943C240.083 396.943 240.835 396.737 240.835 396.484C240.835 396.231 240.083 396.025 239.156 396.025C238.228 396.025 237.477 396.231 237.477 396.484C237.477 396.737 238.228 396.943 239.156 396.943Z" stroke="#CDCDD8" stroke-width="0.539893" stroke-miterlimit="10"/>
<path d="M289.158 396.943C290.085 396.943 290.837 396.737 290.837 396.484C290.837 396.231 290.085 396.025 289.158 396.025C288.23 396.025 287.479 396.231 287.479 396.484C287.479 396.737 288.23 396.943 289.158 396.943Z" stroke="#CDCDD8" stroke-width="0.539893" stroke-miterlimit="10"/>
<path d="M339.156 396.943C340.083 396.943 340.835 396.737 340.835 396.484C340.835 396.231 340.083 396.025 339.156 396.025C338.228 396.025 337.477 396.231 337.477 396.484C337.477 396.737 338.228 396.943 339.156 396.943Z" stroke="#CDCDD8" stroke-width="0.539893" stroke-miterlimit="10"/>
<path d="M380.73 396.943C381.657 396.943 382.409 396.737 382.409 396.484C382.409 396.231 381.657 396.025 380.73 396.025C379.803 396.025 379.051 396.231 379.051 396.484C379.051 396.737 379.803 396.943 380.73 396.943Z" stroke="#CDCDD8" stroke-width="0.539893" stroke-miterlimit="10"/>
<path d="M414.203 396.943C415.13 396.943 415.882 396.737 415.882 396.484C415.882 396.231 415.13 396.025 414.203 396.025C413.275 396.025 412.523 396.231 412.523 396.484C412.523 396.737 413.275 396.943 414.203 396.943Z" stroke="#CDCDD8" stroke-width="0.539893" stroke-miterlimit="10"/>
<path d="M216.451 395.491C217.378 395.491 218.13 395.286 218.13 395.032C218.13 394.779 217.378 394.573 216.451 394.573C215.523 394.573 214.771 394.779 214.771 395.032C214.771 395.286 215.523 395.491 216.451 395.491Z" stroke="#CDCDD8" stroke-width="0.539893" stroke-miterlimit="10"/>
<path d="M263.701 395.491C264.628 395.491 265.38 395.286 265.38 395.032C265.38 394.779 264.628 394.573 263.701 394.573C262.773 394.573 262.021 394.779 262.021 395.032C262.021 395.286 262.773 395.491 263.701 395.491Z" stroke="#CDCDD8" stroke-width="0.539893" stroke-miterlimit="10"/>
<path d="M309.076 395.492C310.003 395.492 310.755 395.286 310.755 395.033C310.755 394.779 310.003 394.574 309.076 394.574C308.148 394.574 307.396 394.779 307.396 395.033C307.396 395.286 308.148 395.492 309.076 395.492Z" stroke="#CDCDD8" stroke-width="0.539893" stroke-miterlimit="10"/>
<path d="M352.138 391.566C353.065 391.566 353.817 391.36 353.817 391.107C353.817 390.853 353.065 390.648 352.138 390.648C351.211 390.648 350.459 390.853 350.459 391.107C350.459 391.36 351.211 391.566 352.138 391.566Z" stroke="#CDCDD8" stroke-width="0.539893" stroke-miterlimit="10"/>
<path d="M392.632 393.186C393.56 393.186 394.311 392.98 394.311 392.727C394.311 392.474 393.56 392.268 392.632 392.268C391.705 392.268 390.953 392.474 390.953 392.727C390.953 392.98 391.705 393.186 392.632 393.186Z" stroke="#CDCDD8" stroke-width="0.539893" stroke-miterlimit="10"/>
<path d="M378.056 387.247C378.983 387.247 379.735 387.042 379.735 386.788C379.735 386.535 378.983 386.329 378.056 386.329C377.129 386.329 376.377 386.535 376.377 386.788C376.377 387.042 377.129 387.247 378.056 387.247Z" stroke="#CDCDD8" stroke-width="0.539893" stroke-miterlimit="10"/>
<path d="M367.526 382.923C368.305 382.923 368.935 382.751 368.935 382.539C368.935 382.328 368.305 382.156 367.526 382.156C366.748 382.156 366.117 382.328 366.117 382.539C366.117 382.751 366.748 382.923 367.526 382.923Z" stroke="#CDCDD8" stroke-width="0.539893" stroke-miterlimit="10"/>
<path d="M354.284 387.171C355.062 387.171 355.693 387 355.693 386.788C355.693 386.576 355.062 386.405 354.284 386.405C353.506 386.405 352.875 386.576 352.875 386.788C352.875 387 353.506 387.171 354.284 387.171Z" stroke="#CDCDD8" stroke-width="0.539893" stroke-miterlimit="10"/>
<path d="M346.479 382.793C347.258 382.793 347.889 382.621 347.889 382.409C347.889 382.198 347.258 382.026 346.479 382.026C345.701 382.026 345.07 382.198 345.07 382.409C345.07 382.621 345.701 382.793 346.479 382.793Z" stroke="#CDCDD8" stroke-width="0.539893" stroke-miterlimit="10"/>
<path d="M331.479 379.807C332.144 379.807 332.683 379.66 332.683 379.478C332.683 379.296 332.144 379.149 331.479 379.149C330.814 379.149 330.275 379.296 330.275 379.478C330.275 379.66 330.814 379.807 331.479 379.807Z" stroke="#CDCDD8" stroke-width="0.539893" stroke-miterlimit="10"/>
<path d="M358.231 379.667C358.759 379.667 359.187 379.551 359.187 379.408C359.187 379.265 358.759 379.149 358.231 379.149C357.703 379.149 357.275 379.265 357.275 379.408C357.275 379.551 357.703 379.667 358.231 379.667Z" stroke="#CDCDD8" stroke-width="0.539893" stroke-miterlimit="10"/>
<path d="M173.32 444.302L173.811 448.643H170.496L173.32 444.302Z" fill="#C5C5D3" stroke="black" stroke-width="0.539893" stroke-linecap="round" stroke-linejoin="round"/>
<path d="M191.642 444.524L186.523 444.453L187.333 448.8L192.3 448.864L191.642 444.524Z" fill="#C5C5D3" stroke="black" stroke-width="0.539893" stroke-linecap="round" stroke-linejoin="round"/>
<path d="M205.171 449.031L210.737 449.102L209.938 444.755L204.68 444.691L205.171 449.031Z" fill="#C5C5D3" stroke="black" stroke-width="0.539893" stroke-linecap="round" stroke-linejoin="round"/>
<path d="M181.069 448.724L186.225 448.789L185.41 444.443L180.254 444.372L181.069 448.724Z" fill="#C5C5D3" stroke="black" stroke-width="0.539893" stroke-linecap="round" stroke-linejoin="round"/>
<path d="M197.866 444.6L192.748 444.535L193.407 448.881L198.358 448.946L197.866 444.6Z" fill="#C5C5D3" stroke="black" stroke-width="0.539893" stroke-linecap="round" stroke-linejoin="round"/>
<path d="M179.147 444.361L174.455 444.302L175.027 448.643L179.962 448.707L179.147 444.361Z" fill="#C5C5D3" stroke="black" stroke-width="0.539893" stroke-linecap="round" stroke-linejoin="round"/>
<path d="M203.567 444.675L198.973 444.616L199.464 448.957L204.064 449.016L203.567 444.675Z" fill="#C5C5D3" stroke="black" stroke-width="0.539893" stroke-linecap="round" stroke-linejoin="round"/>
<path d="M211.123 444.723L211.852 449.07H215.167L211.123 444.723Z" fill="#C5C5D3" stroke="black" stroke-width="0.539893" stroke-linecap="round" stroke-linejoin="round"/>
<path d="M105.357 302.213C105.357 302.213 138.21 308.788 192.242 324.846C246.273 340.904 266.346 336.531 266.346 336.531C266.346 336.531 278.031 330.693 283.5 329.229C288.969 327.765 301.391 328.502 307.228 341.825C313.066 355.149 312.523 365.922 307.228 373.224C301.934 380.526 294.089 383.076 291.345 383.445C288.601 383.813 266.336 385.82 261.953 385.82C257.57 385.82 219.975 388.739 215.408 389.108C210.841 389.476 170.501 389.835 165.032 389.108C159.563 388.38 123.966 380.894 121.958 380.894C119.951 380.894 99.1414 378.16 97.3184 379.43" fill="white"/>
<path d="M105.357 302.213C105.357 302.213 138.21 308.788 192.242 324.846C246.273 340.904 266.346 336.531 266.346 336.531C266.346 336.531 278.031 330.693 283.5 329.229C288.969 327.765 301.391 328.502 307.228 341.825C313.066 355.149 312.523 365.922 307.228 373.224C301.934 380.526 294.089 383.076 291.345 383.445C288.601 383.813 266.336 385.82 261.953 385.82C257.57 385.82 219.975 388.739 215.408 389.108C210.841 389.476 170.501 389.835 165.032 389.108C159.563 388.38 123.966 380.894 121.958 380.894C119.951 380.894 99.1414 378.16 97.3184 379.43" stroke="#595CFF" stroke-width="1.54895" stroke-miterlimit="10"/>
<path d="M445.375 61.8397C445.375 61.8397 443.604 60.1605 440.246 58.0131C436.887 55.8657 405.806 37.3838 404.137 36.2745C402.468 35.1753 400.432 34.6054 398.356 37.3838C396.28 40.1622 371.987 76.9122 369.595 80.4335C367.204 83.9548 366.685 89.42 368.415 93.9081C370.145 98.3963 374.328 102.569 374.328 102.569C374.328 102.569 376.363 107.759 376.526 112.085C376.689 116.41 377.35 117.835 373.768 122.75C370.186 127.666 364.527 134.291 361.413 139.248C358.299 144.204 355.286 151.359 352.956 154.361C350.625 157.363 348.244 157.455 346.188 160.192C344.132 162.93 341.883 166.553 341.883 166.553" stroke="#221F1F" stroke-width="1.32304" stroke-miterlimit="10"/>
<path d="M279.34 226.834L280.378 232.044C280.378 232.044 286.23 237.428 291.41 240.186C296.59 242.944 309.383 248.399 309.383 248.399L318.532 251.117L343.517 255.676L371.484 259.92L392.277 263.014L401.121 264.276C401.121 264.276 405.09 264.693 407.481 262.932C409.873 261.172 414.31 256.694 415.694 254.17C417.078 251.646 422.371 239.413 422.625 235.21L422.36 233.286C422.36 233.286 424.589 232.757 425.475 230.915L430.36 213.105L441.545 171.856L438.898 169.149H441.005L442.664 163.012L440.527 160.315C440.527 160.315 440.171 159.481 440.659 157.445C441.148 155.41 445.381 140.002 445.381 140.002L450.297 122.1L454.317 122.558C454.317 122.558 456.617 121.917 457.329 121.062C458.042 120.207 465.848 103.15 465.848 103.15C465.848 103.15 469.237 95.5372 468.535 91.8531C467.832 88.1689 466.713 84.3728 464.515 81.5537C462.316 78.7346 454.938 68.0689 454.938 68.0689L449.615 62.1152C449.615 62.1152 447.295 61.3926 445.381 61.8201L438.308 56.7925L427.296 50.1671L405.151 36.8858C405.151 36.8858 401.1 33.4663 398.546 37.1403C395.991 40.8143 388.206 52.4468 388.206 52.4468L379.27 65.891L368.95 81.5232C368.95 81.5232 365.928 88.23 368.024 92.7283C368.024 92.7283 369.48 97.0333 371.24 98.8754C373.001 100.717 374.446 102.875 374.446 102.875C374.446 102.875 376.543 108.452 376.563 112.757C376.583 117.062 376.532 118.802 374.833 121.204C373.133 123.606 363.852 135.686 363.852 135.686C363.852 135.686 359.251 142.983 357.46 146.423C355.669 149.863 352.25 155.166 352.25 155.166L348.291 158.148L346.174 160.173L341.869 166.819L320.792 168.172C320.792 168.172 312.67 168.467 307.612 170.686C302.554 172.905 300.397 175.866 300.397 175.866L295.613 187.224L280.337 223.842L279.34 226.793V226.834Z" fill="white"/>
<path d="M439.278 57.4035C439.278 57.4035 435.807 55.8973 433.161 59.7647C431.37 62.3802 429.619 68.4865 427.838 73.7685C426.057 79.0505 413.651 115.841 411.534 122.1C409.418 128.359 415.137 134.842 415.137 134.842" stroke="#747C80" stroke-width="0.346026" stroke-miterlimit="10"/>
<path d="M430.577 64.5469C429.793 64.323 415.596 60.3132 412.349 59.3056C409.103 58.2981 404.991 56.8224 399.19 60.6388C393.399 64.4553 380.362 78.5304 376.892 82.4079C373.422 86.2855 370.786 91.4351 371.793 95.3737C372.76 99.1495 374.185 102.009 374.307 102.243C374.317 101.989 374.47 99.2207 376.312 97.3481C378.235 95.3839 384.667 91.0077 390.031 86.774C392.26 85.0133 391.547 83.0898 391.527 83.0491C391.588 82.9677 399.2 72.3427 402.498 68.6992C405.795 65.0558 409.296 64.0584 416.359 64.3637C423.422 64.669 430.027 64.5673 430.567 64.5673L430.577 64.5469Z" fill="#F2F2F2" stroke="#747C80" stroke-width="0.47833" stroke-miterlimit="10"/>
<path d="M443.173 60.0392C443.173 60.0392 438.807 56.9046 435.621 60.3852C433.861 62.3189 432.812 65.5959 431.978 68.0792C431.143 70.5624 415.521 116.482 413.964 121.479C412.407 126.476 411.267 130.903 415.643 135.381C420.02 139.859 435.408 154.006 435.408 154.006" stroke="#221F1F" stroke-width="0.569925" stroke-miterlimit="10"/>
<path d="M441.852 62.1255C441.852 62.1255 445.882 61.7998 446.93 61.6981C447.978 61.5963 448.874 61.7388 449.607 62.1255C450.339 62.5122 451.367 63.5707 451.367 63.5707" stroke="#221F1F" stroke-width="1.32304" stroke-miterlimit="10"/>
<path d="M442.889 108.818C443.134 108.452 443.124 107.973 442.859 107.627C442.269 106.844 441.231 105.276 440.549 103.048C439.551 99.7706 440.355 95.9541 441.129 91.1708C441.902 86.3875 444.467 69.707 444.996 66.8778C445.525 64.0485 448.975 60.5882 451.825 64.079C454.675 67.5596 463.834 79.9657 466.348 84.5963C468.872 89.227 469.32 95.028 467.03 100.381C464.74 105.734 458.847 118.944 457.962 120.329C457.077 121.713 455.53 122.028 454.451 121.306C453.759 120.837 453.057 120.094 452.649 119.626C452.426 119.362 452.049 119.28 451.734 119.413L451.092 119.677C450.889 119.759 450.655 119.708 450.502 119.545L446.452 115.118L442.554 109.846C442.442 109.693 442.442 109.5 442.543 109.347L442.9 108.818H442.889Z" fill="#E6E6E6" stroke="#747C80" stroke-width="1.32304" stroke-miterlimit="10"/>
<path d="M391.547 83.0398C391.547 83.0398 400.482 86.4695 403.881 87.8943C407.281 89.309 413.987 92.6573 412.288 100.372C410.588 108.086 407.871 111.322 403.118 118.731C398.365 126.14 385.756 145.681 378.896 154.087C372.047 162.504 364.923 167.307 349.657 169.546C334.391 171.785 322.158 171.714 315.004 172.64C307.849 173.556 300.379 175.907 300.379 175.907" stroke="#747C80" stroke-width="0.47833" stroke-miterlimit="10"/>
<path d="M408.041 101.185C408.041 101.185 408.998 104.208 406.769 108.421C404.54 112.625 387.402 139.645 381.896 146.891C376.39 154.137 371.698 160.569 359.994 164.009C348.291 167.449 331.468 167.093 323.071 167.958C314.675 168.823 310.838 169.24 307.429 170.787C304.02 172.344 300.386 175.896 300.386 175.896L280.836 222.376L279.34 226.823L280.378 232.034C280.378 232.034 283.034 236.441 299.318 244.277C315.601 252.114 332.577 253.874 341.97 255.421C351.364 256.968 400.805 264.265 400.805 264.265C400.805 264.265 405.018 264.336 406.911 263.258C408.804 262.179 411.868 260.062 415.613 254.302C418.737 249.488 421.597 239.697 422.462 236.583C422.635 235.952 422.676 235.291 422.574 234.65L421.455 227.352" stroke="#221F1F" stroke-width="1.32304" stroke-miterlimit="10" stroke-linecap="round"/>
<path d="M446.491 135.971L436.141 121.774C435.652 121.102 435.123 120.471 434.543 119.881L419.643 104.473C419.643 104.473 418.259 103.933 416.987 104.86C415.715 105.786 409.212 116.329 407.095 119.576C404.978 122.822 401.721 127.311 401.1 129.153C400.48 130.995 400.795 132.358 400.795 132.358" stroke="#221F1F" stroke-width="0.284962" stroke-miterlimit="10"/>
<path d="M422.639 107.873C422.639 107.873 422.242 113.877 423.809 116.503C425.061 118.589 430.424 123.759 432.602 125.815C433.233 126.415 433.803 127.057 434.322 127.749C435.981 129.978 439.716 134.975 440.245 135.616C440.927 136.45 442.179 134.7 442.678 134.099C443.186 133.489 444.438 133.173 444.438 133.173" stroke="#221F1F" stroke-width="0.284962" stroke-miterlimit="10"/>
<path d="M442.536 109.347L437.264 114.375C436.949 114.67 436.908 115.169 437.173 115.515L438.994 117.896C439.371 118.385 439.931 118.7 440.551 118.761L450.759 119.82" stroke="#747C80" stroke-width="0.47833" stroke-miterlimit="10"/>
<path d="M404.847 111.729C404.847 111.729 401.866 110.457 400.604 111.118C399.342 111.77 398.538 113.082 397.459 116.278C396.38 119.474 396.441 120.756 396.451 121.662C396.461 122.568 397.459 123.555 397.459 123.555" fill="#E6E6E6"/>
<path d="M404.847 111.729C404.847 111.729 401.866 110.457 400.604 111.118C399.342 111.77 398.538 113.082 397.459 116.278C396.38 119.474 396.441 120.756 396.451 121.662C396.461 122.568 397.459 123.555 397.459 123.555" stroke="#747C80" stroke-width="0.519039" stroke-miterlimit="10"/>
<path d="M440.967 114.294L443.175 117.113C443.328 117.306 443.206 117.611 442.951 117.632L441.994 117.723C441.618 117.754 441.262 117.601 441.028 117.296L439.074 114.751C438.941 114.589 439.033 114.334 439.236 114.283L440.244 114.039C440.509 113.978 440.783 114.07 440.956 114.283L440.967 114.294Z" stroke="#221F1F" stroke-width="0.346026" stroke-miterlimit="10"/>
<path d="M439.633 114.203L441.577 116.676C441.709 116.839 441.902 116.94 442.106 116.94L442.94 116.961" stroke="#221F1F" stroke-width="0.356203" stroke-miterlimit="10"/>
<path d="M442.207 121.448C442.207 121.448 451.651 122.426 453.29 122.527C454.918 122.629 455.702 122.527 456.608 121.845C457.605 121.102 458.033 120.217 458.033 120.217" stroke="#747C80" stroke-width="0.569925" stroke-miterlimit="10"/>
<path d="M450.289 122.263C450.289 122.263 443.063 148.316 442.025 152.204C440.987 156.092 440.132 158.443 440.56 160.478L442.666 163.226L440.936 169.434H439.908L438.117 168.162L441.557 171.867C441.557 171.867 426.342 228.055 425.833 229.917C425.324 231.78 424.917 232.014 424.154 232.533C423.391 233.052 422.373 233.296 422.373 233.296" stroke="#221F1F" stroke-width="1.32304" stroke-linecap="round" stroke-linejoin="round"/>
<path d="M419.257 131.972L416.58 129.031L418.168 124.339L420.844 127.28L419.257 131.972Z" stroke="#221F1F" stroke-width="0.284962" stroke-miterlimit="10"/>
<path d="M394.956 127.168C394.956 127.168 393.093 127.708 392.432 128.512C391.77 129.316 386.295 140.561 386.295 140.561" stroke="#221F1F" stroke-width="0.47833" stroke-miterlimit="10"/>
<path d="M422.362 233.295C422.362 233.295 424.367 232.614 424.896 231.983C425.425 231.352 425.761 230.1 425.761 230.1L441.556 171.866L423.878 153.771L402.13 133.101C400.389 131.493 399.412 132.968 398.232 134.495C397.051 136.021 377.653 165.22 375.231 168.853C372.809 172.486 372.799 175 372.718 178.277C372.636 181.554 372.799 199.934 372.88 202.54C372.962 205.145 374.845 205.786 376.829 205.97C378.203 206.102 382.254 206.519 384.584 206.763C385.734 206.886 386.864 207.12 387.973 207.466C390.548 208.27 395.382 209.817 397.428 210.641C400.288 211.781 404.654 213.796 404.654 213.796L415.91 222.1L424.214 230.069C424.214 230.069 424.143 231.046 423.573 231.535C423.003 232.023 422.209 232.247 422.209 232.247L422.372 233.306L422.362 233.295Z" fill="#E6E6E6" stroke="#747C80" stroke-width="0.722583" stroke-miterlimit="10"/>
<path d="M438.839 152.663L436.539 150.129L437.893 146.088L440.193 148.623L438.839 152.663Z" stroke="#221F1F" stroke-width="0.284962" stroke-miterlimit="10"/>
<path d="M436.784 166.991L439.898 169.454L440.926 169.434L442.656 163.236L435.41 154.005" stroke="#221F1F" stroke-width="0.569925" stroke-miterlimit="10"/>
<path d="M373.148 203.945L384.476 205.248C385.534 205.349 387.04 205.563 388.058 205.848C389.941 206.377 393.055 207.313 396.027 208.413C400.556 210.072 405.217 212.372 405.217 212.372L417.033 220.676L425.734 229.011C426.324 229.764 424.879 231.993 424.879 231.993" stroke="#747C80" stroke-width="0.284962" stroke-miterlimit="10"/>
<path d="M279.85 226.641C279.85 226.641 281.987 225.918 284.47 226.04C286.953 226.162 346.409 233.683 355.161 234.477C363.903 235.261 370.325 233.551 375.475 225.287C379.485 218.845 382.965 206.602 382.965 206.602" stroke="#221F1F" stroke-width="0.284962" stroke-miterlimit="10"/>
<path d="M404.645 213.786C404.645 213.786 400.981 220.452 399.78 225.897C398.569 231.352 398.599 240.145 401.52 245.315C404.828 251.177 410.079 253.65 412.725 253.06C415.616 252.409 416.888 250.506 418.496 248.49" stroke="#747C80" stroke-width="0.244254" stroke-miterlimit="10"/>
<path d="M414.232 220.859L413.937 226.925C413.906 227.555 413.794 228.176 413.621 228.787L408.156 247.025" stroke="#221F1F" stroke-width="0.173013" stroke-miterlimit="10"/>
<path d="M281.375 222.111C281.375 222.111 283.268 221.307 285.833 221.45C288.397 221.592 369.937 230.986 369.937 230.986C369.937 230.986 379.565 233.154 386.77 235.851C393.966 238.548 399.95 241.652 399.95 241.652L408.143 247.025L414.554 252.338C414.554 252.338 415.002 253.091 415.073 253.6C415.145 254.109 414.992 254.902 414.992 254.902" stroke="#221F1F" stroke-width="0.284962" stroke-miterlimit="10"/>
<path d="M322.403 222.6L355.774 226.203C355.988 226.223 356.161 226.386 356.201 226.6L356.68 229.215L319.543 224.961L321.375 222.977C321.639 222.692 322.016 222.549 322.403 222.59V222.6Z" fill="#7CBC56" stroke="#6D747A" stroke-width="0.29514" stroke-miterlimit="10"/>
<path d="M284.939 232.95C284.939 232.95 285.509 232.695 288.023 233.509C290.537 234.324 290.761 235.097 290.761 235.097C290.761 235.097 289.194 236.614 287.178 236.023C285.153 235.433 284.939 232.96 284.939 232.96V232.95Z" fill="white" stroke="#221F1F" stroke-width="0.47833" stroke-miterlimit="10"/>
<path d="M327.908 237.804C327.908 237.804 319.349 236.99 317.802 236.786C316.255 236.582 312.957 234.842 311.054 234.598C309.151 234.364 299.493 232.542 297.244 233.865C294.995 235.178 294.964 237.417 306.444 243.452C317.924 249.487 328.172 252.225 335.113 253.568C342.044 254.912 346.003 255.614 346.003 255.614L347.733 255.024L357.91 256.652L363.62 258.311C363.62 258.311 371.436 259.593 375.374 259.929C379.313 260.265 383.231 259.878 383.19 257.741C383.14 255.604 376.178 250.332 365.665 246.241C355.152 242.149 345.382 239.585 339.5 238.587C333.617 237.59 329.444 237.132 329.444 237.132L327.918 237.783L327.908 237.804Z" fill="#F2F2F2" stroke="#747C80" stroke-width="0.244254" stroke-miterlimit="10"/>
<path d="M376.864 256.456C377.804 253.671 368.752 248.103 356.646 244.019C344.54 239.936 333.965 238.883 333.025 241.669C332.086 244.454 341.138 250.023 353.244 254.106C365.349 258.19 375.925 259.242 376.864 256.456Z" fill="#747C80"/>
<path d="M375.553 255.887C376.32 253.613 367.698 248.651 356.296 244.805C344.893 240.958 335.027 239.684 334.26 241.958C333.493 244.232 342.115 249.194 353.518 253.04C364.92 256.886 374.786 258.161 375.553 255.887Z" fill="#E6E6E6" stroke="#747C80" stroke-width="0.234076" stroke-miterlimit="10"/>
<path d="M341.513 241.163L341.096 242.405C341.025 242.608 341.106 242.832 341.289 242.955L342.032 243.423C342.195 243.524 342.378 243.575 342.572 243.565C343.182 243.535 344.719 243.494 346.683 243.809C348.617 244.125 350.398 244.634 351.151 244.878C351.365 244.949 351.599 244.827 351.67 244.613L352.057 243.474" fill="#E6E6E6"/>
<path d="M341.513 241.163L341.096 242.405C341.025 242.608 341.106 242.832 341.289 242.955L342.032 243.423C342.195 243.524 342.378 243.575 342.572 243.565C343.182 243.535 344.719 243.494 346.683 243.809C348.617 244.125 350.398 244.634 351.151 244.878C351.365 244.949 351.599 244.827 351.67 244.613L352.057 243.474" stroke="#747C80" stroke-width="0.47833" stroke-miterlimit="10"/>
<path d="M375.087 246.141C375.046 245.927 375.199 245.734 375.412 245.724C375.952 245.693 377.071 245.744 378.801 246.344C380.46 246.935 381.356 247.515 381.773 247.851C381.946 247.993 381.946 248.258 381.773 248.4C381.101 248.919 379.443 249.998 377.641 249.448C375.819 248.889 375.25 246.955 375.097 246.131L375.087 246.141Z" fill="white" stroke="#221F1F" stroke-width="0.47833" stroke-miterlimit="10"/>
<path d="M310.322 247.463C310.322 247.463 311.279 247.218 313.263 247.911C315.248 248.603 315.828 249.315 315.828 249.315C315.828 249.315 314.179 250.892 312.358 250.333C310.536 249.773 310.322 247.453 310.322 247.453V247.463Z" fill="white" stroke="#221F1F" stroke-width="0.47833" stroke-miterlimit="10"/>
<path d="M358.419 251.605L358.205 253.019C358.165 253.315 358.328 253.61 358.612 253.711C359.437 254.007 361.238 254.597 363.477 254.943C365.655 255.279 367.141 255.319 367.843 255.309C368.108 255.309 368.352 255.157 368.474 254.912L369.065 253.701" fill="#E6E6E6"/>
<path d="M358.419 251.605L358.205 253.019C358.165 253.315 358.328 253.61 358.612 253.711C359.437 254.007 361.238 254.597 363.477 254.943C365.655 255.279 367.141 255.319 367.843 255.309C368.108 255.309 368.352 255.157 368.474 254.912L369.065 253.701" stroke="#747C80" stroke-width="0.47833" stroke-miterlimit="10"/>
<path d="M395.698 259.94C395.657 259.757 395.789 259.584 395.993 259.574C396.502 259.553 397.55 259.614 399.178 260.195C400.807 260.775 401.59 261.284 401.987 261.589C402.15 261.721 402.16 261.955 401.987 262.077C401.366 262.525 399.83 263.451 398.13 262.932C396.43 262.413 395.85 260.673 395.688 259.94H395.698Z" fill="white" stroke="#221F1F" stroke-width="0.47833" stroke-miterlimit="10"/>
<path d="M154.812 314.257C154.812 314.257 121.057 363.547 121.969 380.894C121.969 380.894 99.8788 380.099 95.137 389.534C95.137 389.534 75.9758 319.202 87.0401 299.993C87.0401 299.993 129.794 303.299 154.812 314.267V314.257Z" fill="#E5E5FF" stroke="#595CFF" stroke-width="2.06003" stroke-linecap="round" stroke-linejoin="round"/>
<path d="M17 307L60.8205 299.294C73.9599 296.734 87.0411 299.973 87.0411 299.973C78.1684 327.124 95.138 389.515 95.138 389.515C92.2193 409.287 97.3296 506.208 97.3296 506.208H17" fill="#E5E5FF"/>
<path d="M17 307L60.8205 299.294C73.9599 296.734 87.0411 299.973 87.0411 299.973C78.1684 327.124 95.138 389.515 95.138 389.515C92.2193 409.287 97.3296 506.208 97.3296 506.208H17" stroke="#595CFF" stroke-width="2.06003" stroke-linecap="round" stroke-linejoin="round"/>
<g clip-path="url(#clip1_236_19614)">
<g>
<path d="M-45.5 532L-39 210.5L45 192.5L41 448L132 476.5L132 488.5L140 542.5L-45.5 532Z" fill="#F1F4F9"/>
</g>
</g>
</g>
<defs>

<clipPath id="clip0_236_19614">
<rect width="519" height="504" fill="white"/>
</clipPath>
<clipPath id="clip1_236_19614">
<rect width="738" height="1152" fill="white"/>
</clipPath>
</defs>
</svg>
