<svg width="740" height="956" viewBox="0 0 740 956" fill="none" xmlns="http://www.w3.org/2000/svg">
<g>





<path d="M354.983 247.56H572.618C600.325 247.56 622.784 270.018 622.784 297.726V342.307V391.671C622.784 391.671 623.803 409.983 602.482 420.134C582.72 429.541 585.896 459.73 585.896 459.73V506.085V571.052C586.16 583.36 592.823 591.797 603.381 597.897C614.275 602.379 622.784 613.237 622.784 624.286C622.784 624.286 622.784 705.288 622.784 711.82C622.784 718.351 614.203 758.055 574.439 758.055H479.296C469.636 756.677 461.643 752.674 456.286 744.525C449.91 731.702 441.222 724.679 430.112 723.768H421.507H407.054H314.56C303.45 724.679 294.773 731.702 288.386 744.525C283.029 752.686 275.035 756.677 265.376 758.055H170.269C130.505 758.067 121.924 718.363 121.924 711.82C121.924 705.276 121.924 624.286 121.924 624.286C121.924 613.237 130.433 602.367 141.326 597.897C151.885 591.797 158.548 583.36 158.812 571.052V506.085V459.73C158.812 459.73 161.999 429.553 142.225 420.134C120.917 409.983 121.936 391.671 121.936 391.671V297.726C121.936 270.018 144.394 247.56 172.102 247.56H390.936" fill="none" stroke="#595CFF" stroke-width="5" stroke-linecap="round" stroke-linejoin="round"/>
<path d="M501.491 425.455C507.421 425.455 512.229 430.262 512.229 436.192V695.258C512.229 701.188 507.422 705.995 501.491 705.995H243.289C237.359 705.995 232.552 701.188 232.552 695.258V436.192C232.552 430.262 237.359 425.455 243.289 425.455H501.491Z" fill="#FBFBFF" stroke="black" stroke-width="2.39686" stroke-miterlimit="10"/>
<path d="M295.098 302.376C296.64 302.376 297.89 301.126 297.89 299.584C297.89 298.041 296.64 296.791 295.098 296.791C293.556 296.791 292.306 298.041 292.306 299.584C292.306 301.126 293.556 302.376 295.098 302.376Z" stroke="#C5C5D3" stroke-width="1.19843" stroke-miterlimit="10"/>
<path d="M273.526 398.658C275.068 398.658 276.318 397.408 276.318 395.866C276.318 394.323 275.068 393.073 273.526 393.073C271.984 393.073 270.733 394.323 270.733 395.866C270.733 397.408 271.984 398.658 273.526 398.658Z" stroke="#C5C5D3" stroke-width="1.19843" stroke-miterlimit="10"/>
<path d="M210.057 302.376C211.599 302.376 212.849 301.126 212.849 299.584C212.849 298.041 211.599 296.791 210.057 296.791C208.515 296.791 207.265 298.041 207.265 299.584C207.265 301.126 208.515 302.376 210.057 302.376Z" stroke="#C5C5D3" stroke-width="1.19843" stroke-miterlimit="10"/>
<path d="M210.057 362.286C211.599 362.286 212.849 361.035 212.849 359.493C212.849 357.951 211.599 356.701 210.057 356.701C208.515 356.701 207.265 357.951 207.265 359.493C207.265 361.035 208.515 362.286 210.057 362.286Z" stroke="#C5C5D3" stroke-width="1.19843" stroke-miterlimit="10"/>
<path d="M252.398 326.716C253.94 326.716 255.19 325.466 255.19 323.924C255.19 322.382 253.94 321.131 252.398 321.131C250.856 321.131 249.605 322.382 249.605 323.924C249.605 325.466 250.856 326.716 252.398 326.716Z" stroke="#C5C5D3" stroke-width="1.19843" stroke-miterlimit="10"/>
<path d="M335.844 326.716C337.386 326.716 338.636 325.466 338.636 323.924C338.636 322.382 337.386 321.131 335.844 321.131C334.302 321.131 333.052 322.382 333.052 323.924C333.052 325.466 334.302 326.716 335.844 326.716Z" stroke="#C5C5D3" stroke-width="1.19843" stroke-miterlimit="10"/>
<path d="M335.844 377.038C337.386 377.038 338.636 375.788 338.636 374.246C338.636 372.704 337.386 371.454 335.844 371.454C334.302 371.454 333.052 372.704 333.052 374.246C333.052 375.788 334.302 377.038 335.844 377.038Z" stroke="#C5C5D3" stroke-width="1.19843" stroke-miterlimit="10"/>
<path d="M449.731 302.376C451.273 302.376 452.523 301.126 452.523 299.584C452.523 298.041 451.273 296.791 449.731 296.791C448.189 296.791 446.938 298.041 446.938 299.584C446.938 301.126 448.189 302.376 449.731 302.376Z" stroke="#C5C5D3" stroke-width="1.19843" stroke-miterlimit="10"/>
<path d="M471.303 398.658C472.845 398.658 474.095 397.408 474.095 395.866C474.095 394.323 472.845 393.073 471.303 393.073C469.761 393.073 468.511 394.323 468.511 395.866C468.511 397.408 469.761 398.658 471.303 398.658Z" stroke="#C5C5D3" stroke-width="1.19843" stroke-miterlimit="10"/>
<path d="M534.784 302.376C536.326 302.376 537.576 301.126 537.576 299.584C537.576 298.041 536.326 296.791 534.784 296.791C533.241 296.791 531.991 298.041 531.991 299.584C531.991 301.126 533.241 302.376 534.784 302.376Z" stroke="#C5C5D3" stroke-width="1.19843" stroke-miterlimit="10"/>
<path d="M492.443 326.716C493.985 326.716 495.235 325.466 495.235 323.924C495.235 322.382 493.985 321.131 492.443 321.131C490.901 321.131 489.65 322.382 489.65 323.924C489.65 325.466 490.901 326.716 492.443 326.716Z" stroke="#C5C5D3" stroke-width="1.19843" stroke-miterlimit="10"/>
<path d="M408.996 326.716C410.539 326.716 411.789 325.466 411.789 323.924C411.789 322.382 410.539 321.131 408.996 321.131C407.454 321.131 406.204 322.382 406.204 323.924C406.204 325.466 407.454 326.716 408.996 326.716Z" stroke="#C5C5D3" stroke-width="1.19843" stroke-miterlimit="10"/>
<path d="M408.996 377.038C410.539 377.038 411.789 375.788 411.789 374.246C411.789 372.704 410.539 371.454 408.996 371.454C407.454 371.454 406.204 372.704 406.204 374.246C406.204 375.788 407.454 377.038 408.996 377.038Z" stroke="#C5C5D3" stroke-width="1.19843" stroke-miterlimit="10"/>
<path d="M184.363 450.358C185.905 450.358 187.155 449.108 187.155 447.566C187.155 446.024 185.905 444.773 184.363 444.773C182.82 444.773 181.57 446.024 181.57 447.566C181.57 449.108 182.82 450.358 184.363 450.358Z" stroke="#C5C5D3" stroke-width="1.19843" stroke-miterlimit="10"/>
<path d="M209.53 489.906C211.072 489.906 212.322 488.656 212.322 487.114C212.322 485.572 211.072 484.322 209.53 484.322C207.987 484.322 206.737 485.572 206.737 487.114C206.737 488.656 207.987 489.906 209.53 489.906Z" stroke="#C5C5D3" stroke-width="1.19843" stroke-miterlimit="10"/>
<path d="M184.363 529.455C185.905 529.455 187.155 528.204 187.155 526.662C187.155 525.12 185.905 523.87 184.363 523.87C182.82 523.87 181.57 525.12 181.57 526.662C181.57 528.204 182.82 529.455 184.363 529.455Z" stroke="#C5C5D3" stroke-width="1.19843" stroke-miterlimit="10"/>
<path d="M202.339 569.003C203.881 569.003 205.132 567.752 205.132 566.21C205.132 564.668 203.881 563.418 202.339 563.418C200.797 563.418 199.547 564.668 199.547 566.21C199.547 567.752 200.797 569.003 202.339 569.003Z" stroke="#C5C5D3" stroke-width="1.19843" stroke-miterlimit="10"/>
<path d="M209.314 646.937C210.856 646.937 212.106 645.687 212.106 644.144C212.106 642.602 210.856 641.352 209.314 641.352C207.772 641.352 206.521 642.602 206.521 644.144C206.521 645.687 207.772 646.937 209.314 646.937Z" stroke="#C5C5D3" stroke-width="1.19843" stroke-miterlimit="10"/>
<path d="M184.147 607.388C185.689 607.388 186.939 606.138 186.939 604.596C186.939 603.054 185.689 601.804 184.147 601.804C182.605 601.804 181.354 603.054 181.354 604.596C181.354 606.138 182.605 607.388 184.147 607.388Z" stroke="#C5C5D3" stroke-width="1.19843" stroke-miterlimit="10"/>
<path d="M184.279 686.665C185.821 686.665 187.071 685.415 187.071 683.872C187.071 682.33 185.821 681.08 184.279 681.08C182.737 681.08 181.486 682.33 181.486 683.872C181.486 685.415 182.737 686.665 184.279 686.665Z" stroke="#C5C5D3" stroke-width="1.19843" stroke-miterlimit="10"/>
<path d="M233.414 729.808C234.957 729.808 236.207 728.558 236.207 727.016C236.207 725.474 234.957 724.224 233.414 724.224C231.872 724.224 230.622 725.474 230.622 727.016C230.622 728.558 231.872 729.808 233.414 729.808Z" stroke="#C5C5D3" stroke-width="1.19843" stroke-miterlimit="10"/>
<path d="M510.252 729.808C511.794 729.808 513.045 728.558 513.045 727.016C513.045 725.474 511.794 724.224 510.252 724.224C508.71 724.224 507.46 725.474 507.46 727.016C507.46 728.558 508.71 729.808 510.252 729.808Z" stroke="#C5C5D3" stroke-width="1.19843" stroke-miterlimit="10"/>
<path d="M165.919 636.954C167.137 636.954 168.124 635.704 168.124 634.162C168.124 632.619 167.137 631.369 165.919 631.369C164.701 631.369 163.714 632.619 163.714 634.162C163.714 635.704 164.701 636.954 165.919 636.954Z" stroke="#C5C5D3" stroke-width="1.19843" stroke-miterlimit="10"/>
<path d="M135.958 699.955C137.176 699.955 138.163 698.705 138.163 697.163C138.163 695.621 137.176 694.371 135.958 694.371C134.74 694.371 133.753 695.621 133.753 697.163C133.753 698.705 134.74 699.955 135.958 699.955Z" stroke="#C5C5D3" stroke-width="1.19843" stroke-miterlimit="10"/>
<path d="M165.919 384.768C167.137 384.768 168.124 383.518 168.124 381.976C168.124 380.434 167.137 379.183 165.919 379.183C164.701 379.183 163.714 380.434 163.714 381.976C163.714 383.518 164.701 384.768 165.919 384.768Z" stroke="#C5C5D3" stroke-width="1.19843" stroke-miterlimit="10"/>
<path d="M135.958 321.767C137.176 321.767 138.163 320.516 138.163 318.974C138.163 317.432 137.176 316.182 135.958 316.182C134.74 316.182 133.753 317.432 133.753 318.974C133.753 320.516 134.74 321.767 135.958 321.767Z" stroke="#C5C5D3" stroke-width="1.19843" stroke-miterlimit="10"/>
<path d="M535.503 647.943C537.045 647.943 538.296 646.693 538.296 645.151C538.296 643.609 537.045 642.359 535.503 642.359C533.961 642.359 532.711 643.609 532.711 645.151C532.711 646.693 533.961 647.943 535.503 647.943Z" stroke="#C5C5D3" stroke-width="1.19843" stroke-miterlimit="10"/>
<path d="M560.67 608.395C562.212 608.395 563.463 607.145 563.463 605.603C563.463 604.061 562.212 602.811 560.67 602.811C559.128 602.811 557.878 604.061 557.878 605.603C557.878 607.145 559.128 608.395 560.67 608.395Z" stroke="#C5C5D3" stroke-width="1.19843" stroke-miterlimit="10"/>
<path d="M541.495 568.847C543.038 568.847 544.288 567.597 544.288 566.055C544.288 564.512 543.038 563.262 541.495 563.262C539.953 563.262 538.703 564.512 538.703 566.055C538.703 567.597 539.953 568.847 541.495 568.847Z" stroke="#C5C5D3" stroke-width="1.19843" stroke-miterlimit="10"/>
<path d="M560.67 529.299C562.212 529.299 563.463 528.049 563.463 526.506C563.463 524.964 562.212 523.714 560.67 523.714C559.128 523.714 557.878 524.964 557.878 526.506C557.878 528.049 559.128 529.299 560.67 529.299Z" stroke="#C5C5D3" stroke-width="1.19843" stroke-miterlimit="10"/>
<path d="M560.454 451.377C561.997 451.377 563.247 450.127 563.247 448.584C563.247 447.042 561.997 445.792 560.454 445.792C558.912 445.792 557.662 447.042 557.662 448.584C557.662 450.127 558.912 451.377 560.454 451.377Z" stroke="#C5C5D3" stroke-width="1.19843" stroke-miterlimit="10"/>
<path d="M535.287 490.925C536.83 490.925 538.08 489.675 538.08 488.133C538.08 486.591 536.83 485.34 535.287 485.34C533.745 485.34 532.495 486.591 532.495 488.133C532.495 489.675 533.745 490.925 535.287 490.925Z" stroke="#C5C5D3" stroke-width="1.19843" stroke-miterlimit="10"/>
<path d="M535.419 362.513C536.961 362.513 538.212 361.263 538.212 359.721C538.212 358.179 536.961 356.928 535.419 356.928C533.877 356.928 532.627 358.179 532.627 359.721C532.627 361.263 533.877 362.513 535.419 362.513Z" stroke="#C5C5D3" stroke-width="1.19843" stroke-miterlimit="10"/>
<path d="M579.377 385.175C580.595 385.175 581.582 383.925 581.582 382.383C581.582 380.841 580.595 379.591 579.377 379.591C578.159 379.591 577.172 380.841 577.172 382.383C577.172 383.925 578.159 385.175 579.377 385.175Z" stroke="#C5C5D3" stroke-width="1.19843" stroke-miterlimit="10"/>
<path d="M578.179 636.846C579.397 636.846 580.384 635.596 580.384 634.054C580.384 632.511 579.397 631.261 578.179 631.261C576.961 631.261 575.974 632.511 575.974 634.054C575.974 635.596 576.961 636.846 578.179 636.846Z" stroke="#C5C5D3" stroke-width="1.19843" stroke-miterlimit="10"/>
<path d="M559.16 687.456C560.702 687.456 561.952 686.205 561.952 684.663C561.952 683.121 560.702 681.871 559.16 681.871C557.617 681.871 556.367 683.121 556.367 684.663C556.367 686.205 557.617 687.456 559.16 687.456Z" stroke="#C5C5D3" stroke-width="1.19843" stroke-miterlimit="10"/>
<path d="M608.296 701.837C609.514 701.837 610.501 700.587 610.501 699.045C610.501 697.502 609.514 696.252 608.296 696.252C607.078 696.252 606.091 697.502 606.091 699.045C606.091 700.587 607.078 701.837 608.296 701.837Z" stroke="#C5C5D3" stroke-width="1.19843" stroke-miterlimit="10"/>
<path d="M609.267 322.114C610.484 322.114 611.472 320.864 611.472 319.322C611.472 317.779 610.484 316.529 609.267 316.529C608.049 316.529 607.062 317.779 607.062 319.322C607.062 320.864 608.049 322.114 609.267 322.114Z" stroke="#C5C5D3" stroke-width="1.19843" stroke-miterlimit="10"/>
<path d="M539.787 394.493L538.491 393.197C537.105 391.811 534.859 391.811 533.474 393.197L520.526 406.145C519.14 407.53 519.14 409.777 520.526 411.162L521.822 412.458C523.207 413.844 525.453 413.844 526.839 412.458L539.787 399.51C541.173 398.125 541.173 395.878 539.787 394.493Z" fill="#F5F6FC" stroke="black" stroke-width="1.19843" stroke-miterlimit="10"/>
<path d="M206.623 392.876L205.327 394.172C203.941 395.557 203.941 397.803 205.327 399.189L218.275 412.137C219.661 413.523 221.907 413.523 223.292 412.137L224.589 410.841C225.974 409.455 225.974 407.209 224.589 405.824L211.64 392.876C210.255 391.49 208.009 391.49 206.623 392.876Z" fill="#F5F6FC" stroke="black" stroke-width="1.19843" stroke-miterlimit="10"/>
<path d="M522.204 711.043L520.908 712.339C519.522 713.725 519.522 715.971 520.908 717.356L533.856 730.305C535.242 731.69 537.488 731.69 538.873 730.305L540.17 729.008C541.555 727.623 541.555 725.377 540.17 723.991L527.221 711.043C525.836 709.657 523.59 709.657 522.204 711.043Z" fill="#F5F6FC" stroke="black" stroke-width="1.19843" stroke-miterlimit="10"/>
<path d="M224.6 712.332L223.303 711.036C221.918 709.65 219.672 709.65 218.287 711.036L205.338 723.984C203.953 725.37 203.953 727.616 205.338 729.001L206.635 730.298C208.02 731.683 210.266 731.683 211.651 730.298L224.6 717.349C225.985 715.964 225.985 713.718 224.6 712.332Z" fill="#F5F6FC" stroke="black" stroke-width="1.19843" stroke-miterlimit="10"/>
<path d="M373.583 389.49H371.749C369.79 389.49 368.202 391.078 368.202 393.037V411.96C368.202 413.919 369.79 415.508 371.749 415.508H373.583C375.542 415.508 377.13 413.919 377.13 411.96V393.037C377.13 391.078 375.542 389.49 373.583 389.49Z" fill="#F5F6FC" stroke="black" stroke-width="1.19843" stroke-miterlimit="10"/>
<path d="M369.963 432.49H322.757V436.085H369.963V432.49Z" fill="#C5C5D3"/>
<path d="M421.412 698.96H420.189V695.006H421.46C421.843 695.006 422.167 695.09 422.442 695.245C422.718 695.401 422.922 695.629 423.066 695.928C423.209 696.228 423.281 696.576 423.281 696.983C423.281 697.39 423.209 697.75 423.066 698.05C422.922 698.349 422.706 698.577 422.419 698.733C422.131 698.889 421.795 698.972 421.4 698.972L421.412 698.96ZM420.669 698.529H421.376C421.699 698.529 421.975 698.469 422.191 698.337C422.407 698.205 422.562 698.026 422.67 697.798C422.778 697.57 422.826 697.283 422.826 696.959C422.826 696.635 422.778 696.36 422.67 696.132C422.562 695.904 422.407 695.725 422.203 695.593C421.999 695.473 421.735 695.401 421.424 695.401H420.657V698.505L420.669 698.529Z" fill="#C5C5D3"/>
<path d="M427.44 696.983C427.44 697.402 427.368 697.762 427.212 698.061C427.056 698.361 426.853 698.601 426.589 698.769C426.325 698.936 426.026 699.02 425.69 699.02C425.355 699.02 425.055 698.936 424.791 698.769C424.528 698.601 424.324 698.373 424.168 698.061C424.012 697.762 423.94 697.39 423.94 696.983C423.94 696.575 424.012 696.204 424.168 695.904C424.324 695.605 424.528 695.365 424.791 695.197C425.055 695.029 425.355 694.946 425.69 694.946C426.026 694.946 426.325 695.029 426.589 695.197C426.853 695.365 427.056 695.593 427.212 695.904C427.356 696.204 427.44 696.563 427.44 696.983ZM426.984 696.983C426.984 696.635 426.925 696.348 426.817 696.12C426.709 695.88 426.553 695.701 426.349 695.581C426.158 695.461 425.942 695.401 425.702 695.401C425.462 695.401 425.247 695.461 425.055 695.581C424.863 695.701 424.707 695.88 424.588 696.12C424.48 696.36 424.42 696.647 424.42 696.983C424.42 697.318 424.48 697.618 424.588 697.846C424.707 698.085 424.851 698.265 425.055 698.385C425.247 698.505 425.462 698.565 425.702 698.565C425.942 698.565 426.158 698.505 426.349 698.385C426.541 698.265 426.697 698.085 426.817 697.846C426.937 697.606 426.984 697.318 426.984 696.983Z" fill="#C5C5D3"/>
<path d="M432.917 694.994V698.948H432.45L430.293 695.845H430.257V698.948H429.777V694.994H430.245L432.414 698.11H432.45V694.994H432.917Z" fill="#C5C5D3"/>
<path d="M437.219 696.983C437.219 697.402 437.147 697.762 436.991 698.061C436.836 698.361 436.632 698.601 436.368 698.769C436.105 698.936 435.805 699.02 435.469 699.02C435.134 699.02 434.834 698.936 434.571 698.769C434.307 698.601 434.103 698.373 433.947 698.061C433.792 697.762 433.72 697.39 433.72 696.983C433.72 696.575 433.792 696.204 433.947 695.904C434.103 695.605 434.307 695.365 434.571 695.197C434.834 695.029 435.134 694.946 435.469 694.946C435.805 694.946 436.105 695.029 436.368 695.197C436.632 695.365 436.836 695.593 436.991 695.904C437.135 696.204 437.219 696.563 437.219 696.983ZM436.752 696.983C436.752 696.635 436.692 696.348 436.584 696.12C436.476 695.88 436.32 695.701 436.117 695.581C435.925 695.461 435.709 695.401 435.469 695.401C435.23 695.401 435.014 695.461 434.822 695.581C434.631 695.701 434.475 695.88 434.355 696.12C434.247 696.36 434.187 696.647 434.187 696.983C434.187 697.318 434.247 697.618 434.355 697.846C434.475 698.085 434.619 698.265 434.822 698.385C435.014 698.505 435.23 698.565 435.469 698.565C435.709 698.565 435.925 698.505 436.117 698.385C436.308 698.265 436.464 698.085 436.584 697.846C436.704 697.606 436.752 697.318 436.752 696.983Z" fill="#C5C5D3"/>
<path d="M437.639 695.425V694.994H440.611V695.425H439.364V698.96H438.885V695.425H437.639Z" fill="#C5C5D3"/>
<path d="M442.888 698.96V695.006H445.273V695.437H443.367V696.779H445.153V697.199H443.367V698.541H445.309V698.96H442.888Z" fill="#C5C5D3"/>
<path d="M446.375 694.994L447.393 696.647H447.429L448.448 694.994H449.011L447.765 696.971L449.011 698.948H448.448L447.429 697.331H447.393L446.375 698.948H445.812L447.082 696.971L445.812 694.994H446.375Z" fill="#C5C5D3"/>
<path d="M452.763 696.24H452.283C452.259 696.108 452.212 695.976 452.14 695.88C452.068 695.784 451.984 695.689 451.888 695.617C451.792 695.545 451.672 695.497 451.552 695.461C451.433 695.425 451.301 695.413 451.169 695.413C450.929 695.413 450.714 695.473 450.522 695.593C450.33 695.713 450.174 695.892 450.054 696.132C449.946 696.372 449.887 696.659 449.887 696.995C449.887 697.33 449.946 697.63 450.054 697.858C450.174 698.097 450.318 698.277 450.522 698.397C450.714 698.517 450.929 698.577 451.169 698.577C451.301 698.577 451.421 698.565 451.552 698.529C451.672 698.493 451.78 698.433 451.888 698.373C451.984 698.301 452.068 698.217 452.14 698.109C452.212 698.002 452.259 697.882 452.283 697.75H452.763C452.727 697.954 452.667 698.133 452.559 698.289C452.463 698.445 452.343 698.589 452.2 698.697C452.056 698.804 451.9 698.888 451.72 698.948C451.54 699.008 451.361 699.032 451.157 699.032C450.821 699.032 450.522 698.948 450.258 698.78C449.994 698.613 449.791 698.385 449.635 698.073C449.479 697.774 449.407 697.402 449.407 696.995C449.407 696.587 449.479 696.216 449.635 695.916C449.791 695.617 449.994 695.377 450.258 695.209C450.522 695.041 450.821 694.958 451.157 694.958C451.361 694.958 451.54 694.981 451.72 695.041C451.9 695.101 452.056 695.185 452.2 695.293C452.343 695.401 452.463 695.545 452.559 695.701C452.655 695.856 452.715 696.036 452.763 696.24Z" fill="#C5C5D3"/>
<path d="M453.53 698.96V695.006H455.915V695.437H454.01V696.779H455.795V697.199H454.01V698.541H455.951V698.96H453.53Z" fill="#C5C5D3"/>
<path d="M456.789 698.96V695.006H459.174V695.437H457.268V696.779H459.054V697.199H457.268V698.541H459.21V698.96H456.789Z" fill="#C5C5D3"/>
<path d="M461.259 698.96H460.037V695.006H461.307C461.691 695.006 462.015 695.09 462.29 695.245C462.566 695.401 462.77 695.629 462.913 695.928C463.057 696.228 463.129 696.576 463.129 696.983C463.129 697.39 463.057 697.75 462.913 698.05C462.77 698.349 462.554 698.577 462.266 698.733C461.979 698.889 461.643 698.972 461.248 698.972L461.259 698.96ZM460.516 698.529H461.224C461.547 698.529 461.823 698.469 462.038 698.337C462.254 698.205 462.41 698.026 462.518 697.798C462.626 697.57 462.674 697.283 462.674 696.959C462.674 696.635 462.626 696.36 462.518 696.132C462.41 695.904 462.254 695.725 462.05 695.593C461.847 695.473 461.583 695.401 461.271 695.401H460.504V698.505L460.516 698.529Z" fill="#C5C5D3"/>
<path d="M466.76 699.008C466.509 699.008 466.281 698.96 466.077 698.876C465.874 698.793 465.718 698.673 465.598 698.505C465.478 698.349 465.418 698.169 465.406 697.954H465.898C465.898 698.085 465.946 698.193 466.029 698.289C466.113 698.385 466.209 698.457 466.329 698.505C466.449 698.553 466.593 698.577 466.749 698.577C466.916 698.577 467.072 698.553 467.204 698.493C467.336 698.433 467.444 698.349 467.515 698.241C467.587 698.133 467.623 698.014 467.623 697.87C467.623 697.726 467.587 697.594 467.515 697.486C467.444 697.378 467.336 697.283 467.204 697.223C467.072 697.163 466.892 697.127 466.689 697.127H466.377V696.707H466.689C466.844 696.707 466.988 696.683 467.108 696.623C467.228 696.563 467.324 696.492 467.384 696.384C467.456 696.276 467.48 696.156 467.48 696.024C467.48 695.892 467.456 695.772 467.396 695.677C467.336 695.581 467.252 695.497 467.144 695.449C467.036 695.401 466.904 695.365 466.76 695.365C466.629 695.365 466.497 695.389 466.377 695.437C466.257 695.485 466.161 695.557 466.077 695.653C465.994 695.749 465.958 695.856 465.958 695.988H465.49C465.49 695.784 465.562 695.593 465.682 695.437C465.802 695.281 465.958 695.161 466.137 695.065C466.329 694.982 466.533 694.934 466.76 694.934C467.012 694.934 467.216 694.982 467.396 695.077C467.575 695.173 467.707 695.305 467.803 695.473C467.899 695.629 467.947 695.808 467.947 696C467.947 696.228 467.887 696.408 467.767 696.575C467.647 696.731 467.492 696.839 467.288 696.899V696.935C467.539 696.971 467.731 697.079 467.875 697.259C468.019 697.438 468.091 697.642 468.091 697.894C468.091 698.109 468.031 698.301 467.911 698.469C467.791 698.637 467.635 698.769 467.432 698.876C467.228 698.972 467 699.02 466.749 699.02L466.76 699.008Z" fill="#C5C5D3"/>
<path d="M470.176 699.008C469.888 699.008 469.637 698.924 469.433 698.769C469.229 698.613 469.073 698.373 468.966 698.073C468.858 697.774 468.798 697.402 468.798 696.971C468.798 696.54 468.858 696.18 468.966 695.868C469.073 695.569 469.229 695.329 469.433 695.173C469.637 695.017 469.888 694.934 470.176 694.934C470.464 694.934 470.715 695.017 470.919 695.173C471.123 695.329 471.279 695.569 471.386 695.868C471.494 696.168 471.554 696.54 471.554 696.971C471.554 697.402 471.494 697.774 471.386 698.073C471.279 698.373 471.123 698.613 470.919 698.769C470.715 698.924 470.464 699.008 470.176 699.008ZM470.176 698.589C470.464 698.589 470.691 698.445 470.847 698.169C471.003 697.894 471.087 697.498 471.087 696.983C471.087 696.635 471.051 696.348 470.979 696.108C470.907 695.868 470.799 695.689 470.667 695.557C470.536 695.425 470.368 695.365 470.176 695.365C469.888 695.365 469.661 695.509 469.505 695.784C469.349 696.06 469.265 696.468 469.265 696.983C469.265 697.33 469.301 697.618 469.373 697.858C469.445 698.097 469.553 698.277 469.685 698.409C469.817 698.529 469.984 698.601 470.176 698.601V698.589Z" fill="#C5C5D3"/>
<path d="M473.579 699.008C473.292 699.008 473.04 698.924 472.836 698.769C472.633 698.613 472.477 698.373 472.369 698.073C472.261 697.774 472.201 697.402 472.201 696.971C472.201 696.54 472.261 696.18 472.369 695.868C472.477 695.569 472.633 695.329 472.836 695.173C473.04 695.017 473.292 694.934 473.579 694.934C473.867 694.934 474.119 695.017 474.322 695.173C474.526 695.329 474.682 695.569 474.79 695.868C474.898 696.168 474.958 696.54 474.958 696.971C474.958 697.402 474.898 697.774 474.79 698.073C474.682 698.373 474.526 698.613 474.322 698.769C474.119 698.924 473.867 699.008 473.579 699.008ZM473.579 698.589C473.867 698.589 474.095 698.445 474.25 698.169C474.406 697.894 474.49 697.498 474.49 696.983C474.49 696.635 474.454 696.348 474.382 696.108C474.31 695.868 474.203 695.689 474.071 695.557C473.939 695.425 473.771 695.365 473.579 695.365C473.292 695.365 473.064 695.509 472.908 695.784C472.752 696.06 472.669 696.468 472.669 696.983C472.669 697.33 472.705 697.618 472.776 697.858C472.848 698.097 472.956 698.277 473.088 698.409C473.22 698.529 473.388 698.601 473.579 698.601V698.589Z" fill="#C5C5D3"/>
<path d="M475.761 698.96V695.006H476.24V698.541H478.086V698.96H475.761Z" fill="#C5C5D3"/>
<path d="M478.817 698.96V695.006H480.195C480.471 695.006 480.698 695.054 480.878 695.149C481.058 695.245 481.19 695.365 481.273 695.533C481.357 695.701 481.405 695.868 481.405 696.06C481.405 696.228 481.369 696.372 481.309 696.48C481.249 696.588 481.166 696.683 481.07 696.743C480.974 696.803 480.866 696.851 480.758 696.887V696.923C480.878 696.923 480.998 696.971 481.118 697.055C481.237 697.127 481.345 697.247 481.429 697.391C481.513 697.534 481.549 697.714 481.549 697.918C481.549 698.122 481.501 698.301 481.417 698.457C481.333 698.613 481.19 698.745 480.986 698.829C480.782 698.913 480.542 698.972 480.231 698.972H478.805L478.817 698.96ZM479.296 696.743H480.183C480.327 696.743 480.458 696.719 480.578 696.659C480.698 696.6 480.782 696.528 480.854 696.42C480.926 696.312 480.962 696.192 480.962 696.06C480.962 695.88 480.902 695.737 480.782 695.617C480.662 695.497 480.47 695.437 480.207 695.437H479.308V696.755L479.296 696.743ZM479.296 698.529H480.243C480.554 698.529 480.782 698.469 480.914 698.349C481.046 698.229 481.118 698.074 481.118 697.906C481.118 697.774 481.082 697.654 481.01 697.534C480.938 697.414 480.842 697.331 480.722 697.259C480.602 697.187 480.447 697.151 480.279 697.151H479.308V698.529H479.296Z" fill="#C5C5D3"/>
<path d="M484.521 695.988C484.497 695.796 484.401 695.641 484.233 695.533C484.066 695.425 483.862 695.365 483.622 695.365C483.442 695.365 483.299 695.389 483.167 695.449C483.035 695.509 482.939 695.581 482.867 695.689C482.795 695.785 482.759 695.904 482.759 696.024C482.759 696.132 482.783 696.216 482.831 696.3C482.879 696.372 482.951 696.444 483.023 696.492C483.107 696.54 483.191 696.587 483.275 696.611C483.359 696.635 483.442 696.671 483.514 696.683L483.922 696.791C484.03 696.815 484.138 696.851 484.269 696.899C484.401 696.947 484.521 697.007 484.629 697.091C484.749 697.175 484.845 697.283 484.917 697.402C484.988 697.522 485.024 697.69 485.024 697.87C485.024 698.086 484.964 698.277 484.857 698.445C484.749 698.613 484.581 698.757 484.365 698.853C484.15 698.948 483.898 699.008 483.586 699.008C483.299 699.008 483.059 698.96 482.855 698.876C482.652 698.781 482.484 698.661 482.364 698.493C482.244 698.325 482.184 698.145 482.16 697.918H482.652C482.664 698.062 482.711 698.193 482.807 698.289C482.891 698.385 483.011 698.457 483.143 698.505C483.275 698.553 483.43 698.577 483.586 698.577C483.766 698.577 483.934 698.553 484.078 698.493C484.221 698.433 484.341 698.349 484.425 698.241C484.509 698.133 484.557 698.002 484.557 697.858C484.557 697.726 484.521 697.618 484.449 697.534C484.377 697.45 484.281 697.39 484.162 697.33C484.042 697.283 483.91 697.235 483.778 697.199L483.287 697.055C482.975 696.971 482.735 696.839 482.556 696.671C482.376 696.504 482.28 696.288 482.28 696.024C482.28 695.796 482.34 695.605 482.46 695.437C482.58 695.269 482.747 695.137 482.951 695.053C483.155 694.958 483.383 694.91 483.634 694.91C483.886 694.91 484.114 694.958 484.317 695.041C484.521 695.137 484.677 695.257 484.785 695.413C484.905 695.569 484.964 695.749 484.964 695.952H484.497L484.521 695.988Z" fill="#C5C5D3"/>
<path d="M259.169 436.253L258.066 432.298H258.69L259.457 435.366H259.493L260.295 432.298H260.919L261.722 435.366H261.758L262.525 432.298H263.16L262.057 436.253H261.458L260.619 433.293H260.583L259.744 436.253H259.145H259.169Z" fill="#C5C5D3"/>
<path d="M263.711 436.253V432.298H266.192V432.813H264.31V434.024H266.06V434.539H264.31V435.749H266.216V436.265H263.711V436.253Z" fill="#C5C5D3"/>
<path d="M267.594 432.286V436.24H266.995V432.286H267.594Z" fill="#C5C5D3"/>
<path d="M271.142 433.544C271.106 433.424 271.058 433.316 270.998 433.233C270.938 433.137 270.866 433.065 270.77 432.993C270.674 432.921 270.59 432.873 270.47 432.837C270.363 432.801 270.243 432.789 270.111 432.789C269.883 432.789 269.691 432.849 269.512 432.957C269.332 433.065 269.188 433.244 269.092 433.46C268.984 433.676 268.936 433.952 268.936 434.275C268.936 434.599 268.984 434.862 269.092 435.09C269.2 435.318 269.344 435.486 269.524 435.593C269.703 435.701 269.907 435.761 270.147 435.761C270.363 435.761 270.554 435.713 270.71 435.629C270.866 435.545 270.998 435.414 271.082 435.258C271.165 435.102 271.213 434.91 271.213 434.695L271.369 434.719H270.231V434.227H271.789V434.683C271.789 435.018 271.717 435.306 271.573 435.545C271.429 435.785 271.237 435.977 270.986 436.109C270.734 436.241 270.458 436.312 270.135 436.312C269.775 436.312 269.464 436.229 269.188 436.061C268.912 435.893 268.709 435.665 268.553 435.354C268.397 435.054 268.325 434.695 268.325 434.275C268.325 433.964 268.373 433.676 268.457 433.424C268.541 433.173 268.673 432.957 268.829 432.777C268.984 432.597 269.176 432.466 269.392 432.37C269.608 432.274 269.847 432.226 270.099 432.226C270.315 432.226 270.506 432.262 270.698 432.322C270.89 432.382 271.046 432.478 271.189 432.585C271.333 432.705 271.453 432.837 271.549 432.993C271.645 433.149 271.705 433.328 271.741 433.52H271.13L271.142 433.544Z" fill="#C5C5D3"/>
<path d="M272.543 436.253V432.298H273.142V434.024H275.12V432.298H275.719V436.253H275.12V434.527H273.142V436.253H272.543Z" fill="#C5C5D3"/>
<path d="M276.391 432.801V432.286H279.459V432.801H278.224V436.24H277.625V432.801H276.391Z" fill="#C5C5D3"/>
<path d="M281.567 436.253V432.298H283.017C283.293 432.298 283.533 432.346 283.712 432.442C283.892 432.538 284.036 432.657 284.12 432.813C284.204 432.969 284.252 433.149 284.252 433.34C284.252 433.508 284.228 433.64 284.156 433.76C284.084 433.88 284.012 433.964 283.916 434.036C283.82 434.107 283.7 434.155 283.581 434.179V434.215C283.712 434.215 283.844 434.263 283.964 434.347C284.084 434.419 284.192 434.539 284.276 434.683C284.36 434.827 284.396 434.994 284.396 435.21C284.396 435.426 284.348 435.594 284.252 435.749C284.156 435.905 284.012 436.037 283.808 436.133C283.617 436.229 283.353 436.277 283.053 436.277H281.531L281.567 436.253ZM282.166 434H282.969C283.101 434 283.221 433.976 283.329 433.928C283.437 433.88 283.521 433.808 283.581 433.712C283.64 433.616 283.676 433.508 283.676 433.376C283.676 433.209 283.617 433.077 283.509 432.969C283.389 432.861 283.221 432.801 282.981 432.801H282.166V434ZM282.166 435.737H283.029C283.317 435.737 283.521 435.677 283.64 435.57C283.76 435.462 283.82 435.318 283.82 435.15C283.82 435.03 283.784 434.91 283.724 434.803C283.664 434.695 283.569 434.611 283.449 434.551C283.329 434.491 283.197 434.455 283.029 434.455H282.142V435.725L282.166 435.737Z" fill="#C5C5D3"/>
<path d="M285.127 436.253V432.298H287.608V432.813H285.726V434.024H287.476V434.539H285.726V435.749H287.632V436.265H285.127V436.253Z" fill="#C5C5D3"/>
<path d="M288.746 436.253H288.111L289.537 432.298H290.233L291.659 436.253H291.024L289.909 433.017H289.873L288.746 436.253ZM288.854 434.695H290.916V435.198H288.854V434.695Z" fill="#C5C5D3"/>
<path d="M292.222 436.253V432.298H293.636C293.948 432.298 294.199 432.346 294.403 432.454C294.607 432.562 294.763 432.705 294.859 432.897C294.954 433.089 295.002 433.293 295.002 433.544C295.002 433.796 294.954 434 294.847 434.179C294.751 434.359 294.595 434.503 294.391 434.611C294.187 434.719 293.936 434.767 293.624 434.767H292.558V434.251H293.576C293.768 434.251 293.924 434.227 294.044 434.167C294.163 434.107 294.259 434.036 294.307 433.928C294.367 433.82 294.391 433.7 294.391 433.544C294.391 433.388 294.367 433.269 294.307 433.161C294.247 433.053 294.163 432.969 294.044 432.909C293.924 432.849 293.756 432.825 293.564 432.825H292.809V436.277H292.21L292.222 436.253ZM294.175 434.467L295.158 436.253H294.475L293.516 434.467H294.175Z" fill="#C5C5D3"/>
<path d="M296.333 432.286V436.24H295.733V432.286H296.333Z" fill="#C5C5D3"/>
<path d="M300.395 432.286V436.24H299.844L297.83 433.34H297.795V436.24H297.195V432.286H297.747L299.76 435.198H299.796V432.286H300.383H300.395Z" fill="#C5C5D3"/>
<path d="M303.942 433.544C303.906 433.424 303.858 433.316 303.798 433.233C303.739 433.137 303.667 433.065 303.571 432.993C303.475 432.921 303.391 432.873 303.271 432.837C303.163 432.801 303.043 432.789 302.912 432.789C302.684 432.789 302.492 432.849 302.312 432.957C302.133 433.065 301.989 433.244 301.893 433.46C301.785 433.676 301.737 433.952 301.737 434.275C301.737 434.599 301.785 434.862 301.893 435.09C302.001 435.318 302.145 435.486 302.324 435.593C302.504 435.701 302.708 435.761 302.948 435.761C303.163 435.761 303.355 435.713 303.511 435.629C303.667 435.545 303.798 435.414 303.882 435.258C303.966 435.102 304.014 434.91 304.014 434.695L304.17 434.719H303.031V434.227H304.589V434.683C304.589 435.018 304.518 435.306 304.374 435.545C304.23 435.785 304.038 435.977 303.786 436.109C303.535 436.241 303.259 436.312 302.936 436.312C302.576 436.312 302.264 436.229 301.989 436.061C301.713 435.893 301.509 435.665 301.354 435.354C301.198 435.054 301.126 434.695 301.126 434.275C301.126 433.964 301.174 433.676 301.258 433.424C301.342 433.173 301.474 432.957 301.629 432.777C301.785 432.597 301.977 432.466 302.193 432.37C302.408 432.274 302.648 432.226 302.9 432.226C303.115 432.226 303.307 432.262 303.499 432.322C303.691 432.382 303.846 432.478 303.99 432.585C304.134 432.705 304.254 432.837 304.35 432.993C304.446 433.149 304.506 433.328 304.542 433.52H303.93L303.942 433.544Z" fill="#C5C5D3"/>
<path d="M306.675 436.253V435.857L308.76 432.813H306.663V432.298H309.491V432.693L307.406 435.737H309.503V436.253H306.675Z" fill="#C5C5D3"/>
<path d="M313.517 434.275C313.517 434.695 313.445 435.066 313.29 435.366C313.134 435.665 312.918 435.905 312.654 436.061C312.391 436.229 312.079 436.3 311.744 436.3C311.408 436.3 311.097 436.217 310.821 436.061C310.557 435.893 310.342 435.665 310.186 435.366C310.03 435.066 309.958 434.695 309.958 434.275C309.958 433.856 310.03 433.484 310.186 433.185C310.342 432.885 310.557 432.645 310.821 432.489C311.085 432.322 311.396 432.25 311.744 432.25C312.091 432.25 312.391 432.334 312.654 432.489C312.918 432.657 313.134 432.885 313.29 433.185C313.445 433.484 313.517 433.856 313.517 434.275ZM312.918 434.275C312.918 433.952 312.87 433.676 312.762 433.46C312.654 433.244 312.511 433.077 312.331 432.957C312.151 432.849 311.947 432.789 311.72 432.789C311.492 432.789 311.288 432.849 311.109 432.957C310.929 433.065 310.785 433.244 310.689 433.46C310.581 433.676 310.533 433.952 310.533 434.275C310.533 434.599 310.581 434.874 310.689 435.09C310.797 435.306 310.929 435.474 311.109 435.593C311.288 435.713 311.492 435.761 311.72 435.761C311.947 435.761 312.151 435.701 312.331 435.593C312.511 435.486 312.654 435.318 312.762 435.09C312.87 434.874 312.918 434.599 312.918 434.275Z" fill="#C5C5D3"/>
<path d="M317.449 432.286V436.24H316.898L314.884 433.34H314.848V436.24H314.249V432.286H314.8L316.814 435.198H316.85V432.286H317.437H317.449Z" fill="#C5C5D3"/>
<path d="M318.323 436.253V432.298H320.804V432.813H318.922V434.024H320.672V434.539H318.922V435.749H320.828V436.265H318.323V436.253Z" fill="#C5C5D3"/>
<path d="M501.623 441.094V563.778H505.218V441.094C505.218 436.348 501.359 432.49 496.613 432.49H374.529V436.085H496.613C499.37 436.085 501.623 438.338 501.623 441.094Z" fill="#C5C5D3"/>
<path d="M243.158 563.778V441.094C243.158 438.338 245.411 436.085 248.167 436.085H255.921V432.49H248.167C243.421 432.49 239.562 436.348 239.562 441.094V563.778H243.158Z" fill="#C5C5D3"/>
<path d="M501.623 568.344V690.356C501.623 693.124 499.37 695.365 496.614 695.365H487.386V698.96H496.614C501.359 698.96 505.218 695.102 505.218 690.356V568.344H501.623Z" fill="#C5C5D3"/>
<path d="M243.158 690.356V568.344H239.562V690.356C239.562 695.102 243.421 698.96 248.167 698.96H416.655V695.365H248.167C245.399 695.365 243.158 693.112 243.158 690.356Z" fill="#C5C5D3"/>
<g>
<path d="M352.633 287.378V286.57C352.633 286.506 352.576 286.455 352.513 286.462C350.021 286.75 348.113 288.707 347.828 291.176C347.82 291.24 347.871 291.296 347.935 291.296H348.767C348.819 291.296 348.861 291.258 348.868 291.206C349.126 289.267 350.593 287.745 352.544 287.479C352.596 287.472 352.634 287.43 352.634 287.378" fill="black"/>
<path d="M353.67 296.257V297.065C353.67 297.129 353.727 297.18 353.79 297.172C356.282 296.885 358.19 294.929 358.474 292.459C358.481 292.395 358.43 292.338 358.367 292.338H357.535C357.483 292.338 357.44 292.376 357.434 292.429C357.177 294.367 355.709 295.891 353.76 296.155C353.709 296.161 353.67 296.204 353.67 296.256" fill="black"/>
<path d="M357.536 291.296H358.368C358.431 291.296 358.482 291.239 358.475 291.176C358.191 288.707 356.283 286.75 353.791 286.462C353.727 286.455 353.671 286.507 353.671 286.57V287.377C353.671 287.429 353.709 287.472 353.761 287.478C355.711 287.743 357.178 289.266 357.435 291.205C357.441 291.256 357.484 291.295 357.536 291.295" fill="black"/>
<path d="M348.768 292.339H347.936C347.872 292.339 347.821 292.397 347.829 292.459C348.114 294.929 350.021 296.886 352.513 297.173C352.576 297.181 352.633 297.129 352.633 297.066V296.257C352.633 296.205 352.594 296.162 352.543 296.156C350.593 295.892 349.126 294.368 348.869 292.43C348.862 292.379 348.819 292.339 348.768 292.339Z" fill="black"/>
<path d="M380.129 287.378V286.57C380.129 286.506 380.072 286.455 380.009 286.462C377.517 286.75 375.609 288.707 375.325 291.176C375.318 291.24 375.369 291.296 375.433 291.296H376.265C376.317 291.296 376.359 291.258 376.366 291.206C376.623 289.267 378.091 287.744 380.04 287.479C380.091 287.472 380.13 287.43 380.13 287.378" fill="black"/>
<path d="M385.03 291.296H385.862C385.925 291.296 385.976 291.239 385.969 291.176C385.684 288.707 383.777 286.75 381.285 286.462C381.221 286.455 381.165 286.507 381.165 286.57V287.377C381.165 287.429 381.203 287.472 381.255 287.478C383.204 287.743 384.672 289.266 384.929 291.205C384.936 291.256 384.978 291.295 385.03 291.295" fill="black"/>
<path d="M376.263 292.339H375.431C375.367 292.339 375.316 292.397 375.323 292.459C375.608 294.929 377.515 296.886 380.007 297.173C380.07 297.181 380.127 297.129 380.127 297.066V296.257C380.127 296.205 380.088 296.162 380.037 296.156C378.086 295.892 376.62 294.368 376.363 292.43C376.356 292.379 376.314 292.339 376.262 292.339" fill="black"/>
<path d="M381.165 296.257V297.065C381.165 297.129 381.222 297.18 381.285 297.172C383.777 296.885 385.685 294.929 385.969 292.459C385.976 292.395 385.925 292.338 385.862 292.338H385.03C384.978 292.338 384.935 292.376 384.929 292.429C384.672 294.367 383.204 295.891 381.255 296.155C381.204 296.161 381.165 296.204 381.165 296.256" fill="black"/>
<path d="M393.396 291.192C391.988 290.731 391.1 290.373 391.1 289.24C391.1 288.108 392.003 287.438 393.247 287.438C394.558 287.438 395.349 288.17 395.749 289.061C395.775 289.118 395.839 289.14 395.893 289.11L396.582 288.723C396.63 288.695 396.65 288.634 396.627 288.583C396.077 287.388 394.908 286.425 393.247 286.425C391.587 286.425 390.064 287.453 390.064 289.285C390.064 291.207 391.692 291.654 393.381 292.22C394.905 292.727 395.927 293.114 395.927 294.321C395.927 295.438 395.054 296.198 393.484 296.198C391.913 296.198 390.943 295.446 390.546 294.265C390.525 294.202 390.454 294.173 390.397 294.207L389.696 294.618C389.652 294.644 389.632 294.701 389.649 294.749C390.203 296.278 391.593 297.211 393.469 297.211C395.542 297.211 396.963 296.078 396.963 294.291C396.963 292.354 395.275 291.818 393.395 291.192" fill="black"/>
<path d="M372.326 287.265C372.367 287.224 372.367 287.158 372.326 287.116L371.727 286.513C371.686 286.472 371.619 286.472 371.579 286.513L367.759 290.358C367.717 290.399 367.717 290.465 367.759 290.507L368.358 291.11C368.399 291.152 368.465 291.152 368.506 291.11L372.326 287.265Z" fill="black"/>
<path d="M372.108 296.358L367.699 291.922L366.951 291.169L362.541 286.733C362.5 286.691 362.433 286.691 362.393 286.733L361.794 287.336C361.752 287.377 361.752 287.443 361.794 287.485L366.204 291.922L361.794 296.358C361.752 296.4 361.752 296.467 361.794 296.508L362.393 297.11C362.434 297.152 362.501 297.152 362.541 297.11L366.951 292.674L371.361 297.11C371.402 297.152 371.468 297.152 371.509 297.11L372.108 296.508C372.15 296.466 372.15 296.399 372.108 296.358Z" fill="black"/>
</g>
</g>
<g>
<g>

<path d="M539.41 895.264C539.41 895.264 492.036 776.895 479.405 754.795C466.773 732.696 448.269 696.6 446.915 692.082C445.561 687.563 434.739 665.908 436.537 606.813C438.334 547.719 424.804 477.778 424.804 477.778C424.804 477.778 412.628 399.724 410.818 336.112C409.009 272.499 420.298 239.111 420.298 239.111L441.954 212.038C441.954 212.038 460.23 192.636 462.255 174.815C464.28 156.994 466.09 140.756 466.09 140.756C466.09 140.756 466.198 131.504 464.4 125.416L464.964 121.916C464.964 121.916 468.263 107.27 466.873 101.254C466.787 100.882 466.341 100.771 466.058 101.027C465.793 101.267 465.334 101.199 465.051 100.981C464.226 100.344 462.14 99.6043 457.401 101.735C453.852 103.767 452.182 105.023 451.397 105.745C451.291 105.841 450.656 105.635 450.649 105.492C450.449 101.49 449.723 87.4584 449.048 81.2056C449.048 81.2056 451.301 42.0648 439.353 41.166C427.405 40.2672 427.177 56.8415 427.177 56.8415C427.177 56.8415 427.405 77.1429 427.74 82.3321C428.076 87.5213 424.804 113.575 424.576 117.075C424.349 120.574 422.551 140.983 422.551 140.983C422.551 140.983 421.365 140.648 417.662 140.108C417.662 140.108 420.741 118.537 421.425 106.133C422.108 93.7292 422.216 71.6181 421.317 66.2012C420.418 60.7843 421.089 56.1584 421.089 56.1584C421.089 56.1584 427.632 19.4984 412.856 18.5996C398.079 17.7008 399.433 46.0077 399.433 46.0077C399.433 46.0077 398.535 67.3278 398.535 69.2452C398.535 71.1627 395.718 100.596 395.718 100.596C395.718 100.596 393.465 131.731 393.465 137.927L391.092 137.7C391.092 137.7 394.364 103.077 394.256 96.4137C394.148 89.7504 394.028 75.2134 394.028 75.2134C394.028 75.2134 403.844 42.8438 392.782 41.0342C381.721 39.2246 378.569 50.3939 378.569 50.3939C378.569 50.3939 374.961 67.6513 375.069 75.549C375.069 75.549 370.779 95.2871 371.007 108.602C371.234 121.916 370.216 142.098 370.216 142.098L365.362 142.433C365.362 142.433 365.817 122.36 364.116 116.607C362.414 110.855 364.116 98.451 364.116 98.451C364.116 98.451 368.286 74.0869 358.591 73.6315C348.896 73.1761 345.84 89.1991 345.504 99.6854C345.168 110.172 345.504 110.735 345.504 110.735C345.504 110.735 344.977 124.493 345.348 128.556C345.72 132.618 343.239 151.565 342.903 152.812C342.568 154.058 337.822 178.866 337.822 181.346C337.822 183.827 337.714 205.603 339.632 233.011C341.549 260.419 339.74 269.551 339.74 269.551L331.171 345.579L322.938 410.103L309.971 508.458C309.971 508.458 300.072 586.74 303.679 611.319C307.286 635.899 326.916 720.281 326.916 720.281C326.916 720.281 343.383 814.345 350.825 832.849C358.267 851.353 382.859 896.234 382.859 896.234" stroke="#595CFF" stroke-width="3.53876" stroke-miterlimit="10"/>
</g>
<path d="M347.889 103.113C347.889 103.113 353.641 101.507 362.258 102.658" stroke="#595CFF" stroke-width="0.599215" stroke-linecap="round" stroke-linejoin="round"/>
<path d="M363.936 122.144C363.936 122.144 352.634 118.872 347.889 124.96" stroke="#595CFF" stroke-width="0.599215" stroke-linecap="round" stroke-linejoin="round"/>
<path d="M377.441 75.1056C377.441 75.1056 387.197 73.1881 392.554 75.1056" stroke="#595CFF" stroke-width="0.599215" stroke-linecap="round" stroke-linejoin="round"/>
<path d="M392.554 102.67C392.554 102.67 383.638 100.033 376.879 101.615" stroke="#595CFF" stroke-width="0.599215" stroke-linecap="round" stroke-linejoin="round"/>
<path d="M419.519 99.4698C419.519 99.4698 410.495 95.8026 403.28 96.4258" stroke="#595CFF" stroke-width="0.599215" stroke-linecap="round" stroke-linejoin="round"/>
<path d="M419.854 60.4489C419.854 60.4489 411.118 57.3809 404.179 59.2025" stroke="#595CFF" stroke-width="0.599215" stroke-linecap="round" stroke-linejoin="round"/>
<path d="M427.752 82.3203C427.752 82.3203 436.093 77.922 446.028 82.3203" stroke="#595CFF" stroke-width="0.599215" stroke-linecap="round" stroke-linejoin="round"/>
<path d="M425.631 107.248C425.631 107.248 440.156 106.013 447.598 110.531" stroke="#595CFF" stroke-width="0.599215" stroke-linecap="round" stroke-linejoin="round"/>
<path d="M452.463 106.553C447.07 115.457 445.392 126.614 444.302 136.861C444.29 137.124 444.194 137.388 444.038 137.58C442.96 138.898 441.989 140.612 441.186 142.29C439.149 146.592 437.962 151.278 437.315 155.988L437.003 158.852C436.979 159.236 436.644 159.523 436.26 159.475C435.901 159.439 435.637 159.116 435.673 158.768L435.889 155.832C436.656 148.905 438.25 141.954 442.384 136.154L442.121 136.873C442.157 135.375 442.301 134.104 442.444 132.738C443.223 126.087 444.026 119.16 446.459 112.844C447.418 110.256 448.305 107.368 449.695 104.863C450.138 104.072 451.133 103.784 451.924 104.228C452.763 104.683 453.026 105.774 452.499 106.565L452.463 106.553Z" fill="#595CFF"/>
<path d="M350.153 167.828C350.153 167.828 389.749 172.167 416.474 154.514" stroke="#595CFF" stroke-width="0.599215" stroke-linecap="round" stroke-linejoin="round"/>
<path d="M359.178 182.03C359.178 182.03 413.994 157.689 430.46 161.405" stroke="#595CFF" stroke-width="0.599215" stroke-linecap="round" stroke-linejoin="round"/>
<path d="M383.314 194.218C383.314 194.218 409.488 156.994 434.979 163.538" stroke="#595CFF" stroke-width="0.599215" stroke-linecap="round" stroke-linejoin="round"/>
<path d="M451.889 135.003C451.889 135.003 447.826 134.105 443.2 136.861" stroke="#595CFF" stroke-width="0.599215" stroke-linecap="round" stroke-linejoin="round"/>
<path d="M365.553 144.231C360.736 144.411 355.738 144.926 351.172 146.544C350.884 146.652 350.561 146.508 350.453 146.221C350.357 145.969 350.465 145.681 350.693 145.549C352.922 144.267 355.319 143.344 357.739 142.565C360.208 141.786 362.629 141.151 365.182 140.648C366.164 140.456 367.111 141.103 367.291 142.086C367.507 143.177 366.656 144.219 365.541 144.231H365.553Z" fill="#595CFF"/>
</g>

</svg>
