<svg width="740" height="956" viewBox="0 0 740 956" fill="none" xmlns="http://www.w3.org/2000/svg">
<path d="M539.41 895.264C539.41 895.264 492.036 776.895 479.405 754.795C466.773 732.696 448.269 696.6 446.915 692.082C445.561 687.563 434.739 665.908 436.537 606.813C438.334 547.719 424.804 477.778 424.804 477.778C424.804 477.778 412.628 399.724 410.818 336.112C409.009 272.499 420.298 239.111 420.298 239.111L441.954 212.038C441.954 212.038 460.23 192.636 462.255 174.815C464.28 156.994 466.09 140.756 466.09 140.756C466.09 140.756 466.198 131.504 464.4 125.416L464.964 121.916C464.964 121.916 468.263 107.27 466.873 101.254C466.787 100.882 466.341 100.771 466.058 101.027C465.793 101.267 465.334 101.199 465.051 100.981C464.226 100.344 462.14 99.6043 457.401 101.735C453.852 103.767 452.182 105.023 451.397 105.745C451.291 105.841 450.656 105.635 450.649 105.492C450.449 101.49 449.723 87.4584 449.048 81.2056C449.048 81.2056 451.301 42.0648 439.353 41.166C427.405 40.2672 427.177 56.8415 427.177 56.8415C427.177 56.8415 427.405 77.1429 427.74 82.3321C428.076 87.5213 424.804 113.575 424.576 117.075C424.349 120.574 422.551 140.983 422.551 140.983C422.551 140.983 421.365 140.648 417.662 140.108C417.662 140.108 420.741 118.537 421.425 106.133C422.108 93.7292 422.216 71.6181 421.317 66.2012C420.418 60.7843 421.089 56.1584 421.089 56.1584C421.089 56.1584 427.632 19.4984 412.856 18.5996C398.079 17.7008 399.433 46.0077 399.433 46.0077C399.433 46.0077 398.535 67.3278 398.535 69.2452C398.535 71.1627 395.718 100.596 395.718 100.596C395.718 100.596 393.465 131.731 393.465 137.927L391.092 137.7C391.092 137.7 394.364 103.077 394.256 96.4137C394.148 89.7504 394.028 75.2134 394.028 75.2134C394.028 75.2134 403.844 42.8438 392.782 41.0342C381.721 39.2246 378.569 50.3939 378.569 50.3939C378.569 50.3939 374.961 67.6513 375.069 75.549C375.069 75.549 370.779 95.2871 371.007 108.602C371.234 121.916 370.216 142.098 370.216 142.098L365.362 142.433C365.362 142.433 365.817 122.36 364.116 116.607C362.414 110.855 364.116 98.451 364.116 98.451C364.116 98.451 368.286 74.0869 358.591 73.6315C348.896 73.1761 345.84 89.1991 345.504 99.6854C345.168 110.172 345.504 110.735 345.504 110.735C345.504 110.735 344.977 124.493 345.348 128.556C345.72 132.618 343.239 151.565 342.903 152.812C342.568 154.058 337.822 178.866 337.822 181.346C337.822 183.827 337.714 205.603 339.632 233.011C341.549 260.419 339.74 269.551 339.74 269.551L331.171 345.579L322.938 410.103L309.971 508.458C309.971 508.458 300.072 586.74 303.679 611.319C307.286 635.899 326.916 720.281 326.916 720.281C326.916 720.281 343.383 814.345 350.825 832.849C358.267 851.353 382.859 896.234 382.859 896.234" stroke="#595CFF" stroke-width="3.53876" stroke-miterlimit="10"/>
<path d="M347.889 103.113C347.889 103.113 353.641 101.507 362.258 102.658" stroke="#595CFF" stroke-width="0.599215" stroke-linecap="round" stroke-linejoin="round"/>
<path d="M363.936 122.144C363.936 122.144 352.634 118.872 347.889 124.96" stroke="#595CFF" stroke-width="0.599215" stroke-linecap="round" stroke-linejoin="round"/>
<path d="M377.441 75.1056C377.441 75.1056 387.197 73.1881 392.554 75.1056" stroke="#595CFF" stroke-width="0.599215" stroke-linecap="round" stroke-linejoin="round"/>
<path d="M392.554 102.67C392.554 102.67 383.638 100.033 376.879 101.615" stroke="#595CFF" stroke-width="0.599215" stroke-linecap="round" stroke-linejoin="round"/>
<path d="M419.519 99.4698C419.519 99.4698 410.495 95.8026 403.28 96.4258" stroke="#595CFF" stroke-width="0.599215" stroke-linecap="round" stroke-linejoin="round"/>
<path d="M419.854 60.4489C419.854 60.4489 411.118 57.3809 404.179 59.2025" stroke="#595CFF" stroke-width="0.599215" stroke-linecap="round" stroke-linejoin="round"/>
<path d="M427.752 82.3203C427.752 82.3203 436.093 77.922 446.028 82.3203" stroke="#595CFF" stroke-width="0.599215" stroke-linecap="round" stroke-linejoin="round"/>
<path d="M425.631 107.248C425.631 107.248 440.156 106.013 447.598 110.531" stroke="#595CFF" stroke-width="0.599215" stroke-linecap="round" stroke-linejoin="round"/>
<path d="M452.463 106.553C447.07 115.457 445.392 126.614 444.302 136.861C444.29 137.124 444.194 137.388 444.038 137.58C442.96 138.898 441.989 140.612 441.186 142.29C439.149 146.592 437.962 151.278 437.315 155.988L437.003 158.852C436.979 159.236 436.644 159.523 436.26 159.475C435.901 159.439 435.637 159.116 435.673 158.768L435.889 155.832C436.656 148.905 438.25 141.954 442.384 136.154L442.121 136.873C442.157 135.375 442.301 134.104 442.444 132.738C443.223 126.087 444.026 119.16 446.459 112.844C447.418 110.256 448.305 107.368 449.695 104.863C450.138 104.072 451.133 103.784 451.924 104.228C452.763 104.683 453.026 105.774 452.499 106.565L452.463 106.553Z" fill="#595CFF"/>
<path d="M350.153 167.828C350.153 167.828 389.749 172.167 416.474 154.514" stroke="#595CFF" stroke-width="0.599215" stroke-linecap="round" stroke-linejoin="round"/>
<path d="M359.178 182.03C359.178 182.03 413.994 157.689 430.46 161.405" stroke="#595CFF" stroke-width="0.599215" stroke-linecap="round" stroke-linejoin="round"/>
<path d="M383.314 194.218C383.314 194.218 409.488 156.994 434.979 163.538" stroke="#595CFF" stroke-width="0.599215" stroke-linecap="round" stroke-linejoin="round"/>
<path d="M451.889 135.003C451.889 135.003 447.826 134.105 443.2 136.861" stroke="#595CFF" stroke-width="0.599215" stroke-linecap="round" stroke-linejoin="round"/>
<path d="M365.553 144.231C360.736 144.411 355.738 144.926 351.172 146.544C350.884 146.652 350.561 146.508 350.453 146.221C350.357 145.969 350.465 145.681 350.693 145.549C352.922 144.267 355.319 143.344 357.739 142.565C360.208 141.786 362.629 141.151 365.182 140.648C366.164 140.456 367.111 141.103 367.291 142.086C367.507 143.177 366.656 144.219 365.541 144.231H365.553Z" fill="#595CFF"/>
</svg>
