<svg width="740" height="956" viewBox="0 0 740 956" fill="none" xmlns="http://www.w3.org/2000/svg">
<path d="M420.322 747.545L421.899 747.05L421.855 746.91L421.787 746.78L420.322 747.545ZM416.26 701.981L414.67 701.529L414.668 701.537L414.666 701.546L416.26 701.981ZM434.536 637.685L436.125 638.137L436.126 638.135L434.536 637.685ZM436.801 599.107L435.197 598.707L435.051 599.295L435.319 599.838L436.801 599.107ZM445.13 565.719L443.58 565.146L443.549 565.231L443.527 565.319L445.13 565.719ZM434.524 547.215L432.94 547.686L435.745 557.118L436.175 547.287L434.524 547.215ZM428.208 496.905L429.856 496.782L429.853 496.75L429.85 496.717L428.208 496.905ZM425.955 477.275L427.597 477.087L427.526 476.47L427.067 476.053L425.955 477.275ZM411.969 477.275L413.138 478.443L413.148 478.433L413.157 478.423L411.969 477.275ZM410.16 495.323L411.811 495.262L411.808 495.19L411.799 495.119L410.16 495.323ZM409.656 516.536L408.102 517.097C408.355 517.796 409.043 518.241 409.785 518.183C410.526 518.125 411.138 517.579 411.279 516.849L409.656 516.536ZM392.339 465.542L390.698 465.739L390.717 465.896L390.766 466.047L392.339 465.542ZM378.126 492.627L379.778 492.61L379.775 492.359L379.698 492.12L378.126 492.627ZM383.986 528.496L385.623 528.723L385.686 528.266L385.504 527.843L383.986 528.496ZM388.276 560.302L387.203 561.559L396.594 569.575L389.642 559.372L388.276 560.302ZM369.772 544.507L368.604 545.675L368.65 545.721L368.7 545.764L369.772 544.507ZM331.866 539.761L332.268 538.158L332.07 538.109H331.866V539.761ZM309.527 539.761V538.109H309.123L308.764 538.295L309.527 539.761ZM304.71 546.245L303.059 546.176L303.016 547.205L303.921 547.696L304.71 546.245ZM371.019 592.923L372.671 592.946L372.683 592.06L371.952 591.56L371.019 592.923ZM363.229 615.25L362.828 613.647L362.723 613.674L362.621 613.714L363.229 615.25ZM326.677 578.71L325.077 579.124L325.094 579.188L325.115 579.25L326.677 578.71ZM292.809 547.407L291.805 546.095L291.781 546.114L291.756 546.134L292.809 547.407ZM290.329 564.329L288.817 564.997L288.817 564.998L290.329 564.329ZM294.619 574.024L296.271 574.052L296.277 573.688L296.13 573.356L294.619 574.024ZM312.212 653.444L313.815 653.045L313.779 652.898L313.716 652.76L312.212 653.444ZM331.159 705.336L329.955 706.468L329.973 706.487L329.991 706.505L331.159 705.336ZM342.221 851.521L343.871 851.592L343.872 851.589L342.221 851.521ZM459.571 872.457L461.147 871.962L421.899 747.05L420.322 747.545L418.746 748.04L457.994 872.953L459.571 872.457ZM420.322 747.545C421.787 746.78 421.787 746.781 421.788 746.781C421.788 746.781 421.788 746.782 421.788 746.782C421.788 746.782 421.788 746.781 421.787 746.781C421.787 746.78 421.786 746.777 421.784 746.774C421.78 746.767 421.774 746.755 421.765 746.738C421.748 746.704 421.721 746.65 421.685 746.577C421.614 746.431 421.507 746.209 421.372 745.915C421.101 745.326 420.717 744.448 420.275 743.314C419.39 741.044 418.274 737.755 417.364 733.704C415.543 725.595 414.558 714.489 417.854 702.416L416.26 701.981L414.666 701.546C411.19 714.28 412.237 725.956 414.14 734.428C415.092 738.667 416.261 742.117 417.196 744.514C417.663 745.714 418.073 746.651 418.368 747.294C418.516 747.616 418.635 747.864 418.719 748.035C418.761 748.12 418.794 748.186 418.818 748.232C418.829 748.255 418.838 748.273 418.845 748.286C418.848 748.292 418.851 748.298 418.853 748.301C418.854 748.303 418.855 748.305 418.856 748.306C418.856 748.307 418.857 748.308 418.857 748.308C418.857 748.309 418.857 748.31 420.322 747.545ZM416.26 701.981L417.849 702.432L436.125 638.137L434.536 637.685L432.946 637.233L414.67 701.529L416.26 701.981ZM434.536 637.685C436.126 638.135 436.126 638.135 436.126 638.135C436.126 638.135 436.126 638.135 436.126 638.134C436.126 638.134 436.126 638.134 436.126 638.133C436.126 638.132 436.127 638.13 436.128 638.128C436.129 638.123 436.131 638.116 436.134 638.107C436.139 638.087 436.147 638.059 436.158 638.021C436.18 637.945 436.212 637.834 436.253 637.69C436.335 637.404 436.455 636.99 436.604 636.484C436.902 635.471 437.315 634.092 437.776 632.624C438.722 629.614 439.803 626.452 440.499 625.149L439.042 624.37L437.585 623.591C436.711 625.225 435.539 628.72 434.624 631.633C434.155 633.127 433.735 634.526 433.434 635.551C433.283 636.064 433.161 636.484 433.077 636.776C433.035 636.922 433.002 637.036 432.98 637.114C432.969 637.153 432.96 637.183 432.955 637.204C432.952 637.214 432.95 637.221 432.948 637.227C432.947 637.229 432.947 637.231 432.946 637.233C432.946 637.233 432.946 637.234 432.946 637.234C432.946 637.235 432.946 637.235 432.946 637.235C432.946 637.235 432.946 637.235 434.536 637.685ZM439.042 624.37L440.499 625.149C442.314 621.755 445.307 612.624 438.283 598.377L436.801 599.107L435.319 599.838C441.861 613.107 438.909 621.114 437.585 623.591L439.042 624.37ZM436.801 599.107L438.404 599.507L446.733 566.119L445.13 565.719L443.527 565.319L435.197 598.707L436.801 599.107ZM445.13 565.719C446.679 566.293 446.68 566.292 446.68 566.292C446.68 566.292 446.68 566.292 446.68 566.292C446.68 566.291 446.68 566.291 446.681 566.29C446.681 566.288 446.682 566.286 446.683 566.283C446.686 566.276 446.689 566.267 446.693 566.255C446.702 566.231 446.715 566.196 446.732 566.15C446.766 566.058 446.815 565.924 446.877 565.752C447.002 565.408 447.179 564.914 447.392 564.31C447.818 563.102 448.386 561.452 448.956 559.685C449.524 557.922 450.098 556.025 450.533 554.328C450.953 552.686 451.288 551.061 451.288 549.924H449.636H447.984C447.984 550.596 447.755 551.851 447.331 553.509C446.92 555.113 446.368 556.939 445.81 558.672C445.253 560.402 444.695 562.022 444.276 563.211C444.066 563.805 443.892 564.29 443.77 564.626C443.709 564.794 443.661 564.925 443.629 565.013C443.613 565.057 443.6 565.091 443.592 565.113C443.588 565.124 443.585 565.132 443.583 565.138C443.582 565.141 443.581 565.143 443.581 565.144C443.58 565.145 443.58 565.145 443.58 565.145C443.58 565.145 443.58 565.146 443.58 565.146C443.58 565.146 443.58 565.146 445.13 565.719ZM449.636 549.924H451.288C451.288 549.23 451.547 547.869 451.948 545.921C452.329 544.074 452.799 541.852 453.104 539.689C453.405 537.551 453.57 535.31 453.264 533.443C452.96 531.596 452.087 529.61 449.89 528.941L449.408 530.521L448.926 532.102C449.324 532.223 449.777 532.606 450.002 533.979C450.225 535.333 450.122 537.165 449.832 539.228C449.545 541.265 449.099 543.371 448.712 545.254C448.345 547.036 447.984 548.808 447.984 549.924H449.636ZM449.408 530.521L449.89 528.941C448.088 528.391 446.114 528.729 444.296 529.52C442.459 530.319 440.63 531.642 439.002 533.317C435.752 536.658 433.115 541.596 432.873 547.143L434.524 547.215L436.175 547.287C436.376 542.684 438.586 538.484 441.371 535.621C442.759 534.193 444.244 533.147 445.615 532.55C447.005 531.945 448.134 531.86 448.926 532.102L449.408 530.521ZM434.524 547.215C436.108 546.744 436.108 546.744 436.108 546.744C436.107 546.744 436.107 546.744 436.107 546.744C436.107 546.744 436.107 546.743 436.107 546.743C436.107 546.742 436.106 546.741 436.106 546.739C436.105 546.735 436.103 546.729 436.101 546.721C436.096 546.706 436.089 546.683 436.08 546.652C436.062 546.592 436.036 546.502 436.002 546.388C435.935 546.159 435.838 545.831 435.723 545.433C435.491 544.637 435.183 543.565 434.875 542.459C434.567 541.351 434.262 540.22 434.035 539.301C433.921 538.841 433.831 538.447 433.769 538.144C433.698 537.789 433.695 537.69 433.695 537.736H432.043H430.391C430.391 538.067 430.465 538.476 430.53 538.796C430.604 539.167 430.707 539.612 430.826 540.093C431.065 541.059 431.38 542.226 431.691 543.346C432.004 544.468 432.316 545.552 432.549 546.356C432.666 546.758 432.764 547.09 432.832 547.322C432.866 547.438 432.893 547.528 432.911 547.59C432.921 547.622 432.928 547.645 432.932 547.661C432.935 547.67 432.937 547.676 432.938 547.68C432.939 547.682 432.939 547.684 432.939 547.685C432.939 547.685 432.94 547.686 432.94 547.686C432.94 547.686 432.94 547.686 432.94 547.686C432.94 547.686 432.94 547.686 434.524 547.215ZM432.043 537.736H433.695C433.695 537.494 433.641 536.878 433.569 536.12C433.493 535.303 433.382 534.186 433.246 532.836C432.974 530.128 432.601 526.486 432.192 522.396C431.374 514.219 430.417 504.315 429.856 496.782L428.208 496.905L426.56 497.028C427.125 504.607 428.086 514.549 428.904 522.725C429.312 526.811 429.687 530.472 429.958 533.166C430.094 534.516 430.204 535.624 430.279 536.429C430.317 536.832 430.346 537.154 430.365 537.39C430.387 537.658 430.391 537.746 430.391 537.736H432.043ZM428.208 496.905L429.85 496.717L427.597 477.087L425.955 477.275L424.313 477.463L426.566 497.094L428.208 496.905ZM425.955 477.275C427.067 476.053 427.066 476.052 427.066 476.052C427.065 476.051 427.065 476.051 427.064 476.05C427.063 476.049 427.062 476.048 427.061 476.047C427.059 476.045 427.056 476.043 427.052 476.04C427.046 476.034 427.037 476.026 427.027 476.017C427.006 475.999 426.978 475.974 426.943 475.944C426.873 475.885 426.775 475.803 426.651 475.704C426.402 475.506 426.047 475.239 425.601 474.944C424.717 474.359 423.442 473.643 421.914 473.16C420.382 472.676 418.552 472.413 416.597 472.797C414.623 473.184 412.634 474.209 410.781 476.127L411.969 477.275L413.157 478.423C414.576 476.955 415.971 476.288 417.233 476.04C418.514 475.789 419.771 475.949 420.918 476.311C422.069 476.675 423.063 477.228 423.778 477.701C424.133 477.935 424.41 478.144 424.594 478.291C424.686 478.364 424.754 478.421 424.796 478.457C424.817 478.475 424.832 478.488 424.84 478.495C424.844 478.498 424.846 478.5 424.847 478.501C424.847 478.501 424.847 478.501 424.846 478.5C424.846 478.5 424.845 478.499 424.845 478.499C424.845 478.499 424.844 478.498 424.844 478.498C424.843 478.498 424.843 478.497 425.955 477.275ZM411.969 477.275C410.801 476.107 410.8 476.108 410.798 476.109C410.798 476.11 410.796 476.111 410.796 476.112C410.794 476.114 410.792 476.116 410.79 476.118C410.786 476.121 410.782 476.126 410.778 476.13C410.769 476.139 410.76 476.148 410.75 476.159C410.73 476.181 410.707 476.206 410.681 476.236C410.629 476.296 410.567 476.372 410.496 476.467C410.353 476.656 410.178 476.919 409.986 477.268C409.602 477.966 409.157 479.003 408.787 480.483C408.048 483.437 407.603 488.163 408.52 495.527L410.16 495.323L411.799 495.119C410.918 488.043 411.378 483.744 411.993 481.285C412.3 480.058 412.645 479.29 412.882 478.861C413 478.646 413.092 478.513 413.14 478.45C413.164 478.417 413.177 478.402 413.177 478.402C413.177 478.402 413.174 478.405 413.168 478.412C413.165 478.416 413.16 478.42 413.155 478.425C413.153 478.428 413.15 478.431 413.147 478.434C413.146 478.435 413.144 478.437 413.143 478.438C413.142 478.439 413.141 478.44 413.14 478.441C413.139 478.442 413.138 478.443 411.969 477.275ZM410.16 495.323C408.508 495.385 408.508 495.385 408.508 495.385C408.508 495.385 408.508 495.385 408.508 495.386C408.508 495.386 408.508 495.387 408.508 495.387C408.508 495.389 408.509 495.391 408.509 495.394C408.509 495.4 408.509 495.408 408.51 495.42C408.511 495.443 408.512 495.477 408.513 495.522C408.517 495.612 408.522 495.743 408.528 495.912C408.54 496.248 408.558 496.731 408.579 497.318C408.622 498.49 408.679 500.075 408.736 501.723C408.85 505.041 408.963 508.555 408.963 509.537H410.615H412.267C412.267 508.481 412.152 504.889 412.039 501.609C411.982 499.958 411.925 498.372 411.882 497.198C411.861 496.611 411.843 496.127 411.83 495.789C411.824 495.621 411.819 495.489 411.816 495.399C411.814 495.354 411.813 495.32 411.812 495.297C411.812 495.285 411.811 495.276 411.811 495.27C411.811 495.268 411.811 495.265 411.811 495.264C411.811 495.263 411.811 495.262 411.811 495.262C411.811 495.262 411.811 495.262 411.811 495.262C411.811 495.262 411.811 495.262 410.16 495.323ZM410.615 509.537H408.963C408.963 510.402 408.747 512.022 408.504 513.539C408.386 514.272 408.269 514.945 408.18 515.434C408.136 515.679 408.099 515.877 408.073 516.013C408.061 516.082 408.051 516.134 408.044 516.17C408.04 516.188 408.038 516.201 408.036 516.21C408.035 516.214 408.035 516.217 408.034 516.219C408.034 516.22 408.034 516.221 408.034 516.222C408.034 516.222 408.034 516.222 408.034 516.222C408.034 516.222 408.034 516.222 408.034 516.222C408.034 516.222 408.034 516.222 409.656 516.536C411.279 516.849 411.279 516.849 411.279 516.849C411.279 516.849 411.279 516.849 411.279 516.849C411.279 516.848 411.279 516.848 411.279 516.848C411.279 516.847 411.279 516.846 411.28 516.844C411.28 516.842 411.281 516.838 411.282 516.833C411.284 516.823 411.287 516.808 411.29 516.789C411.297 516.75 411.308 516.695 411.321 516.623C411.348 516.48 411.386 516.275 411.432 516.023C411.523 515.518 411.645 514.823 411.767 514.062C412.003 512.588 412.267 510.709 412.267 509.537H410.615ZM409.656 516.536C411.21 515.974 411.21 515.974 411.21 515.974C411.21 515.974 411.21 515.973 411.21 515.973C411.21 515.972 411.209 515.971 411.209 515.969C411.207 515.966 411.206 515.961 411.203 515.954C411.198 515.941 411.191 515.921 411.181 515.894C411.162 515.841 411.134 515.762 411.097 515.659C411.022 515.453 410.913 515.15 410.773 514.762C410.494 513.986 410.092 512.871 409.605 511.514C408.63 508.801 407.311 505.123 405.937 501.262C403.18 493.515 400.221 485.099 399.336 482.208L397.756 482.692L396.176 483.176C397.088 486.157 400.08 494.663 402.823 502.37C404.199 506.235 405.519 509.917 406.495 512.632C406.982 513.99 407.384 515.106 407.664 515.882C407.804 516.271 407.914 516.574 407.988 516.781C408.025 516.884 408.054 516.963 408.073 517.016C408.083 517.043 408.09 517.063 408.095 517.076C408.097 517.083 408.099 517.088 408.1 517.092C408.101 517.093 408.101 517.095 408.102 517.096C408.102 517.096 408.102 517.096 408.102 517.097C408.102 517.097 408.102 517.097 409.656 516.536ZM397.756 482.692L399.336 482.208C398.434 479.263 397.078 474.968 395.948 471.414C395.383 469.637 394.874 468.043 394.506 466.893C394.323 466.318 394.174 465.854 394.072 465.534C394.02 465.374 393.98 465.25 393.953 465.166C393.94 465.124 393.93 465.092 393.923 465.07C393.919 465.059 393.917 465.051 393.915 465.046C393.914 465.043 393.913 465.041 393.913 465.039C393.913 465.039 393.913 465.038 393.912 465.038C393.912 465.038 393.912 465.038 393.912 465.037C393.912 465.037 393.912 465.037 392.339 465.542C390.766 466.047 390.766 466.047 390.766 466.047C390.766 466.047 390.766 466.048 390.766 466.048C390.766 466.048 390.766 466.049 390.766 466.049C390.767 466.051 390.767 466.053 390.768 466.055C390.77 466.061 390.773 466.069 390.776 466.08C390.783 466.101 390.793 466.133 390.807 466.175C390.833 466.259 390.873 466.383 390.924 466.543C391.027 466.862 391.175 467.325 391.359 467.899C391.726 469.048 392.234 470.64 392.799 472.416C393.928 475.969 395.28 480.249 396.176 483.176L397.756 482.692ZM392.339 465.542C393.98 465.346 393.98 465.345 393.979 465.344C393.979 465.344 393.979 465.343 393.979 465.343C393.979 465.341 393.979 465.34 393.979 465.338C393.978 465.335 393.978 465.33 393.977 465.325C393.976 465.315 393.974 465.301 393.972 465.283C393.967 465.248 393.96 465.198 393.951 465.136C393.933 465.012 393.906 464.835 393.867 464.615C393.791 464.175 393.669 463.556 393.487 462.827C393.125 461.378 392.512 459.438 391.508 457.571C390.509 455.712 389.063 453.814 386.982 452.602C384.849 451.36 382.207 450.932 379.055 451.769L379.48 453.366L379.904 454.963C382.277 454.333 384.005 454.693 385.319 455.458C386.685 456.254 387.763 457.583 388.597 459.136C389.427 460.679 389.958 462.334 390.28 463.627C390.44 464.268 390.546 464.808 390.612 465.183C390.644 465.37 390.667 465.515 390.681 465.611C390.688 465.658 390.692 465.693 390.695 465.715C390.697 465.726 390.698 465.734 390.698 465.738C390.698 465.74 390.698 465.741 390.699 465.741C390.699 465.741 390.699 465.741 390.698 465.74C390.698 465.74 390.698 465.74 390.698 465.74C390.698 465.739 390.698 465.739 392.339 465.542ZM379.48 453.366L379.055 451.769C372.391 453.54 370.449 460.049 370.217 465.936C369.981 471.941 371.439 478.245 372.508 481.225L374.063 480.666L375.618 480.108C374.662 477.443 373.303 471.565 373.519 466.066C373.74 460.448 375.519 456.128 379.904 454.963L379.48 453.366ZM374.063 480.666L372.508 481.225C373.514 484.031 374.526 487.008 375.286 489.287C375.666 490.425 375.983 491.388 376.205 492.066C376.316 492.405 376.403 492.672 376.462 492.855C376.492 492.946 376.515 493.016 376.53 493.063C376.538 493.087 376.543 493.105 376.547 493.117C376.549 493.123 376.551 493.127 376.552 493.13C376.552 493.131 376.552 493.132 376.553 493.133C376.553 493.134 376.553 493.134 376.553 493.134C376.553 493.134 376.553 493.134 376.553 493.134C376.553 493.134 376.553 493.134 378.126 492.627C379.698 492.12 379.698 492.119 379.698 492.119C379.698 492.119 379.698 492.119 379.698 492.119C379.698 492.119 379.698 492.119 379.698 492.118C379.697 492.117 379.697 492.116 379.697 492.115C379.696 492.111 379.694 492.107 379.692 492.101C379.688 492.088 379.682 492.07 379.674 492.046C379.659 491.998 379.636 491.926 379.606 491.834C379.546 491.649 379.458 491.379 379.346 491.038C379.123 490.355 378.804 489.386 378.421 488.24C377.657 485.95 376.637 482.947 375.618 480.108L374.063 480.666ZM378.126 492.627C376.473 492.643 376.473 492.644 376.473 492.644C376.473 492.644 376.473 492.645 376.473 492.645C376.473 492.646 376.473 492.647 376.473 492.649C376.473 492.652 376.473 492.657 376.473 492.663C376.474 492.675 376.474 492.693 376.474 492.715C376.475 492.761 376.476 492.828 376.477 492.915C376.48 493.09 376.486 493.346 376.495 493.675C376.512 494.334 376.543 495.286 376.599 496.468C376.709 498.832 376.915 502.121 377.3 505.824C378.064 513.184 379.547 522.362 382.468 529.149L383.986 528.496L385.504 527.843C382.792 521.543 381.345 512.786 380.587 505.483C380.21 501.856 380.008 498.631 379.9 496.314C379.846 495.156 379.815 494.226 379.798 493.587C379.79 493.268 379.785 493.022 379.782 492.856C379.78 492.774 379.779 492.711 379.779 492.67C379.778 492.649 379.778 492.634 379.778 492.624C379.778 492.619 379.778 492.615 379.778 492.613C379.778 492.612 379.778 492.611 379.778 492.611C379.778 492.61 379.778 492.61 379.778 492.61C379.778 492.61 379.778 492.61 378.126 492.627ZM383.986 528.496C382.349 528.269 382.349 528.27 382.349 528.27C382.349 528.27 382.349 528.271 382.349 528.271C382.349 528.273 382.348 528.274 382.348 528.276C382.348 528.279 382.347 528.284 382.346 528.29C382.345 528.302 382.342 528.319 382.339 528.341C382.334 528.385 382.325 528.449 382.315 528.532C382.294 528.697 382.265 528.938 382.231 529.247C382.163 529.864 382.075 530.752 381.992 531.85C381.827 534.043 381.683 537.082 381.769 540.464C381.94 547.133 383.01 555.507 386.911 561.233L388.276 560.302L389.642 559.372C386.316 554.491 385.241 546.962 385.073 540.38C384.99 537.136 385.128 534.212 385.288 532.098C385.367 531.043 385.452 530.192 385.516 529.609C385.548 529.317 385.576 529.092 385.594 528.942C385.604 528.866 385.611 528.81 385.616 528.773C385.618 528.755 385.62 528.741 385.621 528.733C385.622 528.729 385.622 528.726 385.622 528.724C385.623 528.723 385.623 528.722 385.623 528.722C385.623 528.722 385.623 528.722 385.623 528.722C385.623 528.722 385.623 528.723 383.986 528.496ZM388.276 560.302L389.349 559.045L370.845 543.25L369.772 544.507L368.7 545.764L387.203 561.559L388.276 560.302ZM369.772 544.507C370.941 543.338 370.939 543.337 370.938 543.335C370.937 543.335 370.936 543.333 370.935 543.332C370.933 543.33 370.931 543.328 370.928 543.326C370.924 543.322 370.92 543.317 370.915 543.313C370.905 543.304 370.895 543.294 370.884 543.284C370.863 543.264 370.838 543.242 370.81 543.218C370.754 543.171 370.685 543.116 370.601 543.055C370.433 542.932 370.207 542.786 369.905 542.624C369.304 542.301 368.4 541.914 367.065 541.535C364.401 540.778 359.961 540.034 352.649 539.919L352.623 541.571L352.597 543.223C359.726 543.335 363.86 544.06 366.161 544.714C367.308 545.04 367.984 545.344 368.342 545.536C368.52 545.632 368.618 545.699 368.655 545.726C368.673 545.739 368.677 545.742 368.667 545.735C368.663 545.731 368.655 545.724 368.644 545.714C368.639 545.709 368.633 545.703 368.626 545.697C368.623 545.694 368.619 545.69 368.616 545.687C368.614 545.685 368.612 545.683 368.61 545.681C368.609 545.68 368.608 545.679 368.607 545.678C368.606 545.677 368.604 545.675 369.772 544.507ZM352.623 541.571L352.649 539.919C345.485 539.806 340.356 539.357 337.035 538.941C335.374 538.733 334.165 538.533 333.38 538.387C332.988 538.314 332.701 538.255 332.517 538.215C332.425 538.195 332.358 538.18 332.317 538.17C332.296 538.165 332.282 538.162 332.274 538.16C332.269 538.159 332.267 538.158 332.266 538.158C332.265 538.158 332.265 538.158 332.266 538.158C332.266 538.158 332.266 538.158 332.266 538.158C332.266 538.158 332.267 538.158 332.267 538.158C332.267 538.158 332.268 538.158 331.866 539.761C331.465 541.364 331.465 541.364 331.466 541.364C331.466 541.364 331.466 541.364 331.467 541.364C331.467 541.365 331.468 541.365 331.469 541.365C331.471 541.366 331.473 541.366 331.476 541.367C331.481 541.368 331.488 541.37 331.496 541.372C331.512 541.376 331.535 541.381 331.564 541.388C331.622 541.402 331.706 541.421 331.814 541.444C332.032 541.491 332.352 541.557 332.777 541.636C333.627 541.794 334.9 542.004 336.624 542.22C340.071 542.652 345.32 543.108 352.597 543.223L352.623 541.571ZM331.866 539.761V538.109H309.527V539.761V541.414H331.866V539.761ZM309.527 539.761C308.764 538.295 308.764 538.296 308.763 538.296C308.763 538.296 308.763 538.296 308.762 538.297C308.761 538.297 308.761 538.297 308.76 538.298C308.758 538.299 308.756 538.3 308.753 538.301C308.748 538.304 308.742 538.307 308.735 538.311C308.721 538.318 308.702 538.328 308.68 538.341C308.635 538.366 308.573 538.4 308.497 538.445C308.345 538.533 308.135 538.66 307.886 538.825C307.391 539.153 306.726 539.64 306.049 540.276C304.732 541.515 303.169 543.516 303.059 546.176L304.71 546.245L306.361 546.313C306.419 544.91 307.264 543.67 308.314 542.683C308.821 542.206 309.329 541.833 309.711 541.581C309.9 541.455 310.055 541.361 310.158 541.301C310.209 541.272 310.248 541.25 310.27 541.238C310.282 541.231 310.289 541.227 310.293 541.226C310.295 541.225 310.295 541.224 310.295 541.224C310.295 541.225 310.294 541.225 310.293 541.225C310.293 541.225 310.293 541.226 310.292 541.226C310.292 541.226 310.291 541.226 310.291 541.226C310.291 541.227 310.29 541.227 309.527 539.761ZM304.71 546.245C303.921 547.696 303.92 547.696 303.92 547.696C303.92 547.696 303.92 547.696 303.92 547.696C303.919 547.696 303.919 547.695 303.919 547.695C303.918 547.695 303.918 547.695 303.918 547.695C303.918 547.695 303.919 547.695 303.92 547.696C303.924 547.698 303.93 547.702 303.941 547.708C303.961 547.719 303.995 547.739 304.042 547.766C304.135 547.82 304.278 547.907 304.465 548.025C304.838 548.262 305.382 548.627 306.041 549.125C307.36 550.122 309.126 551.646 310.89 553.734L312.152 552.668L313.414 551.602C311.463 549.292 309.508 547.604 308.035 546.489C307.297 545.931 306.677 545.515 306.236 545.235C306.015 545.094 305.838 544.988 305.713 544.915C305.65 544.878 305.6 544.849 305.564 544.829C305.546 544.819 305.532 544.811 305.521 544.805C305.515 544.802 305.511 544.799 305.507 544.797C305.505 544.796 305.504 544.795 305.502 544.795C305.501 544.794 305.501 544.794 305.5 544.794C305.5 544.793 305.5 544.793 305.499 544.793C305.499 544.793 305.499 544.793 304.71 546.245ZM312.152 552.668L310.89 553.734C312.779 555.971 314.736 558.024 316.595 559.532C318.371 560.972 320.373 562.182 322.303 562.182V560.53V558.878C321.608 558.878 320.392 558.356 318.677 556.965C317.046 555.642 315.24 553.763 313.414 551.602L312.152 552.668ZM322.303 560.53V562.182C323.022 562.182 323.844 562.13 324.644 562.079C325.466 562.026 326.287 561.973 327.084 561.957C327.883 561.942 328.604 561.966 329.215 562.054C329.841 562.145 330.241 562.287 330.473 562.433L331.351 561.033L332.229 559.633C331.448 559.144 330.539 558.906 329.688 558.783C328.823 558.658 327.901 558.636 327.019 558.653C326.135 558.67 325.238 558.729 324.433 558.781C323.607 558.834 322.896 558.878 322.303 558.878V560.53ZM331.351 561.033L330.473 562.433C331.458 563.051 333.844 564.602 336.439 566.093C338.974 567.549 341.956 569.096 344.122 569.584L344.486 567.972L344.849 566.36C343.24 565.997 340.667 564.71 338.085 563.227C335.563 561.779 333.269 560.286 332.229 559.633L331.351 561.033ZM344.486 567.972L344.122 569.584C346.199 570.052 347.4 570.204 348.585 570.909C349.674 571.556 350.866 572.78 352.272 575.71L353.761 574.995L355.251 574.28C353.696 571.038 352.138 569.176 350.273 568.068C348.504 567.016 346.547 566.743 344.849 566.36L344.486 567.972ZM353.761 574.995L352.272 575.71C353.887 579.077 357.371 583.036 360.821 586.412C364.304 589.821 367.953 592.828 370.086 594.287L371.019 592.923L371.952 591.56C370.022 590.239 366.522 587.367 363.132 584.05C359.709 580.7 356.596 577.085 355.251 574.28L353.761 574.995ZM371.019 592.923C369.367 592.901 369.367 592.901 369.367 592.902C369.367 592.902 369.367 592.902 369.367 592.902C369.367 592.903 369.367 592.904 369.367 592.905C369.367 592.906 369.367 592.909 369.366 592.912C369.366 592.919 369.366 592.929 369.366 592.942C369.366 592.967 369.366 593.004 369.365 593.051C369.364 593.146 369.364 593.285 369.363 593.463C369.363 593.817 369.365 594.325 369.373 594.945C369.391 596.183 369.436 597.874 369.549 599.679C369.662 601.48 369.843 603.423 370.138 605.157C370.422 606.828 370.845 608.53 371.549 609.686L372.96 608.827L374.372 607.967C374.021 607.392 373.674 606.24 373.396 604.604C373.129 603.031 372.957 601.216 372.848 599.473C372.739 597.736 372.695 596.101 372.678 594.898C372.669 594.297 372.668 593.807 372.668 593.467C372.668 593.297 372.669 593.165 372.67 593.077C372.67 593.033 372.671 592.999 372.671 592.977C372.671 592.966 372.671 592.958 372.671 592.953C372.671 592.95 372.671 592.948 372.671 592.947C372.671 592.946 372.671 592.946 372.671 592.946C372.671 592.946 372.671 592.946 372.671 592.946C372.671 592.946 372.671 592.946 371.019 592.923ZM372.96 608.827L371.549 609.686C371.576 609.73 371.567 609.731 371.562 609.695C371.559 609.679 371.559 609.662 371.56 609.648C371.561 609.634 371.564 609.627 371.563 609.629C371.556 609.651 371.493 609.811 371.198 610.087C370.6 610.649 369.536 611.252 368.227 611.822C366.956 612.375 365.606 612.832 364.56 613.154C364.04 613.314 363.602 613.439 363.296 613.523C363.144 613.565 363.024 613.596 362.944 613.617C362.904 613.628 362.874 613.636 362.854 613.641C362.844 613.643 362.837 613.645 362.833 613.646C362.831 613.647 362.829 613.647 362.828 613.647C362.828 613.647 362.828 613.647 362.828 613.647C362.828 613.647 362.828 613.647 362.828 613.647C362.828 613.647 362.828 613.647 363.229 615.25C363.63 616.853 363.63 616.853 363.63 616.853C363.631 616.853 363.631 616.853 363.631 616.853C363.632 616.853 363.633 616.853 363.634 616.852C363.636 616.852 363.639 616.851 363.642 616.85C363.649 616.848 363.659 616.846 363.672 616.843C363.697 616.836 363.733 616.827 363.779 616.815C363.871 616.791 364.004 616.756 364.171 616.71C364.504 616.618 364.975 616.484 365.532 616.313C366.641 615.972 368.119 615.473 369.545 614.852C370.932 614.249 372.432 613.463 373.461 612.496C373.98 612.008 374.495 611.368 374.732 610.565C374.991 609.69 374.869 608.784 374.372 607.967L372.96 608.827ZM363.229 615.25C362.621 613.714 362.621 613.714 362.621 613.714C362.621 613.714 362.621 613.714 362.62 613.714C362.62 613.714 362.62 613.714 362.619 613.715C362.617 613.715 362.615 613.716 362.612 613.717C362.606 613.72 362.597 613.723 362.586 613.728C362.562 613.737 362.528 613.751 362.483 613.768C362.393 613.804 362.262 613.856 362.094 613.923C361.759 614.056 361.279 614.247 360.702 614.478C359.548 614.94 358 615.563 356.43 616.204C354.863 616.845 353.264 617.509 352.011 618.052C351.386 618.322 350.834 618.568 350.41 618.77C350.199 618.87 350.005 618.966 349.844 619.053C349.732 619.112 349.484 619.246 349.28 619.425L350.37 620.667L351.46 621.909C351.341 622.013 351.268 622.039 351.41 621.963C351.502 621.913 351.639 621.844 351.827 621.755C352.2 621.578 352.711 621.35 353.324 621.084C354.546 620.555 356.119 619.902 357.681 619.264C359.241 618.626 360.78 618.007 361.93 617.547C362.505 617.317 362.982 617.126 363.315 616.994C363.482 616.928 363.612 616.876 363.701 616.841C363.746 616.823 363.78 616.809 363.803 616.8C363.814 616.796 363.823 616.792 363.828 616.79C363.831 616.789 363.833 616.788 363.835 616.788C363.836 616.787 363.836 616.787 363.837 616.787C363.837 616.787 363.837 616.787 363.837 616.787C363.837 616.787 363.837 616.787 363.229 615.25ZM350.37 620.667L349.28 619.425C349.133 619.554 348.659 619.866 348.042 619.922C347.516 619.969 346.682 619.854 345.634 618.82L344.474 619.996L343.313 621.172C344.998 622.835 346.771 623.355 348.339 623.213C349.815 623.08 350.923 622.38 351.46 621.909L350.37 620.667ZM344.474 619.996L345.634 618.82C342.994 616.215 339.069 611.706 337.144 605.071L335.557 605.531L333.97 605.991C336.12 613.401 340.488 618.384 343.313 621.172L344.474 619.996ZM335.557 605.531L337.144 605.071C336.114 601.519 333.881 594.778 331.919 588.959C330.935 586.042 330.015 583.345 329.341 581.378C329.004 580.394 328.729 579.592 328.537 579.037C328.442 578.759 328.367 578.542 328.316 578.395C328.291 578.322 328.272 578.266 328.259 578.228C328.252 578.209 328.247 578.195 328.244 578.185C328.242 578.18 328.241 578.176 328.24 578.174C328.24 578.173 328.239 578.172 328.239 578.171C328.239 578.171 328.239 578.171 328.239 578.171C328.239 578.17 328.239 578.17 326.677 578.71C325.115 579.25 325.115 579.25 325.115 579.25C325.115 579.25 325.115 579.25 325.115 579.251C325.116 579.251 325.116 579.252 325.116 579.253C325.117 579.256 325.118 579.259 325.12 579.264C325.123 579.274 325.128 579.288 325.135 579.306C325.148 579.344 325.167 579.4 325.192 579.473C325.243 579.619 325.317 579.835 325.413 580.112C325.603 580.667 325.878 581.467 326.215 582.449C326.888 584.413 327.806 587.105 328.787 590.015C330.756 595.851 332.963 602.521 333.97 605.991L335.557 605.531ZM326.677 578.71C328.277 578.296 328.277 578.296 328.277 578.296C328.276 578.296 328.276 578.295 328.276 578.295C328.276 578.294 328.276 578.293 328.276 578.292C328.275 578.29 328.274 578.288 328.274 578.284C328.272 578.277 328.269 578.267 328.266 578.255C328.259 578.229 328.249 578.193 328.237 578.145C328.211 578.051 328.174 577.913 328.125 577.737C328.027 577.385 327.883 576.879 327.695 576.256C327.318 575.01 326.766 573.29 326.058 571.389C324.664 567.647 322.591 562.985 319.969 559.952L318.719 561.033L317.47 562.114C319.677 564.667 321.583 568.843 322.961 572.543C323.639 574.363 324.17 576.015 324.531 577.211C324.711 577.809 324.849 578.291 324.941 578.622C324.987 578.788 325.022 578.915 325.044 579C325.056 579.043 325.064 579.075 325.07 579.096C325.073 579.106 325.075 579.114 325.076 579.118C325.076 579.121 325.077 579.122 325.077 579.123C325.077 579.124 325.077 579.124 325.077 579.124C325.077 579.124 325.077 579.124 325.077 579.124C325.077 579.124 325.077 579.124 326.677 578.71ZM318.719 561.033L319.969 559.952C317.607 557.221 314.785 553.734 311.945 550.775C309.143 547.857 306.041 545.137 302.991 544.146L302.481 545.717L301.97 547.289C304.157 547.999 306.759 550.145 309.561 553.063C312.323 555.941 315.002 559.261 317.47 562.114L318.719 561.033ZM302.481 545.717L302.991 544.146C299.917 543.147 297.106 543.654 295.121 544.369C294.125 544.728 293.315 545.146 292.749 545.478C292.465 545.644 292.24 545.79 292.081 545.898C292.001 545.952 291.938 545.997 291.892 546.031C291.869 546.047 291.85 546.061 291.835 546.072C291.828 546.077 291.822 546.082 291.817 546.086C291.815 546.088 291.812 546.089 291.81 546.091C291.809 546.092 291.809 546.092 291.808 546.093C291.807 546.093 291.807 546.094 291.806 546.094C291.806 546.094 291.805 546.095 292.809 547.407C293.813 548.72 293.813 548.72 293.812 548.72C293.812 548.72 293.812 548.721 293.811 548.721C293.811 548.721 293.81 548.722 293.81 548.722C293.809 548.723 293.808 548.723 293.808 548.724C293.807 548.724 293.808 548.724 293.809 548.723C293.812 548.721 293.818 548.716 293.829 548.708C293.85 548.693 293.887 548.666 293.939 548.631C294.043 548.56 294.205 548.455 294.419 548.33C294.848 548.078 295.474 547.755 296.241 547.479C297.783 546.923 299.807 546.586 301.97 547.289L302.481 545.717ZM292.809 547.407L291.756 546.134C289.139 548.298 287.027 550.418 286.395 553.505C285.777 556.526 286.652 560.098 288.817 564.997L290.329 564.329L291.84 563.661C289.715 558.853 289.236 556.109 289.633 554.168C290.017 552.294 291.29 550.807 293.862 548.681L292.809 547.407ZM290.329 564.329L288.817 564.998L293.108 574.693L294.619 574.024L296.13 573.356L291.84 563.66L290.329 564.329ZM294.619 574.024C292.967 573.996 292.967 573.996 292.967 573.996C292.967 573.996 292.967 573.997 292.967 573.997C292.967 573.997 292.967 573.998 292.967 573.999C292.967 574.001 292.967 574.003 292.967 574.007C292.966 574.014 292.966 574.024 292.966 574.037C292.966 574.063 292.965 574.101 292.964 574.152C292.963 574.252 292.961 574.399 292.959 574.588C292.955 574.966 292.95 575.51 292.949 576.177C292.945 577.512 292.952 579.346 292.994 581.337C293.077 585.253 293.3 589.993 293.906 592.666L295.518 592.3L297.129 591.934C296.609 589.646 296.382 585.248 296.298 581.267C296.256 579.309 296.25 577.504 296.253 576.187C296.255 575.529 296.26 574.994 296.264 574.624C296.266 574.439 296.267 574.295 296.269 574.198C296.27 574.15 296.27 574.113 296.27 574.088C296.271 574.076 296.271 574.067 296.271 574.061C296.271 574.058 296.271 574.056 296.271 574.054C296.271 574.054 296.271 574.053 296.271 574.053C296.271 574.053 296.271 574.053 296.271 574.052C296.271 574.052 296.271 574.052 294.619 574.024ZM295.518 592.3L293.906 592.666C294.22 594.048 294.991 596.118 295.91 598.513C296.85 600.963 297.988 603.861 299.122 607.038C301.396 613.409 303.586 620.732 304.02 627.378L305.668 627.271L307.317 627.163C306.852 620.039 304.53 612.358 302.235 605.927C301.084 602.702 299.924 599.75 298.995 597.329C298.046 594.854 297.379 593.034 297.129 591.934L295.518 592.3ZM305.668 627.271L304.02 627.378C304.481 634.441 306.155 641.123 307.702 646.019C308.477 648.472 309.224 650.489 309.779 651.897C310.056 652.601 310.286 653.154 310.448 653.533C310.528 653.722 310.592 653.868 310.636 653.969C310.659 654.019 310.676 654.057 310.688 654.084C310.694 654.097 310.699 654.108 310.702 654.115C310.704 654.119 310.705 654.122 310.706 654.124C310.706 654.125 310.707 654.126 310.707 654.127C310.707 654.127 310.708 654.128 310.708 654.128C310.708 654.128 310.708 654.129 312.212 653.444C313.716 652.76 313.716 652.76 313.716 652.76C313.716 652.76 313.716 652.76 313.716 652.76C313.716 652.76 313.716 652.76 313.716 652.76C313.715 652.759 313.715 652.757 313.714 652.755C313.712 652.75 313.708 652.743 313.704 652.732C313.694 652.711 313.68 652.679 313.66 652.635C313.621 652.546 313.563 652.413 313.488 652.236C313.337 651.883 313.119 651.359 312.853 650.685C312.322 649.337 311.601 647.392 310.853 645.023C309.353 640.275 307.755 633.869 307.317 627.163L305.668 627.271ZM312.212 653.444C310.609 653.844 310.609 653.844 310.608 653.844C310.608 653.844 310.608 653.844 310.608 653.844C310.608 653.844 310.609 653.844 310.609 653.844C310.609 653.845 310.609 653.846 310.609 653.847C310.61 653.85 310.611 653.855 310.613 653.862C310.616 653.876 310.622 653.897 310.629 653.926C310.642 653.983 310.663 654.07 310.69 654.184C310.743 654.413 310.82 654.75 310.913 655.179C311.099 656.038 311.347 657.263 311.596 658.716C312.095 661.634 312.585 665.423 312.585 669.012H314.237H315.89C315.89 665.158 315.367 661.164 314.853 658.159C314.595 656.65 314.337 655.378 314.143 654.481C314.046 654.032 313.965 653.676 313.908 653.431C313.879 653.309 313.856 653.214 313.841 653.149C313.833 653.116 313.827 653.091 313.822 653.074C313.82 653.065 313.819 653.058 313.817 653.053C313.817 653.051 313.816 653.049 313.816 653.047C313.816 653.047 313.816 653.046 313.815 653.046C313.815 653.045 313.815 653.045 313.815 653.045C313.815 653.045 313.815 653.045 312.212 653.444ZM314.237 669.012H312.585C312.585 676.866 315.448 691.031 329.955 706.468L331.159 705.336L332.363 704.205C318.444 689.393 315.89 676.042 315.89 669.012H314.237ZM331.159 705.336C329.991 706.505 329.99 706.504 329.99 706.504C329.989 706.503 329.989 706.503 329.989 706.503C329.988 706.502 329.987 706.501 329.987 706.501C329.986 706.5 329.985 706.499 329.985 706.499C329.984 706.498 329.985 706.499 329.987 706.501C329.99 706.504 329.998 706.513 330.011 706.526C330.035 706.552 330.078 706.599 330.137 706.665C330.253 706.798 330.434 707.013 330.665 707.314C331.126 707.916 331.787 708.865 332.537 710.203C334.035 712.879 335.894 717.122 337.213 723.276L338.829 722.929L340.445 722.583C339.056 716.105 337.08 711.552 335.42 708.589C334.591 707.108 333.842 706.027 333.288 705.304C333.012 704.943 332.784 704.671 332.619 704.483C332.536 704.389 332.469 704.317 332.42 704.264C332.396 704.238 332.376 704.217 332.36 704.201C332.352 704.193 332.346 704.186 332.34 704.181C332.337 704.178 332.335 704.175 332.333 704.173C332.332 704.172 332.331 704.171 332.33 704.17C332.33 704.17 332.329 704.169 332.329 704.169C332.328 704.168 332.327 704.168 331.159 705.336ZM338.829 722.929L337.213 723.276C337.899 726.472 338.6 729.119 339.252 731.685C339.905 734.257 340.514 736.768 341.039 739.766C342.089 745.757 342.821 753.776 342.821 768.05H344.474H346.126C346.126 753.67 345.39 745.444 344.295 739.196C343.747 736.074 343.114 733.468 342.455 730.872C341.795 728.271 341.114 725.702 340.445 722.583L338.829 722.929ZM344.474 768.05H342.821C342.821 782.348 342.259 803.191 341.696 820.477C341.414 829.116 341.133 836.861 340.921 842.446C340.816 845.238 340.728 847.49 340.666 849.044C340.635 849.821 340.611 850.423 340.595 850.832C340.587 851.036 340.58 851.191 340.576 851.295C340.574 851.348 340.572 851.387 340.571 851.413C340.571 851.427 340.57 851.437 340.57 851.443C340.57 851.446 340.57 851.449 340.57 851.451C340.57 851.451 340.57 851.452 340.57 851.452C340.57 851.453 340.57 851.453 342.221 851.521C343.872 851.589 343.872 851.588 343.872 851.588C343.872 851.588 343.872 851.587 343.872 851.586C343.872 851.584 343.872 851.582 343.872 851.579C343.872 851.572 343.873 851.562 343.873 851.549C343.874 851.522 343.876 851.482 343.878 851.43C343.882 851.325 343.889 851.169 343.897 850.965C343.913 850.556 343.938 849.953 343.968 849.175C344.03 847.619 344.118 845.365 344.224 842.571C344.435 836.982 344.717 829.231 344.999 820.585C345.562 803.299 346.126 782.407 346.126 768.05H344.474ZM342.221 851.521L340.57 851.45L339.671 872.363L341.322 872.433L342.973 872.504L343.871 851.592L342.221 851.521Z" fill="#595CFF"/>
<path d="M426.39 627.691C426.126 628.297 426.403 629.004 427.01 629.268C427.617 629.532 428.323 629.254 428.588 628.648L427.489 628.169L426.39 627.691ZM388.288 560.314C387.462 561.182 387.462 561.182 387.462 561.182C387.462 561.182 387.462 561.182 387.462 561.182C387.462 561.182 387.462 561.183 387.463 561.183C387.464 561.184 387.466 561.186 387.468 561.188C387.472 561.192 387.479 561.198 387.488 561.207C387.505 561.224 387.532 561.249 387.567 561.283C387.638 561.351 387.742 561.451 387.878 561.582C388.148 561.844 388.542 562.227 389.032 562.711C390.012 563.678 391.378 565.045 392.917 566.643C396.002 569.848 399.754 573.952 402.501 577.619L403.46 576.9L404.419 576.182C401.582 572.394 397.747 568.205 394.643 564.981C393.087 563.364 391.707 561.982 390.715 561.004C390.219 560.515 389.82 560.126 389.544 559.86C389.407 559.726 389.3 559.624 389.227 559.554C389.191 559.519 389.163 559.492 389.144 559.474C389.135 559.465 389.127 559.458 389.122 559.454C389.12 559.451 389.118 559.449 389.117 559.448C389.116 559.448 389.116 559.447 389.115 559.447C389.115 559.447 389.115 559.446 389.115 559.446C389.115 559.446 389.115 559.446 388.288 560.314ZM403.46 576.9L402.501 577.619C405.348 581.419 408.911 585.149 411.984 588.071C415.033 590.971 417.684 593.153 418.718 593.813L419.363 592.803L420.008 591.793C419.185 591.267 416.677 589.225 413.635 586.334C410.617 583.464 407.157 579.836 404.419 576.182L403.46 576.9ZM419.363 592.803L418.718 593.813C419.602 594.378 423.998 597.161 426.937 602.615C429.842 608.005 431.41 616.163 426.39 627.691L427.489 628.169L428.588 628.648C433.886 616.482 432.32 607.55 429.047 601.478C425.809 595.469 420.982 592.415 420.008 591.793L419.363 592.803Z" fill="#595CFF"/>
<path d="M408.35 513.527C408.35 513.527 413.095 525.284 414.953 534.428C416.81 543.572 422.563 560.314 422.563 560.314C422.563 560.314 431.359 588.058 433.217 591.449C435.074 594.841 436.513 599.215 436.513 599.215" stroke="#595CFF" stroke-width="2.39686" stroke-miterlimit="10"/>
<path d="M434.535 547.227C434.535 547.227 435.662 556.922 434.535 572.49C433.409 588.058 433.912 592.707 433.912 592.707" stroke="#595CFF" stroke-width="2.39686" stroke-miterlimit="10"/>
<path d="M291.647 556.107C293.648 553.734 296.153 551.553 299.185 550.678C299.496 550.595 299.676 551.062 299.388 551.206C296.728 552.656 294.403 554.621 291.922 556.383C291.742 556.527 291.503 556.275 291.647 556.095V556.107Z" fill="#595CFF"/>
<path d="M302.337 550.391C305.153 553.579 309.144 558.313 307.382 562.843C305.776 566.127 302.72 568.308 299.341 569.398C298.214 569.71 296.98 569.902 295.769 569.578C295.578 569.53 295.458 569.326 295.506 569.123C295.554 568.943 295.733 568.823 295.925 568.859C296.956 569.027 298.046 568.835 299.065 568.475C302.037 567.397 305.009 565.24 306.375 562.387C307.346 560.53 306.531 558.289 305.644 556.299C304.698 554.286 303.451 552.393 302.097 550.583C301.977 550.439 302.205 550.235 302.337 550.379V550.391Z" fill="#595CFF"/>
<path d="M312.02 541.87C315.364 543.237 319.163 543.237 322.531 541.894C322.698 541.834 322.818 542.086 322.65 542.17C319.427 544.147 315.076 544.159 311.829 542.206C311.625 542.086 311.805 541.762 312.02 541.87Z" fill="#595CFF"/>
<path d="M386.73 457.273C384.776 457.596 381.696 458.208 381.564 460.605C381.768 463.457 382.439 466.369 383.614 468.97C384.081 469.868 384.584 470.791 385.435 471.055C387.341 471.834 389.438 472.373 391.511 472.301C391.619 472.301 391.715 472.385 391.715 472.493C391.715 472.589 391.655 472.661 391.571 472.697C389.378 473.26 387.113 472.757 385.052 472.002C382.068 470.995 380.258 462.498 380.869 459.706C381.253 458.519 382.379 457.836 383.458 457.441C384.513 457.045 385.591 456.853 386.694 456.77C386.838 456.77 386.957 456.865 386.969 457.009C386.969 457.153 386.873 457.273 386.73 457.285V457.273Z" fill="#595CFF"/>
<path d="M417.135 483.147C416.188 488.264 416.787 490.493 422.144 491.692C423.474 492.099 425.02 492.459 425.871 493.693C426.015 493.909 425.691 494.16 425.524 493.945C423.031 491.704 418.093 492.89 416.428 489.331C415.565 487.293 415.984 484.992 416.667 483.003C416.763 482.727 417.206 482.859 417.123 483.147H417.135Z" fill="#595CFF"/>
<path d="M417.434 481.361C419.435 480.103 421.832 479 424.265 479.803C424.78 479.983 424.492 480.798 423.977 480.594C421.952 479.684 419.459 480.558 417.565 481.565C417.434 481.637 417.302 481.433 417.434 481.349V481.361Z" fill="#595CFF"/>
<path d="M451.133 537.196C449.959 536.705 448.545 536.453 447.298 536.837C447.178 536.873 447.059 536.801 447.023 536.693C446.987 536.585 447.035 536.477 447.131 536.429C448.125 535.914 449.288 535.806 450.402 535.89C450.954 535.974 452.14 535.926 451.972 536.801C451.888 537.16 451.469 537.364 451.133 537.208V537.196Z" fill="#595CFF"/>
<path d="M446.424 538.143C445.885 540.049 445.19 542.146 445.262 544.099C445.31 544.579 445.394 544.89 445.633 545.202C446.508 546.28 448.018 546.736 449.348 547.155C449.624 547.215 449.792 547.491 449.708 547.766C449.636 547.994 449.432 548.126 449.205 548.114C447.011 547.958 443.919 546.796 443.979 544.159C444.039 541.87 444.902 539.881 445.981 537.951C446.125 537.7 446.532 537.879 446.436 538.155L446.424 538.143Z" fill="#595CFF"/>
</svg>
