<svg width="740" height="956" viewBox="0 0 740 956" fill="none" xmlns="http://www.w3.org/2000/svg">
<path d="M374.446 387.908C374.446 387.908 370.611 367.715 369.593 363.772C368.574 359.829 362.941 340.654 362.941 340.654C362.941 340.654 359.442 338.401 356.063 340.654C352.683 342.907 353.582 345.508 353.582 345.508L361.923 378.333L374.446 387.92V387.908Z" stroke="#595CFF" stroke-width="3.3048" stroke-miterlimit="10"/>
<path d="M349.028 334.961C349.028 334.961 339.704 333.427 337.894 341.205C336.085 348.983 338.122 354.544 339.704 359.589C341.286 364.634 345.684 379.435 345.684 379.435C345.684 379.435 353.282 411.289 354.948 416.514L363.948 487.378L372.517 486.251L380.187 476.664L381.649 449.819L369.353 394.667C369.353 394.667 364.056 367.151 363.145 364.323C362.234 361.494 352.767 340.294 352.767 340.294C352.767 340.294 349.615 335.417 349.028 334.961Z" stroke="#595CFF" stroke-width="3.3048" stroke-miterlimit="10"/>
<path d="M391.021 835.174C391.021 835.174 392.83 753.909 387.414 700.219C381.997 646.529 389.367 591.941 389.367 591.941C389.367 591.941 394.185 555.173 397.564 540.96C400.944 526.746 410.879 490.434 410.879 490.434C410.879 490.434 417.195 476.448 417.422 473.74C417.65 471.031 418.321 462.235 411.334 452.983C404.347 443.731 398.02 425.467 398.02 425.467L390.35 411.254C390.35 411.254 381.781 392.306 376.364 386.662C370.947 381.017 357.189 360.488 357.189 360.488C357.189 360.488 353.21 351.775 350.933 350.17C348.656 348.564 349.16 349.235 349.16 349.235C349.16 349.235 344.761 349.654 343.827 350.841C342.892 352.027 338.577 355.575 341.286 364.635C343.994 373.695 346.367 376.811 346.367 377.158C346.367 377.506 352.12 388.16 353.893 389.167C353.893 389.167 355.248 398.898 361.587 407.946C367.927 416.994 367.759 418.78 367.759 418.78C367.759 418.78 364.967 427.576 375.285 445.685L378.497 451.413C378.497 451.413 375.118 461 375.118 465.399C375.118 469.797 374.662 474.758 375.01 476.796C375.357 478.833 367.759 482.884 367.759 482.884C367.759 482.884 364.404 470.252 364.068 463.373C363.733 456.494 363.277 438.782 362.486 433.82C361.695 428.859 360.904 423.561 358.543 419.271C358.543 419.271 354.373 413.063 342.185 415.892C329.997 418.72 332.933 453.223 332.933 453.223C332.933 453.223 335.078 465.626 337.667 476.232C340.255 486.839 337.439 501.723 337.439 501.723C337.439 501.723 332.31 515.937 332.621 523.942C332.933 531.948 331.806 552.477 333.604 557.33C335.402 562.184 337.547 566.69 337.547 566.69C337.547 566.69 338.002 600.869 329.985 623.879C321.967 646.889 312.619 687.384 312.619 687.384L291.863 762.957C291.863 762.957 283.522 810.655 285.092 835.198" stroke="#595CFF" stroke-width="3.3048" stroke-miterlimit="10"/>
<path d="M357.633 424.556C357.693 427.252 358.591 434.719 355.691 435.917C352.755 436.996 349.507 436.792 346.451 436.373C344.702 436.073 342.94 435.63 341.346 434.611C337.271 431.986 337.966 422.926 340.819 419.583C339.273 423.274 339.033 428.067 340.579 431.962C341.646 434.167 344.318 434.91 346.619 435.45C349.112 435.929 351.724 436.085 354.241 435.677C355.056 435.498 355.895 435.306 356.302 434.683C357.776 431.639 357.477 427.912 357.513 424.58H357.633V424.556Z" fill="#595CFF"/>
<path d="M356.817 422.099C353.366 417.521 347.086 417.293 342.077 419.115L342.017 419.007C345.552 416.718 350.646 416.227 354.085 418.935C355.26 419.75 356.122 420.889 356.913 422.027L356.817 422.099Z" fill="#595CFF"/>
</svg>
