<svg width="310" height="407" viewBox="0 0 310 407" fill="none" xmlns="http://www.w3.org/2000/svg">
<g clip-path="url(#clip0_380_14205)">
<g filter="url(#filter0_d_380_14205)">
<mask id="path-1-outside-1_380_14205" maskUnits="userSpaceOnUse" x="8.41357" y="10.7847" width="304" height="403" fill="black">
<rect fill="white" x="8.41357" y="10.7847" width="304" height="403"/>
<path d="M309.016 411.218L236.379 297.81C236.379 297.81 226.683 279.534 224.874 273.674C224.874 273.674 218.786 258.67 215.394 253.828C215.394 253.828 213.021 247.968 213.141 236.57C213.141 236.57 217.431 226.755 217.995 217.396C218.558 208.036 218.666 186.824 218.666 186.824C218.666 186.824 224.646 157.162 225.437 154.562C226.228 151.961 235.923 126.135 240.669 117.339C245.415 108.542 252.629 96.9173 253.193 88.4684C253.756 80.0195 250.376 76.7358 246.649 75.5014C242.922 74.267 234.917 79.3364 231.082 88.4684C227.247 97.6004 226.683 99.0745 226.683 99.0745C226.683 99.0745 214.843 120.958 208.299 129.527L201.756 138.095C201.756 138.095 200.629 139.222 197.585 138.994C194.541 138.767 193.079 133.014 193.079 133.014C193.079 133.014 190.599 121.401 190.263 114.858C189.927 108.314 188.453 72.2177 188.453 72.2177V37.1396C188.453 37.1396 189.244 25.7426 178.866 24.3883C168.488 23.0341 165.899 32.286 165.336 42.8921C164.772 53.4982 163.31 94.3287 163.31 94.3287L161.848 118.357C161.848 118.357 159.032 113.06 158.469 109.561C157.905 106.061 155.533 88.5763 155.533 88.5763C155.533 88.5763 152.369 69.4014 151.026 64.2122C149.684 59.023 148.09 42.7842 147.982 38.386C147.875 33.9878 147.191 23.6093 147.191 23.6093C147.191 23.6093 146.736 15.1484 137.832 13.914C128.927 12.6797 123.163 20.4575 123.163 29.5895C123.163 38.7216 125.416 76.6279 125.416 76.6279C125.416 76.6279 128.352 107.2 128.352 108.662C128.352 110.124 129.479 121.293 128.124 123.546C126.77 125.8 124.745 122.648 124.745 122.648L115.05 101.328L105.234 77.4548C105.234 77.4548 101.172 67.9393 99.8175 60.2693C98.4633 52.5994 97.0012 38.386 87.6414 36.1329C78.2817 33.8799 74.6744 43.0119 74.8901 48.5367C75.1058 54.0615 79.6239 79.6719 79.6239 79.6719L90.23 130.881C90.23 130.881 94.6283 148.594 92.0397 156.144C89.4511 163.694 84.4776 178.483 84.4776 178.483C84.4776 178.483 82.4522 184.571 79.3962 182.545C76.3402 180.52 73.8715 178.938 69.5811 174.084C65.2907 169.231 56.0508 157.953 56.0508 157.953C56.0508 157.953 46.763 147.743 37.2115 143.177C27.0608 138.323 18.5998 138.215 14.0937 141.367C14.0937 141.367 8.90454 145.538 12.9672 152.537C17.0299 159.535 23.9089 163.023 23.9089 163.023C23.9089 163.023 33.0409 170.92 46.4634 194.374C59.8858 217.827 78.4974 234.977 78.4974 234.977C78.4974 234.977 98.1277 253.816 106.241 257.759C114.354 261.702 118.873 269.827 118.873 269.827C118.873 269.827 130.377 284.376 139.294 315.283C148.21 346.191 163.55 390.629 163.55 390.629L168.631 412.74"/>
</mask>
<path d="M309.016 411.218L236.379 297.81C236.379 297.81 226.683 279.534 224.874 273.674C224.874 273.674 218.786 258.67 215.394 253.828C215.394 253.828 213.021 247.968 213.141 236.57C213.141 236.57 217.431 226.755 217.995 217.396C218.558 208.036 218.666 186.824 218.666 186.824C218.666 186.824 224.646 157.162 225.437 154.562C226.228 151.961 235.923 126.135 240.669 117.339C245.415 108.542 252.629 96.9173 253.193 88.4684C253.756 80.0195 250.376 76.7358 246.649 75.5014C242.922 74.267 234.917 79.3364 231.082 88.4684C227.247 97.6004 226.683 99.0745 226.683 99.0745C226.683 99.0745 214.843 120.958 208.299 129.527L201.756 138.095C201.756 138.095 200.629 139.222 197.585 138.994C194.541 138.767 193.079 133.014 193.079 133.014C193.079 133.014 190.599 121.401 190.263 114.858C189.927 108.314 188.453 72.2177 188.453 72.2177V37.1396C188.453 37.1396 189.244 25.7426 178.866 24.3883C168.488 23.0341 165.899 32.286 165.336 42.8921C164.772 53.4982 163.31 94.3287 163.31 94.3287L161.848 118.357C161.848 118.357 159.032 113.06 158.469 109.561C157.905 106.061 155.533 88.5763 155.533 88.5763C155.533 88.5763 152.369 69.4014 151.026 64.2122C149.684 59.023 148.09 42.7842 147.982 38.386C147.875 33.9878 147.191 23.6093 147.191 23.6093C147.191 23.6093 146.736 15.1484 137.832 13.914C128.927 12.6797 123.163 20.4575 123.163 29.5895C123.163 38.7216 125.416 76.6279 125.416 76.6279C125.416 76.6279 128.352 107.2 128.352 108.662C128.352 110.124 129.479 121.293 128.124 123.546C126.77 125.8 124.745 122.648 124.745 122.648L115.05 101.328L105.234 77.4548C105.234 77.4548 101.172 67.9393 99.8175 60.2693C98.4633 52.5994 97.0012 38.386 87.6414 36.1329C78.2817 33.8799 74.6744 43.0119 74.8901 48.5367C75.1058 54.0615 79.6239 79.6719 79.6239 79.6719L90.23 130.881C90.23 130.881 94.6283 148.594 92.0397 156.144C89.4511 163.694 84.4776 178.483 84.4776 178.483C84.4776 178.483 82.4522 184.571 79.3962 182.545C76.3402 180.52 73.8715 178.938 69.5811 174.084C65.2907 169.231 56.0508 157.953 56.0508 157.953C56.0508 157.953 46.763 147.743 37.2115 143.177C27.0608 138.323 18.5998 138.215 14.0937 141.367C14.0937 141.367 8.90454 145.538 12.9672 152.537C17.0299 159.535 23.9089 163.023 23.9089 163.023C23.9089 163.023 33.0409 170.92 46.4634 194.374C59.8858 217.827 78.4974 234.977 78.4974 234.977C78.4974 234.977 98.1277 253.816 106.241 257.759C114.354 261.702 118.873 269.827 118.873 269.827C118.873 269.827 130.377 284.376 139.294 315.283C148.21 346.191 163.55 390.629 163.55 390.629L168.631 412.74" fill="white"/>
<path d="M236.379 297.81L233.732 299.214L233.789 299.323L233.856 299.426L236.379 297.81ZM224.874 273.674L227.736 272.79L227.698 272.667L227.65 272.547L224.874 273.674ZM215.394 253.828L212.617 254.952L212.745 255.268L212.94 255.547L215.394 253.828ZM213.141 236.57L210.396 235.37L210.152 235.929L210.145 236.539L213.141 236.57ZM218.666 186.824L215.729 186.231L215.671 186.517L215.67 186.808L218.666 186.824ZM226.683 99.0745L229.318 100.5L229.412 100.327L229.482 100.144L226.683 99.0745ZM208.299 129.527L205.918 127.708V127.708L208.299 129.527ZM201.756 138.095L203.875 140.214L204.016 140.073L204.137 139.914L201.756 138.095ZM193.079 133.014L190.149 133.64L190.161 133.696L190.176 133.752L193.079 133.014ZM188.453 72.2177H185.457V72.2788L185.46 72.3399L188.453 72.2177ZM188.453 37.1396L185.465 36.9322L185.457 37.0358V37.1396H188.453ZM163.31 94.3287L166.301 94.5107L166.303 94.4734L166.304 94.436L163.31 94.3287ZM161.848 118.357L159.203 119.764L164.193 129.15L164.839 118.539L161.848 118.357ZM155.533 88.5763L158.501 88.1734L158.496 88.1308L158.489 88.0885L155.533 88.5763ZM147.191 23.6093L144.2 23.7704L144.201 23.7883L144.202 23.8061L147.191 23.6093ZM125.416 76.6279L122.425 76.8057L122.428 76.8601L122.434 76.9143L125.416 76.6279ZM124.745 122.648L122.018 123.888L122.107 124.085L122.224 124.267L124.745 122.648ZM115.05 101.328L112.279 102.467L112.299 102.518L112.322 102.568L115.05 101.328ZM105.234 77.4548L108.005 76.3155L107.998 76.2969L107.99 76.2784L105.234 77.4548ZM79.6239 79.6719L76.6734 80.1924L76.6811 80.2361L76.6901 80.2796L79.6239 79.6719ZM90.23 130.881L87.2962 131.489L87.3081 131.546L87.3223 131.603L90.23 130.881ZM84.4776 178.483L81.6378 177.527L81.6347 177.537L84.4776 178.483ZM56.0508 157.953L58.3683 156.055L58.3192 155.995L58.2671 155.937L56.0508 157.953ZM37.2115 143.177L35.919 145.88L35.9193 145.88L37.2115 143.177ZM14.0937 141.367L12.3765 138.912L12.2947 138.969L12.2169 139.032L14.0937 141.367ZM23.9089 163.023L25.8687 160.757L25.5911 160.516L25.2637 160.35L23.9089 163.023ZM78.4974 234.977L80.572 232.815L80.55 232.794L80.5276 232.773L78.4974 234.977ZM118.873 269.827L116.254 271.283L116.372 271.495L116.522 271.685L118.873 269.827ZM163.55 390.629L166.47 389.958L166.434 389.802L166.382 389.651L163.55 390.629ZM309.016 411.218L311.538 409.602L238.902 296.194L236.379 297.81L233.856 299.426L306.493 412.834L309.016 411.218ZM236.379 297.81C239.025 296.406 239.025 296.406 239.025 296.406C239.025 296.406 239.025 296.406 239.025 296.406C239.025 296.405 239.024 296.404 239.024 296.403C239.023 296.401 239.021 296.398 239.019 296.394C239.014 296.386 239.008 296.373 238.999 296.356C238.981 296.322 238.954 296.271 238.919 296.204C238.848 296.071 238.744 295.873 238.611 295.62C238.344 295.112 237.961 294.38 237.494 293.482C236.562 291.686 235.301 289.233 233.985 286.6C231.296 281.221 228.553 275.433 227.736 272.79L224.874 273.674L222.011 274.558C223.005 277.775 226.014 284.055 228.625 289.279C229.959 291.948 231.235 294.43 232.176 296.244C232.648 297.151 233.036 297.892 233.306 298.407C233.442 298.665 233.548 298.866 233.62 299.003C233.656 299.071 233.684 299.124 233.703 299.159C233.712 299.177 233.719 299.191 233.724 299.2C233.727 299.204 233.729 299.208 233.73 299.21C233.73 299.212 233.731 299.213 233.731 299.213C233.732 299.214 233.732 299.214 233.732 299.214C233.732 299.214 233.732 299.214 236.379 297.81ZM224.874 273.674C227.65 272.547 227.65 272.547 227.65 272.547C227.65 272.547 227.65 272.547 227.649 272.546C227.649 272.546 227.649 272.545 227.648 272.544C227.648 272.542 227.646 272.539 227.645 272.535C227.642 272.527 227.637 272.515 227.631 272.501C227.619 272.471 227.601 272.427 227.578 272.37C227.531 272.257 227.463 272.09 227.375 271.877C227.2 271.452 226.946 270.84 226.631 270.092C226.001 268.596 225.126 266.548 224.141 264.345C222.222 260.047 219.739 254.808 217.848 252.109L215.394 253.828L212.94 255.547C214.441 257.689 216.698 262.373 218.67 266.788C219.632 268.941 220.49 270.947 221.108 272.416C221.417 273.15 221.665 273.748 221.836 274.162C221.921 274.369 221.987 274.53 222.031 274.638C222.053 274.692 222.07 274.733 222.081 274.761C222.087 274.774 222.091 274.785 222.094 274.791C222.095 274.795 222.096 274.797 222.097 274.798C222.097 274.799 222.097 274.8 222.097 274.8C222.097 274.8 222.097 274.8 222.097 274.8C222.097 274.8 222.097 274.8 224.874 273.674ZM215.394 253.828C218.171 252.703 218.172 252.704 218.172 252.705C218.172 252.705 218.172 252.706 218.173 252.707C218.173 252.708 218.173 252.709 218.174 252.71C218.175 252.712 218.175 252.713 218.176 252.714C218.176 252.716 218.177 252.717 218.176 252.717C218.176 252.715 218.173 252.708 218.169 252.696C218.159 252.671 218.141 252.623 218.117 252.553C218.067 252.413 217.989 252.184 217.892 251.865C217.699 251.227 217.43 250.232 217.16 248.885C216.622 246.192 216.079 242.086 216.137 236.602L213.141 236.57L210.145 236.539C210.083 242.452 210.667 246.974 211.285 250.061C211.594 251.604 211.91 252.786 212.158 253.603C212.282 254.012 212.389 254.329 212.468 254.554C212.508 254.667 212.541 254.756 212.566 254.823C212.579 254.856 212.59 254.883 212.598 254.905C212.602 254.916 212.606 254.925 212.609 254.933C212.611 254.937 212.612 254.94 212.614 254.944C212.614 254.945 212.615 254.947 212.615 254.948C212.616 254.949 212.616 254.95 212.616 254.95C212.617 254.951 212.617 254.952 215.394 253.828ZM213.141 236.57C215.886 237.77 215.887 237.77 215.887 237.77C215.887 237.769 215.887 237.769 215.887 237.768C215.888 237.768 215.888 237.767 215.889 237.765C215.89 237.763 215.891 237.76 215.892 237.757C215.895 237.75 215.899 237.74 215.904 237.729C215.914 237.705 215.929 237.673 215.946 237.631C215.982 237.548 216.032 237.428 216.096 237.274C216.222 236.967 216.401 236.525 216.616 235.968C217.045 234.855 217.62 233.276 218.214 231.394C219.391 227.662 220.683 222.604 220.985 217.576L217.995 217.396L215.004 217.216C214.743 221.547 213.608 226.077 212.499 229.592C211.95 231.334 211.418 232.794 211.025 233.813C210.828 234.322 210.667 234.72 210.557 234.987C210.502 235.12 210.46 235.22 210.433 235.285C210.419 235.317 210.409 235.341 210.402 235.355C210.399 235.362 210.397 235.367 210.396 235.37C210.396 235.371 210.395 235.372 210.395 235.372C210.395 235.372 210.395 235.372 210.395 235.372C210.395 235.372 210.395 235.371 210.396 235.371C210.396 235.371 210.396 235.37 213.141 236.57ZM217.995 217.396L220.985 217.576C221.272 212.818 221.44 205.111 221.537 198.645C221.586 195.4 221.617 192.45 221.636 190.311C221.646 189.241 221.652 188.374 221.656 187.774C221.658 187.474 221.66 187.24 221.661 187.082C221.661 187.003 221.661 186.942 221.662 186.901C221.662 186.881 221.662 186.865 221.662 186.855C221.662 186.85 221.662 186.846 221.662 186.843C221.662 186.842 221.662 186.841 221.662 186.84C221.662 186.84 221.662 186.839 221.662 186.839C221.662 186.839 221.662 186.839 218.666 186.824C215.67 186.808 215.67 186.808 215.67 186.809C215.67 186.809 215.67 186.809 215.67 186.809C215.67 186.81 215.67 186.811 215.67 186.812C215.67 186.814 215.67 186.818 215.67 186.823C215.67 186.833 215.67 186.848 215.669 186.868C215.669 186.908 215.669 186.968 215.668 187.046C215.668 187.203 215.666 187.435 215.664 187.733C215.66 188.33 215.654 189.193 215.644 190.258C215.625 192.388 215.594 195.326 215.546 198.555C215.448 205.035 215.281 212.613 215.004 217.216L217.995 217.396ZM218.666 186.824C221.603 187.416 221.603 187.416 221.603 187.415C221.603 187.415 221.603 187.415 221.603 187.414C221.603 187.414 221.604 187.412 221.604 187.41C221.605 187.407 221.606 187.402 221.607 187.394C221.61 187.38 221.614 187.359 221.62 187.331C221.631 187.275 221.648 187.192 221.67 187.083C221.714 186.865 221.778 186.546 221.861 186.138C222.026 185.323 222.262 184.155 222.549 182.745C223.121 179.925 223.893 176.139 224.689 172.272C226.309 164.406 227.961 156.56 228.303 155.434L225.437 154.562L222.571 153.69C222.122 155.164 220.388 163.449 218.82 171.064C218.023 174.937 217.25 178.729 216.676 181.552C216.39 182.964 216.153 184.133 215.988 184.95C215.905 185.358 215.84 185.679 215.796 185.897C215.774 186.006 215.757 186.09 215.746 186.146C215.74 186.174 215.736 186.195 215.733 186.21C215.732 186.217 215.731 186.222 215.73 186.226C215.73 186.228 215.729 186.229 215.729 186.23C215.729 186.231 215.729 186.231 215.729 186.231C215.729 186.231 215.729 186.231 218.666 186.824ZM225.437 154.562L228.303 155.434C228.656 154.273 231.229 147.286 234.356 139.375C237.484 131.464 241.032 122.977 243.306 118.761L240.669 117.339L238.032 115.916C235.561 120.497 231.888 129.321 228.784 137.172C225.679 145.024 223.008 152.25 222.571 153.69L225.437 154.562ZM240.669 117.339L243.306 118.761C245.606 114.498 248.692 109.216 251.192 104.086C253.681 98.9814 255.859 93.5145 256.182 88.6677L253.193 88.4684L250.203 88.2691C249.963 91.8713 248.253 96.4413 245.806 101.46C243.372 106.454 240.478 111.382 238.032 115.916L240.669 117.339ZM253.193 88.4684L256.182 88.6677C256.49 84.0415 255.747 80.4361 254.087 77.7181C252.401 74.9573 249.976 73.4469 247.591 72.6572L246.649 75.5014L245.707 78.3455C247.05 78.7902 248.178 79.5389 248.973 80.8408C249.794 82.1854 250.458 84.4464 250.203 88.2691L253.193 88.4684ZM246.649 75.5014L247.591 72.6572C245.813 72.0682 243.901 72.326 242.237 72.8799C240.523 73.4508 238.762 74.4352 237.085 75.718C233.729 78.2863 230.441 82.2551 228.319 87.3084L231.082 88.4684L233.844 89.6285C235.557 85.5497 238.19 82.4178 240.726 80.477C241.997 79.5052 243.176 78.883 244.13 78.5652C245.136 78.2303 245.622 78.3174 245.707 78.3455L246.649 75.5014ZM231.082 88.4684L228.319 87.3084C226.4 91.8783 225.297 94.5377 224.673 96.0577C224.361 96.8178 224.167 97.2952 224.051 97.5856C223.992 97.7309 223.953 97.8304 223.927 97.8957C223.914 97.9285 223.905 97.9529 223.898 97.9705C223.895 97.9793 223.892 97.9865 223.89 97.9922C223.888 97.995 223.888 97.9975 223.887 97.9996C223.886 98.0007 223.886 98.0017 223.886 98.0026C223.885 98.003 223.885 98.0035 223.885 98.0039C223.885 98.0041 223.885 98.0044 223.885 98.0045C223.885 98.0048 223.885 98.0051 226.683 99.0745C229.482 100.144 229.482 100.144 229.482 100.145C229.482 100.145 229.482 100.145 229.482 100.145C229.482 100.145 229.481 100.146 229.481 100.146C229.481 100.146 229.481 100.147 229.481 100.147C229.481 100.148 229.48 100.148 229.481 100.148C229.481 100.147 229.482 100.145 229.483 100.141C229.486 100.133 229.493 100.116 229.503 100.091C229.523 100.04 229.557 99.953 229.612 99.8174C229.721 99.5461 229.908 99.0842 230.216 98.3343C230.832 96.8342 231.928 94.1905 233.844 89.6285L231.082 88.4684ZM226.683 99.0745C224.048 97.6487 224.048 97.6487 224.048 97.6488C224.048 97.649 224.048 97.6491 224.048 97.6494C224.048 97.6499 224.047 97.6508 224.046 97.652C224.045 97.6545 224.043 97.6582 224.04 97.6632C224.035 97.6733 224.027 97.6886 224.016 97.7089C223.994 97.7496 223.96 97.8106 223.917 97.8908C223.83 98.0511 223.7 98.2882 223.533 98.5935C223.199 99.2041 222.714 100.087 222.111 101.174C220.905 103.349 219.229 106.337 217.351 109.589C213.561 116.15 209.056 123.6 205.918 127.708L208.299 129.527L210.681 131.345C214.087 126.885 218.773 119.108 222.54 112.586C224.44 109.296 226.133 106.277 227.351 104.081C227.96 102.983 228.451 102.089 228.79 101.47C228.96 101.16 229.091 100.918 229.181 100.754C229.225 100.672 229.26 100.609 229.283 100.566C229.294 100.545 229.303 100.529 229.309 100.518C229.312 100.512 229.314 100.508 229.316 100.505C229.317 100.504 229.317 100.502 229.318 100.502C229.318 100.501 229.318 100.501 229.318 100.501C229.318 100.5 229.318 100.5 226.683 99.0745ZM208.299 129.527L205.918 127.708L199.375 136.277L201.756 138.095L204.137 139.914L210.681 131.345L208.299 129.527ZM201.756 138.095C199.637 135.977 199.639 135.975 199.64 135.974C199.641 135.973 199.642 135.972 199.643 135.971C199.645 135.969 199.647 135.967 199.649 135.965C199.653 135.961 199.657 135.957 199.661 135.954C199.669 135.946 199.676 135.939 199.683 135.932C199.698 135.918 199.712 135.905 199.725 135.893C199.751 135.87 199.774 135.85 199.793 135.834C199.833 135.801 199.859 135.782 199.871 135.775C199.896 135.758 199.858 135.788 199.742 135.832C199.523 135.916 198.925 136.09 197.809 136.007L197.585 138.994L197.362 141.982C199.29 142.126 200.777 141.851 201.882 141.429C202.429 141.22 202.862 140.982 203.194 140.761C203.359 140.651 203.497 140.547 203.61 140.453C203.666 140.407 203.716 140.363 203.76 140.323C203.783 140.303 203.803 140.283 203.822 140.265C203.831 140.256 203.841 140.247 203.849 140.239C203.854 140.235 203.858 140.23 203.862 140.226C203.864 140.224 203.866 140.222 203.868 140.22C203.869 140.219 203.871 140.218 203.871 140.217C203.873 140.215 203.875 140.214 201.756 138.095ZM197.585 138.994L197.809 136.007C198.013 136.022 197.988 136.12 197.727 135.857C197.464 135.59 197.161 135.149 196.861 134.56C196.573 133.993 196.347 133.408 196.192 132.952C196.116 132.728 196.06 132.545 196.025 132.424C196.007 132.364 195.995 132.32 195.988 132.294C195.984 132.281 195.982 132.273 195.982 132.27C195.981 132.268 195.981 132.268 195.981 132.269C195.981 132.27 195.982 132.27 195.982 132.272C195.982 132.272 195.982 132.273 195.982 132.274C195.983 132.274 195.983 132.275 195.983 132.275C195.983 132.275 195.983 132.276 193.079 133.014C190.176 133.752 190.176 133.753 190.176 133.754C190.176 133.754 190.176 133.755 190.176 133.755C190.177 133.756 190.177 133.757 190.177 133.759C190.178 133.761 190.179 133.764 190.18 133.767C190.181 133.774 190.183 133.782 190.186 133.791C190.191 133.81 190.197 133.834 190.205 133.864C190.221 133.922 190.243 134.002 190.271 134.099C190.328 134.294 190.41 134.562 190.519 134.881C190.733 135.511 191.063 136.378 191.52 137.277C191.967 138.155 192.601 139.195 193.467 140.071C194.337 140.95 195.635 141.853 197.362 141.982L197.585 138.994ZM193.079 133.014C196.009 132.388 196.009 132.388 196.009 132.388C196.009 132.388 196.009 132.388 196.009 132.388C196.009 132.388 196.009 132.388 196.009 132.387C196.009 132.386 196.008 132.384 196.008 132.382C196.007 132.377 196.005 132.369 196.003 132.359C195.999 132.338 195.992 132.306 195.983 132.265C195.966 132.181 195.939 132.056 195.906 131.894C195.839 131.57 195.742 131.098 195.625 130.511C195.39 129.335 195.073 127.7 194.747 125.865C194.086 122.15 193.412 117.772 193.255 114.704L190.263 114.858L187.271 115.011C187.449 118.487 188.184 123.187 188.847 126.915C189.183 128.801 189.508 130.478 189.748 131.684C189.869 132.287 189.969 132.774 190.038 133.111C190.073 133.279 190.101 133.41 190.12 133.5C190.129 133.544 190.136 133.579 190.141 133.602C190.144 133.614 190.146 133.623 190.147 133.63C190.148 133.633 190.148 133.635 190.149 133.637C190.149 133.638 190.149 133.638 190.149 133.639C190.149 133.639 190.149 133.639 190.149 133.64C190.149 133.64 190.149 133.64 193.079 133.014ZM190.263 114.858L193.255 114.704C193.088 111.451 192.637 100.81 192.226 90.9591C192.021 86.0388 191.826 81.3228 191.683 77.8369C191.611 76.0939 191.552 74.6585 191.511 73.6589C191.49 73.159 191.474 72.7681 191.464 72.5022C191.458 72.3693 191.454 72.2676 191.451 72.1991C191.45 72.1649 191.449 72.1389 191.448 72.1216C191.448 72.1129 191.447 72.1064 191.447 72.102C191.447 72.0998 191.447 72.0982 191.447 72.0971C191.447 72.0965 191.447 72.0961 191.447 72.0958C191.447 72.0956 191.447 72.0954 188.453 72.2177C185.46 72.3399 185.46 72.3401 185.46 72.3404C185.46 72.3406 185.46 72.341 185.46 72.3416C185.46 72.3427 185.46 72.3443 185.46 72.3465C185.46 72.3509 185.461 72.3575 185.461 72.3662C185.462 72.3836 185.463 72.4095 185.464 72.4438C185.467 72.5123 185.471 72.6141 185.476 72.7471C185.487 73.0131 185.503 73.4042 185.524 73.9041C185.565 74.9041 185.624 76.3399 185.695 78.0832C185.839 81.5699 186.034 86.287 186.239 91.2088C186.649 101.042 187.102 111.721 187.271 115.011L190.263 114.858ZM188.453 72.2177H191.449V37.1396H188.453H185.457V72.2177H188.453ZM188.453 37.1396C191.442 37.3471 191.442 37.3457 191.442 37.3443C191.443 37.3437 191.443 37.3422 191.443 37.3412C191.443 37.339 191.443 37.3367 191.443 37.3342C191.443 37.3292 191.444 37.3235 191.444 37.3171C191.445 37.3043 191.446 37.2886 191.447 37.2703C191.449 37.2335 191.451 37.1858 191.454 37.1277C191.458 37.0117 191.462 36.8541 191.463 36.6602C191.465 36.2734 191.453 35.7372 191.401 35.0965C191.299 33.8283 191.035 32.0805 190.367 30.2464C188.989 26.4633 185.824 22.2748 179.254 21.4174L178.866 24.3883L178.478 27.3592C182.286 27.8561 183.915 30.0433 184.736 32.2973C185.168 33.4817 185.355 34.6678 185.428 35.5789C185.465 36.0278 185.472 36.3926 185.471 36.6343C185.471 36.7547 185.468 36.8433 185.466 36.8949C185.465 36.9206 185.464 36.9371 185.464 36.9435C185.464 36.9468 185.464 36.9475 185.464 36.9456C185.464 36.9447 185.464 36.9431 185.464 36.9409C185.464 36.9398 185.464 36.9385 185.464 36.937C185.464 36.9363 185.464 36.9351 185.464 36.9347C185.464 36.9335 185.465 36.9322 188.453 37.1396ZM178.866 24.3883L179.254 21.4174C176.201 21.0191 173.475 21.3736 171.129 22.529C168.782 23.6847 167.068 25.5179 165.829 27.6505C163.431 31.7798 162.629 37.3683 162.344 42.7332L165.336 42.8921L168.328 43.051C168.606 37.8098 169.379 33.4693 171.011 30.6597C171.787 29.3228 172.701 28.434 173.776 27.9045C174.852 27.3746 176.342 27.0804 178.478 27.3592L178.866 24.3883ZM165.336 42.8921L162.344 42.7332C162.061 48.0646 161.553 60.951 161.118 72.4745C160.9 78.2429 160.699 83.6795 160.553 87.6739C160.481 89.6711 160.421 91.3079 160.38 92.4454C160.36 93.0142 160.344 93.4581 160.333 93.7599C160.327 93.9108 160.323 94.0262 160.32 94.1039C160.319 94.1427 160.318 94.1721 160.317 94.1918C160.317 94.2016 160.317 94.2091 160.316 94.214C160.316 94.2165 160.316 94.2184 160.316 94.2196C160.316 94.2203 160.316 94.2207 160.316 94.221C160.316 94.2214 160.316 94.2215 163.31 94.3287C166.304 94.436 166.304 94.4358 166.305 94.4355C166.305 94.4352 166.305 94.4347 166.305 94.4341C166.305 94.4329 166.305 94.431 166.305 94.4286C166.305 94.4236 166.305 94.4162 166.306 94.4064C166.306 94.3868 166.307 94.3575 166.309 94.3187C166.311 94.2412 166.316 94.126 166.321 93.9753C166.332 93.6738 166.348 93.2301 166.368 92.6617C166.409 91.5249 166.469 89.8889 166.542 87.8926C166.688 83.8998 166.888 78.4659 167.106 72.7009C167.542 61.1577 168.047 48.3257 168.328 43.051L165.336 42.8921ZM163.31 94.3287L160.32 94.1468L158.858 118.175L161.848 118.357L164.839 118.539L166.301 94.5107L163.31 94.3287ZM161.848 118.357C164.494 116.951 164.494 116.951 164.494 116.951C164.494 116.951 164.494 116.951 164.494 116.952C164.494 116.952 164.494 116.952 164.494 116.952C164.494 116.952 164.494 116.952 164.494 116.951C164.493 116.95 164.492 116.947 164.49 116.944C164.486 116.936 164.48 116.924 164.471 116.907C164.453 116.873 164.426 116.821 164.39 116.751C164.318 116.612 164.213 116.406 164.085 116.146C163.827 115.625 163.477 114.895 163.112 114.066C162.35 112.331 161.643 110.43 161.427 109.085L158.469 109.561L155.511 110.037C155.857 112.191 156.841 114.689 157.627 116.477C158.037 117.409 158.426 118.223 158.714 118.804C158.858 119.095 158.978 119.33 159.062 119.495C159.105 119.577 159.139 119.641 159.162 119.687C159.174 119.71 159.184 119.728 159.19 119.74C159.194 119.747 159.197 119.752 159.199 119.756C159.2 119.758 159.201 119.76 159.201 119.761C159.202 119.761 159.202 119.762 159.202 119.763C159.202 119.763 159.202 119.763 159.203 119.763C159.203 119.764 159.203 119.764 161.848 118.357ZM158.469 109.561L161.427 109.085C161.152 107.377 160.424 102.174 159.757 97.3466C159.426 94.9442 159.112 92.6507 158.881 90.9577C158.765 90.1113 158.67 89.415 158.604 88.9305C158.571 88.6882 158.546 88.4988 158.528 88.3701C158.519 88.3057 158.513 88.2565 158.508 88.2234C158.506 88.2068 158.504 88.1943 158.503 88.1859C158.503 88.1817 158.502 88.1786 158.502 88.1765C158.502 88.1754 158.502 88.1747 158.501 88.1741C158.501 88.1739 158.501 88.1737 158.501 88.1735C158.501 88.1734 158.501 88.1734 155.533 88.5763C152.564 88.9792 152.564 88.9792 152.564 88.9794C152.564 88.9795 152.564 88.9797 152.564 88.98C152.564 88.9805 152.564 88.9813 152.564 88.9824C152.564 88.9846 152.565 88.9877 152.565 88.992C152.567 89.0004 152.568 89.013 152.571 89.0297C152.575 89.0629 152.582 89.1123 152.591 89.1769C152.608 89.306 152.634 89.4957 152.667 89.7384C152.733 90.2237 152.828 90.9208 152.944 91.7683C153.175 93.4631 153.489 95.7596 153.821 98.1658C154.482 102.955 155.222 108.245 155.511 110.037L158.469 109.561ZM155.533 88.5763C158.489 88.0885 158.489 88.0884 158.489 88.0882C158.489 88.0881 158.489 88.0878 158.488 88.0875C158.488 88.0869 158.488 88.0859 158.488 88.0847C158.488 88.0823 158.487 88.0787 158.486 88.074C158.485 88.0646 158.482 88.0506 158.479 88.0322C158.473 87.9953 158.464 87.9408 158.452 87.8695C158.429 87.7269 158.394 87.5175 158.349 87.2493C158.26 86.713 158.131 85.9415 157.971 84.9997C157.653 83.1165 157.214 80.5504 156.733 77.8204C155.783 72.4239 154.635 66.1972 153.927 63.4619L151.026 64.2122L148.126 64.9625C148.761 67.4163 149.865 73.3717 150.832 78.86C151.31 81.5724 151.746 84.1242 152.063 85.9985C152.221 86.9354 152.35 87.7025 152.439 88.2351C152.483 88.5014 152.518 88.709 152.541 88.8498C152.553 88.9203 152.562 88.974 152.567 89.01C152.57 89.0281 152.573 89.0416 152.574 89.0507C152.575 89.0552 152.576 89.0586 152.576 89.0608C152.576 89.0619 152.576 89.0628 152.576 89.0633C152.576 89.0636 152.576 89.0637 152.576 89.0639C152.576 89.064 152.576 89.064 155.533 88.5763ZM151.026 64.2122L153.927 63.4619C153.319 61.1106 152.603 55.9695 152.02 50.6741C151.441 45.4243 151.028 40.3741 150.978 38.3125L147.982 38.386L144.987 38.4594C145.045 40.7961 145.483 46.0644 146.063 51.3308C146.639 56.5517 147.392 62.1246 148.126 64.9625L151.026 64.2122ZM147.982 38.386L150.978 38.3125C150.922 36.0546 150.721 32.3107 150.537 29.1731C150.445 27.5952 150.356 26.1559 150.29 25.111C150.257 24.5885 150.23 24.1644 150.211 23.8707C150.201 23.7239 150.194 23.6096 150.189 23.5319C150.186 23.4931 150.184 23.4634 150.183 23.4433C150.182 23.4333 150.182 23.4257 150.182 23.4205C150.181 23.4179 150.181 23.416 150.181 23.4147C150.181 23.414 150.181 23.4135 150.181 23.4131C150.181 23.413 150.181 23.4128 150.181 23.4127C150.181 23.4126 150.181 23.4126 147.191 23.6093C144.202 23.8061 144.202 23.8061 144.202 23.8062C144.202 23.8063 144.202 23.8064 144.202 23.8065C144.202 23.8068 144.202 23.8072 144.202 23.8078C144.202 23.809 144.202 23.8108 144.202 23.8133C144.203 23.8181 144.203 23.8255 144.204 23.8352C144.205 23.8547 144.207 23.8838 144.209 23.922C144.214 23.9985 144.222 24.1115 144.231 24.257C144.25 24.5481 144.277 24.9692 144.31 25.4884C144.375 26.5269 144.464 27.957 144.556 29.5236C144.74 32.6747 144.935 36.3192 144.987 38.4594L147.982 38.386ZM147.191 23.6093C150.183 23.4483 150.183 23.4468 150.183 23.4452C150.183 23.4446 150.183 23.443 150.183 23.4418C150.183 23.4395 150.183 23.4371 150.182 23.4345C150.182 23.4294 150.182 23.4237 150.181 23.4175C150.181 23.4051 150.18 23.3905 150.178 23.3739C150.176 23.3408 150.173 23.2993 150.169 23.25C150.16 23.1515 150.147 23.0215 150.126 22.864C150.086 22.5497 150.019 22.1218 149.905 21.6138C149.679 20.606 149.262 19.2354 148.486 17.7998C146.883 14.8333 143.789 11.7152 138.243 10.9463L137.832 13.914L137.42 16.8817C140.778 17.3473 142.365 19.0768 143.215 20.6494C143.666 21.4833 143.919 22.3051 144.057 22.9223C144.126 23.2268 144.163 23.4695 144.183 23.6228C144.192 23.6991 144.197 23.752 144.2 23.7781C144.201 23.7911 144.201 23.7972 144.201 23.7961C144.201 23.7956 144.201 23.7932 144.201 23.7889C144.201 23.7868 144.2 23.7842 144.2 23.7811C144.2 23.7795 144.2 23.7779 144.2 23.7761C144.2 23.7752 144.2 23.7738 144.2 23.7733C144.2 23.7719 144.2 23.7704 147.191 23.6093ZM137.832 13.914L138.243 10.9463C132.73 10.1821 128.078 12.2481 124.899 15.8963C121.789 19.4658 120.167 24.4326 120.167 29.5895H123.163H126.159C126.159 25.6144 127.419 22.1263 129.417 19.8325C131.347 17.6174 134.029 16.4116 137.42 16.8817L137.832 13.914ZM123.163 29.5895H120.167C120.167 34.2548 120.736 46.1115 121.298 56.6919C121.579 62.0063 121.861 67.0342 122.073 70.7333C122.178 72.5829 122.267 74.1006 122.328 75.1561C122.359 75.6838 122.383 76.096 122.4 76.3763C122.408 76.5165 122.414 76.6237 122.419 76.696C122.421 76.7321 122.422 76.7595 122.424 76.7778C122.424 76.787 122.424 76.7939 122.425 76.7986C122.425 76.8009 122.425 76.8027 122.425 76.8039C122.425 76.8045 122.425 76.8049 122.425 76.8052C122.425 76.8055 122.425 76.8057 125.416 76.6279C128.407 76.4501 128.407 76.45 128.407 76.4498C128.407 76.4495 128.407 76.4491 128.407 76.4485C128.407 76.4474 128.406 76.4457 128.406 76.4434C128.406 76.4389 128.406 76.432 128.405 76.423C128.404 76.4048 128.402 76.3777 128.4 76.3418C128.396 76.2701 128.39 76.1633 128.382 76.0236C128.365 75.7443 128.341 75.3331 128.31 74.8065C128.249 73.7533 128.161 72.2382 128.055 70.3914C127.844 66.6976 127.563 61.6783 127.281 56.3745C126.716 45.7188 126.159 34.0563 126.159 29.5895H123.163ZM125.416 76.6279C122.434 76.9143 122.434 76.9145 122.434 76.9147C122.434 76.9149 122.434 76.9152 122.434 76.9157C122.434 76.9166 122.434 76.918 122.434 76.9199C122.434 76.9235 122.435 76.9291 122.436 76.9364C122.437 76.9511 122.439 76.973 122.442 77.0019C122.448 77.0597 122.456 77.1455 122.467 77.2576C122.488 77.4817 122.52 77.8106 122.56 78.2299C122.64 79.0683 122.755 80.2678 122.892 81.7118C123.167 84.5999 123.534 88.4655 123.901 92.3764C124.268 96.2882 124.635 100.242 124.909 103.307C125.047 104.841 125.161 106.146 125.24 107.111C125.28 107.595 125.31 107.985 125.331 108.273C125.354 108.608 125.356 108.698 125.356 108.662H128.352H131.348C131.348 108.12 131.142 105.722 130.877 102.772C130.602 99.6944 130.234 95.7309 129.867 91.8169C129.5 87.902 129.133 84.0333 128.857 81.1434C128.72 79.6985 128.605 78.4981 128.525 77.6589C128.484 77.2394 128.453 76.9101 128.431 76.6856C128.421 76.5734 128.412 76.4874 128.407 76.4295C128.404 76.4005 128.402 76.3785 128.4 76.3638C128.4 76.3564 128.399 76.3508 128.399 76.3471C128.399 76.3452 128.399 76.3438 128.398 76.3429C128.398 76.3424 128.398 76.3421 128.398 76.3419C128.398 76.3416 128.398 76.3415 125.416 76.6279ZM128.352 108.662H125.356C125.356 109.158 125.44 110.303 125.517 111.484C125.601 112.764 125.697 114.33 125.752 115.911C125.807 117.504 125.817 119.047 125.741 120.293C125.703 120.918 125.646 121.409 125.579 121.765C125.5 122.182 125.448 122.183 125.557 122.003L128.124 123.546L130.692 125.09C131.139 124.347 131.348 123.506 131.467 122.875C131.598 122.183 131.675 121.421 131.722 120.659C131.815 119.131 131.798 117.368 131.74 115.704C131.683 114.028 131.582 112.387 131.497 111.092C131.453 110.434 131.416 109.887 131.388 109.442C131.374 109.222 131.364 109.042 131.357 108.9C131.354 108.829 131.351 108.773 131.35 108.729C131.349 108.708 131.349 108.691 131.348 108.679C131.348 108.667 131.348 108.661 131.348 108.662H128.352ZM128.124 123.546L125.557 122.003C125.547 122.02 125.633 121.868 125.873 121.7C126.137 121.515 126.481 121.386 126.857 121.365C127.205 121.346 127.46 121.425 127.582 121.474C127.701 121.522 127.748 121.563 127.724 121.544C127.663 121.499 127.545 121.385 127.41 121.218C127.351 121.146 127.306 121.084 127.278 121.045C127.264 121.026 127.256 121.013 127.254 121.01C127.252 121.008 127.253 121.008 127.255 121.011C127.256 121.013 127.257 121.015 127.259 121.018C127.26 121.019 127.261 121.021 127.262 121.022C127.262 121.023 127.263 121.024 127.263 121.025C127.264 121.025 127.264 121.026 127.264 121.026C127.265 121.027 127.265 121.028 124.745 122.648C122.224 124.267 122.225 124.268 122.225 124.269C122.225 124.269 122.226 124.27 122.226 124.271C122.227 124.272 122.228 124.273 122.229 124.274C122.23 124.277 122.232 124.279 122.234 124.282C122.238 124.288 122.242 124.295 122.247 124.302C122.256 124.317 122.268 124.334 122.282 124.355C122.31 124.397 122.347 124.45 122.391 124.512C122.479 124.637 122.602 124.803 122.755 124.992C123.042 125.346 123.515 125.878 124.13 126.339C124.687 126.757 125.772 127.428 127.193 127.348C128.849 127.255 130.01 126.224 130.692 125.09L128.124 123.546ZM124.745 122.648L127.472 121.407L117.777 100.087L115.05 101.328L112.322 102.568L122.018 123.888L124.745 122.648ZM115.05 101.328L117.821 100.188L108.005 76.3155L105.234 77.4548L102.463 78.5941L112.279 102.467L115.05 101.328ZM105.234 77.4548C107.99 76.2784 107.99 76.2786 107.99 76.2787C107.99 76.2787 107.99 76.2789 107.99 76.2789C107.99 76.2789 107.99 76.2788 107.99 76.2785C107.99 76.278 107.989 76.2769 107.988 76.2752C107.987 76.2718 107.985 76.2662 107.981 76.2584C107.975 76.2427 107.964 76.2181 107.95 76.185C107.923 76.1187 107.881 76.0183 107.826 75.8865C107.717 75.6229 107.558 75.234 107.363 74.742C106.971 73.757 106.435 72.3631 105.857 70.7359C104.691 67.4502 103.402 63.3379 102.768 59.7484L99.8175 60.2693L96.867 60.7903C97.5875 64.8707 99.007 69.3512 100.21 72.7407C100.818 74.4512 101.381 75.9156 101.794 76.9544C102.001 77.4743 102.17 77.8887 102.288 78.1754C102.348 78.3188 102.394 78.4303 102.426 78.5072C102.443 78.5457 102.455 78.5754 102.464 78.5962C102.468 78.6066 102.472 78.6148 102.474 78.6206C102.476 78.6236 102.477 78.6259 102.477 78.6277C102.478 78.6286 102.478 78.6293 102.478 78.6299C102.478 78.6302 102.479 78.6306 102.479 78.6307C102.479 78.631 102.479 78.6313 105.234 77.4548ZM99.8175 60.2693L102.768 59.7484C102.127 56.1188 101.369 50.2683 99.5544 45.1659C97.7567 40.1108 94.5542 34.7153 88.3426 33.2201L87.6414 36.1329L86.9402 39.0458C90.0884 39.8036 92.2968 42.6414 93.9086 47.1737C95.5036 51.6588 96.1537 56.7499 96.867 60.7903L99.8175 60.2693ZM87.6414 36.1329L88.3426 33.2201C85.492 32.5339 82.8904 32.6772 80.6084 33.5419C78.3416 34.4009 76.5878 35.8962 75.2892 37.6059C72.7542 40.9432 71.7663 45.3223 71.8963 48.6536L74.8901 48.5367L77.8839 48.4198C77.7983 46.2263 78.5062 43.2771 80.0608 41.2304C80.8069 40.2481 81.6965 39.5376 82.7317 39.1453C83.7518 38.7588 85.111 38.6055 86.9402 39.0458L87.6414 36.1329ZM74.8901 48.5367L71.8963 48.6536C72.0133 51.6482 73.2405 59.6638 74.3809 66.6582C74.9609 70.2156 75.5339 73.5983 75.9617 76.0908C76.1757 77.3374 76.3535 78.362 76.4778 79.0752C76.54 79.4319 76.5888 79.7108 76.6221 79.9007C76.6388 79.9956 76.6516 80.0684 76.6602 80.1174C76.6645 80.142 76.6678 80.1606 76.67 80.1732C76.6711 80.1795 76.672 80.1842 76.6725 80.1874C76.6728 80.189 76.673 80.1903 76.6732 80.1911C76.6732 80.1915 76.6733 80.1919 76.6733 80.1921C76.6734 80.1923 76.6734 80.1924 79.6239 79.6719C82.5744 79.1514 82.5744 79.1514 82.5744 79.1512C82.5744 79.151 82.5743 79.1508 82.5743 79.1504C82.5741 79.1497 82.5739 79.1486 82.5737 79.1471C82.5732 79.1441 82.5723 79.1395 82.5713 79.1335C82.5692 79.1214 82.5659 79.1032 82.5617 79.0791C82.5532 79.031 82.5406 78.9592 82.5241 78.8652C82.4912 78.6773 82.4427 78.4006 82.3809 78.0461C82.2574 77.3373 82.0805 76.3179 81.8675 75.0771C81.4415 72.595 80.8714 69.2298 80.295 65.694C79.1224 58.502 77.9827 50.9499 77.8839 48.4198L74.8901 48.5367ZM79.6239 79.6719L76.6901 80.2796L87.2962 131.489L90.23 130.881L93.1638 130.273L82.5577 79.0643L79.6239 79.6719ZM90.23 130.881C87.3223 131.603 87.3222 131.603 87.3222 131.602C87.3222 131.602 87.3221 131.602 87.3221 131.602C87.3222 131.602 87.3222 131.603 87.3224 131.603C87.3227 131.605 87.3233 131.607 87.3241 131.61C87.3257 131.617 87.3284 131.628 87.3321 131.643C87.3394 131.673 87.3506 131.719 87.3655 131.781C87.3951 131.905 87.4391 132.09 87.4947 132.331C87.6058 132.812 87.763 133.513 87.9442 134.38C88.3072 136.116 88.7636 138.502 89.1403 141.109C89.5182 143.725 89.8081 146.513 89.8534 149.064C89.8997 151.675 89.6823 153.782 89.2055 155.172L92.0397 156.144L94.8738 157.115C95.6913 154.731 95.8949 151.792 95.8446 148.958C95.7933 146.065 95.469 143.009 95.0709 140.253C94.6715 137.488 94.1902 134.974 93.8095 133.153C93.6188 132.241 93.4526 131.5 93.3333 130.983C93.2736 130.724 93.2256 130.522 93.1921 130.382C93.1754 130.313 93.1622 130.258 93.1531 130.221C93.1485 130.202 93.1449 130.188 93.1423 130.177C93.1411 130.172 93.14 130.168 93.1393 130.165C93.1389 130.163 93.1386 130.162 93.1384 130.161C93.1382 130.161 93.1381 130.16 93.138 130.16C93.1379 130.159 93.1378 130.159 90.23 130.881ZM92.0397 156.144L89.2055 155.172C87.9087 158.954 86.0162 164.545 84.4493 169.186C83.6655 171.507 82.9627 173.593 82.4558 175.097C82.2023 175.85 81.9979 176.457 81.8568 176.877C81.7862 177.086 81.7315 177.249 81.6944 177.359C81.6758 177.414 81.6617 177.456 81.6522 177.485C81.6474 177.499 81.6438 177.51 81.6414 177.517C81.6402 177.52 81.6393 177.523 81.6387 177.525C81.6384 177.526 81.6382 177.526 81.638 177.527C81.6379 177.527 81.6379 177.527 81.6378 177.527C81.6378 177.527 81.6378 177.527 84.4776 178.483C87.3174 179.438 87.3174 179.438 87.3174 179.437C87.3175 179.437 87.3175 179.437 87.3176 179.437C87.3177 179.436 87.318 179.436 87.3183 179.435C87.3189 179.433 87.3198 179.43 87.321 179.427C87.3233 179.42 87.3269 179.409 87.3317 179.395C87.3411 179.367 87.3552 179.325 87.3738 179.27C87.4108 179.16 87.4654 178.997 87.5359 178.788C87.6769 178.369 87.8812 177.762 88.1345 177.01C88.641 175.506 89.3434 173.422 90.1265 171.103C91.6935 166.462 93.582 160.883 94.8738 157.115L92.0397 156.144ZM84.4776 178.483C81.6347 177.537 81.6349 177.536 81.6352 177.535C81.6352 177.535 81.6355 177.534 81.6356 177.534C81.6359 177.533 81.6362 177.532 81.6364 177.532C81.6368 177.53 81.6372 177.529 81.6374 177.529C81.6378 177.527 81.6378 177.527 81.6373 177.529C81.6364 177.532 81.6337 177.54 81.6292 177.552C81.6201 177.578 81.6042 177.622 81.5816 177.682C81.5361 177.803 81.4653 177.982 81.3718 178.194C81.1768 178.636 80.9187 179.141 80.6286 179.555C80.3006 180.023 80.1335 180.086 80.2241 180.044C80.3135 180.003 80.495 179.947 80.7269 179.965C80.9577 179.983 81.0732 180.062 81.0514 180.048L79.3962 182.545L77.7411 185.043C79.3632 186.118 81.1635 186.21 82.7348 185.485C84.0647 184.872 84.9769 183.792 85.5372 182.992C86.1355 182.137 86.5747 181.246 86.8549 180.611C86.999 180.284 87.1104 180.003 87.1876 179.798C87.2263 179.696 87.2569 179.611 87.279 179.549C87.2901 179.517 87.2991 179.491 87.306 179.471C87.3095 179.461 87.3124 179.452 87.3148 179.445C87.316 179.442 87.3171 179.438 87.318 179.436C87.3185 179.434 87.3189 179.433 87.3193 179.432C87.3195 179.431 87.3198 179.43 87.3199 179.43C87.3202 179.429 87.3205 179.428 84.4776 178.483ZM79.3962 182.545L81.0514 180.048C78.0982 178.091 75.8705 176.676 71.8259 172.1L69.5811 174.084L67.3363 176.069C71.8724 181.2 74.5823 182.949 77.7411 185.043L79.3962 182.545ZM69.5811 174.084L71.8259 172.1C69.7155 169.713 66.3608 165.714 63.5116 162.284C62.0918 160.575 60.8056 159.017 59.8742 157.887C59.4086 157.321 59.0318 156.863 58.7715 156.546C58.6414 156.388 58.5405 156.264 58.4721 156.181C58.4379 156.139 58.4119 156.108 58.3944 156.086C58.3857 156.076 58.3792 156.068 58.3748 156.062C58.3726 156.06 58.371 156.058 58.3699 156.056C58.3693 156.056 58.3689 156.055 58.3687 156.055C58.3685 156.055 58.3685 156.055 58.3684 156.055C58.3683 156.055 58.3683 156.055 56.0508 157.953C53.7333 159.852 53.7333 159.852 53.7334 159.852C53.7335 159.853 53.7336 159.853 53.7338 159.853C53.7341 159.853 53.7345 159.854 53.7351 159.854C53.7363 159.856 53.738 159.858 53.7402 159.861C53.7448 159.866 53.7515 159.875 53.7604 159.885C53.7782 159.907 53.8046 159.939 53.8391 159.981C53.9082 160.066 54.01 160.19 54.1409 160.349C54.4027 160.668 54.7813 161.128 55.249 161.696C56.1841 162.832 57.476 164.396 58.9025 166.113C61.7458 169.536 65.1563 173.602 67.3363 176.069L69.5811 174.084ZM56.0508 157.953C58.2671 155.937 58.2668 155.937 58.2665 155.937C58.2663 155.936 58.2659 155.936 58.2656 155.936C58.2649 155.935 58.2641 155.934 58.2631 155.933C58.2612 155.931 58.2588 155.928 58.2558 155.925C58.2497 155.918 58.2414 155.909 58.2309 155.898C58.2098 155.875 58.1799 155.842 58.1414 155.801C58.0644 155.718 57.953 155.598 57.8093 155.447C57.5221 155.143 57.1057 154.709 56.5778 154.177C55.523 153.113 54.0173 151.649 52.2028 150.037C48.6128 146.848 43.656 142.937 38.5037 140.474L37.2115 143.177L35.9193 145.88C40.3184 147.983 44.7813 151.46 48.2231 154.517C49.9245 156.029 51.3377 157.403 52.3229 158.396C52.815 158.892 53.1988 159.292 53.4568 159.565C53.5858 159.701 53.6832 159.806 53.7469 159.874C53.7788 159.909 53.8022 159.934 53.8169 159.95C53.8242 159.958 53.8294 159.964 53.8323 159.967C53.8338 159.969 53.8347 159.97 53.8351 159.97C53.8352 159.97 53.8353 159.97 53.8352 159.97C53.8351 159.97 53.835 159.97 53.8349 159.97C53.8347 159.97 53.8345 159.969 56.0508 157.953ZM37.2115 143.177L38.5039 140.474C33.1593 137.918 28.1289 136.547 23.7175 136.279C19.3367 136.013 15.3542 136.829 12.3765 138.912L14.0937 141.367L15.811 143.822C17.3394 142.753 19.8404 142.047 23.3543 142.26C26.8376 142.472 31.113 143.582 35.919 145.88L37.2115 143.177ZM14.0937 141.367C12.2169 139.032 12.2155 139.033 12.2141 139.034C12.2136 139.034 12.2121 139.036 12.2111 139.036C12.2091 139.038 12.2071 139.04 12.2049 139.041C12.2006 139.045 12.1959 139.049 12.191 139.053C12.181 139.061 12.1698 139.07 12.1573 139.081C12.1324 139.102 12.1025 139.127 12.0681 139.157C11.9995 139.217 11.9126 139.295 11.8113 139.391C11.6095 139.584 11.3474 139.852 11.0584 140.194C10.4848 140.872 9.77636 141.875 9.23653 143.187C8.10274 145.94 7.86348 149.712 10.3761 154.041L12.9672 152.536L15.5584 151.032C14.0083 148.362 14.3323 146.549 14.7774 145.468C15.0271 144.862 15.362 144.385 15.6344 144.062C15.7684 143.904 15.88 143.792 15.9461 143.729C15.9788 143.697 15.9994 143.679 16.0048 143.674C16.0074 143.672 16.0062 143.673 16.0006 143.678C15.9979 143.68 15.994 143.683 15.989 143.688C15.9866 143.69 15.9838 143.692 15.9807 143.694C15.9792 143.696 15.9776 143.697 15.9759 143.698C15.9751 143.699 15.9737 143.7 15.9733 143.7C15.972 143.701 15.9706 143.702 14.0937 141.367ZM12.9672 152.536L10.3761 154.041C12.6583 157.972 15.6967 160.867 18.1128 162.762C19.3292 163.716 20.4111 164.434 21.1994 164.92C21.5942 165.163 21.9172 165.349 22.1491 165.478C22.2651 165.542 22.3584 165.592 22.4267 165.629C22.4608 165.647 22.4887 165.661 22.5101 165.672C22.5207 165.678 22.5298 165.683 22.5371 165.686C22.5408 165.688 22.544 165.69 22.5469 165.691C22.5483 165.692 22.5496 165.693 22.5508 165.693C22.5514 165.694 22.5523 165.694 22.5526 165.694C22.5534 165.695 22.5541 165.695 23.9089 163.023C25.2637 160.35 25.2644 160.351 25.2651 160.351C25.2653 160.351 25.2659 160.352 25.2663 160.352C25.2671 160.352 25.2678 160.353 25.2684 160.353C25.2696 160.353 25.2703 160.354 25.2707 160.354C25.2714 160.354 25.2705 160.354 25.268 160.353C25.2631 160.35 25.2518 160.344 25.2346 160.335C25.2001 160.317 25.1417 160.285 25.0616 160.241C24.9014 160.152 24.6554 160.011 24.3418 159.817C23.7133 159.43 22.8215 158.839 21.8103 158.047C19.7713 156.448 17.3388 154.1 15.5584 151.032L12.9672 152.536ZM23.9089 163.023C21.949 165.289 21.9483 165.288 21.9475 165.288C21.9473 165.287 21.9466 165.287 21.9462 165.286C21.9454 165.286 21.9447 165.285 21.9442 165.285C21.9431 165.284 21.9426 165.283 21.9426 165.283C21.9427 165.283 21.945 165.285 21.9496 165.289C21.9586 165.297 21.9765 165.313 22.003 165.337C22.0562 165.386 22.144 165.466 22.2655 165.582C22.5083 165.812 22.8854 166.18 23.3873 166.701C24.3912 167.744 25.8945 169.398 27.8215 171.785C31.6755 176.559 37.2253 184.264 43.863 195.862L46.4634 194.374L49.0637 192.886C42.279 181.03 36.5516 173.06 32.4839 168.021C30.4501 165.502 28.8315 163.716 27.7036 162.545C27.1397 161.959 26.6985 161.527 26.3895 161.234C26.235 161.088 26.1136 160.976 26.0264 160.897C25.9828 160.857 25.9478 160.826 25.9214 160.803C25.9083 160.791 25.8973 160.782 25.8885 160.774C25.8841 160.77 25.8803 160.767 25.877 160.764C25.8753 160.762 25.8738 160.761 25.8724 160.76C25.8717 160.759 25.8708 160.758 25.8705 160.758C25.8696 160.757 25.8687 160.757 23.9089 163.023ZM46.4634 194.374L43.863 195.862C50.7054 207.818 58.8488 218.133 65.2612 225.446C68.472 229.107 71.2599 232.028 73.2505 234.038C74.2461 235.044 75.0429 235.823 75.5945 236.353C75.8702 236.618 76.0847 236.822 76.2321 236.96C76.3058 237.03 76.3627 237.083 76.4021 237.12C76.4218 237.138 76.4372 237.152 76.4481 237.162C76.4535 237.167 76.4578 237.171 76.461 237.174C76.4626 237.176 76.4639 237.177 76.4649 237.178C76.4654 237.178 76.466 237.179 76.4663 237.179C76.4668 237.179 76.4672 237.18 78.4974 234.977C80.5276 232.773 80.5279 232.773 80.5281 232.774C80.5281 232.774 80.5282 232.774 80.5282 232.774C80.5281 232.774 80.5277 232.773 80.527 232.773C80.5257 232.771 80.5232 232.769 80.5197 232.766C80.5126 232.759 80.501 232.749 80.4851 232.734C80.4532 232.704 80.404 232.658 80.3381 232.596C80.2063 232.472 80.0078 232.284 79.7485 232.035C79.2297 231.536 78.4677 230.791 77.5087 229.823C75.5902 227.885 72.8863 225.052 69.7664 221.495C63.5173 214.369 55.6437 204.383 49.0637 192.886L46.4634 194.374ZM78.4974 234.977C76.4229 237.138 76.423 237.138 76.4233 237.139C76.4235 237.139 76.4238 237.139 76.4242 237.139C76.4249 237.14 76.426 237.141 76.4273 237.142C76.43 237.145 76.4338 237.149 76.4389 237.154C76.4489 237.163 76.4637 237.177 76.483 237.196C76.5216 237.233 76.5784 237.287 76.6526 237.358C76.8009 237.499 77.0184 237.706 77.2976 237.97C77.8559 238.498 78.6611 239.256 79.652 240.177C81.6328 242.017 84.3615 244.515 87.3492 247.14C90.3329 249.761 93.5965 252.528 96.643 254.9C99.6382 257.231 102.598 259.32 104.932 260.453L106.241 257.759L107.551 255.064C105.827 254.226 103.291 252.481 100.324 250.171C97.4075 247.901 94.2423 245.22 91.3042 242.638C88.3701 240.061 85.6843 237.602 83.7308 235.787C82.7546 234.88 81.9628 234.135 81.4158 233.617C81.1424 233.359 80.9303 233.157 80.7871 233.02C80.7155 232.952 80.6612 232.9 80.625 232.866C80.6069 232.848 80.5933 232.835 80.5845 232.827C80.58 232.823 80.5768 232.82 80.5747 232.818C80.5736 232.816 80.5729 232.816 80.5724 232.815C80.5722 232.815 80.5721 232.815 80.572 232.815C80.5719 232.815 80.572 232.815 78.4974 234.977ZM106.241 257.759L104.932 260.453C108.482 262.179 111.325 264.867 113.316 267.211C114.301 268.37 115.05 269.415 115.549 270.161C115.798 270.533 115.982 270.828 116.101 271.023C116.16 271.121 116.202 271.194 116.228 271.238C116.241 271.26 116.249 271.275 116.254 271.283C116.256 271.286 116.257 271.288 116.257 271.288C116.257 271.289 116.257 271.288 116.256 271.287C116.256 271.287 116.256 271.286 116.255 271.285C116.255 271.285 116.255 271.284 116.255 271.284C116.254 271.284 116.254 271.283 118.873 269.827C121.491 268.371 121.491 268.37 121.49 268.369C121.49 268.369 121.49 268.368 121.489 268.368C121.489 268.366 121.488 268.365 121.487 268.364C121.485 268.361 121.483 268.357 121.481 268.354C121.477 268.346 121.471 268.336 121.465 268.324C121.452 268.301 121.434 268.27 121.412 268.232C121.367 268.155 121.305 268.049 121.224 267.917C121.064 267.652 120.832 267.282 120.531 266.831C119.929 265.93 119.042 264.696 117.883 263.332C115.586 260.627 112.113 257.281 107.551 255.064L106.241 257.759ZM118.873 269.827C116.522 271.685 116.522 271.685 116.521 271.684C116.521 271.684 116.521 271.683 116.521 271.683C116.52 271.682 116.52 271.682 116.52 271.682C116.52 271.682 116.52 271.682 116.521 271.684C116.524 271.687 116.529 271.693 116.537 271.704C116.552 271.724 116.579 271.758 116.616 271.807C116.69 271.904 116.805 272.059 116.958 272.27C117.265 272.694 117.724 273.347 118.308 274.232C119.477 276.004 121.145 278.708 123.095 282.372C126.993 289.699 132.018 300.871 136.415 316.114L139.294 315.283L142.172 314.453C137.654 298.788 132.468 287.232 128.385 279.558C126.343 275.721 124.578 272.856 123.311 270.934C122.677 269.973 122.168 269.247 121.81 268.754C121.632 268.508 121.491 268.32 121.392 268.189C121.343 268.123 121.303 268.072 121.275 268.036C121.261 268.017 121.249 268.002 121.241 267.991C121.236 267.986 121.232 267.981 121.229 267.977C121.228 267.975 121.227 267.974 121.226 267.972C121.225 267.971 121.224 267.971 121.224 267.97C121.223 267.969 121.223 267.969 118.873 269.827ZM139.294 315.283L136.415 316.114C140.89 331.624 146.968 350.505 151.921 365.487C154.399 372.982 156.597 379.51 158.177 384.165C158.966 386.493 159.601 388.352 160.039 389.63C160.258 390.269 160.427 390.762 160.542 391.096C160.6 391.264 160.644 391.391 160.673 391.476C160.688 391.519 160.699 391.551 160.707 391.573C160.71 391.584 160.713 391.592 160.715 391.598C160.716 391.601 160.717 391.603 160.717 391.604C160.717 391.605 160.718 391.605 160.718 391.606C160.718 391.606 160.718 391.606 163.55 390.629C166.382 389.651 166.382 389.651 166.382 389.651C166.382 389.65 166.382 389.65 166.381 389.649C166.381 389.648 166.38 389.646 166.379 389.643C166.378 389.638 166.375 389.63 166.371 389.62C166.364 389.598 166.353 389.566 166.338 389.524C166.309 389.44 166.266 389.314 166.209 389.148C166.095 388.816 165.926 388.325 165.708 387.688C165.272 386.415 164.639 384.561 163.851 382.24C162.276 377.596 160.082 371.083 157.61 363.606C152.664 348.642 146.614 329.85 142.172 314.453L139.294 315.283ZM163.55 390.629L160.63 391.3L165.711 413.411L168.631 412.74L171.551 412.069L166.47 389.958L163.55 390.629Z" fill="#595CFF" mask="url(#path-1-outside-1_380_14205)"/>
</g>
<path d="M22.3868 140.48C24.9635 142.41 27.9236 143.98 29.6134 146.868C31.3511 151.075 29.0262 155.605 27.0847 159.26C26.5814 160.207 26.2218 161.093 26.102 162.184H25.9821C25.9102 161.657 25.8263 161.105 25.9102 160.542C26.6533 156.024 30.4643 151.83 28.8823 147.144C27.4562 144.495 24.592 142.554 22.3149 140.576L22.3868 140.48Z" fill="#595CFF"/>
<path d="M144.399 21.8597C144.579 24.0049 144.675 26.174 144.291 28.3073C144.136 29.0023 143.98 29.7933 143.333 30.3686C141.978 31.2194 140.516 31.2075 139.006 31.3393C136.07 31.4232 133.134 31.2434 130.378 30.045C126.279 28.2473 126.722 20.7811 129.467 17.9888C128.4 20.4096 127.993 23.3577 128.784 26.0662C129.107 27.4084 129.659 28.3552 130.905 28.9784C133.326 30.2128 136.262 30.5363 138.982 30.5483C140.265 30.5124 141.859 30.5124 142.949 29.8892C143.896 29.0383 143.98 27.3485 144.16 26.1021C144.291 24.688 144.315 23.2619 144.267 21.8477H144.387L144.399 21.8597Z" fill="#595CFF"/>
<path d="M143.656 19.9663C140.337 16.3351 134.992 16.4789 130.569 17.6534L130.521 17.5455C133.673 15.6759 137.976 15.2685 141.116 17.3657C142.194 18.0009 143.009 18.9477 143.752 19.8824L143.656 19.9543V19.9663Z" fill="#595CFF"/>
<path d="M185.493 32.2739C185.661 34.2992 185.757 36.3485 185.409 38.3619C185.254 39.021 185.122 39.7641 184.499 40.3273C183.204 41.1423 181.826 41.1303 180.4 41.2501C177.62 41.334 174.839 41.1662 172.227 40.0397C168.332 38.3379 168.763 31.2552 171.376 28.6187L171.46 28.7025C170.165 30.9196 170.141 33.8318 170.765 36.2527C171.076 37.511 171.58 38.3859 172.754 38.9851C175.031 40.1476 177.799 40.4591 180.364 40.4831C181.574 40.4472 183.084 40.4472 184.103 39.8719C184.535 39.5603 184.762 38.8892 184.93 38.266C185.385 36.3246 185.421 34.2872 185.361 32.2858H185.481L185.493 32.2739Z" fill="#595CFF"/>
<path d="M184.786 30.4883C181.634 27.0728 176.601 27.2406 172.43 28.3072L172.382 28.1993C175.354 26.4137 179.429 26.0182 182.389 28.0195C183.408 28.6188 184.175 29.5296 184.87 30.4164L184.774 30.4883H184.786Z" fill="#595CFF"/>
<path d="M241.292 79.6841C241.172 81.5657 241.124 84.2262 242.263 85.5445C244.408 86.7668 246.733 88.2289 249.202 88.5046C249.945 88.5046 250.436 87.8814 250.915 87.3061C251.575 86.4193 252.126 85.3887 252.641 84.334L252.761 84.37C252.425 86.1317 251.862 88.0492 250.304 89.1997C249.729 89.5951 248.878 89.5712 248.243 89.3914C245.882 88.6843 243.917 87.39 241.891 86.0718C240.429 84.2981 240.885 81.7454 241.196 79.6602L241.316 79.6841H241.292Z" fill="#595CFF"/>
<path d="M244.121 77.9463C247.237 78.0302 250.712 79.2166 252.522 81.9011C250.065 79.8877 247.105 78.941 244.121 77.9463Z" fill="#595CFF"/>
<path d="M78.7251 38.6854C78.5693 42.2567 78.6652 47.2182 81.9849 49.0158C84.945 49.9506 88.3365 50.406 91.3206 49.3035C92.3153 48.9439 93.1902 48.3207 94.0051 47.6017L94.1849 47.7455C93.5138 48.6443 92.6389 49.3993 91.6202 49.9506C88.4564 51.4606 84.7892 51.185 81.5295 50.1184C78.4495 48.5604 77.8023 44.7734 78.066 41.6695C78.1739 40.6508 78.3057 39.6321 78.5933 38.6494L78.7371 38.6734L78.7251 38.6854Z" fill="#595CFF"/>
<path d="M95.048 41.2861C95.2397 43.2036 94.8562 44.9893 94.5326 46.8468H94.4128C94.3768 45.1331 94.3768 43.2635 93.8975 41.6337L95.048 41.3101V41.2861Z" fill="#595CFF"/>
<path d="M161.55 114.535C161.778 115.329 162.012 116.211 162.257 117.151C162.62 118.542 163.014 120.046 163.471 121.516C163.606 121.951 163.748 122.388 163.898 122.819C163.739 122.439 163.585 122.049 163.437 121.653C162.948 120.348 162.518 118.998 162.094 117.691C161.752 116.636 161.413 115.605 161.055 114.668L161.55 114.535Z" fill="#595CFF" stroke="#595CFF" stroke-width="1.19843"/>
<path d="M125.568 122.699C125.855 123.175 126.187 123.681 126.561 124.202C126.076 123.597 125.641 122.971 125.271 122.346L125.568 122.699Z" stroke="#595CFF" stroke-width="1.19843"/>
<path d="M71.9058 185.325C74.9138 184.127 77.7661 183.288 80.0431 180.963L81.4932 182.761C79.6956 183.959 78.7728 183.887 77.047 184.558C75.3932 185.121 73.6435 185.073 71.9537 185.481L71.9058 185.325Z" fill="#595CFF"/>
</g>
<defs>
<filter id="filter0_d_380_14205" x="0.0284672" y="7.19328" width="319.899" height="419.4" filterUnits="userSpaceOnUse" color-interpolation-filters="sRGB">
<feFlood flood-opacity="0" result="BackgroundImageFix"/>
<feColorMatrix in="SourceAlpha" type="matrix" values="0 0 0 0 0 0 0 0 0 0 0 0 0 0 0 0 0 0 127 0" result="hardAlpha"/>
<feOffset dy="4.79372"/>
<feGaussianBlur stdDeviation="4.19451"/>
<feComposite in2="hardAlpha" operator="out"/>
<feColorMatrix type="matrix" values="0 0 0 0 0.254331 0 0 0 0 0.255896 0 0 0 0 0.340952 0 0 0 0.2 0"/>
<feBlend mode="multiply" in2="BackgroundImageFix" result="effect1_dropShadow_380_14205"/>
<feBlend mode="normal" in="SourceGraphic" in2="effect1_dropShadow_380_14205" result="shape"/>
</filter>
<clipPath id="clip0_380_14205">
<rect width="309.195" height="406.268" fill="white"/>
</clipPath>
</defs>
</svg>
