<svg width="864" height="956" viewBox="0 0 864 956" fill="none" xmlns="http://www.w3.org/2000/svg">
<path d="M644.671 809.745C640.709 769.466 617.808 657.991 617.808 657.991C617.808 657.991 589.183 550.962 587.42 520.121C585.658 489.281 569.356 486.208 564.957 483.961C560.558 481.715 538.094 484.882 538.094 484.882C538.094 484.882 397.588 479.157 333.723 496.332C278.204 511.261 212.155 509.981 212.155 509.981C212.155 509.981 172.22 511.775 156.854 509.295C141.488 506.815 102.13 499.093 102.13 499.093C102.13 499.093 86.7803 493.477 83.8788 493.446C80.9772 493.415 71.5862 493.383 62.3044 501.542C53.0226 509.701 34.1002 517.828 34.1002 517.828L19.5926 527.079C19.5926 527.079 0.124181 537.671 -5.4449 543.848C-11.014 550.041 -31.7615 566.265 -31.7615 566.265C-31.7615 566.265 -40.7157 571.163 -42.2445 573.722C-43.7733 576.28 -43.1025 575.687 -43.1025 575.687C-43.1025 575.687 -42.3069 580.336 -40.9809 581.225C-39.655 582.114 -35.5366 586.435 -26.1301 582.847C-16.7235 579.26 -13.5879 576.498 -13.2291 576.483C-12.8703 576.467 -1.99737 569.51 -1.04579 567.544C-1.04579 567.544 9.18758 565.345 18.3134 557.904C27.4392 550.463 29.3423 550.494 29.3423 550.494C29.3423 550.494 38.905 552.771 57.3438 540.401L63.178 536.532C63.178 536.532 73.6298 539.387 78.3097 539.044C82.9896 538.7 88.2935 538.794 90.4306 538.279C92.5678 537.764 97.4661 545.502 97.4661 545.502C97.4661 545.502 84.3 550.041 77.0149 550.946C69.7299 551.851 50.9479 553.707 45.7376 554.924C40.5273 556.156 34.9582 557.404 30.5903 560.259C30.5903 560.259 24.3193 565.173 28.266 577.902C32.2127 590.632 68.6535 584.813 68.6535 584.813C68.6535 584.813 81.6636 581.568 92.7394 577.98C103.8 574.392 119.836 576.233 119.836 576.233C119.836 576.233 135.342 580.586 143.828 579.618C152.314 578.651 174.216 578.261 179.224 575.968C184.231 573.675 188.865 571.039 188.865 571.039C188.865 571.039 225.149 567.903 250.218 574.611C275.287 581.334 319.044 588.12 319.044 588.12L400.958 604.281C400.958 604.281 452.296 609.429 478.238 605.841L482.606 605.561C482.606 605.561 480.407 679.565 481.733 709.064C483.059 738.563 487.458 809.729 487.458 809.729" stroke="#595CFF" stroke-width="4.30743" stroke-miterlimit="10"/>
</svg>
