<svg width="551" height="385" viewBox="0 0 551 385" fill="none" xmlns="http://www.w3.org/2000/svg">
<g>
<g>

<path d="M518.836 363.928C514.874 323.65 491.974 212.175 491.974 212.175C491.974 212.175 463.348 105.146 461.585 74.3051C459.823 43.4645 443.521 40.3914 439.122 38.1451C434.723 35.8987 412.259 39.0654 412.259 39.0654C412.259 39.0654 271.753 33.3404 207.888 50.5156C152.369 65.4445 86.3198 64.1653 86.3198 64.1653C86.3198 64.1653 46.3847 65.9593 31.019 63.4789C15.6534 60.9986 -23.7046 53.2767 -23.7046 53.2767C-23.7046 53.2767 -39.0546 47.6608 -41.9562 47.6297C-44.8577 47.5985 -54.2487 47.5673 -63.5305 55.7259C-72.8123 63.8845 -91.7347 72.0119 -91.7347 72.0119L-106.242 81.2625C-106.242 81.2625 -125.711 91.8547 -131.28 98.0322C-136.849 104.225 -157.596 120.449 -157.596 120.449C-157.596 120.449 -166.551 125.347 -168.079 127.906C-169.608 130.464 -168.937 129.871 -168.937 129.871C-168.937 129.871 -168.142 134.52 -166.816 135.409C-165.49 136.298 -161.372 140.619 -151.965 137.031C-142.558 133.443 -139.423 130.682 -139.064 130.667C-138.705 130.651 -127.832 123.694 -126.881 121.728C-126.881 121.728 -116.647 119.528 -107.522 112.087C-98.3958 104.646 -96.4926 104.678 -96.4926 104.678C-96.4926 104.678 -86.93 106.955 -68.4912 94.5846L-62.6569 90.7159C-62.6569 90.7159 -52.2052 93.5707 -47.5253 93.2275C-42.8454 92.8843 -37.5415 92.9779 -35.4043 92.4631C-33.2672 91.9483 -28.3689 99.6857 -28.3689 99.6857C-28.3689 99.6857 -41.535 104.225 -48.82 105.13C-56.1051 106.035 -74.8871 107.891 -80.0974 109.108C-85.3077 110.34 -90.8767 111.588 -95.2446 114.443C-95.2446 114.443 -101.516 119.357 -97.569 132.086C-93.6223 144.816 -57.1815 138.997 -57.1815 138.997C-57.1815 138.997 -44.1713 135.752 -33.0956 132.164C-22.0354 128.576 -5.99896 130.417 -5.99896 130.417C-5.99896 130.417 9.5071 134.769 17.9933 133.802C26.4795 132.835 48.3815 132.445 53.389 130.152C58.3964 127.859 63.0296 125.222 63.0296 125.222C63.0296 125.222 99.3144 122.087 124.383 128.795C149.452 135.518 193.209 142.304 193.209 142.304L275.123 158.465C275.123 158.465 326.461 163.613 352.403 160.025L356.771 159.744C356.771 159.744 354.572 233.749 355.898 263.248C357.224 292.747 361.623 363.913 361.623 363.913" stroke="#595CFF" stroke-width="4.30743" stroke-miterlimit="10"/>
</g>
</g>

</svg>
