<svg width="864" height="956" viewBox="0 0 864 956" fill="none" xmlns="http://www.w3.org/2000/svg">
<g clip-path="url(#clip0_380_15661)">
<path d="M552.164 197.142H436.228C427.723 197.142 420.828 204.034 420.828 212.535C420.828 221.037 427.723 227.929 436.228 227.929H552.164C560.669 227.929 567.564 221.037 567.564 212.535C567.564 204.034 560.669 197.142 552.164 197.142Z" fill="white" stroke="black" stroke-width="1.19843" stroke-miterlimit="10"/>
<path d="M591.761 247.56H588.165V234.437C588.165 223.351 579.141 214.327 568.056 214.327V210.732C581.131 210.732 591.761 221.362 591.761 234.437V247.56Z" fill="white" stroke="black" stroke-width="1.19843" stroke-miterlimit="10"/>
<path d="M397.123 247.56H400.718V234.437C400.718 223.351 409.743 214.327 420.828 214.327V210.732C407.753 210.732 397.123 221.362 397.123 234.437V247.56Z" fill="white" stroke="black" stroke-width="1.19843" stroke-miterlimit="10"/>

<path d="M478.137 247.56H695.772C723.48 247.56 745.938 270.018 745.938 297.726V342.307V391.671C745.938 391.671 746.957 409.983 725.637 420.134C705.875 429.541 709.051 459.73 709.051 459.73V506.085V571.052C709.314 583.36 715.977 591.797 726.536 597.897C737.429 602.379 745.938 613.237 745.938 624.286C745.938 624.286 745.938 705.288 745.938 711.82C745.938 718.351 737.357 758.055 697.594 758.055H602.45C592.791 756.677 584.797 752.674 579.44 744.525C573.065 731.702 564.376 724.679 553.267 723.768H544.662H530.209H437.714C426.604 724.679 417.928 731.702 411.54 744.525C406.183 752.686 398.19 756.677 388.53 758.055H293.423C253.659 758.067 245.078 718.363 245.078 711.82C245.078 705.276 245.078 624.286 245.078 624.286C245.078 613.237 253.587 602.367 264.481 597.897C275.039 591.797 281.702 583.36 281.966 571.052V506.085V459.73C281.966 459.73 285.154 429.553 265.38 420.134C244.071 409.983 245.09 391.671 245.09 391.671V297.726C245.09 270.018 267.549 247.56 295.256 247.56H514.09" fill="white"/>
<path d="M478.137 247.56H695.772C723.48 247.56 745.938 270.018 745.938 297.726V342.307V391.671C745.938 391.671 746.957 409.983 725.637 420.134C705.875 429.541 709.051 459.73 709.051 459.73V506.085V571.052C709.314 583.36 715.977 591.797 726.536 597.897C737.429 602.379 745.938 613.237 745.938 624.286C745.938 624.286 745.938 705.288 745.938 711.82C745.938 718.351 737.357 758.055 697.594 758.055H602.45C592.791 756.677 584.797 752.674 579.44 744.525C573.065 731.702 564.376 724.679 553.267 723.768H544.662H530.209H437.714C426.604 724.679 417.928 731.702 411.54 744.525C406.183 752.686 398.19 756.677 388.53 758.055H293.423C253.659 758.067 245.078 718.363 245.078 711.82C245.078 705.276 245.078 624.286 245.078 624.286C245.078 613.237 253.587 602.367 264.481 597.897C275.039 591.797 281.702 583.36 281.966 571.052V506.085V459.73C281.966 459.73 285.154 429.553 265.38 420.134C244.071 409.983 245.09 391.671 245.09 391.671V297.726C245.09 270.018 267.549 247.56 295.256 247.56H514.09" fill="none" stroke="#000000" stroke-width="5" stroke-linecap="round" stroke-linejoin="round"/>
<path d="M624.646 425.455C630.576 425.455 635.384 430.262 635.384 436.192V695.258C635.384 701.188 630.576 705.995 624.646 705.995H366.443C360.513 705.995 355.706 701.188 355.706 695.258V436.192C355.706 430.262 360.513 425.455 366.443 425.455H624.646Z" fill="#FBFBFF" stroke="black" stroke-width="2.39686" stroke-miterlimit="10"/>
<path d="M418.252 302.376C419.794 302.376 421.045 301.126 421.045 299.584C421.045 298.041 419.794 296.791 418.252 296.791C416.71 296.791 415.46 298.041 415.46 299.584C415.46 301.126 416.71 302.376 418.252 302.376Z" stroke="#C5C5D3" stroke-width="1.19843" stroke-miterlimit="10"/>
<path d="M396.68 398.658C398.222 398.658 399.472 397.408 399.472 395.866C399.472 394.323 398.222 393.073 396.68 393.073C395.138 393.073 393.888 394.323 393.888 395.866C393.888 397.408 395.138 398.658 396.68 398.658Z" stroke="#C5C5D3" stroke-width="1.19843" stroke-miterlimit="10"/>
<path d="M333.211 302.376C334.753 302.376 336.004 301.126 336.004 299.584C336.004 298.041 334.753 296.791 333.211 296.791C331.669 296.791 330.419 298.041 330.419 299.584C330.419 301.126 331.669 302.376 333.211 302.376Z" stroke="#C5C5D3" stroke-width="1.19843" stroke-miterlimit="10"/>
<path d="M333.211 362.286C334.753 362.286 336.004 361.035 336.004 359.493C336.004 357.951 334.753 356.701 333.211 356.701C331.669 356.701 330.419 357.951 330.419 359.493C330.419 361.035 331.669 362.286 333.211 362.286Z" stroke="#C5C5D3" stroke-width="1.19843" stroke-miterlimit="10"/>
<path d="M375.552 326.716C377.094 326.716 378.344 325.466 378.344 323.924C378.344 322.382 377.094 321.131 375.552 321.131C374.01 321.131 372.76 322.382 372.76 323.924C372.76 325.466 374.01 326.716 375.552 326.716Z" stroke="#C5C5D3" stroke-width="1.19843" stroke-miterlimit="10"/>
<path d="M458.998 326.716C460.541 326.716 461.791 325.466 461.791 323.924C461.791 322.382 460.541 321.131 458.998 321.131C457.456 321.131 456.206 322.382 456.206 323.924C456.206 325.466 457.456 326.716 458.998 326.716Z" stroke="#C5C5D3" stroke-width="1.19843" stroke-miterlimit="10"/>
<path d="M458.998 377.038C460.541 377.038 461.791 375.788 461.791 374.246C461.791 372.704 460.541 371.454 458.998 371.454C457.456 371.454 456.206 372.704 456.206 374.246C456.206 375.788 457.456 377.038 458.998 377.038Z" stroke="#C5C5D3" stroke-width="1.19843" stroke-miterlimit="10"/>
<path d="M572.885 302.376C574.427 302.376 575.677 301.126 575.677 299.584C575.677 298.041 574.427 296.791 572.885 296.791C571.343 296.791 570.093 298.041 570.093 299.584C570.093 301.126 571.343 302.376 572.885 302.376Z" stroke="#C5C5D3" stroke-width="1.19843" stroke-miterlimit="10"/>
<path d="M594.457 398.658C596 398.658 597.25 397.408 597.25 395.866C597.25 394.323 596 393.073 594.457 393.073C592.915 393.073 591.665 394.323 591.665 395.866C591.665 397.408 592.915 398.658 594.457 398.658Z" stroke="#C5C5D3" stroke-width="1.19843" stroke-miterlimit="10"/>
<path d="M657.938 302.376C659.48 302.376 660.73 301.126 660.73 299.584C660.73 298.041 659.48 296.791 657.938 296.791C656.396 296.791 655.146 298.041 655.146 299.584C655.146 301.126 656.396 302.376 657.938 302.376Z" stroke="#C5C5D3" stroke-width="1.19843" stroke-miterlimit="10"/>
<path d="M615.597 326.716C617.139 326.716 618.389 325.466 618.389 323.924C618.389 322.382 617.139 321.131 615.597 321.131C614.055 321.131 612.805 322.382 612.805 323.924C612.805 325.466 614.055 326.716 615.597 326.716Z" stroke="#C5C5D3" stroke-width="1.19843" stroke-miterlimit="10"/>
<path d="M532.151 326.716C533.693 326.716 534.943 325.466 534.943 323.924C534.943 322.382 533.693 321.131 532.151 321.131C530.609 321.131 529.358 322.382 529.358 323.924C529.358 325.466 530.609 326.716 532.151 326.716Z" stroke="#C5C5D3" stroke-width="1.19843" stroke-miterlimit="10"/>
<path d="M532.151 377.038C533.693 377.038 534.943 375.788 534.943 374.246C534.943 372.704 533.693 371.454 532.151 371.454C530.609 371.454 529.358 372.704 529.358 374.246C529.358 375.788 530.609 377.038 532.151 377.038Z" stroke="#C5C5D3" stroke-width="1.19843" stroke-miterlimit="10"/>
<path d="M307.517 450.358C309.059 450.358 310.309 449.108 310.309 447.566C310.309 446.024 309.059 444.773 307.517 444.773C305.975 444.773 304.725 446.024 304.725 447.566C304.725 449.108 305.975 450.358 307.517 450.358Z" stroke="#C5C5D3" stroke-width="1.19843" stroke-miterlimit="10"/>
<path d="M332.684 489.906C334.226 489.906 335.476 488.656 335.476 487.114C335.476 485.572 334.226 484.322 332.684 484.322C331.142 484.322 329.892 485.572 329.892 487.114C329.892 488.656 331.142 489.906 332.684 489.906Z" stroke="#C5C5D3" stroke-width="1.19843" stroke-miterlimit="10"/>
<path d="M307.517 529.455C309.059 529.455 310.309 528.204 310.309 526.662C310.309 525.12 309.059 523.87 307.517 523.87C305.975 523.87 304.725 525.12 304.725 526.662C304.725 528.204 305.975 529.455 307.517 529.455Z" stroke="#C5C5D3" stroke-width="1.19843" stroke-miterlimit="10"/>
<path d="M325.494 569.003C327.036 569.003 328.286 567.752 328.286 566.21C328.286 564.668 327.036 563.418 325.494 563.418C323.951 563.418 322.701 564.668 322.701 566.21C322.701 567.752 323.951 569.003 325.494 569.003Z" stroke="#C5C5D3" stroke-width="1.19843" stroke-miterlimit="10"/>
<path d="M332.468 646.937C334.01 646.937 335.26 645.687 335.26 644.144C335.26 642.602 334.01 641.352 332.468 641.352C330.926 641.352 329.676 642.602 329.676 644.144C329.676 645.687 330.926 646.937 332.468 646.937Z" stroke="#C5C5D3" stroke-width="1.19843" stroke-miterlimit="10"/>
<path d="M307.301 607.388C308.843 607.388 310.093 606.138 310.093 604.596C310.093 603.054 308.843 601.804 307.301 601.804C305.759 601.804 304.509 603.054 304.509 604.596C304.509 606.138 305.759 607.388 307.301 607.388Z" stroke="#C5C5D3" stroke-width="1.19843" stroke-miterlimit="10"/>
<path d="M307.433 686.665C308.975 686.665 310.225 685.415 310.225 683.872C310.225 682.33 308.975 681.08 307.433 681.08C305.891 681.08 304.641 682.33 304.641 683.872C304.641 685.415 305.891 686.665 307.433 686.665Z" stroke="#C5C5D3" stroke-width="1.19843" stroke-miterlimit="10"/>
<path d="M356.569 729.808C358.111 729.808 359.361 728.558 359.361 727.016C359.361 725.474 358.111 724.224 356.569 724.224C355.027 724.224 353.776 725.474 353.776 727.016C353.776 728.558 355.027 729.808 356.569 729.808Z" stroke="#C5C5D3" stroke-width="1.19843" stroke-miterlimit="10"/>
<path d="M633.407 729.808C634.949 729.808 636.199 728.558 636.199 727.016C636.199 725.474 634.949 724.224 633.407 724.224C631.864 724.224 630.614 725.474 630.614 727.016C630.614 728.558 631.864 729.808 633.407 729.808Z" stroke="#C5C5D3" stroke-width="1.19843" stroke-miterlimit="10"/>
<path d="M289.073 636.954C290.291 636.954 291.278 635.704 291.278 634.162C291.278 632.619 290.291 631.369 289.073 631.369C287.855 631.369 286.868 632.619 286.868 634.162C286.868 635.704 287.855 636.954 289.073 636.954Z" stroke="#C5C5D3" stroke-width="1.19843" stroke-miterlimit="10"/>
<path d="M259.112 699.955C260.33 699.955 261.317 698.705 261.317 697.163C261.317 695.621 260.33 694.371 259.112 694.371C257.894 694.371 256.907 695.621 256.907 697.163C256.907 698.705 257.894 699.955 259.112 699.955Z" stroke="#C5C5D3" stroke-width="1.19843" stroke-miterlimit="10"/>
<path d="M289.073 384.768C290.291 384.768 291.278 383.518 291.278 381.976C291.278 380.434 290.291 379.183 289.073 379.183C287.855 379.183 286.868 380.434 286.868 381.976C286.868 383.518 287.855 384.768 289.073 384.768Z" stroke="#C5C5D3" stroke-width="1.19843" stroke-miterlimit="10"/>
<path d="M259.112 321.767C260.33 321.767 261.317 320.516 261.317 318.974C261.317 317.432 260.33 316.182 259.112 316.182C257.894 316.182 256.907 317.432 256.907 318.974C256.907 320.516 257.894 321.767 259.112 321.767Z" stroke="#C5C5D3" stroke-width="1.19843" stroke-miterlimit="10"/>
<path d="M658.658 647.943C660.2 647.943 661.45 646.693 661.45 645.151C661.45 643.609 660.2 642.359 658.658 642.359C657.115 642.359 655.865 643.609 655.865 645.151C655.865 646.693 657.115 647.943 658.658 647.943Z" stroke="#C5C5D3" stroke-width="1.19843" stroke-miterlimit="10"/>
<path d="M683.825 608.395C685.367 608.395 686.617 607.145 686.617 605.603C686.617 604.061 685.367 602.811 683.825 602.811C682.282 602.811 681.032 604.061 681.032 605.603C681.032 607.145 682.282 608.395 683.825 608.395Z" stroke="#C5C5D3" stroke-width="1.19843" stroke-miterlimit="10"/>
<path d="M664.65 568.847C666.192 568.847 667.442 567.597 667.442 566.055C667.442 564.512 666.192 563.262 664.65 563.262C663.108 563.262 661.857 564.512 661.857 566.055C661.857 567.597 663.108 568.847 664.65 568.847Z" stroke="#C5C5D3" stroke-width="1.19843" stroke-miterlimit="10"/>
<path d="M683.825 529.299C685.367 529.299 686.617 528.049 686.617 526.506C686.617 524.964 685.367 523.714 683.825 523.714C682.282 523.714 681.032 524.964 681.032 526.506C681.032 528.049 682.282 529.299 683.825 529.299Z" stroke="#C5C5D3" stroke-width="1.19843" stroke-miterlimit="10"/>
<path d="M683.609 451.377C685.151 451.377 686.401 450.127 686.401 448.584C686.401 447.042 685.151 445.792 683.609 445.792C682.067 445.792 680.816 447.042 680.816 448.584C680.816 450.127 682.067 451.377 683.609 451.377Z" stroke="#C5C5D3" stroke-width="1.19843" stroke-miterlimit="10"/>
<path d="M658.442 490.925C659.984 490.925 661.234 489.675 661.234 488.133C661.234 486.591 659.984 485.34 658.442 485.34C656.9 485.34 655.649 486.591 655.649 488.133C655.649 489.675 656.9 490.925 658.442 490.925Z" stroke="#C5C5D3" stroke-width="1.19843" stroke-miterlimit="10"/>
<path d="M658.574 362.513C660.116 362.513 661.366 361.263 661.366 359.721C661.366 358.179 660.116 356.928 658.574 356.928C657.031 356.928 655.781 358.179 655.781 359.721C655.781 361.263 657.031 362.513 658.574 362.513Z" stroke="#C5C5D3" stroke-width="1.19843" stroke-miterlimit="10"/>
<path d="M702.531 385.175C703.749 385.175 704.736 383.925 704.736 382.383C704.736 380.841 703.749 379.591 702.531 379.591C701.313 379.591 700.326 380.841 700.326 382.383C700.326 383.925 701.313 385.175 702.531 385.175Z" stroke="#C5C5D3" stroke-width="1.19843" stroke-miterlimit="10"/>
<path d="M701.333 636.846C702.551 636.846 703.538 635.596 703.538 634.054C703.538 632.511 702.551 631.261 701.333 631.261C700.115 631.261 699.128 632.511 699.128 634.054C699.128 635.596 700.115 636.846 701.333 636.846Z" stroke="#C5C5D3" stroke-width="1.19843" stroke-miterlimit="10"/>
<path d="M682.314 687.456C683.856 687.456 685.106 686.205 685.106 684.663C685.106 683.121 683.856 681.871 682.314 681.871C680.772 681.871 679.521 683.121 679.521 684.663C679.521 686.205 680.772 687.456 682.314 687.456Z" stroke="#C5C5D3" stroke-width="1.19843" stroke-miterlimit="10"/>
<path d="M731.45 701.837C732.668 701.837 733.655 700.587 733.655 699.045C733.655 697.502 732.668 696.252 731.45 696.252C730.232 696.252 729.245 697.502 729.245 699.045C729.245 700.587 730.232 701.837 731.45 701.837Z" stroke="#C5C5D3" stroke-width="1.19843" stroke-miterlimit="10"/>
<path d="M732.421 322.114C733.639 322.114 734.626 320.864 734.626 319.322C734.626 317.779 733.639 316.529 732.421 316.529C731.203 316.529 730.216 317.779 730.216 319.322C730.216 320.864 731.203 322.114 732.421 322.114Z" stroke="#C5C5D3" stroke-width="1.19843" stroke-miterlimit="10"/>
<path d="M662.942 394.493L661.645 393.197C660.26 391.811 658.014 391.811 656.628 393.197L643.68 406.145C642.294 407.53 642.294 409.777 643.68 411.162L644.976 412.458C646.362 413.844 648.608 413.844 649.993 412.458L662.942 399.51C664.327 398.125 664.327 395.878 662.942 394.493Z" fill="#F5F6FC" stroke="black" stroke-width="1.19843" stroke-miterlimit="10"/>
<path d="M329.778 392.876L328.481 394.172C327.096 395.557 327.096 397.803 328.481 399.189L341.43 412.137C342.815 413.523 345.061 413.523 346.446 412.137L347.743 410.841C349.128 409.455 349.128 407.209 347.743 405.824L334.794 392.876C333.409 391.49 331.163 391.49 329.778 392.876Z" fill="#F5F6FC" stroke="black" stroke-width="1.19843" stroke-miterlimit="10"/>
<path d="M645.359 711.043L644.062 712.339C642.677 713.725 642.677 715.971 644.062 717.356L657.011 730.305C658.396 731.69 660.642 731.69 662.027 730.305L663.324 729.008C664.709 727.623 664.709 725.377 663.324 723.991L650.375 711.043C648.99 709.657 646.744 709.657 645.359 711.043Z" fill="#F5F6FC" stroke="black" stroke-width="1.19843" stroke-miterlimit="10"/>
<path d="M347.754 712.332L346.458 711.036C345.072 709.65 342.826 709.65 341.441 711.036L328.492 723.984C327.107 725.37 327.107 727.616 328.492 729.001L329.789 730.298C331.174 731.683 333.42 731.683 334.806 730.298L347.754 717.349C349.139 715.964 349.139 713.718 347.754 712.332Z" fill="#F5F6FC" stroke="black" stroke-width="1.19843" stroke-miterlimit="10"/>
<path d="M496.737 389.49H494.904C492.945 389.49 491.356 391.078 491.356 393.037V411.96C491.356 413.919 492.945 415.508 494.904 415.508H496.737C498.697 415.508 500.285 413.919 500.285 411.96V393.037C500.285 391.078 498.697 389.49 496.737 389.49Z" fill="#F5F6FC" stroke="black" stroke-width="1.19843" stroke-miterlimit="10"/>
<path d="M493.117 432.49H445.911V436.085H493.117V432.49Z" fill="#C5C5D3"/>
<path d="M544.566 698.96H543.344V695.006H544.614C544.998 695.006 545.321 695.09 545.597 695.245C545.872 695.401 546.076 695.629 546.22 695.928C546.364 696.228 546.436 696.576 546.436 696.983C546.436 697.39 546.364 697.75 546.22 698.05C546.076 698.349 545.86 698.577 545.573 698.733C545.285 698.889 544.95 698.972 544.554 698.972L544.566 698.96ZM543.823 698.529H544.53C544.854 698.529 545.129 698.469 545.345 698.337C545.561 698.205 545.717 698.026 545.824 697.798C545.932 697.57 545.98 697.283 545.98 696.959C545.98 696.635 545.932 696.36 545.824 696.132C545.717 695.904 545.561 695.725 545.357 695.593C545.153 695.473 544.89 695.401 544.578 695.401H543.811V698.505L543.823 698.529Z" fill="#C5C5D3"/>
<path d="M550.594 696.983C550.594 697.402 550.522 697.762 550.366 698.061C550.211 698.361 550.007 698.601 549.743 698.769C549.48 698.936 549.18 699.02 548.844 699.02C548.509 699.02 548.209 698.936 547.946 698.769C547.682 698.601 547.478 698.373 547.322 698.061C547.167 697.762 547.095 697.39 547.095 696.983C547.095 696.575 547.167 696.204 547.322 695.904C547.478 695.605 547.682 695.365 547.946 695.197C548.209 695.029 548.509 694.946 548.844 694.946C549.18 694.946 549.48 695.029 549.743 695.197C550.007 695.365 550.211 695.593 550.366 695.904C550.51 696.204 550.594 696.563 550.594 696.983ZM550.139 696.983C550.139 696.635 550.079 696.348 549.971 696.12C549.863 695.88 549.707 695.701 549.504 695.581C549.312 695.461 549.096 695.401 548.856 695.401C548.617 695.401 548.401 695.461 548.209 695.581C548.018 695.701 547.862 695.88 547.742 696.12C547.634 696.36 547.574 696.647 547.574 696.983C547.574 697.318 547.634 697.618 547.742 697.846C547.862 698.085 548.006 698.265 548.209 698.385C548.401 698.505 548.617 698.565 548.856 698.565C549.096 698.565 549.312 698.505 549.504 698.385C549.695 698.265 549.851 698.085 549.971 697.846C550.091 697.606 550.139 697.318 550.139 696.983Z" fill="#C5C5D3"/>
<path d="M556.072 694.994V698.948H555.604L553.447 695.845H553.411V698.948H552.932V694.994H553.399L555.568 698.11H555.604V694.994H556.072Z" fill="#C5C5D3"/>
<path d="M560.373 696.983C560.373 697.402 560.302 697.762 560.146 698.061C559.99 698.361 559.786 698.601 559.523 698.769C559.259 698.936 558.959 699.02 558.624 699.02C558.288 699.02 557.989 698.936 557.725 698.769C557.461 698.601 557.257 698.373 557.102 698.061C556.946 697.762 556.874 697.39 556.874 696.983C556.874 696.575 556.946 696.204 557.102 695.904C557.257 695.605 557.461 695.365 557.725 695.197C557.989 695.029 558.288 694.946 558.624 694.946C558.959 694.946 559.259 695.029 559.523 695.197C559.786 695.365 559.99 695.593 560.146 695.904C560.29 696.204 560.373 696.563 560.373 696.983ZM559.906 696.983C559.906 696.635 559.846 696.348 559.738 696.12C559.63 695.88 559.475 695.701 559.271 695.581C559.079 695.461 558.863 695.401 558.624 695.401C558.384 695.401 558.168 695.461 557.977 695.581C557.785 695.701 557.629 695.88 557.509 696.12C557.401 696.36 557.341 696.647 557.341 696.983C557.341 697.318 557.401 697.618 557.509 697.846C557.629 698.085 557.773 698.265 557.977 698.385C558.168 698.505 558.384 698.565 558.624 698.565C558.863 698.565 559.079 698.505 559.271 698.385C559.463 698.265 559.618 698.085 559.738 697.846C559.858 697.606 559.906 697.318 559.906 696.983Z" fill="#C5C5D3"/>
<path d="M560.793 695.425V694.994H563.765V695.425H562.519V698.96H562.039V695.425H560.793Z" fill="#C5C5D3"/>
<path d="M566.042 698.96V695.006H568.427V695.437H566.521V696.779H568.307V697.199H566.521V698.541H568.463V698.96H566.042Z" fill="#C5C5D3"/>
<path d="M569.529 694.994L570.548 696.647H570.584L571.602 694.994H572.166L570.919 696.971L572.166 698.948H571.602L570.584 697.331H570.548L569.529 698.948H568.966L570.236 696.971L568.966 694.994H569.529Z" fill="#C5C5D3"/>
<path d="M575.917 696.24H575.438C575.414 696.108 575.366 695.976 575.294 695.88C575.222 695.784 575.138 695.689 575.042 695.617C574.946 695.545 574.827 695.497 574.707 695.461C574.587 695.425 574.455 695.413 574.323 695.413C574.084 695.413 573.868 695.473 573.676 695.593C573.484 695.713 573.328 695.892 573.209 696.132C573.101 696.372 573.041 696.659 573.041 696.995C573.041 697.33 573.101 697.63 573.209 697.858C573.328 698.097 573.472 698.277 573.676 698.397C573.868 698.517 574.084 698.577 574.323 698.577C574.455 698.577 574.575 698.565 574.707 698.529C574.827 698.493 574.934 698.433 575.042 698.373C575.138 698.301 575.222 698.217 575.294 698.109C575.366 698.002 575.414 697.882 575.438 697.75H575.917C575.881 697.954 575.821 698.133 575.713 698.289C575.618 698.445 575.498 698.589 575.354 698.697C575.21 698.804 575.054 698.888 574.874 698.948C574.695 699.008 574.515 699.032 574.311 699.032C573.976 699.032 573.676 698.948 573.412 698.78C573.149 698.613 572.945 698.385 572.789 698.073C572.633 697.774 572.562 697.402 572.562 696.995C572.562 696.587 572.633 696.216 572.789 695.916C572.945 695.617 573.149 695.377 573.412 695.209C573.676 695.041 573.976 694.958 574.311 694.958C574.515 694.958 574.695 694.981 574.874 695.041C575.054 695.101 575.21 695.185 575.354 695.293C575.498 695.401 575.618 695.545 575.713 695.701C575.809 695.856 575.869 696.036 575.917 696.24Z" fill="#C5C5D3"/>
<path d="M576.685 698.96V695.006H579.069V695.437H577.164V696.779H578.95V697.199H577.164V698.541H579.105V698.96H576.685Z" fill="#C5C5D3"/>
<path d="M579.943 698.96V695.006H582.328V695.437H580.423V696.779H582.208V697.199H580.423V698.541H582.364V698.96H579.943Z" fill="#C5C5D3"/>
<path d="M584.414 698.96H583.191V695.006H584.462C584.845 695.006 585.169 695.09 585.444 695.245C585.72 695.401 585.924 695.629 586.068 695.928C586.211 696.228 586.283 696.576 586.283 696.983C586.283 697.39 586.211 697.75 586.068 698.05C585.924 698.349 585.708 698.577 585.42 698.733C585.133 698.889 584.797 698.972 584.402 698.972L584.414 698.96ZM583.671 698.529H584.378C584.701 698.529 584.977 698.469 585.193 698.337C585.408 698.205 585.564 698.026 585.672 697.798C585.78 697.57 585.828 697.283 585.828 696.959C585.828 696.635 585.78 696.36 585.672 696.132C585.564 695.904 585.408 695.725 585.205 695.593C585.001 695.473 584.737 695.401 584.426 695.401H583.659V698.505L583.671 698.529Z" fill="#C5C5D3"/>
<path d="M589.915 699.008C589.663 699.008 589.435 698.96 589.232 698.876C589.028 698.793 588.872 698.673 588.752 698.505C588.632 698.349 588.573 698.169 588.561 697.954H589.052C589.052 698.085 589.1 698.193 589.184 698.289C589.268 698.385 589.364 698.457 589.483 698.505C589.603 698.553 589.747 698.577 589.903 698.577C590.071 698.577 590.226 698.553 590.358 698.493C590.49 698.433 590.598 698.349 590.67 698.241C590.742 698.133 590.778 698.014 590.778 697.87C590.778 697.726 590.742 697.594 590.67 697.486C590.598 697.378 590.49 697.283 590.358 697.223C590.226 697.163 590.047 697.127 589.843 697.127H589.531V696.707H589.843C589.999 696.707 590.142 696.683 590.262 696.623C590.382 696.563 590.478 696.492 590.538 696.384C590.61 696.276 590.634 696.156 590.634 696.024C590.634 695.892 590.61 695.772 590.55 695.677C590.49 695.581 590.406 695.497 590.298 695.449C590.19 695.401 590.059 695.365 589.915 695.365C589.783 695.365 589.651 695.389 589.531 695.437C589.411 695.485 589.316 695.557 589.232 695.653C589.148 695.749 589.112 695.856 589.112 695.988H588.644C588.644 695.784 588.716 695.593 588.836 695.437C588.956 695.281 589.112 695.161 589.292 695.065C589.483 694.982 589.687 694.934 589.915 694.934C590.166 694.934 590.37 694.982 590.55 695.077C590.73 695.173 590.862 695.305 590.957 695.473C591.053 695.629 591.101 695.808 591.101 696C591.101 696.228 591.041 696.408 590.921 696.575C590.802 696.731 590.646 696.839 590.442 696.899V696.935C590.694 696.971 590.886 697.079 591.029 697.259C591.173 697.438 591.245 697.642 591.245 697.894C591.245 698.109 591.185 698.301 591.065 698.469C590.945 698.637 590.79 698.769 590.586 698.876C590.382 698.972 590.154 699.02 589.903 699.02L589.915 699.008Z" fill="#C5C5D3"/>
<path d="M593.33 699.008C593.043 699.008 592.791 698.924 592.587 698.769C592.384 698.613 592.228 698.373 592.12 698.073C592.012 697.774 591.952 697.402 591.952 696.971C591.952 696.54 592.012 696.18 592.12 695.868C592.228 695.569 592.384 695.329 592.587 695.173C592.791 695.017 593.043 694.934 593.33 694.934C593.618 694.934 593.87 695.017 594.073 695.173C594.277 695.329 594.433 695.569 594.541 695.868C594.649 696.168 594.709 696.54 594.709 696.971C594.709 697.402 594.649 697.774 594.541 698.073C594.433 698.373 594.277 698.613 594.073 698.769C593.87 698.924 593.618 699.008 593.33 699.008ZM593.33 698.589C593.618 698.589 593.846 698.445 594.001 698.169C594.157 697.894 594.241 697.498 594.241 696.983C594.241 696.635 594.205 696.348 594.133 696.108C594.061 695.868 593.954 695.689 593.822 695.557C593.69 695.425 593.522 695.365 593.33 695.365C593.043 695.365 592.815 695.509 592.659 695.784C592.503 696.06 592.42 696.468 592.42 696.983C592.42 697.33 592.456 697.618 592.527 697.858C592.599 698.097 592.707 698.277 592.839 698.409C592.971 698.529 593.139 698.601 593.33 698.601V698.589Z" fill="#C5C5D3"/>
<path d="M596.734 699.008C596.446 699.008 596.194 698.924 595.991 698.769C595.787 698.613 595.631 698.373 595.523 698.073C595.415 697.774 595.355 697.402 595.355 696.971C595.355 696.54 595.415 696.18 595.523 695.868C595.631 695.569 595.787 695.329 595.991 695.173C596.194 695.017 596.446 694.934 596.734 694.934C597.021 694.934 597.273 695.017 597.477 695.173C597.68 695.329 597.836 695.569 597.944 695.868C598.052 696.168 598.112 696.54 598.112 696.971C598.112 697.402 598.052 697.774 597.944 698.073C597.836 698.373 597.68 698.613 597.477 698.769C597.273 698.924 597.021 699.008 596.734 699.008ZM596.734 698.589C597.021 698.589 597.249 698.445 597.405 698.169C597.561 697.894 597.644 697.498 597.644 696.983C597.644 696.635 597.609 696.348 597.537 696.108C597.465 695.868 597.357 695.689 597.225 695.557C597.093 695.425 596.925 695.365 596.734 695.365C596.446 695.365 596.218 695.509 596.063 695.784C595.907 696.06 595.823 696.468 595.823 696.983C595.823 697.33 595.859 697.618 595.931 697.858C596.003 698.097 596.11 698.277 596.242 698.409C596.374 698.529 596.542 698.601 596.734 698.601V698.589Z" fill="#C5C5D3"/>
<path d="M598.915 698.96V695.006H599.394V698.541H601.24V698.96H598.915Z" fill="#C5C5D3"/>
<path d="M601.971 698.96V695.006H603.349C603.625 695.006 603.852 695.054 604.032 695.149C604.212 695.245 604.344 695.365 604.428 695.533C604.512 695.701 604.56 695.868 604.56 696.06C604.56 696.228 604.524 696.372 604.464 696.48C604.404 696.588 604.32 696.683 604.224 696.743C604.128 696.803 604.02 696.851 603.912 696.887V696.923C604.032 696.923 604.152 696.971 604.272 697.055C604.392 697.127 604.5 697.247 604.584 697.391C604.667 697.534 604.703 697.714 604.703 697.918C604.703 698.122 604.655 698.301 604.572 698.457C604.488 698.613 604.344 698.745 604.14 698.829C603.936 698.913 603.697 698.972 603.385 698.972H601.959L601.971 698.96ZM602.45 696.743H603.337C603.481 696.743 603.613 696.719 603.733 696.659C603.852 696.6 603.936 696.528 604.008 696.42C604.08 696.312 604.116 696.192 604.116 696.06C604.116 695.88 604.056 695.737 603.936 695.617C603.817 695.497 603.625 695.437 603.361 695.437H602.462V696.755L602.45 696.743ZM602.45 698.529H603.397C603.709 698.529 603.936 698.469 604.068 698.349C604.2 698.229 604.272 698.074 604.272 697.906C604.272 697.774 604.236 697.654 604.164 697.534C604.092 697.414 603.996 697.331 603.876 697.259C603.757 697.187 603.601 697.151 603.433 697.151H602.462V698.529H602.45Z" fill="#C5C5D3"/>
<path d="M607.675 695.988C607.651 695.796 607.556 695.641 607.388 695.533C607.22 695.425 607.016 695.365 606.777 695.365C606.597 695.365 606.453 695.389 606.321 695.449C606.189 695.509 606.093 695.581 606.022 695.689C605.95 695.785 605.914 695.904 605.914 696.024C605.914 696.132 605.938 696.216 605.986 696.3C606.034 696.372 606.105 696.444 606.177 696.492C606.261 696.54 606.345 696.587 606.429 696.611C606.513 696.635 606.597 696.671 606.669 696.683L607.076 696.791C607.184 696.815 607.292 696.851 607.424 696.899C607.556 696.947 607.675 697.007 607.783 697.091C607.903 697.175 607.999 697.283 608.071 697.402C608.143 697.522 608.179 697.69 608.179 697.87C608.179 698.086 608.119 698.277 608.011 698.445C607.903 698.613 607.735 698.757 607.52 698.853C607.304 698.948 607.052 699.008 606.741 699.008C606.453 699.008 606.213 698.96 606.01 698.876C605.806 698.781 605.638 698.661 605.518 698.493C605.398 698.325 605.338 698.145 605.314 697.918H605.806C605.818 698.062 605.866 698.193 605.962 698.289C606.046 698.385 606.165 698.457 606.297 698.505C606.429 698.553 606.585 698.577 606.741 698.577C606.92 698.577 607.088 698.553 607.232 698.493C607.376 698.433 607.496 698.349 607.58 698.241C607.663 698.133 607.711 698.002 607.711 697.858C607.711 697.726 607.675 697.618 607.603 697.534C607.532 697.45 607.436 697.39 607.316 697.33C607.196 697.283 607.064 697.235 606.932 697.199L606.441 697.055C606.129 696.971 605.89 696.839 605.71 696.671C605.53 696.504 605.434 696.288 605.434 696.024C605.434 695.796 605.494 695.605 605.614 695.437C605.734 695.269 605.902 695.137 606.105 695.053C606.309 694.958 606.537 694.91 606.789 694.91C607.04 694.91 607.268 694.958 607.472 695.041C607.675 695.137 607.831 695.257 607.939 695.413C608.059 695.569 608.119 695.749 608.119 695.952H607.651L607.675 695.988Z" fill="#C5C5D3"/>
<path d="M382.323 436.253L381.221 432.298H381.844L382.611 435.366H382.647L383.45 432.298H384.073L384.876 435.366H384.912L385.679 432.298H386.314L385.211 436.253H384.612L383.773 433.293H383.737L382.899 436.253H382.299H382.323Z" fill="#C5C5D3"/>
<path d="M386.865 436.253V432.298H389.346V432.813H387.464V434.024H389.214V434.539H387.464V435.749H389.37V436.265H386.865V436.253Z" fill="#C5C5D3"/>
<path d="M390.749 432.286V436.24H390.149V432.286H390.749Z" fill="#C5C5D3"/>
<path d="M394.296 433.544C394.26 433.424 394.212 433.316 394.152 433.233C394.092 433.137 394.02 433.065 393.924 432.993C393.828 432.921 393.745 432.873 393.625 432.837C393.517 432.801 393.397 432.789 393.265 432.789C393.037 432.789 392.846 432.849 392.666 432.957C392.486 433.065 392.342 433.244 392.246 433.46C392.139 433.676 392.091 433.952 392.091 434.275C392.091 434.599 392.139 434.862 392.246 435.09C392.354 435.318 392.498 435.486 392.678 435.593C392.858 435.701 393.061 435.761 393.301 435.761C393.517 435.761 393.709 435.713 393.864 435.629C394.02 435.545 394.152 435.414 394.236 435.258C394.32 435.102 394.368 434.91 394.368 434.695L394.523 434.719H393.385V434.227H394.943V434.683C394.943 435.018 394.871 435.306 394.727 435.545C394.583 435.785 394.392 435.977 394.14 436.109C393.888 436.241 393.613 436.312 393.289 436.312C392.93 436.312 392.618 436.229 392.342 436.061C392.067 435.893 391.863 435.665 391.707 435.354C391.551 435.054 391.479 434.695 391.479 434.275C391.479 433.964 391.527 433.676 391.611 433.424C391.695 433.173 391.827 432.957 391.983 432.777C392.139 432.597 392.33 432.466 392.546 432.37C392.762 432.274 393.001 432.226 393.253 432.226C393.469 432.226 393.661 432.262 393.852 432.322C394.044 432.382 394.2 432.478 394.344 432.585C394.488 432.705 394.607 432.837 394.703 432.993C394.799 433.149 394.859 433.328 394.895 433.52H394.284L394.296 433.544Z" fill="#C5C5D3"/>
<path d="M395.697 436.253V432.298H396.296V434.024H398.274V432.298H398.873V436.253H398.274V434.527H396.296V436.253H395.697Z" fill="#C5C5D3"/>
<path d="M399.545 432.801V432.286H402.613V432.801H401.379V436.24H400.779V432.801H399.545Z" fill="#C5C5D3"/>
<path d="M404.722 436.253V432.298H406.172C406.447 432.298 406.687 432.346 406.867 432.442C407.046 432.538 407.19 432.657 407.274 432.813C407.358 432.969 407.406 433.149 407.406 433.34C407.406 433.508 407.382 433.64 407.31 433.76C407.238 433.88 407.166 433.964 407.07 434.036C406.975 434.107 406.855 434.155 406.735 434.179V434.215C406.867 434.215 406.999 434.263 407.118 434.347C407.238 434.419 407.346 434.539 407.43 434.683C407.514 434.827 407.55 434.994 407.55 435.21C407.55 435.426 407.502 435.594 407.406 435.749C407.31 435.905 407.166 436.037 406.963 436.133C406.771 436.229 406.507 436.277 406.208 436.277H404.686L404.722 436.253ZM405.321 434H406.124C406.256 434 406.375 433.976 406.483 433.928C406.591 433.88 406.675 433.808 406.735 433.712C406.795 433.616 406.831 433.508 406.831 433.376C406.831 433.209 406.771 433.077 406.663 432.969C406.543 432.861 406.375 432.801 406.136 432.801H405.321V434ZM405.321 435.737H406.184C406.471 435.737 406.675 435.677 406.795 435.57C406.915 435.462 406.975 435.318 406.975 435.15C406.975 435.03 406.939 434.91 406.879 434.803C406.819 434.695 406.723 434.611 406.603 434.551C406.483 434.491 406.351 434.455 406.184 434.455H405.297V435.725L405.321 435.737Z" fill="#C5C5D3"/>
<path d="M408.281 436.253V432.298H410.762V432.813H408.88V434.024H410.63V434.539H408.88V435.749H410.786V436.265H408.281V436.253Z" fill="#C5C5D3"/>
<path d="M411.901 436.253H411.266L412.692 432.298H413.387L414.813 436.253H414.178L413.063 433.017H413.027L411.901 436.253ZM412.009 434.695H414.07V435.198H412.009V434.695Z" fill="#C5C5D3"/>
<path d="M415.376 436.253V432.298H416.79C417.102 432.298 417.354 432.346 417.557 432.454C417.761 432.562 417.917 432.705 418.013 432.897C418.109 433.089 418.157 433.293 418.157 433.544C418.157 433.796 418.109 434 418.001 434.179C417.905 434.359 417.749 434.503 417.545 434.611C417.342 434.719 417.09 434.767 416.778 434.767H415.712V434.251H416.73C416.922 434.251 417.078 434.227 417.198 434.167C417.318 434.107 417.414 434.036 417.462 433.928C417.521 433.82 417.545 433.7 417.545 433.544C417.545 433.388 417.521 433.269 417.462 433.161C417.402 433.053 417.318 432.969 417.198 432.909C417.078 432.849 416.91 432.825 416.718 432.825H415.963V436.277H415.364L415.376 436.253ZM417.33 434.467L418.312 436.253H417.629L416.671 434.467H417.33Z" fill="#C5C5D3"/>
<path d="M419.487 432.286V436.24H418.888V432.286H419.487Z" fill="#C5C5D3"/>
<path d="M423.549 432.286V436.24H422.998L420.985 433.34H420.949V436.24H420.35V432.286H420.901L422.914 435.198H422.95V432.286H423.537H423.549Z" fill="#C5C5D3"/>
<path d="M427.097 433.544C427.061 433.424 427.013 433.316 426.953 433.233C426.893 433.137 426.821 433.065 426.725 432.993C426.629 432.921 426.545 432.873 426.425 432.837C426.318 432.801 426.198 432.789 426.066 432.789C425.838 432.789 425.646 432.849 425.467 432.957C425.287 433.065 425.143 433.244 425.047 433.46C424.939 433.676 424.891 433.952 424.891 434.275C424.891 434.599 424.939 434.862 425.047 435.09C425.155 435.318 425.299 435.486 425.479 435.593C425.658 435.701 425.862 435.761 426.102 435.761C426.318 435.761 426.509 435.713 426.665 435.629C426.821 435.545 426.953 435.414 427.037 435.258C427.121 435.102 427.168 434.91 427.168 434.695L427.324 434.719H426.186V434.227H427.744V434.683C427.744 435.018 427.672 435.306 427.528 435.545C427.384 435.785 427.192 435.977 426.941 436.109C426.689 436.241 426.413 436.312 426.09 436.312C425.73 436.312 425.419 436.229 425.143 436.061C424.868 435.893 424.664 435.665 424.508 435.354C424.352 435.054 424.28 434.695 424.28 434.275C424.28 433.964 424.328 433.676 424.412 433.424C424.496 433.173 424.628 432.957 424.784 432.777C424.939 432.597 425.131 432.466 425.347 432.37C425.563 432.274 425.802 432.226 426.054 432.226C426.27 432.226 426.461 432.262 426.653 432.322C426.845 432.382 427.001 432.478 427.145 432.585C427.288 432.705 427.408 432.837 427.504 432.993C427.6 433.149 427.66 433.328 427.696 433.52H427.085L427.097 433.544Z" fill="#C5C5D3"/>
<path d="M429.829 436.253V435.857L431.915 432.813H429.817V432.298H432.646V432.693L430.56 435.737H432.658V436.253H429.829Z" fill="#C5C5D3"/>
<path d="M436.672 434.275C436.672 434.695 436.6 435.066 436.444 435.366C436.288 435.665 436.072 435.905 435.809 436.061C435.545 436.229 435.234 436.3 434.898 436.3C434.562 436.3 434.251 436.217 433.975 436.061C433.712 435.893 433.496 435.665 433.34 435.366C433.184 435.066 433.112 434.695 433.112 434.275C433.112 433.856 433.184 433.484 433.34 433.185C433.496 432.885 433.712 432.645 433.975 432.489C434.239 432.322 434.55 432.25 434.898 432.25C435.246 432.25 435.545 432.334 435.809 432.489C436.072 432.657 436.288 432.885 436.444 433.185C436.6 433.484 436.672 433.856 436.672 434.275ZM436.072 434.275C436.072 433.952 436.025 433.676 435.917 433.46C435.809 433.244 435.665 433.077 435.485 432.957C435.305 432.849 435.102 432.789 434.874 432.789C434.646 432.789 434.443 432.849 434.263 432.957C434.083 433.065 433.939 433.244 433.843 433.46C433.735 433.676 433.688 433.952 433.688 434.275C433.688 434.599 433.735 434.874 433.843 435.09C433.951 435.306 434.083 435.474 434.263 435.593C434.443 435.713 434.646 435.761 434.874 435.761C435.102 435.761 435.305 435.701 435.485 435.593C435.665 435.486 435.809 435.318 435.917 435.09C436.025 434.874 436.072 434.599 436.072 434.275Z" fill="#C5C5D3"/>
<path d="M440.603 432.286V436.24H440.052L438.038 433.34H438.003V436.24H437.403V432.286H437.955L439.968 435.198H440.004V432.286H440.591H440.603Z" fill="#C5C5D3"/>
<path d="M441.478 436.253V432.298H443.958V432.813H442.077V434.024H443.826V434.539H442.077V435.749H443.982V436.265H441.478V436.253Z" fill="#C5C5D3"/>
<path d="M624.777 441.094V563.778H628.372V441.094C628.372 436.348 624.514 432.49 619.768 432.49H497.684V436.085H619.768C622.524 436.085 624.777 438.338 624.777 441.094Z" fill="#C5C5D3"/>
<path d="M366.312 563.778V441.094C366.312 438.338 368.565 436.085 371.322 436.085H379.075V432.49H371.322C366.576 432.49 362.717 436.348 362.717 441.094V563.778H366.312Z" fill="#C5C5D3"/>
<path d="M624.777 568.344V690.356C624.777 693.124 622.524 695.365 619.768 695.365H610.54V698.96H619.768C624.514 698.96 628.373 695.102 628.373 690.356V568.344H624.777Z" fill="#C5C5D3"/>
<path d="M366.312 690.356V568.344H362.717V690.356C362.717 695.102 366.576 698.96 371.322 698.96H539.809V695.365H371.322C368.553 695.365 366.312 693.112 366.312 690.356Z" fill="#C5C5D3"/>
<g clip-path="url(#clip1_380_15661)">
<path d="M475.787 287.378V286.57C475.787 286.506 475.73 286.455 475.667 286.462C473.175 286.75 471.267 288.707 470.982 291.176C470.975 291.24 471.026 291.296 471.089 291.296H471.921C471.973 291.296 472.016 291.258 472.022 291.206C472.28 289.267 473.748 287.745 475.698 287.479C475.75 287.472 475.788 287.43 475.788 287.378" fill="black"/>
<path d="M476.824 296.257V297.065C476.824 297.129 476.881 297.18 476.944 297.172C479.436 296.885 481.344 294.929 481.628 292.459C481.635 292.395 481.585 292.338 481.521 292.338H480.689C480.637 292.338 480.595 292.376 480.588 292.429C480.331 294.367 478.863 295.891 476.914 296.155C476.863 296.161 476.824 296.204 476.824 296.256" fill="black"/>
<path d="M480.69 291.296H481.522C481.586 291.296 481.636 291.239 481.629 291.176C481.345 288.707 479.437 286.75 476.945 286.462C476.881 286.455 476.825 286.507 476.825 286.57V287.377C476.825 287.429 476.863 287.472 476.915 287.478C478.865 287.743 480.332 289.266 480.589 291.205C480.596 291.256 480.638 291.295 480.69 291.295" fill="black"/>
<path d="M471.922 292.339H471.09C471.027 292.339 470.976 292.397 470.983 292.459C471.268 294.929 473.175 296.886 475.667 297.173C475.731 297.181 475.787 297.129 475.787 297.066V296.257C475.787 296.205 475.749 296.162 475.697 296.156C473.748 295.892 472.28 294.368 472.023 292.43C472.017 292.379 471.973 292.339 471.922 292.339Z" fill="black"/>
<path d="M503.283 287.378V286.57C503.283 286.506 503.226 286.455 503.163 286.462C500.671 286.75 498.763 288.707 498.479 291.176C498.472 291.24 498.524 291.296 498.587 291.296H499.419C499.471 291.296 499.514 291.258 499.52 291.206C499.777 289.267 501.245 287.744 503.194 287.479C503.245 287.472 503.284 287.43 503.284 287.378" fill="black"/>
<path d="M508.184 291.296H509.016C509.08 291.296 509.131 291.239 509.123 291.176C508.838 288.707 506.931 286.75 504.439 286.462C504.375 286.455 504.319 286.507 504.319 286.57V287.377C504.319 287.429 504.357 287.472 504.409 287.478C506.359 287.743 507.826 289.266 508.083 291.205C508.091 291.256 508.132 291.295 508.184 291.295" fill="black"/>
<path d="M499.417 292.339H498.585C498.522 292.339 498.471 292.397 498.477 292.459C498.762 294.929 500.669 296.886 503.161 297.173C503.225 297.181 503.281 297.129 503.281 297.066V296.257C503.281 296.205 503.243 296.162 503.191 296.156C501.241 295.892 499.774 294.368 499.517 292.43C499.51 292.379 499.468 292.339 499.416 292.339" fill="black"/>
<path d="M504.319 296.257V297.065C504.319 297.129 504.377 297.18 504.439 297.172C506.931 296.885 508.839 294.929 509.123 292.459C509.131 292.395 509.08 292.338 509.016 292.338H508.184C508.132 292.338 508.09 292.376 508.083 292.429C507.826 294.367 506.359 295.891 504.409 296.155C504.359 296.161 504.319 296.204 504.319 296.256" fill="black"/>
<path d="M516.55 291.192C515.143 290.731 514.254 290.373 514.254 289.24C514.254 288.108 515.158 287.438 516.402 287.438C517.712 287.438 518.503 288.17 518.904 289.061C518.929 289.118 518.994 289.14 519.048 289.11L519.736 288.723C519.785 288.695 519.805 288.634 519.781 288.583C519.231 287.388 518.062 286.425 516.402 286.425C514.742 286.425 513.218 287.453 513.218 289.285C513.218 291.207 514.846 291.654 516.535 292.22C518.06 292.727 519.082 293.114 519.082 294.321C519.082 295.438 518.208 296.198 516.638 296.198C515.068 296.198 514.098 295.446 513.701 294.265C513.68 294.202 513.609 294.173 513.551 294.207L512.85 294.618C512.806 294.644 512.786 294.701 512.803 294.749C513.358 296.278 514.747 297.211 516.623 297.211C518.696 297.211 520.117 296.078 520.117 294.291C520.117 292.354 518.429 291.818 516.549 291.192" fill="black"/>
<path d="M495.48 287.265C495.522 287.224 495.522 287.158 495.48 287.116L494.881 286.513C494.84 286.472 494.773 286.472 494.733 286.513L490.913 290.358C490.872 290.399 490.872 290.465 490.913 290.507L491.512 291.11C491.553 291.152 491.619 291.152 491.66 291.11L495.48 287.265Z" fill="black"/>
<path d="M495.263 296.358L490.853 291.922L490.105 291.169L485.695 286.733C485.654 286.691 485.587 286.691 485.547 286.733L484.948 287.336C484.907 287.377 484.907 287.443 484.948 287.485L489.358 291.922L484.948 296.358C484.907 296.4 484.907 296.467 484.948 296.508L485.547 297.11C485.589 297.152 485.655 297.152 485.695 297.11L490.105 292.674L494.515 297.11C494.557 297.152 494.622 297.152 494.663 297.11L495.263 296.508C495.304 296.466 495.304 296.399 495.263 296.358Z" fill="black"/>
</g>
</g>
<g clip-path="url(#clip2_380_15661)">
<g filter="url(#filter0_d_380_15661)">
<path d="M644.671 809.745C640.709 769.466 617.808 657.991 617.808 657.991C617.808 657.991 589.183 550.962 587.42 520.121C585.658 489.281 569.356 486.208 564.957 483.961C560.558 481.715 538.094 484.882 538.094 484.882C538.094 484.882 397.588 479.157 333.723 496.332C278.204 511.261 212.155 509.981 212.155 509.981C212.155 509.981 172.22 511.775 156.854 509.295C141.488 506.815 102.13 499.093 102.13 499.093C102.13 499.093 86.7803 493.477 83.8788 493.446C80.9772 493.415 71.5862 493.383 62.3044 501.542C53.0226 509.701 34.1002 517.828 34.1002 517.828L19.5926 527.079C19.5926 527.079 0.124181 537.671 -5.4449 543.848C-11.014 550.041 -31.7615 566.265 -31.7615 566.265C-31.7615 566.265 -40.7157 571.163 -42.2445 573.722C-43.7733 576.28 -43.1025 575.687 -43.1025 575.687C-43.1025 575.687 -42.3069 580.336 -40.9809 581.225C-39.655 582.114 -35.5366 586.435 -26.1301 582.847C-16.7235 579.26 -13.5879 576.498 -13.2291 576.483C-12.8703 576.467 -1.99737 569.51 -1.04579 567.544C-1.04579 567.544 9.18758 565.345 18.3134 557.904C27.4392 550.463 29.3423 550.494 29.3423 550.494C29.3423 550.494 38.905 552.771 57.3438 540.401L63.178 536.532C63.178 536.532 73.6298 539.387 78.3097 539.044C82.9896 538.7 88.2935 538.794 90.4306 538.279C92.5678 537.764 97.4661 545.502 97.4661 545.502C97.4661 545.502 84.3 550.041 77.0149 550.946C69.7299 551.851 50.9479 553.707 45.7376 554.924C40.5273 556.156 34.9582 557.404 30.5903 560.259C30.5903 560.259 24.3193 565.173 28.266 577.902C32.2127 590.632 68.6535 584.813 68.6535 584.813C68.6535 584.813 81.6636 581.568 92.7394 577.98C103.8 574.392 119.836 576.233 119.836 576.233C119.836 576.233 135.342 580.586 143.828 579.618C152.314 578.651 174.216 578.261 179.224 575.968C184.231 573.675 188.865 571.039 188.865 571.039C188.865 571.039 225.149 567.903 250.218 574.611C275.287 581.334 319.044 588.12 319.044 588.12L400.958 604.281C400.958 604.281 452.296 609.429 478.238 605.841L482.606 605.561C482.606 605.561 480.407 679.565 481.733 709.064C483.059 738.563 487.458 809.729 487.458 809.729" fill="white"/>
<path d="M644.671 809.745C640.709 769.466 617.808 657.991 617.808 657.991C617.808 657.991 589.183 550.962 587.42 520.121C585.658 489.281 569.356 486.208 564.957 483.961C560.558 481.715 538.094 484.882 538.094 484.882C538.094 484.882 397.588 479.157 333.723 496.332C278.204 511.261 212.155 509.981 212.155 509.981C212.155 509.981 172.22 511.775 156.854 509.295C141.488 506.815 102.13 499.093 102.13 499.093C102.13 499.093 86.7803 493.477 83.8788 493.446C80.9772 493.415 71.5862 493.383 62.3044 501.542C53.0226 509.701 34.1002 517.828 34.1002 517.828L19.5926 527.079C19.5926 527.079 0.124181 537.671 -5.4449 543.848C-11.014 550.041 -31.7615 566.265 -31.7615 566.265C-31.7615 566.265 -40.7157 571.163 -42.2445 573.722C-43.7733 576.28 -43.1025 575.687 -43.1025 575.687C-43.1025 575.687 -42.3069 580.336 -40.9809 581.225C-39.655 582.114 -35.5366 586.435 -26.1301 582.847C-16.7235 579.26 -13.5879 576.498 -13.2291 576.483C-12.8703 576.467 -1.99737 569.51 -1.04579 567.544C-1.04579 567.544 9.18758 565.345 18.3134 557.904C27.4392 550.463 29.3423 550.494 29.3423 550.494C29.3423 550.494 38.905 552.771 57.3438 540.401L63.178 536.532C63.178 536.532 73.6298 539.387 78.3097 539.044C82.9896 538.7 88.2935 538.794 90.4306 538.279C92.5678 537.764 97.4661 545.502 97.4661 545.502C97.4661 545.502 84.3 550.041 77.0149 550.946C69.7299 551.851 50.9479 553.707 45.7376 554.924C40.5273 556.156 34.9582 557.404 30.5903 560.259C30.5903 560.259 24.3193 565.173 28.266 577.902C32.2127 590.632 68.6535 584.813 68.6535 584.813C68.6535 584.813 81.6636 581.568 92.7394 577.98C103.8 574.392 119.836 576.233 119.836 576.233C119.836 576.233 135.342 580.586 143.828 579.618C152.314 578.651 174.216 578.261 179.224 575.968C184.231 573.675 188.865 571.039 188.865 571.039C188.865 571.039 225.149 567.903 250.218 574.611C275.287 581.334 319.044 588.12 319.044 588.12L400.958 604.281C400.958 604.281 452.296 609.429 478.238 605.841L482.606 605.561C482.606 605.561 480.407 679.565 481.733 709.064C483.059 738.563 487.458 809.729 487.458 809.729" stroke="#595CFF" stroke-width="4.30743" stroke-miterlimit="10"/>
</g>
</g>
<defs>
<filter id="filter0_d_380_15661" x="-57.4631" y="475.833" width="716.338" height="353.075" filterUnits="userSpaceOnUse" color-interpolation-filters="sRGB">
<feFlood flood-opacity="0" result="BackgroundImageFix"/>
<feColorMatrix in="SourceAlpha" type="matrix" values="0 0 0 0 0 0 0 0 0 0 0 0 0 0 0 0 0 0 127 0" result="hardAlpha"/>
<feOffset dy="6.89189"/>
<feGaussianBlur stdDeviation="6.0304"/>
<feComposite in2="hardAlpha" operator="out"/>
<feColorMatrix type="matrix" values="0 0 0 0 0.254331 0 0 0 0 0.255896 0 0 0 0 0.340952 0 0 0 0.2 0"/>
<feBlend mode="multiply" in2="BackgroundImageFix" result="effect1_dropShadow_380_15661"/>
<feBlend mode="normal" in="SourceGraphic" in2="effect1_dropShadow_380_15661" result="shape"/>
</filter>
<clipPath id="clip0_380_15661">
<rect width="533.302" height="581.239" fill="white" transform="translate(226.503 196.542)"/>
</clipPath>
<clipPath id="clip1_380_15661">
<rect width="49.1357" height="10.7859" fill="white" transform="translate(470.982 286.425)"/>
</clipPath>
<clipPath id="clip2_380_15661">
<rect width="550.08" height="384.696" fill="white" transform="translate(125.835 445.816)"/>
</clipPath>
</defs>
</svg>
