<svg width="740" height="956" viewBox="0 0 740 956" fill="none" xmlns="http://www.w3.org/2000/svg">
<path d="M548.986 843.851L476.349 730.444C476.349 730.444 466.654 712.167 464.844 706.307C464.844 706.307 458.756 691.303 455.365 686.461C455.365 686.461 452.992 680.601 453.112 669.204C453.112 669.204 457.402 659.389 457.965 650.029C458.529 640.669 458.637 619.457 458.637 619.457C458.637 619.457 464.617 589.796 465.408 587.195C466.199 584.595 475.894 558.768 480.64 549.972C485.386 541.175 492.6 529.551 493.163 521.102C493.727 512.653 490.347 509.369 486.62 508.135C482.893 506.9 474.887 511.97 471.052 521.102C467.217 530.234 466.654 531.708 466.654 531.708C466.654 531.708 454.814 553.591 448.27 562.16L441.727 570.729C441.727 570.729 440.6 571.855 437.556 571.628C434.512 571.4 433.05 565.647 433.05 565.647C433.05 565.647 430.569 554.035 430.234 547.491C429.898 540.948 428.424 504.851 428.424 504.851V469.773C428.424 469.773 429.215 458.376 418.837 457.022C408.458 455.667 405.87 464.919 405.306 475.525C404.743 486.132 403.281 526.962 403.281 526.962L401.819 550.991C401.819 550.991 399.003 545.694 398.439 542.194C397.876 538.695 395.503 521.21 395.503 521.21C395.503 521.21 392.339 502.035 390.997 496.845C389.655 491.656 388.061 475.418 387.953 471.019C387.845 466.621 387.162 456.243 387.162 456.243C387.162 456.243 386.707 447.782 377.802 446.547C368.898 445.313 363.134 453.091 363.134 462.223C363.134 471.355 365.387 509.261 365.387 509.261C365.387 509.261 368.323 539.833 368.323 541.295C368.323 542.757 369.449 553.927 368.095 556.18C366.741 558.433 364.716 555.281 364.716 555.281L355.02 533.961L345.205 510.088C345.205 510.088 341.142 500.573 339.788 492.903C338.434 485.233 336.972 471.019 327.612 468.766C318.252 466.513 314.645 475.645 314.861 481.17C315.077 486.695 319.595 512.305 319.595 512.305L330.201 563.514C330.201 563.514 334.599 581.227 332.01 588.777C329.422 596.327 324.448 611.116 324.448 611.116C324.448 611.116 322.423 617.204 319.367 615.179C316.311 613.153 313.842 611.571 309.552 606.718C305.261 601.864 296.022 590.587 296.022 590.587C296.022 590.587 286.734 580.376 277.182 575.81C267.031 570.956 258.571 570.849 254.064 574C254.064 574 248.875 578.171 252.938 585.17C257.001 592.169 263.88 595.656 263.88 595.656C263.88 595.656 273.012 603.554 286.434 627.007C299.856 650.46 318.468 667.61 318.468 667.61C318.468 667.61 338.098 686.449 346.212 690.392C354.325 694.335 358.843 702.46 358.843 702.46C358.843 702.46 370.348 717.009 379.264 747.917C388.181 778.824 403.521 823.262 403.521 823.262L408.602 845.373" fill="none" stroke="#595CFF" stroke-width="5" stroke-linecap="round" stroke-linejoin="round"/>
<path d="M262.358 573.114C264.934 575.043 267.894 576.613 269.584 579.501C271.322 583.708 268.997 588.238 267.055 591.893C266.552 592.84 266.193 593.727 266.073 594.817H265.953C265.881 594.29 265.797 593.739 265.881 593.175C266.624 588.657 270.435 584.463 268.853 579.777C267.427 577.129 264.563 575.187 262.286 573.21L262.358 573.114Z" fill="#595CFF"/>
<path d="M384.37 454.493C384.55 456.638 384.646 458.807 384.262 460.941C384.106 461.636 383.95 462.427 383.303 463.002C381.949 463.853 380.487 463.841 378.977 463.973C376.041 464.056 373.105 463.877 370.348 462.678C366.25 460.881 366.693 453.414 369.437 450.622C368.371 453.043 367.963 455.991 368.754 458.699C369.078 460.042 369.629 460.988 370.876 461.612C373.296 462.846 376.233 463.17 378.953 463.182C380.235 463.146 381.829 463.146 382.92 462.522C383.867 461.672 383.95 459.982 384.13 458.735C384.262 457.321 384.286 455.895 384.238 454.481H384.358L384.37 454.493Z" fill="#595CFF"/>
<path d="M383.627 452.6C380.307 448.968 374.962 449.112 370.54 450.287L370.492 450.179C373.644 448.309 377.946 447.902 381.086 449.999C382.165 450.634 382.98 451.581 383.723 452.516L383.627 452.588V452.6Z" fill="#595CFF"/>
<path d="M425.464 464.907C425.632 466.933 425.728 468.982 425.38 470.995C425.224 471.654 425.092 472.397 424.469 472.961C423.175 473.776 421.797 473.764 420.371 473.883C417.59 473.967 414.81 473.8 412.197 472.673C408.302 470.971 408.734 463.889 411.347 461.252L411.43 461.336C410.136 463.553 410.112 466.465 410.735 468.886C411.047 470.144 411.55 471.019 412.725 471.618C415.002 472.781 417.77 473.092 420.335 473.116C421.545 473.08 423.055 473.08 424.074 472.505C424.505 472.194 424.733 471.523 424.901 470.899C425.356 468.958 425.392 466.921 425.332 464.919H425.452L425.464 464.907Z" fill="#595CFF"/>
<path d="M424.757 463.122C421.605 459.706 416.572 459.874 412.401 460.94L412.353 460.833C415.325 459.047 419.4 458.651 422.36 460.653C423.379 461.252 424.146 462.163 424.841 463.05L424.745 463.122H424.757Z" fill="#595CFF"/>
<path d="M481.263 512.317C481.143 514.199 481.095 516.859 482.233 518.178C484.379 519.4 486.704 520.862 489.172 521.138C489.915 521.138 490.407 520.515 490.886 519.939C491.545 519.053 492.097 518.022 492.612 516.967L492.732 517.003C492.396 518.765 491.833 520.682 490.275 521.833C489.7 522.228 488.849 522.204 488.214 522.025C485.853 521.318 483.887 520.023 481.862 518.705C480.4 516.931 480.855 514.379 481.167 512.293L481.287 512.317H481.263Z" fill="#595CFF"/>
<path d="M484.091 510.58C487.207 510.663 490.683 511.85 492.492 514.534C490.036 512.521 487.075 511.574 484.091 510.58Z" fill="#595CFF"/>
<path d="M318.696 471.319C318.54 474.89 318.636 479.851 321.956 481.649C324.916 482.584 328.307 483.039 331.291 481.937C332.286 481.577 333.161 480.954 333.976 480.235L334.156 480.379C333.484 481.278 332.61 482.033 331.591 482.584C328.427 484.094 324.76 483.818 321.5 482.752C318.42 481.194 317.773 477.407 318.037 474.303C318.145 473.284 318.276 472.265 318.564 471.283L318.708 471.307L318.696 471.319Z" fill="#595CFF"/>
<path d="M335.019 473.919C335.21 475.837 334.827 477.623 334.503 479.48H334.383C334.348 477.766 334.348 475.897 333.868 474.267L335.019 473.943V473.919Z" fill="#595CFF"/>
<path d="M401.521 547.168C401.749 547.962 401.982 548.845 402.228 549.784C402.591 551.175 402.985 552.679 403.441 554.149C403.577 554.585 403.719 555.021 403.869 555.453C403.71 555.072 403.556 554.683 403.407 554.286C402.919 552.981 402.489 551.631 402.065 550.325C401.723 549.269 401.384 548.239 401.025 547.302L401.521 547.168Z" fill="#595CFF" stroke="#595CFF" stroke-width="1.19843"/>
<path d="M365.539 555.332C365.825 555.808 366.157 556.315 366.531 556.835C366.047 556.231 365.612 555.605 365.242 554.979L365.539 555.332Z" stroke="#595CFF" stroke-width="1.19843"/>
<path d="M311.876 617.958C314.885 616.76 317.737 615.921 320.014 613.596L321.464 615.394C319.666 616.592 318.743 616.52 317.018 617.191C315.364 617.755 313.614 617.707 311.924 618.114L311.876 617.958Z" fill="#595CFF"/>
</svg>
