<svg width="155" height="445" viewBox="0 0 155 445" fill="none" xmlns="http://www.w3.org/2000/svg">
<g clip-path="url(#clip0_380_15269)">
<g filter="url(#filter0_d_380_15269)">
<path d="M153.987 453.246C153.987 453.246 152.632 376.343 138.419 314.085C124.205 251.826 107.284 180.759 114.055 136.094C114.055 136.094 120.478 104.623 120.143 95.1554C119.807 85.6878 123.87 74.854 122.516 66.0575C122.516 66.0575 121.329 56.7577 121.497 53.3661C121.665 49.9746 119.975 39.4883 118.285 33.0647C116.595 26.6411 113.036 22.4107 107.451 22.0631C101.867 21.7156 99.4939 24.9394 99.4939 24.9394C99.4939 24.9394 98.4752 13.2666 94.9278 9.03618C91.3805 4.80572 86.2991 4.1346 83.2551 4.1346C80.2111 4.1346 73.9553 7.01083 73.6078 10.738C73.6078 10.738 67.6875 2.61259 64.3079 1.60591C60.9284 0.59923 52.2997 -0.419436 49.2557 3.2957C46.2116 7.01083 43.5032 9.71929 43.3354 11.7566C43.3354 11.7566 39.1049 3.46348 35.7254 2.10925C32.3458 0.755026 25.4069 -0.43142 20.8409 2.10925C16.2748 4.64993 11.541 10.5702 11.7088 15.8193C11.7088 15.8193 6.80725 13.2786 2.74457 15.1482C2.74457 15.1482 0.887 22.926 3.59545 33.2565C3.59545 33.2565 3.36775 43.7427 2.12138 45.4325C0.875016 47.1223 0.371675 59.1426 0.71922 70.3C1.06676 81.4573 0.383659 94.4963 3.42767 104.479C6.47169 114.462 26.7731 154.046 26.7731 154.046C26.7731 154.046 33.0289 167.073 35.0662 180.783C37.1036 194.493 43.0238 225.113 42.8441 235.264C42.6643 245.415 42.5085 307.505 41.4898 323.408C40.4712 339.312 37.7627 391.419 38.9492 407.838C40.1356 424.256 44.0305 453.27 44.0305 453.27H153.998" fill="white"/>
<path d="M153.987 453.246C153.987 453.246 152.632 376.343 138.419 314.085C124.205 251.826 107.284 180.759 114.055 136.094C114.055 136.094 120.478 104.623 120.143 95.1554C119.807 85.6878 123.87 74.854 122.516 66.0575C122.516 66.0575 121.329 56.7577 121.497 53.3661C121.665 49.9746 119.975 39.4883 118.285 33.0647C116.595 26.6411 113.036 22.4107 107.451 22.0631C101.867 21.7156 99.4939 24.9394 99.4939 24.9394C99.4939 24.9394 98.4752 13.2666 94.9278 9.03618C91.3805 4.80572 86.2991 4.1346 83.2551 4.1346C80.2111 4.1346 73.9553 7.01083 73.6078 10.738C73.6078 10.738 67.6875 2.61259 64.3079 1.60591C60.9284 0.59923 52.2997 -0.419436 49.2557 3.2957C46.2116 7.01083 43.5032 9.71929 43.3354 11.7566C43.3354 11.7566 39.1049 3.46348 35.7254 2.10925C32.3458 0.755026 25.4069 -0.43142 20.8409 2.10925C16.2748 4.64993 11.541 10.5702 11.7088 15.8193C11.7088 15.8193 6.80725 13.2786 2.74457 15.1482C2.74457 15.1482 0.887 22.926 3.59545 33.2565C3.59545 33.2565 3.36775 43.7427 2.12138 45.4325C0.875016 47.1223 0.371675 59.1426 0.71922 70.3C1.06676 81.4573 0.383659 94.4963 3.42767 104.479C6.47169 114.462 26.7731 154.046 26.7731 154.046C26.7731 154.046 33.0289 167.073 35.0662 180.783C37.1036 194.493 43.0238 225.113 42.8441 235.264C42.6643 245.415 42.5085 307.505 41.4898 323.408C40.4712 339.312 37.7627 391.419 38.9492 407.838C40.1356 424.256 44.0305 453.27 44.0305 453.27H153.998" stroke="#595CFF" stroke-width="3.3048" stroke-miterlimit="10"/>
</g>
<path d="M99.5057 24.9272C99.5057 24.9272 99.3379 40.6626 99.5057 45.2287C99.6735 49.7947 100.177 54.1929 101.196 56.398" stroke="#595CFF" stroke-width="2.39686" stroke-miterlimit="10" stroke-linecap="round"/>
<path d="M73.6196 10.7139C73.6196 10.7139 75.1416 37.6186 75.1416 43.0236" stroke="#595CFF" stroke-width="2.39686" stroke-miterlimit="10" stroke-linecap="round"/>
<path d="M43.5817 11.9844C43.5817 11.9844 42.9942 30.4282 43.162 34.9942C43.3298 39.5603 43.5814 44.9772 43.5814 44.9772" stroke="#595CFF" stroke-width="2.39686" stroke-miterlimit="10" stroke-linecap="round"/>
<path d="M12.3944 17.3772C12.3944 17.3772 11.7233 28.7743 12.3944 37.2352C13.0655 45.6961 10.1893 60.2451 10.1893 60.2451C10.1893 60.2451 8.83505 69.7246 10.1893 78.5211C10.1893 78.5211 10.8604 85.7956 10.3571 90.3616" stroke="#595CFF" stroke-width="2.39686" stroke-miterlimit="10" stroke-linecap="round"/>
<path d="M4.28653 16.4187C5.23329 19.283 6.14409 22.1352 6.26394 25.1912C6.26394 25.4429 6.07219 25.6466 5.82052 25.6466C5.56885 25.6466 5.36511 25.4549 5.36511 25.2032C5.42504 23.7771 5.2213 22.291 4.95765 20.8289C4.69399 19.3788 4.34645 17.9407 3.95097 16.5146C3.89104 16.3109 4.20264 16.203 4.27454 16.4067L4.28653 16.4187Z" fill="#595CFF"/>
<path d="M3.83084 30.4285C4.43006 29.9611 5.24499 29.3619 5.32888 28.6068C5.37682 28.1874 5.11316 27.1687 5.82024 27.1567C6.50334 27.1567 6.25167 28.1754 6.31159 28.5949C6.26366 29.8173 5.25697 30.5842 4.41807 31.2674C4.19037 31.4351 3.86679 31.3992 3.69901 31.1715C3.51925 30.9318 3.57917 30.5842 3.83084 30.4285Z" fill="#595CFF"/>
</g>
<defs>
<filter id="filter0_d_380_15269" x="-10.294" y="-5.00189" width="175.186" height="474.466" filterUnits="userSpaceOnUse" color-interpolation-filters="sRGB">
<feFlood flood-opacity="0" result="BackgroundImageFix"/>
<feColorMatrix in="SourceAlpha" type="matrix" values="0 0 0 0 0 0 0 0 0 0 0 0 0 0 0 0 0 0 127 0" result="hardAlpha"/>
<feOffset dy="5.28767"/>
<feGaussianBlur stdDeviation="4.62671"/>
<feComposite in2="hardAlpha" operator="out"/>
<feColorMatrix type="matrix" values="0 0 0 0 0.254331 0 0 0 0 0.255896 0 0 0 0 0.340952 0 0 0 0.2 0"/>
<feBlend mode="multiply" in2="BackgroundImageFix" result="effect1_dropShadow_380_15269"/>
<feBlend mode="normal" in="SourceGraphic" in2="effect1_dropShadow_380_15269" result="shape"/>
</filter>
<clipPath id="clip0_380_15269">
<rect width="154.598" height="444.618" fill="white"/>
</clipPath>
</defs>
</svg>
