<svg width="310" height="407" viewBox="0 0 310 407" fill="none" xmlns="http://www.w3.org/2000/svg">
<g>
<g>


<path d="M309.015 411.218L236.378 297.81C236.378 297.81 226.683 279.534 224.873 273.674C224.873 273.674 218.785 258.67 215.394 253.828C215.394 253.828 213.021 247.968 213.141 236.57C213.141 236.57 217.431 226.755 217.994 217.396C218.558 208.036 218.666 186.824 218.666 186.824C218.666 186.824 224.646 157.162 225.437 154.562C226.228 151.961 235.923 126.135 240.669 117.339C245.415 108.542 252.629 96.9173 253.192 88.4684C253.756 80.0195 250.376 76.7358 246.649 75.5014C242.922 74.267 234.916 79.3364 231.081 88.4684C227.246 97.6004 226.683 99.0745 226.683 99.0745C226.683 99.0745 214.843 120.958 208.299 129.527L201.756 138.095C201.756 138.095 200.629 139.222 197.585 138.994C194.541 138.767 193.079 133.014 193.079 133.014C193.079 133.014 190.598 121.401 190.263 114.858C189.927 108.314 188.453 72.2177 188.453 72.2177V37.1396C188.453 37.1396 189.244 25.7426 178.866 24.3883C168.487 23.0341 165.899 32.286 165.335 42.8921C164.772 53.4982 163.31 94.3287 163.31 94.3287L161.848 118.357C161.848 118.357 159.032 113.06 158.468 109.561C157.905 106.061 155.532 88.5763 155.532 88.5763C155.532 88.5763 152.368 69.4014 151.026 64.2122C149.684 59.023 148.09 42.7842 147.982 38.386C147.874 33.9878 147.191 23.6093 147.191 23.6093C147.191 23.6093 146.736 15.1484 137.831 13.914C128.927 12.6797 123.163 20.4575 123.163 29.5895C123.163 38.7216 125.416 76.6279 125.416 76.6279C125.416 76.6279 128.352 107.2 128.352 108.662C128.352 110.124 129.478 121.293 128.124 123.546C126.77 125.8 124.745 122.648 124.745 122.648L115.049 101.328L105.234 77.4548C105.234 77.4548 101.171 67.9393 99.8172 60.2693C98.463 52.5994 97.0009 38.386 87.6412 36.1329C78.2814 33.8799 74.6742 43.0119 74.8899 48.5367C75.1056 54.0615 79.6237 79.6719 79.6237 79.6719L90.2298 130.881C90.2298 130.881 94.628 148.594 92.0394 156.144C89.4508 163.694 84.4773 178.483 84.4773 178.483C84.4773 178.483 82.452 184.571 79.396 182.545C76.34 180.52 73.8712 178.938 69.5808 174.084C65.2905 169.231 56.0506 157.953 56.0506 157.953C56.0506 157.953 46.7627 147.743 37.2112 143.177C27.0605 138.323 18.5996 138.215 14.0935 141.367C14.0935 141.367 8.9043 145.538 12.967 152.537C17.0297 159.535 23.9086 163.023 23.9086 163.023C23.9086 163.023 33.0407 170.92 46.4631 194.374C59.8855 217.827 78.4972 234.977 78.4972 234.977C78.4972 234.977 98.1275 253.816 106.241 257.759C114.354 261.702 118.872 269.827 118.872 269.827C118.872 269.827 130.377 284.376 139.294 315.283C148.21 346.191 163.55 390.629 163.55 390.629L168.631 412.74" fill="none" stroke="#595CFF" stroke-width="5" stroke-linecap="round" stroke-linejoin="round"/>
</g>
<path d="M22.3866 140.48C24.9632 142.41 27.9234 143.98 29.6131 146.868C31.3509 151.075 29.0259 155.605 27.0845 159.26C26.5811 160.207 26.2216 161.093 26.1017 162.184H25.9819C25.91 161.657 25.8261 161.105 25.91 160.542C26.653 156.024 30.464 151.83 28.8821 147.144C27.456 144.495 24.5917 142.554 22.3147 140.576L22.3866 140.48Z" fill="#595CFF"/>
<path d="M144.399 21.8597C144.579 24.0049 144.675 26.174 144.291 28.3073C144.135 29.0023 143.98 29.7933 143.332 30.3686C141.978 31.2194 140.516 31.2075 139.006 31.3393C136.07 31.4232 133.134 31.2434 130.377 30.045C126.279 28.2473 126.722 20.7811 129.467 17.9888C128.4 20.4096 127.992 23.3577 128.783 26.0662C129.107 27.4084 129.658 28.3552 130.905 28.9784C133.325 30.2128 136.262 30.5363 138.982 30.5483C140.264 30.5124 141.858 30.5124 142.949 29.8892C143.896 29.0383 143.98 27.3485 144.159 26.1021C144.291 24.688 144.315 23.2619 144.267 21.8477H144.387L144.399 21.8597Z" fill="#595CFF"/>
<path d="M143.656 19.9663C140.336 16.3351 134.991 16.4789 130.569 17.6534L130.521 17.5455C133.673 15.6759 137.975 15.2685 141.115 17.3657C142.194 18.0009 143.009 18.9477 143.752 19.8824L143.656 19.9543V19.9663Z" fill="#595CFF"/>
<path d="M185.493 32.2739C185.661 34.2992 185.757 36.3485 185.409 38.3619C185.253 39.021 185.122 39.7641 184.498 40.3273C183.204 41.1423 181.826 41.1303 180.4 41.2501C177.619 41.334 174.839 41.1662 172.226 40.0397C168.332 38.3379 168.763 31.2552 171.376 28.6187L171.459 28.7025C170.165 30.9196 170.141 33.8318 170.764 36.2527C171.076 37.511 171.579 38.3859 172.754 38.9851C175.031 40.1476 177.799 40.4591 180.364 40.4831C181.574 40.4472 183.084 40.4472 184.103 39.8719C184.534 39.5603 184.762 38.8892 184.93 38.266C185.385 36.3246 185.421 34.2872 185.361 32.2858H185.481L185.493 32.2739Z" fill="#595CFF"/>
<path d="M184.786 30.4883C181.634 27.0728 176.601 27.2406 172.43 28.3072L172.382 28.1993C175.354 26.4137 179.429 26.0182 182.389 28.0195C183.408 28.6188 184.175 29.5296 184.87 30.4164L184.774 30.4883H184.786Z" fill="#595CFF"/>
<path d="M241.292 79.6841C241.172 81.5657 241.124 84.2262 242.263 85.5445C244.408 86.7668 246.733 88.2289 249.202 88.5046C249.945 88.5046 250.436 87.8814 250.915 87.3061C251.575 86.4193 252.126 85.3887 252.641 84.334L252.761 84.37C252.425 86.1317 251.862 88.0492 250.304 89.1997C249.729 89.5951 248.878 89.5712 248.243 89.3914C245.882 88.6843 243.917 87.39 241.891 86.0718C240.429 84.2981 240.885 81.7454 241.196 79.6602L241.316 79.6841H241.292Z" fill="#595CFF"/>
<path d="M244.12 77.9463C247.236 78.0302 250.712 79.2166 252.521 81.9011C250.065 79.8877 247.104 78.941 244.12 77.9463Z" fill="#595CFF"/>
<path d="M78.7249 38.6854C78.5691 42.2567 78.665 47.2182 81.9846 49.0158C84.9447 49.9506 88.3363 50.406 91.3204 49.3035C92.3151 48.9439 93.19 48.3207 94.0049 47.6017L94.1846 47.7455C93.5135 48.6443 92.6387 49.3993 91.62 49.9506C88.4561 51.4606 84.789 51.185 81.5292 50.1184C78.4493 48.5604 77.8021 44.7734 78.0658 41.6695C78.1736 40.6508 78.3054 39.6321 78.5931 38.6494L78.7369 38.6734L78.7249 38.6854Z" fill="#595CFF"/>
<path d="M95.0475 41.2861C95.2392 43.2036 94.8557 44.9893 94.5321 46.8468H94.4123C94.3763 45.1331 94.3763 43.2635 93.897 41.6337L95.0475 41.3101V41.2861Z" fill="#595CFF"/>
<path d="M161.55 114.535C161.779 115.329 162.012 116.211 162.257 117.151C162.621 118.542 163.014 120.046 163.471 121.516C163.606 121.951 163.749 122.388 163.898 122.819C163.74 122.439 163.585 122.049 163.437 121.653C162.948 120.348 162.518 118.998 162.095 117.691C161.753 116.636 161.413 115.605 161.055 114.668L161.55 114.535Z" fill="#595CFF" stroke="#595CFF" stroke-width="1.19843"/>
<path d="M125.568 122.699C125.854 123.175 126.187 123.681 126.56 124.202C126.076 123.597 125.641 122.971 125.271 122.346L125.568 122.699Z" stroke="#595CFF" stroke-width="1.19843"/>
<path d="M71.9058 185.325C74.9138 184.127 77.7661 183.288 80.0431 180.963L81.4932 182.761C79.6956 183.959 78.7728 183.887 77.047 184.558C75.3932 185.121 73.6435 185.073 71.9537 185.481L71.9058 185.325Z" fill="#595CFF"/>
</g>

</svg>
