<svg width="740" height="956" viewBox="0 0 740 956" fill="none" xmlns="http://www.w3.org/2000/svg">
<path d="M458.673 855.919C458.673 855.919 457.318 779.016 443.105 716.757C428.892 654.499 411.97 583.432 418.741 538.766C418.741 538.766 425.164 507.296 424.829 497.828C424.493 488.36 428.556 477.527 427.202 468.73C427.202 468.73 426.015 459.43 426.183 456.039C426.351 452.647 424.661 442.161 422.971 435.737C421.281 429.314 417.722 425.083 412.137 424.736C406.553 424.388 404.18 427.612 404.18 427.612C404.18 427.612 403.161 415.939 399.614 411.709C396.067 407.478 390.985 406.807 387.941 406.807C384.897 406.807 378.641 409.683 378.294 413.411C378.294 413.411 372.374 405.285 368.994 404.279C365.614 403.272 356.986 402.253 353.942 405.968C350.898 409.683 348.189 412.392 348.021 414.429C348.021 414.429 343.791 406.136 340.411 404.782C337.032 403.428 330.093 402.241 325.527 404.782C320.961 407.323 316.227 413.243 316.395 418.492C316.395 418.492 311.493 415.951 307.431 417.821C307.431 417.821 305.573 425.599 308.281 435.929C308.281 435.929 308.054 446.415 306.807 448.105C305.561 449.795 305.058 461.815 305.405 472.973C305.753 484.13 305.07 497.169 308.114 507.152C311.158 517.135 331.459 556.719 331.459 556.719C331.459 556.719 337.715 569.746 339.752 583.456C341.79 597.166 347.71 627.786 347.53 637.937C347.35 648.087 347.195 710.178 346.176 726.081C345.157 741.984 342.449 794.092 343.635 810.511C344.822 826.929 348.717 855.943 348.717 855.943H458.685" stroke="#595CFF" stroke-width="3.3048" stroke-miterlimit="10"/>
<path d="M404.192 427.6C404.192 427.6 404.024 443.335 404.192 447.901C404.36 452.467 404.863 456.866 405.882 459.071" stroke="#595CFF" stroke-width="2.39686" stroke-miterlimit="10" stroke-linecap="round"/>
<path d="M378.306 413.386C378.306 413.386 379.828 440.291 379.828 445.696" stroke="#595CFF" stroke-width="2.39686" stroke-miterlimit="10" stroke-linecap="round"/>
<path d="M348.268 414.657C348.268 414.657 347.68 433.101 347.848 437.667C348.016 442.233 348.267 447.65 348.267 447.65" stroke="#595CFF" stroke-width="2.39686" stroke-miterlimit="10" stroke-linecap="round"/>
<path d="M317.08 420.05C317.08 420.05 316.409 431.447 317.08 439.908C317.752 448.369 314.875 462.918 314.875 462.918C314.875 462.918 313.521 472.397 314.875 481.194C314.875 481.194 315.546 488.468 315.043 493.034" stroke="#595CFF" stroke-width="2.39686" stroke-miterlimit="10" stroke-linecap="round"/>
<path d="M308.973 419.091C309.919 421.956 310.83 424.808 310.95 427.864C310.95 428.116 310.758 428.319 310.507 428.319C310.255 428.319 310.051 428.127 310.051 427.876C310.111 426.45 309.907 424.964 309.644 423.502C309.38 422.051 309.032 420.613 308.637 419.187C308.577 418.983 308.889 418.876 308.961 419.079L308.973 419.091Z" fill="#595CFF"/>
<path d="M308.517 433.101C309.116 432.634 309.931 432.034 310.015 431.279C310.063 430.86 309.799 429.841 310.506 429.829C311.189 429.829 310.938 430.848 310.998 431.267C310.95 432.49 309.943 433.257 309.104 433.94C308.876 434.108 308.553 434.072 308.385 433.844C308.205 433.604 308.265 433.257 308.517 433.101Z" fill="#595CFF"/>
</svg>
