<svg width="166" height="515" viewBox="0 0 166 515" fill="none" xmlns="http://www.w3.org/2000/svg">
<g clip-path="url(#clip0_380_12381)">
<g filter="url(#filter0_d_380_12381)">
<path d="M103.317 66.7289C103.317 66.7289 99.4816 46.5353 98.4629 42.5925C97.4442 38.6496 91.8116 19.4747 91.8116 19.4747C91.8116 19.4747 88.3122 17.2217 84.9326 19.4747C81.553 21.7278 82.4519 24.3284 82.4519 24.3284L90.793 57.1534L103.317 66.7408V66.7289Z" fill="white"/>
<path d="M103.317 66.7289C103.317 66.7289 99.4816 46.5353 98.4629 42.5925C97.4442 38.6496 91.8116 19.4747 91.8116 19.4747C91.8116 19.4747 88.3122 17.2217 84.9326 19.4747C81.553 21.7278 82.4519 24.3284 82.4519 24.3284L90.793 57.1534L103.317 66.7408V66.7289Z" stroke="#595CFF" stroke-width="3.3048" stroke-miterlimit="10"/>
</g>
<g filter="url(#filter1_d_380_12381)">
<path d="M77.898 13.782C77.898 13.782 68.5741 12.2477 66.7644 20.0255C64.9548 27.8034 66.9921 33.3641 68.5741 38.4095C70.156 43.4549 74.5542 58.2555 74.5542 58.2555C74.5542 58.2555 82.1523 90.1098 83.8181 95.3349L92.8183 166.198L101.387 165.072L109.057 155.484L110.519 128.639L98.2232 73.4875C98.2232 73.4875 92.9262 45.9716 92.0154 43.1433C91.1046 40.315 81.637 19.1147 81.637 19.1147C81.637 19.1147 78.4853 14.2377 77.898 13.782Z" fill="white"/>
<path d="M77.898 13.782C77.898 13.782 68.5741 12.2477 66.7644 20.0255C64.9548 27.8034 66.9921 33.3641 68.5741 38.4095C70.156 43.4549 74.5542 58.2555 74.5542 58.2555C74.5542 58.2555 82.1523 90.1098 83.8181 95.3349L92.8183 166.198L101.387 165.072L109.057 155.484L110.519 128.639L98.2232 73.4875C98.2232 73.4875 92.9262 45.9716 92.0154 43.1433C91.1046 40.315 81.637 19.1147 81.637 19.1147C81.637 19.1147 78.4853 14.2377 77.898 13.782Z" stroke="#595CFF" stroke-width="3.3048" stroke-miterlimit="10"/>
</g>
<g filter="url(#filter2_d_380_12381)">
<path d="M119.891 513.995C119.891 513.995 121.701 432.729 116.284 379.04C110.867 325.35 118.237 270.762 118.237 270.762C118.237 270.762 123.055 233.994 126.434 219.78C129.814 205.567 139.749 169.254 139.749 169.254C139.749 169.254 146.065 155.269 146.292 152.56C146.52 149.852 147.191 141.055 140.204 131.804C133.217 122.552 126.89 104.288 126.89 104.288L119.22 90.0742C119.22 90.0742 110.651 71.127 105.234 65.4824C99.8172 59.8378 86.0592 39.3086 86.0592 39.3086C86.0592 39.3086 82.0804 30.596 79.8034 28.9901C77.5264 27.3843 78.0297 28.0554 78.0297 28.0554C78.0297 28.0554 73.6315 28.4748 72.6967 29.6613C71.7619 30.8477 67.4476 34.3951 70.156 43.4552C72.8645 52.5153 75.2374 55.6313 75.2374 55.9788C75.2374 56.3263 80.9899 66.9804 82.7635 67.9871C82.7635 67.9871 84.1178 77.7183 90.4575 86.7665C96.7972 95.8146 96.6294 97.6003 96.6294 97.6003C96.6294 97.6003 93.837 106.397 104.156 124.505L107.367 130.234C107.367 130.234 103.988 139.821 103.988 144.219C103.988 148.617 103.532 153.579 103.88 155.616C104.227 157.654 96.6294 161.704 96.6294 161.704C96.6294 161.704 93.2738 149.073 92.9382 142.194C92.6027 135.315 92.1473 117.602 91.3563 112.641C90.5653 107.679 89.7744 102.382 87.4134 98.0916C87.4134 98.0916 83.2429 91.8838 71.0549 94.7121C58.8668 97.5404 61.803 132.043 61.803 132.043C61.803 132.043 63.9482 144.447 66.5368 155.053C69.1254 165.659 66.3091 180.544 66.3091 180.544C66.3091 180.544 61.1798 194.757 61.4914 202.763C61.803 210.768 60.6765 231.297 62.4741 236.151C64.2718 241.005 66.4169 245.511 66.4169 245.511C66.4169 245.511 66.8723 279.69 58.8548 302.7C50.8373 325.71 41.4896 366.205 41.4896 366.205L20.7328 441.778C20.7328 441.778 12.3917 489.475 13.9616 514.019" fill="white"/>
<path d="M119.891 513.995C119.891 513.995 121.701 432.729 116.284 379.04C110.867 325.35 118.237 270.762 118.237 270.762C118.237 270.762 123.055 233.994 126.434 219.78C129.814 205.567 139.749 169.254 139.749 169.254C139.749 169.254 146.065 155.269 146.292 152.56C146.52 149.852 147.191 141.055 140.204 131.804C133.217 122.552 126.89 104.288 126.89 104.288L119.22 90.0742C119.22 90.0742 110.651 71.127 105.234 65.4824C99.8172 59.8378 86.0592 39.3086 86.0592 39.3086C86.0592 39.3086 82.0804 30.596 79.8034 28.9901C77.5264 27.3843 78.0297 28.0554 78.0297 28.0554C78.0297 28.0554 73.6315 28.4748 72.6967 29.6613C71.7619 30.8477 67.4476 34.3951 70.156 43.4552C72.8645 52.5153 75.2374 55.6313 75.2374 55.9788C75.2374 56.3263 80.9899 66.9804 82.7635 67.9871C82.7635 67.9871 84.1178 77.7183 90.4575 86.7665C96.7972 95.8146 96.6294 97.6003 96.6294 97.6003C96.6294 97.6003 93.837 106.397 104.156 124.505L107.367 130.234C107.367 130.234 103.988 139.821 103.988 144.219C103.988 148.617 103.532 153.579 103.88 155.616C104.227 157.654 96.6294 161.704 96.6294 161.704C96.6294 161.704 93.2738 149.073 92.9382 142.194C92.6027 135.315 92.1473 117.602 91.3563 112.641C90.5653 107.679 89.7744 102.382 87.4134 98.0916C87.4134 98.0916 83.2429 91.8838 71.0549 94.7121C58.8668 97.5404 61.803 132.043 61.803 132.043C61.803 132.043 63.9482 144.447 66.5368 155.053C69.1254 165.659 66.3091 180.544 66.3091 180.544C66.3091 180.544 61.1798 194.757 61.4914 202.763C61.803 210.768 60.6765 231.297 62.4741 236.151C64.2718 241.005 66.4169 245.511 66.4169 245.511C66.4169 245.511 66.8723 279.69 58.8548 302.7C50.8373 325.71 41.4896 366.205 41.4896 366.205L20.7328 441.778C20.7328 441.778 12.3917 489.475 13.9616 514.019" stroke="#595CFF" stroke-width="3.3048" stroke-miterlimit="10"/>
</g>
<path d="M86.5028 103.377C86.5627 106.073 87.4615 113.539 84.5613 114.738C81.6252 115.816 78.3774 115.613 75.3214 115.193C73.5717 114.893 71.81 114.45 70.2161 113.431C66.1415 110.807 66.8366 101.747 69.6888 98.4031C68.1428 102.094 67.9032 106.888 69.4491 110.783C70.5157 112.988 73.1882 113.731 75.4892 114.27C77.982 114.75 80.5945 114.905 83.1112 114.498C83.9262 114.318 84.7651 114.126 85.1725 113.503C86.6466 110.459 86.347 106.732 86.383 103.401H86.5028V103.377Z" fill="#595CFF"/>
<path d="M85.6876 100.92C82.2361 96.3417 75.9563 96.114 70.9469 97.9356L70.887 97.8278C74.4223 95.5388 79.5157 95.0474 82.9552 97.7559C84.1296 98.5708 84.9925 99.7093 85.7835 100.848L85.6876 100.92Z" fill="#595CFF"/>
</g>
<defs>
<filter id="filter0_d_380_12381" x="71.4377" y="12.8558" width="42.7847" height="71.7722" filterUnits="userSpaceOnUse" color-interpolation-filters="sRGB">
<feFlood flood-opacity="0" result="BackgroundImageFix"/>
<feColorMatrix in="SourceAlpha" type="matrix" values="0 0 0 0 0 0 0 0 0 0 0 0 0 0 0 0 0 0 127 0" result="hardAlpha"/>
<feOffset dy="5.28767"/>
<feGaussianBlur stdDeviation="4.62671"/>
<feComposite in2="hardAlpha" operator="out"/>
<feColorMatrix type="matrix" values="0 0 0 0 0.254331 0 0 0 0 0.255896 0 0 0 0 0.340952 0 0 0 0.2 0"/>
<feBlend mode="multiply" in2="BackgroundImageFix" result="effect1_dropShadow_380_12381"/>
<feBlend mode="normal" in="SourceGraphic" in2="effect1_dropShadow_380_12381" result="shape"/>
</filter>
<filter id="filter1_d_380_12381" x="55.1499" y="8.04108" width="66.2849" height="174.553" filterUnits="userSpaceOnUse" color-interpolation-filters="sRGB">
<feFlood flood-opacity="0" result="BackgroundImageFix"/>
<feColorMatrix in="SourceAlpha" type="matrix" values="0 0 0 0 0 0 0 0 0 0 0 0 0 0 0 0 0 0 127 0" result="hardAlpha"/>
<feOffset dy="5.28767"/>
<feGaussianBlur stdDeviation="4.62671"/>
<feComposite in2="hardAlpha" operator="out"/>
<feColorMatrix type="matrix" values="0 0 0 0 0.254331 0 0 0 0 0.255896 0 0 0 0 0.340952 0 0 0 0.2 0"/>
<feBlend mode="multiply" in2="BackgroundImageFix" result="effect1_dropShadow_380_12381"/>
<feBlend mode="normal" in="SourceGraphic" in2="effect1_dropShadow_380_12381" result="shape"/>
</filter>
<filter id="filter2_d_380_12381" x="2.85937" y="22.2982" width="154.468" height="506.367" filterUnits="userSpaceOnUse" color-interpolation-filters="sRGB">
<feFlood flood-opacity="0" result="BackgroundImageFix"/>
<feColorMatrix in="SourceAlpha" type="matrix" values="0 0 0 0 0 0 0 0 0 0 0 0 0 0 0 0 0 0 127 0" result="hardAlpha"/>
<feOffset dy="5.28767"/>
<feGaussianBlur stdDeviation="4.62671"/>
<feComposite in2="hardAlpha" operator="out"/>
<feColorMatrix type="matrix" values="0 0 0 0 0.254331 0 0 0 0 0.255896 0 0 0 0 0.340952 0 0 0 0.2 0"/>
<feBlend mode="multiply" in2="BackgroundImageFix" result="effect1_dropShadow_380_12381"/>
<feBlend mode="normal" in="SourceGraphic" in2="effect1_dropShadow_380_12381" result="shape"/>
</filter>
<clipPath id="clip0_380_12381">
<rect width="165.383" height="514.127" fill="white"/>
</clipPath>
</defs>
</svg>
