<svg width="615" height="442" viewBox="0 0 615 442" fill="none" xmlns="http://www.w3.org/2000/svg">
<path d="M243.629 38.3075C243.629 38.3075 247.411 35.1178 244.33 31.7733C244.33 31.7733 242.526 29.2033 239.181 27.3989C239.181 27.3989 236.092 25.3393 232.62 24.5647C232.62 24.5647 227.99 21.0925 227.598 20.5731C227.207 20.0536 224.637 18.5135 220.007 18.6411C215.378 18.7686 208.297 19.2881 207.659 19.4157C207.021 19.5433 196.076 19.6709 192.476 19.2881C188.876 18.9053 177.421 18.6411 177.421 18.6411C177.421 18.6411 164.553 19.1514 163.14 18.6411C161.728 18.1307 158.119 17.6204 155.294 16.463C152.469 15.3056 146.162 18.6502 145.898 19.4248C145.634 20.1994 142.809 21.2201 139.081 27.2713C135.354 33.3225 128.528 37.4417 128.528 37.4417C128.528 37.4417 123.644 41.3057 120.29 47.9948C116.936 54.684 105.882 65.7475 105.882 65.7475C105.882 65.7475 94.9459 76.6834 93.1414 82.7346C91.337 88.7858 88.6395 104.734 88.6395 104.734L84.01 128.538C84.01 128.538 70.413 170.605 64.7354 183.728C59.0579 196.851 49.5527 217.583 49.5527 217.583L109.208 210.575L129.558 132.265L138.689 98.1724C138.689 98.1724 146.153 98.5552 152.46 92.2579C158.766 85.9607 157.991 85.6964 157.991 85.6964C157.991 85.6964 173.174 77.3304 176.136 74.2501C179.098 71.1699 187.719 65.2462 187.719 65.2462C187.719 65.2462 197.752 62.5487 202.127 59.3317C206.501 56.1148 227.525 49.5259 227.525 49.5259C227.525 49.5259 243.446 40.3762 243.629 38.3348V38.3075Z" fill="white" stroke="#595CFF" stroke-width="2.73398" stroke-linecap="round" stroke-linejoin="round"/>
<path d="M125.585 45.9617C135.582 43.6652 148.332 42.845 158.539 41.6603C163.515 41.3504 168.718 39.4457 173.658 41.0952C175.125 41.6876 176.783 42.3164 178.287 42.7994C182.507 44.4671 186.999 43.4465 191.337 44.7223C193.652 45.2691 196.532 46.946 196.304 49.7346C196.286 57.0161 190.007 59.021 183.947 59.7045C180.684 60.1419 177.221 60.7434 173.895 60.6341C171.589 60.5794 169.32 60.1328 167.142 59.5405L167.67 59.5314C165.237 60.2969 162.804 60.9804 160.307 61.5636C157.673 62.074 155.085 62.8668 152.351 62.2744C152.324 62.2744 153.472 61.7823 153.463 61.7823C151.102 66.0109 146.6 68.5626 141.898 69.1003C141.643 69.1367 141.406 68.9545 141.369 68.6993C141.333 68.4441 141.515 68.2072 141.761 68.1707C144.942 67.5875 147.976 66.0564 150.091 63.5959C150.783 62.8121 151.421 61.8826 151.804 61.035C152.005 60.5885 152.488 60.4336 152.925 60.5429C153.9 60.7799 155.203 60.6249 156.27 60.4883C159.933 59.9232 163.569 58.8934 167.114 57.7998C167.287 57.7452 167.47 57.7452 167.643 57.7907C171.853 59.0939 176.1 59.0848 180.438 58.4651C184.521 57.8181 189.332 57.809 192.559 55.0841C194.062 53.79 194.655 51.7851 194.727 49.6708C194.955 47.8664 192.905 46.7546 190.927 46.2169C188.64 45.5881 186.152 45.3876 183.737 45.3876C181.714 45.3511 179.736 44.7952 177.841 44.1846C175.827 43.6105 173.576 42.3893 171.689 42.0066C167.488 41.3686 162.913 42.6809 158.675 42.9635C154.438 43.3371 143.228 44.5036 138.872 44.9593C134.471 45.3602 130.124 46.0802 125.822 47.0097C125.212 47.1738 124.847 46.1713 125.585 45.9799V45.9617Z" fill="#595CFF"/>
<path d="M189.141 19.0513L212.425 21.7306C212.425 21.7306 230.697 24.82 230.952 30.9896C230.952 30.9896 231.335 33.3317 230.442 34.2157" stroke="#595CFF" stroke-width="1.82265" stroke-linecap="round" stroke-linejoin="round"/>
<path d="M158.867 28.5472C162.485 32.5753 167.524 36.2115 173.092 36.3664C177.549 36.3117 182.206 35.7558 186.525 34.9721C191.346 35.3639 196.304 35.446 201.088 34.6622C202.656 34.3797 204.214 34.0061 205.618 33.3864C205.836 33.2861 206.073 33.2861 206.283 33.3499C211.459 34.9447 217.073 36.2661 222.486 35.8287C222.997 35.7649 223.452 36.1386 223.498 36.6489C223.543 37.1501 223.179 37.5967 222.678 37.6422C216.836 38.0979 211.222 36.7674 205.7 35.0723L206.365 35.0359C200.496 37.4873 191.656 37.2686 186.653 36.7491C184.001 37.2868 181.477 37.4964 178.888 37.6969C176.282 37.8336 173.612 38.1617 171.024 37.6969C165.738 36.658 161.345 33.2952 157.901 29.3036C157.399 28.6748 158.338 27.882 158.858 28.529L158.867 28.5472Z" fill="#595CFF"/>
<path d="M195.529 51.321C195.529 51.321 205.991 49.5166 209.208 46.8191C209.208 46.8191 215.797 46.3816 219.26 43.3196" stroke="#595CFF" stroke-width="1.82265" stroke-linecap="round" stroke-linejoin="round"/>
<path d="M157.062 61.5916C153.908 74.6509 144.914 87.528 131.207 90.6082C130.661 90.7358 130.433 89.9065 130.998 89.7607C137.404 88.1203 143.055 84.1925 147.074 78.9797C151.092 73.8216 153.89 67.5517 155.275 61.2089C155.531 60.0424 157.317 60.4069 157.053 61.6008L157.062 61.5916Z" fill="#595CFF"/>
<path d="M183.035 45.0237C182.123 47.4478 180.93 50.3185 181.704 52.8702C182.962 55.03 186.935 54.6564 189.141 54.3556C190.9 54.0367 192.804 53.4808 194.044 52.1411C194.189 51.9589 194.481 52.1958 194.326 52.3781C191.674 55.1212 186.37 55.75 182.816 54.6564C178.97 53.2712 181.249 47.4113 182.187 44.6683C182.415 44.0941 183.281 44.4587 183.026 45.0237H183.035Z" fill="#595CFF"/>
<path d="M44.2207 218.193L144.576 206.4C161.8 203.138 178.632 198.044 194.772 191.209L270.822 159.002C270.822 159.002 273.784 154.883 275.069 154.118C275.069 154.118 274.294 148.458 277.639 146.909C277.639 146.909 273.647 131.599 266.447 118.221C259.248 104.842 260.396 95.319 260.396 95.319C260.396 95.319 251 70.7497 247.146 66.111C243.291 61.4724 223.734 46.1712 221.41 45.269C219.086 44.3668 218.448 41.405 218.448 41.405C218.448 41.405 218.703 39.0902 219.478 38.5708C220.252 38.0513 227.069 33.4218 232.473 34.324C237.877 35.2262 245.979 38.826 251.511 43.3279L253.188 44.6129C253.188 44.6129 256.149 38.9535 261.162 41.6511C266.174 44.3486 275.315 56.7062 275.315 56.7062L288.82 73.3014L294.735 81.4031C294.735 81.4031 296.275 73.8117 298.982 70.0844C298.982 70.0844 300.786 66.995 306.573 68.927C312.36 70.859 311.458 85.5223 311.458 85.5223L308.888 101.862L316.607 128.236C316.607 128.236 323.296 150.883 318.147 160.397C312.998 169.911 299.747 181.494 299.747 181.494L247.383 223.178C247.383 223.178 215.86 246.982 178.933 259.85C142.006 272.718 103.539 270.913 103.539 270.913L46.417 270.995" stroke="#595CFF" stroke-width="2.73398" stroke-linecap="round" stroke-linejoin="round"/>
<path d="M253.917 44.0666C257.07 48.2131 260.278 52.2321 262.893 56.7796C264.269 59.3404 270.84 71.5248 272.061 73.8032C273.483 76.6921 274.886 79.5536 276.554 82.3058C276.882 82.8344 277.247 83.3994 277.611 83.7822C277.821 83.9644 278.195 84.3107 278.322 84.5295C280.992 88.594 282.952 93.0686 285.093 97.4065C285.239 97.7072 284.765 97.9624 284.61 97.6434C282.405 93.3967 280.363 89.0041 277.657 85.0398C277.502 84.8302 277.429 84.7664 277.265 84.6115C276.618 84.092 276.199 83.3903 275.789 82.7797C274.057 80.0549 272.563 77.166 271.086 74.3044C269.847 72.1172 262.975 59.9692 261.59 57.5178C258.975 53.189 255.648 49.1791 252.495 45.2058C251.757 44.2853 253.142 43.1006 253.917 44.0666Z" fill="#595CFF"/>
<path d="M220.209 38.0153C222.296 40.485 224.747 43.1917 227.636 44.6133C233.186 47.2653 238.827 49.7532 243.83 53.3803C249.517 58.8665 254.639 64.7719 259.478 71.0236C263.132 77.0201 266.659 82.9072 270.213 88.9311L270.86 90.0703C270.96 90.2434 271.079 90.4712 271.188 90.7082C271.471 91.3826 272.136 93.0776 272.4 93.7156L274.332 98.5365C274.396 98.6914 274.332 98.8737 274.168 98.9375C274.013 99.0012 273.84 98.9283 273.767 98.7734C273.075 97.0966 271.407 93.1414 270.742 91.5375C270.587 91.1456 270.432 90.7902 270.213 90.4166C268.236 87.0538 266.149 83.7548 264.098 80.4284C262.266 77.5031 260.435 74.4775 258.603 71.6159C256.543 68.8911 254.21 66.2938 251.905 63.7147C248.997 60.5433 246.118 57.2899 242.919 54.4283C240.932 52.8882 238.554 51.7581 236.312 50.5643C233.232 48.9968 230.106 47.484 226.953 46.117C225.203 45.3242 223.799 44.1759 222.469 42.9821C221.147 41.7791 219.944 40.5033 218.778 39.1272C218.45 38.7444 218.505 38.1703 218.887 37.8422C219.279 37.505 219.881 37.5779 220.2 37.9789L220.209 38.0153Z" fill="#595CFF"/>
<path d="M294.764 81.4309C294.764 81.4309 306.164 92.4853 308.917 101.89" stroke="#595CFF" stroke-width="2.73398" stroke-linecap="round" stroke-linejoin="round"/>
<path d="M243.264 30.5244C243.875 36.7397 239.346 36.366 239.346 36.366" stroke="#595CFF" stroke-width="1.82265" stroke-linecap="round" stroke-linejoin="round"/>
<path d="M223.407 24.6733C223.306 25.0287 223.17 25.8398 223.452 26.1132C225.211 27.3435 227.535 28.3733 229.64 28.7469C229.759 28.7378 229.877 28.8198 229.868 28.9474C229.868 29.0477 229.786 29.1297 229.686 29.1297C229.23 29.157 228.875 29.0568 228.501 28.9748C226.56 28.428 224.619 27.8447 222.915 26.6964C222.596 26.4686 222.486 26.0129 222.45 25.6849C222.441 25.1836 222.295 23.9625 223.088 24.0627C223.352 24.1265 223.498 24.409 223.407 24.6642V24.6733Z" fill="#595CFF"/>
<path d="M234.214 24.9556C233.986 26.0491 234.733 26.9878 235.727 27.4617C236.766 28.0723 237.859 28.61 238.998 29.011C239.755 29.2661 240.557 29.4757 241.322 29.4119C241.541 29.3846 241.578 29.7309 241.359 29.7582C239.646 29.9405 238.042 29.257 236.511 28.6191C234.861 27.9538 232.984 26.8967 233.321 24.7824C233.412 24.1536 234.369 24.345 234.214 24.9647V24.9556Z" fill="#595CFF"/>
<path d="M255.339 42.0425C258.775 44.4848 262.621 47.9843 258.948 52.1035C258.766 52.2949 258.465 52.0124 258.648 51.821C259.769 50.372 260.352 48.1848 259.24 46.5718C258.165 44.9496 256.597 43.6282 255.075 42.4161C254.838 42.2521 255.103 41.8785 255.339 42.0516V42.0425Z" fill="#595CFF"/>
<path d="M221.885 37.2581C224.091 37.9598 226.26 38.7709 228.337 39.8098C230.16 40.6755 232.001 41.8876 231.017 44.1659C230.707 44.8038 230.433 45.4053 229.704 45.6696C229.376 45.7243 229.285 45.2139 229.622 45.1592C230.433 44.0657 230.834 42.2066 229.376 41.4228C227.025 39.8462 224.373 38.7435 221.812 37.4859C221.685 37.4312 221.758 37.2216 221.894 37.2672L221.885 37.2581Z" fill="#595CFF"/>
</svg>
