<svg width="615" height="442" viewBox="0 0 615 442" fill="none" xmlns="http://www.w3.org/2000/svg">
<g>
<g>

<path d="M125.585 45.9617C135.582 43.6652 148.332 42.845 158.539 41.6603C163.515 41.3504 168.718 39.4457 173.658 41.0952C175.125 41.6876 176.783 42.3164 178.287 42.7994C182.507 44.4671 186.999 43.4465 191.337 44.7223C193.652 45.2691 196.532 46.946 196.304 49.7346C196.286 57.0161 190.007 59.021 183.947 59.7045C180.684 60.1419 177.221 60.7434 173.895 60.6341C171.589 60.5794 169.32 60.1328 167.142 59.5405L167.67 59.5314C165.237 60.2969 162.804 60.9804 160.307 61.5636C157.673 62.074 155.085 62.8668 152.351 62.2744C152.324 62.2744 153.472 61.7823 153.463 61.7823C151.102 66.0109 146.6 68.5626 141.898 69.1003C141.643 69.1367 141.406 68.9545 141.369 68.6993C141.333 68.4441 141.515 68.2072 141.761 68.1707C144.942 67.5875 147.976 66.0564 150.091 63.5959C150.783 62.8121 151.421 61.8826 151.804 61.035C152.005 60.5885 152.488 60.4336 152.925 60.5429C153.9 60.7799 155.203 60.6249 156.27 60.4883C159.933 59.9232 163.569 58.8934 167.114 57.7998C167.287 57.7452 167.47 57.7452 167.643 57.7907C171.853 59.0939 176.1 59.0848 180.438 58.4651C184.521 57.8181 189.332 57.809 192.559 55.0841C194.062 53.79 194.655 51.7851 194.727 49.6708C194.955 47.8664 192.905 46.7546 190.927 46.2169C188.64 45.5881 186.152 45.3876 183.737 45.3876C181.714 45.3511 179.736 44.7952 177.841 44.1846C175.827 43.6105 173.576 42.3893 171.689 42.0066C167.488 41.3686 162.913 42.6809 158.675 42.9635C154.438 43.3371 143.228 44.5036 138.872 44.9593C134.471 45.3602 130.124 46.0802 125.822 47.0097C125.212 47.1738 124.847 46.1713 125.585 45.9799V45.9617Z" fill="#595CFF"/>
<path d="M189.141 19.0513L212.425 21.7306C212.425 21.7306 230.697 24.82 230.952 30.9896C230.952 30.9896 231.335 33.3317 230.442 34.2157" stroke="#595CFF" stroke-width="1.82265" stroke-linecap="round" stroke-linejoin="round"/>
<path d="M158.867 28.5472C162.485 32.5753 167.524 36.2115 173.092 36.3664C177.549 36.3117 182.206 35.7558 186.525 34.9721C191.346 35.3639 196.304 35.446 201.088 34.6622C202.656 34.3797 204.214 34.0061 205.618 33.3864C205.836 33.2861 206.073 33.2861 206.283 33.3499C211.459 34.9447 217.073 36.2661 222.486 35.8287C222.997 35.7649 223.452 36.1386 223.498 36.6489C223.543 37.1501 223.179 37.5967 222.678 37.6422C216.836 38.0979 211.222 36.7674 205.7 35.0723L206.365 35.0359C200.496 37.4873 191.656 37.2686 186.653 36.7491C184.001 37.2868 181.477 37.4964 178.888 37.6969C176.282 37.8336 173.612 38.1617 171.024 37.6969C165.738 36.658 161.345 33.2952 157.901 29.3036C157.399 28.6748 158.338 27.882 158.858 28.529L158.867 28.5472Z" fill="#595CFF"/>
<path d="M195.529 51.321C195.529 51.321 205.991 49.5166 209.208 46.8191C209.208 46.8191 215.797 46.3816 219.26 43.3196" stroke="#595CFF" stroke-width="1.82265" stroke-linecap="round" stroke-linejoin="round"/>
<path d="M157.062 61.5916C153.908 74.6509 144.914 87.528 131.207 90.6082C130.661 90.7358 130.433 89.9065 130.998 89.7607C137.404 88.1203 143.055 84.1925 147.074 78.9797C151.092 73.8216 153.89 67.5517 155.275 61.2089C155.531 60.0424 157.317 60.4069 157.053 61.6008L157.062 61.5916Z" fill="#595CFF"/>
<path d="M183.035 45.0237C182.123 47.4478 180.93 50.3185 181.704 52.8702C182.962 55.03 186.935 54.6564 189.141 54.3556C190.9 54.0367 192.804 53.4808 194.044 52.1411C194.189 51.9589 194.481 52.1958 194.326 52.3781C191.674 55.1212 186.37 55.75 182.816 54.6564C178.97 53.2712 181.249 47.4113 182.187 44.6683C182.415 44.0941 183.281 44.4587 183.026 45.0237H183.035Z" fill="#595CFF"/>

<path d="M398.973 274.03L369.136 251.73C368.015 250.891 366.658 250.445 365.254 250.445H200.505C199.484 250.445 198.482 250.7 197.588 251.174L157.6 272.635C157.381 272.754 157.463 273.091 157.709 273.091L398.709 274.786C399.119 274.786 399.292 274.267 398.964 274.021L398.973 274.03Z" fill="#FBFBFF" stroke="black" stroke-width="1.82265" stroke-miterlimit="10"/>
<path d="M604.13 338.615C604.13 338.615 598.644 343.072 582.177 343.072H462.1C462.1 343.072 442.543 343.755 430.532 338.615C418.521 333.466 414.411 332.783 401.716 332.437H337.713H334.679H270.676C257.982 332.783 253.862 333.466 241.86 338.615C229.858 343.764 210.292 343.072 210.292 343.072H90.1975C70.6404 343.099 64.7441 336.428 64.7441 336.428" stroke="black" stroke-width="1.82265" stroke-miterlimit="10"/>
<path d="M64.8184 322.24C64.8184 322.24 73.476 328.063 83.7648 328.063H205.737C205.737 328.063 224.009 329.348 235.583 317.382C247.156 305.417 252.57 295.383 274.569 295.128H329.112H405.663C427.663 295.383 433.067 305.417 444.65 317.382C456.233 329.348 474.496 328.063 474.496 328.063C474.496 328.063 575.234 328.063 585.532 328.063C595.82 328.063 604.478 322.24 604.478 322.24" stroke="black" stroke-width="1.82265" stroke-miterlimit="10"/>
<path d="M262.994 363.121L266.685 353.543C266.685 353.543 267.97 348.139 280.063 348.914H330.879H338.625H389.441C401.534 348.139 402.819 353.543 402.819 353.543L406.51 363.121" stroke="black" stroke-width="1.82265" stroke-miterlimit="10"/>
<path d="M87.9464 279.607C87.9464 279.607 85.823 282.779 99.7207 283.034H559.539C559.539 283.034 572.462 282.606 575.004 279.607" stroke="black" stroke-width="0.911326" stroke-miterlimit="10"/>
<path d="M123.772 317.007C125.262 317.007 126.469 316.199 126.469 315.202C126.469 314.206 125.262 313.398 123.772 313.398C122.282 313.398 121.074 314.206 121.074 315.202C121.074 316.199 122.282 317.007 123.772 317.007Z" stroke="#CDCDD8" stroke-width="0.911326" stroke-miterlimit="10"/>
<path d="M204.24 291.936C205.73 291.936 206.938 291.128 206.938 290.132C206.938 289.135 205.73 288.327 204.24 288.327C202.751 288.327 201.543 289.135 201.543 290.132C201.543 291.128 202.751 291.936 204.24 291.936Z" stroke="#CDCDD8" stroke-width="0.911326" stroke-miterlimit="10"/>
<path d="M550.545 317.007C552.035 317.007 553.243 316.199 553.243 315.202C553.243 314.206 552.035 313.398 550.545 313.398C549.055 313.398 547.848 314.206 547.848 315.202C547.848 316.199 549.055 317.007 550.545 317.007Z" stroke="#CDCDD8" stroke-width="0.911326" stroke-miterlimit="10"/>
<path d="M470.074 291.936C471.564 291.936 472.772 291.128 472.772 290.132C472.772 289.135 471.564 288.327 470.074 288.327C468.585 288.327 467.377 289.135 467.377 290.132C467.377 291.128 468.585 291.936 470.074 291.936Z" stroke="#CDCDD8" stroke-width="0.911326" stroke-miterlimit="10"/>
<path d="M416.543 276.873L442.497 279.607C443.044 279.607 443.299 279.16 443.062 278.623C442.835 278.076 442.197 277.638 441.659 277.638L415.704 274.904C415.158 274.904 414.902 275.351 415.139 275.889C415.367 276.435 416.005 276.873 416.543 276.873Z" stroke="#CDCDD8" stroke-width="0.911326" stroke-miterlimit="10"/>
<path d="M153.926 281.374C155.491 281.374 156.76 281.028 156.76 280.6C156.76 280.172 155.491 279.825 153.926 279.825C152.361 279.825 151.092 280.172 151.092 280.6C151.092 281.028 152.361 281.374 153.926 281.374Z" stroke="#CDCDD8" stroke-width="0.911326" stroke-miterlimit="10"/>
<path d="M133.632 276.873L107.677 279.607C107.13 279.607 106.875 279.16 107.112 278.623C107.34 278.076 107.978 277.638 108.515 277.638L134.47 274.904C135.017 274.904 135.272 275.351 135.035 275.889C134.807 276.435 134.169 276.873 133.632 276.873Z" stroke="#CDCDD8" stroke-width="0.911326" stroke-miterlimit="10"/>
<path d="M238.324 281.374C239.89 281.374 241.159 281.028 241.159 280.6C241.159 280.172 239.89 279.825 238.324 279.825C236.759 279.825 235.49 280.172 235.49 280.6C235.49 281.028 236.759 281.374 238.324 281.374Z" stroke="#CDCDD8" stroke-width="0.911326" stroke-miterlimit="10"/>
<path d="M322.723 281.374C324.288 281.374 325.557 281.028 325.557 280.6C325.557 280.172 324.288 279.825 322.723 279.825C321.158 279.825 319.889 280.172 319.889 280.6C319.889 281.028 321.158 281.374 322.723 281.374Z" stroke="#CDCDD8" stroke-width="0.911326" stroke-miterlimit="10"/>
<path d="M407.121 281.374C408.687 281.374 409.956 281.028 409.956 280.6C409.956 280.172 408.687 279.825 407.121 279.825C405.556 279.825 404.287 280.172 404.287 280.6C404.287 281.028 405.556 281.374 407.121 281.374Z" stroke="#CDCDD8" stroke-width="0.911326" stroke-miterlimit="10"/>
<path d="M477.293 281.374C478.858 281.374 480.127 281.028 480.127 280.6C480.127 280.172 478.858 279.825 477.293 279.825C475.728 279.825 474.459 280.172 474.459 280.6C474.459 281.028 475.728 281.374 477.293 281.374Z" stroke="#CDCDD8" stroke-width="0.911326" stroke-miterlimit="10"/>
<path d="M533.795 281.374C535.36 281.374 536.629 281.028 536.629 280.6C536.629 280.172 535.36 279.825 533.795 279.825C532.23 279.825 530.961 280.172 530.961 280.6C530.961 281.028 532.23 281.374 533.795 281.374Z" stroke="#CDCDD8" stroke-width="0.911326" stroke-miterlimit="10"/>
<path d="M199.994 278.923C201.56 278.923 202.829 278.576 202.829 278.148C202.829 277.72 201.56 277.374 199.994 277.374C198.429 277.374 197.16 277.72 197.16 278.148C197.16 278.576 198.429 278.923 199.994 278.923Z" stroke="#CDCDD8" stroke-width="0.911326" stroke-miterlimit="10"/>
<path d="M279.754 278.923C281.319 278.923 282.588 278.576 282.588 278.148C282.588 277.72 281.319 277.374 279.754 277.374C278.189 277.374 276.92 277.72 276.92 278.148C276.92 278.576 278.189 278.923 279.754 278.923Z" stroke="#CDCDD8" stroke-width="0.911326" stroke-miterlimit="10"/>
<path d="M356.342 278.923C357.907 278.923 359.176 278.576 359.176 278.148C359.176 277.72 357.907 277.374 356.342 277.374C354.777 277.374 353.508 277.72 353.508 278.148C353.508 278.576 354.777 278.923 356.342 278.923Z" stroke="#CDCDD8" stroke-width="0.911326" stroke-miterlimit="10"/>
<path d="M429.037 272.297C430.603 272.297 431.872 271.95 431.872 271.523C431.872 271.095 430.603 270.748 429.037 270.748C427.472 270.748 426.203 271.095 426.203 271.523C426.203 271.95 427.472 272.297 429.037 272.297Z" stroke="#CDCDD8" stroke-width="0.911326" stroke-miterlimit="10"/>
<path d="M497.387 275.032C498.952 275.032 500.221 274.685 500.221 274.257C500.221 273.829 498.952 273.482 497.387 273.482C495.822 273.482 494.553 273.829 494.553 274.257C494.553 274.685 495.822 275.032 497.387 275.032Z" stroke="#CDCDD8" stroke-width="0.911326" stroke-miterlimit="10"/>
<path d="M472.782 265.007C474.347 265.007 475.616 264.66 475.616 264.232C475.616 263.804 474.347 263.457 472.782 263.457C471.216 263.457 469.947 263.804 469.947 264.232C469.947 264.66 471.216 265.007 472.782 265.007Z" stroke="#CDCDD8" stroke-width="0.911326" stroke-miterlimit="10"/>
<path d="M455.011 257.708C456.325 257.708 457.39 257.418 457.39 257.061C457.39 256.704 456.325 256.414 455.011 256.414C453.698 256.414 452.633 256.704 452.633 257.061C452.633 257.418 453.698 257.708 455.011 257.708Z" stroke="#CDCDD8" stroke-width="0.911326" stroke-miterlimit="10"/>
<path d="M432.656 264.879C433.97 264.879 435.034 264.59 435.034 264.232C435.034 263.875 433.97 263.585 432.656 263.585C431.342 263.585 430.277 263.875 430.277 264.232C430.277 264.59 431.342 264.879 432.656 264.879Z" stroke="#CDCDD8" stroke-width="0.911326" stroke-miterlimit="10"/>
<path d="M419.488 257.488C420.802 257.488 421.866 257.198 421.866 256.841C421.866 256.484 420.802 256.194 419.488 256.194C418.174 256.194 417.109 256.484 417.109 256.841C417.109 257.198 418.174 257.488 419.488 257.488Z" stroke="#CDCDD8" stroke-width="0.911326" stroke-miterlimit="10"/>
<path d="M394.161 252.448C395.284 252.448 396.193 252.199 396.193 251.892C396.193 251.585 395.284 251.336 394.161 251.336C393.039 251.336 392.129 251.585 392.129 251.892C392.129 252.199 393.039 252.448 394.161 252.448Z" stroke="#CDCDD8" stroke-width="0.911326" stroke-miterlimit="10"/>
<path d="M439.318 252.211C440.209 252.211 440.931 252.015 440.931 251.773C440.931 251.532 440.209 251.336 439.318 251.336C438.427 251.336 437.705 251.532 437.705 251.773C437.705 252.015 438.427 252.211 439.318 252.211Z" stroke="#CDCDD8" stroke-width="0.911326" stroke-miterlimit="10"/>
<path d="M127.188 361.317L128.017 368.644H122.422L127.188 361.317Z" fill="#C5C5D3" stroke="black" stroke-width="0.911326" stroke-linecap="round" stroke-linejoin="round"/>
<path d="M158.12 361.69L149.48 361.572L150.847 368.908L159.232 369.017L158.12 361.69Z" fill="#C5C5D3" stroke="black" stroke-width="0.911326" stroke-linecap="round" stroke-linejoin="round"/>
<path d="M180.956 369.3L190.352 369.419L189.003 362.082L180.127 361.973L180.956 369.3Z" fill="#C5C5D3" stroke="black" stroke-width="0.911326" stroke-linecap="round" stroke-linejoin="round"/>
<path d="M140.275 368.78L148.978 368.889L147.602 361.553L138.898 361.435L140.275 368.78Z" fill="#C5C5D3" stroke="black" stroke-width="0.911326" stroke-linecap="round" stroke-linejoin="round"/>
<path d="M168.626 361.818L159.986 361.708L161.098 369.044L169.455 369.154L168.626 361.818Z" fill="#C5C5D3" stroke="black" stroke-width="0.911326" stroke-linecap="round" stroke-linejoin="round"/>
<path d="M137.031 361.417L129.111 361.316L130.077 368.643L138.407 368.753L137.031 361.417Z" fill="#C5C5D3" stroke="black" stroke-width="0.911326" stroke-linecap="round" stroke-linejoin="round"/>
<path d="M178.25 361.945L170.494 361.845L171.323 369.172L179.088 369.273L178.25 361.945Z" fill="#C5C5D3" stroke="black" stroke-width="0.911326" stroke-linecap="round" stroke-linejoin="round"/>
<path d="M191 362.028L192.23 369.364H197.826L191 362.028Z" fill="#C5C5D3" stroke="black" stroke-width="0.911326" stroke-linecap="round" stroke-linejoin="round"/>

<path d="M44.2207 218.193L144.576 206.4C161.8 203.138 178.632 198.044 194.772 191.209L270.822 159.002C270.822 159.002 273.784 154.883 275.069 154.118C275.069 154.118 274.294 148.458 277.639 146.909C277.639 146.909 273.647 131.599 266.447 118.221C259.248 104.842 260.396 95.319 260.396 95.319C260.396 95.319 251 70.7497 247.146 66.111C243.291 61.4724 223.734 46.1712 221.41 45.269C219.086 44.3668 218.448 41.405 218.448 41.405C218.448 41.405 218.703 39.0902 219.478 38.5708C220.252 38.0513 227.069 33.4218 232.473 34.324C237.877 35.2262 245.979 38.826 251.511 43.3279L253.188 44.6129C253.188 44.6129 256.149 38.9535 261.162 41.6511C266.174 44.3486 275.315 56.7062 275.315 56.7062L288.82 73.3014L294.735 81.4031C294.735 81.4031 296.275 73.8117 298.982 70.0844C298.982 70.0844 300.786 66.995 306.573 68.927C312.36 70.859 311.458 85.5223 311.458 85.5223L308.888 101.862L316.607 128.236C316.607 128.236 323.296 150.883 318.147 160.397C312.998 169.911 299.747 181.494 299.747 181.494L247.383 223.178C247.383 223.178 215.86 246.982 178.933 259.85C142.006 272.718 103.539 270.913 103.539 270.913L46.417 270.995" stroke="#595CFF" stroke-width="2.73398" stroke-linecap="round" stroke-linejoin="round"/>
<path d="M253.917 44.0666C257.07 48.2131 260.278 52.2321 262.893 56.7796C264.269 59.3404 270.84 71.5248 272.061 73.8032C273.483 76.6921 274.886 79.5536 276.554 82.3058C276.882 82.8344 277.247 83.3994 277.611 83.7822C277.821 83.9644 278.195 84.3107 278.322 84.5295C280.992 88.594 282.952 93.0686 285.093 97.4065C285.239 97.7072 284.765 97.9624 284.61 97.6434C282.405 93.3967 280.363 89.0041 277.657 85.0398C277.502 84.8302 277.429 84.7664 277.265 84.6115C276.618 84.092 276.199 83.3903 275.789 82.7797C274.057 80.0549 272.563 77.166 271.086 74.3044C269.847 72.1172 262.975 59.9692 261.59 57.5178C258.975 53.189 255.648 49.1791 252.495 45.2058C251.757 44.2853 253.142 43.1006 253.917 44.0666Z" fill="#595CFF"/>
<path d="M220.209 38.0153C222.296 40.485 224.747 43.1917 227.636 44.6133C233.186 47.2653 238.827 49.7532 243.83 53.3803C249.517 58.8665 254.639 64.7719 259.478 71.0236C263.132 77.0201 266.659 82.9072 270.213 88.9311L270.86 90.0703C270.96 90.2434 271.079 90.4712 271.188 90.7082C271.471 91.3826 272.136 93.0776 272.4 93.7156L274.332 98.5365C274.396 98.6914 274.332 98.8737 274.168 98.9375C274.013 99.0012 273.84 98.9283 273.767 98.7734C273.075 97.0966 271.407 93.1414 270.742 91.5375C270.587 91.1456 270.432 90.7902 270.213 90.4166C268.236 87.0538 266.149 83.7548 264.098 80.4284C262.266 77.5031 260.435 74.4775 258.603 71.6159C256.543 68.8911 254.21 66.2938 251.905 63.7147C248.997 60.5433 246.118 57.2899 242.919 54.4283C240.932 52.8882 238.554 51.7581 236.312 50.5643C233.232 48.9968 230.106 47.484 226.953 46.117C225.203 45.3242 223.799 44.1759 222.469 42.9821C221.147 41.7791 219.944 40.5033 218.778 39.1272C218.45 38.7444 218.505 38.1703 218.887 37.8422C219.279 37.505 219.881 37.5779 220.2 37.9789L220.209 38.0153Z" fill="#595CFF"/>
<path d="M294.764 81.4309C294.764 81.4309 306.164 92.4853 308.917 101.89" stroke="#595CFF" stroke-width="2.73398" stroke-linecap="round" stroke-linejoin="round"/>
<path d="M243.264 30.5244C243.875 36.7397 239.346 36.366 239.346 36.366" stroke="#595CFF" stroke-width="1.82265" stroke-linecap="round" stroke-linejoin="round"/>
<path d="M223.407 24.6733C223.306 25.0287 223.17 25.8398 223.452 26.1132C225.211 27.3435 227.535 28.3733 229.64 28.7469C229.759 28.7378 229.877 28.8198 229.868 28.9474C229.868 29.0477 229.786 29.1297 229.686 29.1297C229.23 29.157 228.875 29.0568 228.501 28.9748C226.56 28.428 224.619 27.8447 222.915 26.6964C222.596 26.4686 222.486 26.0129 222.45 25.6849C222.441 25.1836 222.295 23.9625 223.088 24.0627C223.352 24.1265 223.498 24.409 223.407 24.6642V24.6733Z" fill="#595CFF"/>
<path d="M234.214 24.9556C233.986 26.0491 234.733 26.9878 235.727 27.4617C236.766 28.0723 237.859 28.61 238.998 29.011C239.755 29.2661 240.557 29.4757 241.322 29.4119C241.541 29.3846 241.578 29.7309 241.359 29.7582C239.646 29.9405 238.042 29.257 236.511 28.6191C234.861 27.9538 232.984 26.8967 233.321 24.7824C233.412 24.1536 234.369 24.345 234.214 24.9647V24.9556Z" fill="#595CFF"/>
<path d="M255.339 42.0425C258.775 44.4848 262.621 47.9843 258.948 52.1035C258.766 52.2949 258.465 52.0124 258.648 51.821C259.769 50.372 260.352 48.1848 259.24 46.5718C258.165 44.9496 256.597 43.6282 255.075 42.4161C254.838 42.2521 255.103 41.8785 255.339 42.0516V42.0425Z" fill="#595CFF"/>
<path d="M221.885 37.2581C224.091 37.9598 226.26 38.7709 228.337 39.8098C230.16 40.6755 232.001 41.8876 231.017 44.1659C230.707 44.8038 230.433 45.4053 229.704 45.6696C229.376 45.7243 229.285 45.2139 229.622 45.1592C230.433 44.0657 230.834 42.2066 229.376 41.4228C227.025 39.8462 224.373 38.7435 221.812 37.4859C221.685 37.4312 221.758 37.2216 221.894 37.2672L221.885 37.2581Z" fill="#595CFF"/>
</g>
<g>
<path d="M65.5 135.5L21.5 80L16.5 292.5L53.5 302.5L85.5 275L65.5 135.5Z" fill="#F1F4F9"/>
</g>
</g>

</svg>
