<svg width="728" height="552" viewBox="0 0 728 552" fill="none" xmlns="http://www.w3.org/2000/svg">
<g clip-path="url(#clip0_259_12947)">
<path d="M420.85 56.2585H332.486C326.003 56.2585 320.748 61.5116 320.748 67.9915C320.748 74.4714 326.003 79.7244 332.486 79.7244H420.85C427.333 79.7244 432.588 74.4714 432.588 67.9915C432.588 61.5116 427.333 56.2585 420.85 56.2585Z" fill="white" stroke="black" stroke-width="0.913425" stroke-miterlimit="10"/>
<path d="M451.03 94.6863H448.29V84.6843C448.29 76.2351 441.412 69.357 432.963 69.357V66.6167C442.928 66.6167 451.03 74.7188 451.03 84.6843V94.6863Z" fill="white" stroke="black" stroke-width="0.913425" stroke-miterlimit="10"/>
<path d="M302.682 94.6863H305.422V84.6843C305.422 76.2351 312.3 69.357 320.749 69.357V66.6167C310.784 66.6167 302.682 74.7188 302.682 84.6843V94.6863Z" fill="white" stroke="black" stroke-width="0.913425" stroke-miterlimit="10"/>

<path d="M364.429 94.6863H530.307C551.425 94.6863 568.543 111.804 568.543 132.922V166.902V204.526C568.543 204.526 569.319 218.483 553.069 226.22C538.007 233.39 540.428 256.399 540.428 256.399V291.73V341.247C540.629 350.628 545.707 357.059 553.754 361.708C562.057 365.124 568.543 373.4 568.543 381.822C568.543 381.822 568.543 443.56 568.543 448.538C568.543 453.516 562.003 483.778 531.695 483.778H459.178C451.816 482.728 445.724 479.677 441.641 473.466C436.781 463.692 430.159 458.339 421.691 457.645H415.133H404.117H333.619C325.151 458.339 318.538 463.692 313.67 473.466C309.587 479.686 303.494 482.728 296.132 483.778H223.643C193.335 483.787 186.795 453.525 186.795 448.538C186.795 443.551 186.795 381.822 186.795 381.822C186.795 373.4 193.28 365.115 201.583 361.708C209.631 357.059 214.709 350.628 214.91 341.247V291.73V256.399C214.91 256.399 217.34 233.399 202.268 226.22C186.028 218.483 186.804 204.526 186.804 204.526V132.922C186.804 111.804 203.922 94.6863 225.04 94.6863H391.832" fill="white"/>
<path d="M364.429 94.6863H530.307C551.425 94.6863 568.543 111.804 568.543 132.922V166.902V204.526C568.543 204.526 569.319 218.483 553.069 226.22C538.007 233.39 540.428 256.399 540.428 256.399V291.73V341.247C540.629 350.628 545.707 357.059 553.754 361.708C562.057 365.124 568.543 373.4 568.543 381.822C568.543 381.822 568.543 443.56 568.543 448.538C568.543 453.516 562.003 483.778 531.695 483.778H459.178C451.816 482.728 445.724 479.677 441.641 473.466C436.781 463.692 430.159 458.339 421.691 457.645H415.133H404.117H333.619C325.151 458.339 318.538 463.692 313.67 473.466C309.587 479.686 303.494 482.728 296.132 483.778H223.643C193.335 483.787 186.795 453.525 186.795 448.538C186.795 443.551 186.795 381.822 186.795 381.822C186.795 373.4 193.28 365.115 201.583 361.708C209.631 357.059 214.709 350.628 214.91 341.247V291.73V256.399C214.91 256.399 217.34 233.399 202.268 226.22C186.028 218.483 186.804 204.526 186.804 204.526V132.922C186.804 111.804 203.922 94.6863 225.04 94.6863H391.832" fill="none" stroke="#000000" stroke-width="5" stroke-linecap="round" stroke-linejoin="round"/>
<path d="M476.096 230.275C480.616 230.275 484.28 233.939 484.28 238.459V435.914C484.28 440.434 480.616 444.099 476.096 444.099H279.298C274.778 444.098 271.114 440.434 271.114 435.914V238.459C271.114 233.939 274.778 230.276 279.298 230.275H476.096Z" fill="#FBFBFF" stroke="black" stroke-width="1.82685" stroke-miterlimit="10"/>
<path d="M318.785 136.466C319.96 136.466 320.913 135.513 320.913 134.338C320.913 133.163 319.96 132.21 318.785 132.21C317.609 132.21 316.656 133.163 316.656 134.338C316.656 135.513 317.609 136.466 318.785 136.466Z" stroke="#C5C5D3" stroke-width="0.913425" stroke-miterlimit="10"/>
<path d="M302.343 209.851C303.519 209.851 304.471 208.898 304.471 207.723C304.471 206.547 303.519 205.594 302.343 205.594C301.168 205.594 300.215 206.547 300.215 207.723C300.215 208.898 301.168 209.851 302.343 209.851Z" stroke="#C5C5D3" stroke-width="0.913425" stroke-miterlimit="10"/>
<path d="M253.968 136.466C255.144 136.466 256.096 135.513 256.096 134.338C256.096 133.163 255.144 132.21 253.968 132.21C252.793 132.21 251.84 133.163 251.84 134.338C251.84 135.513 252.793 136.466 253.968 136.466Z" stroke="#C5C5D3" stroke-width="0.913425" stroke-miterlimit="10"/>
<path d="M253.968 182.128C255.144 182.128 256.096 181.176 256.096 180C256.096 178.825 255.144 177.872 253.968 177.872C252.793 177.872 251.84 178.825 251.84 180C251.84 181.176 252.793 182.128 253.968 182.128Z" stroke="#C5C5D3" stroke-width="0.913425" stroke-miterlimit="10"/>
<path d="M286.24 155.018C287.415 155.018 288.368 154.065 288.368 152.89C288.368 151.714 287.415 150.761 286.24 150.761C285.064 150.761 284.111 151.714 284.111 152.89C284.111 154.065 285.064 155.018 286.24 155.018Z" stroke="#C5C5D3" stroke-width="0.913425" stroke-miterlimit="10"/>
<path d="M349.841 155.018C351.017 155.018 351.969 154.065 351.969 152.89C351.969 151.714 351.017 150.761 349.841 150.761C348.666 150.761 347.713 151.714 347.713 152.89C347.713 154.065 348.666 155.018 349.841 155.018Z" stroke="#C5C5D3" stroke-width="0.913425" stroke-miterlimit="10"/>
<path d="M349.841 193.373C351.017 193.373 351.969 192.42 351.969 191.244C351.969 190.069 351.017 189.116 349.841 189.116C348.666 189.116 347.713 190.069 347.713 191.244C347.713 192.42 348.666 193.373 349.841 193.373Z" stroke="#C5C5D3" stroke-width="0.913425" stroke-miterlimit="10"/>
<path d="M436.644 136.466C437.819 136.466 438.772 135.513 438.772 134.338C438.772 133.163 437.819 132.21 436.644 132.21C435.468 132.21 434.516 133.163 434.516 134.338C434.516 135.513 435.468 136.466 436.644 136.466Z" stroke="#C5C5D3" stroke-width="0.913425" stroke-miterlimit="10"/>
<path d="M453.085 209.851C454.261 209.851 455.214 208.898 455.214 207.723C455.214 206.547 454.261 205.594 453.085 205.594C451.91 205.594 450.957 206.547 450.957 207.723C450.957 208.898 451.91 209.851 453.085 209.851Z" stroke="#C5C5D3" stroke-width="0.913425" stroke-miterlimit="10"/>
<path d="M501.47 136.466C502.645 136.466 503.598 135.513 503.598 134.338C503.598 133.163 502.645 132.21 501.47 132.21C500.295 132.21 499.342 133.163 499.342 134.338C499.342 135.513 500.295 136.466 501.47 136.466Z" stroke="#C5C5D3" stroke-width="0.913425" stroke-miterlimit="10"/>
<path d="M469.199 155.018C470.374 155.018 471.327 154.065 471.327 152.89C471.327 151.714 470.374 150.761 469.199 150.761C468.023 150.761 467.07 151.714 467.07 152.89C467.07 154.065 468.023 155.018 469.199 155.018Z" stroke="#C5C5D3" stroke-width="0.913425" stroke-miterlimit="10"/>
<path d="M405.597 155.018C406.772 155.018 407.725 154.065 407.725 152.89C407.725 151.714 406.772 150.761 405.597 150.761C404.422 150.761 403.469 151.714 403.469 152.89C403.469 154.065 404.422 155.018 405.597 155.018Z" stroke="#C5C5D3" stroke-width="0.913425" stroke-miterlimit="10"/>
<path d="M405.597 193.373C406.772 193.373 407.725 192.42 407.725 191.244C407.725 190.069 406.772 189.116 405.597 189.116C404.422 189.116 403.469 190.069 403.469 191.244C403.469 192.42 404.422 193.373 405.597 193.373Z" stroke="#C5C5D3" stroke-width="0.913425" stroke-miterlimit="10"/>
<path d="M234.384 249.256C235.56 249.256 236.512 248.303 236.512 247.128C236.512 245.952 235.56 245 234.384 245C233.209 245 232.256 245.952 232.256 247.128C232.256 248.303 233.209 249.256 234.384 249.256Z" stroke="#C5C5D3" stroke-width="0.913425" stroke-miterlimit="10"/>
<path d="M253.566 279.399C254.741 279.399 255.694 278.446 255.694 277.271C255.694 276.095 254.741 275.143 253.566 275.143C252.39 275.143 251.438 276.095 251.438 277.271C251.438 278.446 252.39 279.399 253.566 279.399Z" stroke="#C5C5D3" stroke-width="0.913425" stroke-miterlimit="10"/>
<path d="M234.384 309.542C235.56 309.542 236.512 308.589 236.512 307.414C236.512 306.238 235.56 305.286 234.384 305.286C233.209 305.286 232.256 306.238 232.256 307.414C232.256 308.589 233.209 309.542 234.384 309.542Z" stroke="#C5C5D3" stroke-width="0.913425" stroke-miterlimit="10"/>
<path d="M248.085 339.685C249.261 339.685 250.214 338.732 250.214 337.557C250.214 336.382 249.261 335.429 248.085 335.429C246.91 335.429 245.957 336.382 245.957 337.557C245.957 338.732 246.91 339.685 248.085 339.685Z" stroke="#C5C5D3" stroke-width="0.913425" stroke-miterlimit="10"/>
<path d="M253.402 399.085C254.577 399.085 255.53 398.132 255.53 396.957C255.53 395.781 254.577 394.829 253.402 394.829C252.226 394.829 251.273 395.781 251.273 396.957C251.273 398.132 252.226 399.085 253.402 399.085Z" stroke="#C5C5D3" stroke-width="0.913425" stroke-miterlimit="10"/>
<path d="M234.22 368.942C235.395 368.942 236.348 367.989 236.348 366.814C236.348 365.638 235.395 364.686 234.22 364.686C233.045 364.686 232.092 365.638 232.092 366.814C232.092 367.989 233.045 368.942 234.22 368.942Z" stroke="#C5C5D3" stroke-width="0.913425" stroke-miterlimit="10"/>
<path d="M234.32 429.365C235.495 429.365 236.448 428.412 236.448 427.237C236.448 426.062 235.495 425.109 234.32 425.109C233.144 425.109 232.191 426.062 232.191 427.237C232.191 428.412 233.144 429.365 234.32 429.365Z" stroke="#C5C5D3" stroke-width="0.913425" stroke-miterlimit="10"/>
<path d="M271.771 462.249C272.946 462.249 273.899 461.296 273.899 460.12C273.899 458.945 272.946 457.992 271.771 457.992C270.595 457.992 269.643 458.945 269.643 460.12C269.643 461.296 270.595 462.249 271.771 462.249Z" stroke="#C5C5D3" stroke-width="0.913425" stroke-miterlimit="10"/>
<path d="M482.773 462.249C483.948 462.249 484.901 461.296 484.901 460.12C484.901 458.945 483.948 457.992 482.773 457.992C481.597 457.992 480.645 458.945 480.645 460.12C480.645 461.296 481.597 462.249 482.773 462.249Z" stroke="#C5C5D3" stroke-width="0.913425" stroke-miterlimit="10"/>
<path d="M220.327 391.476C221.255 391.476 222.008 390.523 222.008 389.348C222.008 388.173 221.255 387.22 220.327 387.22C219.399 387.22 218.646 388.173 218.646 389.348C218.646 390.523 219.399 391.476 220.327 391.476Z" stroke="#C5C5D3" stroke-width="0.913425" stroke-miterlimit="10"/>
<path d="M197.491 439.495C198.419 439.495 199.172 438.542 199.172 437.367C199.172 436.191 198.419 435.239 197.491 435.239C196.563 435.239 195.811 436.191 195.811 437.367C195.811 438.542 196.563 439.495 197.491 439.495Z" stroke="#C5C5D3" stroke-width="0.913425" stroke-miterlimit="10"/>
<path d="M220.327 199.264C221.255 199.264 222.008 198.312 222.008 197.136C222.008 195.961 221.255 195.008 220.327 195.008C219.399 195.008 218.646 195.961 218.646 197.136C218.646 198.312 219.399 199.264 220.327 199.264Z" stroke="#C5C5D3" stroke-width="0.913425" stroke-miterlimit="10"/>
<path d="M197.491 151.246C198.419 151.246 199.172 150.293 199.172 149.117C199.172 147.942 198.419 146.989 197.491 146.989C196.563 146.989 195.811 147.942 195.811 149.117C195.811 150.293 196.563 151.246 197.491 151.246Z" stroke="#C5C5D3" stroke-width="0.913425" stroke-miterlimit="10"/>
<path d="M502.019 399.853C503.194 399.853 504.147 398.9 504.147 397.724C504.147 396.549 503.194 395.596 502.019 395.596C500.844 395.596 499.891 396.549 499.891 397.724C499.891 398.9 500.844 399.853 502.019 399.853Z" stroke="#C5C5D3" stroke-width="0.913425" stroke-miterlimit="10"/>
<path d="M521.201 369.709C522.376 369.709 523.329 368.757 523.329 367.581C523.329 366.406 522.376 365.453 521.201 365.453C520.025 365.453 519.072 366.406 519.072 367.581C519.072 368.757 520.025 369.709 521.201 369.709Z" stroke="#C5C5D3" stroke-width="0.913425" stroke-miterlimit="10"/>
<path d="M506.585 339.566C507.761 339.566 508.714 338.614 508.714 337.438C508.714 336.263 507.761 335.31 506.585 335.31C505.41 335.31 504.457 336.263 504.457 337.438C504.457 338.614 505.41 339.566 506.585 339.566Z" stroke="#C5C5D3" stroke-width="0.913425" stroke-miterlimit="10"/>
<path d="M521.201 309.423C522.376 309.423 523.329 308.47 523.329 307.295C523.329 306.12 522.376 305.167 521.201 305.167C520.025 305.167 519.072 306.12 519.072 307.295C519.072 308.47 520.025 309.423 521.201 309.423Z" stroke="#C5C5D3" stroke-width="0.913425" stroke-miterlimit="10"/>
<path d="M521.036 250.032C522.212 250.032 523.165 249.08 523.165 247.904C523.165 246.729 522.212 245.776 521.036 245.776C519.861 245.776 518.908 246.729 518.908 247.904C518.908 249.08 519.861 250.032 521.036 250.032Z" stroke="#C5C5D3" stroke-width="0.913425" stroke-miterlimit="10"/>
<path d="M501.853 280.176C503.028 280.176 503.981 279.223 503.981 278.047C503.981 276.872 503.028 275.919 501.853 275.919C500.677 275.919 499.725 276.872 499.725 278.047C499.725 279.223 500.677 280.176 501.853 280.176Z" stroke="#C5C5D3" stroke-width="0.913425" stroke-miterlimit="10"/>
<path d="M501.954 182.302C503.13 182.302 504.083 181.349 504.083 180.174C504.083 178.998 503.13 178.045 501.954 178.045C500.779 178.045 499.826 178.998 499.826 180.174C499.826 181.349 500.779 182.302 501.954 182.302Z" stroke="#C5C5D3" stroke-width="0.913425" stroke-miterlimit="10"/>
<path d="M535.458 199.575C536.386 199.575 537.139 198.622 537.139 197.447C537.139 196.271 536.386 195.318 535.458 195.318C534.53 195.318 533.777 196.271 533.777 197.447C533.777 198.622 534.53 199.575 535.458 199.575Z" stroke="#C5C5D3" stroke-width="0.913425" stroke-miterlimit="10"/>
<path d="M534.546 391.394C535.474 391.394 536.227 390.441 536.227 389.266C536.227 388.091 535.474 387.138 534.546 387.138C533.618 387.138 532.865 388.091 532.865 389.266C532.865 390.441 533.618 391.394 534.546 391.394Z" stroke="#C5C5D3" stroke-width="0.913425" stroke-miterlimit="10"/>
<path d="M520.05 429.968C521.226 429.968 522.178 429.015 522.178 427.84C522.178 426.664 521.226 425.711 520.05 425.711C518.875 425.711 517.922 426.664 517.922 427.84C517.922 429.015 518.875 429.968 520.05 429.968Z" stroke="#C5C5D3" stroke-width="0.913425" stroke-miterlimit="10"/>
<path d="M557.499 440.929C558.427 440.929 559.18 439.976 559.18 438.801C559.18 437.625 558.427 436.673 557.499 436.673C556.571 436.673 555.818 437.625 555.818 438.801C555.818 439.976 556.571 440.929 557.499 440.929Z" stroke="#C5C5D3" stroke-width="0.913425" stroke-miterlimit="10"/>
<path d="M558.239 151.51C559.168 151.51 559.92 150.558 559.92 149.382C559.92 148.207 559.168 147.254 558.239 147.254C557.311 147.254 556.559 148.207 556.559 149.382C556.559 150.558 557.311 151.51 558.239 151.51Z" stroke="#C5C5D3" stroke-width="0.913425" stroke-miterlimit="10"/>
<path d="M505.283 206.677L504.295 205.688C503.239 204.633 501.527 204.633 500.471 205.688L490.602 215.558C489.546 216.614 489.546 218.325 490.602 219.381L491.59 220.369C492.646 221.425 494.358 221.425 495.414 220.369L505.283 210.5C506.339 209.444 506.339 207.733 505.283 206.677Z" fill="#F5F6FC" stroke="black" stroke-width="0.913425" stroke-miterlimit="10"/>
<path d="M251.351 205.444L250.363 206.432C249.307 207.488 249.307 209.2 250.363 210.256L260.232 220.125C261.288 221.181 263 221.181 264.056 220.125L265.044 219.137C266.1 218.081 266.1 216.369 265.044 215.313L255.175 205.444C254.119 204.388 252.407 204.388 251.351 205.444Z" fill="#F5F6FC" stroke="black" stroke-width="0.913425" stroke-miterlimit="10"/>
<path d="M491.882 447.946L490.894 448.934C489.838 449.99 489.838 451.702 490.894 452.758L500.763 462.627C501.819 463.683 503.531 463.683 504.587 462.627L505.575 461.639C506.631 460.583 506.631 458.871 505.575 457.815L495.706 447.946C494.65 446.89 492.938 446.89 491.882 447.946Z" fill="#F5F6FC" stroke="black" stroke-width="0.913425" stroke-miterlimit="10"/>
<path d="M265.052 448.929L264.064 447.941C263.008 446.885 261.296 446.885 260.241 447.941L250.371 457.81C249.315 458.866 249.315 460.578 250.371 461.634L251.36 462.622C252.415 463.678 254.127 463.678 255.183 462.622L265.052 452.753C266.108 451.697 266.108 449.985 265.052 448.929Z" fill="#F5F6FC" stroke="black" stroke-width="0.913425" stroke-miterlimit="10"/>
<path d="M378.605 202.863H377.208C375.714 202.863 374.504 204.074 374.504 205.567V219.99C374.504 221.483 375.714 222.694 377.208 222.694H378.605C380.098 222.694 381.309 221.483 381.309 219.99V205.567C381.309 204.074 380.098 202.863 378.605 202.863Z" fill="#F5F6FC" stroke="black" stroke-width="0.913425" stroke-miterlimit="10"/>
<path d="M375.847 235.637H339.867V238.377H375.847V235.637Z" fill="#C5C5D3"/>
<path d="M415.061 438.737H414.129V435.723H415.097C415.389 435.723 415.636 435.787 415.846 435.905C416.056 436.024 416.212 436.198 416.321 436.426C416.431 436.654 416.486 436.919 416.486 437.23C416.486 437.54 416.431 437.814 416.321 438.043C416.212 438.271 416.047 438.445 415.828 438.563C415.609 438.682 415.353 438.746 415.051 438.746L415.061 438.737ZM414.494 438.408H415.033C415.28 438.408 415.49 438.362 415.654 438.262C415.819 438.162 415.937 438.025 416.02 437.851C416.102 437.677 416.138 437.458 416.138 437.212C416.138 436.965 416.102 436.755 416.02 436.581C415.937 436.408 415.819 436.271 415.663 436.17C415.508 436.079 415.307 436.024 415.07 436.024H414.485V438.39L414.494 438.408Z" fill="#C5C5D3"/>
<path d="M419.655 437.23C419.655 437.55 419.601 437.824 419.482 438.052C419.363 438.28 419.208 438.463 419.007 438.591C418.806 438.719 418.578 438.783 418.322 438.783C418.066 438.783 417.838 438.719 417.637 438.591C417.436 438.463 417.281 438.289 417.162 438.052C417.043 437.824 416.988 437.54 416.988 437.23C416.988 436.919 417.043 436.636 417.162 436.408C417.281 436.179 417.436 435.997 417.637 435.869C417.838 435.741 418.066 435.677 418.322 435.677C418.578 435.677 418.806 435.741 419.007 435.869C419.208 435.997 419.363 436.17 419.482 436.408C419.592 436.636 419.655 436.91 419.655 437.23ZM419.308 437.23C419.308 436.965 419.263 436.746 419.181 436.572C419.098 436.389 418.98 436.252 418.824 436.161C418.678 436.07 418.514 436.024 418.331 436.024C418.148 436.024 417.984 436.07 417.838 436.161C417.692 436.252 417.573 436.389 417.482 436.572C417.399 436.755 417.354 436.974 417.354 437.23C417.354 437.486 417.399 437.714 417.482 437.887C417.573 438.07 417.682 438.207 417.838 438.299C417.984 438.39 418.148 438.436 418.331 438.436C418.514 438.436 418.678 438.39 418.824 438.299C418.97 438.207 419.089 438.07 419.181 437.887C419.272 437.705 419.308 437.486 419.308 437.23Z" fill="#C5C5D3"/>
<path d="M423.829 435.714V438.728H423.472L421.828 436.362H421.801V438.728H421.436V435.714H421.792L423.445 438.089H423.472V435.714H423.829Z" fill="#C5C5D3"/>
<path d="M427.109 437.23C427.109 437.55 427.054 437.824 426.935 438.052C426.816 438.28 426.661 438.463 426.46 438.591C426.259 438.719 426.031 438.783 425.775 438.783C425.519 438.783 425.291 438.719 425.09 438.591C424.889 438.463 424.734 438.289 424.615 438.052C424.496 437.824 424.441 437.54 424.441 437.23C424.441 436.919 424.496 436.636 424.615 436.408C424.734 436.179 424.889 435.997 425.09 435.869C425.291 435.741 425.519 435.677 425.775 435.677C426.031 435.677 426.259 435.741 426.46 435.869C426.661 435.997 426.816 436.17 426.935 436.408C427.045 436.636 427.109 436.91 427.109 437.23ZM426.752 437.23C426.752 436.965 426.707 436.746 426.624 436.572C426.542 436.389 426.424 436.252 426.268 436.161C426.122 436.07 425.958 436.024 425.775 436.024C425.592 436.024 425.428 436.07 425.282 436.161C425.136 436.252 425.017 436.389 424.926 436.572C424.843 436.755 424.798 436.974 424.798 437.23C424.798 437.486 424.843 437.714 424.926 437.887C425.017 438.07 425.126 438.207 425.282 438.299C425.428 438.39 425.592 438.436 425.775 438.436C425.958 438.436 426.122 438.39 426.268 438.299C426.414 438.207 426.533 438.07 426.624 437.887C426.716 437.705 426.752 437.486 426.752 437.23Z" fill="#C5C5D3"/>
<path d="M427.428 436.042V435.714H429.693V436.042H428.743V438.737H428.378V436.042H427.428Z" fill="#C5C5D3"/>
<path d="M431.43 438.737V435.723H433.247V436.052H431.795V437.075H433.156V437.394H431.795V438.417H433.275V438.737H431.43Z" fill="#C5C5D3"/>
<path d="M434.088 435.714L434.864 436.974H434.891L435.668 435.714H436.097L435.147 437.221L436.097 438.728H435.668L434.891 437.495H434.864L434.088 438.728H433.658L434.626 437.221L433.658 435.714H434.088Z" fill="#C5C5D3"/>
<path d="M438.956 436.664H438.591C438.572 436.563 438.536 436.463 438.481 436.39C438.426 436.317 438.362 436.243 438.289 436.189C438.216 436.134 438.125 436.097 438.033 436.07C437.942 436.042 437.842 436.033 437.741 436.033C437.558 436.033 437.394 436.079 437.248 436.17C437.102 436.262 436.983 436.399 436.892 436.581C436.809 436.764 436.764 436.983 436.764 437.239C436.764 437.495 436.809 437.723 436.892 437.897C436.983 438.079 437.093 438.216 437.248 438.308C437.394 438.399 437.558 438.445 437.741 438.445C437.842 438.445 437.933 438.436 438.033 438.408C438.125 438.381 438.207 438.335 438.289 438.29C438.362 438.235 438.426 438.171 438.481 438.089C438.536 438.006 438.572 437.915 438.591 437.815H438.956C438.929 437.97 438.883 438.107 438.801 438.226C438.728 438.344 438.636 438.454 438.527 438.536C438.417 438.618 438.298 438.682 438.161 438.728C438.024 438.774 437.887 438.792 437.732 438.792C437.476 438.792 437.248 438.728 437.047 438.6C436.846 438.472 436.691 438.299 436.572 438.061C436.453 437.833 436.398 437.55 436.398 437.239C436.398 436.929 436.453 436.645 436.572 436.417C436.691 436.189 436.846 436.006 437.047 435.878C437.248 435.75 437.476 435.686 437.732 435.686C437.887 435.686 438.024 435.705 438.161 435.75C438.298 435.796 438.417 435.86 438.527 435.942C438.636 436.024 438.728 436.134 438.801 436.253C438.874 436.371 438.919 436.508 438.956 436.664Z" fill="#C5C5D3"/>
<path d="M439.541 438.737V435.723H441.359V436.052H439.906V437.075H441.267V437.394H439.906V438.417H441.386V438.737H439.541Z" fill="#C5C5D3"/>
<path d="M442.025 438.737V435.723H443.843V436.052H442.391V437.075H443.752V437.394H442.391V438.417H443.87V438.737H442.025Z" fill="#C5C5D3"/>
<path d="M445.432 438.737H444.5V435.723H445.468C445.761 435.723 446.007 435.787 446.217 435.905C446.427 436.024 446.583 436.198 446.692 436.426C446.802 436.654 446.857 436.919 446.857 437.23C446.857 437.54 446.802 437.814 446.692 438.043C446.583 438.271 446.418 438.445 446.199 438.563C445.98 438.682 445.724 438.746 445.423 438.746L445.432 438.737ZM444.865 438.408H445.404C445.651 438.408 445.861 438.362 446.025 438.262C446.19 438.162 446.309 438.025 446.391 437.851C446.473 437.677 446.51 437.458 446.51 437.212C446.51 436.965 446.473 436.755 446.391 436.581C446.309 436.408 446.19 436.271 446.035 436.17C445.879 436.079 445.678 436.024 445.441 436.024H444.856V438.39L444.865 438.408Z" fill="#C5C5D3"/>
<path d="M449.624 438.774C449.432 438.774 449.259 438.737 449.103 438.673C448.948 438.609 448.829 438.518 448.738 438.39C448.647 438.271 448.601 438.134 448.592 437.97H448.966C448.966 438.07 449.003 438.153 449.067 438.226C449.131 438.299 449.204 438.353 449.295 438.39C449.386 438.427 449.496 438.445 449.615 438.445C449.743 438.445 449.861 438.427 449.962 438.381C450.062 438.335 450.145 438.271 450.199 438.189C450.254 438.107 450.282 438.015 450.282 437.906C450.282 437.796 450.254 437.696 450.199 437.614C450.145 437.531 450.062 437.458 449.962 437.413C449.861 437.367 449.724 437.34 449.569 437.34H449.332V437.02H449.569C449.688 437.02 449.798 437.002 449.889 436.956C449.98 436.91 450.053 436.855 450.099 436.773C450.154 436.691 450.172 436.6 450.172 436.499C450.172 436.399 450.154 436.307 450.108 436.234C450.062 436.161 449.998 436.097 449.916 436.061C449.834 436.024 449.734 435.997 449.624 435.997C449.523 435.997 449.423 436.015 449.332 436.052C449.24 436.088 449.167 436.143 449.103 436.216C449.039 436.289 449.012 436.371 449.012 436.472H448.656C448.656 436.317 448.711 436.17 448.802 436.052C448.893 435.933 449.012 435.842 449.149 435.768C449.295 435.705 449.45 435.668 449.624 435.668C449.816 435.668 449.971 435.705 450.108 435.778C450.245 435.851 450.346 435.951 450.419 436.079C450.492 436.198 450.528 436.335 450.528 436.481C450.528 436.654 450.483 436.791 450.391 436.919C450.3 437.038 450.181 437.12 450.026 437.166V437.193C450.218 437.221 450.364 437.303 450.473 437.44C450.583 437.577 450.638 437.732 450.638 437.924C450.638 438.089 450.592 438.235 450.501 438.363C450.41 438.49 450.291 438.591 450.135 438.673C449.98 438.746 449.807 438.783 449.615 438.783L449.624 438.774Z" fill="#C5C5D3"/>
<path d="M452.228 438.774C452.009 438.774 451.817 438.71 451.662 438.591C451.507 438.472 451.388 438.289 451.306 438.061C451.223 437.833 451.178 437.55 451.178 437.221C451.178 436.892 451.223 436.618 451.306 436.38C451.388 436.152 451.507 435.969 451.662 435.851C451.817 435.732 452.009 435.668 452.228 435.668C452.447 435.668 452.639 435.732 452.794 435.851C452.95 435.969 453.069 436.152 453.151 436.38C453.233 436.609 453.279 436.892 453.279 437.221C453.279 437.55 453.233 437.833 453.151 438.061C453.069 438.289 452.95 438.472 452.794 438.591C452.639 438.71 452.447 438.774 452.228 438.774ZM452.228 438.454C452.447 438.454 452.621 438.344 452.74 438.134C452.858 437.924 452.922 437.623 452.922 437.23C452.922 436.965 452.895 436.746 452.84 436.563C452.785 436.38 452.703 436.243 452.603 436.143C452.502 436.042 452.374 435.997 452.228 435.997C452.009 435.997 451.835 436.106 451.717 436.316C451.598 436.527 451.534 436.837 451.534 437.23C451.534 437.495 451.561 437.714 451.616 437.897C451.671 438.079 451.753 438.216 451.854 438.317C451.954 438.408 452.082 438.463 452.228 438.463V438.454Z" fill="#C5C5D3"/>
<path d="M454.822 438.774C454.603 438.774 454.411 438.71 454.256 438.591C454.1 438.472 453.982 438.289 453.899 438.061C453.817 437.833 453.771 437.55 453.771 437.221C453.771 436.892 453.817 436.618 453.899 436.38C453.982 436.152 454.1 435.969 454.256 435.851C454.411 435.732 454.603 435.668 454.822 435.668C455.041 435.668 455.233 435.732 455.388 435.851C455.544 435.969 455.662 436.152 455.744 436.38C455.827 436.609 455.872 436.892 455.872 437.221C455.872 437.55 455.827 437.833 455.744 438.061C455.662 438.289 455.544 438.472 455.388 438.591C455.233 438.71 455.041 438.774 454.822 438.774ZM454.822 438.454C455.041 438.454 455.215 438.344 455.333 438.134C455.452 437.924 455.516 437.623 455.516 437.23C455.516 436.965 455.489 436.746 455.434 436.563C455.379 436.38 455.297 436.243 455.196 436.143C455.096 436.042 454.968 435.997 454.822 435.997C454.603 435.997 454.429 436.106 454.31 436.316C454.192 436.527 454.128 436.837 454.128 437.23C454.128 437.495 454.155 437.714 454.21 437.897C454.265 438.079 454.347 438.216 454.447 438.317C454.548 438.408 454.676 438.463 454.822 438.463V438.454Z" fill="#C5C5D3"/>
<path d="M456.484 438.737V435.723H456.85V438.417H458.256V438.737H456.484Z" fill="#C5C5D3"/>
<path d="M458.814 438.737V435.723H459.864C460.074 435.723 460.248 435.759 460.385 435.832C460.522 435.905 460.622 435.997 460.686 436.125C460.75 436.252 460.787 436.38 460.787 436.526C460.787 436.654 460.759 436.764 460.714 436.846C460.668 436.928 460.604 437.001 460.531 437.047C460.458 437.093 460.376 437.129 460.294 437.157V437.184C460.385 437.184 460.476 437.221 460.568 437.285C460.659 437.339 460.741 437.431 460.805 437.54C460.869 437.65 460.896 437.787 460.896 437.942C460.896 438.098 460.86 438.235 460.796 438.353C460.732 438.472 460.622 438.573 460.467 438.636C460.312 438.7 460.129 438.746 459.892 438.746H458.805L458.814 438.737ZM459.179 437.047H459.855C459.965 437.047 460.065 437.029 460.157 436.983C460.248 436.938 460.312 436.883 460.367 436.8C460.421 436.718 460.449 436.627 460.449 436.526C460.449 436.389 460.403 436.28 460.312 436.189C460.22 436.097 460.074 436.052 459.873 436.052H459.188V437.056L459.179 437.047ZM459.179 438.408H459.901C460.138 438.408 460.312 438.362 460.412 438.271C460.513 438.18 460.568 438.061 460.568 437.933C460.568 437.833 460.54 437.741 460.485 437.65C460.431 437.559 460.358 437.495 460.266 437.44C460.175 437.385 460.056 437.358 459.928 437.358H459.188V438.408H459.179Z" fill="#C5C5D3"/>
<path d="M463.161 436.472C463.143 436.326 463.069 436.207 462.942 436.125C462.814 436.042 462.658 435.997 462.476 435.997C462.339 435.997 462.229 436.015 462.129 436.061C462.028 436.106 461.955 436.161 461.9 436.243C461.845 436.316 461.818 436.408 461.818 436.499C461.818 436.581 461.836 436.645 461.873 436.709C461.909 436.764 461.964 436.819 462.019 436.855C462.083 436.892 462.147 436.928 462.211 436.947C462.275 436.965 462.339 436.992 462.394 437.002L462.704 437.084C462.786 437.102 462.868 437.129 462.969 437.166C463.069 437.202 463.161 437.248 463.243 437.312C463.334 437.376 463.407 437.458 463.462 437.55C463.517 437.641 463.544 437.769 463.544 437.906C463.544 438.07 463.499 438.216 463.417 438.344C463.334 438.472 463.206 438.582 463.042 438.655C462.878 438.728 462.686 438.774 462.448 438.774C462.229 438.774 462.046 438.737 461.891 438.673C461.736 438.6 461.608 438.509 461.517 438.381C461.425 438.253 461.38 438.116 461.361 437.942H461.736C461.745 438.052 461.782 438.152 461.855 438.226C461.919 438.299 462.01 438.353 462.11 438.39C462.211 438.426 462.33 438.445 462.448 438.445C462.585 438.445 462.713 438.426 462.823 438.381C462.932 438.335 463.024 438.271 463.088 438.189C463.152 438.107 463.188 438.006 463.188 437.897C463.188 437.796 463.161 437.714 463.106 437.65C463.051 437.586 462.978 437.54 462.887 437.495C462.795 437.458 462.695 437.422 462.594 437.394L462.22 437.285C461.982 437.221 461.8 437.12 461.663 436.992C461.526 436.865 461.453 436.7 461.453 436.499C461.453 436.326 461.498 436.179 461.59 436.052C461.681 435.924 461.809 435.823 461.964 435.759C462.119 435.686 462.293 435.65 462.485 435.65C462.677 435.65 462.85 435.686 463.006 435.75C463.161 435.823 463.28 435.915 463.362 436.033C463.453 436.152 463.499 436.289 463.499 436.444H463.143L463.161 436.472Z" fill="#C5C5D3"/>
<path d="M291.401 238.505L290.561 235.491H291.036L291.62 237.829H291.648L292.26 235.491H292.735L293.346 237.829H293.374L293.958 235.491H294.443L293.602 238.505H293.146L292.506 236.249H292.479L291.839 238.505H291.383H291.401Z" fill="#C5C5D3"/>
<path d="M294.863 238.505V235.491H296.754V235.883H295.32V236.806H296.654V237.199H295.32V238.121H296.772V238.514H294.863V238.505Z" fill="#C5C5D3"/>
<path d="M297.822 235.482V238.496H297.365V235.482H297.822Z" fill="#C5C5D3"/>
<path d="M300.525 236.441C300.498 236.349 300.462 236.267 300.416 236.203C300.37 236.13 300.315 236.075 300.242 236.021C300.169 235.966 300.105 235.929 300.014 235.902C299.932 235.874 299.84 235.865 299.74 235.865C299.566 235.865 299.42 235.911 299.283 235.993C299.146 236.075 299.037 236.212 298.963 236.377C298.881 236.541 298.845 236.751 298.845 236.998C298.845 237.245 298.881 237.446 298.963 237.619C299.046 237.793 299.155 237.921 299.292 238.003C299.429 238.085 299.585 238.131 299.767 238.131C299.932 238.131 300.078 238.094 300.197 238.03C300.315 237.966 300.416 237.866 300.48 237.747C300.544 237.628 300.58 237.482 300.58 237.318L300.699 237.336H299.831V236.961H301.019V237.309C301.019 237.564 300.964 237.784 300.854 237.966C300.745 238.149 300.599 238.295 300.407 238.396C300.215 238.496 300.005 238.551 299.758 238.551C299.484 238.551 299.247 238.487 299.037 238.359C298.826 238.231 298.671 238.058 298.552 237.82C298.434 237.592 298.379 237.318 298.379 236.998C298.379 236.76 298.415 236.541 298.479 236.349C298.543 236.158 298.644 235.993 298.763 235.856C298.881 235.719 299.027 235.619 299.192 235.546C299.356 235.473 299.539 235.436 299.731 235.436C299.895 235.436 300.041 235.463 300.187 235.509C300.334 235.555 300.452 235.628 300.562 235.71C300.672 235.801 300.763 235.902 300.836 236.021C300.909 236.139 300.955 236.276 300.982 236.423H300.516L300.525 236.441Z" fill="#C5C5D3"/>
<path d="M301.596 238.505V235.491H302.052V236.806H303.56V235.491H304.016V238.505H303.56V237.19H302.052V238.505H301.596Z" fill="#C5C5D3"/>
<path d="M304.527 235.874V235.482H306.866V235.874H305.925V238.496H305.468V235.874H304.527Z" fill="#C5C5D3"/>
<path d="M308.473 238.505V235.491H309.578C309.788 235.491 309.971 235.527 310.108 235.6C310.245 235.673 310.354 235.765 310.418 235.883C310.482 236.002 310.519 236.139 310.519 236.285C310.519 236.413 310.501 236.514 310.446 236.605C310.391 236.696 310.336 236.76 310.263 236.815C310.19 236.87 310.099 236.907 310.007 236.925V236.952C310.108 236.952 310.208 236.989 310.3 237.053C310.391 237.107 310.473 237.199 310.537 237.308C310.601 237.418 310.628 237.546 310.628 237.71C310.628 237.875 310.592 238.003 310.519 238.121C310.446 238.24 310.336 238.341 310.181 238.414C310.035 238.487 309.834 238.523 309.605 238.523H308.445L308.473 238.505ZM308.929 236.788H309.541C309.642 236.788 309.733 236.77 309.815 236.733C309.898 236.696 309.962 236.642 310.007 236.569C310.053 236.495 310.08 236.413 310.08 236.313C310.08 236.185 310.035 236.084 309.952 236.002C309.861 235.92 309.733 235.874 309.551 235.874H308.929V236.788ZM308.929 238.112H309.587C309.806 238.112 309.962 238.067 310.053 237.984C310.144 237.902 310.19 237.793 310.19 237.665C310.19 237.573 310.163 237.482 310.117 237.4C310.071 237.318 309.998 237.254 309.907 237.208C309.815 237.162 309.715 237.135 309.587 237.135H308.911V238.103L308.929 238.112Z" fill="#C5C5D3"/>
<path d="M311.186 238.505V235.491H313.076V235.883H311.642V236.806H312.976V237.199H311.642V238.121H313.095V238.514H311.186V238.505Z" fill="#C5C5D3"/>
<path d="M313.945 238.505H313.461L314.548 235.491H315.078L316.165 238.505H315.681L314.831 236.039H314.804L313.945 238.505ZM314.027 237.318H315.598V237.701H314.027V237.318Z" fill="#C5C5D3"/>
<path d="M316.593 238.505V235.491H317.671C317.908 235.491 318.1 235.527 318.256 235.609C318.411 235.692 318.53 235.801 318.603 235.947C318.676 236.094 318.712 236.249 318.712 236.441C318.712 236.632 318.676 236.788 318.594 236.925C318.52 237.062 318.402 237.171 318.246 237.254C318.091 237.336 317.899 237.372 317.662 237.372H316.849V236.98H317.625C317.771 236.98 317.89 236.961 317.982 236.916C318.073 236.87 318.146 236.815 318.182 236.733C318.228 236.651 318.246 236.559 318.246 236.441C318.246 236.322 318.228 236.231 318.182 236.148C318.137 236.066 318.073 236.002 317.982 235.957C317.89 235.911 317.762 235.893 317.616 235.893H317.041V238.523H316.584L316.593 238.505ZM318.082 237.144L318.831 238.505H318.31L317.58 237.144H318.082Z" fill="#C5C5D3"/>
<path d="M319.726 235.482V238.496H319.27V235.482H319.726Z" fill="#C5C5D3"/>
<path d="M322.824 235.482V238.496H322.403L320.869 236.285H320.841V238.496H320.385V235.482H320.805L322.339 237.701H322.367V235.482H322.814H322.824Z" fill="#C5C5D3"/>
<path d="M325.527 236.441C325.5 236.349 325.463 236.267 325.418 236.203C325.372 236.13 325.317 236.075 325.244 236.021C325.171 235.966 325.107 235.929 325.016 235.902C324.934 235.874 324.842 235.865 324.742 235.865C324.568 235.865 324.422 235.911 324.285 235.993C324.148 236.075 324.039 236.212 323.965 236.377C323.883 236.541 323.847 236.751 323.847 236.998C323.847 237.245 323.883 237.446 323.965 237.619C324.048 237.793 324.157 237.921 324.294 238.003C324.431 238.085 324.587 238.131 324.769 238.131C324.934 238.131 325.08 238.094 325.199 238.03C325.317 237.966 325.418 237.866 325.482 237.747C325.546 237.628 325.582 237.482 325.582 237.318L325.701 237.336H324.833V236.961H326.021V237.309C326.021 237.564 325.966 237.784 325.856 237.966C325.747 238.149 325.6 238.295 325.409 238.396C325.217 238.496 325.007 238.551 324.76 238.551C324.486 238.551 324.249 238.487 324.039 238.359C323.828 238.231 323.673 238.058 323.554 237.82C323.436 237.592 323.381 237.318 323.381 236.998C323.381 236.76 323.417 236.541 323.481 236.349C323.545 236.158 323.646 235.993 323.764 235.856C323.883 235.719 324.029 235.619 324.194 235.546C324.358 235.473 324.541 235.436 324.733 235.436C324.897 235.436 325.043 235.463 325.189 235.509C325.336 235.555 325.454 235.628 325.564 235.71C325.674 235.801 325.765 235.902 325.838 236.021C325.911 236.139 325.957 236.276 325.984 236.423H325.518L325.527 236.441Z" fill="#C5C5D3"/>
<path d="M327.609 238.505V238.204L329.198 235.883H327.6V235.491H329.755V235.792L328.166 238.112H329.764V238.505H327.609Z" fill="#C5C5D3"/>
<path d="M332.824 236.998C332.824 237.318 332.769 237.601 332.651 237.829C332.532 238.058 332.367 238.24 332.167 238.359C331.966 238.487 331.728 238.542 331.472 238.542C331.217 238.542 330.979 238.478 330.769 238.359C330.568 238.231 330.404 238.058 330.285 237.829C330.166 237.601 330.111 237.318 330.111 236.998C330.111 236.678 330.166 236.395 330.285 236.167C330.404 235.938 330.568 235.756 330.769 235.637C330.97 235.509 331.207 235.454 331.472 235.454C331.737 235.454 331.966 235.518 332.167 235.637C332.367 235.765 332.532 235.938 332.651 236.167C332.769 236.395 332.824 236.678 332.824 236.998ZM332.367 236.998C332.367 236.751 332.331 236.541 332.249 236.377C332.167 236.212 332.057 236.085 331.92 235.993C331.783 235.911 331.628 235.865 331.454 235.865C331.281 235.865 331.125 235.911 330.988 235.993C330.851 236.075 330.742 236.212 330.669 236.377C330.586 236.541 330.55 236.751 330.55 236.998C330.55 237.245 330.586 237.455 330.669 237.619C330.751 237.784 330.851 237.911 330.988 238.003C331.125 238.094 331.281 238.131 331.454 238.131C331.628 238.131 331.783 238.085 331.92 238.003C332.057 237.921 332.167 237.793 332.249 237.619C332.331 237.455 332.367 237.245 332.367 236.998Z" fill="#C5C5D3"/>
<path d="M335.822 235.482V238.496H335.401L333.867 236.285H333.84V238.496H333.383V235.482H333.803L335.338 237.701H335.365V235.482H335.813H335.822Z" fill="#C5C5D3"/>
<path d="M336.488 238.505V235.491H338.379V235.883H336.945V236.806H338.279V237.199H336.945V238.121H338.397V238.514H336.488V238.505Z" fill="#C5C5D3"/>
<path d="M476.195 242.195V335.703H478.935V242.195C478.935 238.578 475.994 235.637 472.377 235.637H379.326V238.377H472.377C474.478 238.377 476.195 240.094 476.195 242.195Z" fill="#C5C5D3"/>
<path d="M279.197 335.703V242.195C279.197 240.094 280.915 238.377 283.015 238.377H288.925V235.637H283.015C279.398 235.637 276.457 238.578 276.457 242.195V335.703H279.197Z" fill="#C5C5D3"/>
<path d="M476.195 339.183V432.179C476.195 434.289 474.478 435.997 472.377 435.997H465.344V438.737H472.377C475.994 438.737 478.935 435.796 478.935 432.179V339.183H476.195Z" fill="#C5C5D3"/>
<path d="M279.197 432.179V339.183H276.457V432.179C276.457 435.796 279.398 438.737 283.015 438.737H411.434V435.997H283.015C280.905 435.997 279.197 434.28 279.197 432.179Z" fill="#C5C5D3"/>
<g clip-path="url(#clip1_259_12947)">
<path d="M362.637 125.035V124.419C362.637 124.37 362.594 124.331 362.546 124.337C360.646 124.556 359.192 126.048 358.975 127.93C358.97 127.978 359.008 128.022 359.057 128.022H359.691C359.731 128.022 359.763 127.992 359.768 127.953C359.965 126.475 361.083 125.315 362.57 125.112C362.609 125.107 362.638 125.075 362.638 125.035" fill="black"/>
<path d="M363.428 131.803V132.418C363.428 132.467 363.471 132.506 363.519 132.5C365.419 132.281 366.873 130.79 367.089 128.907C367.095 128.859 367.056 128.816 367.008 128.816H366.373C366.334 128.816 366.301 128.845 366.297 128.885C366.101 130.362 364.982 131.523 363.496 131.725C363.458 131.73 363.428 131.762 363.428 131.802" fill="black"/>
<path d="M366.373 128.022H367.008C367.056 128.022 367.095 127.978 367.089 127.93C366.873 126.048 365.419 124.556 363.519 124.337C363.471 124.331 363.428 124.371 363.428 124.419V125.034C363.428 125.074 363.457 125.107 363.496 125.112C364.983 125.313 366.101 126.474 366.297 127.952C366.301 127.991 366.334 128.021 366.373 128.021" fill="black"/>
<path d="M359.691 128.816H359.057C359.008 128.816 358.97 128.86 358.975 128.908C359.192 130.79 360.646 132.282 362.545 132.501C362.594 132.507 362.637 132.467 362.637 132.419V131.803C362.637 131.763 362.607 131.73 362.568 131.726C361.082 131.524 359.964 130.363 359.768 128.885C359.763 128.846 359.73 128.816 359.691 128.816Z" fill="black"/>
<path d="M383.594 125.035V124.419C383.594 124.37 383.55 124.331 383.502 124.337C381.603 124.556 380.148 126.048 379.932 127.93C379.927 127.978 379.966 128.022 380.014 128.022H380.649C380.688 128.022 380.721 127.992 380.725 127.953C380.922 126.475 382.04 125.314 383.526 125.112C383.564 125.107 383.594 125.075 383.594 125.035" fill="black"/>
<path d="M387.33 128.022H387.965C388.013 128.022 388.052 127.978 388.046 127.93C387.829 126.048 386.376 124.556 384.476 124.337C384.428 124.331 384.385 124.371 384.385 124.419V125.034C384.385 125.074 384.414 125.107 384.453 125.112C385.939 125.313 387.058 126.474 387.254 127.952C387.259 127.991 387.291 128.021 387.33 128.021" fill="black"/>
<path d="M380.647 128.816H380.012C379.964 128.816 379.925 128.86 379.93 128.908C380.147 130.79 381.601 132.282 383.5 132.501C383.549 132.507 383.591 132.467 383.591 132.419V131.803C383.591 131.763 383.562 131.73 383.523 131.726C382.036 131.524 380.919 130.363 380.723 128.885C380.718 128.846 380.685 128.816 380.646 128.816" fill="black"/>
<path d="M384.385 131.803V132.418C384.385 132.467 384.428 132.506 384.476 132.5C386.376 132.281 387.83 130.79 388.046 128.907C388.052 128.859 388.013 128.816 387.965 128.816H387.33C387.291 128.816 387.258 128.845 387.254 128.885C387.058 130.362 385.939 131.523 384.453 131.725C384.415 131.73 384.385 131.762 384.385 131.802" fill="black"/>
<path d="M393.706 127.942C392.634 127.59 391.957 127.318 391.957 126.455C391.957 125.591 392.645 125.081 393.593 125.081C394.592 125.081 395.195 125.639 395.5 126.318C395.52 126.361 395.569 126.378 395.61 126.355L396.134 126.06C396.172 126.039 396.187 125.993 396.169 125.954C395.75 125.043 394.859 124.309 393.593 124.309C392.328 124.309 391.167 125.092 391.167 126.489C391.167 127.953 392.408 128.294 393.695 128.726C394.857 129.112 395.636 129.407 395.636 130.327C395.636 131.178 394.97 131.757 393.773 131.757C392.576 131.757 391.837 131.184 391.535 130.284C391.518 130.237 391.464 130.214 391.421 130.24L390.887 130.553C390.853 130.573 390.837 130.617 390.85 130.653C391.273 131.818 392.332 132.529 393.762 132.529C395.342 132.529 396.425 131.666 396.425 130.304C396.425 128.828 395.139 128.419 393.705 127.942" fill="black"/>
<path d="M377.648 124.949C377.679 124.918 377.679 124.867 377.648 124.836L377.191 124.376C377.159 124.344 377.109 124.344 377.078 124.376L374.166 127.306C374.135 127.338 374.135 127.388 374.166 127.42L374.623 127.88C374.654 127.911 374.704 127.911 374.736 127.88L377.648 124.949Z" fill="black"/>
<path d="M377.481 131.88L374.12 128.498L373.55 127.925L370.189 124.543C370.158 124.512 370.107 124.512 370.076 124.543L369.619 125.003C369.588 125.035 369.588 125.085 369.619 125.117L372.98 128.498L369.619 131.88C369.588 131.912 369.588 131.963 369.619 131.994L370.076 132.453C370.108 132.485 370.158 132.485 370.189 132.453L373.55 129.071L376.911 132.453C376.943 132.485 376.993 132.485 377.024 132.453L377.481 131.994C377.513 131.962 377.513 131.911 377.481 131.88Z" fill="black"/>
</g>
</g>
<g clip-path="url(#clip2_259_12947)">
<g>

<path d="M384.552 588.329L367.058 508.594C367.058 508.594 353.48 458.51 353.235 446.411C352.99 434.312 359.967 400.247 359.967 400.247H458.899L478.319 479.095L500.1 586.045" fill="white"/>
<path d="M384.552 588.329L367.058 508.594C367.058 508.594 353.48 458.51 353.235 446.411C352.99 434.312 359.967 400.247 359.967 400.247H458.899L478.319 479.095L500.1 586.045" fill="none" stroke="#595CFF" stroke-width="5" stroke-linecap="round" stroke-linejoin="round"/>
</g>
</g>
<g>
<path d="M123 503L181.561 582L676 582L644.723 503L123 503Z" fill="#F1F4F9"/>
</g>
<g clip-path="url(#clip3_259_12947)">
<g>
<path d="M356.513 312.362C363.857 305.013 373.851 302.59 377.934 302.301C377.934 302.739 379.77 302.214 387.115 296.615C396.296 289.616 409.848 291.804 415.094 293.553C420.34 295.303 444.822 313.237 453.128 321.11C461.434 328.984 470.615 346.043 471.926 349.105C472.976 351.554 484.019 367.625 489.413 375.35C492.762 379.435 501.304 390.222 508.649 400.72C517.829 413.842 523.513 424.778 525.261 431.776C526.993 438.714 524.859 440.498 522.271 442.659L522.201 442.712C519.578 444.899 516.081 444.024 513.895 442.712C511.709 441.399 496.408 421.716 495.097 419.529C493.785 417.342 481.544 402.47 479.795 400.72C478.397 399.32 470.466 389.058 466.68 384.098C464.494 379.575 459.336 371.063 456.188 373.163C453.041 375.262 456.914 383.075 459.248 386.723C464.057 395.471 471.673 414.183 473.422 417.683C475.17 421.182 483.354 445.809 487 458.205C489.186 464.915 493.706 480.487 494.406 483.636C495.28 487.573 493.785 494.327 484.604 497.389C477.26 499.838 471.926 496.365 470.178 494.327C470.764 496.225 471.402 498.701 472.101 500.45C472.976 502.638 473.675 511.823 464.057 515.76C454.562 519.452 450.977 512.208 449.814 509.881C447.777 504.781 440.87 487.704 442.968 493.303C445.591 500.302 438.675 506.181 434.662 507.738C428.603 510.091 421.984 506.426 418.924 500.739C415.863 495.053 403.771 470.208 401.585 464.959C399.837 460.759 389.598 442.572 385.803 433.526C385.366 434.987 382.831 437.813 376.186 437.463C367.879 437.025 367.442 417.779 365.694 411.218C363.945 404.657 344.272 373.163 341.649 368.789C339.026 364.414 340.775 346.918 341.649 335.982C342.523 325.047 347.332 321.548 356.513 312.362Z" fill="white"/>
<path d="M402.554 290.576C407.897 290.464 412.737 291.473 415.482 292.389C416.97 292.885 419.618 294.429 422.75 296.46C425.937 298.526 429.767 301.192 433.686 304.043C441.508 309.735 449.759 316.225 453.973 320.219C458.246 324.27 462.686 330.616 466.193 336.264C469.704 341.917 472.364 347.008 473.055 348.621C473.267 349.117 474.084 350.481 475.375 352.49C476.635 354.45 478.277 356.921 480.058 359.563C483.61 364.831 487.704 370.757 490.399 374.616C493.786 378.75 502.313 389.523 509.654 400.016C518.854 413.165 524.647 424.253 526.452 431.479L526.609 432.139C527.339 435.373 527.255 437.663 526.524 439.469C525.752 441.38 524.319 442.549 523.058 443.602L523.033 443.622L523.008 443.641L522.938 443.694L522.938 443.693C519.713 446.336 515.598 445.166 513.263 443.764C513.009 443.611 512.743 443.382 512.501 443.156C512.242 442.915 511.945 442.615 511.62 442.271C510.97 441.581 510.173 440.678 509.286 439.64C507.511 437.561 505.342 434.896 503.207 432.212C501.071 429.527 498.962 426.813 497.303 424.632C495.67 422.485 494.416 420.78 494.044 420.16C493.765 419.696 492.813 418.427 491.434 416.672C490.081 414.951 488.379 412.839 486.66 410.738C483.196 406.501 479.747 402.407 478.928 401.587C478.161 400.82 475.765 397.821 473.166 394.501C470.532 391.136 467.599 387.326 465.704 384.843L465.629 384.744L465.575 384.632C464.504 382.416 462.715 379.247 460.839 376.916C459.892 375.74 458.992 374.865 458.219 374.404C457.455 373.948 457.093 374.034 456.869 374.184C456.53 374.41 456.271 374.839 456.236 375.702C456.202 376.578 456.416 377.708 456.83 378.984C457.653 381.521 459.148 384.288 460.282 386.061L460.305 386.095L460.324 386.131C462.759 390.561 465.886 397.476 468.606 403.678C471.351 409.936 473.663 415.421 474.52 417.134C474.997 418.089 475.862 420.364 476.924 423.334C477.998 426.34 479.302 430.143 480.664 434.219C483.385 442.365 486.345 451.63 488.174 457.848C490.365 464.578 494.892 480.164 495.604 483.37C496.101 485.608 495.918 488.588 494.351 491.433C492.77 494.302 489.835 496.938 484.993 498.553C479.702 500.318 475.341 499.232 472.433 497.62C472.694 498.477 472.961 499.292 473.241 499.994C473.79 501.367 474.18 504.497 473.189 507.802C472.173 511.191 469.7 514.776 464.522 516.896L464.513 516.901L464.502 516.905C459.391 518.891 455.674 517.974 453.083 516.067C450.59 514.232 449.293 511.584 448.716 510.43L448.693 510.384L448.674 510.336C447.769 508.071 445.9 503.44 444.289 499.486C443.846 500.882 443.134 502.166 442.286 503.297C440.241 506.027 437.318 508.023 435.105 508.881C428.292 511.527 421.097 507.367 417.843 501.321C414.77 495.61 402.658 470.729 400.452 465.431C399.606 463.398 396.655 457.885 393.375 451.63C390.583 446.305 387.576 440.486 385.567 436.047C383.931 437.615 380.911 438.941 376.121 438.689C373.493 438.55 371.6 436.906 370.248 434.753C368.905 432.614 367.98 429.807 367.287 426.923C366.59 424.023 366.106 420.941 365.689 418.21C365.267 415.437 364.923 413.092 364.508 411.534C364.115 410.062 362.638 406.998 360.487 403.019C358.367 399.096 355.672 394.423 352.942 389.808C347.472 380.558 341.933 371.649 340.597 369.42C339.779 368.056 339.387 365.879 339.195 363.451C338.999 360.958 339 357.966 339.11 354.803C339.33 348.479 339.991 341.329 340.426 335.885C340.879 330.211 342.371 326.382 344.973 322.795C347.507 319.302 351.124 316.017 355.645 311.494C363.255 303.879 373.562 301.38 377.848 301.077L378.431 301.035C378.613 300.951 378.856 300.829 379.168 300.653C380.471 299.918 382.713 298.428 386.371 295.639C391.242 291.926 397.213 290.689 402.554 290.576Z" stroke="#595CFF" stroke-width="2.45506" stroke-miterlimit="10"/>
</g>
<path d="M373.059 352.53C371.975 355.837 372.605 359.441 373.418 362.792C374.248 366.309 374.913 369.843 375.805 373.29C377.711 380.148 380.019 386.998 382.66 393.603C383.936 397.059 386.07 399.937 387.276 403.393C391.053 413.908 389.471 425.403 386.682 435.936C386.209 437.598 383.512 437.66 383.985 435.936C386.826 425.902 388.763 414.17 385.335 404.084C384.207 400.707 382.074 397.645 380.928 394.303C377.046 384.19 374.082 373.718 372.15 363.072C371.538 360.438 371.101 357.604 371.407 354.866C371.52 353.93 371.66 353.037 372.054 352.066C372.167 351.786 372.491 351.646 372.771 351.76C373.077 351.883 373.199 352.232 373.059 352.53Z" fill="#595CFF"/>
<path d="M441.466 403.027C441.3 411.399 445.173 418.923 448.714 426.298C449.265 427.4 451.661 432.308 452.168 433.279C454.397 438.528 456.531 443.917 458.524 449.253C461.515 457.022 463.84 465.035 466.009 473.066C468.299 481.018 470.8 488.935 473.414 496.791C473.922 498.392 472.032 499.917 471.42 498.255C468.911 490.312 466.035 481.709 463.849 473.67C461.812 465.639 459.643 457.669 456.776 449.883C454.887 444.564 452.85 439.184 450.725 433.944C450.244 432.973 447.892 427.986 447.385 426.919C445.645 423.14 443.914 419.369 442.445 415.432C440.994 411.434 440.355 407.235 440.382 402.992C440.408 402.336 441.44 402.222 441.457 403.027H441.466Z" fill="#595CFF"/>
<path d="M412.864 420.768C424.143 446.033 435.572 474.635 445.627 499.567C446.265 501.133 444.227 502.67 443.518 501.069C435.964 482.68 426.985 459.584 419.815 441.152C417.166 434.512 414.42 427.907 411.587 421.345C411.246 420.549 412.453 419.92 412.864 420.777V420.768Z" fill="#595CFF"/>
<path d="M380.67 310.228C391.022 317.769 394.528 331.233 395.193 343.41C395.403 351.415 394.511 359.42 393.645 367.372C393.252 370.268 392.955 373.172 392.08 375.98C392.028 376.129 391.774 376.068 391.818 375.902C392.946 370.25 393.042 364.371 393.514 358.615C393.864 352.867 394.389 347.05 393.899 341.302C393.016 330.113 389.545 317.883 380.364 310.727C380.215 310.639 380.154 310.429 380.268 310.289C380.364 310.158 380.548 310.132 380.679 310.219L380.67 310.228Z" fill="#595CFF"/>
<path d="M415.059 332.3C410.81 350.12 402.993 367.739 391.443 382.025L389.074 384.868C388.925 385.052 388.654 385.078 388.47 384.921C388.278 384.763 388.261 384.474 388.435 384.291L390.787 381.474C399.321 371.055 405.546 358.833 410.119 346.209C411.763 341.599 413.206 336.884 414.281 332.125C414.325 331.906 414.543 331.757 414.762 331.81C414.98 331.862 415.112 332.072 415.068 332.291L415.059 332.3Z" fill="#595CFF"/>
<path d="M445.426 329.273C435.686 334.775 427.109 342.833 421.854 352.771C419.572 357.346 418.278 362.367 416.984 367.293C415.961 371.264 415.008 375.262 414.431 379.313C414.282 380.599 414.063 382.025 414.238 383.285C414.291 383.582 414.09 383.871 413.792 383.923C412.052 384.308 413.941 376.146 414.098 375.079C415.235 369.681 416.695 364.38 418.321 359.104C418.759 357.967 419.248 356.287 419.773 355.203C420.07 354.599 420.805 352.963 421.084 352.368C426.514 342.29 435.196 334.242 445.146 328.721C445.295 328.643 445.479 328.695 445.557 328.844C445.636 328.993 445.575 329.185 445.426 329.264V329.273Z" fill="#595CFF"/>
</g>
<defs>



<clipPath id="clip0_259_12947">
<rect width="406.474" height="443.011" fill="white" transform="translate(172.637 55.8018)"/>
</clipPath>
<clipPath id="clip1_259_12947">
<rect width="37.4504" height="8.22083" fill="white" transform="translate(358.975 124.309)"/>
</clipPath>
<clipPath id="clip2_259_12947">
<rect width="207.348" height="293.21" fill="white" transform="translate(330.59 285.985)"/>
</clipPath>
<clipPath id="clip3_259_12947">
<rect width="207.348" height="293.21" fill="white" transform="translate(327.59 279.985)"/>
</clipPath>
</defs>
</svg>
