<svg width="205" height="487" viewBox="0 0 205 487" fill="none" xmlns="http://www.w3.org/2000/svg">
<g clip-path="url(#clip0_380_15089)">
<g filter="url(#filter0_d_380_15089)">
<path d="M36.3124 492.423C36.3124 492.423 45.6961 426.413 56.9494 293.436C56.9494 293.436 58.6392 269.575 54.5765 250.795C54.5765 250.795 51.6164 244.276 50.8494 239.458C50.8494 239.458 42.9877 236.834 35.7012 228.121C28.4148 219.409 22.5065 206.549 22.1709 204.776C21.8354 203.002 18.0244 183.288 18.0244 183.288C18.0244 183.288 15.1481 174.743 15.1481 171.699C15.1481 168.655 14.8126 156.551 13.7939 152.836C12.7752 149.121 8.46089 135.578 8.46089 135.578C8.46089 135.578 3.89487 122.635 2.79231 110.627C1.68975 98.6187 0.335527 98.7865 1.85753 92.7824C3.37954 86.7782 9.98289 83.3867 16.4065 85.0046C22.8301 86.6225 31.0393 95.7425 32.1419 108.686C33.2444 121.629 33.9994 125.524 35.102 128.568C36.2046 131.612 40.2672 143.8 41.6215 145.489C42.9757 147.179 45.6002 150.906 47.0384 150.655C48.4765 150.403 53.8934 151.242 53.8934 151.242C53.8934 151.242 61.7551 153.183 62.2704 151.158C62.7857 149.133 68.5262 143.548 69.1254 138.718C69.7247 133.889 71.1508 127.549 73.3559 123.235C73.3559 123.235 74.2068 114.438 75.7288 110.124C75.7288 110.124 74.5423 92.6146 77.9339 77.3826C77.9339 77.3826 78.2695 70.2759 77.9339 64.7751C77.5983 59.2743 76.9152 53.4379 77.6822 46.2473C78.2335 41.0461 77.4066 36.2045 76.9152 33.9155C76.6516 32.6931 76.4838 31.4587 76.4359 30.2003C76.1842 24.1243 76.4598 8.05335 85.8076 4.36218C97.3964 -0.203835 96.8931 14.3451 96.8931 14.3451C96.8931 14.3451 96.7732 21.1642 98.2593 25.4426C98.9304 27.372 99.3379 29.3734 99.3379 31.4108C99.3139 35.5933 99.3019 41.8491 99.3619 42.5202C99.4457 43.5389 102.909 58.5073 103.76 61.6352C104.611 64.7631 105.618 45.5642 107.655 37.9542C107.655 37.9542 105.881 23.573 109.513 14.3571C113.144 5.14116 121.689 -1.3783 127.273 2.18104C132.858 5.74038 130.821 13.2665 130.821 14.6207C130.821 15.975 129.383 21.3919 129.55 23.3333C129.718 25.2748 129.97 29.4214 128.448 39.4882C128.448 39.4882 127.861 45.8279 128.867 49.7228C128.867 49.7228 130.054 35.4255 136.393 30.5239C142.733 25.6223 149.169 29.0019 150.858 31.1112C152.548 33.2204 149.924 43.6348 149.924 43.6348C149.924 43.6348 149.073 55.4752 148.486 58.2676C147.898 61.0599 147.719 70.6234 147.719 74.8539C147.719 79.0843 147.802 79.5877 147.802 79.5877C147.802 79.5877 150.511 75.2733 154.657 75.9444C158.804 76.6156 161.177 76.9631 161.081 80.091C160.985 83.2189 159.727 89.9062 159.559 94.64C159.391 99.3738 158.54 110.627 158.54 112.568C158.54 114.51 157.522 127.117 156.431 133.553C155.341 139.989 152.452 154.873 148.474 166.546C144.495 178.219 143.908 186.596 143.488 190.658C143.069 194.721 135.447 221.71 135.447 221.71C135.447 221.71 131.132 237.025 134.428 247.428C137.724 257.83 141.619 278.048 142.721 291.926C142.721 291.926 142.781 302.136 164.437 368.457C186.092 434.779 204.141 490.278 204.141 490.278" fill="white"/>
<path d="M36.3124 492.423C36.3124 492.423 45.6961 426.413 56.9494 293.436C56.9494 293.436 58.6392 269.575 54.5765 250.795C54.5765 250.795 51.6164 244.276 50.8494 239.458C50.8494 239.458 42.9877 236.834 35.7012 228.121C28.4148 219.409 22.5065 206.549 22.1709 204.776C21.8354 203.002 18.0244 183.288 18.0244 183.288C18.0244 183.288 15.1481 174.743 15.1481 171.699C15.1481 168.655 14.8126 156.551 13.7939 152.836C12.7752 149.121 8.46089 135.578 8.46089 135.578C8.46089 135.578 3.89487 122.635 2.79231 110.627C1.68975 98.6187 0.335527 98.7865 1.85753 92.7824C3.37954 86.7782 9.98289 83.3867 16.4065 85.0046C22.8301 86.6225 31.0393 95.7425 32.1419 108.686C33.2444 121.629 33.9994 125.524 35.102 128.568C36.2046 131.612 40.2672 143.8 41.6215 145.489C42.9757 147.179 45.6002 150.906 47.0384 150.655C48.4765 150.403 53.8934 151.242 53.8934 151.242C53.8934 151.242 61.7551 153.183 62.2704 151.158C62.7857 149.133 68.5262 143.548 69.1254 138.718C69.7247 133.889 71.1508 127.549 73.3559 123.235C73.3559 123.235 74.2068 114.438 75.7288 110.124C75.7288 110.124 74.5423 92.6146 77.9339 77.3826C77.9339 77.3826 78.2695 70.2759 77.9339 64.7751C77.5983 59.2743 76.9152 53.4379 77.6822 46.2473C78.2335 41.0461 77.4066 36.2045 76.9152 33.9155C76.6516 32.6931 76.4838 31.4587 76.4359 30.2003C76.1842 24.1243 76.4598 8.05335 85.8076 4.36218C97.3964 -0.203835 96.8931 14.3451 96.8931 14.3451C96.8931 14.3451 96.7732 21.1642 98.2593 25.4426C98.9304 27.372 99.3379 29.3734 99.3379 31.4108C99.3139 35.5933 99.3019 41.8491 99.3619 42.5202C99.4457 43.5389 102.909 58.5073 103.76 61.6352C104.611 64.7631 105.618 45.5642 107.655 37.9542C107.655 37.9542 105.881 23.573 109.513 14.3571C113.144 5.14116 121.689 -1.3783 127.273 2.18104C132.858 5.74038 130.821 13.2665 130.821 14.6207C130.821 15.975 129.383 21.3919 129.55 23.3333C129.718 25.2748 129.97 29.4214 128.448 39.4882C128.448 39.4882 127.861 45.8279 128.867 49.7228C128.867 49.7228 130.054 35.4255 136.393 30.5239C142.733 25.6223 149.169 29.0019 150.858 31.1112C152.548 33.2204 149.924 43.6348 149.924 43.6348C149.924 43.6348 149.073 55.4752 148.486 58.2676C147.898 61.0599 147.719 70.6234 147.719 74.8539C147.719 79.0843 147.802 79.5877 147.802 79.5877C147.802 79.5877 150.511 75.2733 154.657 75.9444C158.804 76.6156 161.177 76.9631 161.081 80.091C160.985 83.2189 159.727 89.9062 159.559 94.64C159.391 99.3738 158.54 110.627 158.54 112.568C158.54 114.51 157.522 127.117 156.431 133.553C155.341 139.989 152.452 154.873 148.474 166.546C144.495 178.219 143.908 186.596 143.488 190.658C143.069 194.721 135.447 221.71 135.447 221.71C135.447 221.71 131.132 237.025 134.428 247.428C137.724 257.83 141.619 278.048 142.721 291.926C142.721 291.926 142.781 302.136 164.437 368.457C186.092 434.779 204.141 490.278 204.141 490.278" stroke="#595CFF" stroke-width="3.3048" stroke-miterlimit="10"/>
</g>
<path d="M104.851 61.2158C106.049 64.7272 107.439 68.3225 107.523 72.0975C107.595 74.3745 108.038 87.5693 108.122 90.1579C108.302 94.3764 108.374 100.392 108.65 104.551C109.129 109.105 109.321 114.354 112.029 118.165C112.353 118.453 111.861 119.016 111.526 118.633C108.47 114.594 108.206 109.441 107.535 104.647C107.128 100.476 106.888 94.4003 106.576 90.1579L105.677 75.7168C105.522 73.6914 105.534 70.7793 104.91 68.8018C104.299 66.5488 103.329 65.1107 102.466 62.9175C101.903 61.4435 104.287 59.7177 104.863 61.2278L104.851 61.2158Z" fill="#595CFF"/>
<path d="M130.054 49.627C130.305 54.0372 130.917 62.0427 130.977 66.3331C130.881 74.4585 131.276 82.5119 131.3 90.6852C130.881 97.5402 129.574 104.299 129.443 111.071C130.126 116.883 130.881 122.923 132.319 128.64C132.57 129.43 132.798 130.329 133.23 130.893C133.553 131.312 132.87 131.875 132.534 131.396C131.492 129.79 131.276 128.136 130.797 126.386C129.682 121.317 128.879 116.332 128.208 111.142C128.208 104.239 129.383 97.4564 129.682 90.6732C129.514 82.6438 128.963 74.4465 128.903 66.3451C128.759 62.1626 128.004 54.0612 127.669 49.8068C127.537 48.2488 129.922 47.9971 130.054 49.615V49.627Z" fill="#595CFF"/>
<path d="M149.001 79.6721C148.593 85.856 148.258 92.0399 148.282 98.2238C148.126 104.551 147.143 110.687 146.137 116.895C145.034 123.019 143.848 129.131 143.177 135.231C142.949 138.767 143.308 142.901 144.902 146.077C146.316 147.863 148.306 150.104 148.15 152.525C148.042 152.932 147.407 152.836 147.467 152.381C147.467 151.842 147.047 151.122 146.7 150.499C145.573 148.426 143.368 146.94 142.829 144.579C140.001 135.471 143.177 125.716 144.315 116.596C145.19 110.532 146.065 104.324 146.089 98.2238C145.981 91.9799 146.269 85.7361 146.616 79.5163C146.724 77.9703 149.097 78.0542 149.013 79.6721H149.001Z" fill="#595CFF"/>
<path d="M0.9947 95.0356C5.74049 93.166 11.469 91.1527 16.3346 93.6694C20.3494 96.4377 21.1403 101.962 20.0378 106.409C19.9299 106.828 19.2828 106.66 19.4026 106.241C20.9486 98.2833 17.0177 91.7519 8.25719 94.0529C5.9562 94.5442 3.67918 95.3472 1.55796 96.3299C0.719061 96.7253 0.119846 95.4191 0.982716 95.0356H0.9947Z" fill="#595CFF"/>
<path d="M5.12924 111.742C9.21588 112.748 14.0575 112.736 17.497 110.016C17.8446 109.74 18.276 110.292 17.9165 110.555C15.232 112.76 11.6247 113.336 8.24516 113.084C7.11863 113 6.01607 112.844 4.88955 112.557C4.66185 112.497 4.51804 112.269 4.57796 112.041C4.63788 111.802 4.88955 111.67 5.11725 111.742H5.12924Z" fill="#595CFF"/>
<path d="M93.4058 6.05197C91.704 6.60324 89.415 7.44214 88.7559 9.19185C88.5401 10.0907 88.5402 11.1453 88.5641 12.152C88.7439 15.0642 88.9716 18.3479 90.5655 20.8406C91.1767 21.5956 92.1594 21.9192 93.0103 22.3626C93.9211 22.794 94.8679 23.1536 95.8386 23.4052C96.1023 23.4652 96.0184 23.8726 95.7547 23.8247C93.7294 23.4412 91.4404 22.806 89.9783 21.296C88.7199 19.4864 88.4083 17.3771 88.0728 15.2799C87.8331 13.1706 87.6054 11.1213 88.0368 8.98812C88.4083 7.81366 89.379 7.11857 90.2899 6.60324C91.2246 6.07593 92.2074 5.7164 93.226 5.42878C93.3938 5.38084 93.5736 5.47672 93.6215 5.65648C93.6694 5.83625 93.5616 6.01601 93.3938 6.05197H93.4058Z" fill="#595CFF"/>
<path d="M123.115 9.17993C123.007 11.7566 122.815 14.489 123.223 17.0057C123.295 17.2933 123.33 17.497 123.51 17.7367C124.864 19.2348 126.89 20.9725 128.843 21.2122C129.658 21.2122 129.622 22.4585 128.807 22.4106C126.47 22.0391 125.008 20.565 123.486 19.067C122.983 18.5397 122.468 17.9285 122.408 17.1615C122.096 14.441 122.42 11.8285 122.659 9.14398C122.683 8.86834 123.115 8.90429 123.091 9.17993H123.115Z" fill="#595CFF"/>
<path d="M123.139 8.28121C124.769 6.38769 127.393 5.06941 129.922 5.75252C130.245 5.82442 130.449 6.148 130.377 6.47158C130.305 6.81912 129.934 7.02285 129.598 6.915C127.441 6.04014 125.032 7.02285 123.378 8.52089C123.223 8.6647 122.983 8.437 123.127 8.28121H123.139Z" fill="#595CFF"/>
<path d="M143.908 33.4602C143.428 35.3897 142.541 37.4869 142.853 39.4643C144.651 41.4897 146.916 43.8506 149.337 44.9172C150.128 45.1209 149.78 46.3194 149.001 46.0677C146.221 44.7734 144.291 42.3885 142.338 40.1235C142.218 39.9677 142.074 39.728 142.038 39.5602C141.882 37.3791 142.841 35.3417 143.488 33.3164C143.584 33.0527 143.992 33.1966 143.896 33.4602H143.908Z" fill="#595CFF"/>
<path d="M144.123 32.8489C146.316 31.9501 148.821 31.8542 151.05 32.777C151.362 32.8969 151.506 33.2564 151.374 33.556C151.254 33.8676 150.894 34.0114 150.595 33.8796C148.761 32.813 146.388 32.5733 144.231 33.1605C144.027 33.2204 143.92 32.9088 144.123 32.8369V32.8489Z" fill="#595CFF"/>
<path d="M155.532 80.8103C154.598 84.6452 153.627 89.379 159.104 89.4629C159.595 89.4629 159.607 90.2419 159.104 90.2539C154.897 90.3857 153.447 87.4256 154.442 83.6745C154.646 82.6678 154.945 81.6971 155.305 80.7384C155.329 80.6784 155.389 80.6425 155.449 80.6664C155.508 80.6904 155.532 80.7503 155.52 80.8103H155.532Z" fill="#595CFF"/>
<path d="M155.772 79.4918C156.695 78.3773 158.109 77.6103 159.691 77.5503C160.026 77.5264 160.326 77.79 160.338 78.1256C160.362 78.5091 159.99 78.8207 159.619 78.7488C158.42 78.5211 157.03 78.8566 155.964 79.6955C155.844 79.8034 155.664 79.6236 155.772 79.4918Z" fill="#595CFF"/>
</g>
<defs>
<filter id="filter0_d_380_15089" x="-9.72816" y="-4.42864" width="224.693" height="511.625" filterUnits="userSpaceOnUse" color-interpolation-filters="sRGB">
<feFlood flood-opacity="0" result="BackgroundImageFix"/>
<feColorMatrix in="SourceAlpha" type="matrix" values="0 0 0 0 0 0 0 0 0 0 0 0 0 0 0 0 0 0 127 0" result="hardAlpha"/>
<feOffset dy="5.28767"/>
<feGaussianBlur stdDeviation="4.62671"/>
<feComposite in2="hardAlpha" operator="out"/>
<feColorMatrix type="matrix" values="0 0 0 0 0.254331 0 0 0 0 0.255896 0 0 0 0 0.340952 0 0 0 0.2 0"/>
<feBlend mode="multiply" in2="BackgroundImageFix" result="effect1_dropShadow_380_15089"/>
<feBlend mode="normal" in="SourceGraphic" in2="effect1_dropShadow_380_15089" result="shape"/>
</filter>
<clipPath id="clip0_380_15089">
<rect width="204.932" height="486.563" fill="white"/>
</clipPath>
</defs>
</svg>
