<svg width="34" height="34" viewBox="0 0 34 34" fill="none" xmlns="http://www.w3.org/2000/svg">
<path d="M17 2C18.6569 2 20 3.34315 20 5V14H29C30.6569 14 32 15.3431 32 17C32 18.6569 30.6569 20 29 20H20V29C20 30.6569 18.6569 32 17 32C15.3431 32 14 30.6569 14 29V20H5C3.34315 20 2 18.6569 2 17C2 15.3431 3.34315 14 5 14H14V5C14 3.34315 15.3431 2 17 2Z" fill="white"/>
<path d="M12 29V22H5C2.23858 22 1.07288e-06 19.7614 0 17C1.19209e-07 14.2386 2.23858 12 5 12V14C3.34315 14 2 15.3431 2 17C2 18.6569 3.34315 20 5 20H14V29C14 30.6569 15.3431 32 17 32C18.6569 32 20 30.6569 20 29V20H29C30.6569 20 32 18.6569 32 17C32 15.3431 30.6569 14 29 14V12C31.7614 12 34 14.2386 34 17C34 19.7614 31.7614 22 29 22H22V29C22 31.7614 19.7614 34 17 34C14.2386 34 12 31.7614 12 29ZM20 5C20 3.34315 18.6569 2 17 2C15.3431 2 14 3.34315 14 5V14H5V12H12V5C12 2.23858 14.2386 0 17 0C19.7614 0 22 2.23858 22 5V12H29V14H20V5Z" fill="black"/>
</svg>
