<svg width="328" height="327" viewBox="0 0 328 327" fill="none" xmlns="http://www.w3.org/2000/svg">
<path d="M0 118.345L0.00292969 118.291L0.956055 102.841L1.90723 85.4102L1.90918 85.3818L1.91113 85.3545L3.33984 68.9082L3.34082 68.8936L3.34277 68.8799L7.15234 32L7.15332 31.9863L9.53418 10.5566L13.0127 10.9434L10.6328 32.3584L10.6338 32.3594L6.82617 69.21L5.40039 85.6299L4.4502 103.044L4.44922 103.057L3.5 118.458V204.087L4.44922 225.935L6.34961 246.819L6.35156 246.843L9.20605 283.688L11.1035 301.066L13.4795 316.483L10.0205 317.017L7.63379 301.529L7.62891 301.49L5.72461 284.048L5.72168 284.021L5.71973 283.993L2.86426 247.137L0.959961 226.205L0.956055 226.164L0.954102 226.122L0.00195312 204.194L0 204.156V118.345Z" fill="#077B51"/>
<path d="M327.5 208.807L327.496 208.862L326.496 224.362L325.497 241.85L325.493 241.908L323.993 258.408L323.991 258.423L323.99 258.438L319.99 295.438L319.988 295.452L317.488 316.952L314.012 316.548L316.511 295.062L316.51 295.062L320.51 258.062L322.006 241.608L323.003 224.15L323.004 224.138L324 208.698L324 122.786L323.005 100.878L321.008 79.916L321.007 79.9033L321.006 79.8916L318.008 42.9102L316.018 25.4951L313.522 10.0283L316.978 9.47168L319.478 24.9717L319.484 25.0107L319.488 25.0518L321.488 42.5518L321.492 42.5801L321.494 42.6084L324.492 79.584L326.492 100.584L326.496 100.627L326.498 100.671L327.498 122.671L327.5 122.71L327.5 208.807Z" fill="#077B51"/>
<path d="M118.193 327L118.138 326.996L102.638 325.996L85.1504 324.997L85.0918 324.993L68.5918 323.493L68.5771 323.491L68.5615 323.49L31.5615 319.49L31.5479 319.488L10.0479 316.988L10.4521 313.512L31.9375 316.011L31.9385 316.01L68.9385 320.01L85.3916 321.506L102.85 322.503L102.862 322.504L118.302 323.5L204.214 323.5L226.122 322.505L247.084 320.508L247.097 320.507L247.108 320.506L284.09 317.508L301.505 315.518L316.972 313.022L317.528 316.478L302.028 318.978L301.989 318.984L301.948 318.988L284.448 320.988L284.42 320.992L284.392 320.994L247.416 323.992L226.416 325.992L226.373 325.996L226.329 325.998L204.329 326.998L204.29 327L118.193 327Z" fill="#077B51"/>
<path d="M209.307 -4.72719e-06L209.362 0.00390153L224.862 1.0039L242.35 2.00293L242.408 2.00683L258.908 3.50683L258.923 3.50879L258.938 3.50976L295.938 7.50976L295.952 7.51172L317.452 10.0117L317.048 13.4883L295.562 10.9893L295.562 10.9902L258.562 6.99023L242.108 5.49414L224.65 4.49707L224.638 4.49609L209.198 3.5L123.286 3.49999L101.378 4.49511L80.416 6.49218L80.4033 6.49315L80.3916 6.49413L43.4102 9.49218L25.9951 11.4824L10.5283 13.9775L9.97168 10.5224L25.4717 8.02245L25.5107 8.01561L25.5518 8.01171L43.0518 6.01171L43.0801 6.0078L43.1084 6.00585L80.084 3.0078L101.084 1.0078L101.127 1.0039L101.171 1.00194L123.171 0.00194463L123.21 -8.4906e-06L209.307 -4.72719e-06Z" fill="#077B51"/>
</svg>
