<svg width="184" height="184" viewBox="0 0 184 184" fill="none" xmlns="http://www.w3.org/2000/svg">
<path d="M90 4C90 2.89543 90.8954 2 92 2C93.1046 2 94 2.89543 94 4V38H90V4Z" fill="white"/>
<path d="M94 4C94 2.89543 93.1046 2 92 2C90.8954 2 90 2.89543 90 4V38H94V4ZM96 40H88V4C88 1.79086 89.7909 0 92 0C94.2091 0 96 1.79086 96 4V40Z" fill="black"/>
<path d="M90 146H94V180C94 181.105 93.1046 182 92 182C90.8954 182 90 181.105 90 180V146Z" fill="white"/>
<path d="M90 146V180C90 181.105 90.8954 182 92 182C93.1046 182 94 181.105 94 180V146H90ZM96 180C96 182.209 94.2091 184 92 184C89.7909 184 88 182.209 88 180V144H96V180Z" fill="black"/>
<path d="M180 88C181.105 88 182 88.8954 182 90C182 91.1046 181.105 92 180 92L146 92L146 88L180 88Z" fill="white"/>
<path d="M180 92C181.105 92 182 91.1046 182 90C182 88.8954 181.105 88 180 88L146 88L146 92L180 92ZM144 94L144 86L180 86C182.209 86 184 87.7909 184 90C184 92.2091 182.209 94 180 94L144 94Z" fill="black"/>
<path d="M38 88L38 92L4 92C2.89543 92 2 91.1046 2 90C2 88.8954 2.89543 88 4 88L38 88Z" fill="white"/>
<path d="M38 88L4 88C2.89543 88 2 88.8954 2 90C2 91.1046 2.89543 92 4 92L38 92L38 88ZM4 94C1.79086 94 -2.7141e-07 92.2091 -1.74846e-07 90C-7.8281e-08 87.7909 1.79086 86 4 86L40 86L40 94L4 94Z" fill="black"/>
</svg>
