<svg width="300" height="80" viewBox="0 0 300 80" fill="none" xmlns="http://www.w3.org/2000/svg">
<path d="M228.489 0H0V80H300L248.613 10.1817C243.901 3.77928 236.431 0 228.489 0Z" fill="black" fill-opacity="0.8"/>
<path d="M65.8598 61.8464L60.9232 54.8464C60.5489 54.3156 59.9404 54 59.2915 54H22.001C20.3813 54 19.435 55.8288 20.3693 57.1536L25.3058 64.1536C25.6801 64.6844 26.2886 65 26.9376 65H64.228C65.8478 65 66.794 63.1712 65.8598 61.8464Z" fill="white"/>
<path d="M111.858 61.862L107.021 54.862C106.647 54.3221 106.034 54 105.378 54H68.8988C67.2877 54 66.3394 55.8115 67.2562 57.138L72.094 64.138C72.4671 64.6779 73.081 65 73.7366 65H110.216C111.827 65 112.775 63.1885 111.858 61.862Z" fill="white"/>
<path d="M158.745 61.8464L153.809 54.8464C153.434 54.3156 152.826 54 152.177 54H114.887C113.267 54 112.32 55.8288 113.255 57.1536L118.191 64.1536C118.566 64.6844 119.174 65 119.823 65H157.114C158.733 65 159.68 63.1712 158.745 61.8464Z" fill="white"/>
<path d="M204.744 61.862L199.906 54.862C199.533 54.3221 198.919 54 198.263 54H161.784C160.173 54 159.225 55.8115 160.142 57.138L164.98 64.138C165.353 64.6779 165.966 65 166.622 65H203.101C204.712 65 205.661 63.1885 204.744 61.862Z" fill="#646464"/>
<path d="M251.631 61.8464L246.694 54.8464C246.32 54.3156 245.712 54 245.063 54H207.772C206.152 54 205.206 55.8288 206.14 57.1536L211.077 64.1536C211.451 64.6844 212.06 65 212.709 65H249.999C251.619 65 252.565 63.1712 251.631 61.8464Z" fill="#646464"/>
<path d="M205.079 33.2273L205.045 30.7386H205.454L211.181 24.9091H213.67L207.568 31.0795H207.397L205.079 33.2273ZM203.204 38V20.5455H205.216V38H203.204ZM211.522 38L206.409 31.5227L207.841 30.125L214.079 38H211.522ZM217.248 20.5455L222.429 35.2386H222.634L227.816 20.5455H230.032L223.623 38H221.441L215.032 20.5455H217.248Z" fill="white"/>
<path d="M27.6023 38.2386C26.8864 38.2273 26.1705 38.0909 25.4545 37.8295C24.7386 37.5682 24.0852 37.1278 23.4943 36.5085C22.9034 35.8835 22.429 35.0398 22.071 33.9773C21.7131 32.9091 21.5341 31.5682 21.5341 29.9545C21.5341 28.4091 21.679 27.0398 21.9688 25.8466C22.2585 24.6477 22.679 23.6392 23.2301 22.821C23.7813 21.9972 24.446 21.3722 25.2244 20.946C26.0085 20.5199 26.892 20.3068 27.875 20.3068C28.8523 20.3068 29.7216 20.5028 30.483 20.8949C31.25 21.2812 31.875 21.821 32.358 22.5142C32.8409 23.2074 33.1534 24.0057 33.2955 24.9091H31.2159C31.0227 24.125 30.6477 23.4744 30.0909 22.9574C29.5341 22.4403 28.7955 22.1818 27.875 22.1818C26.5227 22.1818 25.4574 22.7699 24.679 23.946C23.9063 25.1222 23.517 26.7727 23.5114 28.8977H23.6477C23.9659 28.4148 24.3438 28.0028 24.7812 27.6619C25.2244 27.3153 25.7131 27.0483 26.2472 26.8608C26.7813 26.6733 27.3466 26.5795 27.9432 26.5795C28.9432 26.5795 29.858 26.8295 30.6875 27.3295C31.517 27.8239 32.1818 28.5085 32.6818 29.3835C33.1818 30.2528 33.4318 31.25 33.4318 32.375C33.4318 33.4545 33.1903 34.4432 32.7074 35.3409C32.2244 36.233 31.5455 36.9432 30.6705 37.4716C29.8011 37.9943 28.7784 38.25 27.6023 38.2386ZM27.6023 36.3636C28.3182 36.3636 28.9602 36.1847 29.5284 35.8267C30.1023 35.4687 30.554 34.9886 30.8835 34.3864C31.2188 33.7841 31.3864 33.1136 31.3864 32.375C31.3864 31.6534 31.2244 30.9972 30.9006 30.4062C30.5824 29.8097 30.142 29.3352 29.5795 28.983C29.0227 28.6307 28.3864 28.4545 27.6705 28.4545C27.1307 28.4545 26.6278 28.5625 26.1619 28.7784C25.696 28.9886 25.2869 29.2784 24.9347 29.6477C24.5881 30.017 24.3153 30.4403 24.1165 30.9176C23.9176 31.3892 23.8182 31.8864 23.8182 32.4091C23.8182 33.1023 23.9801 33.75 24.304 34.3523C24.6335 34.9545 25.0824 35.4403 25.6506 35.8097C26.2244 36.179 26.875 36.3636 27.6023 36.3636ZM42.4766 38.2386C41.1925 38.2386 40.0987 37.8892 39.1953 37.1903C38.2919 36.4858 37.6016 35.4659 37.1243 34.1307C36.647 32.7898 36.4084 31.1705 36.4084 29.2727C36.4084 27.3864 36.647 25.7756 37.1243 24.4403C37.6072 23.0994 38.3004 22.0767 39.2038 21.3722C40.1129 20.6619 41.2038 20.3068 42.4766 20.3068C43.7493 20.3068 44.8374 20.6619 45.7408 21.3722C46.6499 22.0767 47.343 23.0994 47.8203 24.4403C48.3033 25.7756 48.5447 27.3864 48.5447 29.2727C48.5447 31.1705 48.3061 32.7898 47.8288 34.1307C47.3516 35.4659 46.6612 36.4858 45.7578 37.1903C44.8544 37.8892 43.7607 38.2386 42.4766 38.2386ZM42.4766 36.3636C43.7493 36.3636 44.7379 35.75 45.4425 34.5227C46.147 33.2955 46.4993 31.5455 46.4993 29.2727C46.4993 27.7614 46.3374 26.4744 46.0135 25.4119C45.6953 24.3494 45.2351 23.5398 44.6328 22.983C44.0362 22.4261 43.3175 22.1477 42.4766 22.1477C41.2152 22.1477 40.2294 22.7699 39.5192 24.0142C38.8089 25.2528 38.4538 27.0057 38.4538 29.2727C38.4538 30.7841 38.6129 32.0682 38.9311 33.125C39.2493 34.1818 39.7067 34.9858 40.3033 35.5369C40.9055 36.0881 41.63 36.3636 42.4766 36.3636Z" fill="white"/>
</svg>
