<svg width="300" height="80" viewBox="0 0 300 80" fill="none" xmlns="http://www.w3.org/2000/svg">
<path d="M71.5113 0H300V80H0L51.3866 10.1817C56.0989 3.77928 63.5688 0 71.5113 0Z" fill="black" fill-opacity="0.8"/>
<path d="M234.14 61.8464L239.077 54.8464C239.451 54.3156 240.06 54 240.709 54H277.999C279.619 54 280.565 55.8288 279.631 57.1536L274.694 64.1536C274.32 64.6844 273.711 65 273.062 65H235.772C234.152 65 233.206 63.1712 234.14 61.8464Z" fill="#646464"/>
<path d="M188.142 61.862L192.979 54.862C193.353 54.3221 193.966 54 194.622 54H231.101C232.712 54 233.661 55.8115 232.744 57.138L227.906 64.138C227.533 64.6779 226.919 65 226.263 65H189.784C188.173 65 187.225 63.1885 188.142 61.862Z" fill="#646464"/>
<path d="M141.255 61.8464L146.191 54.8464C146.566 54.3156 147.174 54 147.823 54H185.113C186.733 54 187.68 55.8288 186.745 57.1536L181.809 64.1536C181.434 64.6844 180.826 65 180.177 65H142.887C141.267 65 140.32 63.1712 141.255 61.8464Z" fill="#646464"/>
<path d="M95.2561 61.862L100.094 54.862C100.467 54.3221 101.081 54 101.737 54H138.216C139.827 54 140.775 55.8115 139.858 57.138L135.02 64.138C134.647 64.6779 134.034 65 133.378 65H96.8988C95.2876 65 94.3394 63.1885 95.2561 61.862Z" fill="white"/>
<path d="M48.3693 61.8464L53.3058 54.8464C53.6801 54.3156 54.2886 54 54.9376 54H92.228C93.8477 54 94.794 55.8288 93.8597 57.1536L88.9232 64.1536C88.5489 64.6844 87.9404 65 87.2914 65H50.001C48.3812 65 47.435 63.1712 48.3693 61.8464Z" fill="white"/>
<path d="M63.5 38.2386C62.2159 38.2386 61.1222 37.8892 60.2188 37.1903C59.3153 36.4858 58.625 35.4659 58.1477 34.1307C57.6705 32.7898 57.4318 31.1705 57.4318 29.2727C57.4318 27.3864 57.6705 25.7756 58.1477 24.4403C58.6307 23.0994 59.3239 22.0767 60.2273 21.3722C61.1364 20.6619 62.2273 20.3068 63.5 20.3068C64.7727 20.3068 65.8608 20.6619 66.7642 21.3722C67.6733 22.0767 68.3665 23.0994 68.8438 24.4403C69.3267 25.7756 69.5682 27.3864 69.5682 29.2727C69.5682 31.1705 69.3295 32.7898 68.8523 34.1307C68.375 35.4659 67.6847 36.4858 66.7812 37.1903C65.8778 37.8892 64.7841 38.2386 63.5 38.2386ZM63.5 36.3636C64.7727 36.3636 65.7614 35.75 66.4659 34.5227C67.1705 33.2955 67.5227 31.5455 67.5227 29.2727C67.5227 27.7614 67.3608 26.4744 67.0369 25.4119C66.7188 24.3494 66.2585 23.5398 65.6562 22.983C65.0597 22.4261 64.3409 22.1477 63.5 22.1477C62.2386 22.1477 61.2528 22.7699 60.5426 24.0142C59.8324 25.2528 59.4773 27.0057 59.4773 29.2727C59.4773 30.7841 59.6364 32.0682 59.9545 33.125C60.2727 34.1818 60.7301 34.9858 61.3267 35.5369C61.929 36.0881 62.6534 36.3636 63.5 36.3636ZM73.6974 38.1364C73.277 38.1364 72.9162 37.9858 72.6151 37.6847C72.3139 37.3835 72.1634 37.0227 72.1634 36.6023C72.1634 36.1818 72.3139 35.821 72.6151 35.5199C72.9162 35.2187 73.277 35.0682 73.6974 35.0682C74.1179 35.0682 74.4787 35.2187 74.7798 35.5199C75.081 35.821 75.2315 36.1818 75.2315 36.6023C75.2315 36.8807 75.1605 37.1364 75.0185 37.3693C74.8821 37.6023 74.6974 37.7898 74.4645 37.9318C74.2372 38.0682 73.9815 38.1364 73.6974 38.1364ZM83.8906 38.2386C82.6065 38.2386 81.5128 37.8892 80.6094 37.1903C79.706 36.4858 79.0156 35.4659 78.5384 34.1307C78.0611 32.7898 77.8224 31.1705 77.8224 29.2727C77.8224 27.3864 78.0611 25.7756 78.5384 24.4403C79.0213 23.0994 79.7145 22.0767 80.6179 21.3722C81.527 20.6619 82.6179 20.3068 83.8906 20.3068C85.1634 20.3068 86.2514 20.6619 87.1548 21.3722C88.0639 22.0767 88.7571 23.0994 89.2344 24.4403C89.7173 25.7756 89.9588 27.3864 89.9588 29.2727C89.9588 31.1705 89.7202 32.7898 89.2429 34.1307C88.7656 35.4659 88.0753 36.4858 87.1719 37.1903C86.2685 37.8892 85.1747 38.2386 83.8906 38.2386ZM83.8906 36.3636C85.1634 36.3636 86.152 35.75 86.8565 34.5227C87.5611 33.2955 87.9134 31.5455 87.9134 29.2727C87.9134 27.7614 87.7514 26.4744 87.4276 25.4119C87.1094 24.3494 86.6491 23.5398 86.0469 22.983C85.4503 22.4261 84.7315 22.1477 83.8906 22.1477C82.6293 22.1477 81.6435 22.7699 80.9332 24.0142C80.223 25.2528 79.8679 27.0057 79.8679 29.2727C79.8679 30.7841 80.027 32.0682 80.3452 33.125C80.6634 34.1818 81.1207 34.9858 81.7173 35.5369C82.3196 36.0881 83.044 36.3636 83.8906 36.3636ZM98.7884 38.2386C97.6179 38.2386 96.5838 38.0312 95.6861 37.6165C94.794 37.196 94.098 36.6193 93.598 35.8864C93.098 35.1477 92.8509 34.3068 92.8565 33.3636C92.8509 32.625 92.9957 31.9432 93.2912 31.3182C93.5866 30.6875 93.9901 30.1619 94.5014 29.7415C95.0185 29.3153 95.5952 29.0455 96.2315 28.9318V28.8295C95.3963 28.6136 94.7315 28.1449 94.2372 27.4233C93.7429 26.696 93.4986 25.8693 93.5043 24.9432C93.4986 24.0568 93.723 23.2642 94.1776 22.5653C94.6321 21.8665 95.2571 21.3153 96.0526 20.9119C96.8537 20.5085 97.7656 20.3068 98.7884 20.3068C99.7997 20.3068 100.703 20.5085 101.499 20.9119C102.294 21.3153 102.919 21.8665 103.374 22.5653C103.834 23.2642 104.067 24.0568 104.072 24.9432C104.067 25.8693 103.814 26.696 103.314 27.4233C102.82 28.1449 102.163 28.6136 101.345 28.8295V28.9318C101.976 29.0455 102.544 29.3153 103.05 29.7415C103.555 30.1619 103.959 30.6875 104.26 31.3182C104.561 31.9432 104.714 32.625 104.72 33.3636C104.714 34.3068 104.459 35.1477 103.953 35.8864C103.453 36.6193 102.757 37.196 101.865 37.6165C100.979 38.0312 99.9531 38.2386 98.7884 38.2386ZM98.7884 36.3636C99.5781 36.3636 100.26 36.2358 100.834 35.9801C101.408 35.7244 101.851 35.3636 102.163 34.8977C102.476 34.4318 102.635 33.8864 102.641 33.2614C102.635 32.6023 102.464 32.0199 102.129 31.5142C101.794 31.0085 101.337 30.6108 100.757 30.321C100.183 30.0312 99.527 29.8864 98.7884 29.8864C98.044 29.8864 97.3793 30.0312 96.794 30.321C96.2145 30.6108 95.7571 31.0085 95.4219 31.5142C95.0923 32.0199 94.9304 32.6023 94.9361 33.2614C94.9304 33.8864 95.081 34.4318 95.3878 34.8977C95.7003 35.3636 96.1463 35.7244 96.7259 35.9801C97.3054 36.2358 97.9929 36.3636 98.7884 36.3636ZM98.7884 28.0795C99.4134 28.0795 99.9673 27.9545 100.45 27.7045C100.939 27.4545 101.322 27.1051 101.601 26.6562C101.879 26.2074 102.021 25.6818 102.027 25.0795C102.021 24.4886 101.882 23.9744 101.609 23.5369C101.337 23.0937 100.959 22.7528 100.476 22.5142C99.9929 22.2699 99.4304 22.1477 98.7884 22.1477C98.1349 22.1477 97.5639 22.2699 97.0753 22.5142C96.5866 22.7528 96.2088 23.0937 95.9418 23.5369C95.6747 23.9744 95.544 24.4886 95.5497 25.0795C95.544 25.6818 95.6776 26.2074 95.9503 26.6562C96.2287 27.1051 96.6122 27.4545 97.1009 27.7045C97.5895 27.9545 98.152 28.0795 98.7884 28.0795Z" fill="white"/>
<path d="M232.224 38V24.9091H234.167V26.9545H234.337C234.61 26.2557 235.05 25.7131 235.658 25.3267C236.266 24.9347 236.996 24.7386 237.849 24.7386C238.712 24.7386 239.431 24.9347 240.005 25.3267C240.585 25.7131 241.036 26.2557 241.36 26.9545H241.496C241.832 26.2784 242.335 25.7415 243.005 25.3438C243.675 24.9403 244.479 24.7386 245.417 24.7386C246.587 24.7386 247.545 25.1051 248.289 25.8381C249.033 26.5653 249.406 27.6989 249.406 29.2386V38H247.394V29.2386C247.394 28.2727 247.13 27.5824 246.602 27.1676C246.073 26.7528 245.451 26.5455 244.735 26.5455C243.815 26.5455 243.102 26.8239 242.596 27.3807C242.09 27.9318 241.837 28.6307 241.837 29.4773V38H239.792V29.0341C239.792 28.2898 239.55 27.6903 239.067 27.2358C238.585 26.7756 237.962 26.5455 237.201 26.5455C236.678 26.5455 236.19 26.6847 235.735 26.9631C235.286 27.2415 234.923 27.6278 234.644 28.1222C234.371 28.6108 234.235 29.1761 234.235 29.8182V38H232.224ZM254.072 38H251.856L258.265 20.5455H260.447L266.856 38H264.64L259.424 23.3068H259.288L254.072 38ZM254.89 31.1818H263.822V33.0568H254.89V31.1818ZM278.575 27.8409L276.768 28.3523C276.654 28.0511 276.487 27.7585 276.265 27.4744C276.049 27.1847 275.754 26.946 275.379 26.7585C275.004 26.571 274.523 26.4773 273.938 26.4773C273.137 26.4773 272.469 26.6619 271.935 27.0312C271.407 27.3949 271.143 27.858 271.143 28.4205C271.143 28.9205 271.325 29.3153 271.688 29.6051C272.052 29.8949 272.62 30.1364 273.393 30.3295L275.336 30.8068C276.506 31.0909 277.379 31.5256 277.952 32.1108C278.526 32.6903 278.813 33.4375 278.813 34.3523C278.813 35.1023 278.597 35.7727 278.165 36.3636C277.739 36.9545 277.143 37.4205 276.376 37.7614C275.609 38.1023 274.717 38.2727 273.7 38.2727C272.364 38.2727 271.259 37.983 270.384 37.4034C269.509 36.8239 268.955 35.9773 268.722 34.8636L270.631 34.3864C270.813 35.0909 271.157 35.6193 271.663 35.9716C272.174 36.3239 272.842 36.5 273.665 36.5C274.603 36.5 275.347 36.3011 275.898 35.9034C276.455 35.5 276.734 35.017 276.734 34.4545C276.734 34 276.575 33.6193 276.256 33.3125C275.938 33 275.45 32.767 274.79 32.6136L272.609 32.1023C271.41 31.8182 270.529 31.3778 269.967 30.7812C269.41 30.179 269.131 29.4261 269.131 28.5227C269.131 27.7841 269.339 27.1307 269.754 26.5625C270.174 25.9943 270.745 25.5483 271.467 25.2244C272.194 24.9006 273.018 24.7386 273.938 24.7386C275.234 24.7386 276.251 25.0227 276.989 25.5909C277.734 26.1591 278.262 26.9091 278.575 27.8409Z" fill="white"/>
</svg>
