<svg width="710" height="325" viewBox="0 0 710 325" fill="none" xmlns="http://www.w3.org/2000/svg">
<rect x="0.5" y="0.5" width="709" height="323.719" rx="4.5" stroke="#8A38F5" stroke-dasharray="10 5"/>
<path d="M110.607 10V77.9062H64.3688C58.4093 77.9062 52.7601 75.2484 48.9606 70.6572L12.315 26.376C6.91972 19.8565 11.5567 10 20.0191 10H110.607ZM178.381 10C186.817 10 191.463 19.8049 186.12 26.334L149.915 70.5732C146.116 75.2146 140.435 77.9062 134.437 77.9062H110.61V10H178.381Z" fill="#EE6C4D"/>
<path d="M65.804 35.4205C65.7131 34.5038 65.3229 33.7917 64.6335 33.2841C63.9441 32.7765 63.0085 32.5227 61.8267 32.5227C61.0237 32.5227 60.3456 32.6364 59.7926 32.8636C59.2396 33.0833 58.8153 33.3902 58.5199 33.7841C58.232 34.178 58.0881 34.625 58.0881 35.125C58.0729 35.5417 58.16 35.9053 58.3494 36.2159C58.5464 36.5265 58.8153 36.7955 59.1562 37.0227C59.4972 37.2424 59.8911 37.4356 60.3381 37.6023C60.785 37.7614 61.2623 37.8977 61.7699 38.0114L63.8608 38.5114C64.8759 38.7386 65.8078 39.0417 66.6562 39.4205C67.5047 39.7992 68.2396 40.2652 68.8608 40.8182C69.482 41.3712 69.9631 42.0227 70.304 42.7727C70.6525 43.5227 70.8305 44.3826 70.8381 45.3523C70.8305 46.7765 70.4669 48.0114 69.7472 49.0568C69.035 50.0947 68.0047 50.9015 66.6562 51.4773C65.3153 52.0455 63.6979 52.3295 61.804 52.3295C59.9252 52.3295 58.2888 52.0417 56.8949 51.4659C55.5085 50.8902 54.4252 50.0379 53.6449 48.9091C52.8722 47.7727 52.4669 46.3674 52.429 44.6932H57.1903C57.2434 45.4735 57.4669 46.125 57.8608 46.6477C58.2623 47.1629 58.7964 47.553 59.4631 47.8182C60.1373 48.0758 60.8987 48.2045 61.7472 48.2045C62.5805 48.2045 63.304 48.0833 63.9176 47.8409C64.5388 47.5985 65.0199 47.2614 65.3608 46.8295C65.7017 46.3977 65.8722 45.9015 65.8722 45.3409C65.8722 44.8182 65.7169 44.3788 65.4062 44.0227C65.1032 43.6667 64.6563 43.3636 64.0653 43.1136C63.482 42.8636 62.7661 42.6364 61.9176 42.4318L59.3835 41.7955C57.4214 41.3182 55.8722 40.572 54.7358 39.5568C53.5994 38.5417 53.035 37.1742 53.0426 35.4545C53.035 34.0455 53.41 32.8144 54.1676 31.7614C54.9328 30.7083 55.982 29.8864 57.3153 29.2955C58.6487 28.7045 60.1638 28.4091 61.8608 28.4091C63.5881 28.4091 65.0956 28.7045 66.3835 29.2955C67.679 29.8864 68.6866 30.7083 69.4062 31.7614C70.1259 32.8144 70.4972 34.0341 70.5199 35.4205H65.804ZM74.0568 52V34.5455H78.8977V52H74.0568ZM76.4886 32.2955C75.7689 32.2955 75.1515 32.0568 74.6364 31.5795C74.1288 31.0947 73.875 30.5152 73.875 29.8409C73.875 29.1742 74.1288 28.6023 74.6364 28.125C75.1515 27.6402 75.7689 27.3977 76.4886 27.3977C77.2083 27.3977 77.822 27.6402 78.3295 28.125C78.8447 28.6023 79.1023 29.1742 79.1023 29.8409C79.1023 30.5152 78.8447 31.0947 78.3295 31.5795C77.822 32.0568 77.2083 32.2955 76.4886 32.2955ZM87.6165 41.9091V52H82.7756V34.5455H87.3892V37.625H87.5938C87.9801 36.6098 88.6278 35.8068 89.5369 35.2159C90.446 34.6174 91.5483 34.3182 92.8438 34.3182C94.0559 34.3182 95.1127 34.5833 96.0142 35.1136C96.9157 35.6439 97.6165 36.4015 98.1165 37.3864C98.6165 38.3636 98.8665 39.5303 98.8665 40.8864V52H94.0256V41.75C94.0331 40.6818 93.7604 39.8485 93.2074 39.25C92.6544 38.6439 91.893 38.3409 90.9233 38.3409C90.2718 38.3409 89.696 38.4811 89.196 38.7614C88.7036 39.0417 88.3172 39.4508 88.0369 39.9886C87.7642 40.5189 87.6241 41.1591 87.6165 41.9091ZM110.545 58.9091C108.977 58.9091 107.633 58.6932 106.511 58.2614C105.398 57.8371 104.511 57.2576 103.852 56.5227C103.193 55.7879 102.765 54.9621 102.568 54.0455L107.045 53.4432C107.182 53.7917 107.398 54.1174 107.693 54.4205C107.989 54.7235 108.379 54.9659 108.864 55.1477C109.356 55.3371 109.955 55.4318 110.659 55.4318C111.712 55.4318 112.58 55.1742 113.261 54.6591C113.951 54.1515 114.295 53.2992 114.295 52.1023V48.9091H114.091C113.879 49.3939 113.561 49.8523 113.136 50.2841C112.712 50.7159 112.167 51.0682 111.5 51.3409C110.833 51.6136 110.038 51.75 109.114 51.75C107.803 51.75 106.61 51.447 105.534 50.8409C104.466 50.2273 103.614 49.2917 102.977 48.0341C102.348 46.7689 102.034 45.1705 102.034 43.2386C102.034 41.2614 102.356 39.6098 103 38.2841C103.644 36.9583 104.5 35.9659 105.568 35.3068C106.644 34.6477 107.822 34.3182 109.102 34.3182C110.08 34.3182 110.898 34.4848 111.557 34.8182C112.216 35.1439 112.746 35.553 113.148 36.0455C113.557 36.5303 113.871 37.0076 114.091 37.4773H114.273V34.5455H119.08V52.1705C119.08 53.6553 118.716 54.8977 117.989 55.8977C117.261 56.8977 116.254 57.6477 114.966 58.1477C113.686 58.6553 112.212 58.9091 110.545 58.9091ZM110.648 48.1136C111.428 48.1136 112.087 47.9205 112.625 47.5341C113.17 47.1402 113.587 46.5795 113.875 45.8523C114.17 45.1174 114.318 44.2386 114.318 43.2159C114.318 42.1932 114.174 41.3068 113.886 40.5568C113.598 39.7992 113.182 39.2121 112.636 38.7955C112.091 38.3788 111.428 38.1705 110.648 38.1705C109.852 38.1705 109.182 38.3864 108.636 38.8182C108.091 39.2424 107.678 39.8333 107.398 40.5909C107.117 41.3485 106.977 42.2235 106.977 43.2159C106.977 44.2235 107.117 45.0947 107.398 45.8295C107.686 46.5568 108.098 47.1212 108.636 47.5227C109.182 47.9167 109.852 48.1136 110.648 48.1136ZM127.773 28.7273V52H122.932V28.7273H127.773ZM139.605 52.3409C137.81 52.3409 136.264 51.9773 134.969 51.25C133.681 50.5152 132.688 49.4773 131.991 48.1364C131.295 46.7879 130.946 45.1932 130.946 43.3523C130.946 41.5568 131.295 39.9811 131.991 38.625C132.688 37.2689 133.67 36.2121 134.935 35.4545C136.207 34.697 137.7 34.3182 139.412 34.3182C140.563 34.3182 141.635 34.5038 142.628 34.875C143.628 35.2386 144.499 35.7879 145.241 36.5227C145.991 37.2576 146.575 38.1818 146.991 39.2955C147.408 40.4015 147.616 41.697 147.616 43.1818V44.5114H132.878V41.5114H143.06C143.06 40.8144 142.908 40.197 142.605 39.6591C142.302 39.1212 141.882 38.7008 141.344 38.3977C140.813 38.0871 140.196 37.9318 139.491 37.9318C138.757 37.9318 138.105 38.1023 137.537 38.4432C136.976 38.7765 136.537 39.2273 136.219 39.7955C135.901 40.3561 135.738 40.9811 135.73 41.6705V44.5227C135.73 45.3864 135.889 46.1326 136.207 46.7614C136.533 47.3902 136.991 47.875 137.582 48.2159C138.173 48.5568 138.874 48.7273 139.685 48.7273C140.223 48.7273 140.715 48.6515 141.162 48.5C141.609 48.3485 141.991 48.1212 142.31 47.8182C142.628 47.5152 142.87 47.1439 143.037 46.7045L147.514 47C147.287 48.0758 146.821 49.0152 146.116 49.8182C145.42 50.6136 144.518 51.2348 143.412 51.6818C142.313 52.1212 141.045 52.3409 139.605 52.3409Z" fill="white"/>
<path d="M299.007 10V77.9062H252.769C246.809 77.9062 241.16 75.2484 237.36 70.6572L200.715 26.376C195.319 19.8565 199.957 10 208.419 10H299.007ZM366.78 10C375.217 10 379.863 19.8049 374.52 26.334L338.314 70.5732C334.516 75.2146 328.835 77.9062 322.837 77.9062H299.01V10H366.78Z" fill="#EE6C4D"/>
<path d="M264.891 52H256.641V28.7273H264.959C267.3 28.7273 269.316 29.1932 271.005 30.125C272.694 31.0492 273.994 32.3788 274.903 34.1136C275.819 35.8485 276.278 37.9242 276.278 40.3409C276.278 42.7652 275.819 44.8485 274.903 46.5909C273.994 48.3333 272.687 49.6705 270.982 50.6023C269.285 51.5341 267.255 52 264.891 52ZM261.562 47.7841H264.687C266.141 47.7841 267.365 47.5265 268.357 47.0114C269.357 46.4886 270.107 45.6818 270.607 44.5909C271.115 43.4924 271.369 42.0758 271.369 40.3409C271.369 38.6212 271.115 37.2159 270.607 36.125C270.107 35.0341 269.361 34.2311 268.369 33.7159C267.376 33.2008 266.153 32.9432 264.698 32.9432H261.562V47.7841ZM288.173 52H279.923V28.7273H288.241C290.582 28.7273 292.597 29.1932 294.286 30.125C295.976 31.0492 297.275 32.3788 298.184 34.1136C299.101 35.8485 299.559 37.9242 299.559 40.3409C299.559 42.7652 299.101 44.8485 298.184 46.5909C297.275 48.3333 295.968 49.6705 294.263 50.6023C292.566 51.5341 290.536 52 288.173 52ZM284.843 47.7841H287.968C289.423 47.7841 290.646 47.5265 291.638 47.0114C292.638 46.4886 293.388 45.6818 293.888 44.5909C294.396 43.4924 294.65 42.0758 294.65 40.3409C294.65 38.6212 294.396 37.2159 293.888 36.125C293.388 35.0341 292.642 34.2311 291.65 33.7159C290.657 33.2008 289.434 32.9432 287.979 32.9432H284.843V47.7841ZM303.204 52V28.7273H312.386C314.143 28.7273 315.643 29.0417 316.886 29.6705C318.136 30.2917 319.086 31.1742 319.738 32.3182C320.397 33.4545 320.726 34.7917 320.726 36.3295C320.726 37.875 320.393 39.2045 319.726 40.3182C319.06 41.4242 318.094 42.2727 316.829 42.8636C315.571 43.4545 314.048 43.75 312.261 43.75H306.113V39.7955H311.465C312.405 39.7955 313.185 39.6667 313.806 39.4091C314.427 39.1515 314.889 38.7652 315.192 38.25C315.503 37.7348 315.658 37.0947 315.658 36.3295C315.658 35.5568 315.503 34.9053 315.192 34.375C314.889 33.8447 314.423 33.4432 313.795 33.1705C313.173 32.8902 312.389 32.75 311.442 32.75H308.124V52H303.204ZM315.772 41.4091L321.556 52H316.124L310.465 41.4091H315.772Z" fill="white"/>
<path d="M487.407 10V77.9062H441.168C435.209 77.9062 429.56 75.2484 425.76 70.6572L389.115 26.376C383.719 19.8565 388.356 10 396.819 10H487.407ZM555.18 10C563.617 10 568.263 19.8049 562.919 26.334L526.714 70.5732C522.916 75.2146 517.234 77.9062 511.237 77.9062H487.41V10H555.18Z" fill="#EE6C4D"/>
<path d="M429.885 52V28.7273H445.294V32.7841H434.805V38.3295H444.271V42.3864H434.805V52H429.885ZM453.354 28.7273V52H448.513V28.7273H453.354ZM468.425 44.5682V34.5455H473.265V52H468.618V48.8295H468.436C468.042 49.8523 467.387 50.6742 466.47 51.2955C465.561 51.9167 464.451 52.2273 463.14 52.2273C461.974 52.2273 460.947 51.9621 460.061 51.4318C459.175 50.9015 458.481 50.1477 457.981 49.1705C457.489 48.1932 457.239 47.0227 457.231 45.6591V34.5455H462.072V44.7955C462.08 45.8258 462.356 46.6402 462.902 47.2386C463.447 47.8371 464.178 48.1364 465.095 48.1364C465.678 48.1364 466.224 48.0038 466.731 47.7386C467.239 47.4659 467.648 47.0644 467.959 46.5341C468.277 46.0038 468.432 45.3485 468.425 44.5682ZM485.024 52.3409C483.259 52.3409 481.732 51.9659 480.444 51.2159C479.164 50.4583 478.176 49.4053 477.479 48.0568C476.782 46.7008 476.433 45.1288 476.433 43.3409C476.433 41.5379 476.782 39.9621 477.479 38.6136C478.176 37.2576 479.164 36.2045 480.444 35.4545C481.732 34.697 483.259 34.3182 485.024 34.3182C486.789 34.3182 488.312 34.697 489.592 35.4545C490.88 36.2045 491.872 37.2576 492.569 38.6136C493.266 39.9621 493.615 41.5379 493.615 43.3409C493.615 45.1288 493.266 46.7008 492.569 48.0568C491.872 49.4053 490.88 50.4583 489.592 51.2159C488.312 51.9659 486.789 52.3409 485.024 52.3409ZM485.047 48.5909C485.85 48.5909 486.52 48.3636 487.058 47.9091C487.596 47.447 488.001 46.8182 488.274 46.0227C488.554 45.2273 488.694 44.322 488.694 43.3068C488.694 42.2917 488.554 41.3864 488.274 40.5909C488.001 39.7955 487.596 39.1667 487.058 38.7045C486.52 38.2424 485.85 38.0114 485.047 38.0114C484.236 38.0114 483.554 38.2424 483.001 38.7045C482.456 39.1667 482.043 39.7955 481.763 40.5909C481.49 41.3864 481.354 42.2917 481.354 43.3068C481.354 44.322 481.49 45.2273 481.763 46.0227C482.043 46.8182 482.456 47.447 483.001 47.9091C483.554 48.3636 484.236 48.5909 485.047 48.5909ZM496.763 52V34.5455H501.456V37.5909H501.638C501.956 36.5076 502.49 35.6894 503.24 35.1364C503.99 34.5758 504.854 34.2955 505.831 34.2955C506.073 34.2955 506.335 34.3106 506.615 34.3409C506.895 34.3712 507.141 34.4129 507.354 34.4659V38.7614C507.126 38.6932 506.812 38.6326 506.41 38.5795C506.009 38.5265 505.641 38.5 505.308 38.5C504.596 38.5 503.96 38.6553 503.399 38.9659C502.846 39.2689 502.407 39.6932 502.081 40.2386C501.763 40.7841 501.604 41.4129 501.604 42.125V52H496.763ZM516.93 52.3409C515.165 52.3409 513.639 51.9659 512.351 51.2159C511.07 50.4583 510.082 49.4053 509.385 48.0568C508.688 46.7008 508.339 45.1288 508.339 43.3409C508.339 41.5379 508.688 39.9621 509.385 38.6136C510.082 37.2576 511.07 36.2045 512.351 35.4545C513.639 34.697 515.165 34.3182 516.93 34.3182C518.695 34.3182 520.218 34.697 521.498 35.4545C522.786 36.2045 523.779 37.2576 524.476 38.6136C525.173 39.9621 525.521 41.5379 525.521 43.3409C525.521 45.1288 525.173 46.7008 524.476 48.0568C523.779 49.4053 522.786 50.4583 521.498 51.2159C520.218 51.9659 518.695 52.3409 516.93 52.3409ZM516.953 48.5909C517.756 48.5909 518.426 48.3636 518.964 47.9091C519.502 47.447 519.908 46.8182 520.18 46.0227C520.461 45.2273 520.601 44.322 520.601 43.3068C520.601 42.2917 520.461 41.3864 520.18 40.5909C519.908 39.7955 519.502 39.1667 518.964 38.7045C518.426 38.2424 517.756 38.0114 516.953 38.0114C516.142 38.0114 515.461 38.2424 514.908 38.7045C514.362 39.1667 513.949 39.7955 513.669 40.5909C513.396 41.3864 513.26 42.2917 513.26 43.3068C513.26 44.322 513.396 45.2273 513.669 46.0227C513.949 46.8182 514.362 47.447 514.908 47.9091C515.461 48.3636 516.142 48.5909 516.953 48.5909Z" fill="white"/>
<rect x="576" y="10" width="121" height="71" rx="12" fill="black"/>
<path d="M592.929 57V33.7273H602.111C603.876 33.7273 605.38 34.0644 606.622 34.7386C607.865 35.4053 608.812 36.3333 609.463 37.5227C610.122 38.7045 610.452 40.0682 610.452 41.6136C610.452 43.1591 610.118 44.5227 609.452 45.7045C608.785 46.8864 607.819 47.8068 606.554 48.4659C605.296 49.125 603.774 49.4545 601.986 49.4545H596.134V45.5114H601.19C602.137 45.5114 602.918 45.3485 603.531 45.0227C604.152 44.6894 604.615 44.2311 604.918 43.6477C605.228 43.0568 605.384 42.3788 605.384 41.6136C605.384 40.8409 605.228 40.1667 604.918 39.5909C604.615 39.0076 604.152 38.5568 603.531 38.2386C602.91 37.9129 602.122 37.75 601.168 37.75H597.849V57H592.929ZM618.398 46.9091V57H613.557V33.7273H618.261V42.625H618.466C618.86 41.5947 619.496 40.7879 620.375 40.2045C621.254 39.6136 622.356 39.3182 623.682 39.3182C624.894 39.3182 625.951 39.5833 626.852 40.1136C627.761 40.6364 628.466 41.3902 628.966 42.375C629.473 43.3523 629.723 44.5227 629.716 45.8864V57H624.875V46.75C624.883 45.6742 624.61 44.8371 624.057 44.2386C623.511 43.6402 622.746 43.3409 621.761 43.3409C621.102 43.3409 620.519 43.4811 620.011 43.7614C619.511 44.0417 619.117 44.4508 618.83 44.9886C618.549 45.5189 618.405 46.1591 618.398 46.9091ZM641.412 57.3409C639.647 57.3409 638.12 56.9659 636.832 56.2159C635.552 55.4583 634.563 54.4053 633.866 53.0568C633.17 51.7008 632.821 50.1288 632.821 48.3409C632.821 46.5379 633.17 44.9621 633.866 43.6136C634.563 42.2576 635.552 41.2045 636.832 40.4545C638.12 39.697 639.647 39.3182 641.412 39.3182C643.177 39.3182 644.7 39.697 645.98 40.4545C647.268 41.2045 648.26 42.2576 648.957 43.6136C649.654 44.9621 650.003 46.5379 650.003 48.3409C650.003 50.1288 649.654 51.7008 648.957 53.0568C648.26 54.4053 647.268 55.4583 645.98 56.2159C644.7 56.9659 643.177 57.3409 641.412 57.3409ZM641.435 53.5909C642.238 53.5909 642.908 53.3636 643.446 52.9091C643.984 52.447 644.389 51.8182 644.662 51.0227C644.942 50.2273 645.082 49.322 645.082 48.3068C645.082 47.2917 644.942 46.3864 644.662 45.5909C644.389 44.7955 643.984 44.1667 643.446 43.7045C642.908 43.2424 642.238 43.0114 641.435 43.0114C640.624 43.0114 639.942 43.2424 639.389 43.7045C638.844 44.1667 638.431 44.7955 638.151 45.5909C637.878 46.3864 637.741 47.2917 637.741 48.3068C637.741 49.322 637.878 50.2273 638.151 51.0227C638.431 51.8182 638.844 52.447 639.389 52.9091C639.942 53.3636 640.624 53.5909 641.435 53.5909ZM662.435 39.5455V43.1818H651.923V39.5455H662.435ZM654.31 35.3636H659.151V51.6364C659.151 52.0833 659.219 52.4318 659.355 52.6818C659.491 52.9242 659.681 53.0947 659.923 53.1932C660.173 53.2917 660.461 53.3409 660.787 53.3409C661.014 53.3409 661.241 53.322 661.469 53.2841C661.696 53.2386 661.87 53.2045 661.991 53.1818L662.753 56.7841C662.51 56.8598 662.17 56.947 661.73 57.0455C661.291 57.1515 660.757 57.2159 660.128 57.2386C658.961 57.2841 657.938 57.1288 657.06 56.7727C656.188 56.4167 655.51 55.8636 655.026 55.1136C654.541 54.3636 654.302 53.4167 654.31 52.2727V35.3636ZM673.287 57.3409C671.522 57.3409 669.995 56.9659 668.707 56.2159C667.427 55.4583 666.438 54.4053 665.741 53.0568C665.045 51.7008 664.696 50.1288 664.696 48.3409C664.696 46.5379 665.045 44.9621 665.741 43.6136C666.438 42.2576 667.427 41.2045 668.707 40.4545C669.995 39.697 671.522 39.3182 673.287 39.3182C675.052 39.3182 676.575 39.697 677.855 40.4545C679.143 41.2045 680.135 42.2576 680.832 43.6136C681.529 44.9621 681.878 46.5379 681.878 48.3409C681.878 50.1288 681.529 51.7008 680.832 53.0568C680.135 54.4053 679.143 55.4583 677.855 56.2159C676.575 56.9659 675.052 57.3409 673.287 57.3409ZM673.31 53.5909C674.113 53.5909 674.783 53.3636 675.321 52.9091C675.859 52.447 676.264 51.8182 676.537 51.0227C676.817 50.2273 676.957 49.322 676.957 48.3068C676.957 47.2917 676.817 46.3864 676.537 45.5909C676.264 44.7955 675.859 44.1667 675.321 43.7045C674.783 43.2424 674.113 43.0114 673.31 43.0114C672.499 43.0114 671.817 43.2424 671.264 43.7045C670.719 44.1667 670.306 44.7955 670.026 45.5909C669.753 46.3864 669.616 47.2917 669.616 48.3068C669.616 49.322 669.753 50.2273 670.026 51.0227C670.306 51.8182 670.719 52.447 671.264 52.9091C671.817 53.3636 672.499 53.5909 673.31 53.5909Z" fill="white"/>
<path d="M110.607 91V158.906H64.3688C58.4093 158.906 52.7601 156.248 48.9606 151.657L12.315 107.376C6.91972 100.857 11.5567 91 20.0191 91H110.607ZM178.381 91C186.817 91 191.463 100.805 186.12 107.334L149.915 151.573C146.116 156.215 140.435 158.906 134.437 158.906H110.61V91H178.381Z" fill="#3DB06B"/>
<path d="M65.804 116.42C65.7131 115.504 65.3229 114.792 64.6335 114.284C63.9441 113.777 63.0085 113.523 61.8267 113.523C61.0237 113.523 60.3456 113.636 59.7926 113.864C59.2396 114.083 58.8153 114.39 58.5199 114.784C58.232 115.178 58.0881 115.625 58.0881 116.125C58.0729 116.542 58.16 116.905 58.3494 117.216C58.5464 117.527 58.8153 117.795 59.1562 118.023C59.4972 118.242 59.8911 118.436 60.3381 118.602C60.785 118.761 61.2623 118.898 61.7699 119.011L63.8608 119.511C64.8759 119.739 65.8078 120.042 66.6562 120.42C67.5047 120.799 68.2396 121.265 68.8608 121.818C69.482 122.371 69.9631 123.023 70.304 123.773C70.6525 124.523 70.8305 125.383 70.8381 126.352C70.8305 127.777 70.4669 129.011 69.7472 130.057C69.035 131.095 68.0047 131.902 66.6562 132.477C65.3153 133.045 63.6979 133.33 61.804 133.33C59.9252 133.33 58.2888 133.042 56.8949 132.466C55.5085 131.89 54.4252 131.038 53.6449 129.909C52.8722 128.773 52.4669 127.367 52.429 125.693H57.1903C57.2434 126.473 57.4669 127.125 57.8608 127.648C58.2623 128.163 58.7964 128.553 59.4631 128.818C60.1373 129.076 60.8987 129.205 61.7472 129.205C62.5805 129.205 63.304 129.083 63.9176 128.841C64.5388 128.598 65.0199 128.261 65.3608 127.83C65.7017 127.398 65.8722 126.902 65.8722 126.341C65.8722 125.818 65.7169 125.379 65.4062 125.023C65.1032 124.667 64.6563 124.364 64.0653 124.114C63.482 123.864 62.7661 123.636 61.9176 123.432L59.3835 122.795C57.4214 122.318 55.8722 121.572 54.7358 120.557C53.5994 119.542 53.035 118.174 53.0426 116.455C53.035 115.045 53.41 113.814 54.1676 112.761C54.9328 111.708 55.982 110.886 57.3153 110.295C58.6487 109.705 60.1638 109.409 61.8608 109.409C63.5881 109.409 65.0956 109.705 66.3835 110.295C67.679 110.886 68.6866 111.708 69.4062 112.761C70.1259 113.814 70.4972 115.034 70.5199 116.42H65.804ZM74.0568 133V115.545H78.8977V133H74.0568ZM76.4886 113.295C75.7689 113.295 75.1515 113.057 74.6364 112.58C74.1288 112.095 73.875 111.515 73.875 110.841C73.875 110.174 74.1288 109.602 74.6364 109.125C75.1515 108.64 75.7689 108.398 76.4886 108.398C77.2083 108.398 77.822 108.64 78.3295 109.125C78.8447 109.602 79.1023 110.174 79.1023 110.841C79.1023 111.515 78.8447 112.095 78.3295 112.58C77.822 113.057 77.2083 113.295 76.4886 113.295ZM87.6165 122.909V133H82.7756V115.545H87.3892V118.625H87.5938C87.9801 117.61 88.6278 116.807 89.5369 116.216C90.446 115.617 91.5483 115.318 92.8438 115.318C94.0559 115.318 95.1127 115.583 96.0142 116.114C96.9157 116.644 97.6165 117.402 98.1165 118.386C98.6165 119.364 98.8665 120.53 98.8665 121.886V133H94.0256V122.75C94.0331 121.682 93.7604 120.848 93.2074 120.25C92.6544 119.644 91.893 119.341 90.9233 119.341C90.2718 119.341 89.696 119.481 89.196 119.761C88.7036 120.042 88.3172 120.451 88.0369 120.989C87.7642 121.519 87.6241 122.159 87.6165 122.909ZM110.545 139.909C108.977 139.909 107.633 139.693 106.511 139.261C105.398 138.837 104.511 138.258 103.852 137.523C103.193 136.788 102.765 135.962 102.568 135.045L107.045 134.443C107.182 134.792 107.398 135.117 107.693 135.42C107.989 135.723 108.379 135.966 108.864 136.148C109.356 136.337 109.955 136.432 110.659 136.432C111.712 136.432 112.58 136.174 113.261 135.659C113.951 135.152 114.295 134.299 114.295 133.102V129.909H114.091C113.879 130.394 113.561 130.852 113.136 131.284C112.712 131.716 112.167 132.068 111.5 132.341C110.833 132.614 110.038 132.75 109.114 132.75C107.803 132.75 106.61 132.447 105.534 131.841C104.466 131.227 103.614 130.292 102.977 129.034C102.348 127.769 102.034 126.17 102.034 124.239C102.034 122.261 102.356 120.61 103 119.284C103.644 117.958 104.5 116.966 105.568 116.307C106.644 115.648 107.822 115.318 109.102 115.318C110.08 115.318 110.898 115.485 111.557 115.818C112.216 116.144 112.746 116.553 113.148 117.045C113.557 117.53 113.871 118.008 114.091 118.477H114.273V115.545H119.08V133.17C119.08 134.655 118.716 135.898 117.989 136.898C117.261 137.898 116.254 138.648 114.966 139.148C113.686 139.655 112.212 139.909 110.545 139.909ZM110.648 129.114C111.428 129.114 112.087 128.92 112.625 128.534C113.17 128.14 113.587 127.58 113.875 126.852C114.17 126.117 114.318 125.239 114.318 124.216C114.318 123.193 114.174 122.307 113.886 121.557C113.598 120.799 113.182 120.212 112.636 119.795C112.091 119.379 111.428 119.17 110.648 119.17C109.852 119.17 109.182 119.386 108.636 119.818C108.091 120.242 107.678 120.833 107.398 121.591C107.117 122.348 106.977 123.223 106.977 124.216C106.977 125.223 107.117 126.095 107.398 126.83C107.686 127.557 108.098 128.121 108.636 128.523C109.182 128.917 109.852 129.114 110.648 129.114ZM127.773 109.727V133H122.932V109.727H127.773ZM139.605 133.341C137.81 133.341 136.264 132.977 134.969 132.25C133.681 131.515 132.688 130.477 131.991 129.136C131.295 127.788 130.946 126.193 130.946 124.352C130.946 122.557 131.295 120.981 131.991 119.625C132.688 118.269 133.67 117.212 134.935 116.455C136.207 115.697 137.7 115.318 139.412 115.318C140.563 115.318 141.635 115.504 142.628 115.875C143.628 116.239 144.499 116.788 145.241 117.523C145.991 118.258 146.575 119.182 146.991 120.295C147.408 121.402 147.616 122.697 147.616 124.182V125.511H132.878V122.511H143.06C143.06 121.814 142.908 121.197 142.605 120.659C142.302 120.121 141.882 119.701 141.344 119.398C140.813 119.087 140.196 118.932 139.491 118.932C138.757 118.932 138.105 119.102 137.537 119.443C136.976 119.777 136.537 120.227 136.219 120.795C135.901 121.356 135.738 121.981 135.73 122.67V125.523C135.73 126.386 135.889 127.133 136.207 127.761C136.533 128.39 136.991 128.875 137.582 129.216C138.173 129.557 138.874 129.727 139.685 129.727C140.223 129.727 140.715 129.652 141.162 129.5C141.609 129.348 141.991 129.121 142.31 128.818C142.628 128.515 142.87 128.144 143.037 127.705L147.514 128C147.287 129.076 146.821 130.015 146.116 130.818C145.42 131.614 144.518 132.235 143.412 132.682C142.313 133.121 141.045 133.341 139.605 133.341Z" fill="white"/>
<path d="M299.007 91V158.906H252.769C246.809 158.906 241.16 156.248 237.36 151.657L200.715 107.376C195.319 100.857 199.957 91 208.419 91H299.007ZM366.78 91C375.217 91 379.863 100.805 374.52 107.334L338.314 151.573C334.516 156.215 328.835 158.906 322.837 158.906H299.01V91H366.78Z" fill="#3DB06B"/>
<path d="M264.891 133H256.641V109.727H264.959C267.3 109.727 269.316 110.193 271.005 111.125C272.694 112.049 273.994 113.379 274.903 115.114C275.819 116.848 276.278 118.924 276.278 121.341C276.278 123.765 275.819 125.848 274.903 127.591C273.994 129.333 272.687 130.67 270.982 131.602C269.285 132.534 267.255 133 264.891 133ZM261.562 128.784H264.687C266.141 128.784 267.365 128.527 268.357 128.011C269.357 127.489 270.107 126.682 270.607 125.591C271.115 124.492 271.369 123.076 271.369 121.341C271.369 119.621 271.115 118.216 270.607 117.125C270.107 116.034 269.361 115.231 268.369 114.716C267.376 114.201 266.153 113.943 264.698 113.943H261.562V128.784ZM288.173 133H279.923V109.727H288.241C290.582 109.727 292.597 110.193 294.286 111.125C295.976 112.049 297.275 113.379 298.184 115.114C299.101 116.848 299.559 118.924 299.559 121.341C299.559 123.765 299.101 125.848 298.184 127.591C297.275 129.333 295.968 130.67 294.263 131.602C292.566 132.534 290.536 133 288.173 133ZM284.843 128.784H287.968C289.423 128.784 290.646 128.527 291.638 128.011C292.638 127.489 293.388 126.682 293.888 125.591C294.396 124.492 294.65 123.076 294.65 121.341C294.65 119.621 294.396 118.216 293.888 117.125C293.388 116.034 292.642 115.231 291.65 114.716C290.657 114.201 289.434 113.943 287.979 113.943H284.843V128.784ZM303.204 133V109.727H312.386C314.143 109.727 315.643 110.042 316.886 110.67C318.136 111.292 319.086 112.174 319.738 113.318C320.397 114.455 320.726 115.792 320.726 117.33C320.726 118.875 320.393 120.205 319.726 121.318C319.06 122.424 318.094 123.273 316.829 123.864C315.571 124.455 314.048 124.75 312.261 124.75H306.113V120.795H311.465C312.405 120.795 313.185 120.667 313.806 120.409C314.427 120.152 314.889 119.765 315.192 119.25C315.503 118.735 315.658 118.095 315.658 117.33C315.658 116.557 315.503 115.905 315.192 115.375C314.889 114.845 314.423 114.443 313.795 114.17C313.173 113.89 312.389 113.75 311.442 113.75H308.124V133H303.204ZM315.772 122.409L321.556 133H316.124L310.465 122.409H315.772Z" fill="white"/>
<path d="M487.407 91V158.906H441.168C435.209 158.906 429.56 156.248 425.76 151.657L389.115 107.376C383.719 100.857 388.356 91 396.819 91H487.407ZM555.18 91C563.617 91 568.263 100.805 562.919 107.334L526.714 151.573C522.916 156.215 517.234 158.906 511.237 158.906H487.41V91H555.18Z" fill="#3DB06B"/>
<path d="M429.885 133V109.727H445.294V113.784H434.805V119.33H444.271V123.386H434.805V133H429.885ZM453.354 109.727V133H448.513V109.727H453.354ZM468.425 125.568V115.545H473.265V133H468.618V129.83H468.436C468.042 130.852 467.387 131.674 466.47 132.295C465.561 132.917 464.451 133.227 463.14 133.227C461.974 133.227 460.947 132.962 460.061 132.432C459.175 131.902 458.481 131.148 457.981 130.17C457.489 129.193 457.239 128.023 457.231 126.659V115.545H462.072V125.795C462.08 126.826 462.356 127.64 462.902 128.239C463.447 128.837 464.178 129.136 465.095 129.136C465.678 129.136 466.224 129.004 466.731 128.739C467.239 128.466 467.648 128.064 467.959 127.534C468.277 127.004 468.432 126.348 468.425 125.568ZM485.024 133.341C483.259 133.341 481.732 132.966 480.444 132.216C479.164 131.458 478.176 130.405 477.479 129.057C476.782 127.701 476.433 126.129 476.433 124.341C476.433 122.538 476.782 120.962 477.479 119.614C478.176 118.258 479.164 117.205 480.444 116.455C481.732 115.697 483.259 115.318 485.024 115.318C486.789 115.318 488.312 115.697 489.592 116.455C490.88 117.205 491.872 118.258 492.569 119.614C493.266 120.962 493.615 122.538 493.615 124.341C493.615 126.129 493.266 127.701 492.569 129.057C491.872 130.405 490.88 131.458 489.592 132.216C488.312 132.966 486.789 133.341 485.024 133.341ZM485.047 129.591C485.85 129.591 486.52 129.364 487.058 128.909C487.596 128.447 488.001 127.818 488.274 127.023C488.554 126.227 488.694 125.322 488.694 124.307C488.694 123.292 488.554 122.386 488.274 121.591C488.001 120.795 487.596 120.167 487.058 119.705C486.52 119.242 485.85 119.011 485.047 119.011C484.236 119.011 483.554 119.242 483.001 119.705C482.456 120.167 482.043 120.795 481.763 121.591C481.49 122.386 481.354 123.292 481.354 124.307C481.354 125.322 481.49 126.227 481.763 127.023C482.043 127.818 482.456 128.447 483.001 128.909C483.554 129.364 484.236 129.591 485.047 129.591ZM496.763 133V115.545H501.456V118.591H501.638C501.956 117.508 502.49 116.689 503.24 116.136C503.99 115.576 504.854 115.295 505.831 115.295C506.073 115.295 506.335 115.311 506.615 115.341C506.895 115.371 507.141 115.413 507.354 115.466V119.761C507.126 119.693 506.812 119.633 506.41 119.58C506.009 119.527 505.641 119.5 505.308 119.5C504.596 119.5 503.96 119.655 503.399 119.966C502.846 120.269 502.407 120.693 502.081 121.239C501.763 121.784 501.604 122.413 501.604 123.125V133H496.763ZM516.93 133.341C515.165 133.341 513.639 132.966 512.351 132.216C511.07 131.458 510.082 130.405 509.385 129.057C508.688 127.701 508.339 126.129 508.339 124.341C508.339 122.538 508.688 120.962 509.385 119.614C510.082 118.258 511.07 117.205 512.351 116.455C513.639 115.697 515.165 115.318 516.93 115.318C518.695 115.318 520.218 115.697 521.498 116.455C522.786 117.205 523.779 118.258 524.476 119.614C525.173 120.962 525.521 122.538 525.521 124.341C525.521 126.129 525.173 127.701 524.476 129.057C523.779 130.405 522.786 131.458 521.498 132.216C520.218 132.966 518.695 133.341 516.93 133.341ZM516.953 129.591C517.756 129.591 518.426 129.364 518.964 128.909C519.502 128.447 519.908 127.818 520.18 127.023C520.461 126.227 520.601 125.322 520.601 124.307C520.601 123.292 520.461 122.386 520.18 121.591C519.908 120.795 519.502 120.167 518.964 119.705C518.426 119.242 517.756 119.011 516.953 119.011C516.142 119.011 515.461 119.242 514.908 119.705C514.362 120.167 513.949 120.795 513.669 121.591C513.396 122.386 513.26 123.292 513.26 124.307C513.26 125.322 513.396 126.227 513.669 127.023C513.949 127.818 514.362 128.447 514.908 128.909C515.461 129.364 516.142 129.591 516.953 129.591Z" fill="white"/>
<path d="M110.607 168.906V236.812H64.3688C58.4093 236.812 52.7601 234.155 48.9606 229.563L12.315 185.282C6.91972 178.763 11.5567 168.906 20.0191 168.906H110.607ZM178.381 168.906C186.817 168.906 191.463 178.711 186.12 185.24L149.915 229.479C146.116 234.121 140.435 236.812 134.437 236.812H110.61V168.906H178.381Z" fill="#FFED81"/>
<path d="M65.804 194.327C65.7131 193.41 65.3229 192.698 64.6335 192.19C63.9441 191.683 63.0085 191.429 61.8267 191.429C61.0237 191.429 60.3456 191.543 59.7926 191.77C59.2396 191.99 58.8153 192.296 58.5199 192.69C58.232 193.084 58.0881 193.531 58.0881 194.031C58.0729 194.448 58.16 194.812 58.3494 195.122C58.5464 195.433 58.8153 195.702 59.1562 195.929C59.4972 196.149 59.8911 196.342 60.3381 196.509C60.785 196.668 61.2623 196.804 61.7699 196.918L63.8608 197.418C64.8759 197.645 65.8078 197.948 66.6562 198.327C67.5047 198.705 68.2396 199.171 68.8608 199.724C69.482 200.277 69.9631 200.929 70.304 201.679C70.6525 202.429 70.8305 203.289 70.8381 204.259C70.8305 205.683 70.4669 206.918 69.7472 207.963C69.035 209.001 68.0047 209.808 66.6562 210.384C65.3153 210.952 63.6979 211.236 61.804 211.236C59.9252 211.236 58.2888 210.948 56.8949 210.372C55.5085 209.796 54.4252 208.944 53.6449 207.815C52.8722 206.679 52.4669 205.274 52.429 203.599H57.1903C57.2434 204.38 57.4669 205.031 57.8608 205.554C58.2623 206.069 58.7964 206.459 59.4631 206.724C60.1373 206.982 60.8987 207.111 61.7472 207.111C62.5805 207.111 63.304 206.99 63.9176 206.747C64.5388 206.505 65.0199 206.168 65.3608 205.736C65.7017 205.304 65.8722 204.808 65.8722 204.247C65.8722 203.724 65.7169 203.285 65.4062 202.929C65.1032 202.573 64.6563 202.27 64.0653 202.02C63.482 201.77 62.7661 201.543 61.9176 201.338L59.3835 200.702C57.4214 200.224 55.8722 199.478 54.7358 198.463C53.5994 197.448 53.035 196.08 53.0426 194.361C53.035 192.952 53.41 191.721 54.1676 190.668C54.9328 189.615 55.982 188.793 57.3153 188.202C58.6487 187.611 60.1638 187.315 61.8608 187.315C63.5881 187.315 65.0956 187.611 66.3835 188.202C67.679 188.793 68.6866 189.615 69.4062 190.668C70.1259 191.721 70.4972 192.94 70.5199 194.327H65.804ZM74.0568 210.906V193.452H78.8977V210.906H74.0568ZM76.4886 191.202C75.7689 191.202 75.1515 190.963 74.6364 190.486C74.1288 190.001 73.875 189.421 73.875 188.747C73.875 188.08 74.1288 187.509 74.6364 187.031C75.1515 186.546 75.7689 186.304 76.4886 186.304C77.2083 186.304 77.822 186.546 78.3295 187.031C78.8447 187.509 79.1023 188.08 79.1023 188.747C79.1023 189.421 78.8447 190.001 78.3295 190.486C77.822 190.963 77.2083 191.202 76.4886 191.202ZM87.6165 200.815V210.906H82.7756V193.452H87.3892V196.531H87.5938C87.9801 195.516 88.6278 194.713 89.5369 194.122C90.446 193.524 91.5483 193.224 92.8438 193.224C94.0559 193.224 95.1127 193.49 96.0142 194.02C96.9157 194.55 97.6165 195.308 98.1165 196.293C98.6165 197.27 98.8665 198.437 98.8665 199.793V210.906H94.0256V200.656C94.0331 199.588 93.7604 198.755 93.2074 198.156C92.6544 197.55 91.893 197.247 90.9233 197.247C90.2718 197.247 89.696 197.387 89.196 197.668C88.7036 197.948 88.3172 198.357 88.0369 198.895C87.7642 199.425 87.6241 200.065 87.6165 200.815ZM110.545 217.815C108.977 217.815 107.633 217.599 106.511 217.168C105.398 216.743 104.511 216.164 103.852 215.429C103.193 214.694 102.765 213.868 102.568 212.952L107.045 212.349C107.182 212.698 107.398 213.024 107.693 213.327C107.989 213.63 108.379 213.872 108.864 214.054C109.356 214.243 109.955 214.338 110.659 214.338C111.712 214.338 112.58 214.08 113.261 213.565C113.951 213.058 114.295 212.205 114.295 211.009V207.815H114.091C113.879 208.3 113.561 208.759 113.136 209.19C112.712 209.622 112.167 209.974 111.5 210.247C110.833 210.52 110.038 210.656 109.114 210.656C107.803 210.656 106.61 210.353 105.534 209.747C104.466 209.134 103.614 208.198 102.977 206.94C102.348 205.675 102.034 204.077 102.034 202.145C102.034 200.168 102.356 198.516 103 197.19C103.644 195.865 104.5 194.872 105.568 194.213C106.644 193.554 107.822 193.224 109.102 193.224C110.08 193.224 110.898 193.391 111.557 193.724C112.216 194.05 112.746 194.459 113.148 194.952C113.557 195.437 113.871 195.914 114.091 196.384H114.273V193.452H119.08V211.077C119.08 212.562 118.716 213.804 117.989 214.804C117.261 215.804 116.254 216.554 114.966 217.054C113.686 217.562 112.212 217.815 110.545 217.815ZM110.648 207.02C111.428 207.02 112.087 206.827 112.625 206.44C113.17 206.046 113.587 205.486 113.875 204.759C114.17 204.024 114.318 203.145 114.318 202.122C114.318 201.099 114.174 200.213 113.886 199.463C113.598 198.705 113.182 198.118 112.636 197.702C112.091 197.285 111.428 197.077 110.648 197.077C109.852 197.077 109.182 197.293 108.636 197.724C108.091 198.149 107.678 198.74 107.398 199.497C107.117 200.255 106.977 201.13 106.977 202.122C106.977 203.13 107.117 204.001 107.398 204.736C107.686 205.463 108.098 206.027 108.636 206.429C109.182 206.823 109.852 207.02 110.648 207.02ZM127.773 187.634V210.906H122.932V187.634H127.773ZM139.605 211.247C137.81 211.247 136.264 210.884 134.969 210.156C133.681 209.421 132.688 208.384 131.991 207.043C131.295 205.694 130.946 204.099 130.946 202.259C130.946 200.463 131.295 198.887 131.991 197.531C132.688 196.175 133.67 195.118 134.935 194.361C136.207 193.603 137.7 193.224 139.412 193.224C140.563 193.224 141.635 193.41 142.628 193.781C143.628 194.145 144.499 194.694 145.241 195.429C145.991 196.164 146.575 197.088 146.991 198.202C147.408 199.308 147.616 200.603 147.616 202.088V203.418H132.878V200.418H143.06C143.06 199.721 142.908 199.103 142.605 198.565C142.302 198.027 141.882 197.607 141.344 197.304C140.813 196.993 140.196 196.838 139.491 196.838C138.757 196.838 138.105 197.009 137.537 197.349C136.976 197.683 136.537 198.134 136.219 198.702C135.901 199.262 135.738 199.887 135.73 200.577V203.429C135.73 204.293 135.889 205.039 136.207 205.668C136.533 206.296 136.991 206.781 137.582 207.122C138.173 207.463 138.874 207.634 139.685 207.634C140.223 207.634 140.715 207.558 141.162 207.406C141.609 207.255 141.991 207.027 142.31 206.724C142.628 206.421 142.87 206.05 143.037 205.611L147.514 205.906C147.287 206.982 146.821 207.921 146.116 208.724C145.42 209.52 144.518 210.141 143.412 210.588C142.313 211.027 141.045 211.247 139.605 211.247Z" fill="black"/>
<path d="M299.007 168.906V236.812H252.769C246.809 236.812 241.16 234.155 237.36 229.563L200.715 185.282C195.319 178.763 199.957 168.906 208.419 168.906H299.007ZM366.78 168.906C375.217 168.906 379.863 178.711 374.52 185.24L338.314 229.479C334.516 234.121 328.835 236.812 322.837 236.812H299.01V168.906H366.78Z" fill="#FFED81"/>
<path d="M264.891 210.906H256.641V187.634H264.959C267.3 187.634 269.316 188.099 271.005 189.031C272.694 189.955 273.994 191.285 274.903 193.02C275.819 194.755 276.278 196.83 276.278 199.247C276.278 201.671 275.819 203.755 274.903 205.497C273.994 207.24 272.687 208.577 270.982 209.509C269.285 210.44 267.255 210.906 264.891 210.906ZM261.562 206.69H264.687C266.141 206.69 267.365 206.433 268.357 205.918C269.357 205.395 270.107 204.588 270.607 203.497C271.115 202.399 271.369 200.982 271.369 199.247C271.369 197.527 271.115 196.122 270.607 195.031C270.107 193.94 269.361 193.137 268.369 192.622C267.376 192.107 266.153 191.849 264.698 191.849H261.562V206.69ZM288.173 210.906H279.923V187.634H288.241C290.582 187.634 292.597 188.099 294.286 189.031C295.976 189.955 297.275 191.285 298.184 193.02C299.101 194.755 299.559 196.83 299.559 199.247C299.559 201.671 299.101 203.755 298.184 205.497C297.275 207.24 295.968 208.577 294.263 209.509C292.566 210.44 290.536 210.906 288.173 210.906ZM284.843 206.69H287.968C289.423 206.69 290.646 206.433 291.638 205.918C292.638 205.395 293.388 204.588 293.888 203.497C294.396 202.399 294.65 200.982 294.65 199.247C294.65 197.527 294.396 196.122 293.888 195.031C293.388 193.94 292.642 193.137 291.65 192.622C290.657 192.107 289.434 191.849 287.979 191.849H284.843V206.69ZM303.204 210.906V187.634H312.386C314.143 187.634 315.643 187.948 316.886 188.577C318.136 189.198 319.086 190.08 319.738 191.224C320.397 192.361 320.726 193.698 320.726 195.236C320.726 196.781 320.393 198.111 319.726 199.224C319.06 200.33 318.094 201.179 316.829 201.77C315.571 202.361 314.048 202.656 312.261 202.656H306.113V198.702H311.465C312.405 198.702 313.185 198.573 313.806 198.315C314.427 198.058 314.889 197.671 315.192 197.156C315.503 196.641 315.658 196.001 315.658 195.236C315.658 194.463 315.503 193.812 315.192 193.281C314.889 192.751 314.423 192.349 313.795 192.077C313.173 191.796 312.389 191.656 311.442 191.656H308.124V210.906H303.204ZM315.772 200.315L321.556 210.906H316.124L310.465 200.315H315.772Z" fill="black"/>
<path d="M487.407 168.906V236.812H441.168C435.209 236.812 429.56 234.155 425.76 229.563L389.115 185.282C383.719 178.763 388.356 168.906 396.819 168.906H487.407ZM555.18 168.906C563.617 168.906 568.263 178.711 562.919 185.24L526.714 229.479C522.916 234.121 517.234 236.812 511.237 236.812H487.41V168.906H555.18Z" fill="#FFED81"/>
<path d="M429.885 210.906V187.634H445.294V191.69H434.805V197.236H444.271V201.293H434.805V210.906H429.885ZM453.354 187.634V210.906H448.513V187.634H453.354ZM468.425 203.474V193.452H473.265V210.906H468.618V207.736H468.436C468.042 208.759 467.387 209.58 466.47 210.202C465.561 210.823 464.451 211.134 463.14 211.134C461.974 211.134 460.947 210.868 460.061 210.338C459.175 209.808 458.481 209.054 457.981 208.077C457.489 207.099 457.239 205.929 457.231 204.565V193.452H462.072V203.702C462.08 204.732 462.356 205.546 462.902 206.145C463.447 206.743 464.178 207.043 465.095 207.043C465.678 207.043 466.224 206.91 466.731 206.645C467.239 206.372 467.648 205.971 467.959 205.44C468.277 204.91 468.432 204.255 468.425 203.474ZM485.024 211.247C483.259 211.247 481.732 210.872 480.444 210.122C479.164 209.365 478.176 208.312 477.479 206.963C476.782 205.607 476.433 204.035 476.433 202.247C476.433 200.444 476.782 198.868 477.479 197.52C478.176 196.164 479.164 195.111 480.444 194.361C481.732 193.603 483.259 193.224 485.024 193.224C486.789 193.224 488.312 193.603 489.592 194.361C490.88 195.111 491.872 196.164 492.569 197.52C493.266 198.868 493.615 200.444 493.615 202.247C493.615 204.035 493.266 205.607 492.569 206.963C491.872 208.312 490.88 209.365 489.592 210.122C488.312 210.872 486.789 211.247 485.024 211.247ZM485.047 207.497C485.85 207.497 486.52 207.27 487.058 206.815C487.596 206.353 488.001 205.724 488.274 204.929C488.554 204.134 488.694 203.228 488.694 202.213C488.694 201.198 488.554 200.293 488.274 199.497C488.001 198.702 487.596 198.073 487.058 197.611C486.52 197.149 485.85 196.918 485.047 196.918C484.236 196.918 483.554 197.149 483.001 197.611C482.456 198.073 482.043 198.702 481.763 199.497C481.49 200.293 481.354 201.198 481.354 202.213C481.354 203.228 481.49 204.134 481.763 204.929C482.043 205.724 482.456 206.353 483.001 206.815C483.554 207.27 484.236 207.497 485.047 207.497ZM496.763 210.906V193.452H501.456V196.497H501.638C501.956 195.414 502.49 194.596 503.24 194.043C503.99 193.482 504.854 193.202 505.831 193.202C506.073 193.202 506.335 193.217 506.615 193.247C506.895 193.277 507.141 193.319 507.354 193.372V197.668C507.126 197.599 506.812 197.539 506.41 197.486C506.009 197.433 505.641 197.406 505.308 197.406C504.596 197.406 503.96 197.562 503.399 197.872C502.846 198.175 502.407 198.599 502.081 199.145C501.763 199.69 501.604 200.319 501.604 201.031V210.906H496.763ZM516.93 211.247C515.165 211.247 513.639 210.872 512.351 210.122C511.07 209.365 510.082 208.312 509.385 206.963C508.688 205.607 508.339 204.035 508.339 202.247C508.339 200.444 508.688 198.868 509.385 197.52C510.082 196.164 511.07 195.111 512.351 194.361C513.639 193.603 515.165 193.224 516.93 193.224C518.695 193.224 520.218 193.603 521.498 194.361C522.786 195.111 523.779 196.164 524.476 197.52C525.173 198.868 525.521 200.444 525.521 202.247C525.521 204.035 525.173 205.607 524.476 206.963C523.779 208.312 522.786 209.365 521.498 210.122C520.218 210.872 518.695 211.247 516.93 211.247ZM516.953 207.497C517.756 207.497 518.426 207.27 518.964 206.815C519.502 206.353 519.908 205.724 520.18 204.929C520.461 204.134 520.601 203.228 520.601 202.213C520.601 201.198 520.461 200.293 520.18 199.497C519.908 198.702 519.502 198.073 518.964 197.611C518.426 197.149 517.756 196.918 516.953 196.918C516.142 196.918 515.461 197.149 514.908 197.611C514.362 198.073 513.949 198.702 513.669 199.497C513.396 200.293 513.26 201.198 513.26 202.213C513.26 203.228 513.396 204.134 513.669 204.929C513.949 205.724 514.362 206.353 514.908 206.815C515.461 207.27 516.142 207.497 516.953 207.497Z" fill="black"/>
<path d="M110.607 246.812V314.719H64.3688C58.4093 314.719 52.7601 312.061 48.9606 307.47L12.315 263.188C6.91972 256.669 11.5567 246.812 20.0191 246.812H110.607ZM178.381 246.812C186.817 246.813 191.463 256.617 186.12 263.146L149.915 307.386C146.116 312.027 140.435 314.719 134.437 314.719H110.61V246.812H178.381Z" fill="#D564E9"/>
<path d="M65.804 272.233C65.7131 271.316 65.3229 270.604 64.6335 270.097C63.9441 269.589 63.0085 269.335 61.8267 269.335C61.0237 269.335 60.3456 269.449 59.7926 269.676C59.2396 269.896 58.8153 270.203 58.5199 270.597C58.232 270.991 58.0881 271.438 58.0881 271.938C58.0729 272.354 58.16 272.718 58.3494 273.028C58.5464 273.339 58.8153 273.608 59.1562 273.835C59.4972 274.055 59.8911 274.248 60.3381 274.415C60.785 274.574 61.2623 274.71 61.7699 274.824L63.8608 275.324C64.8759 275.551 65.8078 275.854 66.6562 276.233C67.5047 276.612 68.2396 277.078 68.8608 277.631C69.482 278.184 69.9631 278.835 70.304 279.585C70.6525 280.335 70.8305 281.195 70.8381 282.165C70.8305 283.589 70.4669 284.824 69.7472 285.869C69.035 286.907 68.0047 287.714 66.6562 288.29C65.3153 288.858 63.6979 289.142 61.804 289.142C59.9252 289.142 58.2888 288.854 56.8949 288.278C55.5085 287.703 54.4252 286.85 53.6449 285.722C52.8722 284.585 52.4669 283.18 52.429 281.506H57.1903C57.2434 282.286 57.4669 282.937 57.8608 283.46C58.2623 283.975 58.7964 284.366 59.4631 284.631C60.1373 284.888 60.8987 285.017 61.7472 285.017C62.5805 285.017 63.304 284.896 63.9176 284.653C64.5388 284.411 65.0199 284.074 65.3608 283.642C65.7017 283.21 65.8722 282.714 65.8722 282.153C65.8722 281.631 65.7169 281.191 65.4062 280.835C65.1032 280.479 64.6563 280.176 64.0653 279.926C63.482 279.676 62.7661 279.449 61.9176 279.244L59.3835 278.608C57.4214 278.131 55.8722 277.384 54.7358 276.369C53.5994 275.354 53.035 273.987 53.0426 272.267C53.035 270.858 53.41 269.627 54.1676 268.574C54.9328 267.521 55.982 266.699 57.3153 266.108C58.6487 265.517 60.1638 265.222 61.8608 265.222C63.5881 265.222 65.0956 265.517 66.3835 266.108C67.679 266.699 68.6866 267.521 69.4062 268.574C70.1259 269.627 70.4972 270.847 70.5199 272.233H65.804ZM74.0568 288.812V271.358H78.8977V288.812H74.0568ZM76.4886 269.108C75.7689 269.108 75.1515 268.869 74.6364 268.392C74.1288 267.907 73.875 267.328 73.875 266.653C73.875 265.987 74.1288 265.415 74.6364 264.938C75.1515 264.453 75.7689 264.21 76.4886 264.21C77.2083 264.21 77.822 264.453 78.3295 264.938C78.8447 265.415 79.1023 265.987 79.1023 266.653C79.1023 267.328 78.8447 267.907 78.3295 268.392C77.822 268.869 77.2083 269.108 76.4886 269.108ZM87.6165 278.722V288.812H82.7756V271.358H87.3892V274.438H87.5938C87.9801 273.422 88.6278 272.619 89.5369 272.028C90.446 271.43 91.5483 271.131 92.8438 271.131C94.0559 271.131 95.1127 271.396 96.0142 271.926C96.9157 272.456 97.6165 273.214 98.1165 274.199C98.6165 275.176 98.8665 276.343 98.8665 277.699V288.812H94.0256V278.562C94.0331 277.494 93.7604 276.661 93.2074 276.062C92.6544 275.456 91.893 275.153 90.9233 275.153C90.2718 275.153 89.696 275.294 89.196 275.574C88.7036 275.854 88.3172 276.263 88.0369 276.801C87.7642 277.331 87.6241 277.972 87.6165 278.722ZM110.545 295.722C108.977 295.722 107.633 295.506 106.511 295.074C105.398 294.65 104.511 294.07 103.852 293.335C103.193 292.6 102.765 291.775 102.568 290.858L107.045 290.256C107.182 290.604 107.398 290.93 107.693 291.233C107.989 291.536 108.379 291.778 108.864 291.96C109.356 292.15 109.955 292.244 110.659 292.244C111.712 292.244 112.58 291.987 113.261 291.472C113.951 290.964 114.295 290.112 114.295 288.915V285.722H114.091C113.879 286.206 113.561 286.665 113.136 287.097C112.712 287.528 112.167 287.881 111.5 288.153C110.833 288.426 110.038 288.562 109.114 288.562C107.803 288.562 106.61 288.259 105.534 287.653C104.466 287.04 103.614 286.104 102.977 284.847C102.348 283.581 102.034 281.983 102.034 280.051C102.034 278.074 102.356 276.422 103 275.097C103.644 273.771 104.5 272.778 105.568 272.119C106.644 271.46 107.822 271.131 109.102 271.131C110.08 271.131 110.898 271.297 111.557 271.631C112.216 271.956 112.746 272.366 113.148 272.858C113.557 273.343 113.871 273.82 114.091 274.29H114.273V271.358H119.08V288.983C119.08 290.468 118.716 291.71 117.989 292.71C117.261 293.71 116.254 294.46 114.966 294.96C113.686 295.468 112.212 295.722 110.545 295.722ZM110.648 284.926C111.428 284.926 112.087 284.733 112.625 284.347C113.17 283.953 113.587 283.392 113.875 282.665C114.17 281.93 114.318 281.051 114.318 280.028C114.318 279.006 114.174 278.119 113.886 277.369C113.598 276.612 113.182 276.025 112.636 275.608C112.091 275.191 111.428 274.983 110.648 274.983C109.852 274.983 109.182 275.199 108.636 275.631C108.091 276.055 107.678 276.646 107.398 277.403C107.117 278.161 106.977 279.036 106.977 280.028C106.977 281.036 107.117 281.907 107.398 282.642C107.686 283.369 108.098 283.934 108.636 284.335C109.182 284.729 109.852 284.926 110.648 284.926ZM127.773 265.54V288.812H122.932V265.54H127.773ZM139.605 289.153C137.81 289.153 136.264 288.79 134.969 288.062C133.681 287.328 132.688 286.29 131.991 284.949C131.295 283.6 130.946 282.006 130.946 280.165C130.946 278.369 131.295 276.794 131.991 275.438C132.688 274.081 133.67 273.025 134.935 272.267C136.207 271.509 137.7 271.131 139.412 271.131C140.563 271.131 141.635 271.316 142.628 271.688C143.628 272.051 144.499 272.6 145.241 273.335C145.991 274.07 146.575 274.994 146.991 276.108C147.408 277.214 147.616 278.509 147.616 279.994V281.324H132.878V278.324H143.06C143.06 277.627 142.908 277.009 142.605 276.472C142.302 275.934 141.882 275.513 141.344 275.21C140.813 274.9 140.196 274.744 139.491 274.744C138.757 274.744 138.105 274.915 137.537 275.256C136.976 275.589 136.537 276.04 136.219 276.608C135.901 277.169 135.738 277.794 135.73 278.483V281.335C135.73 282.199 135.889 282.945 136.207 283.574C136.533 284.203 136.991 284.688 137.582 285.028C138.173 285.369 138.874 285.54 139.685 285.54C140.223 285.54 140.715 285.464 141.162 285.312C141.609 285.161 141.991 284.934 142.31 284.631C142.628 284.328 142.87 283.956 143.037 283.517L147.514 283.812C147.287 284.888 146.821 285.828 146.116 286.631C145.42 287.426 144.518 288.047 143.412 288.494C142.313 288.934 141.045 289.153 139.605 289.153Z" fill="white"/>
<path d="M299.007 246.812V314.719H252.769C246.809 314.719 241.16 312.061 237.36 307.47L200.715 263.188C195.319 256.669 199.957 246.812 208.419 246.812H299.007ZM366.78 246.812C375.217 246.813 379.863 256.617 374.52 263.146L338.314 307.386C334.516 312.027 328.835 314.719 322.837 314.719H299.01V246.812H366.78Z" fill="#D564E9"/>
<path d="M264.891 288.812H256.641V265.54H264.959C267.3 265.54 269.316 266.006 271.005 266.938C272.694 267.862 273.994 269.191 274.903 270.926C275.819 272.661 276.278 274.737 276.278 277.153C276.278 279.578 275.819 281.661 274.903 283.403C273.994 285.146 272.687 286.483 270.982 287.415C269.285 288.347 267.255 288.812 264.891 288.812ZM261.562 284.597H264.687C266.141 284.597 267.365 284.339 268.357 283.824C269.357 283.301 270.107 282.494 270.607 281.403C271.115 280.305 271.369 278.888 271.369 277.153C271.369 275.434 271.115 274.028 270.607 272.938C270.107 271.847 269.361 271.044 268.369 270.528C267.376 270.013 266.153 269.756 264.698 269.756H261.562V284.597ZM288.173 288.812H279.923V265.54H288.241C290.582 265.54 292.597 266.006 294.286 266.938C295.976 267.862 297.275 269.191 298.184 270.926C299.101 272.661 299.559 274.737 299.559 277.153C299.559 279.578 299.101 281.661 298.184 283.403C297.275 285.146 295.968 286.483 294.263 287.415C292.566 288.347 290.536 288.812 288.173 288.812ZM284.843 284.597H287.968C289.423 284.597 290.646 284.339 291.638 283.824C292.638 283.301 293.388 282.494 293.888 281.403C294.396 280.305 294.65 278.888 294.65 277.153C294.65 275.434 294.396 274.028 293.888 272.938C293.388 271.847 292.642 271.044 291.65 270.528C290.657 270.013 289.434 269.756 287.979 269.756H284.843V284.597ZM303.204 288.812V265.54H312.386C314.143 265.54 315.643 265.854 316.886 266.483C318.136 267.104 319.086 267.987 319.738 269.131C320.397 270.267 320.726 271.604 320.726 273.142C320.726 274.687 320.393 276.017 319.726 277.131C319.06 278.237 318.094 279.085 316.829 279.676C315.571 280.267 314.048 280.562 312.261 280.562H306.113V276.608H311.465C312.405 276.608 313.185 276.479 313.806 276.222C314.427 275.964 314.889 275.578 315.192 275.062C315.503 274.547 315.658 273.907 315.658 273.142C315.658 272.369 315.503 271.718 315.192 271.188C314.889 270.657 314.423 270.256 313.795 269.983C313.173 269.703 312.389 269.562 311.442 269.562H308.124V288.812H303.204ZM315.772 278.222L321.556 288.812H316.124L310.465 278.222H315.772Z" fill="white"/>
<path d="M487.407 246.812V314.719H441.168C435.209 314.719 429.56 312.061 425.76 307.47L389.115 263.188C383.719 256.669 388.356 246.812 396.819 246.812H487.407ZM555.18 246.812C563.617 246.813 568.263 256.617 562.919 263.146L526.714 307.386C522.916 312.027 517.234 314.719 511.237 314.719H487.41V246.812H555.18Z" fill="#D564E9"/>
<path d="M429.885 288.812V265.54H445.294V269.597H434.805V275.142H444.271V279.199H434.805V288.812H429.885ZM453.354 265.54V288.812H448.513V265.54H453.354ZM468.425 281.381V271.358H473.265V288.812H468.618V285.642H468.436C468.042 286.665 467.387 287.487 466.47 288.108C465.561 288.729 464.451 289.04 463.14 289.04C461.974 289.04 460.947 288.775 460.061 288.244C459.175 287.714 458.481 286.96 457.981 285.983C457.489 285.006 457.239 283.835 457.231 282.472V271.358H462.072V281.608C462.08 282.638 462.356 283.453 462.902 284.051C463.447 284.65 464.178 284.949 465.095 284.949C465.678 284.949 466.224 284.816 466.731 284.551C467.239 284.278 467.648 283.877 467.959 283.347C468.277 282.816 468.432 282.161 468.425 281.381ZM485.024 289.153C483.259 289.153 481.732 288.778 480.444 288.028C479.164 287.271 478.176 286.218 477.479 284.869C476.782 283.513 476.433 281.941 476.433 280.153C476.433 278.35 476.782 276.775 477.479 275.426C478.176 274.07 479.164 273.017 480.444 272.267C481.732 271.509 483.259 271.131 485.024 271.131C486.789 271.131 488.312 271.509 489.592 272.267C490.88 273.017 491.872 274.07 492.569 275.426C493.266 276.775 493.615 278.35 493.615 280.153C493.615 281.941 493.266 283.513 492.569 284.869C491.872 286.218 490.88 287.271 489.592 288.028C488.312 288.778 486.789 289.153 485.024 289.153ZM485.047 285.403C485.85 285.403 486.52 285.176 487.058 284.722C487.596 284.259 488.001 283.631 488.274 282.835C488.554 282.04 488.694 281.134 488.694 280.119C488.694 279.104 488.554 278.199 488.274 277.403C488.001 276.608 487.596 275.979 487.058 275.517C486.52 275.055 485.85 274.824 485.047 274.824C484.236 274.824 483.554 275.055 483.001 275.517C482.456 275.979 482.043 276.608 481.763 277.403C481.49 278.199 481.354 279.104 481.354 280.119C481.354 281.134 481.49 282.04 481.763 282.835C482.043 283.631 482.456 284.259 483.001 284.722C483.554 285.176 484.236 285.403 485.047 285.403ZM496.763 288.812V271.358H501.456V274.403H501.638C501.956 273.32 502.49 272.502 503.24 271.949C503.99 271.388 504.854 271.108 505.831 271.108C506.073 271.108 506.335 271.123 506.615 271.153C506.895 271.184 507.141 271.225 507.354 271.278V275.574C507.126 275.506 506.812 275.445 506.41 275.392C506.009 275.339 505.641 275.312 505.308 275.312C504.596 275.312 503.96 275.468 503.399 275.778C502.846 276.081 502.407 276.506 502.081 277.051C501.763 277.597 501.604 278.225 501.604 278.938V288.812H496.763ZM516.93 289.153C515.165 289.153 513.639 288.778 512.351 288.028C511.07 287.271 510.082 286.218 509.385 284.869C508.688 283.513 508.339 281.941 508.339 280.153C508.339 278.35 508.688 276.775 509.385 275.426C510.082 274.07 511.07 273.017 512.351 272.267C513.639 271.509 515.165 271.131 516.93 271.131C518.695 271.131 520.218 271.509 521.498 272.267C522.786 273.017 523.779 274.07 524.476 275.426C525.173 276.775 525.521 278.35 525.521 280.153C525.521 281.941 525.173 283.513 524.476 284.869C523.779 286.218 522.786 287.271 521.498 288.028C520.218 288.778 518.695 289.153 516.93 289.153ZM516.953 285.403C517.756 285.403 518.426 285.176 518.964 284.722C519.502 284.259 519.908 283.631 520.18 282.835C520.461 282.04 520.601 281.134 520.601 280.119C520.601 279.104 520.461 278.199 520.18 277.403C519.908 276.608 519.502 275.979 518.964 275.517C518.426 275.055 517.756 274.824 516.953 274.824C516.142 274.824 515.461 275.055 514.908 275.517C514.362 275.979 513.949 276.608 513.669 277.403C513.396 278.199 513.26 279.104 513.26 280.119C513.26 281.134 513.396 282.04 513.669 282.835C513.949 283.631 514.362 284.259 514.908 284.722C515.461 285.176 516.142 285.403 516.953 285.403Z" fill="white"/>
</svg>
