<svg width="179" height="68" viewBox="0 0 179 68" fill="none" xmlns="http://www.w3.org/2000/svg">
<path d="M100.607 0V67.9062H54.3688C48.4093 67.9062 42.7601 65.2484 38.9606 60.6572L2.31504 16.376C-3.08028 9.85653 1.55672 0 10.0191 0H100.607ZM168.381 0C176.817 2.36433e-05 181.463 9.80489 176.12 16.334L139.915 60.5732C136.116 65.2146 130.435 67.9062 124.437 67.9062H100.61V0H168.381Z" fill="#3DB06B"/>
<path d="M55.804 25.4205C55.7131 24.5038 55.3229 23.7917 54.6335 23.2841C53.9441 22.7765 53.0085 22.5227 51.8267 22.5227C51.0237 22.5227 50.3456 22.6364 49.7926 22.8636C49.2396 23.0833 48.8153 23.3902 48.5199 23.7841C48.232 24.178 48.0881 24.625 48.0881 25.125C48.0729 25.5417 48.16 25.9053 48.3494 26.2159C48.5464 26.5265 48.8153 26.7955 49.1562 27.0227C49.4972 27.2424 49.8911 27.4356 50.3381 27.6023C50.785 27.7614 51.2623 27.8977 51.7699 28.0114L53.8608 28.5114C54.8759 28.7386 55.8078 29.0417 56.6562 29.4205C57.5047 29.7992 58.2396 30.2652 58.8608 30.8182C59.482 31.3712 59.9631 32.0227 60.304 32.7727C60.6525 33.5227 60.8305 34.3826 60.8381 35.3523C60.8305 36.7765 60.4669 38.0114 59.7472 39.0568C59.035 40.0947 58.0047 40.9015 56.6562 41.4773C55.3153 42.0455 53.6979 42.3295 51.804 42.3295C49.9252 42.3295 48.2888 42.0417 46.8949 41.4659C45.5085 40.8902 44.4252 40.0379 43.6449 38.9091C42.8722 37.7727 42.4669 36.3674 42.429 34.6932H47.1903C47.2434 35.4735 47.4669 36.125 47.8608 36.6477C48.2623 37.1629 48.7964 37.553 49.4631 37.8182C50.1373 38.0758 50.8987 38.2045 51.7472 38.2045C52.5805 38.2045 53.304 38.0833 53.9176 37.8409C54.5388 37.5985 55.0199 37.2614 55.3608 36.8295C55.7017 36.3977 55.8722 35.9015 55.8722 35.3409C55.8722 34.8182 55.7169 34.3788 55.4062 34.0227C55.1032 33.6667 54.6563 33.3636 54.0653 33.1136C53.482 32.8636 52.7661 32.6364 51.9176 32.4318L49.3835 31.7955C47.4214 31.3182 45.8722 30.572 44.7358 29.5568C43.5994 28.5417 43.035 27.1742 43.0426 25.4545C43.035 24.0455 43.41 22.8144 44.1676 21.7614C44.9328 20.7083 45.982 19.8864 47.3153 19.2955C48.6487 18.7045 50.1638 18.4091 51.8608 18.4091C53.5881 18.4091 55.0956 18.7045 56.3835 19.2955C57.679 19.8864 58.6866 20.7083 59.4062 21.7614C60.1259 22.8144 60.4972 24.0341 60.5199 25.4205H55.804ZM64.0568 42V24.5455H68.8977V42H64.0568ZM66.4886 22.2955C65.7689 22.2955 65.1515 22.0568 64.6364 21.5795C64.1288 21.0947 63.875 20.5152 63.875 19.8409C63.875 19.1742 64.1288 18.6023 64.6364 18.125C65.1515 17.6402 65.7689 17.3977 66.4886 17.3977C67.2083 17.3977 67.822 17.6402 68.3295 18.125C68.8447 18.6023 69.1023 19.1742 69.1023 19.8409C69.1023 20.5152 68.8447 21.0947 68.3295 21.5795C67.822 22.0568 67.2083 22.2955 66.4886 22.2955ZM77.6165 31.9091V42H72.7756V24.5455H77.3892V27.625H77.5938C77.9801 26.6098 78.6278 25.8068 79.5369 25.2159C80.446 24.6174 81.5483 24.3182 82.8438 24.3182C84.0559 24.3182 85.1127 24.5833 86.0142 25.1136C86.9157 25.6439 87.6165 26.4015 88.1165 27.3864C88.6165 28.3636 88.8665 29.5303 88.8665 30.8864V42H84.0256V31.75C84.0331 30.6818 83.7604 29.8485 83.2074 29.25C82.6544 28.6439 81.893 28.3409 80.9233 28.3409C80.2718 28.3409 79.696 28.4811 79.196 28.7614C78.7036 29.0417 78.3172 29.4508 78.0369 29.9886C77.7642 30.5189 77.6241 31.1591 77.6165 31.9091ZM100.545 48.9091C98.9773 48.9091 97.6326 48.6932 96.5114 48.2614C95.3977 47.8371 94.5114 47.2576 93.8523 46.5227C93.1932 45.7879 92.7652 44.9621 92.5682 44.0455L97.0455 43.4432C97.1818 43.7917 97.3977 44.1174 97.6932 44.4205C97.9886 44.7235 98.3788 44.9659 98.8636 45.1477C99.3561 45.3371 99.9545 45.4318 100.659 45.4318C101.712 45.4318 102.58 45.1742 103.261 44.6591C103.951 44.1515 104.295 43.2992 104.295 42.1023V38.9091H104.091C103.879 39.3939 103.561 39.8523 103.136 40.2841C102.712 40.7159 102.167 41.0682 101.5 41.3409C100.833 41.6136 100.038 41.75 99.1136 41.75C97.803 41.75 96.6098 41.447 95.5341 40.8409C94.4659 40.2273 93.6136 39.2917 92.9773 38.0341C92.3485 36.7689 92.0341 35.1705 92.0341 33.2386C92.0341 31.2614 92.3561 29.6098 93 28.2841C93.6439 26.9583 94.5 25.9659 95.5682 25.3068C96.6439 24.6477 97.822 24.3182 99.1023 24.3182C100.08 24.3182 100.898 24.4848 101.557 24.8182C102.216 25.1439 102.746 25.553 103.148 26.0455C103.557 26.5303 103.871 27.0076 104.091 27.4773H104.273V24.5455H109.08V42.1705C109.08 43.6553 108.716 44.8977 107.989 45.8977C107.261 46.8977 106.254 47.6477 104.966 48.1477C103.686 48.6553 102.212 48.9091 100.545 48.9091ZM100.648 38.1136C101.428 38.1136 102.087 37.9205 102.625 37.5341C103.17 37.1402 103.587 36.5795 103.875 35.8523C104.17 35.1174 104.318 34.2386 104.318 33.2159C104.318 32.1932 104.174 31.3068 103.886 30.5568C103.598 29.7992 103.182 29.2121 102.636 28.7955C102.091 28.3788 101.428 28.1705 100.648 28.1705C99.8523 28.1705 99.1818 28.3864 98.6364 28.8182C98.0909 29.2424 97.678 29.8333 97.3977 30.5909C97.1174 31.3485 96.9773 32.2235 96.9773 33.2159C96.9773 34.2235 97.1174 35.0947 97.3977 35.8295C97.6856 36.5568 98.0985 37.1212 98.6364 37.5227C99.1818 37.9167 99.8523 38.1136 100.648 38.1136ZM117.773 18.7273V42H112.932V18.7273H117.773ZM129.605 42.3409C127.81 42.3409 126.264 41.9773 124.969 41.25C123.681 40.5152 122.688 39.4773 121.991 38.1364C121.295 36.7879 120.946 35.1932 120.946 33.3523C120.946 31.5568 121.295 29.9811 121.991 28.625C122.688 27.2689 123.67 26.2121 124.935 25.4545C126.207 24.697 127.7 24.3182 129.412 24.3182C130.563 24.3182 131.635 24.5038 132.628 24.875C133.628 25.2386 134.499 25.7879 135.241 26.5227C135.991 27.2576 136.575 28.1818 136.991 29.2955C137.408 30.4015 137.616 31.697 137.616 33.1818V34.5114H122.878V31.5114H133.06C133.06 30.8144 132.908 30.197 132.605 29.6591C132.302 29.1212 131.882 28.7008 131.344 28.3977C130.813 28.0871 130.196 27.9318 129.491 27.9318C128.757 27.9318 128.105 28.1023 127.537 28.4432C126.976 28.7765 126.537 29.2273 126.219 29.7955C125.901 30.3561 125.738 30.9811 125.73 31.6705V34.5227C125.73 35.3864 125.889 36.1326 126.207 36.7614C126.533 37.3902 126.991 37.875 127.582 38.2159C128.173 38.5568 128.874 38.7273 129.685 38.7273C130.223 38.7273 130.715 38.6515 131.162 38.5C131.609 38.3485 131.991 38.1212 132.31 37.8182C132.628 37.5152 132.87 37.1439 133.037 36.7045L137.514 37C137.287 38.0758 136.821 39.0152 136.116 39.8182C135.42 40.6136 134.518 41.2348 133.412 41.6818C132.313 42.1212 131.045 42.3409 129.605 42.3409Z" fill="white"/>
</svg>
