<?xml version="1.0" encoding="UTF-8"?><svg id="Layer_2" xmlns="http://www.w3.org/2000/svg" viewBox="0 0 464.07 101.25"><defs><style>.cls-1{fill:#fff;}</style></defs><g id="Layer_1-2"><path class="cls-1" d="M45.38,8.95V1.36c0-.6-.54-1.08-1.13-1.01C20.71,3.05,2.69,21.42,0,44.6c-.07.6.41,1.13,1.01,1.13h7.86c.49,0,.89-.36.95-.85C12.26,26.68,26.12,12.39,44.54,9.9c.49-.07.85-.46.85-.95"/><path class="cls-1" d="M55.17,92.3v7.58c0,.6.54,1.08,1.13,1.01,23.54-2.7,41.56-21.06,44.24-44.25.07-.6-.41-1.13-1.01-1.13h-7.86c-.49,0-.89.36-.95.85-2.43,18.2-16.29,32.5-34.7,34.98-.48.06-.85.46-.85.95"/><path class="cls-1" d="M91.68,45.73h7.86c.6,0,1.08-.54,1.01-1.13C97.87,21.42,79.85,3.05,56.31.35c-.6-.07-1.13.42-1.13,1.01v7.58c0,.49.36.89.85.95,18.42,2.48,32.27,16.78,34.7,34.98.06.48.46.85.95.85"/><path class="cls-1" d="M8.88,55.52H1.02c-.6,0-1.08.54-1.01,1.13,2.69,23.18,20.7,41.55,44.24,44.25.6.07,1.13-.42,1.13-1.01v-7.59c0-.49-.36-.89-.85-.95-18.41-2.48-32.27-16.78-34.7-34.98-.06-.48-.47-.85-.95-.85"/><path class="cls-1" d="M305.07,8.95V1.36c0-.6-.54-1.08-1.13-1.01-23.54,2.7-41.56,21.07-44.24,44.25-.07.6.42,1.13,1.02,1.13h7.86c.49,0,.89-.36.95-.85,2.43-18.2,16.29-32.5,34.7-34.98.48-.07.85-.46.85-.95"/><path class="cls-1" d="M351.36,45.73h7.86c.6,0,1.08-.54,1.01-1.13-2.69-23.18-20.7-41.55-44.24-44.25-.6-.07-1.13.42-1.13,1.01v7.58c0,.49.36.89.85.95,18.41,2.48,32.27,16.78,34.7,34.98.07.48.46.85.95.85"/><path class="cls-1" d="M268.56,55.52h-7.86c-.6,0-1.08.54-1.02,1.13,2.69,23.18,20.7,41.55,44.24,44.25.6.07,1.13-.42,1.13-1.01v-7.59c0-.49-.36-.89-.85-.95-18.42-2.48-32.27-16.78-34.7-34.98-.06-.48-.46-.85-.95-.85"/><path class="cls-1" d="M314.86,92.3v7.58c0,.6.54,1.08,1.13,1.01,23.54-2.7,41.56-21.06,44.24-44.25.07-.6-.41-1.13-1.01-1.13h-7.86c-.49,0-.89.36-.95.85-2.43,18.2-16.29,32.5-34.7,34.98-.48.06-.85.46-.85.95"/><path class="cls-1" d="M430.37,44.75c-13.29-4.33-21.68-7.69-21.68-18.32s8.53-16.92,20.28-16.92c12.38,0,19.85,6.87,23.63,15.24.24.53.85.74,1.36.46l6.5-3.64c.46-.26.65-.83.43-1.31-5.2-11.22-16.24-20.26-31.92-20.26s-30.07,9.65-30.07,26.85c0,18.04,15.38,22.24,31.33,27.55,14.4,4.76,24.05,8.39,24.05,19.72,0,10.49-8.25,17.62-23.08,17.62s-23.99-7.06-27.74-18.14c-.2-.59-.87-.87-1.41-.55l-6.62,3.86c-.42.25-.61.78-.45,1.23,5.24,14.35,18.36,23.11,36.08,23.11,19.58,0,33-10.63,33-27.41,0-18.18-15.94-23.21-33.7-29.09"/><path class="cls-1" d="M231.38,7.89c.39-.39.39-1.01,0-1.4l-5.66-5.66c-.39-.39-1.02-.39-1.4,0l-36.08,36.09c-.39.39-.39,1.01,0,1.4l5.66,5.66c.39.39,1.01.39,1.4,0L231.38,7.89Z"/><path class="cls-1" d="M229.32,93.25l-41.65-41.65h0s-7.06-7.06-7.06-7.06h0S138.96,2.89,138.96,2.89c-.39-.39-1.02-.39-1.4,0l-5.66,5.66c-.39.39-.39,1.01,0,1.4l41.65,41.65-41.65,41.65c-.39.39-.39,1.02,0,1.4l5.66,5.66c.39.39,1.02.39,1.4,0l41.65-41.65,41.65,41.65c.39.39,1.01.39,1.4,0l5.66-5.66c.39-.39.39-1.02,0-1.4"/></g></svg>