<svg width="318" height="165" viewBox="0 0 318 165" fill="none" xmlns="http://www.w3.org/2000/svg">
<path d="M0 0H150V45H15C6.71573 45 0 38.2843 0 30V0Z" fill="black" fill-opacity="0.8"/>
<path d="M62.9915 36H54.7415V12.7273H63.0596C65.4005 12.7273 67.4157 13.1932 69.1051 14.125C70.7945 15.0492 72.0937 16.3788 73.0028 18.1136C73.9195 19.8485 74.3778 21.9242 74.3778 24.3409C74.3778 26.7651 73.9195 28.8485 73.0028 30.5909C72.0937 32.3333 70.7869 33.6704 69.0824 34.6023C67.3854 35.5341 65.3551 36 62.9915 36ZM59.6619 31.7841H62.7869C64.2415 31.7841 65.4649 31.5265 66.4574 31.0114C67.4574 30.4886 68.2074 29.6818 68.7074 28.5909C69.2149 27.4924 69.4687 26.0757 69.4687 24.3409C69.4687 22.6212 69.2149 21.2159 68.7074 20.125C68.2074 19.0341 67.4612 18.2311 66.4687 17.7159C65.4763 17.2007 64.2528 16.9432 62.7983 16.9432H59.6619V31.7841Z" fill="white"/>
<path d="M46.3977 19.4205C46.3068 18.5038 45.9166 17.7917 45.2272 17.2841C44.5379 16.7765 43.6023 16.5227 42.4204 16.5227C41.6174 16.5227 40.9394 16.6364 40.3863 16.8636C39.8333 17.0833 39.4091 17.3901 39.1136 17.7841C38.8257 18.178 38.6818 18.625 38.6818 19.125C38.6666 19.5417 38.7538 19.9053 38.9432 20.2159C39.1401 20.5265 39.4091 20.7955 39.75 21.0227C40.0909 21.2424 40.4848 21.4356 40.9318 21.6023C41.3788 21.7614 41.856 21.8977 42.3636 22.0114L44.4545 22.5114C45.4697 22.7386 46.4015 23.0417 47.25 23.4205C48.0985 23.7992 48.8333 24.2651 49.4545 24.8182C50.0757 25.3712 50.5568 26.0227 50.8977 26.7727C51.2462 27.5227 51.4242 28.3826 51.4318 29.3523C51.4242 30.7765 51.0606 32.0114 50.3409 33.0568C49.6288 34.0947 48.5985 34.9015 47.25 35.4773C45.9091 36.0455 44.2916 36.3295 42.3977 36.3295C40.5189 36.3295 38.8826 36.0417 37.4886 35.4659C36.1022 34.8902 35.0189 34.0379 34.2386 32.9091C33.4659 31.7727 33.0606 30.3674 33.0227 28.6932H37.7841C37.8371 29.4735 38.0606 30.125 38.4545 30.6477C38.856 31.1629 39.3901 31.553 40.0568 31.8182C40.731 32.0758 41.4924 32.2045 42.3409 32.2045C43.1742 32.2045 43.8977 32.0833 44.5113 31.8409C45.1326 31.5985 45.6136 31.2614 45.9545 30.8295C46.2954 30.3977 46.4659 29.9015 46.4659 29.3409C46.4659 28.8182 46.3106 28.3788 46 28.0227C45.6969 27.6667 45.25 27.3636 44.6591 27.1136C44.0757 26.8636 43.3598 26.6364 42.5113 26.4318L39.9772 25.7955C38.0151 25.3182 36.4659 24.572 35.3295 23.5568C34.1932 22.5417 33.6288 21.1742 33.6363 19.4545C33.6288 18.0455 34.0038 16.8144 34.7613 15.7614C35.5265 14.7083 36.5757 13.8864 37.9091 13.2955C39.2424 12.7045 40.7576 12.4091 42.4545 12.4091C44.1818 12.4091 45.6894 12.7045 46.9772 13.2955C48.2727 13.8864 49.2803 14.7083 50 15.7614C50.7197 16.8144 51.0909 18.0341 51.1136 19.4205H46.3977Z" fill="white"/>
<path d="M25.429 19.4205C25.338 18.5038 24.9479 17.7917 24.2585 17.2841C23.5691 16.7765 22.6335 16.5227 21.4517 16.5227C20.6487 16.5227 19.9706 16.6364 19.4176 16.8636C18.8646 17.0833 18.4403 17.3901 18.1449 17.7841C17.857 18.178 17.713 18.625 17.713 19.125C17.6979 19.5417 17.785 19.9053 17.9744 20.2159C18.1714 20.5265 18.4403 20.7955 18.7812 21.0227C19.1221 21.2424 19.5161 21.4356 19.963 21.6023C20.41 21.7614 20.8873 21.8977 21.3949 22.0114L23.4858 22.5114C24.5009 22.7386 25.4327 23.0417 26.2812 23.4205C27.1297 23.7992 27.8646 24.2651 28.4858 24.8182C29.107 25.3712 29.588 26.0227 29.929 26.7727C30.2774 27.5227 30.4555 28.3826 30.463 29.3523C30.4555 30.7765 30.0918 32.0114 29.3721 33.0568C28.66 34.0947 27.6297 34.9015 26.2812 35.4773C24.9403 36.0455 23.3229 36.3295 21.429 36.3295C19.5502 36.3295 17.9138 36.0417 16.5199 35.4659C15.1335 34.8902 14.0502 34.0379 13.2699 32.9091C12.4971 31.7727 12.0918 30.3674 12.054 28.6932H16.8153C16.8683 29.4735 17.0918 30.125 17.4858 30.6477C17.8873 31.1629 18.4214 31.553 19.088 31.8182C19.7623 32.0758 20.5237 32.2045 21.3721 32.2045C22.2055 32.2045 22.929 32.0833 23.5426 31.8409C24.1638 31.5985 24.6449 31.2614 24.9858 30.8295C25.3267 30.3977 25.4971 29.9015 25.4971 29.3409C25.4971 28.8182 25.3418 28.3788 25.0312 28.0227C24.7282 27.6667 24.2812 27.3636 23.6903 27.1136C23.107 26.8636 22.3911 26.6364 21.5426 26.4318L19.0085 25.7955C17.0464 25.3182 15.4971 24.572 14.3608 23.5568C13.2244 22.5417 12.66 21.1742 12.6676 19.4545C12.66 18.0455 13.035 16.8144 13.7926 15.7614C14.5577 14.7083 15.607 13.8864 16.9403 13.2955C18.2737 12.7045 19.7888 12.4091 21.4858 12.4091C23.213 12.4091 24.7206 12.7045 26.0085 13.2955C27.304 13.8864 28.3115 14.7083 29.0312 15.7614C29.7509 16.8144 30.1221 18.0341 30.1449 19.4205H25.429Z" fill="white"/>
<path d="M88 4L89 4L89 42L88 42L88 4Z" fill="white"/>
<path d="M122.121 36V32.4545L130.405 24.7841C131.109 24.1023 131.7 23.4886 132.178 22.9432C132.662 22.3977 133.03 21.8636 133.28 21.3409C133.53 20.8106 133.655 20.2386 133.655 19.625C133.655 18.9432 133.499 18.3561 133.189 17.8636C132.878 17.3636 132.454 16.9811 131.916 16.7159C131.378 16.4432 130.768 16.3068 130.087 16.3068C129.374 16.3068 128.753 16.4508 128.223 16.7386C127.693 17.0265 127.284 17.4394 126.996 17.9773C126.708 18.5151 126.564 19.1553 126.564 19.8977H121.893C121.893 18.375 122.238 17.053 122.928 15.9318C123.617 14.8106 124.583 13.9432 125.825 13.3295C127.068 12.7159 128.499 12.4091 130.121 12.4091C131.787 12.4091 133.238 12.7045 134.473 13.2955C135.715 13.8788 136.681 14.6894 137.371 15.7273C138.06 16.7651 138.405 17.9545 138.405 19.2955C138.405 20.1742 138.231 21.0417 137.882 21.8977C137.541 22.7538 136.931 23.7045 136.053 24.75C135.174 25.7879 133.935 27.0341 132.337 28.4886L128.939 31.8182V31.9773H138.712V36H122.121Z" fill="white"/>
<path d="M109.996 36.3182C108.39 36.3182 106.958 36.0227 105.7 35.4318C104.45 34.8409 103.458 34.0265 102.723 32.9886C101.988 31.9508 101.606 30.7614 101.575 29.4204H106.348C106.401 30.322 106.78 31.053 107.484 31.6136C108.189 32.1742 109.026 32.4545 109.996 32.4545C110.768 32.4545 111.45 32.2841 112.041 31.9432C112.64 31.5947 113.106 31.1136 113.439 30.5C113.78 29.8788 113.95 29.1667 113.95 28.3636C113.95 27.5454 113.776 26.8257 113.428 26.2045C113.087 25.5833 112.613 25.0985 112.007 24.75C111.401 24.4015 110.708 24.2235 109.928 24.2159C109.246 24.2159 108.583 24.3561 107.939 24.6364C107.303 24.9167 106.806 25.2992 106.45 25.7841L102.075 25L103.178 12.7273H117.405V16.75H107.234L106.632 22.5795H106.769C107.178 22.0038 107.795 21.5265 108.621 21.1477C109.447 20.7689 110.371 20.5795 111.394 20.5795C112.795 20.5795 114.045 20.9091 115.144 21.5682C116.242 22.2273 117.109 23.1326 117.746 24.2841C118.382 25.428 118.697 26.7462 118.689 28.2386C118.697 29.8068 118.333 31.2007 117.598 32.4204C116.871 33.6326 115.852 34.5871 114.541 35.2841C113.238 35.9735 111.723 36.3182 109.996 36.3182Z" fill="white"/>
<path d="M0 60H150V105H15C6.71573 105 0 98.2843 0 90V60Z" fill="#3DB06B"/>
<path d="M62.9915 96H54.7415V72.7273H63.0596C65.4005 72.7273 67.4157 73.1932 69.1051 74.125C70.7945 75.0492 72.0937 76.3788 73.0028 78.1136C73.9195 79.8485 74.3778 81.9242 74.3778 84.3409C74.3778 86.7651 73.9195 88.8485 73.0028 90.5909C72.0937 92.3333 70.7869 93.6704 69.0824 94.6023C67.3854 95.5341 65.3551 96 62.9915 96ZM59.6619 91.7841H62.7869C64.2415 91.7841 65.4649 91.5265 66.4574 91.0114C67.4574 90.4886 68.2074 89.6818 68.7074 88.5909C69.2149 87.4924 69.4687 86.0757 69.4687 84.3409C69.4687 82.6212 69.2149 81.2159 68.7074 80.125C68.2074 79.0341 67.4612 78.2311 66.4687 77.7159C65.4763 77.2007 64.2528 76.9432 62.7983 76.9432H59.6619V91.7841Z" fill="white"/>
<path d="M46.3977 79.4205C46.3068 78.5038 45.9166 77.7917 45.2272 77.2841C44.5379 76.7765 43.6023 76.5227 42.4204 76.5227C41.6174 76.5227 40.9394 76.6364 40.3863 76.8636C39.8333 77.0833 39.4091 77.3901 39.1136 77.7841C38.8257 78.178 38.6818 78.625 38.6818 79.125C38.6666 79.5417 38.7538 79.9053 38.9432 80.2159C39.1401 80.5265 39.4091 80.7955 39.75 81.0227C40.0909 81.2424 40.4848 81.4356 40.9318 81.6023C41.3788 81.7614 41.856 81.8977 42.3636 82.0114L44.4545 82.5114C45.4697 82.7386 46.4015 83.0417 47.25 83.4205C48.0985 83.7992 48.8333 84.2651 49.4545 84.8182C50.0757 85.3712 50.5568 86.0227 50.8977 86.7727C51.2462 87.5227 51.4242 88.3826 51.4318 89.3523C51.4242 90.7765 51.0606 92.0114 50.3409 93.0568C49.6288 94.0947 48.5985 94.9015 47.25 95.4773C45.9091 96.0455 44.2916 96.3295 42.3977 96.3295C40.5189 96.3295 38.8826 96.0417 37.4886 95.4659C36.1022 94.8902 35.0189 94.0379 34.2386 92.9091C33.4659 91.7727 33.0606 90.3674 33.0227 88.6932H37.7841C37.8371 89.4735 38.0606 90.125 38.4545 90.6477C38.856 91.1629 39.3901 91.553 40.0568 91.8182C40.731 92.0758 41.4924 92.2045 42.3409 92.2045C43.1742 92.2045 43.8977 92.0833 44.5113 91.8409C45.1326 91.5985 45.6136 91.2614 45.9545 90.8295C46.2954 90.3977 46.4659 89.9015 46.4659 89.3409C46.4659 88.8182 46.3106 88.3788 46 88.0227C45.6969 87.6667 45.25 87.3636 44.6591 87.1136C44.0757 86.8636 43.3598 86.6364 42.5113 86.4318L39.9772 85.7955C38.0151 85.3182 36.4659 84.572 35.3295 83.5568C34.1932 82.5417 33.6288 81.1742 33.6363 79.4545C33.6288 78.0455 34.0038 76.8144 34.7613 75.7614C35.5265 74.7083 36.5757 73.8864 37.9091 73.2955C39.2424 72.7045 40.7576 72.4091 42.4545 72.4091C44.1818 72.4091 45.6894 72.7045 46.9772 73.2955C48.2727 73.8864 49.2803 74.7083 50 75.7614C50.7197 76.8144 51.0909 78.0341 51.1136 79.4205H46.3977Z" fill="white"/>
<path d="M25.429 79.4205C25.338 78.5038 24.9479 77.7917 24.2585 77.2841C23.5691 76.7765 22.6335 76.5227 21.4517 76.5227C20.6487 76.5227 19.9706 76.6364 19.4176 76.8636C18.8646 77.0833 18.4403 77.3901 18.1449 77.7841C17.857 78.178 17.713 78.625 17.713 79.125C17.6979 79.5417 17.785 79.9053 17.9744 80.2159C18.1714 80.5265 18.4403 80.7955 18.7812 81.0227C19.1221 81.2424 19.5161 81.4356 19.963 81.6023C20.41 81.7614 20.8873 81.8977 21.3949 82.0114L23.4858 82.5114C24.5009 82.7386 25.4327 83.0417 26.2812 83.4205C27.1297 83.7992 27.8646 84.2651 28.4858 84.8182C29.107 85.3712 29.588 86.0227 29.929 86.7727C30.2774 87.5227 30.4555 88.3826 30.463 89.3523C30.4555 90.7765 30.0918 92.0114 29.3721 93.0568C28.66 94.0947 27.6297 94.9015 26.2812 95.4773C24.9403 96.0455 23.3229 96.3295 21.429 96.3295C19.5502 96.3295 17.9138 96.0417 16.5199 95.4659C15.1335 94.8902 14.0502 94.0379 13.2699 92.9091C12.4971 91.7727 12.0918 90.3674 12.054 88.6932H16.8153C16.8683 89.4735 17.0918 90.125 17.4858 90.6477C17.8873 91.1629 18.4214 91.553 19.088 91.8182C19.7623 92.0758 20.5237 92.2045 21.3721 92.2045C22.2055 92.2045 22.929 92.0833 23.5426 91.8409C24.1638 91.5985 24.6449 91.2614 24.9858 90.8295C25.3267 90.3977 25.4971 89.9015 25.4971 89.3409C25.4971 88.8182 25.3418 88.3788 25.0312 88.0227C24.7282 87.6667 24.2812 87.3636 23.6903 87.1136C23.107 86.8636 22.3911 86.6364 21.5426 86.4318L19.0085 85.7955C17.0464 85.3182 15.4971 84.572 14.3608 83.5568C13.2244 82.5417 12.66 81.1742 12.6676 79.4545C12.66 78.0455 13.035 76.8144 13.7926 75.7614C14.5577 74.7083 15.607 73.8864 16.9403 73.2955C18.2737 72.7045 19.7888 72.4091 21.4858 72.4091C23.213 72.4091 24.7206 72.7045 26.0085 73.2955C27.304 73.8864 28.3115 74.7083 29.0312 75.7614C29.7509 76.8144 30.1221 78.0341 30.1449 79.4205H25.429Z" fill="white"/>
<path d="M88 64L89 64L89 102L88 102L88 64Z" fill="white"/>
<path d="M122.121 96V92.4545L130.405 84.7841C131.109 84.1023 131.7 83.4886 132.178 82.9432C132.662 82.3977 133.03 81.8636 133.28 81.3409C133.53 80.8106 133.655 80.2386 133.655 79.625C133.655 78.9432 133.499 78.3561 133.189 77.8636C132.878 77.3636 132.454 76.9811 131.916 76.7159C131.378 76.4432 130.768 76.3068 130.087 76.3068C129.374 76.3068 128.753 76.4508 128.223 76.7386C127.693 77.0265 127.284 77.4394 126.996 77.9773C126.708 78.5151 126.564 79.1553 126.564 79.8977H121.893C121.893 78.375 122.238 77.053 122.928 75.9318C123.617 74.8106 124.583 73.9432 125.825 73.3295C127.068 72.7159 128.499 72.4091 130.121 72.4091C131.787 72.4091 133.238 72.7045 134.473 73.2955C135.715 73.8788 136.681 74.6894 137.371 75.7273C138.06 76.7651 138.405 77.9545 138.405 79.2955C138.405 80.1742 138.231 81.0417 137.882 81.8977C137.541 82.7538 136.931 83.7045 136.053 84.75C135.174 85.7879 133.935 87.0341 132.337 88.4886L128.939 91.8182V91.9773H138.712V96H122.121Z" fill="white"/>
<path d="M109.996 96.3182C108.39 96.3182 106.958 96.0227 105.7 95.4318C104.45 94.8409 103.458 94.0265 102.723 92.9886C101.988 91.9508 101.606 90.7614 101.575 89.4204H106.348C106.401 90.322 106.78 91.053 107.484 91.6136C108.189 92.1742 109.026 92.4545 109.996 92.4545C110.768 92.4545 111.45 92.2841 112.041 91.9432C112.64 91.5947 113.106 91.1136 113.439 90.5C113.78 89.8788 113.95 89.1667 113.95 88.3636C113.95 87.5454 113.776 86.8257 113.428 86.2045C113.087 85.5833 112.613 85.0985 112.007 84.75C111.401 84.4015 110.708 84.2235 109.928 84.2159C109.246 84.2159 108.583 84.3561 107.939 84.6364C107.303 84.9167 106.806 85.2992 106.45 85.7841L102.075 85L103.178 72.7273H117.405V76.75H107.234L106.632 82.5795H106.769C107.178 82.0038 107.795 81.5265 108.621 81.1477C109.447 80.7689 110.371 80.5795 111.394 80.5795C112.795 80.5795 114.045 80.9091 115.144 81.5682C116.242 82.2273 117.109 83.1326 117.746 84.2841C118.382 85.428 118.697 86.7462 118.689 88.2386C118.697 89.8068 118.333 91.2007 117.598 92.4204C116.871 93.6326 115.852 94.5871 114.541 95.2841C113.238 95.9735 111.723 96.3182 109.996 96.3182Z" fill="white"/>
<path d="M168 60H318V105H183C174.716 105 168 98.2843 168 90V60Z" fill="#3DB06B"/>
<path d="M230.991 96H222.741V72.7273H231.06C233.401 72.7273 235.416 73.1932 237.105 74.125C238.794 75.0492 240.094 76.3788 241.003 78.1136C241.919 79.8485 242.378 81.9242 242.378 84.3409C242.378 86.7651 241.919 88.8485 241.003 90.5909C240.094 92.3333 238.787 93.6704 237.082 94.6023C235.385 95.5341 233.355 96 230.991 96ZM227.662 91.7841H230.787C232.241 91.7841 233.465 91.5265 234.457 91.0114C235.457 90.4886 236.207 89.6818 236.707 88.5909C237.215 87.4924 237.469 86.0757 237.469 84.3409C237.469 82.6212 237.215 81.2159 236.707 80.125C236.207 79.0341 235.461 78.2311 234.469 77.7159C233.476 77.2007 232.253 76.9432 230.798 76.9432H227.662V91.7841Z" fill="white"/>
<path d="M214.398 79.4205C214.307 78.5038 213.917 77.7917 213.227 77.2841C212.538 76.7765 211.602 76.5227 210.42 76.5227C209.617 76.5227 208.939 76.6364 208.386 76.8636C207.833 77.0833 207.409 77.3901 207.114 77.7841C206.826 78.178 206.682 78.625 206.682 79.125C206.667 79.5417 206.754 79.9053 206.943 80.2159C207.14 80.5265 207.409 80.7955 207.75 81.0227C208.091 81.2424 208.485 81.4356 208.932 81.6023C209.379 81.7614 209.856 81.8977 210.364 82.0114L212.455 82.5114C213.47 82.7386 214.401 83.0417 215.25 83.4205C216.098 83.7992 216.833 84.2651 217.455 84.8182C218.076 85.3712 218.557 86.0227 218.898 86.7727C219.246 87.5227 219.424 88.3826 219.432 89.3523C219.424 90.7765 219.061 92.0114 218.341 93.0568C217.629 94.0947 216.598 94.9015 215.25 95.4773C213.909 96.0455 212.292 96.3295 210.398 96.3295C208.519 96.3295 206.883 96.0417 205.489 95.4659C204.102 94.8902 203.019 94.0379 202.239 92.9091C201.466 91.7727 201.061 90.3674 201.023 88.6932H205.784C205.837 89.4735 206.061 90.125 206.455 90.6477C206.856 91.1629 207.39 91.553 208.057 91.8182C208.731 92.0758 209.492 92.2045 210.341 92.2045C211.174 92.2045 211.898 92.0833 212.511 91.8409C213.133 91.5985 213.614 91.2614 213.955 90.8295C214.295 90.3977 214.466 89.9015 214.466 89.3409C214.466 88.8182 214.311 88.3788 214 88.0227C213.697 87.6667 213.25 87.3636 212.659 87.1136C212.076 86.8636 211.36 86.6364 210.511 86.4318L207.977 85.7955C206.015 85.3182 204.466 84.572 203.33 83.5568C202.193 82.5417 201.629 81.1742 201.636 79.4545C201.629 78.0455 202.004 76.8144 202.761 75.7614C203.526 74.7083 204.576 73.8864 205.909 73.2955C207.242 72.7045 208.758 72.4091 210.455 72.4091C212.182 72.4091 213.689 72.7045 214.977 73.2955C216.273 73.8864 217.28 74.7083 218 75.7614C218.72 76.8144 219.091 78.0341 219.114 79.4205H214.398Z" fill="white"/>
<path d="M193.429 79.4205C193.338 78.5038 192.948 77.7917 192.259 77.2841C191.569 76.7765 190.634 76.5227 189.452 76.5227C188.649 76.5227 187.971 76.6364 187.418 76.8636C186.865 77.0833 186.44 77.3901 186.145 77.7841C185.857 78.178 185.713 78.625 185.713 79.125C185.698 79.5417 185.785 79.9053 185.974 80.2159C186.171 80.5265 186.44 80.7955 186.781 81.0227C187.122 81.2424 187.516 81.4356 187.963 81.6023C188.41 81.7614 188.887 81.8977 189.395 82.0114L191.486 82.5114C192.501 82.7386 193.433 83.0417 194.281 83.4205C195.13 83.7992 195.865 84.2651 196.486 84.8182C197.107 85.3712 197.588 86.0227 197.929 86.7727C198.277 87.5227 198.455 88.3826 198.463 89.3523C198.455 90.7765 198.092 92.0114 197.372 93.0568C196.66 94.0947 195.63 94.9015 194.281 95.4773C192.94 96.0455 191.323 96.3295 189.429 96.3295C187.55 96.3295 185.914 96.0417 184.52 95.4659C183.134 94.8902 182.05 94.0379 181.27 92.9091C180.497 91.7727 180.092 90.3674 180.054 88.6932H184.815C184.868 89.4735 185.092 90.125 185.486 90.6477C185.887 91.1629 186.421 91.553 187.088 91.8182C187.762 92.0758 188.524 92.2045 189.372 92.2045C190.205 92.2045 190.929 92.0833 191.543 91.8409C192.164 91.5985 192.645 91.2614 192.986 90.8295C193.327 90.3977 193.497 89.9015 193.497 89.3409C193.497 88.8182 193.342 88.3788 193.031 88.0227C192.728 87.6667 192.281 87.3636 191.69 87.1136C191.107 86.8636 190.391 86.6364 189.543 86.4318L187.009 85.7955C185.046 85.3182 183.497 84.572 182.361 83.5568C181.224 82.5417 180.66 81.1742 180.668 79.4545C180.66 78.0455 181.035 76.8144 181.793 75.7614C182.558 74.7083 183.607 73.8864 184.94 73.2955C186.274 72.7045 187.789 72.4091 189.486 72.4091C191.213 72.4091 192.721 72.7045 194.009 73.2955C195.304 73.8864 196.312 74.7083 197.031 75.7614C197.751 76.8144 198.122 78.0341 198.145 79.4205H193.429Z" fill="white"/>
<path d="M256 64L257 64L257 102L256 102L256 64Z" fill="white"/>
<path d="M298.543 96.5114C296.588 96.5038 294.906 96.0227 293.497 95.0682C292.096 94.1136 291.016 92.7311 290.259 90.9205C289.509 89.1098 289.137 86.9318 289.145 84.3864C289.145 81.8485 289.52 79.6856 290.27 77.8977C291.027 76.1098 292.107 74.75 293.509 73.8182C294.918 72.8788 296.596 72.4091 298.543 72.4091C300.49 72.4091 302.164 72.8788 303.565 73.8182C304.974 74.7576 306.058 76.1212 306.815 77.9091C307.573 79.6894 307.948 81.8485 307.94 84.3864C307.94 86.9394 307.562 89.1212 306.804 90.9318C306.054 92.7424 304.978 94.125 303.577 95.0795C302.175 96.0341 300.497 96.5114 298.543 96.5114ZM298.543 92.4318C299.876 92.4318 300.94 91.7614 301.736 90.4205C302.531 89.0795 302.925 87.0682 302.918 84.3864C302.918 82.6212 302.736 81.1515 302.372 79.9773C302.016 78.803 301.509 77.9205 300.849 77.3295C300.198 76.7386 299.429 76.4432 298.543 76.4432C297.217 76.4432 296.156 77.1061 295.361 78.4318C294.565 79.7576 294.164 81.7424 294.156 84.3864C294.156 86.1742 294.334 87.6667 294.69 88.8636C295.054 90.053 295.565 90.947 296.224 91.5455C296.884 92.1364 297.656 92.4318 298.543 92.4318Z" fill="white"/>
<path d="M276.926 96.3182C275.229 96.3182 273.718 96.0265 272.392 95.4432C271.074 94.8523 270.032 94.0417 269.267 93.0114C268.509 91.9735 268.119 90.7765 268.097 89.4205H273.051C273.081 89.9886 273.267 90.4886 273.608 90.9205C273.956 91.3447 274.419 91.6742 274.994 91.9091C275.57 92.1439 276.218 92.2614 276.937 92.2614C277.687 92.2614 278.35 92.1288 278.926 91.8636C279.502 91.5985 279.953 91.2311 280.278 90.7614C280.604 90.2917 280.767 89.75 280.767 89.1364C280.767 88.5152 280.593 87.9659 280.244 87.4886C279.903 87.0038 279.411 86.625 278.767 86.3523C278.131 86.0795 277.373 85.9432 276.494 85.9432H274.324V82.3295H276.494C277.237 82.3295 277.892 82.2008 278.46 81.9432C279.036 81.6856 279.483 81.3295 279.801 80.875C280.119 80.4129 280.278 79.875 280.278 79.2614C280.278 78.678 280.138 78.1667 279.858 77.7273C279.585 77.2803 279.199 76.9318 278.699 76.6818C278.206 76.4318 277.631 76.3068 276.972 76.3068C276.305 76.3068 275.695 76.428 275.142 76.6705C274.589 76.9053 274.146 77.2424 273.812 77.6818C273.479 78.1212 273.301 78.6364 273.278 79.2273H268.562C268.585 77.8864 268.968 76.7045 269.71 75.6818C270.453 74.6591 271.453 73.8598 272.71 73.2841C273.975 72.7008 275.403 72.4091 276.994 72.4091C278.6 72.4091 280.006 72.7008 281.21 73.2841C282.415 73.8674 283.35 74.6553 284.017 75.6477C284.691 76.6326 285.025 77.7386 285.017 78.9659C285.025 80.2689 284.619 81.3561 283.801 82.2273C282.99 83.0985 281.934 83.6515 280.631 83.8864V84.0682C282.343 84.2879 283.646 84.8826 284.54 85.8523C285.441 86.8144 285.888 88.0189 285.881 89.4659C285.888 90.7917 285.506 91.9697 284.733 93C283.968 94.0303 282.911 94.8409 281.562 95.4318C280.214 96.0227 278.669 96.3182 276.926 96.3182Z" fill="white"/>
<path d="M168 120H318V165H183C174.716 165 168 158.284 168 150V120Z" fill="#EE6C4D"/>
<path d="M230.991 156H222.741V132.727H231.06C233.401 132.727 235.416 133.193 237.105 134.125C238.794 135.049 240.094 136.379 241.003 138.114C241.919 139.848 242.378 141.924 242.378 144.341C242.378 146.765 241.919 148.848 241.003 150.591C240.094 152.333 238.787 153.67 237.082 154.602C235.385 155.534 233.355 156 230.991 156ZM227.662 151.784H230.787C232.241 151.784 233.465 151.527 234.457 151.011C235.457 150.489 236.207 149.682 236.707 148.591C237.215 147.492 237.469 146.076 237.469 144.341C237.469 142.621 237.215 141.216 236.707 140.125C236.207 139.034 235.461 138.231 234.469 137.716C233.476 137.201 232.253 136.943 230.798 136.943H227.662V151.784Z" fill="white"/>
<path d="M214.398 139.42C214.307 138.504 213.917 137.792 213.227 137.284C212.538 136.777 211.602 136.523 210.42 136.523C209.617 136.523 208.939 136.636 208.386 136.864C207.833 137.083 207.409 137.39 207.114 137.784C206.826 138.178 206.682 138.625 206.682 139.125C206.667 139.542 206.754 139.905 206.943 140.216C207.14 140.527 207.409 140.795 207.75 141.023C208.091 141.242 208.485 141.436 208.932 141.602C209.379 141.761 209.856 141.898 210.364 142.011L212.455 142.511C213.47 142.739 214.401 143.042 215.25 143.42C216.098 143.799 216.833 144.265 217.455 144.818C218.076 145.371 218.557 146.023 218.898 146.773C219.246 147.523 219.424 148.383 219.432 149.352C219.424 150.777 219.061 152.011 218.341 153.057C217.629 154.095 216.598 154.902 215.25 155.477C213.909 156.045 212.292 156.33 210.398 156.33C208.519 156.33 206.883 156.042 205.489 155.466C204.102 154.89 203.019 154.038 202.239 152.909C201.466 151.773 201.061 150.367 201.023 148.693H205.784C205.837 149.473 206.061 150.125 206.455 150.648C206.856 151.163 207.39 151.553 208.057 151.818C208.731 152.076 209.492 152.205 210.341 152.205C211.174 152.205 211.898 152.083 212.511 151.841C213.133 151.598 213.614 151.261 213.955 150.83C214.295 150.398 214.466 149.902 214.466 149.341C214.466 148.818 214.311 148.379 214 148.023C213.697 147.667 213.25 147.364 212.659 147.114C212.076 146.864 211.36 146.636 210.511 146.432L207.977 145.795C206.015 145.318 204.466 144.572 203.33 143.557C202.193 142.542 201.629 141.174 201.636 139.455C201.629 138.045 202.004 136.814 202.761 135.761C203.526 134.708 204.576 133.886 205.909 133.295C207.242 132.705 208.758 132.409 210.455 132.409C212.182 132.409 213.689 132.705 214.977 133.295C216.273 133.886 217.28 134.708 218 135.761C218.72 136.814 219.091 138.034 219.114 139.42H214.398Z" fill="white"/>
<path d="M193.429 139.42C193.338 138.504 192.948 137.792 192.259 137.284C191.569 136.777 190.634 136.523 189.452 136.523C188.649 136.523 187.971 136.636 187.418 136.864C186.865 137.083 186.44 137.39 186.145 137.784C185.857 138.178 185.713 138.625 185.713 139.125C185.698 139.542 185.785 139.905 185.974 140.216C186.171 140.527 186.44 140.795 186.781 141.023C187.122 141.242 187.516 141.436 187.963 141.602C188.41 141.761 188.887 141.898 189.395 142.011L191.486 142.511C192.501 142.739 193.433 143.042 194.281 143.42C195.13 143.799 195.865 144.265 196.486 144.818C197.107 145.371 197.588 146.023 197.929 146.773C198.277 147.523 198.455 148.383 198.463 149.352C198.455 150.777 198.092 152.011 197.372 153.057C196.66 154.095 195.63 154.902 194.281 155.477C192.94 156.045 191.323 156.33 189.429 156.33C187.55 156.33 185.914 156.042 184.52 155.466C183.134 154.89 182.05 154.038 181.27 152.909C180.497 151.773 180.092 150.367 180.054 148.693H184.815C184.868 149.473 185.092 150.125 185.486 150.648C185.887 151.163 186.421 151.553 187.088 151.818C187.762 152.076 188.524 152.205 189.372 152.205C190.205 152.205 190.929 152.083 191.543 151.841C192.164 151.598 192.645 151.261 192.986 150.83C193.327 150.398 193.497 149.902 193.497 149.341C193.497 148.818 193.342 148.379 193.031 148.023C192.728 147.667 192.281 147.364 191.69 147.114C191.107 146.864 190.391 146.636 189.543 146.432L187.009 145.795C185.046 145.318 183.497 144.572 182.361 143.557C181.224 142.542 180.66 141.174 180.668 139.455C180.66 138.045 181.035 136.814 181.793 135.761C182.558 134.708 183.607 133.886 184.94 133.295C186.274 132.705 187.789 132.409 189.486 132.409C191.213 132.409 192.721 132.705 194.009 133.295C195.304 133.886 196.312 134.708 197.031 135.761C197.751 136.814 198.122 138.034 198.145 139.42H193.429Z" fill="white"/>
<path d="M256 124L257 124L257 162L256 162L256 124Z" fill="white"/>
<path d="M298.152 156.318C296.546 156.318 295.114 156.023 293.857 155.432C292.607 154.841 291.614 154.027 290.879 152.989C290.144 151.951 289.762 150.761 289.732 149.42H294.504C294.557 150.322 294.936 151.053 295.641 151.614C296.345 152.174 297.182 152.455 298.152 152.455C298.925 152.455 299.607 152.284 300.197 151.943C300.796 151.595 301.262 151.114 301.595 150.5C301.936 149.879 302.107 149.167 302.107 148.364C302.107 147.545 301.932 146.826 301.584 146.205C301.243 145.583 300.769 145.098 300.163 144.75C299.557 144.402 298.864 144.223 298.084 144.216C297.402 144.216 296.739 144.356 296.095 144.636C295.459 144.917 294.963 145.299 294.607 145.784L290.232 145L291.334 132.727H305.561V136.75H295.391L294.788 142.58H294.925C295.334 142.004 295.951 141.527 296.777 141.148C297.603 140.769 298.527 140.58 299.55 140.58C300.951 140.58 302.201 140.909 303.3 141.568C304.398 142.227 305.266 143.133 305.902 144.284C306.538 145.428 306.853 146.746 306.845 148.239C306.853 149.807 306.489 151.201 305.754 152.42C305.027 153.633 304.008 154.587 302.697 155.284C301.394 155.973 299.879 156.318 298.152 156.318Z" fill="white"/>
<path d="M269.496 156V152.455L277.78 144.784C278.484 144.102 279.075 143.489 279.553 142.943C280.037 142.398 280.405 141.864 280.655 141.341C280.905 140.811 281.03 140.239 281.03 139.625C281.03 138.943 280.874 138.356 280.564 137.864C280.253 137.364 279.829 136.981 279.291 136.716C278.753 136.443 278.143 136.307 277.462 136.307C276.749 136.307 276.128 136.451 275.598 136.739C275.068 137.027 274.659 137.439 274.371 137.977C274.083 138.515 273.939 139.155 273.939 139.898H269.268C269.268 138.375 269.613 137.053 270.303 135.932C270.992 134.811 271.958 133.943 273.2 133.33C274.443 132.716 275.874 132.409 277.496 132.409C279.162 132.409 280.613 132.705 281.848 133.295C283.09 133.879 284.056 134.689 284.746 135.727C285.435 136.765 285.78 137.955 285.78 139.295C285.78 140.174 285.606 141.042 285.257 141.898C284.916 142.754 284.306 143.705 283.428 144.75C282.549 145.788 281.31 147.034 279.712 148.489L276.314 151.818V151.977H286.087V156H269.496Z" fill="white"/>
<path d="M0 120H150V165H15C6.71573 165 0 158.284 0 150V120Z" fill="#EE6C4D"/>
<path d="M62.9915 156H54.7415V132.727H63.0596C65.4005 132.727 67.4157 133.193 69.1051 134.125C70.7945 135.049 72.0937 136.379 73.0028 138.114C73.9195 139.848 74.3778 141.924 74.3778 144.341C74.3778 146.765 73.9195 148.848 73.0028 150.591C72.0937 152.333 70.7869 153.67 69.0824 154.602C67.3854 155.534 65.3551 156 62.9915 156ZM59.6619 151.784H62.7869C64.2415 151.784 65.4649 151.527 66.4574 151.011C67.4574 150.489 68.2074 149.682 68.7074 148.591C69.2149 147.492 69.4687 146.076 69.4687 144.341C69.4687 142.621 69.2149 141.216 68.7074 140.125C68.2074 139.034 67.4612 138.231 66.4687 137.716C65.4763 137.201 64.2528 136.943 62.7983 136.943H59.6619V151.784Z" fill="white"/>
<path d="M46.3977 139.42C46.3068 138.504 45.9166 137.792 45.2272 137.284C44.5379 136.777 43.6023 136.523 42.4204 136.523C41.6174 136.523 40.9394 136.636 40.3863 136.864C39.8333 137.083 39.4091 137.39 39.1136 137.784C38.8257 138.178 38.6818 138.625 38.6818 139.125C38.6666 139.542 38.7538 139.905 38.9432 140.216C39.1401 140.527 39.4091 140.795 39.75 141.023C40.0909 141.242 40.4848 141.436 40.9318 141.602C41.3788 141.761 41.856 141.898 42.3636 142.011L44.4545 142.511C45.4697 142.739 46.4015 143.042 47.25 143.42C48.0985 143.799 48.8333 144.265 49.4545 144.818C50.0757 145.371 50.5568 146.023 50.8977 146.773C51.2462 147.523 51.4242 148.383 51.4318 149.352C51.4242 150.777 51.0606 152.011 50.3409 153.057C49.6288 154.095 48.5985 154.902 47.25 155.477C45.9091 156.045 44.2916 156.33 42.3977 156.33C40.5189 156.33 38.8826 156.042 37.4886 155.466C36.1022 154.89 35.0189 154.038 34.2386 152.909C33.4659 151.773 33.0606 150.367 33.0227 148.693H37.7841C37.8371 149.473 38.0606 150.125 38.4545 150.648C38.856 151.163 39.3901 151.553 40.0568 151.818C40.731 152.076 41.4924 152.205 42.3409 152.205C43.1742 152.205 43.8977 152.083 44.5113 151.841C45.1326 151.598 45.6136 151.261 45.9545 150.83C46.2954 150.398 46.4659 149.902 46.4659 149.341C46.4659 148.818 46.3106 148.379 46 148.023C45.6969 147.667 45.25 147.364 44.6591 147.114C44.0757 146.864 43.3598 146.636 42.5113 146.432L39.9772 145.795C38.0151 145.318 36.4659 144.572 35.3295 143.557C34.1932 142.542 33.6288 141.174 33.6363 139.455C33.6288 138.045 34.0038 136.814 34.7613 135.761C35.5265 134.708 36.5757 133.886 37.9091 133.295C39.2424 132.705 40.7576 132.409 42.4545 132.409C44.1818 132.409 45.6894 132.705 46.9772 133.295C48.2727 133.886 49.2803 134.708 50 135.761C50.7197 136.814 51.0909 138.034 51.1136 139.42H46.3977Z" fill="white"/>
<path d="M25.429 139.42C25.338 138.504 24.9479 137.792 24.2585 137.284C23.5691 136.777 22.6335 136.523 21.4517 136.523C20.6487 136.523 19.9706 136.636 19.4176 136.864C18.8646 137.083 18.4403 137.39 18.1449 137.784C17.857 138.178 17.713 138.625 17.713 139.125C17.6979 139.542 17.785 139.905 17.9744 140.216C18.1714 140.527 18.4403 140.795 18.7812 141.023C19.1221 141.242 19.5161 141.436 19.963 141.602C20.41 141.761 20.8873 141.898 21.3949 142.011L23.4858 142.511C24.5009 142.739 25.4327 143.042 26.2812 143.42C27.1297 143.799 27.8646 144.265 28.4858 144.818C29.107 145.371 29.588 146.023 29.929 146.773C30.2774 147.523 30.4555 148.383 30.463 149.352C30.4555 150.777 30.0918 152.011 29.3721 153.057C28.66 154.095 27.6297 154.902 26.2812 155.477C24.9403 156.045 23.3229 156.33 21.429 156.33C19.5502 156.33 17.9138 156.042 16.5199 155.466C15.1335 154.89 14.0502 154.038 13.2699 152.909C12.4971 151.773 12.0918 150.367 12.054 148.693H16.8153C16.8683 149.473 17.0918 150.125 17.4858 150.648C17.8873 151.163 18.4214 151.553 19.088 151.818C19.7623 152.076 20.5237 152.205 21.3721 152.205C22.2055 152.205 22.929 152.083 23.5426 151.841C24.1638 151.598 24.6449 151.261 24.9858 150.83C25.3267 150.398 25.4971 149.902 25.4971 149.341C25.4971 148.818 25.3418 148.379 25.0312 148.023C24.7282 147.667 24.2812 147.364 23.6903 147.114C23.107 146.864 22.3911 146.636 21.5426 146.432L19.0085 145.795C17.0464 145.318 15.4971 144.572 14.3608 143.557C13.2244 142.542 12.66 141.174 12.6676 139.455C12.66 138.045 13.035 136.814 13.7926 135.761C14.5577 134.708 15.607 133.886 16.9403 133.295C18.2737 132.705 19.7888 132.409 21.4858 132.409C23.213 132.409 24.7206 132.705 26.0085 133.295C27.304 133.886 28.3115 134.708 29.0312 135.761C29.7509 136.814 30.1221 138.034 30.1449 139.42H25.429Z" fill="white"/>
<path d="M88 124L89 124L89 162L88 162L88 124Z" fill="white"/>
<path d="M122.121 156V152.455L130.405 144.784C131.109 144.102 131.7 143.489 132.178 142.943C132.662 142.398 133.03 141.864 133.28 141.341C133.53 140.811 133.655 140.239 133.655 139.625C133.655 138.943 133.499 138.356 133.189 137.864C132.878 137.364 132.454 136.981 131.916 136.716C131.378 136.443 130.768 136.307 130.087 136.307C129.374 136.307 128.753 136.451 128.223 136.739C127.693 137.027 127.284 137.439 126.996 137.977C126.708 138.515 126.564 139.155 126.564 139.898H121.893C121.893 138.375 122.238 137.053 122.928 135.932C123.617 134.811 124.583 133.943 125.825 133.33C127.068 132.716 128.499 132.409 130.121 132.409C131.787 132.409 133.238 132.705 134.473 133.295C135.715 133.879 136.681 134.689 137.371 135.727C138.06 136.765 138.405 137.955 138.405 139.295C138.405 140.174 138.231 141.042 137.882 141.898C137.541 142.754 136.931 143.705 136.053 144.75C135.174 145.788 133.935 147.034 132.337 148.489L128.939 151.818V151.977H138.712V156H122.121Z" fill="white"/>
<path d="M109.996 156.318C108.39 156.318 106.958 156.023 105.7 155.432C104.45 154.841 103.458 154.027 102.723 152.989C101.988 151.951 101.606 150.761 101.575 149.42H106.348C106.401 150.322 106.78 151.053 107.484 151.614C108.189 152.174 109.026 152.455 109.996 152.455C110.768 152.455 111.45 152.284 112.041 151.943C112.64 151.595 113.106 151.114 113.439 150.5C113.78 149.879 113.95 149.167 113.95 148.364C113.95 147.545 113.776 146.826 113.428 146.205C113.087 145.583 112.613 145.098 112.007 144.75C111.401 144.402 110.708 144.223 109.928 144.216C109.246 144.216 108.583 144.356 107.939 144.636C107.303 144.917 106.806 145.299 106.45 145.784L102.075 145L103.178 132.727H117.405V136.75H107.234L106.632 142.58H106.769C107.178 142.004 107.795 141.527 108.621 141.148C109.447 140.769 110.371 140.58 111.394 140.58C112.795 140.58 114.045 140.909 115.144 141.568C116.242 142.227 117.109 143.133 117.746 144.284C118.382 145.428 118.697 146.746 118.689 148.239C118.697 149.807 118.333 151.201 117.598 152.42C116.871 153.633 115.852 154.587 114.541 155.284C113.238 155.973 111.723 156.318 109.996 156.318Z" fill="white"/>
</svg>
