<svg width="740" height="956" viewBox="0 0 740 956" fill="none" xmlns="http://www.w3.org/2000/svg">
<path d="M478.326 843.978L419.172 693.708C419.172 693.708 415.973 679.85 419.172 668.13L428.769 619.635C428.769 619.635 437.064 595.472 422.64 588.465C411.783 583.186 407.452 578.868 407.452 578.868C407.452 578.868 402.129 571.678 388.272 568.479C374.414 565.279 373.621 567.148 372.291 568.479C372.291 568.479 372.029 568.239 371.64 567.964C370.666 567.271 368.751 565.661 368.631 564.472C367.951 557.749 366.17 541.493 364.293 535.441C361.901 527.726 361.986 493.612 361.986 493.612C361.986 493.612 362.099 476.895 361.094 472.889C360.089 468.884 362.693 458.296 359.693 456.498C356.692 454.7 347.109 454.7 343.301 466.095C339.493 477.49 337.299 486.875 338.701 500.067C338.701 500.067 334.709 518.058 335.7 535.242C335.7 535.242 334.695 548.039 334.695 553.63C334.695 553.63 324.107 555.031 321.899 568.224C321.899 568.224 314.51 573.022 313.505 573.022C312.5 573.022 296.717 575.216 295.514 582.421C294.31 589.626 298.118 608.198 298.118 608.198C298.118 608.198 299.718 621.985 299.123 626.387C298.529 630.789 306.71 649.828 306.71 649.828L334.893 702.131C334.893 702.131 348.482 727.907 350.874 734.503C353.266 741.099 375.66 784.456 378.25 795.257C380.84 806.057 392.037 844.021 392.037 844.021" stroke="#595CFF" stroke-width="3.53876" stroke-miterlimit="10"/>
<path d="M323.923 628.553C323.923 628.553 336.309 603.98 337.115 589.981C337.922 575.981 334.723 553.616 334.723 553.616" stroke="#595CFF" stroke-width="2.83101" stroke-linecap="round" stroke-linejoin="round"/>
<path d="M368.861 565.325C369.278 565.283 369.645 565.618 369.638 566.039V566.068C369.809 573.087 370.79 580.532 374.105 586.93L374.112 586.941C374.414 587.499 374.74 588.069 375.092 588.634C371.189 583.341 369.565 576.343 368.582 569.74L368.219 566.108L368.218 566.102L368.217 565.963C368.249 565.645 368.507 565.366 368.861 565.325Z" fill="black" stroke="#595CFF" stroke-width="1.41551"/>
<path d="M371.712 568.157C371.848 568.141 372.021 568.171 372.22 568.345L372.231 568.353C379.112 574.158 387.883 578.161 395.986 581.916L395.995 581.92L396.006 581.925L399.162 583.27L399.171 583.272L399.18 583.276C402.482 584.581 405.465 587.055 407.205 590.104C409.258 593.699 410.247 597.662 410.407 601.673C409.311 594.599 405.986 587.078 398.622 584.586L395.412 583.282C386.768 579.485 378.307 575.763 371.262 569.378C371.086 569.205 371.041 569.038 371.045 568.896C371.05 568.736 371.122 568.558 371.257 568.409C371.392 568.261 371.559 568.176 371.712 568.157Z" fill="#595CFF" stroke="#595CFF" stroke-width="1.41551"/>
<path d="M321.927 568.21C321.927 568.21 319.535 589.796 321.927 595.388C324.319 600.979 330.137 611.878 330.59 612.176" stroke="#595CFF" stroke-width="2.83101" stroke-miterlimit="10"/>
<path d="M325.749 577.199L326.99 576.518L326.587 575.783H325.749V577.199ZM336.86 593.095L336.33 594.407L337.838 592.071L336.86 593.095ZM329.67 586.23L328.491 587.013L328.492 587.015L329.67 586.23ZM325.735 577.199V575.783H324.078L324.336 577.419L325.735 577.199ZM325.749 577.199L324.508 577.879C327.631 583.575 331.035 589.491 335.883 594.119L336.86 593.095L337.838 592.071C333.344 587.781 330.123 582.232 326.99 576.518L325.749 577.199ZM336.86 593.095L337.391 591.783C334.783 590.727 332.651 588.149 330.847 585.444L329.67 586.23L328.492 587.015C330.312 589.746 332.852 593 336.33 594.407L336.86 593.095ZM329.67 586.23L330.848 585.446C329.095 582.809 327.582 579.825 327.133 576.978L325.735 577.199L324.336 577.419C324.878 580.857 326.649 584.243 328.491 587.013L329.67 586.23ZM325.735 577.199V578.614H325.749V577.199V575.783H325.735V577.199Z" fill="#595CFF" mask="url(#path-106-inside-2_380_13912)"/>
<path d="M312.556 586.782L313.194 585.518L309.63 583.718L311.265 587.361L312.556 586.782ZM320.865 590.773L320.613 592.166L320.631 592.17L320.65 592.173L320.865 590.773ZM321.134 591.156L322.522 591.433L322.527 591.411L322.53 591.388L321.134 591.156ZM320.865 591.41L321.098 592.807L321.135 592.8L321.172 592.792L320.865 591.41ZM318.331 591.241L317.869 592.578L317.933 592.601L317.999 592.617L318.331 591.241ZM312.556 586.782L311.918 588.045C313.293 588.74 314.402 589.492 315.885 590.325C317.277 591.107 318.821 591.842 320.613 592.166L320.865 590.773L321.117 589.381C319.781 589.139 318.557 588.579 317.271 587.856C316.075 587.185 314.594 586.225 313.194 585.518L312.556 586.782ZM320.865 590.773L320.65 592.173C319.969 592.068 319.651 591.443 319.738 590.923L321.134 591.156L322.53 591.388C322.674 590.529 322.129 589.536 321.08 589.374L320.865 590.773ZM321.134 591.156L319.746 590.878C319.857 590.325 320.299 590.086 320.558 590.029L320.865 591.41L321.172 592.792C321.686 592.678 322.355 592.269 322.522 591.433L321.134 591.156ZM320.865 591.41L320.632 590.014C320.05 590.111 319.398 590.042 318.664 589.865L318.331 591.241L317.999 592.617C318.906 592.836 319.981 592.993 321.098 592.807L320.865 591.41ZM318.331 591.241L318.794 589.903C316.606 589.146 314.592 587.861 313.848 586.202L312.556 586.782L311.265 587.361C312.502 590.119 315.471 591.749 317.869 592.578L318.331 591.241Z" fill="#595CFF" mask="url(#path-108-inside-3_380_13912)"/>
<path d="M322.975 608.538C324.859 608.951 326.781 609.119 328.704 608.856L328.751 608.851L328.797 608.838C328.939 608.799 329.013 608.829 329.057 608.858C329.117 608.898 329.181 608.978 329.213 609.092C329.244 609.205 329.232 609.306 329.201 609.37C329.18 609.414 329.136 609.471 329.014 609.514C326.868 609.786 324.933 609.284 322.975 608.538Z" stroke="#595CFF" stroke-width="1.41551"/>
<path d="M350.605 460.787C351.03 465.869 353.96 472.154 359.877 471.771C360.273 471.771 360.584 472.111 360.57 472.493C360.57 472.904 360.202 473.215 359.806 473.187C355.163 473.173 351.837 469.195 350.973 464.935C350.733 463.59 350.237 461.976 350.506 460.688C350.563 460.688 350.605 460.73 350.605 460.787Z" fill="#595CFF"/>
</svg>
