<svg width="740" height="956" viewBox="0 0 740 956" fill="none" xmlns="http://www.w3.org/2000/svg">
<path d="M321.823 831.579C321.823 831.579 331.207 765.569 342.46 632.591C342.46 632.591 344.15 608.731 340.087 589.951C340.087 589.951 337.127 583.432 336.36 578.614C336.36 578.614 328.499 575.99 321.212 567.277C313.926 558.564 308.017 545.705 307.682 543.931C307.346 542.158 303.535 522.444 303.535 522.444C303.535 522.444 300.659 513.899 300.659 510.855C300.659 507.811 300.324 495.707 299.305 491.992C298.286 488.276 293.972 474.734 293.972 474.734C293.972 474.734 289.406 461.791 288.303 449.783C287.201 437.775 285.847 437.942 287.369 431.938C288.891 425.934 295.494 422.542 301.917 424.16C308.341 425.778 316.55 434.898 317.653 447.841C318.755 460.784 319.51 464.679 320.613 467.723C321.716 470.767 325.778 482.955 327.132 484.645C328.487 486.335 331.111 490.062 332.549 489.81C333.987 489.559 339.404 490.398 339.404 490.398C339.404 490.398 347.266 492.339 347.781 490.314C348.297 488.288 354.037 482.704 354.636 477.874C355.236 473.044 356.662 466.705 358.867 462.39C358.867 462.39 359.718 453.594 361.24 449.279C361.24 449.279 360.053 431.77 363.445 416.538C363.445 416.538 363.78 409.432 363.445 403.931C363.109 398.43 362.426 392.594 363.193 385.403C363.744 380.202 362.918 375.36 362.426 373.071C362.163 371.849 361.995 370.614 361.947 369.356C361.695 363.28 361.971 347.209 371.319 343.518C382.907 338.952 382.404 353.501 382.404 353.501C382.404 353.501 382.284 360.32 383.77 364.598C384.441 366.528 384.849 368.529 384.849 370.567C384.825 374.749 384.813 381.005 384.873 381.676C384.957 382.695 388.42 397.663 389.271 400.791C390.122 403.919 391.129 384.72 393.166 377.11C393.166 377.11 391.392 362.729 395.024 353.513C398.655 344.297 407.2 337.777 412.784 341.337C418.369 344.896 416.332 352.422 416.332 353.777C416.332 355.131 414.894 360.548 415.061 362.489C415.229 364.431 415.481 368.577 413.959 378.644C413.959 378.644 413.372 384.984 414.378 388.879C414.378 388.879 415.565 374.581 421.904 369.68C428.244 364.778 434.68 368.158 436.369 370.267C438.059 372.376 435.435 382.791 435.435 382.791C435.435 382.791 434.584 394.631 433.997 397.423C433.409 400.216 433.23 409.779 433.23 414.01C433.23 418.24 433.313 418.743 433.313 418.743C433.313 418.743 436.022 414.429 440.168 415.1C444.315 415.771 446.688 416.119 446.592 419.247C446.496 422.375 445.238 429.062 445.07 433.796C444.902 438.53 444.051 449.783 444.051 451.724C444.051 453.666 443.033 466.273 441.942 472.709C440.852 479.144 437.963 494.029 433.985 505.702C430.006 517.374 429.418 525.751 428.999 529.814C428.58 533.877 420.958 560.865 420.958 560.865C420.958 560.865 416.643 576.181 419.939 586.584C423.235 596.986 427.129 617.204 428.232 631.081C428.232 631.081 428.292 641.292 449.948 707.613C471.603 773.934 489.652 829.434 489.652 829.434" stroke="#595CFF" stroke-width="3.3048" stroke-miterlimit="10"/>
<path d="M390.362 400.372C391.56 403.883 392.95 407.478 393.034 411.253C393.106 413.53 393.549 426.725 393.633 429.314C393.813 433.532 393.885 439.548 394.161 443.707C394.64 448.261 394.832 453.51 397.54 457.321C397.864 457.609 397.372 458.172 397.037 457.788C393.981 453.75 393.717 448.596 393.046 443.803C392.639 439.632 392.399 433.556 392.087 429.314L391.188 414.873C391.033 412.847 391.045 409.935 390.421 407.958C389.81 405.705 388.84 404.266 387.977 402.073C387.414 400.599 389.798 398.873 390.374 400.384L390.362 400.372Z" fill="#595CFF"/>
<path d="M415.565 388.783C415.816 393.193 416.428 401.198 416.487 405.489C416.392 413.614 416.787 421.668 416.811 429.841C416.392 436.696 415.085 443.455 414.954 450.226C415.637 456.039 416.392 462.079 417.83 467.795C418.081 468.586 418.309 469.485 418.741 470.048C419.064 470.468 418.381 471.031 418.045 470.552C417.003 468.946 416.787 467.292 416.308 465.542C415.193 460.473 414.39 455.487 413.719 450.298C413.719 443.395 414.894 436.612 415.193 429.829C415.025 421.8 414.474 413.602 414.414 405.501C414.27 401.318 413.515 393.217 413.18 388.963C413.048 387.405 415.433 387.153 415.565 388.771V388.783Z" fill="#595CFF"/>
<path d="M434.512 418.828C434.104 425.012 433.769 431.196 433.793 437.38C433.637 443.707 432.654 449.843 431.648 456.051C430.545 462.175 429.359 468.287 428.688 474.387C428.46 477.922 428.819 482.057 430.413 485.233C431.827 487.019 433.817 489.26 433.661 491.68C433.553 492.088 432.918 491.992 432.978 491.537C432.978 490.997 432.558 490.278 432.211 489.655C431.084 487.582 428.879 486.096 428.34 483.735C425.512 474.627 428.688 464.872 429.826 455.751C430.701 449.687 431.576 443.48 431.6 437.38C431.492 431.136 431.779 424.892 432.127 418.672C432.235 417.126 434.608 417.21 434.524 418.828H434.512Z" fill="#595CFF"/>
<path d="M286.506 434.191C291.251 432.322 296.98 430.308 301.846 432.825C305.86 435.593 306.651 441.118 305.549 445.564C305.441 445.984 304.794 445.816 304.914 445.397C306.46 437.439 302.529 430.908 293.768 433.209C291.467 433.7 289.19 434.503 287.069 435.486C286.23 435.881 285.631 434.575 286.494 434.191H286.506Z" fill="#595CFF"/>
<path d="M290.64 450.897C294.727 451.904 299.569 451.892 303.008 449.172C303.356 448.896 303.787 449.447 303.427 449.711C300.743 451.916 297.136 452.491 293.756 452.24C292.63 452.156 291.527 452 290.401 451.712C290.173 451.652 290.029 451.425 290.089 451.197C290.149 450.957 290.401 450.825 290.628 450.897H290.64Z" fill="#595CFF"/>
<path d="M378.917 345.208C377.215 345.759 374.926 346.598 374.267 348.348C374.051 349.246 374.051 350.301 374.075 351.308C374.255 354.22 374.483 357.504 376.076 359.996C376.688 360.751 377.67 361.075 378.521 361.518C379.432 361.95 380.379 362.309 381.35 362.561C381.613 362.621 381.529 363.028 381.266 362.98C379.24 362.597 376.951 361.962 375.489 360.452C374.231 358.642 373.919 356.533 373.584 354.436C373.344 352.326 373.116 350.277 373.548 348.144C373.919 346.969 374.89 346.274 375.801 345.759C376.736 345.232 377.718 344.872 378.737 344.585C378.905 344.537 379.085 344.632 379.132 344.812C379.18 344.992 379.073 345.172 378.905 345.208H378.917Z" fill="#595CFF"/>
<path d="M408.626 348.336C408.518 350.912 408.326 353.645 408.734 356.161C408.806 356.449 408.841 356.653 409.021 356.892C410.375 358.391 412.401 360.128 414.354 360.368C415.169 360.368 415.133 361.614 414.318 361.566C411.981 361.195 410.519 359.721 408.997 358.223C408.494 357.695 407.979 357.084 407.919 356.317C407.607 353.597 407.931 350.984 408.17 348.3C408.194 348.024 408.626 348.06 408.602 348.336H408.626Z" fill="#595CFF"/>
<path d="M408.65 347.437C410.28 345.543 412.904 344.225 415.433 344.908C415.756 344.98 415.96 345.304 415.888 345.627C415.816 345.975 415.445 346.179 415.109 346.071C412.952 345.196 410.543 346.179 408.889 347.677C408.734 347.82 408.494 347.593 408.638 347.437H408.65Z" fill="#595CFF"/>
<path d="M429.419 372.616C428.939 374.545 428.052 376.643 428.364 378.62C430.162 380.645 432.427 383.006 434.848 384.073C435.638 384.277 435.291 385.475 434.512 385.223C431.732 383.929 429.802 381.544 427.849 379.279C427.729 379.123 427.585 378.884 427.549 378.716C427.393 376.535 428.352 374.498 428.999 372.472C429.095 372.209 429.503 372.352 429.407 372.616H429.419Z" fill="#595CFF"/>
<path d="M429.634 372.005C431.827 371.106 434.332 371.01 436.561 371.933C436.873 372.053 437.017 372.412 436.885 372.712C436.765 373.023 436.405 373.167 436.106 373.035C434.272 371.969 431.899 371.729 429.742 372.316C429.538 372.376 429.431 372.065 429.634 371.993V372.005Z" fill="#595CFF"/>
<path d="M441.043 419.966C440.109 423.801 439.138 428.535 444.615 428.619C445.106 428.619 445.118 429.398 444.615 429.41C440.408 429.541 438.958 426.581 439.953 422.83C440.157 421.824 440.456 420.853 440.816 419.894C440.84 419.834 440.9 419.798 440.96 419.822C441.019 419.846 441.043 419.906 441.031 419.966H441.043Z" fill="#595CFF"/>
<path d="M441.283 418.648C442.206 417.533 443.62 416.766 445.202 416.706C445.537 416.682 445.837 416.946 445.849 417.281C445.873 417.665 445.501 417.976 445.13 417.905C443.931 417.677 442.541 418.012 441.475 418.851C441.355 418.959 441.175 418.779 441.283 418.648Z" fill="#595CFF"/>
</svg>
