<svg width="740" height="956" viewBox="0 0 740 956" fill="none" xmlns="http://www.w3.org/2000/svg">
<path d="M389.749 689.719C389.18 690.665 388.347 692.015 387.251 693.696C384.958 697.212 381.518 702.175 376.942 707.94C367.785 719.476 354.107 734.193 336.008 746.951C304.655 769.052 252.744 814.066 208.74 853.486C186.723 873.21 166.66 891.556 152.102 904.97C144.823 911.678 138.919 917.153 134.835 920.951C132.793 922.85 131.207 924.33 130.13 925.336C129.788 925.655 129.496 925.927 129.259 926.149L-21.1306 877.767C-19.9509 876.832 -18.3924 875.597 -16.4919 874.093C-11.8221 870.395 -5.08535 865.068 3.17993 858.551C19.7108 845.514 42.3571 827.714 66.8196 808.658C115.764 770.53 171.921 727.417 200.942 707.339C206.929 703.196 212.503 698.56 217.474 693.17C234.993 674.172 249.777 657.672 260.183 645.921C265.386 640.045 269.494 635.356 272.302 632.135C273.706 630.525 274.786 629.283 275.514 628.442C275.57 628.378 275.623 628.315 275.675 628.255L389.749 689.719Z" stroke="#595CFF" stroke-width="3.59529" stroke-miterlimit="10"/>
<path d="M778.505 82.0974V521.487C777.33 521.362 775.655 521.183 773.543 520.955C769.102 520.475 762.729 519.778 754.997 518.913C739.533 517.182 718.64 514.775 696.925 512.07C675.207 509.365 652.678 506.362 633.935 503.441C615.113 500.508 600.313 497.685 593.907 495.369C581.038 490.715 573.684 484.008 569.554 478.55C567.483 475.813 566.211 473.375 565.461 471.641C565.39 471.478 565.326 471.319 565.264 471.169H571.049L571.077 471.168C592.123 470.524 606.579 466.502 615.823 462.59C620.442 460.634 623.752 458.709 625.927 457.255C627.014 456.528 627.817 455.919 628.357 455.483C628.627 455.265 628.831 455.09 628.972 454.966C629.042 454.903 629.098 454.853 629.137 454.817L629.199 454.759C629.201 454.757 629.203 454.755 629.204 454.754C629.205 454.753 629.207 454.752 629.207 454.752C629.208 454.75 629.189 454.73 627.964 453.453L629.209 454.75L629.261 454.7L629.308 454.646C641.004 441.481 651.039 419.072 658.117 400.17C661.671 390.679 664.506 382.001 666.451 375.695C667.424 372.541 668.175 369.979 668.684 368.204C668.938 367.316 669.132 366.625 669.262 366.155C669.327 365.92 669.377 365.74 669.41 365.618C669.427 365.557 669.439 365.511 669.448 365.479C669.452 365.464 669.455 365.452 669.457 365.444C669.458 365.44 669.46 365.437 669.46 365.434V365.432C669.46 365.432 669.461 365.431 667.725 364.965L669.461 365.43L669.475 365.381L669.485 365.331C674.295 342.223 673.835 326.005 672.126 315.497C671.272 310.244 670.108 306.425 669.14 303.893C668.656 302.628 668.222 301.685 667.901 301.047C667.74 300.728 667.608 300.485 667.512 300.315C667.481 300.261 667.453 300.215 667.43 300.176C636.609 227.525 638.562 172.795 648.116 136.306C652.9 118.038 659.598 104.307 665.084 95.1599C667.828 90.5861 670.267 87.1582 672.013 84.8835C672.886 83.7463 673.585 82.8975 674.062 82.3376C674.136 82.25 674.207 82.1709 674.271 82.0974H778.505Z" stroke="#595CFF" stroke-width="3.59529" stroke-miterlimit="10"/>
<path d="M712.237 150.226C712.237 150.226 712.297 150.293 712.356 150.379C712.321 150.386 712.603 150.596 712.167 150.903C711.855 150.982 711.896 150.916 711.807 150.907C710.016 150.059 708.209 148.716 706.565 147.642C701.918 144.488 696.514 140.059 690.546 139.819C682.29 139.182 675.591 144.863 671.811 150.914C667.724 157.316 666.394 164.806 665.175 172.086C661.558 196.053 665.462 221.679 679.79 242.811C686.603 253.894 699.982 265.531 713.809 258.439C717.928 254.777 722.137 250.802 724.616 246.036C724.792 245.632 725.449 245.92 725.287 246.286C723.042 251.408 718.995 255.671 714.824 259.61C699.989 268.308 684.588 255.669 677.154 244.17C661.935 222.635 657.801 196.181 661.806 171.599C663.182 164.003 664.705 156.171 669.22 149.531C673.581 142.865 681.383 136.734 690.722 137.663C698.85 138.337 704.23 143.981 709.902 148.538C710.494 149.021 711.469 149.815 712.081 150.21C712.024 150.215 712.086 150.161 711.82 150.234C711.418 150.535 711.683 150.693 711.628 150.677C711.49 150.492 711.53 150.204 711.775 150.119C711.939 150.055 712.137 150.105 712.248 150.227L712.237 150.226Z" fill="#595CFF"/>
<path d="M562.753 469.383C562.753 469.383 541.121 470.656 530.305 473.204C519.488 475.752 515.038 456.012 487.04 457.928C459.042 459.845 442.502 454.208 429.14 465.617C415.778 477.026 394.788 490.397 388.422 492.945C382.056 495.493 296.297 584.834 265.138 606.406C265.138 606.406 265.498 632.175 310.678 672.919C355.858 713.662 395.167 710.669 395.167 710.669C395.167 710.669 407.109 731.635 407.751 792.762L402.426 946.76L812.82 929.982L780.315 517.139C780.315 517.139 586.943 508.864 562.764 469.394L562.753 469.383Z" fill="#E5E5FF" stroke="#595CFF" stroke-width="3.59529" stroke-miterlimit="10"/>
<path opacity="0.6" d="M446.198 458.638C446.198 458.638 434.875 468.108 429.782 485.932C424.69 503.756 417.062 531.129 417.062 538.142C417.062 545.154 407.151 627.378 407.151 627.378C407.151 627.378 389.075 680.181 394.798 709.471" stroke="#595CFF" stroke-width="2.39686" stroke-miterlimit="10" stroke-linecap="round"/>
</svg>
