<svg width="740" height="956" viewBox="0 0 740 956" fill="none" xmlns="http://www.w3.org/2000/svg">
<path d="M323.022 951.422C323.022 951.422 332.405 885.413 343.659 752.435C343.659 752.435 345.348 728.574 341.286 709.795C341.286 709.795 338.326 703.275 337.559 698.458C337.559 698.458 329.697 695.833 322.41 687.12C315.124 678.408 309.216 665.549 308.88 663.775C308.545 662.001 304.734 642.287 304.734 642.287C304.734 642.287 301.857 633.742 301.857 630.698C301.857 627.654 301.522 615.55 300.503 611.835C299.484 608.12 295.17 594.578 295.17 594.578C295.17 594.578 290.604 581.635 289.502 569.626C288.399 557.618 287.045 557.786 288.567 551.782C290.089 545.778 296.692 542.386 303.116 544.004C309.539 545.622 317.749 554.742 318.851 567.685C319.954 580.628 320.709 584.523 321.811 587.567C322.914 590.611 326.976 602.799 328.331 604.489C329.685 606.178 332.309 609.906 333.748 609.654C335.186 609.402 340.603 610.241 340.603 610.241C340.603 610.241 348.464 612.183 348.98 610.157C349.495 608.132 355.235 602.547 355.835 597.717C356.434 592.888 357.86 586.548 360.065 582.234C360.065 582.234 360.916 573.437 362.438 569.123C362.438 569.123 361.252 551.614 364.643 536.382C364.643 536.382 364.979 529.275 364.643 523.774C364.308 518.274 363.624 512.437 364.391 505.247C364.943 500.045 364.116 495.204 363.624 492.915C363.361 491.692 363.193 490.458 363.145 489.2C362.893 483.124 363.169 467.053 372.517 463.361C384.106 458.795 383.602 473.344 383.602 473.344C383.602 473.344 383.482 480.163 384.969 484.442C385.64 486.371 386.047 488.373 386.047 490.41C386.023 494.593 386.011 500.848 386.071 501.519C386.155 502.538 389.618 517.507 390.469 520.634C391.32 523.762 392.327 504.563 394.364 496.953C394.364 496.953 392.591 482.572 396.222 473.356C399.853 464.14 408.398 457.621 413.983 461.18C419.567 464.74 417.53 472.266 417.53 473.62C417.53 474.974 416.092 480.391 416.26 482.333C416.427 484.274 416.679 488.421 415.157 498.487C415.157 498.487 414.57 504.827 415.576 508.722C415.576 508.722 416.763 494.425 423.103 489.523C429.442 484.622 435.878 488.001 437.568 490.11C439.257 492.22 436.633 502.634 436.633 502.634C436.633 502.634 435.782 514.475 435.195 517.267C434.608 520.059 434.428 529.623 434.428 533.853C434.428 538.084 434.512 538.587 434.512 538.587C434.512 538.587 437.22 534.273 441.367 534.944C445.513 535.615 447.886 535.962 447.79 539.09C447.694 542.218 446.436 548.905 446.268 553.639C446.1 558.373 445.25 569.626 445.25 571.568C445.25 573.509 444.231 586.117 443.14 592.552C442.05 598.988 439.162 613.872 435.183 625.545C431.204 637.218 430.617 645.595 430.197 649.657C429.778 653.72 422.156 680.709 422.156 680.709C422.156 680.709 417.841 696.025 421.137 706.427C424.433 716.83 428.328 737.047 429.43 750.925C429.43 750.925 429.49 761.136 451.146 827.457C472.801 893.778 490.85 949.277 490.85 949.277" stroke="#595CFF" stroke-width="3.3048" stroke-miterlimit="10"/>
<path d="M391.56 520.215C392.758 523.726 394.149 527.321 394.233 531.097C394.304 533.374 394.748 546.568 394.832 549.157C395.012 553.375 395.083 559.391 395.359 563.55C395.838 568.104 396.03 573.353 398.739 577.164C399.062 577.452 398.571 578.015 398.235 577.632C395.179 573.593 394.916 568.44 394.245 563.646C393.837 559.475 393.597 553.399 393.286 549.157L392.387 534.716C392.231 532.69 392.243 529.778 391.62 527.801C391.009 525.548 390.038 524.11 389.175 521.917C388.612 520.442 390.997 518.717 391.572 520.227L391.56 520.215Z" fill="#595CFF"/>
<path d="M416.762 508.626C417.014 513.036 417.625 521.042 417.685 525.332C417.589 533.457 417.985 541.511 418.009 549.684C417.589 556.539 416.283 563.298 416.151 570.07C416.834 575.882 417.589 581.922 419.027 587.639C419.279 588.429 419.507 589.328 419.938 589.892C420.262 590.311 419.579 590.874 419.243 590.395C418.2 588.789 417.985 587.135 417.505 585.385C416.391 580.316 415.588 575.331 414.917 570.141C414.917 563.238 416.091 556.455 416.391 549.672C416.223 541.643 415.672 533.446 415.612 525.344C415.468 521.162 414.713 513.06 414.377 508.806C414.246 507.248 416.63 506.996 416.762 508.614V508.626Z" fill="#595CFF"/>
<path d="M435.709 538.671C435.302 544.855 434.966 551.039 434.99 557.223C434.835 563.55 433.852 569.686 432.845 575.894C431.743 582.018 430.556 588.13 429.885 594.23C429.657 597.765 430.017 601.9 431.611 605.076C433.025 606.862 435.014 609.103 434.859 611.523C434.751 611.931 434.116 611.835 434.175 611.38C434.175 610.84 433.756 610.121 433.408 609.498C432.282 607.425 430.077 605.939 429.538 603.578C426.709 594.47 429.885 584.715 431.024 575.594C431.898 569.53 432.773 563.323 432.797 557.223C432.689 550.979 432.977 544.735 433.325 538.515C433.432 536.969 435.805 537.053 435.721 538.671H435.709Z" fill="#595CFF"/>
<path d="M287.704 554.034C292.449 552.165 298.178 550.151 303.044 552.668C307.058 555.437 307.849 560.961 306.747 565.407C306.639 565.827 305.992 565.659 306.112 565.24C307.658 557.282 303.727 550.751 294.966 553.052C292.665 553.543 290.388 554.346 288.267 555.329C287.428 555.724 286.829 554.418 287.692 554.034H287.704Z" fill="#595CFF"/>
<path d="M291.838 570.741C295.925 571.748 300.767 571.736 304.206 569.015C304.554 568.74 304.985 569.291 304.626 569.554C301.941 571.76 298.334 572.335 294.954 572.083C293.828 571.999 292.725 571.843 291.599 571.556C291.371 571.496 291.227 571.268 291.287 571.04C291.347 570.801 291.599 570.669 291.826 570.741H291.838Z" fill="#595CFF"/>
<path d="M380.115 465.051C378.413 465.602 376.124 466.441 375.465 468.191C375.249 469.09 375.249 470.144 375.273 471.151C375.453 474.063 375.681 477.347 377.274 479.84C377.886 480.595 378.868 480.918 379.719 481.362C380.63 481.793 381.577 482.153 382.548 482.404C382.811 482.464 382.727 482.872 382.464 482.824C380.438 482.44 378.149 481.805 376.687 480.295C375.429 478.485 375.117 476.376 374.782 474.279C374.542 472.17 374.314 470.12 374.746 467.987C375.117 466.813 376.088 466.118 376.999 465.602C377.934 465.075 378.916 464.715 379.935 464.428C380.103 464.38 380.283 464.476 380.33 464.656C380.378 464.835 380.271 465.015 380.103 465.051H380.115Z" fill="#595CFF"/>
<path d="M409.824 468.179C409.716 470.756 409.524 473.488 409.932 476.005C410.004 476.293 410.039 476.496 410.219 476.736C411.573 478.234 413.599 479.972 415.552 480.211C416.367 480.211 416.331 481.458 415.516 481.41C413.179 481.038 411.717 479.564 410.195 478.066C409.692 477.539 409.177 476.928 409.117 476.161C408.805 473.44 409.129 470.828 409.368 468.143C409.392 467.868 409.824 467.904 409.8 468.179H409.824Z" fill="#595CFF"/>
<path d="M409.848 467.28C411.478 465.387 414.103 464.068 416.631 464.752C416.955 464.823 417.159 465.147 417.087 465.471C417.015 465.818 416.643 466.022 416.308 465.914C414.151 465.039 411.742 466.022 410.088 467.52C409.932 467.664 409.692 467.436 409.836 467.28H409.848Z" fill="#595CFF"/>
<path d="M430.617 492.459C430.138 494.388 429.251 496.486 429.562 498.463C431.36 500.488 433.625 502.849 436.046 503.916C436.837 504.12 436.489 505.318 435.71 505.066C432.93 503.772 431 501.387 429.047 499.122C428.927 498.966 428.783 498.727 428.747 498.559C428.592 496.378 429.55 494.341 430.197 492.315C430.293 492.052 430.701 492.195 430.605 492.459H430.617Z" fill="#595CFF"/>
<path d="M430.832 491.848C433.025 490.949 435.53 490.853 437.759 491.776C438.07 491.896 438.214 492.255 438.082 492.555C437.962 492.867 437.603 493.01 437.303 492.879C435.47 491.812 433.097 491.572 430.94 492.16C430.736 492.219 430.628 491.908 430.832 491.836V491.848Z" fill="#595CFF"/>
<path d="M442.241 539.809C441.306 543.644 440.336 548.378 445.812 548.462C446.304 548.462 446.316 549.241 445.812 549.253C441.606 549.384 440.156 546.424 441.151 542.673C441.354 541.667 441.654 540.696 442.013 539.737C442.037 539.677 442.097 539.641 442.157 539.665C442.217 539.689 442.241 539.749 442.229 539.809H442.241Z" fill="#595CFF"/>
<path d="M442.481 538.491C443.404 537.376 444.818 536.609 446.4 536.549C446.736 536.525 447.035 536.789 447.047 537.125C447.071 537.508 446.7 537.82 446.328 537.748C445.13 537.52 443.74 537.856 442.673 538.695C442.553 538.802 442.374 538.623 442.481 538.491Z" fill="#595CFF"/>
</svg>
