<svg width="740" height="956" viewBox="0 0 740 956" fill="none" xmlns="http://www.w3.org/2000/svg">
<path d="M429.01 197.142H313.074C304.569 197.142 297.674 204.034 297.674 212.535C297.674 221.037 304.569 227.929 313.074 227.929H429.01C437.515 227.929 444.41 221.037 444.41 212.535C444.41 204.034 437.515 197.142 429.01 197.142Z" fill="white" stroke="black" stroke-width="1.19843" stroke-miterlimit="10"/>
<path d="M468.606 247.56H465.011V234.437C465.011 223.351 455.987 214.327 444.901 214.327V210.732C457.976 210.732 468.606 221.362 468.606 234.437V247.56Z" fill="white" stroke="black" stroke-width="1.19843" stroke-miterlimit="10"/>
<path d="M273.969 247.56H277.564V234.437C277.564 223.351 286.588 214.327 297.674 214.327V210.732C284.599 210.732 273.969 221.362 273.969 234.437V247.56Z" fill="white" stroke="black" stroke-width="1.19843" stroke-miterlimit="10"/>

<path d="M354.983 247.56H572.618C600.325 247.56 622.784 270.018 622.784 297.726V342.307V391.671C622.784 391.671 623.803 409.983 602.482 420.134C582.72 429.541 585.896 459.73 585.896 459.73V506.085V571.052C586.16 583.36 592.823 591.797 603.381 597.897C614.275 602.379 622.784 613.237 622.784 624.286C622.784 624.286 622.784 705.288 622.784 711.82C622.784 718.351 614.203 758.055 574.439 758.055H479.296C469.636 756.677 461.643 752.674 456.286 744.525C449.91 731.702 441.222 724.679 430.112 723.768H421.507H407.054H314.56C303.45 724.679 294.773 731.702 288.386 744.525C283.029 752.686 275.035 756.677 265.376 758.055H170.269C130.505 758.067 121.924 718.363 121.924 711.82C121.924 705.276 121.924 624.286 121.924 624.286C121.924 613.237 130.433 602.367 141.326 597.897C151.885 591.797 158.548 583.36 158.812 571.052V506.085V459.73C158.812 459.73 161.999 429.553 142.225 420.134C120.917 409.983 121.936 391.671 121.936 391.671V297.726C121.936 270.018 144.394 247.56 172.102 247.56H390.936" fill="white"/>
<path d="M354.983 247.56H572.618C600.325 247.56 622.784 270.018 622.784 297.726V342.307V391.671C622.784 391.671 623.803 409.983 602.482 420.134C582.72 429.541 585.896 459.73 585.896 459.73V506.085V571.052C586.16 583.36 592.823 591.797 603.381 597.897C614.275 602.379 622.784 613.237 622.784 624.286C622.784 624.286 622.784 705.288 622.784 711.82C622.784 718.351 614.203 758.055 574.439 758.055H479.296C469.636 756.677 461.643 752.674 456.286 744.525C449.91 731.702 441.222 724.679 430.112 723.768H421.507H407.054H314.56C303.45 724.679 294.773 731.702 288.386 744.525C283.029 752.686 275.035 756.677 265.376 758.055H170.269C130.505 758.067 121.924 718.363 121.924 711.82C121.924 705.276 121.924 624.286 121.924 624.286C121.924 613.237 130.433 602.367 141.326 597.897C151.885 591.797 158.548 583.36 158.812 571.052V506.085V459.73C158.812 459.73 161.999 429.553 142.225 420.134C120.917 409.983 121.936 391.671 121.936 391.671V297.726C121.936 270.018 144.394 247.56 172.102 247.56H390.936" fill="none" stroke="#000000" stroke-width="5" stroke-linecap="round" stroke-linejoin="round"/>
<path d="M501.491 425.455C507.421 425.455 512.229 430.262 512.229 436.192V695.258C512.229 701.188 507.422 705.995 501.491 705.995H243.289C237.359 705.995 232.552 701.188 232.552 695.258V436.192C232.552 430.262 237.359 425.455 243.289 425.455H501.491Z" fill="#FBFBFF" stroke="black" stroke-width="2.39686" stroke-miterlimit="10"/>
<path d="M295.098 302.376C296.64 302.376 297.89 301.126 297.89 299.583C297.89 298.041 296.64 296.791 295.098 296.791C293.556 296.791 292.306 298.041 292.306 299.583C292.306 301.126 293.556 302.376 295.098 302.376Z" stroke="#C5C5D3" stroke-width="1.19843" stroke-miterlimit="10"/>
<path d="M273.526 398.657C275.068 398.657 276.318 397.407 276.318 395.865C276.318 394.323 275.068 393.073 273.526 393.073C271.984 393.073 270.733 394.323 270.733 395.865C270.733 397.407 271.984 398.657 273.526 398.657Z" stroke="#C5C5D3" stroke-width="1.19843" stroke-miterlimit="10"/>
<path d="M210.057 302.376C211.599 302.376 212.849 301.126 212.849 299.583C212.849 298.041 211.599 296.791 210.057 296.791C208.515 296.791 207.265 298.041 207.265 299.583C207.265 301.126 208.515 302.376 210.057 302.376Z" stroke="#C5C5D3" stroke-width="1.19843" stroke-miterlimit="10"/>
<path d="M210.057 362.285C211.599 362.285 212.849 361.035 212.849 359.493C212.849 357.951 211.599 356.701 210.057 356.701C208.515 356.701 207.265 357.951 207.265 359.493C207.265 361.035 208.515 362.285 210.057 362.285Z" stroke="#C5C5D3" stroke-width="1.19843" stroke-miterlimit="10"/>
<path d="M252.398 326.716C253.94 326.716 255.19 325.466 255.19 323.924C255.19 322.382 253.94 321.131 252.398 321.131C250.856 321.131 249.605 322.382 249.605 323.924C249.605 325.466 250.856 326.716 252.398 326.716Z" stroke="#C5C5D3" stroke-width="1.19843" stroke-miterlimit="10"/>
<path d="M335.844 326.716C337.386 326.716 338.636 325.466 338.636 323.924C338.636 322.382 337.386 321.131 335.844 321.131C334.302 321.131 333.052 322.382 333.052 323.924C333.052 325.466 334.302 326.716 335.844 326.716Z" stroke="#C5C5D3" stroke-width="1.19843" stroke-miterlimit="10"/>
<path d="M335.844 377.038C337.386 377.038 338.636 375.788 338.636 374.245C338.636 372.703 337.386 371.453 335.844 371.453C334.302 371.453 333.052 372.703 333.052 374.245C333.052 375.788 334.302 377.038 335.844 377.038Z" stroke="#C5C5D3" stroke-width="1.19843" stroke-miterlimit="10"/>
<path d="M449.731 302.376C451.273 302.376 452.523 301.126 452.523 299.583C452.523 298.041 451.273 296.791 449.731 296.791C448.189 296.791 446.938 298.041 446.938 299.583C446.938 301.126 448.189 302.376 449.731 302.376Z" stroke="#C5C5D3" stroke-width="1.19843" stroke-miterlimit="10"/>
<path d="M471.303 398.657C472.845 398.657 474.095 397.407 474.095 395.865C474.095 394.323 472.845 393.073 471.303 393.073C469.761 393.073 468.511 394.323 468.511 395.865C468.511 397.407 469.761 398.657 471.303 398.657Z" stroke="#C5C5D3" stroke-width="1.19843" stroke-miterlimit="10"/>
<path d="M534.784 302.376C536.326 302.376 537.576 301.126 537.576 299.583C537.576 298.041 536.326 296.791 534.784 296.791C533.241 296.791 531.991 298.041 531.991 299.583C531.991 301.126 533.241 302.376 534.784 302.376Z" stroke="#C5C5D3" stroke-width="1.19843" stroke-miterlimit="10"/>
<path d="M492.443 326.716C493.985 326.716 495.235 325.466 495.235 323.924C495.235 322.382 493.985 321.131 492.443 321.131C490.901 321.131 489.65 322.382 489.65 323.924C489.65 325.466 490.901 326.716 492.443 326.716Z" stroke="#C5C5D3" stroke-width="1.19843" stroke-miterlimit="10"/>
<path d="M408.996 326.716C410.539 326.716 411.789 325.466 411.789 323.924C411.789 322.382 410.539 321.131 408.996 321.131C407.454 321.131 406.204 322.382 406.204 323.924C406.204 325.466 407.454 326.716 408.996 326.716Z" stroke="#C5C5D3" stroke-width="1.19843" stroke-miterlimit="10"/>
<path d="M408.996 377.038C410.539 377.038 411.789 375.788 411.789 374.245C411.789 372.703 410.539 371.453 408.996 371.453C407.454 371.453 406.204 372.703 406.204 374.245C406.204 375.788 407.454 377.038 408.996 377.038Z" stroke="#C5C5D3" stroke-width="1.19843" stroke-miterlimit="10"/>
<path d="M184.363 450.358C185.905 450.358 187.155 449.108 187.155 447.566C187.155 446.024 185.905 444.773 184.363 444.773C182.82 444.773 181.57 446.024 181.57 447.566C181.57 449.108 182.82 450.358 184.363 450.358Z" stroke="#C5C5D3" stroke-width="1.19843" stroke-miterlimit="10"/>
<path d="M209.53 489.906C211.072 489.906 212.322 488.656 212.322 487.114C212.322 485.571 211.072 484.321 209.53 484.321C207.987 484.321 206.737 485.571 206.737 487.114C206.737 488.656 207.987 489.906 209.53 489.906Z" stroke="#C5C5D3" stroke-width="1.19843" stroke-miterlimit="10"/>
<path d="M184.363 529.454C185.905 529.454 187.155 528.204 187.155 526.662C187.155 525.12 185.905 523.87 184.363 523.87C182.82 523.87 181.57 525.12 181.57 526.662C181.57 528.204 182.82 529.454 184.363 529.454Z" stroke="#C5C5D3" stroke-width="1.19843" stroke-miterlimit="10"/>
<path d="M202.339 569.003C203.881 569.003 205.132 567.752 205.132 566.21C205.132 564.668 203.881 563.418 202.339 563.418C200.797 563.418 199.547 564.668 199.547 566.21C199.547 567.752 200.797 569.003 202.339 569.003Z" stroke="#C5C5D3" stroke-width="1.19843" stroke-miterlimit="10"/>
<path d="M209.314 646.937C210.856 646.937 212.106 645.687 212.106 644.144C212.106 642.602 210.856 641.352 209.314 641.352C207.772 641.352 206.521 642.602 206.521 644.144C206.521 645.687 207.772 646.937 209.314 646.937Z" stroke="#C5C5D3" stroke-width="1.19843" stroke-miterlimit="10"/>
<path d="M184.147 607.388C185.689 607.388 186.939 606.138 186.939 604.596C186.939 603.054 185.689 601.804 184.147 601.804C182.605 601.804 181.354 603.054 181.354 604.596C181.354 606.138 182.605 607.388 184.147 607.388Z" stroke="#C5C5D3" stroke-width="1.19843" stroke-miterlimit="10"/>
<path d="M184.279 686.664C185.821 686.664 187.071 685.414 187.071 683.872C187.071 682.33 185.821 681.08 184.279 681.08C182.737 681.08 181.486 682.33 181.486 683.872C181.486 685.414 182.737 686.664 184.279 686.664Z" stroke="#C5C5D3" stroke-width="1.19843" stroke-miterlimit="10"/>
<path d="M233.414 729.808C234.957 729.808 236.207 728.558 236.207 727.016C236.207 725.473 234.957 724.223 233.414 724.223C231.872 724.223 230.622 725.473 230.622 727.016C230.622 728.558 231.872 729.808 233.414 729.808Z" stroke="#C5C5D3" stroke-width="1.19843" stroke-miterlimit="10"/>
<path d="M510.252 729.808C511.794 729.808 513.045 728.558 513.045 727.016C513.045 725.473 511.794 724.223 510.252 724.223C508.71 724.223 507.46 725.473 507.46 727.016C507.46 728.558 508.71 729.808 510.252 729.808Z" stroke="#C5C5D3" stroke-width="1.19843" stroke-miterlimit="10"/>
<path d="M165.919 636.953C167.137 636.953 168.124 635.703 168.124 634.161C168.124 632.619 167.137 631.369 165.919 631.369C164.701 631.369 163.714 632.619 163.714 634.161C163.714 635.703 164.701 636.953 165.919 636.953Z" stroke="#C5C5D3" stroke-width="1.19843" stroke-miterlimit="10"/>
<path d="M135.958 699.955C137.176 699.955 138.163 698.705 138.163 697.163C138.163 695.621 137.176 694.371 135.958 694.371C134.74 694.371 133.753 695.621 133.753 697.163C133.753 698.705 134.74 699.955 135.958 699.955Z" stroke="#C5C5D3" stroke-width="1.19843" stroke-miterlimit="10"/>
<path d="M165.919 384.768C167.137 384.768 168.124 383.518 168.124 381.975C168.124 380.433 167.137 379.183 165.919 379.183C164.701 379.183 163.714 380.433 163.714 381.975C163.714 383.518 164.701 384.768 165.919 384.768Z" stroke="#C5C5D3" stroke-width="1.19843" stroke-miterlimit="10"/>
<path d="M135.958 321.766C137.176 321.766 138.163 320.516 138.163 318.974C138.163 317.432 137.176 316.182 135.958 316.182C134.74 316.182 133.753 317.432 133.753 318.974C133.753 320.516 134.74 321.766 135.958 321.766Z" stroke="#C5C5D3" stroke-width="1.19843" stroke-miterlimit="10"/>
<path d="M535.503 647.943C537.045 647.943 538.296 646.693 538.296 645.151C538.296 643.609 537.045 642.358 535.503 642.358C533.961 642.358 532.711 643.609 532.711 645.151C532.711 646.693 533.961 647.943 535.503 647.943Z" stroke="#C5C5D3" stroke-width="1.19843" stroke-miterlimit="10"/>
<path d="M560.67 608.395C562.212 608.395 563.463 607.145 563.463 605.602C563.463 604.06 562.212 602.81 560.67 602.81C559.128 602.81 557.878 604.06 557.878 605.602C557.878 607.145 559.128 608.395 560.67 608.395Z" stroke="#C5C5D3" stroke-width="1.19843" stroke-miterlimit="10"/>
<path d="M541.495 568.847C543.038 568.847 544.288 567.597 544.288 566.055C544.288 564.512 543.038 563.262 541.495 563.262C539.953 563.262 538.703 564.512 538.703 566.055C538.703 567.597 539.953 568.847 541.495 568.847Z" stroke="#C5C5D3" stroke-width="1.19843" stroke-miterlimit="10"/>
<path d="M560.67 529.299C562.212 529.299 563.463 528.048 563.463 526.506C563.463 524.964 562.212 523.714 560.67 523.714C559.128 523.714 557.878 524.964 557.878 526.506C557.878 528.048 559.128 529.299 560.67 529.299Z" stroke="#C5C5D3" stroke-width="1.19843" stroke-miterlimit="10"/>
<path d="M560.454 451.377C561.997 451.377 563.247 450.127 563.247 448.584C563.247 447.042 561.997 445.792 560.454 445.792C558.912 445.792 557.662 447.042 557.662 448.584C557.662 450.127 558.912 451.377 560.454 451.377Z" stroke="#C5C5D3" stroke-width="1.19843" stroke-miterlimit="10"/>
<path d="M535.287 490.925C536.83 490.925 538.08 489.674 538.08 488.132C538.08 486.59 536.83 485.34 535.287 485.34C533.745 485.34 532.495 486.59 532.495 488.132C532.495 489.674 533.745 490.925 535.287 490.925Z" stroke="#C5C5D3" stroke-width="1.19843" stroke-miterlimit="10"/>
<path d="M535.419 362.513C536.961 362.513 538.212 361.263 538.212 359.721C538.212 358.178 536.961 356.928 535.419 356.928C533.877 356.928 532.627 358.178 532.627 359.721C532.627 361.263 533.877 362.513 535.419 362.513Z" stroke="#C5C5D3" stroke-width="1.19843" stroke-miterlimit="10"/>
<path d="M579.377 385.175C580.595 385.175 581.582 383.925 581.582 382.383C581.582 380.841 580.595 379.591 579.377 379.591C578.159 379.591 577.172 380.841 577.172 382.383C577.172 383.925 578.159 385.175 579.377 385.175Z" stroke="#C5C5D3" stroke-width="1.19843" stroke-miterlimit="10"/>
<path d="M578.179 636.845C579.397 636.845 580.384 635.595 580.384 634.053C580.384 632.511 579.397 631.261 578.179 631.261C576.961 631.261 575.974 632.511 575.974 634.053C575.974 635.595 576.961 636.845 578.179 636.845Z" stroke="#C5C5D3" stroke-width="1.19843" stroke-miterlimit="10"/>
<path d="M559.16 687.455C560.702 687.455 561.952 686.205 561.952 684.663C561.952 683.121 560.702 681.871 559.16 681.871C557.617 681.871 556.367 683.121 556.367 684.663C556.367 686.205 557.617 687.455 559.16 687.455Z" stroke="#C5C5D3" stroke-width="1.19843" stroke-miterlimit="10"/>
<path d="M608.296 701.837C609.514 701.837 610.501 700.586 610.501 699.044C610.501 697.502 609.514 696.252 608.296 696.252C607.078 696.252 606.091 697.502 606.091 699.044C606.091 700.586 607.078 701.837 608.296 701.837Z" stroke="#C5C5D3" stroke-width="1.19843" stroke-miterlimit="10"/>
<path d="M609.267 322.114C610.484 322.114 611.472 320.864 611.472 319.322C611.472 317.779 610.484 316.529 609.267 316.529C608.049 316.529 607.062 317.779 607.062 319.322C607.062 320.864 608.049 322.114 609.267 322.114Z" stroke="#C5C5D3" stroke-width="1.19843" stroke-miterlimit="10"/>
<path d="M539.787 394.493L538.491 393.197C537.105 391.811 534.859 391.812 533.474 393.197L520.526 406.145C519.14 407.531 519.14 409.777 520.526 411.162L521.822 412.459C523.207 413.844 525.453 413.844 526.839 412.459L539.787 399.51C541.173 398.125 541.173 395.879 539.787 394.493Z" fill="#F5F6FC" stroke="black" stroke-width="1.19843" stroke-miterlimit="10"/>
<path d="M206.623 392.875L205.327 394.172C203.941 395.557 203.941 397.803 205.327 399.189L218.275 412.137C219.661 413.522 221.907 413.522 223.292 412.137L224.589 410.841C225.974 409.455 225.974 407.209 224.589 405.824L211.64 392.875C210.255 391.49 208.009 391.49 206.623 392.875Z" fill="#F5F6FC" stroke="black" stroke-width="1.19843" stroke-miterlimit="10"/>
<path d="M522.204 711.043L520.908 712.339C519.522 713.725 519.522 715.971 520.908 717.356L533.856 730.305C535.242 731.69 537.488 731.69 538.873 730.305L540.17 729.008C541.555 727.623 541.555 725.377 540.17 723.991L527.221 711.043C525.836 709.657 523.59 709.657 522.204 711.043Z" fill="#F5F6FC" stroke="black" stroke-width="1.19843" stroke-miterlimit="10"/>
<path d="M224.6 712.332L223.303 711.036C221.918 709.65 219.672 709.65 218.287 711.036L205.338 723.984C203.953 725.37 203.953 727.616 205.338 729.001L206.635 730.298C208.02 731.683 210.266 731.683 211.651 730.298L224.6 717.349C225.985 715.964 225.985 713.718 224.6 712.332Z" fill="#F5F6FC" stroke="black" stroke-width="1.19843" stroke-miterlimit="10"/>
<path d="M373.583 389.49H371.749C369.79 389.49 368.202 391.078 368.202 393.037V411.96C368.202 413.919 369.79 415.508 371.749 415.508H373.583C375.542 415.508 377.13 413.919 377.13 411.96V393.037C377.13 391.078 375.542 389.49 373.583 389.49Z" fill="#F5F6FC" stroke="black" stroke-width="1.19843" stroke-miterlimit="10"/>
<path d="M369.963 432.489H322.757V436.085H369.963V432.489Z" fill="#C5C5D3"/>
<path d="M421.412 698.96H420.189V695.005H421.46C421.843 695.005 422.167 695.089 422.442 695.245C422.718 695.401 422.922 695.629 423.066 695.928C423.209 696.228 423.281 696.575 423.281 696.983C423.281 697.39 423.209 697.75 423.066 698.049C422.922 698.349 422.706 698.577 422.419 698.733C422.131 698.888 421.795 698.972 421.4 698.972L421.412 698.96ZM420.669 698.529H421.376C421.699 698.529 421.975 698.469 422.191 698.337C422.407 698.205 422.562 698.025 422.67 697.798C422.778 697.57 422.826 697.282 422.826 696.959C422.826 696.635 422.778 696.36 422.67 696.132C422.562 695.904 422.407 695.724 422.203 695.593C421.999 695.473 421.735 695.401 421.424 695.401H420.657V698.505L420.669 698.529Z" fill="#C5C5D3"/>
<path d="M427.44 696.983C427.44 697.403 427.368 697.762 427.212 698.062C427.056 698.361 426.853 698.601 426.589 698.769C426.325 698.937 426.026 699.02 425.69 699.02C425.355 699.02 425.055 698.937 424.791 698.769C424.528 698.601 424.324 698.373 424.168 698.062C424.012 697.762 423.94 697.391 423.94 696.983C423.94 696.576 424.012 696.204 424.168 695.905C424.324 695.605 424.528 695.365 424.791 695.197C425.055 695.03 425.355 694.946 425.69 694.946C426.026 694.946 426.325 695.03 426.589 695.197C426.853 695.365 427.056 695.593 427.212 695.905C427.356 696.204 427.44 696.564 427.44 696.983ZM426.984 696.983C426.984 696.636 426.925 696.348 426.817 696.12C426.709 695.881 426.553 695.701 426.349 695.581C426.158 695.461 425.942 695.401 425.702 695.401C425.462 695.401 425.247 695.461 425.055 695.581C424.863 695.701 424.707 695.881 424.588 696.12C424.48 696.36 424.42 696.648 424.42 696.983C424.42 697.319 424.48 697.618 424.588 697.846C424.707 698.086 424.851 698.265 425.055 698.385C425.247 698.505 425.462 698.565 425.702 698.565C425.942 698.565 426.158 698.505 426.349 698.385C426.541 698.265 426.697 698.086 426.817 697.846C426.937 697.606 426.984 697.319 426.984 696.983Z" fill="#C5C5D3"/>
<path d="M432.917 694.994V698.948H432.45L430.293 695.845H430.257V698.948H429.777V694.994H430.245L432.414 698.11H432.45V694.994H432.917Z" fill="#C5C5D3"/>
<path d="M437.219 696.983C437.219 697.403 437.147 697.762 436.991 698.062C436.836 698.361 436.632 698.601 436.368 698.769C436.105 698.937 435.805 699.02 435.469 699.02C435.134 699.02 434.834 698.937 434.571 698.769C434.307 698.601 434.103 698.373 433.947 698.062C433.792 697.762 433.72 697.391 433.72 696.983C433.72 696.576 433.792 696.204 433.947 695.905C434.103 695.605 434.307 695.365 434.571 695.197C434.834 695.03 435.134 694.946 435.469 694.946C435.805 694.946 436.105 695.03 436.368 695.197C436.632 695.365 436.836 695.593 436.991 695.905C437.135 696.204 437.219 696.564 437.219 696.983ZM436.752 696.983C436.752 696.636 436.692 696.348 436.584 696.12C436.476 695.881 436.32 695.701 436.117 695.581C435.925 695.461 435.709 695.401 435.469 695.401C435.23 695.401 435.014 695.461 434.822 695.581C434.631 695.701 434.475 695.881 434.355 696.12C434.247 696.36 434.187 696.648 434.187 696.983C434.187 697.319 434.247 697.618 434.355 697.846C434.475 698.086 434.619 698.265 434.822 698.385C435.014 698.505 435.23 698.565 435.469 698.565C435.709 698.565 435.925 698.505 436.117 698.385C436.308 698.265 436.464 698.086 436.584 697.846C436.704 697.606 436.752 697.319 436.752 696.983Z" fill="#C5C5D3"/>
<path d="M437.639 695.425V694.994H440.611V695.425H439.364V698.96H438.885V695.425H437.639Z" fill="#C5C5D3"/>
<path d="M442.888 698.96V695.005H445.273V695.437H443.367V696.779H445.153V697.199H443.367V698.541H445.309V698.96H442.888Z" fill="#C5C5D3"/>
<path d="M446.375 694.994L447.393 696.647H447.429L448.448 694.994H449.011L447.765 696.971L449.011 698.948H448.448L447.429 697.331H447.393L446.375 698.948H445.812L447.082 696.971L445.812 694.994H446.375Z" fill="#C5C5D3"/>
<path d="M452.763 696.24H452.283C452.259 696.108 452.212 695.976 452.14 695.88C452.068 695.784 451.984 695.689 451.888 695.617C451.792 695.545 451.672 695.497 451.552 695.461C451.433 695.425 451.301 695.413 451.169 695.413C450.929 695.413 450.714 695.473 450.522 695.593C450.33 695.713 450.174 695.892 450.054 696.132C449.946 696.372 449.887 696.659 449.887 696.995C449.887 697.33 449.946 697.63 450.054 697.858C450.174 698.097 450.318 698.277 450.522 698.397C450.714 698.517 450.929 698.577 451.169 698.577C451.301 698.577 451.421 698.565 451.552 698.529C451.672 698.493 451.78 698.433 451.888 698.373C451.984 698.301 452.068 698.217 452.14 698.109C452.212 698.002 452.259 697.882 452.283 697.75H452.763C452.727 697.954 452.667 698.133 452.559 698.289C452.463 698.445 452.343 698.589 452.2 698.697C452.056 698.804 451.9 698.888 451.72 698.948C451.54 699.008 451.361 699.032 451.157 699.032C450.821 699.032 450.522 698.948 450.258 698.78C449.994 698.613 449.791 698.385 449.635 698.073C449.479 697.774 449.407 697.402 449.407 696.995C449.407 696.587 449.479 696.216 449.635 695.916C449.791 695.617 449.994 695.377 450.258 695.209C450.522 695.041 450.821 694.958 451.157 694.958C451.361 694.958 451.54 694.981 451.72 695.041C451.9 695.101 452.056 695.185 452.2 695.293C452.343 695.401 452.463 695.545 452.559 695.701C452.655 695.856 452.715 696.036 452.763 696.24Z" fill="#C5C5D3"/>
<path d="M453.53 698.96V695.005H455.915V695.437H454.01V696.779H455.795V697.199H454.01V698.541H455.951V698.96H453.53Z" fill="#C5C5D3"/>
<path d="M456.789 698.96V695.005H459.174V695.437H457.268V696.779H459.054V697.199H457.268V698.541H459.21V698.96H456.789Z" fill="#C5C5D3"/>
<path d="M461.259 698.96H460.037V695.005H461.307C461.691 695.005 462.015 695.089 462.29 695.245C462.566 695.401 462.77 695.629 462.913 695.928C463.057 696.228 463.129 696.575 463.129 696.983C463.129 697.39 463.057 697.75 462.913 698.049C462.77 698.349 462.554 698.577 462.266 698.733C461.979 698.888 461.643 698.972 461.248 698.972L461.259 698.96ZM460.516 698.529H461.224C461.547 698.529 461.823 698.469 462.038 698.337C462.254 698.205 462.41 698.025 462.518 697.798C462.626 697.57 462.674 697.282 462.674 696.959C462.674 696.635 462.626 696.36 462.518 696.132C462.41 695.904 462.254 695.724 462.05 695.593C461.847 695.473 461.583 695.401 461.271 695.401H460.504V698.505L460.516 698.529Z" fill="#C5C5D3"/>
<path d="M466.76 699.008C466.509 699.008 466.281 698.96 466.077 698.876C465.874 698.793 465.718 698.673 465.598 698.505C465.478 698.349 465.418 698.169 465.406 697.954H465.898C465.898 698.085 465.946 698.193 466.029 698.289C466.113 698.385 466.209 698.457 466.329 698.505C466.449 698.553 466.593 698.577 466.749 698.577C466.916 698.577 467.072 698.553 467.204 698.493C467.336 698.433 467.444 698.349 467.515 698.241C467.587 698.133 467.623 698.014 467.623 697.87C467.623 697.726 467.587 697.594 467.515 697.486C467.444 697.378 467.336 697.283 467.204 697.223C467.072 697.163 466.892 697.127 466.689 697.127H466.377V696.707H466.689C466.844 696.707 466.988 696.683 467.108 696.623C467.228 696.563 467.324 696.492 467.384 696.384C467.456 696.276 467.48 696.156 467.48 696.024C467.48 695.892 467.456 695.772 467.396 695.677C467.336 695.581 467.252 695.497 467.144 695.449C467.036 695.401 466.904 695.365 466.76 695.365C466.629 695.365 466.497 695.389 466.377 695.437C466.257 695.485 466.161 695.557 466.077 695.653C465.994 695.749 465.958 695.856 465.958 695.988H465.49C465.49 695.784 465.562 695.593 465.682 695.437C465.802 695.281 465.958 695.161 466.137 695.065C466.329 694.982 466.533 694.934 466.76 694.934C467.012 694.934 467.216 694.982 467.396 695.077C467.575 695.173 467.707 695.305 467.803 695.473C467.899 695.629 467.947 695.808 467.947 696C467.947 696.228 467.887 696.408 467.767 696.575C467.647 696.731 467.492 696.839 467.288 696.899V696.935C467.539 696.971 467.731 697.079 467.875 697.259C468.019 697.438 468.091 697.642 468.091 697.894C468.091 698.109 468.031 698.301 467.911 698.469C467.791 698.637 467.635 698.769 467.432 698.876C467.228 698.972 467 699.02 466.749 699.02L466.76 699.008Z" fill="#C5C5D3"/>
<path d="M470.176 699.008C469.888 699.008 469.637 698.924 469.433 698.769C469.229 698.613 469.073 698.373 468.966 698.073C468.858 697.774 468.798 697.402 468.798 696.971C468.798 696.54 468.858 696.18 468.966 695.868C469.073 695.569 469.229 695.329 469.433 695.173C469.637 695.017 469.888 694.934 470.176 694.934C470.464 694.934 470.715 695.017 470.919 695.173C471.123 695.329 471.279 695.569 471.386 695.868C471.494 696.168 471.554 696.54 471.554 696.971C471.554 697.402 471.494 697.774 471.386 698.073C471.279 698.373 471.123 698.613 470.919 698.769C470.715 698.924 470.464 699.008 470.176 699.008ZM470.176 698.589C470.464 698.589 470.691 698.445 470.847 698.169C471.003 697.894 471.087 697.498 471.087 696.983C471.087 696.635 471.051 696.348 470.979 696.108C470.907 695.868 470.799 695.689 470.667 695.557C470.536 695.425 470.368 695.365 470.176 695.365C469.888 695.365 469.661 695.509 469.505 695.784C469.349 696.06 469.265 696.468 469.265 696.983C469.265 697.33 469.301 697.618 469.373 697.858C469.445 698.097 469.553 698.277 469.685 698.409C469.817 698.529 469.984 698.601 470.176 698.601V698.589Z" fill="#C5C5D3"/>
<path d="M473.579 699.008C473.292 699.008 473.04 698.924 472.836 698.769C472.633 698.613 472.477 698.373 472.369 698.073C472.261 697.774 472.201 697.402 472.201 696.971C472.201 696.54 472.261 696.18 472.369 695.868C472.477 695.569 472.633 695.329 472.836 695.173C473.04 695.017 473.292 694.934 473.579 694.934C473.867 694.934 474.119 695.017 474.322 695.173C474.526 695.329 474.682 695.569 474.79 695.868C474.898 696.168 474.958 696.54 474.958 696.971C474.958 697.402 474.898 697.774 474.79 698.073C474.682 698.373 474.526 698.613 474.322 698.769C474.119 698.924 473.867 699.008 473.579 699.008ZM473.579 698.589C473.867 698.589 474.095 698.445 474.25 698.169C474.406 697.894 474.49 697.498 474.49 696.983C474.49 696.635 474.454 696.348 474.382 696.108C474.31 695.868 474.203 695.689 474.071 695.557C473.939 695.425 473.771 695.365 473.579 695.365C473.292 695.365 473.064 695.509 472.908 695.784C472.752 696.06 472.669 696.468 472.669 696.983C472.669 697.33 472.705 697.618 472.776 697.858C472.848 698.097 472.956 698.277 473.088 698.409C473.22 698.529 473.388 698.601 473.579 698.601V698.589Z" fill="#C5C5D3"/>
<path d="M475.761 698.96V695.005H476.24V698.541H478.086V698.96H475.761Z" fill="#C5C5D3"/>
<path d="M478.817 698.96V695.005H480.195C480.471 695.005 480.698 695.053 480.878 695.149C481.058 695.245 481.19 695.365 481.273 695.533C481.357 695.7 481.405 695.868 481.405 696.06C481.405 696.228 481.369 696.372 481.309 696.479C481.249 696.587 481.166 696.683 481.07 696.743C480.974 696.803 480.866 696.851 480.758 696.887V696.923C480.878 696.923 480.998 696.971 481.118 697.055C481.237 697.127 481.345 697.246 481.429 697.39C481.513 697.534 481.549 697.714 481.549 697.918C481.549 698.121 481.501 698.301 481.417 698.457C481.333 698.613 481.19 698.744 480.986 698.828C480.782 698.912 480.542 698.972 480.231 698.972H478.805L478.817 698.96ZM479.296 696.743H480.183C480.327 696.743 480.458 696.719 480.578 696.659C480.698 696.599 480.782 696.527 480.854 696.42C480.926 696.312 480.962 696.192 480.962 696.06C480.962 695.88 480.902 695.736 480.782 695.617C480.662 695.497 480.47 695.437 480.207 695.437H479.308V696.755L479.296 696.743ZM479.296 698.529H480.243C480.554 698.529 480.782 698.469 480.914 698.349C481.046 698.229 481.118 698.073 481.118 697.906C481.118 697.774 481.082 697.654 481.01 697.534C480.938 697.414 480.842 697.33 480.722 697.258C480.602 697.187 480.447 697.151 480.279 697.151H479.308V698.529H479.296Z" fill="#C5C5D3"/>
<path d="M484.521 695.988C484.497 695.796 484.401 695.641 484.233 695.533C484.066 695.425 483.862 695.365 483.622 695.365C483.442 695.365 483.299 695.389 483.167 695.449C483.035 695.509 482.939 695.581 482.867 695.689C482.795 695.785 482.759 695.904 482.759 696.024C482.759 696.132 482.783 696.216 482.831 696.3C482.879 696.372 482.951 696.444 483.023 696.492C483.107 696.54 483.191 696.587 483.275 696.611C483.359 696.635 483.442 696.671 483.514 696.683L483.922 696.791C484.03 696.815 484.138 696.851 484.269 696.899C484.401 696.947 484.521 697.007 484.629 697.091C484.749 697.175 484.845 697.283 484.917 697.402C484.988 697.522 485.024 697.69 485.024 697.87C485.024 698.086 484.964 698.277 484.857 698.445C484.749 698.613 484.581 698.757 484.365 698.853C484.15 698.948 483.898 699.008 483.586 699.008C483.299 699.008 483.059 698.96 482.855 698.876C482.652 698.781 482.484 698.661 482.364 698.493C482.244 698.325 482.184 698.145 482.16 697.918H482.652C482.664 698.062 482.711 698.193 482.807 698.289C482.891 698.385 483.011 698.457 483.143 698.505C483.275 698.553 483.43 698.577 483.586 698.577C483.766 698.577 483.934 698.553 484.078 698.493C484.221 698.433 484.341 698.349 484.425 698.241C484.509 698.133 484.557 698.002 484.557 697.858C484.557 697.726 484.521 697.618 484.449 697.534C484.377 697.45 484.281 697.39 484.162 697.33C484.042 697.283 483.91 697.235 483.778 697.199L483.287 697.055C482.975 696.971 482.735 696.839 482.556 696.671C482.376 696.504 482.28 696.288 482.28 696.024C482.28 695.796 482.34 695.605 482.46 695.437C482.58 695.269 482.747 695.137 482.951 695.053C483.155 694.958 483.383 694.91 483.634 694.91C483.886 694.91 484.114 694.958 484.317 695.041C484.521 695.137 484.677 695.257 484.785 695.413C484.905 695.569 484.964 695.749 484.964 695.952H484.497L484.521 695.988Z" fill="#C5C5D3"/>
<path d="M259.169 436.252L258.066 432.297H258.69L259.457 435.365H259.493L260.295 432.297H260.919L261.722 435.365H261.758L262.525 432.297H263.16L262.057 436.252H261.458L260.619 433.292H260.583L259.744 436.252H259.145H259.169Z" fill="#C5C5D3"/>
<path d="M263.711 436.252V432.297H266.192V432.813H264.31V434.023H266.06V434.538H264.31V435.749H266.216V436.264H263.711V436.252Z" fill="#C5C5D3"/>
<path d="M267.594 432.286V436.24H266.995V432.286H267.594Z" fill="#C5C5D3"/>
<path d="M271.142 433.544C271.106 433.424 271.058 433.316 270.998 433.232C270.938 433.136 270.866 433.064 270.77 432.993C270.674 432.921 270.59 432.873 270.47 432.837C270.363 432.801 270.243 432.789 270.111 432.789C269.883 432.789 269.691 432.849 269.512 432.957C269.332 433.064 269.188 433.244 269.092 433.46C268.984 433.676 268.936 433.951 268.936 434.275C268.936 434.598 268.984 434.862 269.092 435.09C269.2 435.318 269.344 435.485 269.524 435.593C269.703 435.701 269.907 435.761 270.147 435.761C270.363 435.761 270.554 435.713 270.71 435.629C270.866 435.545 270.998 435.413 271.082 435.258C271.165 435.102 271.213 434.91 271.213 434.694L271.369 434.718H270.231V434.227H271.789V434.682C271.789 435.018 271.717 435.306 271.573 435.545C271.429 435.785 271.237 435.977 270.986 436.108C270.734 436.24 270.458 436.312 270.135 436.312C269.775 436.312 269.464 436.228 269.188 436.061C268.912 435.893 268.709 435.665 268.553 435.353C268.397 435.054 268.325 434.694 268.325 434.275C268.325 433.963 268.373 433.676 268.457 433.424C268.541 433.172 268.673 432.957 268.829 432.777C268.984 432.597 269.176 432.465 269.392 432.369C269.608 432.274 269.847 432.226 270.099 432.226C270.315 432.226 270.506 432.262 270.698 432.321C270.89 432.381 271.046 432.477 271.189 432.585C271.333 432.705 271.453 432.837 271.549 432.993C271.645 433.148 271.705 433.328 271.741 433.52H271.13L271.142 433.544Z" fill="#C5C5D3"/>
<path d="M272.543 436.252V432.297H273.142V434.023H275.12V432.297H275.719V436.252H275.12V434.526H273.142V436.252H272.543Z" fill="#C5C5D3"/>
<path d="M276.391 432.801V432.286H279.459V432.801H278.224V436.24H277.625V432.801H276.391Z" fill="#C5C5D3"/>
<path d="M281.567 436.252V432.297H283.017C283.293 432.297 283.533 432.345 283.712 432.441C283.892 432.537 284.036 432.657 284.12 432.813C284.204 432.968 284.252 433.148 284.252 433.34C284.252 433.508 284.228 433.64 284.156 433.759C284.084 433.879 284.012 433.963 283.916 434.035C283.82 434.107 283.7 434.155 283.581 434.179V434.215C283.712 434.215 283.844 434.263 283.964 434.347C284.084 434.419 284.192 434.538 284.276 434.682C284.36 434.826 284.396 434.994 284.396 435.21C284.396 435.425 284.348 435.593 284.252 435.749C284.156 435.905 284.012 436.036 283.808 436.132C283.617 436.228 283.353 436.276 283.053 436.276H281.531L281.567 436.252ZM282.166 433.999H282.969C283.101 433.999 283.221 433.975 283.329 433.927C283.437 433.879 283.521 433.807 283.581 433.712C283.64 433.616 283.676 433.508 283.676 433.376C283.676 433.208 283.617 433.076 283.509 432.968C283.389 432.861 283.221 432.801 282.981 432.801H282.166V433.999ZM282.166 435.737H283.029C283.317 435.737 283.521 435.677 283.64 435.569C283.76 435.461 283.82 435.317 283.82 435.15C283.82 435.03 283.784 434.91 283.724 434.802C283.664 434.694 283.569 434.61 283.449 434.55C283.329 434.49 283.197 434.455 283.029 434.455H282.142V435.725L282.166 435.737Z" fill="#C5C5D3"/>
<path d="M285.127 436.252V432.297H287.608V432.813H285.726V434.023H287.476V434.538H285.726V435.749H287.632V436.264H285.127V436.252Z" fill="#C5C5D3"/>
<path d="M288.746 436.252H288.111L289.537 432.297H290.233L291.659 436.252H291.024L289.909 433.016H289.873L288.746 436.252ZM288.854 434.694H290.916V435.198H288.854V434.694Z" fill="#C5C5D3"/>
<path d="M292.222 436.252V432.297H293.636C293.948 432.297 294.199 432.345 294.403 432.453C294.607 432.561 294.763 432.705 294.859 432.897C294.954 433.088 295.002 433.292 295.002 433.544C295.002 433.795 294.954 433.999 294.847 434.179C294.751 434.359 294.595 434.502 294.391 434.61C294.187 434.718 293.936 434.766 293.624 434.766H292.558V434.251H293.576C293.768 434.251 293.924 434.227 294.044 434.167C294.163 434.107 294.259 434.035 294.307 433.927C294.367 433.819 294.391 433.7 294.391 433.544C294.391 433.388 294.367 433.268 294.307 433.16C294.247 433.052 294.163 432.968 294.044 432.909C293.924 432.849 293.756 432.825 293.564 432.825H292.809V436.276H292.21L292.222 436.252ZM294.175 434.467L295.158 436.252H294.475L293.516 434.467H294.175Z" fill="#C5C5D3"/>
<path d="M296.333 432.286V436.24H295.733V432.286H296.333Z" fill="#C5C5D3"/>
<path d="M300.395 432.286V436.24H299.844L297.83 433.34H297.795V436.24H297.195V432.286H297.747L299.76 435.198H299.796V432.286H300.383H300.395Z" fill="#C5C5D3"/>
<path d="M303.942 433.544C303.906 433.424 303.858 433.316 303.798 433.232C303.739 433.136 303.667 433.064 303.571 432.993C303.475 432.921 303.391 432.873 303.271 432.837C303.163 432.801 303.043 432.789 302.912 432.789C302.684 432.789 302.492 432.849 302.312 432.957C302.133 433.064 301.989 433.244 301.893 433.46C301.785 433.676 301.737 433.951 301.737 434.275C301.737 434.598 301.785 434.862 301.893 435.09C302.001 435.318 302.145 435.485 302.324 435.593C302.504 435.701 302.708 435.761 302.948 435.761C303.163 435.761 303.355 435.713 303.511 435.629C303.667 435.545 303.798 435.413 303.882 435.258C303.966 435.102 304.014 434.91 304.014 434.694L304.17 434.718H303.031V434.227H304.589V434.682C304.589 435.018 304.518 435.306 304.374 435.545C304.23 435.785 304.038 435.977 303.786 436.108C303.535 436.24 303.259 436.312 302.936 436.312C302.576 436.312 302.264 436.228 301.989 436.061C301.713 435.893 301.509 435.665 301.354 435.353C301.198 435.054 301.126 434.694 301.126 434.275C301.126 433.963 301.174 433.676 301.258 433.424C301.342 433.172 301.474 432.957 301.629 432.777C301.785 432.597 301.977 432.465 302.193 432.369C302.408 432.274 302.648 432.226 302.9 432.226C303.115 432.226 303.307 432.262 303.499 432.321C303.691 432.381 303.846 432.477 303.99 432.585C304.134 432.705 304.254 432.837 304.35 432.993C304.446 433.148 304.506 433.328 304.542 433.52H303.93L303.942 433.544Z" fill="#C5C5D3"/>
<path d="M306.675 436.252V435.857L308.76 432.813H306.663V432.297H309.491V432.693L307.406 435.737H309.503V436.252H306.675Z" fill="#C5C5D3"/>
<path d="M313.517 434.275C313.517 434.694 313.445 435.066 313.29 435.365C313.134 435.665 312.918 435.905 312.654 436.061C312.391 436.228 312.079 436.3 311.744 436.3C311.408 436.3 311.097 436.216 310.821 436.061C310.557 435.893 310.342 435.665 310.186 435.365C310.03 435.066 309.958 434.694 309.958 434.275C309.958 433.855 310.03 433.484 310.186 433.184C310.342 432.885 310.557 432.645 310.821 432.489C311.085 432.321 311.396 432.25 311.744 432.25C312.091 432.25 312.391 432.333 312.654 432.489C312.918 432.657 313.134 432.885 313.29 433.184C313.445 433.484 313.517 433.855 313.517 434.275ZM312.918 434.275C312.918 433.951 312.87 433.676 312.762 433.46C312.654 433.244 312.511 433.076 312.331 432.957C312.151 432.849 311.947 432.789 311.72 432.789C311.492 432.789 311.288 432.849 311.109 432.957C310.929 433.064 310.785 433.244 310.689 433.46C310.581 433.676 310.533 433.951 310.533 434.275C310.533 434.598 310.581 434.874 310.689 435.09C310.797 435.306 310.929 435.473 311.109 435.593C311.288 435.713 311.492 435.761 311.72 435.761C311.947 435.761 312.151 435.701 312.331 435.593C312.511 435.485 312.654 435.318 312.762 435.09C312.87 434.874 312.918 434.598 312.918 434.275Z" fill="#C5C5D3"/>
<path d="M317.449 432.286V436.24H316.898L314.884 433.34H314.848V436.24H314.249V432.286H314.8L316.814 435.198H316.85V432.286H317.437H317.449Z" fill="#C5C5D3"/>
<path d="M318.323 436.252V432.297H320.804V432.813H318.922V434.023H320.672V434.538H318.922V435.749H320.828V436.264H318.323V436.252Z" fill="#C5C5D3"/>
<path d="M501.623 441.094V563.777H505.218V441.094C505.218 436.348 501.359 432.489 496.613 432.489H374.529V436.085H496.613C499.37 436.085 501.623 438.338 501.623 441.094Z" fill="#C5C5D3"/>
<path d="M243.158 563.777V441.094C243.158 438.338 245.411 436.085 248.167 436.085H255.921V432.489H248.167C243.421 432.489 239.562 436.348 239.562 441.094V563.777H243.158Z" fill="#C5C5D3"/>
<path d="M501.623 568.343V690.355C501.623 693.124 499.37 695.365 496.614 695.365H487.386V698.96H496.614C501.359 698.96 505.218 695.101 505.218 690.355V568.343H501.623Z" fill="#C5C5D3"/>
<path d="M243.158 690.355V568.343H239.562V690.355C239.562 695.101 243.421 698.96 248.167 698.96H416.655V695.365H248.167C245.399 695.365 243.158 693.112 243.158 690.355Z" fill="#C5C5D3"/>
<g clip-path="url(#clip0_380_14507)">
<path d="M352.633 287.378V286.57C352.633 286.506 352.576 286.455 352.513 286.462C350.021 286.75 348.113 288.707 347.828 291.176C347.82 291.24 347.871 291.296 347.935 291.296H348.767C348.819 291.296 348.861 291.258 348.868 291.206C349.126 289.267 350.593 287.745 352.544 287.479C352.596 287.472 352.634 287.43 352.634 287.378" fill="black"/>
<path d="M353.67 296.257V297.065C353.67 297.128 353.727 297.18 353.79 297.172C356.282 296.884 358.19 294.929 358.474 292.458C358.481 292.394 358.43 292.338 358.367 292.338H357.535C357.483 292.338 357.44 292.376 357.434 292.428C357.177 294.367 355.709 295.891 353.76 296.155C353.709 296.161 353.67 296.204 353.67 296.256" fill="black"/>
<path d="M357.536 291.296H358.368C358.431 291.296 358.482 291.239 358.475 291.176C358.191 288.707 356.283 286.75 353.791 286.462C353.727 286.455 353.671 286.507 353.671 286.57V287.377C353.671 287.429 353.709 287.472 353.761 287.478C355.711 287.743 357.178 289.266 357.435 291.205C357.441 291.256 357.484 291.295 357.536 291.295" fill="black"/>
<path d="M348.768 292.339H347.936C347.872 292.339 347.821 292.397 347.829 292.46C348.114 294.929 350.021 296.886 352.513 297.174C352.576 297.181 352.633 297.129 352.633 297.066V296.257C352.633 296.205 352.594 296.163 352.543 296.156C350.593 295.892 349.126 294.369 348.869 292.43C348.862 292.379 348.819 292.339 348.768 292.339Z" fill="black"/>
<path d="M380.129 287.378V286.57C380.129 286.506 380.072 286.455 380.009 286.462C377.517 286.75 375.609 288.707 375.325 291.176C375.318 291.24 375.369 291.296 375.433 291.296H376.265C376.317 291.296 376.359 291.258 376.366 291.206C376.623 289.267 378.091 287.744 380.04 287.479C380.091 287.472 380.13 287.43 380.13 287.378" fill="black"/>
<path d="M385.03 291.296H385.862C385.925 291.296 385.976 291.239 385.969 291.176C385.684 288.707 383.777 286.75 381.285 286.462C381.221 286.455 381.165 286.507 381.165 286.57V287.377C381.165 287.429 381.203 287.472 381.255 287.478C383.204 287.743 384.672 289.266 384.929 291.205C384.936 291.256 384.978 291.295 385.03 291.295" fill="black"/>
<path d="M376.263 292.339H375.431C375.367 292.339 375.316 292.397 375.323 292.46C375.608 294.929 377.515 296.886 380.007 297.174C380.07 297.181 380.127 297.129 380.127 297.066V296.257C380.127 296.205 380.088 296.163 380.037 296.156C378.086 295.892 376.62 294.369 376.363 292.43C376.356 292.379 376.314 292.339 376.262 292.339" fill="black"/>
<path d="M381.165 296.257V297.065C381.165 297.128 381.222 297.18 381.285 297.172C383.777 296.884 385.685 294.929 385.969 292.458C385.976 292.394 385.925 292.338 385.862 292.338H385.03C384.978 292.338 384.935 292.376 384.929 292.428C384.672 294.367 383.204 295.891 381.255 296.155C381.204 296.161 381.165 296.204 381.165 296.256" fill="black"/>
<path d="M393.396 291.192C391.988 290.731 391.1 290.373 391.1 289.24C391.1 288.108 392.003 287.438 393.247 287.438C394.558 287.438 395.349 288.17 395.749 289.061C395.775 289.118 395.839 289.14 395.893 289.11L396.582 288.723C396.63 288.695 396.65 288.634 396.627 288.583C396.077 287.388 394.908 286.425 393.247 286.425C391.587 286.425 390.064 287.453 390.064 289.285C390.064 291.207 391.692 291.654 393.381 292.22C394.905 292.727 395.927 293.114 395.927 294.321C395.927 295.438 395.054 296.198 393.484 296.198C391.913 296.198 390.943 295.446 390.546 294.265C390.525 294.202 390.454 294.173 390.397 294.207L389.696 294.618C389.652 294.644 389.632 294.701 389.649 294.749C390.203 296.278 391.593 297.211 393.469 297.211C395.542 297.211 396.963 296.078 396.963 294.291C396.963 292.354 395.275 291.818 393.395 291.192" fill="black"/>
<path d="M372.326 287.265C372.367 287.224 372.367 287.158 372.326 287.116L371.727 286.513C371.686 286.472 371.619 286.472 371.579 286.513L367.759 290.358C367.717 290.399 367.717 290.465 367.759 290.507L368.358 291.11C368.399 291.151 368.465 291.151 368.506 291.11L372.326 287.265Z" fill="black"/>
<path d="M372.108 296.359L367.699 291.922L366.951 291.17L362.541 286.733C362.5 286.691 362.433 286.691 362.393 286.733L361.794 287.336C361.752 287.377 361.752 287.443 361.794 287.485L366.204 291.922L361.794 296.359C361.752 296.4 361.752 296.467 361.794 296.508L362.393 297.111C362.434 297.152 362.501 297.152 362.541 297.111L366.951 292.674L371.361 297.111C371.402 297.152 371.468 297.152 371.509 297.111L372.108 296.508C372.15 296.466 372.15 296.399 372.108 296.359Z" fill="black"/>
</g>
<g clip-path="url(#clip1_380_14507)">
<g filter="url(#filter0_d_380_14507)">
<path d="M323.022 951.422C323.022 951.422 332.405 885.413 343.659 752.435C343.659 752.435 345.348 728.574 341.286 709.795C341.286 709.795 338.326 703.275 337.559 698.458C337.559 698.458 329.697 695.833 322.41 687.12C315.124 678.408 309.216 665.549 308.88 663.775C308.545 662.001 304.734 642.287 304.734 642.287C304.734 642.287 301.857 633.742 301.857 630.698C301.857 627.654 301.522 615.55 300.503 611.835C299.484 608.12 295.17 594.578 295.17 594.578C295.17 594.578 290.604 581.635 289.502 569.626C288.399 557.618 287.045 557.786 288.567 551.782C290.089 545.778 296.692 542.386 303.116 544.004C309.539 545.622 317.749 554.742 318.851 567.685C319.954 580.628 320.709 584.523 321.811 587.567C322.914 590.611 326.976 602.799 328.331 604.489C329.685 606.178 332.309 609.906 333.748 609.654C335.186 609.402 340.603 610.241 340.603 610.241C340.603 610.241 348.464 612.183 348.98 610.157C349.495 608.132 355.235 602.547 355.835 597.717C356.434 592.888 357.86 586.548 360.065 582.234C360.065 582.234 360.916 573.437 362.438 569.123C362.438 569.123 361.252 551.614 364.643 536.382C364.643 536.382 364.979 529.275 364.643 523.774C364.308 518.274 363.624 512.437 364.391 505.247C364.943 500.045 364.116 495.204 363.624 492.915C363.361 491.692 363.193 490.458 363.145 489.2C362.893 483.124 363.169 467.053 372.517 463.361C384.106 458.795 383.602 473.344 383.602 473.344C383.602 473.344 383.482 480.163 384.969 484.442C385.64 486.371 386.047 488.373 386.047 490.41C386.023 494.593 386.011 500.848 386.071 501.519C386.155 502.538 389.618 517.507 390.469 520.634C391.32 523.762 392.327 504.563 394.364 496.953C394.364 496.953 392.591 482.572 396.222 473.356C399.853 464.14 408.398 457.621 413.983 461.18C419.567 464.74 417.53 472.266 417.53 473.62C417.53 474.974 416.092 480.391 416.26 482.333C416.427 484.274 416.679 488.421 415.157 498.487C415.157 498.487 414.57 504.827 415.576 508.722C415.576 508.722 416.763 494.425 423.103 489.523C429.442 484.622 435.878 488.001 437.568 490.11C439.257 492.22 436.633 502.634 436.633 502.634C436.633 502.634 435.782 514.475 435.195 517.267C434.608 520.059 434.428 529.623 434.428 533.853C434.428 538.084 434.512 538.587 434.512 538.587C434.512 538.587 437.22 534.273 441.367 534.944C445.513 535.615 447.886 535.962 447.79 539.09C447.694 542.218 446.436 548.905 446.268 553.639C446.1 558.373 445.25 569.626 445.25 571.568C445.25 573.509 444.231 586.117 443.14 592.552C442.05 598.988 439.162 613.872 435.183 625.545C431.204 637.218 430.617 645.595 430.197 649.657C429.778 653.72 422.156 680.709 422.156 680.709C422.156 680.709 417.841 696.025 421.137 706.427C424.433 716.83 428.328 737.047 429.43 750.925C429.43 750.925 429.49 761.136 451.146 827.457C472.801 893.778 490.85 949.277 490.85 949.277" fill="white"/>
<path d="M323.022 951.422C323.022 951.422 332.405 885.413 343.659 752.435C343.659 752.435 345.348 728.574 341.286 709.795C341.286 709.795 338.326 703.275 337.559 698.458C337.559 698.458 329.697 695.833 322.41 687.12C315.124 678.408 309.216 665.549 308.88 663.775C308.545 662.001 304.734 642.287 304.734 642.287C304.734 642.287 301.857 633.742 301.857 630.698C301.857 627.654 301.522 615.55 300.503 611.835C299.484 608.12 295.17 594.578 295.17 594.578C295.17 594.578 290.604 581.635 289.502 569.626C288.399 557.618 287.045 557.786 288.567 551.782C290.089 545.778 296.692 542.386 303.116 544.004C309.539 545.622 317.749 554.742 318.851 567.685C319.954 580.628 320.709 584.523 321.811 587.567C322.914 590.611 326.976 602.799 328.331 604.489C329.685 606.178 332.309 609.906 333.748 609.654C335.186 609.402 340.603 610.241 340.603 610.241C340.603 610.241 348.464 612.183 348.98 610.157C349.495 608.132 355.235 602.547 355.835 597.717C356.434 592.888 357.86 586.548 360.065 582.234C360.065 582.234 360.916 573.437 362.438 569.123C362.438 569.123 361.252 551.614 364.643 536.382C364.643 536.382 364.979 529.275 364.643 523.774C364.308 518.274 363.624 512.437 364.391 505.247C364.943 500.045 364.116 495.204 363.624 492.915C363.361 491.692 363.193 490.458 363.145 489.2C362.893 483.124 363.169 467.053 372.517 463.361C384.106 458.795 383.602 473.344 383.602 473.344C383.602 473.344 383.482 480.163 384.969 484.442C385.64 486.371 386.047 488.373 386.047 490.41C386.023 494.593 386.011 500.848 386.071 501.519C386.155 502.538 389.618 517.507 390.469 520.634C391.32 523.762 392.327 504.563 394.364 496.953C394.364 496.953 392.591 482.572 396.222 473.356C399.853 464.14 408.398 457.621 413.983 461.18C419.567 464.74 417.53 472.266 417.53 473.62C417.53 474.974 416.092 480.391 416.26 482.333C416.427 484.274 416.679 488.421 415.157 498.487C415.157 498.487 414.57 504.827 415.576 508.722C415.576 508.722 416.763 494.425 423.103 489.523C429.442 484.622 435.878 488.001 437.568 490.11C439.257 492.22 436.633 502.634 436.633 502.634C436.633 502.634 435.782 514.475 435.195 517.267C434.608 520.059 434.428 529.623 434.428 533.853C434.428 538.084 434.512 538.587 434.512 538.587C434.512 538.587 437.22 534.273 441.367 534.944C445.513 535.615 447.886 535.962 447.79 539.09C447.694 542.218 446.436 548.905 446.268 553.639C446.1 558.373 445.25 569.626 445.25 571.568C445.25 573.509 444.231 586.117 443.14 592.552C442.05 598.988 439.162 613.872 435.183 625.545C431.204 637.218 430.617 645.595 430.197 649.657C429.778 653.72 422.156 680.709 422.156 680.709C422.156 680.709 417.841 696.025 421.137 706.427C424.433 716.83 428.328 737.047 429.43 750.925C429.43 750.925 429.49 761.136 451.146 827.457C472.801 893.778 490.85 949.277 490.85 949.277" stroke="#595CFF" stroke-width="3.3048" stroke-miterlimit="10"/>
</g>
<path d="M391.56 520.215C392.758 523.726 394.149 527.321 394.233 531.097C394.304 533.374 394.748 546.568 394.832 549.157C395.012 553.375 395.083 559.391 395.359 563.55C395.838 568.104 396.03 573.353 398.739 577.164C399.062 577.452 398.571 578.015 398.235 577.632C395.179 573.593 394.916 568.44 394.245 563.646C393.837 559.475 393.597 553.399 393.286 549.157L392.387 534.716C392.231 532.69 392.243 529.778 391.62 527.801C391.009 525.548 390.038 524.11 389.175 521.917C388.612 520.442 390.997 518.717 391.572 520.227L391.56 520.215Z" fill="#595CFF"/>
<path d="M416.762 508.626C417.014 513.036 417.625 521.042 417.685 525.332C417.589 533.457 417.985 541.511 418.009 549.684C417.589 556.539 416.283 563.298 416.151 570.07C416.834 575.882 417.589 581.922 419.027 587.639C419.279 588.429 419.507 589.328 419.938 589.892C420.262 590.311 419.579 590.874 419.243 590.395C418.2 588.789 417.985 587.135 417.505 585.385C416.391 580.316 415.588 575.331 414.917 570.141C414.917 563.238 416.091 556.455 416.391 549.672C416.223 541.643 415.672 533.446 415.612 525.344C415.468 521.162 414.713 513.06 414.377 508.806C414.246 507.248 416.63 506.996 416.762 508.614V508.626Z" fill="#595CFF"/>
<path d="M435.709 538.671C435.302 544.855 434.966 551.039 434.99 557.223C434.835 563.55 433.852 569.686 432.845 575.894C431.743 582.018 430.556 588.13 429.885 594.23C429.657 597.765 430.017 601.9 431.611 605.076C433.025 606.862 435.014 609.103 434.859 611.523C434.751 611.931 434.116 611.835 434.175 611.38C434.175 610.84 433.756 610.121 433.408 609.498C432.282 607.425 430.077 605.939 429.538 603.578C426.709 594.47 429.885 584.715 431.024 575.594C431.898 569.53 432.773 563.323 432.797 557.223C432.689 550.979 432.977 544.735 433.325 538.515C433.432 536.969 435.805 537.053 435.721 538.671H435.709Z" fill="#595CFF"/>
<path d="M287.704 554.034C292.449 552.165 298.178 550.151 303.044 552.668C307.058 555.437 307.849 560.961 306.747 565.407C306.639 565.827 305.992 565.659 306.112 565.24C307.658 557.282 303.727 550.751 294.966 553.052C292.665 553.543 290.388 554.346 288.267 555.329C287.428 555.724 286.829 554.418 287.692 554.034H287.704Z" fill="#595CFF"/>
<path d="M291.838 570.741C295.925 571.748 300.767 571.736 304.206 569.015C304.554 568.74 304.985 569.291 304.626 569.554C301.941 571.76 298.334 572.335 294.954 572.083C293.828 571.999 292.725 571.843 291.599 571.556C291.371 571.496 291.227 571.268 291.287 571.04C291.347 570.801 291.599 570.669 291.826 570.741H291.838Z" fill="#595CFF"/>
<path d="M380.115 465.051C378.413 465.602 376.124 466.441 375.465 468.191C375.249 469.09 375.249 470.144 375.273 471.151C375.453 474.063 375.681 477.347 377.274 479.84C377.886 480.595 378.868 480.918 379.719 481.362C380.63 481.793 381.577 482.153 382.548 482.404C382.811 482.464 382.727 482.872 382.464 482.824C380.438 482.44 378.149 481.805 376.687 480.295C375.429 478.485 375.117 476.376 374.782 474.279C374.542 472.17 374.314 470.12 374.746 467.987C375.117 466.813 376.088 466.118 376.999 465.602C377.934 465.075 378.916 464.715 379.935 464.428C380.103 464.38 380.283 464.476 380.33 464.656C380.378 464.835 380.271 465.015 380.103 465.051H380.115Z" fill="#595CFF"/>
<path d="M409.824 468.179C409.716 470.756 409.524 473.488 409.932 476.005C410.004 476.293 410.039 476.496 410.219 476.736C411.573 478.234 413.599 479.972 415.552 480.211C416.367 480.211 416.331 481.458 415.516 481.41C413.179 481.038 411.717 479.564 410.195 478.066C409.692 477.539 409.177 476.928 409.117 476.161C408.805 473.44 409.129 470.828 409.368 468.143C409.392 467.868 409.824 467.904 409.8 468.179H409.824Z" fill="#595CFF"/>
<path d="M409.848 467.28C411.478 465.387 414.103 464.068 416.631 464.752C416.955 464.823 417.159 465.147 417.087 465.471C417.015 465.818 416.643 466.022 416.308 465.914C414.151 465.039 411.742 466.022 410.088 467.52C409.932 467.664 409.692 467.436 409.836 467.28H409.848Z" fill="#595CFF"/>
<path d="M430.617 492.459C430.138 494.388 429.251 496.486 429.562 498.463C431.36 500.488 433.625 502.849 436.046 503.916C436.837 504.12 436.489 505.318 435.71 505.066C432.93 503.772 431 501.387 429.047 499.122C428.927 498.966 428.783 498.727 428.747 498.559C428.592 496.378 429.55 494.341 430.197 492.315C430.293 492.052 430.701 492.195 430.605 492.459H430.617Z" fill="#595CFF"/>
<path d="M430.832 491.848C433.025 490.949 435.53 490.853 437.759 491.776C438.07 491.896 438.214 492.255 438.082 492.555C437.962 492.867 437.603 493.01 437.303 492.879C435.47 491.812 433.097 491.572 430.94 492.16C430.736 492.219 430.628 491.908 430.832 491.836V491.848Z" fill="#595CFF"/>
<path d="M442.241 539.809C441.306 543.644 440.336 548.378 445.812 548.462C446.304 548.462 446.316 549.241 445.812 549.253C441.606 549.384 440.156 546.424 441.151 542.673C441.354 541.667 441.654 540.696 442.013 539.737C442.037 539.677 442.097 539.641 442.157 539.665C442.217 539.689 442.241 539.749 442.229 539.809H442.241Z" fill="#595CFF"/>
<path d="M442.481 538.491C443.404 537.376 444.818 536.609 446.4 536.549C446.736 536.525 447.035 536.789 447.047 537.125C447.071 537.508 446.7 537.82 446.328 537.748C445.13 537.52 443.74 537.856 442.673 538.695C442.553 538.802 442.374 538.623 442.481 538.491Z" fill="#595CFF"/>
</g>
<defs>
<filter id="filter0_d_380_14507" x="276.981" y="454.57" width="224.693" height="511.625" filterUnits="userSpaceOnUse" color-interpolation-filters="sRGB">
<feFlood flood-opacity="0" result="BackgroundImageFix"/>
<feColorMatrix in="SourceAlpha" type="matrix" values="0 0 0 0 0 0 0 0 0 0 0 0 0 0 0 0 0 0 127 0" result="hardAlpha"/>
<feOffset dy="5.28767"/>
<feGaussianBlur stdDeviation="4.62671"/>
<feComposite in2="hardAlpha" operator="out"/>
<feColorMatrix type="matrix" values="0 0 0 0 0.254331 0 0 0 0 0.255896 0 0 0 0 0.340952 0 0 0 0.2 0"/>
<feBlend mode="multiply" in2="BackgroundImageFix" result="effect1_dropShadow_380_14507"/>
<feBlend mode="normal" in="SourceGraphic" in2="effect1_dropShadow_380_14507" result="shape"/>
</filter>
<clipPath id="clip0_380_14507">
<rect width="49.1357" height="10.7859" fill="white" transform="translate(347.828 286.425)"/>
</clipPath>
<clipPath id="clip1_380_14507">
<rect width="204.932" height="486.563" fill="white" transform="translate(286.709 458.999)"/>
</clipPath>
</defs>
</svg>
