<svg width="393" height="407" viewBox="0 0 393 407" fill="none" xmlns="http://www.w3.org/2000/svg">
<g clip-path="url(#clip0_380_13150)">
<path d="M62.6522 210.7C55.5006 221.601 49.3674 227.186 49.3674 227.186C49.3674 227.186 33.3517 240.034 26.4015 230.342C19.4513 220.649 29.9829 214.539 32.9376 210.7C35.8923 206.861 40.0445 196.688 40.0445 196.688" fill="white"/>
<path d="M62.6522 210.7C55.5006 221.601 49.3674 227.186 49.3674 227.186C49.3674 227.186 33.3517 240.034 26.4015 230.342C19.4513 220.649 29.9829 214.539 32.9376 210.7C35.8923 206.861 40.0445 196.688 40.0445 196.688" stroke="#595CFF" stroke-width="2.79799" stroke-miterlimit="10"/>
<path d="M79.0601 227.656C79.0601 227.656 75.0981 240.448 62.6526 238.769C50.2072 237.09 55.8927 226.76 55.8927 226.76C55.8927 226.76 60.9515 218.422 62.6526 210.7" fill="white"/>
<path d="M79.0601 227.656C79.0601 227.656 75.0981 240.448 62.6526 238.769C50.2072 237.09 55.8927 226.76 55.8927 226.76C55.8927 226.76 60.9515 218.422 62.6526 210.7" stroke="#595CFF" stroke-width="2.79799" stroke-miterlimit="10"/>
<g filter="url(#filter0_d_380_13150)">
<path d="M392.345 410.04C392.345 410.04 302.183 326.189 260.459 278.579C218.736 230.968 189.256 162.709 189.256 162.709C189.256 162.709 176.822 135.109 163.973 126.894C163.973 126.894 154.069 112.356 144.802 82.2273L140.168 67.4763C140.168 67.4763 135.96 50.4085 131.315 40.5148C131.315 40.5148 131.741 30.8226 129.625 23.4471C129.625 23.4471 130.89 8.28202 123.089 6.80468C115.288 5.32734 108.338 20.5036 108.764 27.4538C109.189 34.404 110.454 40.9401 110.454 40.9401C110.454 40.9401 108.137 52.3112 111.506 63.906C111.506 63.906 112.132 88.1366 113.61 97.8288C113.61 97.8288 112.558 112.367 112.558 116.161C112.558 116.161 96.1278 116.374 89.8044 118.903H80.9515C80.9515 118.903 78.4221 120.168 72.0987 125.853C65.7752 131.539 47.454 145.451 42.1826 152.188C42.1826 152.188 19.2167 143.973 11.4271 157.247C3.6375 170.521 17.5379 178.523 23.4361 182.742C29.3342 186.962 35.445 195.803 42.1826 197.493C48.9202 199.183 54.6169 203.604 65.5626 213.296C73.1507 219.62 73.1507 219.62 73.1507 219.62C73.1507 219.62 78.6236 226.156 80.1009 229.737C81.5783 233.319 99.8995 263.022 116.967 271.875C134.035 280.728 155.311 283.044 177.426 327.913C199.541 372.782 211.976 414.707 211.976 414.707" fill="white"/>
<path d="M392.345 410.04C392.345 410.04 302.183 326.189 260.459 278.579C218.736 230.968 189.256 162.709 189.256 162.709C189.256 162.709 176.822 135.109 163.973 126.894C163.973 126.894 154.069 112.356 144.802 82.2273L140.168 67.4763C140.168 67.4763 135.96 50.4085 131.315 40.5148C131.315 40.5148 131.741 30.8226 129.625 23.4471C129.625 23.4471 130.89 8.28202 123.089 6.80468C115.288 5.32734 108.338 20.5036 108.764 27.4538C109.189 34.404 110.454 40.9401 110.454 40.9401C110.454 40.9401 108.137 52.3112 111.506 63.906C111.506 63.906 112.132 88.1366 113.61 97.8288C113.61 97.8288 112.558 112.367 112.558 116.161C112.558 116.161 96.1278 116.374 89.8044 118.903H80.9515C80.9515 118.903 78.4221 120.168 72.0987 125.853C65.7752 131.539 47.454 145.451 42.1826 152.188C42.1826 152.188 19.2167 143.973 11.4271 157.247C3.6375 170.521 17.5379 178.523 23.4361 182.742C29.3342 186.962 35.445 195.803 42.1826 197.493C48.9202 199.183 54.6169 203.604 65.5626 213.296C73.1507 219.62 73.1507 219.62 73.1507 219.62C73.1507 219.62 78.6236 226.156 80.1009 229.737C81.5783 233.319 99.8995 263.022 116.967 271.875C134.035 280.728 155.311 283.044 177.426 327.913C199.541 372.782 211.976 414.707 211.976 414.707" stroke="#595CFF" stroke-width="3.3048" stroke-miterlimit="10"/>
</g>
<path d="M23.458 182.731C23.458 182.731 22.406 189.054 24.7227 191.785C27.0395 194.516 36.1273 194.203 36.1273 194.203" stroke="#595CFF" stroke-width="2.79799" stroke-miterlimit="10"/>
<path d="M114.941 170.454C114.941 170.454 100.089 171.405 92.5012 171.875C84.9131 172.345 69.9047 170.454 60.7385 163.347C51.5723 156.24 42.2046 152.177 42.2046 152.177" stroke="#595CFF" stroke-width="2.79799" stroke-miterlimit="10"/>
<path d="M112.569 116.15C112.569 116.15 111.304 135.848 108.775 145.797C106.245 155.747 98.2207 171.505 98.2207 171.505" stroke="#595CFF" stroke-width="2.79799" stroke-miterlimit="10"/>
<path d="M66.8271 167.007C66.8271 167.007 85.5513 153.24 87.4427 149.76C87.4427 149.76 92.8708 153.028 106.749 152.177" stroke="#595CFF" stroke-width="2.79799" stroke-miterlimit="10"/>
<path d="M69.9834 168.316C69.9834 168.316 80.9739 158.601 85.876 157.65C90.778 156.699 103.57 152.3 103.57 152.3" stroke="#595CFF" stroke-width="2.79799" stroke-miterlimit="10"/>
<path d="M125.316 15.344C125.786 17.2466 126.659 20.5035 128.864 20.6602C129.177 20.649 129.435 20.884 129.457 21.1974C129.479 21.5331 129.177 21.8241 128.842 21.7794C127.308 21.6563 126.368 20.3356 125.853 19.0821C125.629 18.7464 124.398 14.3815 125.327 15.3552L125.316 15.344Z" fill="#595CFF"/>
<path d="M125.305 10.062C125.484 11.4386 125.383 12.7705 125.126 14.1359C124.768 12.7928 124.868 11.3827 125.305 10.062Z" fill="#595CFF"/>
<path d="M32.1656 159.251C30.2741 163.235 28.0917 167.063 27.0621 171.383C26.4913 173.174 25.9317 175.166 24.5103 176.565C24.1969 176.856 23.6485 177.136 23.1113 177.091C20.7946 176.766 18.6905 175.927 16.6647 174.819C14.0682 173.308 11.6843 170.946 11.0688 167.913C11.0464 167.79 11.1247 167.667 11.2478 167.645C11.3597 167.622 11.4829 167.69 11.5164 167.801C12.893 172.01 17.1348 174.349 21.1415 175.557C21.8242 175.748 22.5517 175.927 23.1896 175.983C23.5478 176.05 24.0402 175.569 24.4096 175.009C25.5847 173.218 26.066 171.036 26.7151 168.954C28.0693 165.485 29.9272 162.25 31.8186 159.061C31.9417 158.848 32.2887 159.027 32.1656 159.251Z" fill="#595CFF"/>
<path d="M26.2116 153.319C28.5731 153.688 30.7219 155.009 32.1657 156.889C32.244 156.99 32.2217 157.135 32.1209 157.214C32.0202 157.292 31.8747 157.27 31.7964 157.18C30.4086 155.457 28.3157 154.237 26.1444 153.957C25.7191 153.934 25.7751 153.263 26.2004 153.33L26.2116 153.319Z" fill="#595CFF"/>
<path d="M22.988 153.542C16.6758 154.08 11.7625 158.31 11.2924 164.779C11.2812 165.204 10.6097 165.182 10.6545 164.745C10.5873 159.899 13.6763 155.311 18.3657 153.867C19.8543 153.352 21.3988 153.072 22.9768 153.072C23.1111 153.072 23.2119 153.173 23.2119 153.307C23.2119 153.442 23.1111 153.542 22.9768 153.542H22.988Z" fill="#595CFF"/>
</g>
<defs>
<filter id="filter0_d_380_13150" x="-1.79151" y="1.08552" width="404.515" height="428.632" filterUnits="userSpaceOnUse" color-interpolation-filters="sRGB">
<feFlood flood-opacity="0" result="BackgroundImageFix"/>
<feColorMatrix in="SourceAlpha" type="matrix" values="0 0 0 0 0 0 0 0 0 0 0 0 0 0 0 0 0 0 127 0" result="hardAlpha"/>
<feOffset dy="5.28767"/>
<feGaussianBlur stdDeviation="4.62671"/>
<feComposite in2="hardAlpha" operator="out"/>
<feColorMatrix type="matrix" values="0 0 0 0 0.254331 0 0 0 0 0.255896 0 0 0 0 0.340952 0 0 0 0.2 0"/>
<feBlend mode="multiply" in2="BackgroundImageFix" result="effect1_dropShadow_380_13150"/>
<feBlend mode="normal" in="SourceGraphic" in2="effect1_dropShadow_380_13150" result="shape"/>
</filter>
<clipPath id="clip0_380_13150">
<rect width="392.838" height="406.268" fill="white"/>
</clipPath>
</defs>
</svg>
