<svg width="740" height="956" viewBox="0 0 740 956" fill="none" xmlns="http://www.w3.org/2000/svg">
<path d="M327.79 655.317C320.638 666.218 314.505 671.803 314.505 671.803C314.505 671.803 298.489 684.652 291.539 674.959C284.589 665.267 295.121 659.156 298.075 655.317C301.03 651.479 305.182 641.305 305.182 641.305" stroke="#595CFF" stroke-width="2.79799" stroke-miterlimit="10"/>
<path d="M344.198 672.273C344.198 672.273 340.236 685.066 327.79 683.387C315.345 681.708 321.03 671.378 321.03 671.378C321.03 671.378 326.089 663.04 327.79 655.317" stroke="#595CFF" stroke-width="2.79799" stroke-miterlimit="10"/>
<path d="M657.483 854.657C657.483 854.657 567.321 770.807 525.597 723.197C483.873 675.586 454.394 607.326 454.394 607.326C454.394 607.326 441.96 579.727 429.111 571.512C429.111 571.512 419.206 556.974 409.939 526.845L405.306 512.094C405.306 512.094 401.098 495.026 396.453 485.133C396.453 485.133 396.878 475.44 394.763 468.065C394.763 468.065 396.028 452.9 388.227 451.422C380.426 449.945 373.476 465.121 373.901 472.072C374.327 479.022 375.591 485.558 375.591 485.558C375.591 485.558 373.274 496.929 376.643 508.524C376.643 508.524 377.27 532.754 378.747 542.447C378.747 542.447 377.695 556.985 377.695 560.779C377.695 560.779 361.266 560.992 354.942 563.521H346.089C346.089 563.521 343.56 564.786 337.236 570.471C330.913 576.157 312.592 590.068 307.32 596.806C307.32 596.806 284.354 588.591 276.565 601.865C268.775 615.138 282.676 623.141 288.574 627.36C294.472 631.579 300.583 640.421 307.32 642.111C314.058 643.801 319.755 648.222 330.7 657.914C338.288 664.237 338.288 664.237 338.288 664.237C338.288 664.237 343.761 670.773 345.239 674.355C346.716 677.936 365.037 707.64 382.105 716.493C399.173 725.345 420.449 727.662 442.564 772.531C464.679 817.399 477.113 859.324 477.113 859.324" stroke="#595CFF" stroke-width="3.3048" stroke-miterlimit="10"/>
<path d="M288.596 627.349C288.596 627.349 287.544 633.672 289.86 636.403C292.177 639.134 301.265 638.82 301.265 638.82" stroke="#595CFF" stroke-width="2.79799" stroke-miterlimit="10"/>
<path d="M380.079 615.071C380.079 615.071 365.227 616.023 357.639 616.493C350.051 616.963 335.042 615.071 325.876 607.964C316.71 600.858 307.342 596.795 307.342 596.795" stroke="#595CFF" stroke-width="2.79799" stroke-miterlimit="10"/>
<path d="M377.706 560.768C377.706 560.768 376.442 580.465 373.912 590.415C371.383 600.365 363.358 616.123 363.358 616.123" stroke="#595CFF" stroke-width="2.79799" stroke-miterlimit="10"/>
<path d="M331.965 611.624C331.965 611.624 350.689 597.858 352.58 594.377C352.58 594.377 358.009 597.645 371.887 596.795" stroke="#595CFF" stroke-width="2.79799" stroke-miterlimit="10"/>
<path d="M335.121 612.934C335.121 612.934 346.112 603.219 351.014 602.268C355.916 601.316 368.708 596.918 368.708 596.918" stroke="#595CFF" stroke-width="2.79799" stroke-miterlimit="10"/>
<path d="M390.454 459.962C390.924 461.864 391.797 465.121 394.002 465.278C394.315 465.267 394.572 465.502 394.595 465.815C394.617 466.151 394.315 466.442 393.979 466.397C392.446 466.274 391.506 464.953 390.991 463.7C390.767 463.364 389.536 458.999 390.465 459.973L390.454 459.962Z" fill="#595CFF"/>
<path d="M390.443 454.68C390.622 456.056 390.521 457.388 390.264 458.754C389.905 457.411 390.006 456 390.443 454.68Z" fill="#595CFF"/>
<path d="M297.303 603.868C295.412 607.853 293.229 611.68 292.2 616.001C291.629 617.791 291.069 619.783 289.648 621.182C289.335 621.473 288.786 621.753 288.249 621.708C285.932 621.384 283.828 620.544 281.802 619.436C279.206 617.926 276.822 615.564 276.206 612.531C276.184 612.408 276.262 612.285 276.386 612.262C276.497 612.24 276.621 612.307 276.654 612.419C278.031 616.627 282.272 618.966 286.279 620.175C286.962 620.365 287.689 620.544 288.327 620.6C288.685 620.668 289.178 620.186 289.547 619.627C290.722 617.836 291.204 615.654 291.853 613.572C293.207 610.102 295.065 606.868 296.956 603.678C297.079 603.466 297.426 603.645 297.303 603.868Z" fill="#595CFF"/>
<path d="M291.349 597.937C293.711 598.306 295.86 599.626 297.303 601.507C297.382 601.607 297.359 601.753 297.259 601.831C297.158 601.91 297.012 601.887 296.934 601.798C295.546 600.074 293.453 598.854 291.282 598.574C290.857 598.552 290.913 597.881 291.338 597.948L291.349 597.937Z" fill="#595CFF"/>
<path d="M288.126 598.16C281.813 598.697 276.9 602.928 276.43 609.397C276.419 609.822 275.747 609.8 275.792 609.363C275.725 604.517 278.814 599.928 283.503 598.485C284.992 597.97 286.536 597.69 288.115 597.69C288.249 597.69 288.35 597.791 288.35 597.925C288.35 598.059 288.249 598.16 288.115 598.16H288.126Z" fill="#595CFF"/>
</svg>
