<svg width="740" height="956" viewBox="0 0 740 956" fill="none" xmlns="http://www.w3.org/2000/svg">
<g clip-path="url(#clip0_380_13045)">
<path d="M429.011 197.142H313.075C304.57 197.142 297.675 204.034 297.675 212.535C297.675 221.037 304.57 227.929 313.075 227.929H429.011C437.516 227.929 444.411 221.037 444.411 212.535C444.411 204.034 437.516 197.142 429.011 197.142Z" fill="white" stroke="black" stroke-width="1.19843" stroke-miterlimit="10"/>
<path d="M468.607 247.56H465.012V234.437C465.012 223.351 455.988 214.327 444.902 214.327V210.732C457.977 210.732 468.607 221.362 468.607 234.437V247.56Z" fill="white" stroke="black" stroke-width="1.19843" stroke-miterlimit="10"/>
<path d="M273.97 247.56H277.565V234.437C277.565 223.351 286.59 214.327 297.675 214.327V210.732C284.6 210.732 273.97 221.362 273.97 234.437V247.56Z" fill="white" stroke="black" stroke-width="1.19843" stroke-miterlimit="10"/>

<path d="M354.984 247.56H572.619C600.327 247.56 622.785 270.018 622.785 297.726V342.307V391.671C622.785 391.671 623.804 409.983 602.484 420.134C582.722 429.541 585.898 459.73 585.898 459.73V506.085V571.052C586.161 583.36 592.825 591.797 603.383 597.897C614.276 602.379 622.785 613.237 622.785 624.286C622.785 624.286 622.785 705.288 622.785 711.82C622.785 718.351 614.205 758.055 574.441 758.055H479.297C469.638 756.677 461.644 752.674 456.287 744.525C449.912 731.702 441.223 724.679 430.114 723.768H421.509H407.056H314.561C303.452 724.679 294.775 731.702 288.387 744.525C283.03 752.686 275.037 756.677 265.377 758.055H170.27C130.506 758.067 121.925 718.363 121.925 711.82C121.925 705.276 121.925 624.286 121.925 624.286C121.925 613.237 130.434 602.367 141.328 597.897C151.886 591.797 158.549 583.36 158.813 571.052V506.085V459.73C158.813 459.73 162.001 429.553 142.227 420.134C120.919 409.983 121.937 391.671 121.937 391.671V297.726C121.937 270.018 144.396 247.56 172.104 247.56H390.937" fill="white"/>
<path d="M354.984 247.56H572.619C600.327 247.56 622.785 270.018 622.785 297.726V342.307V391.671C622.785 391.671 623.804 409.983 602.484 420.134C582.722 429.541 585.898 459.73 585.898 459.73V506.085V571.052C586.161 583.36 592.825 591.797 603.383 597.897C614.276 602.379 622.785 613.237 622.785 624.286C622.785 624.286 622.785 705.288 622.785 711.82C622.785 718.351 614.205 758.055 574.441 758.055H479.297C469.638 756.677 461.644 752.674 456.287 744.525C449.912 731.702 441.223 724.679 430.114 723.768H421.509H407.056H314.561C303.452 724.679 294.775 731.702 288.387 744.525C283.03 752.686 275.037 756.677 265.377 758.055H170.27C130.506 758.067 121.925 718.363 121.925 711.82C121.925 705.276 121.925 624.286 121.925 624.286C121.925 613.237 130.434 602.367 141.328 597.897C151.886 591.797 158.549 583.36 158.813 571.052V506.085V459.73C158.813 459.73 162.001 429.553 142.227 420.134C120.919 409.983 121.937 391.671 121.937 391.671V297.726C121.937 270.018 144.396 247.56 172.104 247.56H390.937" fill="none" stroke="#000000" stroke-width="5" stroke-linecap="round" stroke-linejoin="round"/>
<path d="M501.492 425.455C507.422 425.455 512.23 430.262 512.23 436.192V695.258C512.23 701.188 507.423 705.995 501.492 705.995H243.29C237.36 705.995 232.553 701.188 232.553 695.258V436.192C232.553 430.262 237.36 425.455 243.29 425.455H501.492Z" fill="#FBFBFF" stroke="black" stroke-width="2.39686" stroke-miterlimit="10"/>
<path d="M295.098 302.376C296.641 302.376 297.891 301.126 297.891 299.583C297.891 298.041 296.641 296.791 295.098 296.791C293.556 296.791 292.306 298.041 292.306 299.583C292.306 301.126 293.556 302.376 295.098 302.376Z" stroke="#C5C5D3" stroke-width="1.19843" stroke-miterlimit="10"/>
<path d="M273.527 398.657C275.069 398.657 276.319 397.407 276.319 395.865C276.319 394.323 275.069 393.073 273.527 393.073C271.985 393.073 270.734 394.323 270.734 395.865C270.734 397.407 271.985 398.657 273.527 398.657Z" stroke="#C5C5D3" stroke-width="1.19843" stroke-miterlimit="10"/>
<path d="M210.058 302.376C211.6 302.376 212.85 301.126 212.85 299.583C212.85 298.041 211.6 296.791 210.058 296.791C208.516 296.791 207.266 298.041 207.266 299.583C207.266 301.126 208.516 302.376 210.058 302.376Z" stroke="#C5C5D3" stroke-width="1.19843" stroke-miterlimit="10"/>
<path d="M210.058 362.285C211.6 362.285 212.85 361.035 212.85 359.493C212.85 357.951 211.6 356.701 210.058 356.701C208.516 356.701 207.266 357.951 207.266 359.493C207.266 361.035 208.516 362.285 210.058 362.285Z" stroke="#C5C5D3" stroke-width="1.19843" stroke-miterlimit="10"/>
<path d="M252.399 326.716C253.941 326.716 255.191 325.466 255.191 323.924C255.191 322.382 253.941 321.131 252.399 321.131C250.857 321.131 249.606 322.382 249.606 323.924C249.606 325.466 250.857 326.716 252.399 326.716Z" stroke="#C5C5D3" stroke-width="1.19843" stroke-miterlimit="10"/>
<path d="M335.845 326.716C337.387 326.716 338.637 325.466 338.637 323.924C338.637 322.382 337.387 321.131 335.845 321.131C334.303 321.131 333.053 322.382 333.053 323.924C333.053 325.466 334.303 326.716 335.845 326.716Z" stroke="#C5C5D3" stroke-width="1.19843" stroke-miterlimit="10"/>
<path d="M335.845 377.038C337.387 377.038 338.637 375.788 338.637 374.245C338.637 372.703 337.387 371.453 335.845 371.453C334.303 371.453 333.053 372.703 333.053 374.245C333.053 375.788 334.303 377.038 335.845 377.038Z" stroke="#C5C5D3" stroke-width="1.19843" stroke-miterlimit="10"/>
<path d="M449.732 302.376C451.274 302.376 452.525 301.126 452.525 299.583C452.525 298.041 451.274 296.791 449.732 296.791C448.19 296.791 446.94 298.041 446.94 299.583C446.94 301.126 448.19 302.376 449.732 302.376Z" stroke="#C5C5D3" stroke-width="1.19843" stroke-miterlimit="10"/>
<path d="M471.304 398.657C472.846 398.657 474.096 397.407 474.096 395.865C474.096 394.323 472.846 393.073 471.304 393.073C469.762 393.073 468.512 394.323 468.512 395.865C468.512 397.407 469.762 398.657 471.304 398.657Z" stroke="#C5C5D3" stroke-width="1.19843" stroke-miterlimit="10"/>
<path d="M534.785 302.376C536.327 302.376 537.577 301.126 537.577 299.583C537.577 298.041 536.327 296.791 534.785 296.791C533.242 296.791 531.992 298.041 531.992 299.583C531.992 301.126 533.242 302.376 534.785 302.376Z" stroke="#C5C5D3" stroke-width="1.19843" stroke-miterlimit="10"/>
<path d="M492.444 326.716C493.986 326.716 495.237 325.466 495.237 323.924C495.237 322.382 493.986 321.131 492.444 321.131C490.902 321.131 489.652 322.382 489.652 323.924C489.652 325.466 490.902 326.716 492.444 326.716Z" stroke="#C5C5D3" stroke-width="1.19843" stroke-miterlimit="10"/>
<path d="M408.997 326.716C410.54 326.716 411.79 325.466 411.79 323.924C411.79 322.382 410.54 321.131 408.997 321.131C407.455 321.131 406.205 322.382 406.205 323.924C406.205 325.466 407.455 326.716 408.997 326.716Z" stroke="#C5C5D3" stroke-width="1.19843" stroke-miterlimit="10"/>
<path d="M408.997 377.038C410.54 377.038 411.79 375.788 411.79 374.245C411.79 372.703 410.54 371.453 408.997 371.453C407.455 371.453 406.205 372.703 406.205 374.245C406.205 375.788 407.455 377.038 408.997 377.038Z" stroke="#C5C5D3" stroke-width="1.19843" stroke-miterlimit="10"/>
<path d="M184.364 450.358C185.906 450.358 187.156 449.108 187.156 447.566C187.156 446.024 185.906 444.773 184.364 444.773C182.821 444.773 181.571 446.024 181.571 447.566C181.571 449.108 182.821 450.358 184.364 450.358Z" stroke="#C5C5D3" stroke-width="1.19843" stroke-miterlimit="10"/>
<path d="M209.531 489.906C211.073 489.906 212.323 488.656 212.323 487.114C212.323 485.571 211.073 484.321 209.531 484.321C207.988 484.321 206.738 485.571 206.738 487.114C206.738 488.656 207.988 489.906 209.531 489.906Z" stroke="#C5C5D3" stroke-width="1.19843" stroke-miterlimit="10"/>
<path d="M184.364 529.454C185.906 529.454 187.156 528.204 187.156 526.662C187.156 525.12 185.906 523.87 184.364 523.87C182.821 523.87 181.571 525.12 181.571 526.662C181.571 528.204 182.821 529.454 184.364 529.454Z" stroke="#C5C5D3" stroke-width="1.19843" stroke-miterlimit="10"/>
<path d="M202.34 569.003C203.882 569.003 205.133 567.752 205.133 566.21C205.133 564.668 203.882 563.418 202.34 563.418C200.798 563.418 199.548 564.668 199.548 566.21C199.548 567.752 200.798 569.003 202.34 569.003Z" stroke="#C5C5D3" stroke-width="1.19843" stroke-miterlimit="10"/>
<path d="M209.315 646.937C210.857 646.937 212.107 645.687 212.107 644.144C212.107 642.602 210.857 641.352 209.315 641.352C207.773 641.352 206.522 642.602 206.522 644.144C206.522 645.687 207.773 646.937 209.315 646.937Z" stroke="#C5C5D3" stroke-width="1.19843" stroke-miterlimit="10"/>
<path d="M184.148 607.388C185.69 607.388 186.94 606.138 186.94 604.596C186.94 603.054 185.69 601.804 184.148 601.804C182.606 601.804 181.355 603.054 181.355 604.596C181.355 606.138 182.606 607.388 184.148 607.388Z" stroke="#C5C5D3" stroke-width="1.19843" stroke-miterlimit="10"/>
<path d="M184.28 686.664C185.822 686.664 187.072 685.414 187.072 683.872C187.072 682.33 185.822 681.08 184.28 681.08C182.737 681.08 181.487 682.33 181.487 683.872C181.487 685.414 182.737 686.664 184.28 686.664Z" stroke="#C5C5D3" stroke-width="1.19843" stroke-miterlimit="10"/>
<path d="M233.415 729.808C234.958 729.808 236.208 728.558 236.208 727.016C236.208 725.473 234.958 724.223 233.415 724.223C231.873 724.223 230.623 725.473 230.623 727.016C230.623 728.558 231.873 729.808 233.415 729.808Z" stroke="#C5C5D3" stroke-width="1.19843" stroke-miterlimit="10"/>
<path d="M510.253 729.808C511.795 729.808 513.045 728.558 513.045 727.016C513.045 725.473 511.795 724.223 510.253 724.223C508.711 724.223 507.46 725.473 507.46 727.016C507.46 728.558 508.711 729.808 510.253 729.808Z" stroke="#C5C5D3" stroke-width="1.19843" stroke-miterlimit="10"/>
<path d="M165.92 636.953C167.138 636.953 168.125 635.703 168.125 634.161C168.125 632.619 167.138 631.369 165.92 631.369C164.702 631.369 163.715 632.619 163.715 634.161C163.715 635.703 164.702 636.953 165.92 636.953Z" stroke="#C5C5D3" stroke-width="1.19843" stroke-miterlimit="10"/>
<path d="M135.959 699.955C137.177 699.955 138.164 698.705 138.164 697.163C138.164 695.621 137.177 694.371 135.959 694.371C134.741 694.371 133.754 695.621 133.754 697.163C133.754 698.705 134.741 699.955 135.959 699.955Z" stroke="#C5C5D3" stroke-width="1.19843" stroke-miterlimit="10"/>
<path d="M165.92 384.768C167.138 384.768 168.125 383.518 168.125 381.975C168.125 380.433 167.138 379.183 165.92 379.183C164.702 379.183 163.715 380.433 163.715 381.975C163.715 383.518 164.702 384.768 165.92 384.768Z" stroke="#C5C5D3" stroke-width="1.19843" stroke-miterlimit="10"/>
<path d="M135.959 321.766C137.177 321.766 138.164 320.516 138.164 318.974C138.164 317.432 137.177 316.182 135.959 316.182C134.741 316.182 133.754 317.432 133.754 318.974C133.754 320.516 134.741 321.766 135.959 321.766Z" stroke="#C5C5D3" stroke-width="1.19843" stroke-miterlimit="10"/>
<path d="M535.504 647.943C537.046 647.943 538.296 646.693 538.296 645.151C538.296 643.609 537.046 642.358 535.504 642.358C533.962 642.358 532.711 643.609 532.711 645.151C532.711 646.693 533.962 647.943 535.504 647.943Z" stroke="#C5C5D3" stroke-width="1.19843" stroke-miterlimit="10"/>
<path d="M560.671 608.395C562.213 608.395 563.463 607.145 563.463 605.602C563.463 604.06 562.213 602.81 560.671 602.81C559.129 602.81 557.878 604.06 557.878 605.602C557.878 607.145 559.129 608.395 560.671 608.395Z" stroke="#C5C5D3" stroke-width="1.19843" stroke-miterlimit="10"/>
<path d="M541.496 568.847C543.038 568.847 544.288 567.597 544.288 566.055C544.288 564.512 543.038 563.262 541.496 563.262C539.954 563.262 538.704 564.512 538.704 566.055C538.704 567.597 539.954 568.847 541.496 568.847Z" stroke="#C5C5D3" stroke-width="1.19843" stroke-miterlimit="10"/>
<path d="M560.671 529.299C562.213 529.299 563.463 528.048 563.463 526.506C563.463 524.964 562.213 523.714 560.671 523.714C559.129 523.714 557.878 524.964 557.878 526.506C557.878 528.048 559.129 529.299 560.671 529.299Z" stroke="#C5C5D3" stroke-width="1.19843" stroke-miterlimit="10"/>
<path d="M560.455 451.377C561.997 451.377 563.247 450.127 563.247 448.584C563.247 447.042 561.997 445.792 560.455 445.792C558.913 445.792 557.663 447.042 557.663 448.584C557.663 450.127 558.913 451.377 560.455 451.377Z" stroke="#C5C5D3" stroke-width="1.19843" stroke-miterlimit="10"/>
<path d="M535.288 490.925C536.83 490.925 538.08 489.674 538.08 488.132C538.08 486.59 536.83 485.34 535.288 485.34C533.746 485.34 532.496 486.59 532.496 488.132C532.496 489.674 533.746 490.925 535.288 490.925Z" stroke="#C5C5D3" stroke-width="1.19843" stroke-miterlimit="10"/>
<path d="M535.42 362.513C536.962 362.513 538.212 361.263 538.212 359.721C538.212 358.178 536.962 356.928 535.42 356.928C533.878 356.928 532.627 358.178 532.627 359.721C532.627 361.263 533.878 362.513 535.42 362.513Z" stroke="#C5C5D3" stroke-width="1.19843" stroke-miterlimit="10"/>
<path d="M579.378 385.175C580.596 385.175 581.584 383.925 581.584 382.383C581.584 380.841 580.596 379.591 579.378 379.591C578.161 379.591 577.173 380.841 577.173 382.383C577.173 383.925 578.161 385.175 579.378 385.175Z" stroke="#C5C5D3" stroke-width="1.19843" stroke-miterlimit="10"/>
<path d="M578.18 636.845C579.398 636.845 580.385 635.595 580.385 634.053C580.385 632.511 579.398 631.261 578.18 631.261C576.962 631.261 575.975 632.511 575.975 634.053C575.975 635.595 576.962 636.845 578.18 636.845Z" stroke="#C5C5D3" stroke-width="1.19843" stroke-miterlimit="10"/>
<path d="M559.161 687.455C560.703 687.455 561.953 686.205 561.953 684.663C561.953 683.121 560.703 681.871 559.161 681.871C557.619 681.871 556.369 683.121 556.369 684.663C556.369 686.205 557.619 687.455 559.161 687.455Z" stroke="#C5C5D3" stroke-width="1.19843" stroke-miterlimit="10"/>
<path d="M608.296 701.837C609.514 701.837 610.502 700.586 610.502 699.044C610.502 697.502 609.514 696.252 608.296 696.252C607.079 696.252 606.091 697.502 606.091 699.044C606.091 700.586 607.079 701.837 608.296 701.837Z" stroke="#C5C5D3" stroke-width="1.19843" stroke-miterlimit="10"/>
<path d="M609.267 322.114C610.485 322.114 611.472 320.864 611.472 319.322C611.472 317.779 610.485 316.529 609.267 316.529C608.049 316.529 607.062 317.779 607.062 319.322C607.062 320.864 608.049 322.114 609.267 322.114Z" stroke="#C5C5D3" stroke-width="1.19843" stroke-miterlimit="10"/>
<path d="M539.788 394.493L538.491 393.197C537.106 391.811 534.86 391.812 533.475 393.197L520.526 406.145C519.141 407.531 519.141 409.777 520.526 411.162L521.823 412.459C523.208 413.844 525.454 413.844 526.839 412.459L539.788 399.51C541.173 398.125 541.173 395.879 539.788 394.493Z" fill="#F5F6FC" stroke="black" stroke-width="1.19843" stroke-miterlimit="10"/>
<path d="M206.624 392.875L205.328 394.172C203.942 395.557 203.942 397.803 205.328 399.189L218.276 412.137C219.662 413.522 221.908 413.522 223.293 412.137L224.59 410.841C225.975 409.455 225.975 407.209 224.59 405.824L211.641 392.875C210.256 391.49 208.01 391.49 206.624 392.875Z" fill="#F5F6FC" stroke="black" stroke-width="1.19843" stroke-miterlimit="10"/>
<path d="M522.206 711.043L520.909 712.339C519.524 713.725 519.524 715.971 520.909 717.356L533.858 730.305C535.243 731.69 537.489 731.69 538.875 730.305L540.171 729.008C541.556 727.623 541.556 725.377 540.171 723.991L527.222 711.043C525.837 709.657 523.591 709.657 522.206 711.043Z" fill="#F5F6FC" stroke="black" stroke-width="1.19843" stroke-miterlimit="10"/>
<path d="M224.601 712.332L223.304 711.036C221.919 709.65 219.673 709.65 218.288 711.036L205.339 723.984C203.954 725.37 203.954 727.616 205.339 729.001L206.636 730.298C208.021 731.683 210.267 731.683 211.652 730.298L224.601 717.349C225.986 715.964 225.986 713.718 224.601 712.332Z" fill="#F5F6FC" stroke="black" stroke-width="1.19843" stroke-miterlimit="10"/>
<path d="M373.584 389.49H371.75C369.791 389.49 368.203 391.078 368.203 393.037V411.96C368.203 413.919 369.791 415.508 371.75 415.508H373.584C375.543 415.508 377.131 413.919 377.131 411.96V393.037C377.131 391.078 375.543 389.49 373.584 389.49Z" fill="#F5F6FC" stroke="black" stroke-width="1.19843" stroke-miterlimit="10"/>
<path d="M369.964 432.489H322.758V436.085H369.964V432.489Z" fill="#C5C5D3"/>
<path d="M421.413 698.96H420.19V695.005H421.461C421.844 695.005 422.168 695.089 422.443 695.245C422.719 695.401 422.923 695.629 423.067 695.928C423.21 696.228 423.282 696.575 423.282 696.983C423.282 697.39 423.21 697.75 423.067 698.049C422.923 698.349 422.707 698.577 422.42 698.733C422.132 698.888 421.796 698.972 421.401 698.972L421.413 698.96ZM420.67 698.529H421.377C421.7 698.529 421.976 698.469 422.192 698.337C422.408 698.205 422.563 698.025 422.671 697.798C422.779 697.57 422.827 697.282 422.827 696.959C422.827 696.635 422.779 696.36 422.671 696.132C422.563 695.904 422.408 695.724 422.204 695.593C422 695.473 421.736 695.401 421.425 695.401H420.658V698.505L420.67 698.529Z" fill="#C5C5D3"/>
<path d="M427.441 696.983C427.441 697.403 427.369 697.762 427.213 698.062C427.057 698.361 426.854 698.601 426.59 698.769C426.326 698.937 426.027 699.02 425.691 699.02C425.356 699.02 425.056 698.937 424.792 698.769C424.529 698.601 424.325 698.373 424.169 698.062C424.013 697.762 423.941 697.391 423.941 696.983C423.941 696.576 424.013 696.204 424.169 695.905C424.325 695.605 424.529 695.365 424.792 695.197C425.056 695.03 425.356 694.946 425.691 694.946C426.027 694.946 426.326 695.03 426.59 695.197C426.854 695.365 427.057 695.593 427.213 695.905C427.357 696.204 427.441 696.564 427.441 696.983ZM426.985 696.983C426.985 696.636 426.926 696.348 426.818 696.12C426.71 695.881 426.554 695.701 426.35 695.581C426.159 695.461 425.943 695.401 425.703 695.401C425.463 695.401 425.248 695.461 425.056 695.581C424.864 695.701 424.708 695.881 424.589 696.12C424.481 696.36 424.421 696.648 424.421 696.983C424.421 697.319 424.481 697.618 424.589 697.846C424.708 698.086 424.852 698.265 425.056 698.385C425.248 698.505 425.463 698.565 425.703 698.565C425.943 698.565 426.159 698.505 426.35 698.385C426.542 698.265 426.698 698.086 426.818 697.846C426.937 697.606 426.985 697.319 426.985 696.983Z" fill="#C5C5D3"/>
<path d="M432.918 694.994V698.948H432.45L430.293 695.845H430.257V698.948H429.778V694.994H430.245L432.414 698.11H432.45V694.994H432.918Z" fill="#C5C5D3"/>
<path d="M437.22 696.983C437.22 697.403 437.148 697.762 436.992 698.062C436.837 698.361 436.633 698.601 436.369 698.769C436.106 698.937 435.806 699.02 435.47 699.02C435.135 699.02 434.835 698.937 434.572 698.769C434.308 698.601 434.104 698.373 433.948 698.062C433.793 697.762 433.721 697.391 433.721 696.983C433.721 696.576 433.793 696.204 433.948 695.905C434.104 695.605 434.308 695.365 434.572 695.197C434.835 695.03 435.135 694.946 435.47 694.946C435.806 694.946 436.106 695.03 436.369 695.197C436.633 695.365 436.837 695.593 436.992 695.905C437.136 696.204 437.22 696.564 437.22 696.983ZM436.753 696.983C436.753 696.636 436.693 696.348 436.585 696.12C436.477 695.881 436.321 695.701 436.118 695.581C435.926 695.461 435.71 695.401 435.47 695.401C435.231 695.401 435.015 695.461 434.823 695.581C434.631 695.701 434.476 695.881 434.356 696.12C434.248 696.36 434.188 696.648 434.188 696.983C434.188 697.319 434.248 697.618 434.356 697.846C434.476 698.086 434.62 698.265 434.823 698.385C435.015 698.505 435.231 698.565 435.47 698.565C435.71 698.565 435.926 698.505 436.118 698.385C436.309 698.265 436.465 698.086 436.585 697.846C436.705 697.606 436.753 697.319 436.753 696.983Z" fill="#C5C5D3"/>
<path d="M437.64 695.425V694.994H440.612V695.425H439.365V698.96H438.886V695.425H437.64Z" fill="#C5C5D3"/>
<path d="M442.889 698.96V695.005H445.274V695.437H443.368V696.779H445.154V697.199H443.368V698.541H445.309V698.96H442.889Z" fill="#C5C5D3"/>
<path d="M446.376 694.994L447.395 696.647H447.431L448.45 694.994H449.013L447.766 696.971L449.013 698.948H448.45L447.431 697.331H447.395L446.376 698.948H445.813L447.083 696.971L445.813 694.994H446.376Z" fill="#C5C5D3"/>
<path d="M452.764 696.24H452.284C452.26 696.108 452.213 695.976 452.141 695.88C452.069 695.784 451.985 695.689 451.889 695.617C451.793 695.545 451.673 695.497 451.553 695.461C451.434 695.425 451.302 695.413 451.17 695.413C450.93 695.413 450.714 695.473 450.523 695.593C450.331 695.713 450.175 695.892 450.055 696.132C449.947 696.372 449.888 696.659 449.888 696.995C449.888 697.33 449.947 697.63 450.055 697.858C450.175 698.097 450.319 698.277 450.523 698.397C450.714 698.517 450.93 698.577 451.17 698.577C451.302 698.577 451.422 698.565 451.553 698.529C451.673 698.493 451.781 698.433 451.889 698.373C451.985 698.301 452.069 698.217 452.141 698.109C452.213 698.002 452.26 697.882 452.284 697.75H452.764C452.728 697.954 452.668 698.133 452.56 698.289C452.464 698.445 452.344 698.589 452.201 698.697C452.057 698.804 451.901 698.888 451.721 698.948C451.541 699.008 451.362 699.032 451.158 699.032C450.822 699.032 450.523 698.948 450.259 698.78C449.995 698.613 449.792 698.385 449.636 698.073C449.48 697.774 449.408 697.402 449.408 696.995C449.408 696.587 449.48 696.216 449.636 695.916C449.792 695.617 449.995 695.377 450.259 695.209C450.523 695.041 450.822 694.958 451.158 694.958C451.362 694.958 451.541 694.981 451.721 695.041C451.901 695.101 452.057 695.185 452.201 695.293C452.344 695.401 452.464 695.545 452.56 695.701C452.656 695.856 452.716 696.036 452.764 696.24Z" fill="#C5C5D3"/>
<path d="M453.531 698.96V695.005H455.916V695.437H454.01V696.779H455.796V697.199H454.01V698.541H455.952V698.96H453.531Z" fill="#C5C5D3"/>
<path d="M456.791 698.96V695.005H459.175V695.437H457.27V696.779H459.056V697.199H457.27V698.541H459.211V698.96H456.791Z" fill="#C5C5D3"/>
<path d="M461.26 698.96H460.038V695.005H461.308C461.692 695.005 462.016 695.089 462.291 695.245C462.567 695.401 462.771 695.629 462.914 695.928C463.058 696.228 463.13 696.575 463.13 696.983C463.13 697.39 463.058 697.75 462.914 698.049C462.771 698.349 462.555 698.577 462.267 698.733C461.98 698.888 461.644 698.972 461.249 698.972L461.26 698.96ZM460.517 698.529H461.225C461.548 698.529 461.824 698.469 462.039 698.337C462.255 698.205 462.411 698.025 462.519 697.798C462.627 697.57 462.675 697.282 462.675 696.959C462.675 696.635 462.627 696.36 462.519 696.132C462.411 695.904 462.255 695.724 462.051 695.593C461.848 695.473 461.584 695.401 461.272 695.401H460.505V698.505L460.517 698.529Z" fill="#C5C5D3"/>
<path d="M466.761 699.008C466.51 699.008 466.282 698.96 466.078 698.876C465.875 698.793 465.719 698.673 465.599 698.505C465.479 698.349 465.419 698.169 465.407 697.954H465.899C465.899 698.085 465.947 698.193 466.03 698.289C466.114 698.385 466.21 698.457 466.33 698.505C466.45 698.553 466.594 698.577 466.749 698.577C466.917 698.577 467.073 698.553 467.205 698.493C467.337 698.433 467.445 698.349 467.516 698.241C467.588 698.133 467.624 698.014 467.624 697.87C467.624 697.726 467.588 697.594 467.516 697.486C467.445 697.378 467.337 697.283 467.205 697.223C467.073 697.163 466.893 697.127 466.69 697.127H466.378V696.707H466.69C466.845 696.707 466.989 696.683 467.109 696.623C467.229 696.563 467.325 696.492 467.385 696.384C467.457 696.276 467.481 696.156 467.481 696.024C467.481 695.892 467.457 695.772 467.397 695.677C467.337 695.581 467.253 695.497 467.145 695.449C467.037 695.401 466.905 695.365 466.761 695.365C466.63 695.365 466.498 695.389 466.378 695.437C466.258 695.485 466.162 695.557 466.078 695.653C465.994 695.749 465.959 695.856 465.959 695.988H465.491C465.491 695.784 465.563 695.593 465.683 695.437C465.803 695.281 465.959 695.161 466.138 695.065C466.33 694.982 466.534 694.934 466.761 694.934C467.013 694.934 467.217 694.982 467.397 695.077C467.576 695.173 467.708 695.305 467.804 695.473C467.9 695.629 467.948 695.808 467.948 696C467.948 696.228 467.888 696.408 467.768 696.575C467.648 696.731 467.493 696.839 467.289 696.899V696.935C467.54 696.971 467.732 697.079 467.876 697.259C468.02 697.438 468.092 697.642 468.092 697.894C468.092 698.109 468.032 698.301 467.912 698.469C467.792 698.637 467.636 698.769 467.433 698.876C467.229 698.972 467.001 699.02 466.749 699.02L466.761 699.008Z" fill="#C5C5D3"/>
<path d="M470.177 699.008C469.889 699.008 469.638 698.924 469.434 698.769C469.23 698.613 469.074 698.373 468.967 698.073C468.859 697.774 468.799 697.402 468.799 696.971C468.799 696.54 468.859 696.18 468.967 695.868C469.074 695.569 469.23 695.329 469.434 695.173C469.638 695.017 469.889 694.934 470.177 694.934C470.465 694.934 470.716 695.017 470.92 695.173C471.124 695.329 471.28 695.569 471.387 695.868C471.495 696.168 471.555 696.54 471.555 696.971C471.555 697.402 471.495 697.774 471.387 698.073C471.28 698.373 471.124 698.613 470.92 698.769C470.716 698.924 470.465 699.008 470.177 699.008ZM470.177 698.589C470.465 698.589 470.692 698.445 470.848 698.169C471.004 697.894 471.088 697.498 471.088 696.983C471.088 696.635 471.052 696.348 470.98 696.108C470.908 695.868 470.8 695.689 470.668 695.557C470.537 695.425 470.369 695.365 470.177 695.365C469.889 695.365 469.662 695.509 469.506 695.784C469.35 696.06 469.266 696.468 469.266 696.983C469.266 697.33 469.302 697.618 469.374 697.858C469.446 698.097 469.554 698.277 469.686 698.409C469.817 698.529 469.985 698.601 470.177 698.601V698.589Z" fill="#C5C5D3"/>
<path d="M473.58 699.008C473.293 699.008 473.041 698.924 472.837 698.769C472.634 698.613 472.478 698.373 472.37 698.073C472.262 697.774 472.202 697.402 472.202 696.971C472.202 696.54 472.262 696.18 472.37 695.868C472.478 695.569 472.634 695.329 472.837 695.173C473.041 695.017 473.293 694.934 473.58 694.934C473.868 694.934 474.12 695.017 474.323 695.173C474.527 695.329 474.683 695.569 474.791 695.868C474.899 696.168 474.959 696.54 474.959 696.971C474.959 697.402 474.899 697.774 474.791 698.073C474.683 698.373 474.527 698.613 474.323 698.769C474.12 698.924 473.868 699.008 473.58 699.008ZM473.58 698.589C473.868 698.589 474.096 698.445 474.251 698.169C474.407 697.894 474.491 697.498 474.491 696.983C474.491 696.635 474.455 696.348 474.383 696.108C474.311 695.868 474.204 695.689 474.072 695.557C473.94 695.425 473.772 695.365 473.58 695.365C473.293 695.365 473.065 695.509 472.909 695.784C472.753 696.06 472.67 696.468 472.67 696.983C472.67 697.33 472.706 697.618 472.777 697.858C472.849 698.097 472.957 698.277 473.089 698.409C473.221 698.529 473.389 698.601 473.58 698.601V698.589Z" fill="#C5C5D3"/>
<path d="M475.762 698.96V695.005H476.241V698.541H478.087V698.96H475.762Z" fill="#C5C5D3"/>
<path d="M478.818 698.96V695.005H480.196C480.471 695.005 480.699 695.053 480.879 695.149C481.059 695.245 481.191 695.365 481.274 695.533C481.358 695.7 481.406 695.868 481.406 696.06C481.406 696.228 481.37 696.372 481.31 696.479C481.25 696.587 481.167 696.683 481.071 696.743C480.975 696.803 480.867 696.851 480.759 696.887V696.923C480.879 696.923 480.999 696.971 481.119 697.055C481.238 697.127 481.346 697.246 481.43 697.39C481.514 697.534 481.55 697.714 481.55 697.918C481.55 698.121 481.502 698.301 481.418 698.457C481.334 698.613 481.191 698.744 480.987 698.828C480.783 698.912 480.543 698.972 480.232 698.972H478.806L478.818 698.96ZM479.297 696.743H480.184C480.328 696.743 480.459 696.719 480.579 696.659C480.699 696.599 480.783 696.527 480.855 696.42C480.927 696.312 480.963 696.192 480.963 696.06C480.963 695.88 480.903 695.736 480.783 695.617C480.663 695.497 480.471 695.437 480.208 695.437H479.309V696.755L479.297 696.743ZM479.297 698.529H480.244C480.555 698.529 480.783 698.469 480.915 698.349C481.047 698.229 481.119 698.073 481.119 697.906C481.119 697.774 481.083 697.654 481.011 697.534C480.939 697.414 480.843 697.33 480.723 697.258C480.603 697.187 480.447 697.151 480.28 697.151H479.309V698.529H479.297Z" fill="#C5C5D3"/>
<path d="M484.522 695.988C484.498 695.796 484.402 695.641 484.234 695.533C484.067 695.425 483.863 695.365 483.623 695.365C483.443 695.365 483.3 695.389 483.168 695.449C483.036 695.509 482.94 695.581 482.868 695.689C482.796 695.785 482.76 695.904 482.76 696.024C482.76 696.132 482.784 696.216 482.832 696.3C482.88 696.372 482.952 696.444 483.024 696.492C483.108 696.54 483.192 696.587 483.276 696.611C483.36 696.635 483.443 696.671 483.515 696.683L483.923 696.791C484.031 696.815 484.139 696.851 484.27 696.899C484.402 696.947 484.522 697.007 484.63 697.091C484.75 697.175 484.846 697.283 484.918 697.402C484.989 697.522 485.025 697.69 485.025 697.87C485.025 698.086 484.965 698.277 484.858 698.445C484.75 698.613 484.582 698.757 484.366 698.853C484.151 698.948 483.899 699.008 483.587 699.008C483.3 699.008 483.06 698.96 482.856 698.876C482.653 698.781 482.485 698.661 482.365 698.493C482.245 698.325 482.185 698.145 482.161 697.918H482.652C482.664 698.062 482.712 698.193 482.808 698.289C482.892 698.385 483.012 698.457 483.144 698.505C483.276 698.553 483.431 698.577 483.587 698.577C483.767 698.577 483.935 698.553 484.079 698.493C484.222 698.433 484.342 698.349 484.426 698.241C484.51 698.133 484.558 698.002 484.558 697.858C484.558 697.726 484.522 697.618 484.45 697.534C484.378 697.45 484.282 697.39 484.163 697.33C484.043 697.283 483.911 697.235 483.779 697.199L483.288 697.055C482.976 696.971 482.736 696.839 482.557 696.671C482.377 696.504 482.281 696.288 482.281 696.024C482.281 695.796 482.341 695.605 482.461 695.437C482.581 695.269 482.748 695.137 482.952 695.053C483.156 694.958 483.384 694.91 483.635 694.91C483.887 694.91 484.115 694.958 484.318 695.041C484.522 695.137 484.678 695.257 484.786 695.413C484.906 695.569 484.965 695.749 484.965 695.952H484.498L484.522 695.988Z" fill="#C5C5D3"/>
<path d="M259.169 436.252L258.067 432.297H258.69L259.457 435.365H259.493L260.296 432.297H260.919L261.722 435.365H261.758L262.525 432.297H263.16L262.058 436.252H261.458L260.62 433.292H260.584L259.745 436.252H259.145H259.169Z" fill="#C5C5D3"/>
<path d="M263.711 436.252V432.297H266.192V432.813H264.311V434.023H266.06V434.538H264.311V435.749H266.216V436.264H263.711V436.252Z" fill="#C5C5D3"/>
<path d="M267.594 432.286V436.24H266.995V432.286H267.594Z" fill="#C5C5D3"/>
<path d="M271.142 433.544C271.106 433.424 271.058 433.316 270.998 433.232C270.938 433.136 270.866 433.064 270.77 432.993C270.675 432.921 270.591 432.873 270.471 432.837C270.363 432.801 270.243 432.789 270.111 432.789C269.884 432.789 269.692 432.849 269.512 432.957C269.332 433.064 269.189 433.244 269.093 433.46C268.985 433.676 268.937 433.951 268.937 434.275C268.937 434.598 268.985 434.862 269.093 435.09C269.201 435.318 269.344 435.485 269.524 435.593C269.704 435.701 269.908 435.761 270.147 435.761C270.363 435.761 270.555 435.713 270.711 435.629C270.866 435.545 270.998 435.413 271.082 435.258C271.166 435.102 271.214 434.91 271.214 434.694L271.37 434.718H270.231V434.227H271.789V434.682C271.789 435.018 271.717 435.306 271.573 435.545C271.43 435.785 271.238 435.977 270.986 436.108C270.735 436.24 270.459 436.312 270.135 436.312C269.776 436.312 269.464 436.228 269.189 436.061C268.913 435.893 268.709 435.665 268.553 435.353C268.398 435.054 268.326 434.694 268.326 434.275C268.326 433.963 268.374 433.676 268.458 433.424C268.541 433.172 268.673 432.957 268.829 432.777C268.985 432.597 269.177 432.465 269.392 432.369C269.608 432.274 269.848 432.226 270.099 432.226C270.315 432.226 270.507 432.262 270.699 432.321C270.89 432.381 271.046 432.477 271.19 432.585C271.334 432.705 271.454 432.837 271.549 432.993C271.645 433.148 271.705 433.328 271.741 433.52H271.13L271.142 433.544Z" fill="#C5C5D3"/>
<path d="M272.544 436.252V432.297H273.143V434.023H275.121V432.297H275.72V436.252H275.121V434.526H273.143V436.252H272.544Z" fill="#C5C5D3"/>
<path d="M276.391 432.801V432.286H279.459V432.801H278.225V436.24H277.625V432.801H276.391Z" fill="#C5C5D3"/>
<path d="M281.568 436.252V432.297H283.018C283.294 432.297 283.534 432.345 283.713 432.441C283.893 432.537 284.037 432.657 284.121 432.813C284.205 432.968 284.253 433.148 284.253 433.34C284.253 433.508 284.229 433.64 284.157 433.759C284.085 433.879 284.013 433.963 283.917 434.035C283.821 434.107 283.701 434.155 283.582 434.179V434.215C283.713 434.215 283.845 434.263 283.965 434.347C284.085 434.419 284.193 434.538 284.277 434.682C284.361 434.826 284.396 434.994 284.396 435.21C284.396 435.425 284.349 435.593 284.253 435.749C284.157 435.905 284.013 436.036 283.809 436.132C283.618 436.228 283.354 436.276 283.054 436.276H281.532L281.568 436.252ZM282.167 433.999H282.97C283.102 433.999 283.222 433.975 283.33 433.927C283.438 433.879 283.522 433.807 283.582 433.712C283.641 433.616 283.677 433.508 283.677 433.376C283.677 433.208 283.618 433.076 283.51 432.968C283.39 432.861 283.222 432.801 282.982 432.801H282.167V433.999ZM282.167 435.737H283.03C283.318 435.737 283.522 435.677 283.641 435.569C283.761 435.461 283.821 435.317 283.821 435.15C283.821 435.03 283.785 434.91 283.725 434.802C283.665 434.694 283.57 434.61 283.45 434.55C283.33 434.49 283.198 434.455 283.03 434.455H282.143V435.725L282.167 435.737Z" fill="#C5C5D3"/>
<path d="M285.127 436.252V432.297H287.608V432.813H285.727V434.023H287.476V434.538H285.727V435.749H287.632V436.264H285.127V436.252Z" fill="#C5C5D3"/>
<path d="M288.746 436.252H288.111L289.537 432.297H290.233L291.659 436.252H291.024L289.909 433.016H289.873L288.746 436.252ZM288.854 434.694H290.916V435.198H288.854V434.694Z" fill="#C5C5D3"/>
<path d="M292.222 436.252V432.297H293.636C293.948 432.297 294.199 432.345 294.403 432.453C294.607 432.561 294.763 432.705 294.859 432.897C294.954 433.088 295.002 433.292 295.002 433.544C295.002 433.795 294.954 433.999 294.847 434.179C294.751 434.359 294.595 434.502 294.391 434.61C294.187 434.718 293.936 434.766 293.624 434.766H292.558V434.251H293.576C293.768 434.251 293.924 434.227 294.044 434.167C294.163 434.107 294.259 434.035 294.307 433.927C294.367 433.819 294.391 433.7 294.391 433.544C294.391 433.388 294.367 433.268 294.307 433.16C294.247 433.052 294.163 432.968 294.044 432.909C293.924 432.849 293.756 432.825 293.564 432.825H292.809V436.276H292.21L292.222 436.252ZM294.175 434.467L295.158 436.252H294.475L293.516 434.467H294.175Z" fill="#C5C5D3"/>
<path d="M296.333 432.286V436.24H295.733V432.286H296.333Z" fill="#C5C5D3"/>
<path d="M300.396 432.286V436.24H299.844L297.831 433.34H297.795V436.24H297.196V432.286H297.747L299.76 435.198H299.796V432.286H300.384H300.396Z" fill="#C5C5D3"/>
<path d="M303.943 433.544C303.907 433.424 303.859 433.316 303.799 433.232C303.739 433.136 303.667 433.064 303.571 432.993C303.475 432.921 303.392 432.873 303.272 432.837C303.164 432.801 303.044 432.789 302.912 432.789C302.684 432.789 302.493 432.849 302.313 432.957C302.133 433.064 301.989 433.244 301.893 433.46C301.786 433.676 301.738 433.951 301.738 434.275C301.738 434.598 301.786 434.862 301.893 435.09C302.001 435.318 302.145 435.485 302.325 435.593C302.505 435.701 302.708 435.761 302.948 435.761C303.164 435.761 303.356 435.713 303.511 435.629C303.667 435.545 303.799 435.413 303.883 435.258C303.967 435.102 304.015 434.91 304.015 434.694L304.17 434.718H303.032V434.227H304.59V434.682C304.59 435.018 304.518 435.306 304.374 435.545C304.23 435.785 304.039 435.977 303.787 436.108C303.535 436.24 303.26 436.312 302.936 436.312C302.577 436.312 302.265 436.228 301.989 436.061C301.714 435.893 301.51 435.665 301.354 435.353C301.198 435.054 301.126 434.694 301.126 434.275C301.126 433.963 301.174 433.676 301.258 433.424C301.342 433.172 301.474 432.957 301.63 432.777C301.786 432.597 301.977 432.465 302.193 432.369C302.409 432.274 302.648 432.226 302.9 432.226C303.116 432.226 303.308 432.262 303.499 432.321C303.691 432.381 303.847 432.477 303.991 432.585C304.135 432.705 304.254 432.837 304.35 432.993C304.446 433.148 304.506 433.328 304.542 433.52H303.931L303.943 433.544Z" fill="#C5C5D3"/>
<path d="M306.675 436.252V435.857L308.76 432.813H306.663V432.297H309.491V432.693L307.406 435.737H309.503V436.252H306.675Z" fill="#C5C5D3"/>
<path d="M313.518 434.275C313.518 434.694 313.446 435.066 313.291 435.365C313.135 435.665 312.919 435.905 312.655 436.061C312.392 436.228 312.08 436.3 311.745 436.3C311.409 436.3 311.097 436.216 310.822 436.061C310.558 435.893 310.342 435.665 310.187 435.365C310.031 435.066 309.959 434.694 309.959 434.275C309.959 433.855 310.031 433.484 310.187 433.184C310.342 432.885 310.558 432.645 310.822 432.489C311.086 432.321 311.397 432.25 311.745 432.25C312.092 432.25 312.392 432.333 312.655 432.489C312.919 432.657 313.135 432.885 313.291 433.184C313.446 433.484 313.518 433.855 313.518 434.275ZM312.919 434.275C312.919 433.951 312.871 433.676 312.763 433.46C312.655 433.244 312.512 433.076 312.332 432.957C312.152 432.849 311.948 432.789 311.721 432.789C311.493 432.789 311.289 432.849 311.109 432.957C310.93 433.064 310.786 433.244 310.69 433.46C310.582 433.676 310.534 433.951 310.534 434.275C310.534 434.598 310.582 434.874 310.69 435.09C310.798 435.306 310.93 435.473 311.109 435.593C311.289 435.713 311.493 435.761 311.721 435.761C311.948 435.761 312.152 435.701 312.332 435.593C312.512 435.485 312.655 435.318 312.763 435.09C312.871 434.874 312.919 434.598 312.919 434.275Z" fill="#C5C5D3"/>
<path d="M317.449 432.286V436.24H316.898L314.885 433.34H314.849V436.24H314.25V432.286H314.801L316.814 435.198H316.85V432.286H317.437H317.449Z" fill="#C5C5D3"/>
<path d="M318.324 436.252V432.297H320.805V432.813H318.923V434.023H320.673V434.538H318.923V435.749H320.829V436.264H318.324V436.252Z" fill="#C5C5D3"/>
<path d="M501.624 441.094V563.777H505.22V441.094C505.22 436.348 501.361 432.489 496.615 432.489H374.531V436.085H496.615C499.371 436.085 501.624 438.338 501.624 441.094Z" fill="#C5C5D3"/>
<path d="M243.159 563.777V441.094C243.159 438.338 245.412 436.085 248.168 436.085H255.922V432.489H248.168C243.422 432.489 239.563 436.348 239.563 441.094V563.777H243.159Z" fill="#C5C5D3"/>
<path d="M501.624 568.343V690.355C501.624 693.124 499.371 695.365 496.615 695.365H487.387V698.96H496.615C501.36 698.96 505.219 695.101 505.219 690.355V568.343H501.624Z" fill="#C5C5D3"/>
<path d="M243.159 690.355V568.343H239.563V690.355C239.563 695.101 243.422 698.96 248.168 698.96H416.656V695.365H248.168C245.4 695.365 243.159 693.112 243.159 690.355Z" fill="#C5C5D3"/>
<g clip-path="url(#clip1_380_13045)">
<path d="M352.634 287.378V286.57C352.634 286.506 352.577 286.455 352.515 286.462C350.022 286.75 348.114 288.707 347.829 291.176C347.822 291.24 347.873 291.296 347.936 291.296H348.768C348.82 291.296 348.863 291.258 348.869 291.206C349.127 289.267 350.595 287.745 352.545 287.479C352.597 287.472 352.635 287.43 352.635 287.378" fill="black"/>
<path d="M353.671 296.257V297.065C353.671 297.128 353.728 297.18 353.791 297.172C356.283 296.884 358.191 294.929 358.475 292.458C358.482 292.394 358.431 292.338 358.368 292.338H357.536C357.484 292.338 357.441 292.376 357.435 292.428C357.178 294.367 355.71 295.891 353.761 296.155C353.71 296.161 353.671 296.204 353.671 296.256" fill="black"/>
<path d="M357.536 291.296H358.369C358.432 291.296 358.483 291.239 358.476 291.176C358.192 288.707 356.284 286.75 353.792 286.462C353.728 286.455 353.672 286.507 353.672 286.57V287.377C353.672 287.429 353.71 287.472 353.762 287.478C355.712 287.743 357.179 289.266 357.436 291.205C357.442 291.256 357.485 291.295 357.536 291.295" fill="black"/>
<path d="M348.77 292.339H347.938C347.874 292.339 347.823 292.397 347.831 292.46C348.116 294.929 350.023 296.886 352.515 297.174C352.578 297.181 352.635 297.129 352.635 297.066V296.257C352.635 296.205 352.596 296.163 352.545 296.156C350.595 295.892 349.128 294.369 348.871 292.43C348.864 292.379 348.821 292.339 348.77 292.339Z" fill="black"/>
<path d="M380.13 287.378V286.57C380.13 286.506 380.073 286.455 380.011 286.462C377.518 286.75 375.61 288.707 375.326 291.176C375.319 291.24 375.371 291.296 375.434 291.296H376.267C376.318 291.296 376.361 291.258 376.367 291.206C376.624 289.267 378.092 287.744 380.041 287.479C380.092 287.472 380.131 287.43 380.131 287.378" fill="black"/>
<path d="M385.032 291.296H385.864C385.927 291.296 385.978 291.239 385.971 291.176C385.686 288.707 383.779 286.75 381.287 286.462C381.223 286.455 381.167 286.507 381.167 286.57V287.377C381.167 287.429 381.205 287.472 381.257 287.478C383.206 287.743 384.674 289.266 384.931 291.205C384.938 291.256 384.98 291.295 385.032 291.295" fill="black"/>
<path d="M376.264 292.339H375.432C375.369 292.339 375.318 292.397 375.324 292.46C375.609 294.929 377.516 296.886 380.008 297.174C380.072 297.181 380.128 297.129 380.128 297.066V296.257C380.128 296.205 380.09 296.163 380.038 296.156C378.088 295.892 376.621 294.369 376.364 292.43C376.358 292.379 376.315 292.339 376.263 292.339" fill="black"/>
<path d="M381.167 296.257V297.065C381.167 297.128 381.224 297.18 381.287 297.172C383.779 296.884 385.687 294.929 385.971 292.458C385.978 292.394 385.927 292.338 385.864 292.338H385.032C384.98 292.338 384.937 292.376 384.931 292.428C384.674 294.367 383.206 295.891 381.257 296.155C381.206 296.161 381.167 296.204 381.167 296.256" fill="black"/>
<path d="M393.397 291.192C391.99 290.731 391.102 290.373 391.102 289.24C391.102 288.108 392.005 287.438 393.249 287.438C394.56 287.438 395.351 288.17 395.751 289.061C395.776 289.118 395.841 289.14 395.895 289.11L396.583 288.723C396.632 288.695 396.652 288.634 396.629 288.583C396.078 287.388 394.909 286.425 393.249 286.425C391.589 286.425 390.065 287.453 390.065 289.285C390.065 291.207 391.693 291.654 393.382 292.22C394.907 292.727 395.929 293.114 395.929 294.321C395.929 295.438 395.055 296.198 393.485 296.198C391.915 296.198 390.945 295.446 390.548 294.265C390.527 294.202 390.456 294.173 390.399 294.207L389.698 294.618C389.653 294.644 389.633 294.701 389.65 294.749C390.205 296.278 391.594 297.211 393.47 297.211C395.543 297.211 396.964 296.078 396.964 294.291C396.964 292.354 395.276 291.818 393.396 291.192" fill="black"/>
<path d="M372.328 287.265C372.369 287.224 372.369 287.158 372.328 287.116L371.729 286.513C371.688 286.472 371.621 286.472 371.581 286.513L367.76 290.358C367.719 290.399 367.719 290.465 367.76 290.507L368.36 291.11C368.401 291.151 368.467 291.151 368.508 291.11L372.328 287.265Z" fill="black"/>
<path d="M372.11 296.359L367.7 291.922L366.953 291.17L362.543 286.733C362.501 286.691 362.435 286.691 362.394 286.733L361.795 287.336C361.754 287.377 361.754 287.443 361.795 287.485L366.205 291.922L361.795 296.359C361.754 296.4 361.754 296.467 361.795 296.508L362.394 297.111C362.436 297.152 362.502 297.152 362.543 297.111L366.953 292.674L371.362 297.111C371.404 297.152 371.469 297.152 371.511 297.111L372.11 296.508C372.151 296.466 372.151 296.399 372.11 296.359Z" fill="black"/>
</g>
</g>
<g clip-path="url(#clip2_380_13045)">
<path d="M327.79 655.317C320.638 666.218 314.505 671.803 314.505 671.803C314.505 671.803 298.489 684.652 291.539 674.959C284.589 665.267 295.121 659.156 298.075 655.317C301.03 651.479 305.182 641.305 305.182 641.305" fill="white"/>
<path d="M327.79 655.317C320.638 666.218 314.505 671.803 314.505 671.803C314.505 671.803 298.489 684.652 291.539 674.959C284.589 665.267 295.121 659.156 298.075 655.317C301.03 651.479 305.182 641.305 305.182 641.305" stroke="#595CFF" stroke-width="2.79799" stroke-miterlimit="10"/>
<path d="M344.198 672.273C344.198 672.273 340.236 685.066 327.79 683.387C315.345 681.708 321.03 671.378 321.03 671.378C321.03 671.378 326.089 663.04 327.79 655.317" fill="white"/>
<path d="M344.198 672.273C344.198 672.273 340.236 685.066 327.79 683.387C315.345 681.708 321.03 671.378 321.03 671.378C321.03 671.378 326.089 663.04 327.79 655.317" stroke="#595CFF" stroke-width="2.79799" stroke-miterlimit="10"/>
<g>
<path d="M657.483 854.657C657.483 854.657 567.321 770.807 525.597 723.197C483.873 675.586 454.394 607.326 454.394 607.326C454.394 607.326 441.96 579.727 429.111 571.512C429.111 571.512 419.206 556.974 409.939 526.845L405.306 512.094C405.306 512.094 401.098 495.026 396.453 485.133C396.453 485.133 396.878 475.44 394.763 468.065C394.763 468.065 396.028 452.9 388.227 451.422C380.426 449.945 373.476 465.121 373.901 472.072C374.327 479.022 375.591 485.558 375.591 485.558C375.591 485.558 373.274 496.929 376.643 508.524C376.643 508.524 377.27 532.754 378.747 542.447C378.747 542.447 377.695 556.985 377.695 560.779C377.695 560.779 361.266 560.992 354.942 563.521H346.089C346.089 563.521 343.56 564.786 337.236 570.471C330.913 576.157 312.592 590.068 307.32 596.806C307.32 596.806 284.354 588.591 276.565 601.865C268.775 615.138 282.676 623.141 288.574 627.36C294.472 631.579 300.583 640.421 307.32 642.111C314.058 643.801 319.755 648.222 330.7 657.914C338.288 664.237 338.288 664.237 338.288 664.237C338.288 664.237 343.761 670.773 345.239 674.355C346.716 677.936 365.037 707.64 382.105 716.493C399.173 725.345 420.449 727.662 442.564 772.531C464.679 817.399 477.113 859.324 477.113 859.324" fill="white"/>
<path d="M657.483 854.657C657.483 854.657 567.321 770.807 525.597 723.197C483.873 675.586 454.394 607.326 454.394 607.326C454.394 607.326 441.96 579.727 429.111 571.512C429.111 571.512 419.206 556.974 409.939 526.845L405.306 512.094C405.306 512.094 401.098 495.026 396.453 485.133C396.453 485.133 396.878 475.44 394.763 468.065C394.763 468.065 396.028 452.9 388.227 451.422C380.426 449.945 373.476 465.121 373.901 472.072C374.327 479.022 375.591 485.558 375.591 485.558C375.591 485.558 373.274 496.929 376.643 508.524C376.643 508.524 377.27 532.754 378.747 542.447C378.747 542.447 377.695 556.985 377.695 560.779C377.695 560.779 361.266 560.992 354.942 563.521H346.089C346.089 563.521 343.56 564.786 337.236 570.471C330.913 576.157 312.592 590.068 307.32 596.806C307.32 596.806 284.354 588.591 276.565 601.865C268.775 615.138 282.676 623.141 288.574 627.36C294.472 631.579 300.583 640.421 307.32 642.111C314.058 643.801 319.755 648.222 330.7 657.914C338.288 664.237 338.288 664.237 338.288 664.237C338.288 664.237 343.761 670.773 345.239 674.355C346.716 677.936 365.037 707.64 382.105 716.493C399.173 725.345 420.449 727.662 442.564 772.531C464.679 817.399 477.113 859.324 477.113 859.324" stroke="#595CFF" stroke-width="3.3048" stroke-miterlimit="10"/>
</g>
<path d="M288.596 627.349C288.596 627.349 287.544 633.672 289.86 636.403C292.177 639.134 301.265 638.82 301.265 638.82" stroke="#595CFF" stroke-width="2.79799" stroke-miterlimit="10"/>
<path d="M380.079 615.071C380.079 615.071 365.227 616.023 357.639 616.493C350.051 616.963 335.042 615.071 325.876 607.964C316.71 600.858 307.342 596.795 307.342 596.795" stroke="#595CFF" stroke-width="2.79799" stroke-miterlimit="10"/>
<path d="M377.706 560.768C377.706 560.768 376.442 580.465 373.912 590.415C371.383 600.365 363.358 616.123 363.358 616.123" stroke="#595CFF" stroke-width="2.79799" stroke-miterlimit="10"/>
<path d="M331.965 611.624C331.965 611.624 350.689 597.858 352.58 594.377C352.58 594.377 358.009 597.645 371.887 596.795" stroke="#595CFF" stroke-width="2.79799" stroke-miterlimit="10"/>
<path d="M335.121 612.934C335.121 612.934 346.112 603.219 351.014 602.268C355.916 601.316 368.708 596.918 368.708 596.918" stroke="#595CFF" stroke-width="2.79799" stroke-miterlimit="10"/>
<path d="M390.454 459.962C390.924 461.864 391.797 465.121 394.002 465.278C394.315 465.267 394.572 465.502 394.595 465.815C394.617 466.151 394.315 466.442 393.979 466.397C392.446 466.274 391.506 464.953 390.991 463.7C390.767 463.364 389.536 458.999 390.465 459.973L390.454 459.962Z" fill="#595CFF"/>
<path d="M390.443 454.68C390.622 456.056 390.521 457.388 390.264 458.754C389.905 457.411 390.006 456 390.443 454.68Z" fill="#595CFF"/>
<path d="M297.303 603.868C295.412 607.853 293.229 611.68 292.2 616.001C291.629 617.791 291.069 619.783 289.648 621.182C289.335 621.473 288.786 621.753 288.249 621.708C285.932 621.384 283.828 620.544 281.802 619.436C279.206 617.926 276.822 615.564 276.206 612.531C276.184 612.408 276.262 612.285 276.386 612.262C276.497 612.24 276.621 612.307 276.654 612.419C278.031 616.627 282.272 618.966 286.279 620.175C286.962 620.365 287.689 620.544 288.327 620.6C288.685 620.668 289.178 620.186 289.547 619.627C290.722 617.836 291.204 615.654 291.853 613.572C293.207 610.102 295.065 606.868 296.956 603.678C297.079 603.466 297.426 603.645 297.303 603.868Z" fill="#595CFF"/>
<path d="M291.349 597.937C293.711 598.306 295.86 599.626 297.303 601.507C297.382 601.607 297.359 601.753 297.259 601.831C297.158 601.91 297.012 601.887 296.934 601.798C295.546 600.074 293.453 598.854 291.282 598.574C290.857 598.552 290.913 597.881 291.338 597.948L291.349 597.937Z" fill="#595CFF"/>
<path d="M288.126 598.16C281.813 598.697 276.9 602.928 276.43 609.397C276.419 609.822 275.747 609.8 275.792 609.363C275.725 604.517 278.814 599.928 283.503 598.485C284.992 597.97 286.536 597.69 288.115 597.69C288.249 597.69 288.35 597.791 288.35 597.925C288.35 598.059 288.249 598.16 288.115 598.16H288.126Z" fill="#595CFF"/>
</g>
<defs>

<clipPath id="clip0_380_13045">
<rect width="533.302" height="581.239" fill="white" transform="translate(103.35 196.542)"/>
</clipPath>
<clipPath id="clip1_380_13045">
<rect width="49.1357" height="10.7859" fill="white" transform="translate(347.83 286.425)"/>
</clipPath>
<clipPath id="clip2_380_13045">
<rect width="392.838" height="406.268" fill="white" transform="translate(265.138 444.618)"/>
</clipPath>
</defs>
</svg>
