<svg width="240" height="881" viewBox="0 0 240 881" fill="none" xmlns="http://www.w3.org/2000/svg">
<g clip-path="url(#clip0_380_16292)">
<g filter="url(#filter0_d_380_16292)">
<path d="M238.32 878.485C238.32 878.485 190.946 760.116 178.315 738.017C165.683 715.918 147.18 679.822 145.825 675.304C144.471 670.785 133.649 649.13 135.447 590.035C137.245 530.941 123.714 461 123.714 461C123.714 461 111.538 382.946 109.729 319.334C107.919 255.721 119.208 222.333 119.208 222.333L140.864 195.26C140.864 195.26 159.14 175.858 161.165 158.037C163.191 140.216 165 123.978 165 123.978C165 123.978 165.108 114.726 163.31 108.638L163.874 105.138C163.874 105.138 167.174 90.4919 165.783 84.4764C165.697 84.1043 165.251 83.9926 164.968 84.2488C164.703 84.4885 164.244 84.4207 163.961 84.2025C163.136 83.5663 161.051 82.8262 156.312 84.9566C152.763 86.9893 151.092 88.2449 150.307 88.9665C150.201 89.0634 149.566 88.8568 149.559 88.7138C149.359 84.7115 148.633 70.6803 147.959 64.4275C147.959 64.4275 150.212 25.2868 138.263 24.3879C126.315 23.4891 126.087 40.0634 126.087 40.0634C126.087 40.0634 126.315 60.3648 126.65 65.554C126.986 70.7432 123.714 96.7971 123.487 100.297C123.259 103.796 121.461 124.205 121.461 124.205C121.461 124.205 120.275 123.87 116.572 123.33C116.572 123.33 119.652 101.759 120.335 89.3549C121.018 76.9511 121.126 54.8401 120.227 49.4232C119.328 44.0063 119.999 39.3803 119.999 39.3803C119.999 39.3803 126.543 2.72032 111.766 1.8215C96.9893 0.922675 98.3435 29.2296 98.3435 29.2296C98.3435 29.2296 97.4447 50.5497 97.4447 52.4672C97.4447 54.3847 94.6284 83.8181 94.6284 83.8181C94.6284 83.8181 92.3754 114.953 92.3754 121.149L90.0025 120.922C90.0025 120.922 93.2742 86.2989 93.1663 79.6356C93.0585 72.9723 92.9386 58.4354 92.9386 58.4354C92.9386 58.4354 102.754 26.0657 91.6923 24.2561C80.6308 22.4465 77.4789 33.6159 77.4789 33.6159C77.4789 33.6159 73.8716 50.8733 73.9795 58.7709C73.9795 58.7709 69.6891 78.5091 69.9168 91.8236C70.1445 105.138 69.1258 125.32 69.1258 125.32L64.2722 125.655C64.2722 125.655 64.7276 105.582 63.0258 99.8292C61.324 94.0767 63.0258 81.6729 63.0258 81.6729C63.0258 81.6729 67.1963 57.3088 57.501 56.8534C47.8057 56.398 44.7497 72.421 44.4142 82.9073C44.0786 93.3936 44.4142 93.9568 44.4142 93.9568C44.4142 93.9568 43.8869 107.715 44.2584 111.777C44.6299 115.84 42.1491 134.787 41.8136 136.034C41.478 137.28 36.7322 162.088 36.7322 164.568C36.7322 167.049 36.6244 188.825 38.5419 216.233C40.4594 243.641 38.6497 252.773 38.6497 252.773L30.0809 328.801L21.8477 393.325L8.88071 491.68C8.88071 491.68 -1.01833 569.961 2.58895 594.541C6.19622 619.121 25.8265 703.503 25.8265 703.503C25.8265 703.503 42.293 797.567 49.7352 816.071C57.1775 834.575 81.7693 879.456 81.7693 879.456" fill="white"/>
<path d="M238.32 878.485C238.32 878.485 190.946 760.116 178.315 738.017C165.683 715.918 147.18 679.822 145.825 675.304C144.471 670.785 133.649 649.13 135.447 590.035C137.245 530.941 123.714 461 123.714 461C123.714 461 111.538 382.946 109.729 319.334C107.919 255.721 119.208 222.333 119.208 222.333L140.864 195.26C140.864 195.26 159.14 175.858 161.165 158.037C163.191 140.216 165 123.978 165 123.978C165 123.978 165.108 114.726 163.31 108.638L163.874 105.138C163.874 105.138 167.174 90.4919 165.783 84.4764C165.697 84.1043 165.251 83.9926 164.968 84.2488C164.703 84.4885 164.244 84.4207 163.961 84.2025C163.136 83.5663 161.051 82.8262 156.312 84.9566C152.763 86.9893 151.092 88.2449 150.307 88.9665C150.201 89.0634 149.566 88.8568 149.559 88.7138C149.359 84.7115 148.633 70.6803 147.959 64.4275C147.959 64.4275 150.212 25.2868 138.263 24.3879C126.315 23.4891 126.087 40.0634 126.087 40.0634C126.087 40.0634 126.315 60.3648 126.65 65.554C126.986 70.7432 123.714 96.7971 123.487 100.297C123.259 103.796 121.461 124.205 121.461 124.205C121.461 124.205 120.275 123.87 116.572 123.33C116.572 123.33 119.652 101.759 120.335 89.3549C121.018 76.9511 121.126 54.8401 120.227 49.4232C119.328 44.0063 119.999 39.3803 119.999 39.3803C119.999 39.3803 126.543 2.72032 111.766 1.8215C96.9893 0.922675 98.3435 29.2296 98.3435 29.2296C98.3435 29.2296 97.4447 50.5497 97.4447 52.4672C97.4447 54.3847 94.6284 83.8181 94.6284 83.8181C94.6284 83.8181 92.3754 114.953 92.3754 121.149L90.0025 120.922C90.0025 120.922 93.2742 86.2989 93.1663 79.6356C93.0585 72.9723 92.9386 58.4354 92.9386 58.4354C92.9386 58.4354 102.754 26.0657 91.6923 24.2561C80.6308 22.4465 77.4789 33.6159 77.4789 33.6159C77.4789 33.6159 73.8716 50.8733 73.9795 58.7709C73.9795 58.7709 69.6891 78.5091 69.9168 91.8236C70.1445 105.138 69.1258 125.32 69.1258 125.32L64.2722 125.655C64.2722 125.655 64.7276 105.582 63.0258 99.8292C61.324 94.0767 63.0258 81.6729 63.0258 81.6729C63.0258 81.6729 67.1963 57.3088 57.501 56.8534C47.8057 56.398 44.7497 72.421 44.4142 82.9073C44.0786 93.3936 44.4142 93.9568 44.4142 93.9568C44.4142 93.9568 43.8869 107.715 44.2584 111.777C44.6299 115.84 42.1491 134.787 41.8136 136.034C41.478 137.28 36.7322 162.088 36.7322 164.568C36.7322 167.049 36.6244 188.825 38.5419 216.233C40.4594 243.641 38.6497 252.773 38.6497 252.773L30.0809 328.801L21.8477 393.325L8.88071 491.68C8.88071 491.68 -1.01833 569.961 2.58895 594.541C6.19622 619.121 25.8265 703.503 25.8265 703.503C25.8265 703.503 42.293 797.567 49.7352 816.071C57.1775 834.575 81.7693 879.456 81.7693 879.456" stroke="#595CFF" stroke-width="3.53876" stroke-miterlimit="10"/>
</g>
<path d="M46.7988 86.3349C46.7988 86.3349 52.5513 84.729 61.168 85.8795" stroke="#595CFF" stroke-width="0.599215" stroke-linecap="round" stroke-linejoin="round"/>
<path d="M62.8458 105.366C62.8458 105.366 51.5446 102.094 46.7988 108.182" stroke="#595CFF" stroke-width="0.599215" stroke-linecap="round" stroke-linejoin="round"/>
<path d="M76.3516 58.3276C76.3516 58.3276 86.1068 56.4101 91.4638 58.3276" stroke="#595CFF" stroke-width="0.599215" stroke-linecap="round" stroke-linejoin="round"/>
<path d="M91.4645 85.8916C91.4645 85.8916 82.5482 83.2551 75.7891 84.837" stroke="#595CFF" stroke-width="0.599215" stroke-linecap="round" stroke-linejoin="round"/>
<path d="M118.429 82.6917C118.429 82.6917 109.405 79.0245 102.19 79.6477" stroke="#595CFF" stroke-width="0.599215" stroke-linecap="round" stroke-linejoin="round"/>
<path d="M118.764 43.6708C118.764 43.6708 110.028 40.6028 103.089 42.4244" stroke="#595CFF" stroke-width="0.599215" stroke-linecap="round" stroke-linejoin="round"/>
<path d="M126.662 65.5422C126.662 65.5422 135.003 61.1439 144.938 65.5422" stroke="#595CFF" stroke-width="0.599215" stroke-linecap="round" stroke-linejoin="round"/>
<path d="M124.541 90.4695C124.541 90.4695 139.066 89.2352 146.508 93.7532" stroke="#595CFF" stroke-width="0.599215" stroke-linecap="round" stroke-linejoin="round"/>
<path d="M151.373 89.7746C145.98 98.6789 144.303 109.836 143.212 120.083C143.2 120.346 143.104 120.61 142.948 120.802C141.87 122.12 140.899 123.834 140.096 125.512C138.059 129.814 136.872 134.5 136.225 139.21L135.914 142.074C135.89 142.457 135.554 142.745 135.171 142.697C134.811 142.661 134.547 142.338 134.583 141.99L134.799 139.054C135.566 132.127 137.16 125.176 141.295 119.376L141.031 120.095C141.067 118.597 141.211 117.326 141.354 115.96C142.133 109.309 142.936 102.382 145.369 96.0662C146.328 93.4776 147.215 90.5895 148.605 88.0848C149.048 87.2938 150.043 87.0062 150.834 87.4496C151.673 87.905 151.937 88.9956 151.409 89.7866L151.373 89.7746Z" fill="#595CFF"/>
<path d="M49.0635 151.05C49.0635 151.05 88.6596 155.388 115.385 137.736" stroke="#595CFF" stroke-width="0.599215" stroke-linecap="round" stroke-linejoin="round"/>
<path d="M58.0879 165.252C58.0879 165.252 112.904 140.911 129.371 144.627" stroke="#595CFF" stroke-width="0.599215" stroke-linecap="round" stroke-linejoin="round"/>
<path d="M82.2246 177.439C82.2246 177.439 108.398 140.216 133.889 146.76" stroke="#595CFF" stroke-width="0.599215" stroke-linecap="round" stroke-linejoin="round"/>
<path d="M150.799 118.225C150.799 118.225 146.736 117.326 142.11 120.083" stroke="#595CFF" stroke-width="0.599215" stroke-linecap="round" stroke-linejoin="round"/>
<path d="M64.4634 127.453C59.6457 127.633 54.6482 128.148 50.0822 129.766C49.7946 129.874 49.471 129.73 49.3631 129.443C49.2673 129.191 49.3751 128.903 49.6028 128.771C51.8319 127.489 54.2288 126.566 56.6496 125.787C59.1184 125.008 61.5392 124.373 64.0919 123.87C65.0746 123.678 66.0213 124.325 66.2011 125.308C66.4168 126.399 65.5659 127.441 64.4514 127.453H64.4634Z" fill="#595CFF"/>
</g>
<defs>
<filter id="filter0_d_380_16292" x="-9.88022" y="-4.21551" width="259.751" height="900.092" filterUnits="userSpaceOnUse" color-interpolation-filters="sRGB">
<feFlood flood-opacity="0" result="BackgroundImageFix"/>
<feColorMatrix in="SourceAlpha" type="matrix" values="0 0 0 0 0 0 0 0 0 0 0 0 0 0 0 0 0 0 127 0" result="hardAlpha"/>
<feOffset dy="5.66202"/>
<feGaussianBlur stdDeviation="4.95427"/>
<feComposite in2="hardAlpha" operator="out"/>
<feColorMatrix type="matrix" values="0 0 0 0 0.254331 0 0 0 0 0.255896 0 0 0 0 0.340952 0 0 0 0.2 0"/>
<feBlend mode="multiply" in2="BackgroundImageFix" result="effect1_dropShadow_380_16292"/>
<feBlend mode="normal" in="SourceGraphic" in2="effect1_dropShadow_380_16292" result="shape"/>
</filter>
<clipPath id="clip0_380_16292">
<rect width="239.998" height="880.331" fill="white"/>
</clipPath>
</defs>
</svg>
