<svg width="615" height="472" viewBox="0 0 615 472" fill="none" xmlns="http://www.w3.org/2000/svg">
<path d="M395.573 486.832C395.573 486.832 362.266 388.572 360.238 360.954C360.238 360.954 357.397 331.1 357.397 324.605C357.397 318.111 362.676 315.874 362.676 315.874C362.676 315.874 384.203 298.411 392.121 278.302C392.121 278.302 400.04 267.744 401.867 265.507C403.693 263.27 426.032 239.917 426.032 239.917C426.032 239.917 431.923 232.538 428.945 228.683C425.968 224.828 421.839 227.396 417.912 231.258L433.886 213.86C433.886 213.86 440.589 206.279 435.914 201.676C431.239 197.073 426.572 200.461 425.356 201.676C425.356 201.676 434.426 195.448 430.362 190.104C426.298 184.76 417.704 190.104 417.704 190.104L392.725 205.877L403.557 196.944C403.557 196.944 406.872 193.067 402.809 187.731C398.745 182.394 388.597 187.731 388.597 187.731L374.788 196.807C374.788 196.807 365.445 202.424 353.262 211.494C341.078 220.563 332.886 227.065 332.886 227.065C332.886 227.065 338.705 220.096 336.403 213.795C336.403 213.795 335.317 210.544 333.627 208.789L333.354 207.775C333.354 207.775 332.541 206.488 328.816 209.94C325.09 213.392 322.386 216.845 322.386 216.845C322.386 216.845 319.61 220.297 316.495 221.987C313.381 223.677 310.677 225.166 306.139 233.631C301.6 242.096 294.494 251.978 294.494 251.978C294.494 251.978 291.107 255.567 290.366 264.234C289.625 272.9 289.755 293.751 292.193 299.907C294.631 306.064 296.659 311.688 297.673 319.47C298.688 327.252 300.651 345.736 302.14 351.216C303.629 356.697 307.491 377.482 307.555 386.415C307.62 395.347 312.36 431.495 312.36 431.495L317.776 486.839" stroke="#595CFF" stroke-width="2.7576" stroke-miterlimit="10"/>
<path d="M305.102 299.925C307.961 297.815 310.366 295.968 312.866 293.531C315.331 291.125 317.656 288.429 318.804 285.31C318.927 284.923 319.795 285.34 319.703 285.741C317.91 290.515 313.811 294.154 309.998 297.742C308.559 298.824 307.083 299.861 305.51 300.798C305.243 300.957 304.841 300.106 305.102 299.925Z" fill="#595CFF"/>
<path d="M349.833 302.997C347.476 307.905 345.449 312.93 344.118 318.038C342.779 323.095 341.966 328.371 343.574 333.441C343.618 333.563 343.511 333.699 343.333 333.718C343.172 333.737 343.02 333.673 342.975 333.563C339.966 325.868 342.574 317.716 345.52 310.221C346.583 307.705 347.78 305.235 349.199 302.81C349.369 302.532 349.994 302.687 349.833 302.997Z" fill="#595CFF"/>
<path d="M298.651 266.14C301.204 260.156 304.074 253.92 308.892 249.404C311.927 246.455 328.994 229.855 332.404 226.547C333.087 225.899 334.101 226.921 333.389 227.597L314.2 245.448C311.446 248.102 307.166 251.561 305.124 254.783C302.657 258.358 300.65 262.263 298.91 266.255C298.852 266.42 298.579 266.32 298.651 266.154V266.14Z" fill="#595CFF"/>
<path d="M352.018 236.17C359.426 232.099 365.69 226.281 371.839 220.527C378.226 214.845 385.051 209.753 392.15 204.97C393.351 204.193 394.545 205.999 393.315 206.79C386.224 211.314 379.283 216.233 372.853 221.678C369.653 224.432 366.531 227.395 363.151 229.956C359.756 232.552 356.261 234.998 352.42 236.983C351.902 237.242 351.464 236.443 352.018 236.17Z" fill="#595CFF"/>
<path d="M426.118 202.453C422.867 205.553 417.789 210.422 414.603 213.471C409.554 217.851 404.591 222.375 399.334 226.561C397.442 228.165 395.558 229.869 394.012 231.797C393.386 232.602 392.581 233.264 391.861 233.962C389.934 235.81 387.086 238.198 385.396 240.197C384.791 241.291 383.806 242.06 382.979 242.966C380.972 244.973 378.923 246.908 376.858 248.842C376.513 249.166 375.945 248.648 376.319 248.274C378.829 245.814 381.361 243.362 383.72 240.758C383.964 240.478 384.223 240.169 384.41 239.91C385.295 238.385 386.798 237.27 387.978 236.019C389.222 234.796 391.696 232.509 392.825 231.257C393.127 230.84 393.487 230.373 393.825 229.992C395.688 227.863 397.838 225.885 400.039 224.108C404.282 220.44 408.432 216.6 412.604 212.795C414.402 211.155 416.876 208.573 418.631 206.862C418.631 206.862 424.6 200.914 424.607 200.906C425.614 199.928 427.146 201.424 426.118 202.453Z" fill="#595CFF"/>
<path d="M418.688 232.013C415.416 235.206 408.209 242.672 404.894 245.577C401.247 248.958 396.572 252.777 393.25 256.394C391.257 258.94 388.905 261.256 386.856 263.737C385.568 265.327 384.008 267.017 383.238 268.865C383.152 269.088 382.907 269.196 382.684 269.11C381.462 268.571 385.525 263.845 386.065 263.083C388.129 260.451 390.481 258.027 392.451 255.337C396.544 250.863 401.736 246.397 406.059 242.132C407.555 240.564 415.473 232.243 417.128 230.51C418.106 229.481 419.695 230.948 418.681 232.006L418.688 232.013Z" fill="#595CFF"/>
<path d="M428.693 196.807C427.916 197.677 427.096 198.533 426.118 199.187C425.78 199.389 425.421 199.626 424.939 199.583C424.083 199.367 423.543 198.785 422.925 198.238C421.788 197.109 420.753 195.886 420.192 194.347C419.35 192.038 422.486 189.406 424.637 189.464V189.535C423.205 189.881 421.983 191.024 421.228 192.24C420.825 192.865 420.659 193.412 420.875 194.138C421.285 195.548 422.256 196.828 423.256 197.9C423.745 198.389 424.342 199.022 424.982 199.216C426.356 199.137 427.65 197.634 428.635 196.749L428.686 196.8L428.693 196.807Z" fill="#595CFF"/>
<path d="M429.16 195.807C429.325 193.146 427.261 191.125 425.183 189.794L425.211 189.73C427.139 190.248 428.923 191.801 429.253 193.836C429.404 194.498 429.325 195.181 429.232 195.822L429.16 195.814V195.807Z" fill="#595CFF"/>
<path d="M429.282 202.338C428.578 203.546 427.563 205.258 427.794 206.524C428.678 207.739 429.707 209.221 431.044 209.883C431.749 210.12 432.411 209.595 433.008 209.242C433.662 208.789 434.295 208.279 434.914 207.746L434.971 207.797C434.044 208.969 432.821 210.551 431.181 210.559C430.167 210.321 429.498 209.444 428.894 208.761C428.362 208.106 427.866 207.423 427.427 206.704C427.197 205.833 427.592 205.057 427.945 204.309C428.311 203.597 428.736 202.928 429.218 202.302L429.275 202.345L429.282 202.338Z" fill="#595CFF"/>
<path d="M431.714 201.734C433.584 202.439 435.454 203.999 435.706 206.085C434.922 204.194 433.318 202.935 431.714 201.734Z" fill="#595CFF"/>
<path d="M423.521 229.064C422.982 229.999 422.212 231.394 422.385 232.322C423.068 233.264 423.903 234.429 424.931 234.926C425.463 235.098 425.96 234.703 426.42 234.436C426.938 234.091 427.441 233.703 427.945 233.293L428.002 233.343C427.34 234.278 426.513 235.285 425.334 235.566C425.132 235.609 424.881 235.566 424.708 235.487C423.435 234.796 422.802 233.638 422.033 232.516C421.838 231.804 422.162 231.193 422.45 230.589C422.745 230.028 423.083 229.51 423.471 229.021L423.529 229.064H423.521Z" fill="#595CFF"/>
<path d="M425.428 228.589C426.924 229.085 428.427 230.351 428.564 232.005C427.895 230.545 426.665 229.582 425.428 228.589Z" fill="#595CFF"/>
<path d="M402.369 194.038C401.247 195.189 400.197 196.397 398.701 197.087C398.507 197.159 398.255 197.217 398.018 197.145C396.68 196.605 395.731 195.447 394.817 194.383C394.084 193.405 393.307 192.326 393.242 191.032C393.386 189.176 395.839 187.241 397.651 187.162C397.709 187.162 397.752 187.205 397.752 187.263C397.752 187.32 397.701 187.363 397.644 187.363C395.867 187.608 394.192 189.248 393.954 191.024C393.997 192.11 394.637 193.132 395.256 194.045C396.047 195.081 396.917 196.224 398.111 196.792C398.248 196.85 398.413 196.814 398.586 196.756C399.974 196.167 401.132 194.944 402.211 193.887C402.304 193.786 402.463 193.93 402.369 194.031V194.038Z" fill="#595CFF"/>
<path d="M402.362 193.384C402.527 190.722 400.463 188.701 398.385 187.371L398.414 187.306C400.341 187.824 402.125 189.377 402.456 191.413C402.607 192.075 402.527 192.758 402.434 193.398L402.362 193.391V193.384Z" fill="#595CFF"/>
<path d="M333.526 209.537C331.419 212.738 328.837 215.866 325.255 217.42C325.162 217.456 325.054 217.42 325.011 217.319C324.975 217.226 325.011 217.125 325.104 217.082C326.751 216.219 328.096 214.91 329.269 213.486C330.419 212.062 331.455 210.465 332.275 208.84C332.735 207.962 334.037 208.689 333.534 209.544L333.526 209.537Z" fill="#595CFF"/>
</svg>
