<svg width="219" height="335" viewBox="0 0 219 335" fill="none" xmlns="http://www.w3.org/2000/svg">
<g clip-path="url(#clip0_380_16646)">
<g filter="url(#filter0_d_380_16646)">
<path d="M144.363 349.497C144.363 349.497 111.056 251.237 109.028 223.619C109.028 223.619 106.187 193.765 106.187 187.27C106.187 180.776 111.466 178.539 111.466 178.539C111.466 178.539 132.993 161.076 140.911 140.967C140.911 140.967 148.83 130.409 150.657 128.172C152.483 125.935 174.822 102.582 174.822 102.582C174.822 102.582 180.713 95.203 177.735 91.348C174.758 87.493 170.629 90.0606 166.702 93.9228L182.676 76.5249C182.676 76.5249 189.379 68.9444 184.704 64.3414C180.029 59.7384 175.362 63.1259 174.146 64.3414C174.146 64.3414 183.216 58.113 179.152 52.7692C175.088 47.4254 166.494 52.7692 166.494 52.7692L141.515 68.5416L152.347 59.6089C152.347 59.6089 155.662 55.7323 151.599 50.3957C147.535 45.0592 137.387 50.3957 137.387 50.3957L123.578 59.4723C123.578 59.4723 114.235 65.0894 102.052 74.1587C89.8683 83.228 81.6764 89.7298 81.6764 89.7298C81.6764 89.7298 87.4948 82.7605 85.1934 76.4602C85.1934 76.4602 84.1073 73.2093 82.4172 71.4544L82.1439 70.4403C82.1439 70.4403 81.3312 69.1529 77.6056 72.6052C73.8801 76.0574 71.1758 79.5097 71.1758 79.5097C71.1758 79.5097 68.3996 82.9619 65.2854 84.6521C62.1712 86.3422 59.4669 87.831 54.9287 96.2962C50.3904 104.761 43.2845 114.643 43.2845 114.643C43.2845 114.643 39.897 118.232 39.1562 126.899C38.4154 135.566 38.5449 156.416 40.983 162.572C43.4212 168.729 45.4494 174.353 46.4635 182.135C47.4776 189.917 49.441 208.401 50.9298 213.881C52.4186 219.362 56.2808 240.147 56.3455 249.08C56.4103 258.012 61.1499 294.16 61.1499 294.16L66.5656 349.504" fill="white"/>
<path d="M144.363 349.497C144.363 349.497 111.056 251.237 109.028 223.619C109.028 223.619 106.187 193.765 106.187 187.27C106.187 180.776 111.466 178.539 111.466 178.539C111.466 178.539 132.993 161.076 140.911 140.967C140.911 140.967 148.83 130.409 150.657 128.172C152.483 125.935 174.822 102.582 174.822 102.582C174.822 102.582 180.713 95.203 177.735 91.348C174.758 87.493 170.629 90.0606 166.702 93.9228L182.676 76.5249C182.676 76.5249 189.379 68.9444 184.704 64.3414C180.029 59.7384 175.362 63.1259 174.146 64.3414C174.146 64.3414 183.216 58.113 179.152 52.7692C175.088 47.4254 166.494 52.7692 166.494 52.7692L141.515 68.5416L152.347 59.6089C152.347 59.6089 155.662 55.7323 151.599 50.3957C147.535 45.0592 137.387 50.3957 137.387 50.3957L123.578 59.4723C123.578 59.4723 114.235 65.0894 102.052 74.1587C89.8683 83.228 81.6764 89.7298 81.6764 89.7298C81.6764 89.7298 87.4948 82.7605 85.1934 76.4602C85.1934 76.4602 84.1073 73.2093 82.4172 71.4544L82.1439 70.4403C82.1439 70.4403 81.3312 69.1529 77.6056 72.6052C73.8801 76.0574 71.1758 79.5097 71.1758 79.5097C71.1758 79.5097 68.3996 82.9619 65.2854 84.6521C62.1712 86.3422 59.4669 87.831 54.9287 96.2962C50.3904 104.761 43.2845 114.643 43.2845 114.643C43.2845 114.643 39.897 118.232 39.1562 126.899C38.4154 135.566 38.5449 156.416 40.983 162.572C43.4212 168.729 45.4494 174.353 46.4635 182.135C47.4776 189.917 49.441 208.401 50.9298 213.881C52.4186 219.362 56.2808 240.147 56.3455 249.08C56.4103 258.012 61.1499 294.16 61.1499 294.16L66.5656 349.504" stroke="#595CFF" stroke-width="2.7576" stroke-miterlimit="10"/>
</g>
<path d="M53.8923 162.59C56.7515 160.48 59.156 158.633 61.6564 156.196C64.1211 153.79 66.446 151.095 67.5937 147.975C67.7167 147.588 68.5854 148.005 68.4932 148.406C66.6998 153.181 62.6007 156.819 58.7885 160.407C57.3486 161.489 55.8729 162.526 54.2999 163.463C54.0334 163.622 53.631 162.772 53.8923 162.59Z" fill="#595CFF"/>
<path d="M98.6234 165.662C96.266 170.57 94.239 175.595 92.9085 180.703C91.569 185.76 90.7564 191.036 92.3637 196.106C92.4084 196.228 92.3012 196.364 92.1227 196.383C91.9619 196.402 91.8101 196.338 91.7655 196.228C88.7562 188.533 91.3636 180.381 94.3104 172.886C95.373 170.37 96.5696 167.9 97.9894 165.475C98.159 165.197 98.7841 165.352 98.6234 165.662Z" fill="#595CFF"/>
<path d="M47.4407 128.805C49.9939 122.821 52.8636 116.585 57.6823 112.069C60.7174 109.12 77.7845 92.5202 81.1936 89.2118C81.8768 88.5645 82.8909 89.5858 82.1789 90.2619L62.9902 108.113C60.2356 110.767 55.9562 114.226 53.9136 117.448C51.4467 121.023 49.4401 124.928 47.6996 128.92C47.6421 129.085 47.3688 128.985 47.4407 128.819V128.805Z" fill="#595CFF"/>
<path d="M100.808 98.8349C108.216 94.7642 114.48 88.9457 120.629 83.1919C127.016 77.5101 133.841 72.4181 140.94 67.6353C142.141 66.8585 143.335 68.6638 142.105 69.4549C135.014 73.9788 128.073 78.8982 121.643 84.3427C118.443 87.0973 115.321 90.0605 111.941 92.6209C108.546 95.2173 105.051 97.6626 101.21 99.6477C100.693 99.9066 100.254 99.1082 100.808 98.8349Z" fill="#595CFF"/>
<path d="M174.908 65.1178C171.657 68.2176 166.579 73.0867 163.393 76.1362C158.344 80.5163 153.381 85.0401 148.124 89.226C146.232 90.8298 144.348 92.5344 142.802 94.4619C142.176 95.2674 141.371 95.9291 140.651 96.6267C138.724 98.4751 135.876 100.863 134.186 102.862C133.581 103.956 132.596 104.725 131.769 105.631C129.762 107.638 127.713 109.573 125.648 111.507C125.303 111.831 124.735 111.313 125.109 110.939C127.619 108.479 130.151 106.027 132.51 103.423C132.754 103.143 133.013 102.834 133.2 102.575C134.085 101.05 135.588 99.9351 136.768 98.6837C138.012 97.461 140.486 95.1739 141.615 93.9225C141.917 93.5053 142.277 93.0378 142.615 92.6567C144.478 90.5278 146.628 88.5499 148.829 86.7735C153.072 83.1054 157.222 79.2648 161.394 75.4602C163.192 73.8203 165.666 71.2384 167.421 69.5266C167.421 69.5266 173.39 63.5787 173.397 63.5715C174.404 62.5934 175.936 64.0893 174.908 65.1178Z" fill="#595CFF"/>
<path d="M167.478 94.6778C164.206 97.8711 156.999 105.337 153.684 108.242C150.037 111.623 145.362 115.442 142.04 119.059C140.047 121.605 137.696 123.921 135.646 126.402C134.358 127.992 132.798 129.682 132.028 131.531C131.942 131.753 131.697 131.861 131.474 131.775C130.252 131.236 134.315 126.51 134.855 125.748C136.919 123.116 139.271 120.692 141.241 118.002C145.334 113.528 150.526 109.062 154.849 104.797C156.345 103.229 164.263 94.9079 165.918 93.1746C166.896 92.1461 168.485 93.6133 167.471 94.6706L167.478 94.6778Z" fill="#595CFF"/>
<path d="M177.483 59.4718C176.706 60.3421 175.886 61.1979 174.908 61.8524C174.57 62.0538 174.211 62.2912 173.729 62.248C172.873 62.0322 172.333 61.4497 171.715 60.9031C170.579 59.7739 169.543 58.5512 168.982 57.0121C168.14 54.7034 171.276 52.0711 173.427 52.1286V52.2005C171.995 52.5458 170.773 53.6893 170.018 54.9048C169.615 55.5305 169.449 56.0771 169.665 56.8035C170.075 58.2132 171.046 59.4934 172.046 60.565C172.535 61.0541 173.132 61.687 173.772 61.8812C175.146 61.8021 176.44 60.2989 177.425 59.4143L177.476 59.4646L177.483 59.4718Z" fill="#595CFF"/>
<path d="M177.95 58.4722C178.115 55.8111 176.051 53.7901 173.973 52.4595L174.001 52.3948C175.929 52.9126 177.713 54.4661 178.043 56.5015C178.194 57.1632 178.115 57.8464 178.022 58.4866L177.95 58.4794V58.4722Z" fill="#595CFF"/>
<path d="M178.072 65.003C177.368 66.2113 176.354 67.923 176.584 69.1888C177.468 70.4043 178.497 71.8859 179.835 72.5476C180.539 72.7849 181.201 72.2599 181.798 71.9075C182.452 71.4544 183.085 70.9437 183.704 70.4115L183.761 70.4619C182.834 71.6342 181.611 73.2165 179.971 73.2237C178.957 72.9863 178.288 72.1089 177.684 71.4256C177.152 70.7711 176.656 70.0879 176.217 69.3687C175.987 68.4984 176.382 67.7216 176.735 66.9737C177.101 66.2616 177.526 65.5928 178.008 64.967L178.065 65.0102L178.072 65.003Z" fill="#595CFF"/>
<path d="M180.504 64.3989C182.374 65.1038 184.244 66.6645 184.496 68.7502C183.712 66.8586 182.108 65.6 180.504 64.3989Z" fill="#595CFF"/>
<path d="M172.311 91.7289C171.772 92.6639 171.002 94.0592 171.175 94.987C171.858 95.9292 172.693 97.0943 173.721 97.5906C174.253 97.7632 174.75 97.3676 175.21 97.1015C175.728 96.7563 176.231 96.3679 176.735 95.9579L176.792 96.0083C176.13 96.9433 175.303 97.9502 174.124 98.2307C173.922 98.2738 173.671 98.2307 173.498 98.1516C172.225 97.4611 171.592 96.3032 170.823 95.1812C170.628 94.4692 170.952 93.8578 171.24 93.2537C171.535 92.6927 171.873 92.1749 172.261 91.6858L172.319 91.7289H172.311Z" fill="#595CFF"/>
<path d="M174.218 91.2542C175.714 91.7504 177.217 93.0162 177.354 94.6704C176.685 93.2104 175.455 92.2467 174.218 91.2542Z" fill="#595CFF"/>
<path d="M151.159 56.7029C150.037 57.8536 148.987 59.0619 147.491 59.7524C147.297 59.8243 147.045 59.8818 146.808 59.8099C145.47 59.2705 144.521 58.1125 143.607 57.0481C142.874 56.07 142.097 54.9911 142.032 53.6965C142.176 51.841 144.629 49.9063 146.441 49.8271C146.499 49.8271 146.542 49.8703 146.542 49.9278C146.542 49.9854 146.491 50.0285 146.434 50.0285C144.657 50.2731 142.982 51.9129 142.744 53.6894C142.787 54.7754 143.428 55.7967 144.046 56.7101C144.837 57.7457 145.707 58.8893 146.901 59.4575C147.038 59.515 147.203 59.4791 147.376 59.4215C148.764 58.8318 149.922 57.6091 151.001 56.5518C151.094 56.4511 151.253 56.595 151.159 56.6957V56.7029Z" fill="#595CFF"/>
<path d="M151.152 56.0486C151.317 53.3875 149.253 51.3665 147.175 50.0359L147.204 49.9712C149.131 50.489 150.915 52.0425 151.246 54.0779C151.397 54.7396 151.318 55.4229 151.224 56.063L151.152 56.0558V56.0486Z" fill="#595CFF"/>
<path d="M82.3164 72.2023C80.2091 75.4028 77.6271 78.5314 74.0454 80.0849C73.9519 80.1209 73.844 80.0849 73.8008 79.9842C73.7649 79.8907 73.8008 79.79 73.8943 79.7469C75.5413 78.8838 76.8863 77.5748 78.0586 76.1508C79.2093 74.7267 80.245 73.1301 81.0649 71.5046C81.5252 70.6272 82.827 71.3536 82.3236 72.2095L82.3164 72.2023Z" fill="#595CFF"/>
</g>
<defs>
<filter id="filter0_d_380_16646" x="29.6586" y="43.3378" width="165.802" height="318.734" filterUnits="userSpaceOnUse" color-interpolation-filters="sRGB">
<feFlood flood-opacity="0" result="BackgroundImageFix"/>
<feColorMatrix in="SourceAlpha" type="matrix" values="0 0 0 0 0 0 0 0 0 0 0 0 0 0 0 0 0 0 127 0" result="hardAlpha"/>
<feOffset dy="4.41216"/>
<feGaussianBlur stdDeviation="3.86064"/>
<feComposite in2="hardAlpha" operator="out"/>
<feColorMatrix type="matrix" values="0 0 0 0 0.254331 0 0 0 0 0.255896 0 0 0 0 0.340952 0 0 0 0.2 0"/>
<feBlend mode="multiply" in2="BackgroundImageFix" result="effect1_dropShadow_380_16646"/>
<feBlend mode="normal" in="SourceGraphic" in2="effect1_dropShadow_380_16646" result="shape"/>
</filter>
<clipPath id="clip0_380_16646">
<rect width="218.309" height="346.188" fill="white"/>
</clipPath>
</defs>
</svg>
