<svg width="615" height="472" viewBox="0 0 615 472" fill="none" xmlns="http://www.w3.org/2000/svg">
<g clip-path="url(#clip0_380_16541)">
<path d="M378.852 6.25854H290.488C284.005 6.25854 278.75 11.5116 278.75 17.9915C278.75 24.4714 284.005 29.7244 290.488 29.7244H378.852C385.335 29.7244 390.59 24.4714 390.59 17.9915C390.59 11.5116 385.335 6.25854 378.852 6.25854Z" fill="white" stroke="black" stroke-miterlimit="10"/>
<path d="M409.031 44.6863H406.291V34.6843C406.291 26.2351 399.413 19.357 390.964 19.357V16.6167C400.929 16.6167 409.031 24.7188 409.031 34.6843V44.6863Z" fill="white" stroke="black" stroke-miterlimit="10"/>
<path d="M260.682 44.6863H263.422V34.6843C263.422 26.2351 270.3 19.357 278.749 19.357V16.6167C268.784 16.6167 260.682 24.7188 260.682 34.6843V44.6863Z" fill="white" stroke="black" stroke-miterlimit="10"/>

<path d="M322.43 44.6863H488.308C509.426 44.6863 526.544 61.8039 526.544 82.9223V116.902V154.526C526.544 154.526 527.32 168.483 511.07 176.22C496.008 183.39 498.429 206.399 498.429 206.399V241.73V291.247C498.629 300.628 503.708 307.059 511.755 311.708C520.058 315.124 526.544 323.4 526.544 331.822C526.544 331.822 526.544 393.56 526.544 398.538C526.544 403.516 520.004 433.778 489.696 433.778H417.179C409.817 432.728 403.725 429.677 399.642 423.466C394.782 413.692 388.16 408.339 379.692 407.645H373.134H362.118H291.62C283.152 408.339 276.539 413.692 271.671 423.466C267.588 429.686 261.495 432.728 254.133 433.778H181.643C151.336 433.787 144.796 403.525 144.796 398.538C144.796 393.551 144.796 331.822 144.796 331.822C144.796 323.4 151.281 315.115 159.584 311.708C167.632 307.059 172.71 300.628 172.911 291.247V241.73V206.399C172.911 206.399 175.341 183.399 160.269 176.22C144.029 168.483 144.805 154.526 144.805 154.526V82.9223C144.805 61.8039 161.923 44.6863 183.041 44.6863H349.832" fill="white"/>
<path d="M322.43 44.6863H488.308C509.426 44.6863 526.544 61.8039 526.544 82.9223V116.902V154.526C526.544 154.526 527.32 168.483 511.07 176.22C496.008 183.39 498.429 206.399 498.429 206.399V241.73V291.247C498.629 300.628 503.708 307.059 511.755 311.708C520.058 315.124 526.544 323.4 526.544 331.822C526.544 331.822 526.544 393.56 526.544 398.538C526.544 403.516 520.004 433.778 489.696 433.778H417.179C409.817 432.728 403.725 429.677 399.642 423.466C394.782 413.692 388.16 408.339 379.692 407.645H373.134H362.118H291.62C283.152 408.339 276.539 413.692 271.671 423.466C267.588 429.686 261.495 432.728 254.133 433.778H181.643C151.336 433.787 144.796 403.525 144.796 398.538C144.796 393.551 144.796 331.822 144.796 331.822C144.796 323.4 151.281 315.115 159.584 311.708C167.632 307.059 172.71 300.628 172.911 291.247V241.73V206.399C172.911 206.399 175.341 183.399 160.269 176.22C144.029 168.483 144.805 154.526 144.805 154.526V82.9223C144.805 61.8039 161.923 44.6863 183.041 44.6863H349.832" fill="none" stroke="#595CFF" stroke-width="5" stroke-linecap="round" stroke-linejoin="round"/>
<path d="M434.096 180.188C438.663 180.188 442.366 183.891 442.366 188.459V385.914C442.366 390.482 438.664 394.186 434.096 394.186H237.298C232.73 394.185 229.027 390.482 229.027 385.914V188.459C229.028 183.891 232.73 180.189 237.298 180.188H434.096Z" fill="#FBFBFF" stroke="black" stroke-width="2" stroke-miterlimit="10"/>
<path d="M276.786 86.4663C277.961 86.4663 278.914 85.5134 278.914 84.338C278.914 83.1626 277.961 82.2097 276.786 82.2097C275.61 82.2097 274.657 83.1626 274.657 84.338C274.657 85.5134 275.61 86.4663 276.786 86.4663Z" stroke="#C5C5D3" stroke-miterlimit="10"/>
<path d="M260.344 159.851C261.52 159.851 262.472 158.898 262.472 157.723C262.472 156.547 261.52 155.594 260.344 155.594C259.169 155.594 258.216 156.547 258.216 157.723C258.216 158.898 259.169 159.851 260.344 159.851Z" stroke="#C5C5D3" stroke-miterlimit="10"/>
<path d="M211.969 86.4663C213.145 86.4663 214.097 85.5134 214.097 84.338C214.097 83.1626 213.145 82.2097 211.969 82.2097C210.794 82.2097 209.841 83.1626 209.841 84.338C209.841 85.5134 210.794 86.4663 211.969 86.4663Z" stroke="#C5C5D3" stroke-miterlimit="10"/>
<path d="M211.969 132.128C213.145 132.128 214.097 131.176 214.097 130C214.097 128.825 213.145 127.872 211.969 127.872C210.794 127.872 209.841 128.825 209.841 130C209.841 131.176 210.794 132.128 211.969 132.128Z" stroke="#C5C5D3" stroke-miterlimit="10"/>
<path d="M244.241 105.018C245.416 105.018 246.369 104.065 246.369 102.89C246.369 101.714 245.416 100.761 244.241 100.761C243.065 100.761 242.112 101.714 242.112 102.89C242.112 104.065 243.065 105.018 244.241 105.018Z" stroke="#C5C5D3" stroke-miterlimit="10"/>
<path d="M307.842 105.018C309.018 105.018 309.97 104.065 309.97 102.89C309.97 101.714 309.018 100.761 307.842 100.761C306.667 100.761 305.714 101.714 305.714 102.89C305.714 104.065 306.667 105.018 307.842 105.018Z" stroke="#C5C5D3" stroke-miterlimit="10"/>
<path d="M307.842 143.373C309.018 143.373 309.97 142.42 309.97 141.244C309.97 140.069 309.018 139.116 307.842 139.116C306.667 139.116 305.714 140.069 305.714 141.244C305.714 142.42 306.667 143.373 307.842 143.373Z" stroke="#C5C5D3" stroke-miterlimit="10"/>
<path d="M394.645 86.4663C395.82 86.4663 396.773 85.5134 396.773 84.338C396.773 83.1626 395.82 82.2097 394.645 82.2097C393.469 82.2097 392.517 83.1626 392.517 84.338C392.517 85.5134 393.469 86.4663 394.645 86.4663Z" stroke="#C5C5D3" stroke-miterlimit="10"/>
<path d="M411.087 159.851C412.263 159.851 413.216 158.898 413.216 157.723C413.216 156.547 412.263 155.594 411.087 155.594C409.912 155.594 408.959 156.547 408.959 157.723C408.959 158.898 409.912 159.851 411.087 159.851Z" stroke="#C5C5D3" stroke-miterlimit="10"/>
<path d="M459.471 86.4663C460.646 86.4663 461.599 85.5134 461.599 84.338C461.599 83.1626 460.646 82.2097 459.471 82.2097C458.296 82.2097 457.343 83.1626 457.343 84.338C457.343 85.5134 458.296 86.4663 459.471 86.4663Z" stroke="#C5C5D3" stroke-miterlimit="10"/>
<path d="M427.2 105.018C428.375 105.018 429.328 104.065 429.328 102.89C429.328 101.714 428.375 100.761 427.2 100.761C426.024 100.761 425.071 101.714 425.071 102.89C425.071 104.065 426.024 105.018 427.2 105.018Z" stroke="#C5C5D3" stroke-miterlimit="10"/>
<path d="M363.598 105.018C364.773 105.018 365.726 104.065 365.726 102.89C365.726 101.714 364.773 100.761 363.598 100.761C362.423 100.761 361.47 101.714 361.47 102.89C361.47 104.065 362.423 105.018 363.598 105.018Z" stroke="#C5C5D3" stroke-miterlimit="10"/>
<path d="M363.598 143.373C364.773 143.373 365.726 142.42 365.726 141.244C365.726 140.069 364.773 139.116 363.598 139.116C362.423 139.116 361.47 140.069 361.47 141.244C361.47 142.42 362.423 143.373 363.598 143.373Z" stroke="#C5C5D3" stroke-miterlimit="10"/>
<path d="M192.385 199.256C193.561 199.256 194.513 198.303 194.513 197.128C194.513 195.952 193.561 195 192.385 195C191.21 195 190.257 195.952 190.257 197.128C190.257 198.303 191.21 199.256 192.385 199.256Z" stroke="#C5C5D3" stroke-miterlimit="10"/>
<path d="M211.568 229.399C212.743 229.399 213.696 228.446 213.696 227.271C213.696 226.095 212.743 225.143 211.568 225.143C210.392 225.143 209.439 226.095 209.439 227.271C209.439 228.446 210.392 229.399 211.568 229.399Z" stroke="#C5C5D3" stroke-miterlimit="10"/>
<path d="M192.385 259.542C193.561 259.542 194.513 258.589 194.513 257.414C194.513 256.238 193.561 255.286 192.385 255.286C191.21 255.286 190.257 256.238 190.257 257.414C190.257 258.589 191.21 259.542 192.385 259.542Z" stroke="#C5C5D3" stroke-miterlimit="10"/>
<path d="M206.086 289.685C207.262 289.685 208.215 288.732 208.215 287.557C208.215 286.382 207.262 285.429 206.086 285.429C204.911 285.429 203.958 286.382 203.958 287.557C203.958 288.732 204.911 289.685 206.086 289.685Z" stroke="#C5C5D3" stroke-miterlimit="10"/>
<path d="M211.403 349.085C212.578 349.085 213.531 348.132 213.531 346.957C213.531 345.781 212.578 344.829 211.403 344.829C210.227 344.829 209.274 345.781 209.274 346.957C209.274 348.132 210.227 349.085 211.403 349.085Z" stroke="#C5C5D3" stroke-miterlimit="10"/>
<path d="M192.221 318.942C193.396 318.942 194.349 317.989 194.349 316.814C194.349 315.638 193.396 314.686 192.221 314.686C191.046 314.686 190.093 315.638 190.093 316.814C190.093 317.989 191.046 318.942 192.221 318.942Z" stroke="#C5C5D3" stroke-miterlimit="10"/>
<path d="M192.322 379.365C193.497 379.365 194.45 378.412 194.45 377.237C194.45 376.062 193.497 375.109 192.322 375.109C191.146 375.109 190.193 376.062 190.193 377.237C190.193 378.412 191.146 379.365 192.322 379.365Z" stroke="#C5C5D3" stroke-miterlimit="10"/>
<path d="M229.772 412.249C230.947 412.249 231.9 411.296 231.9 410.12C231.9 408.945 230.947 407.992 229.772 407.992C228.596 407.992 227.644 408.945 227.644 410.12C227.644 411.296 228.596 412.249 229.772 412.249Z" stroke="#C5C5D3" stroke-miterlimit="10"/>
<path d="M440.773 412.249C441.948 412.249 442.901 411.296 442.901 410.12C442.901 408.945 441.948 407.992 440.773 407.992C439.597 407.992 438.645 408.945 438.645 410.12C438.645 411.296 439.597 412.249 440.773 412.249Z" stroke="#C5C5D3" stroke-miterlimit="10"/>
<path d="M178.328 341.476C179.256 341.476 180.009 340.523 180.009 339.348C180.009 338.173 179.256 337.22 178.328 337.22C177.4 337.22 176.647 338.173 176.647 339.348C176.647 340.523 177.4 341.476 178.328 341.476Z" stroke="#C5C5D3" stroke-miterlimit="10"/>
<path d="M155.492 389.495C156.42 389.495 157.173 388.542 157.173 387.367C157.173 386.191 156.42 385.239 155.492 385.239C154.564 385.239 153.812 386.191 153.812 387.367C153.812 388.542 154.564 389.495 155.492 389.495Z" stroke="#C5C5D3" stroke-miterlimit="10"/>
<path d="M178.328 149.264C179.256 149.264 180.009 148.312 180.009 147.136C180.009 145.961 179.256 145.008 178.328 145.008C177.4 145.008 176.647 145.961 176.647 147.136C176.647 148.312 177.4 149.264 178.328 149.264Z" stroke="#C5C5D3" stroke-miterlimit="10"/>
<path d="M155.492 101.246C156.42 101.246 157.173 100.293 157.173 99.1173C157.173 97.9419 156.42 96.989 155.492 96.989C154.564 96.989 153.812 97.9419 153.812 99.1173C153.812 100.293 154.564 101.246 155.492 101.246Z" stroke="#C5C5D3" stroke-miterlimit="10"/>
<path d="M460.019 349.853C461.194 349.853 462.147 348.9 462.147 347.724C462.147 346.549 461.194 345.596 460.019 345.596C458.844 345.596 457.891 346.549 457.891 347.724C457.891 348.9 458.844 349.853 460.019 349.853Z" stroke="#C5C5D3" stroke-miterlimit="10"/>
<path d="M479.201 319.709C480.376 319.709 481.329 318.757 481.329 317.581C481.329 316.406 480.376 315.453 479.201 315.453C478.025 315.453 477.072 316.406 477.072 317.581C477.072 318.757 478.025 319.709 479.201 319.709Z" stroke="#C5C5D3" stroke-miterlimit="10"/>
<path d="M464.586 289.566C465.762 289.566 466.715 288.614 466.715 287.438C466.715 286.263 465.762 285.31 464.586 285.31C463.411 285.31 462.458 286.263 462.458 287.438C462.458 288.614 463.411 289.566 464.586 289.566Z" stroke="#C5C5D3" stroke-miterlimit="10"/>
<path d="M479.201 259.423C480.376 259.423 481.329 258.47 481.329 257.295C481.329 256.12 480.376 255.167 479.201 255.167C478.025 255.167 477.072 256.12 477.072 257.295C477.072 258.47 478.025 259.423 479.201 259.423Z" stroke="#C5C5D3" stroke-miterlimit="10"/>
<path d="M479.036 200.032C480.212 200.032 481.165 199.08 481.165 197.904C481.165 196.729 480.212 195.776 479.036 195.776C477.861 195.776 476.908 196.729 476.908 197.904C476.908 199.08 477.861 200.032 479.036 200.032Z" stroke="#C5C5D3" stroke-miterlimit="10"/>
<path d="M459.855 230.176C461.03 230.176 461.983 229.223 461.983 228.047C461.983 226.872 461.03 225.919 459.855 225.919C458.679 225.919 457.727 226.872 457.727 228.047C457.727 229.223 458.679 230.176 459.855 230.176Z" stroke="#C5C5D3" stroke-miterlimit="10"/>
<path d="M459.955 132.302C461.131 132.302 462.084 131.349 462.084 130.174C462.084 128.998 461.131 128.045 459.955 128.045C458.78 128.045 457.827 128.998 457.827 130.174C457.827 131.349 458.78 132.302 459.955 132.302Z" stroke="#C5C5D3" stroke-miterlimit="10"/>
<path d="M493.46 149.575C494.388 149.575 495.141 148.622 495.141 147.447C495.141 146.271 494.388 145.318 493.46 145.318C492.532 145.318 491.779 146.271 491.779 147.447C491.779 148.622 492.532 149.575 493.46 149.575Z" stroke="#C5C5D3" stroke-miterlimit="10"/>
<path d="M492.546 341.394C493.474 341.394 494.227 340.441 494.227 339.266C494.227 338.091 493.474 337.138 492.546 337.138C491.618 337.138 490.865 338.091 490.865 339.266C490.865 340.441 491.618 341.394 492.546 341.394Z" stroke="#C5C5D3" stroke-miterlimit="10"/>
<path d="M478.05 379.968C479.226 379.968 480.178 379.015 480.178 377.84C480.178 376.664 479.226 375.711 478.05 375.711C476.875 375.711 475.922 376.664 475.922 377.84C475.922 379.015 476.875 379.968 478.05 379.968Z" stroke="#C5C5D3" stroke-miterlimit="10"/>
<path d="M515.5 390.929C516.428 390.929 517.181 389.976 517.181 388.801C517.181 387.625 516.428 386.673 515.5 386.673C514.572 386.673 513.819 387.625 513.819 388.801C513.819 389.976 514.572 390.929 515.5 390.929Z" stroke="#C5C5D3" stroke-miterlimit="10"/>
<path d="M516.24 101.51C517.168 101.51 517.921 100.558 517.921 99.3822C517.921 98.2068 517.168 97.2539 516.24 97.2539C515.312 97.2539 514.56 98.2068 514.56 99.3822C514.56 100.558 515.312 101.51 516.24 101.51Z" stroke="#C5C5D3" stroke-miterlimit="10"/>
<path d="M463.285 156.677L462.297 155.688C461.241 154.633 459.529 154.633 458.473 155.688L448.604 165.558C447.548 166.614 447.548 168.325 448.604 169.381L449.592 170.369C450.648 171.425 452.36 171.425 453.416 170.369L463.285 160.5C464.341 159.444 464.341 157.733 463.285 156.677Z" fill="#F5F6FC" stroke="black" stroke-miterlimit="10"/>
<path d="M209.352 155.444L208.364 156.432C207.308 157.488 207.308 159.2 208.364 160.256L218.233 170.125C219.289 171.181 221.001 171.181 222.057 170.125L223.045 169.137C224.101 168.081 224.101 166.369 223.045 165.313L213.176 155.444C212.12 154.388 210.408 154.388 209.352 155.444Z" fill="#F5F6FC" stroke="black" stroke-miterlimit="10"/>
<path d="M449.883 397.946L448.895 398.934C447.839 399.99 447.839 401.702 448.895 402.758L458.764 412.627C459.82 413.683 461.532 413.683 462.588 412.627L463.576 411.639C464.632 410.583 464.632 408.871 463.576 407.815L453.707 397.946C452.651 396.89 450.939 396.89 449.883 397.946Z" fill="#F5F6FC" stroke="black" stroke-miterlimit="10"/>
<path d="M223.053 398.929L222.065 397.941C221.009 396.885 219.297 396.885 218.241 397.941L208.372 407.81C207.316 408.866 207.316 410.578 208.372 411.634L209.361 412.622C210.416 413.678 212.128 413.678 213.184 412.622L223.053 402.753C224.109 401.697 224.109 399.985 223.053 398.929Z" fill="#F5F6FC" stroke="black" stroke-miterlimit="10"/>
<path d="M336.606 152.863H335.209C333.715 152.863 332.505 154.074 332.505 155.567V169.99C332.505 171.483 333.715 172.694 335.209 172.694H336.606C338.099 172.694 339.31 171.483 339.31 169.99V155.567C339.31 154.074 338.099 152.863 336.606 152.863Z" fill="#F5F6FC" stroke="black" stroke-miterlimit="10"/>
<path d="M333.847 185.637H297.867V188.377H333.847V185.637Z" fill="#C5C5D3"/>
<path d="M373.061 388.737H372.129V385.723H373.097C373.389 385.723 373.636 385.787 373.846 385.905C374.056 386.024 374.212 386.198 374.321 386.426C374.431 386.654 374.486 386.919 374.486 387.23C374.486 387.54 374.431 387.814 374.321 388.043C374.212 388.271 374.047 388.445 373.828 388.563C373.609 388.682 373.353 388.746 373.051 388.746L373.061 388.737ZM372.494 388.408H373.033C373.28 388.408 373.49 388.362 373.654 388.262C373.819 388.162 373.937 388.025 374.02 387.851C374.102 387.677 374.138 387.458 374.138 387.212C374.138 386.965 374.102 386.755 374.02 386.581C373.937 386.408 373.819 386.271 373.663 386.17C373.508 386.079 373.307 386.024 373.07 386.024H372.485V388.39L372.494 388.408Z" fill="#C5C5D3"/>
<path d="M377.655 387.23C377.655 387.55 377.601 387.824 377.482 388.052C377.363 388.28 377.208 388.463 377.007 388.591C376.806 388.719 376.578 388.783 376.322 388.783C376.066 388.783 375.838 388.719 375.637 388.591C375.436 388.463 375.281 388.289 375.162 388.052C375.043 387.824 374.988 387.54 374.988 387.23C374.988 386.919 375.043 386.636 375.162 386.408C375.281 386.179 375.436 385.997 375.637 385.869C375.838 385.741 376.066 385.677 376.322 385.677C376.578 385.677 376.806 385.741 377.007 385.869C377.208 385.997 377.363 386.17 377.482 386.408C377.592 386.636 377.655 386.91 377.655 387.23ZM377.308 387.23C377.308 386.965 377.263 386.746 377.181 386.572C377.098 386.389 376.98 386.252 376.824 386.161C376.678 386.07 376.514 386.024 376.331 386.024C376.148 386.024 375.984 386.07 375.838 386.161C375.692 386.252 375.573 386.389 375.482 386.572C375.399 386.755 375.354 386.974 375.354 387.23C375.354 387.486 375.399 387.714 375.482 387.887C375.573 388.07 375.682 388.207 375.838 388.299C375.984 388.39 376.148 388.436 376.331 388.436C376.514 388.436 376.678 388.39 376.824 388.299C376.97 388.207 377.089 388.07 377.181 387.887C377.272 387.705 377.308 387.486 377.308 387.23Z" fill="#C5C5D3"/>
<path d="M381.83 385.714V388.728H381.473L379.829 386.362H379.802V388.728H379.437V385.714H379.793L381.446 388.089H381.473V385.714H381.83Z" fill="#C5C5D3"/>
<path d="M385.109 387.23C385.109 387.55 385.054 387.824 384.935 388.052C384.816 388.28 384.661 388.463 384.46 388.591C384.259 388.719 384.031 388.783 383.775 388.783C383.519 388.783 383.291 388.719 383.09 388.591C382.889 388.463 382.734 388.289 382.615 388.052C382.496 387.824 382.441 387.54 382.441 387.23C382.441 386.919 382.496 386.636 382.615 386.408C382.734 386.179 382.889 385.997 383.09 385.869C383.291 385.741 383.519 385.677 383.775 385.677C384.031 385.677 384.259 385.741 384.46 385.869C384.661 385.997 384.816 386.17 384.935 386.408C385.045 386.636 385.109 386.91 385.109 387.23ZM384.752 387.23C384.752 386.965 384.707 386.746 384.624 386.572C384.542 386.389 384.424 386.252 384.268 386.161C384.122 386.07 383.958 386.024 383.775 386.024C383.592 386.024 383.428 386.07 383.282 386.161C383.136 386.252 383.017 386.389 382.926 386.572C382.843 386.755 382.798 386.974 382.798 387.23C382.798 387.486 382.843 387.714 382.926 387.887C383.017 388.07 383.126 388.207 383.282 388.299C383.428 388.39 383.592 388.436 383.775 388.436C383.958 388.436 384.122 388.39 384.268 388.299C384.414 388.207 384.533 388.07 384.624 387.887C384.716 387.705 384.752 387.486 384.752 387.23Z" fill="#C5C5D3"/>
<path d="M385.429 386.042V385.714H387.694V386.042H386.744V388.737H386.379V386.042H385.429Z" fill="#C5C5D3"/>
<path d="M389.429 388.737V385.723H391.246V386.052H389.794V387.075H391.155V387.394H389.794V388.417H391.274V388.737H389.429Z" fill="#C5C5D3"/>
<path d="M392.088 385.714L392.864 386.974H392.891L393.668 385.714H394.097L393.147 387.221L394.097 388.728H393.668L392.891 387.495H392.864L392.088 388.728H391.658L392.626 387.221L391.658 385.714H392.088Z" fill="#C5C5D3"/>
<path d="M396.956 386.664H396.591C396.572 386.563 396.536 386.463 396.481 386.39C396.426 386.317 396.362 386.243 396.289 386.189C396.216 386.134 396.125 386.097 396.033 386.07C395.942 386.042 395.842 386.033 395.741 386.033C395.558 386.033 395.394 386.079 395.248 386.17C395.102 386.262 394.983 386.399 394.892 386.581C394.809 386.764 394.764 386.983 394.764 387.239C394.764 387.495 394.809 387.723 394.892 387.897C394.983 388.079 395.093 388.216 395.248 388.308C395.394 388.399 395.558 388.445 395.741 388.445C395.842 388.445 395.933 388.436 396.033 388.408C396.125 388.381 396.207 388.335 396.289 388.29C396.362 388.235 396.426 388.171 396.481 388.089C396.536 388.006 396.572 387.915 396.591 387.815H396.956C396.929 387.97 396.883 388.107 396.801 388.226C396.728 388.344 396.636 388.454 396.527 388.536C396.417 388.618 396.298 388.682 396.161 388.728C396.024 388.774 395.887 388.792 395.732 388.792C395.476 388.792 395.248 388.728 395.047 388.6C394.846 388.472 394.691 388.299 394.572 388.061C394.453 387.833 394.398 387.55 394.398 387.239C394.398 386.929 394.453 386.645 394.572 386.417C394.691 386.189 394.846 386.006 395.047 385.878C395.248 385.75 395.476 385.686 395.732 385.686C395.887 385.686 396.024 385.705 396.161 385.75C396.298 385.796 396.417 385.86 396.527 385.942C396.636 386.024 396.728 386.134 396.801 386.253C396.874 386.371 396.919 386.508 396.956 386.664Z" fill="#C5C5D3"/>
<path d="M397.54 388.737V385.723H399.358V386.052H397.905V387.075H399.266V387.394H397.905V388.417H399.385V388.737H397.54Z" fill="#C5C5D3"/>
<path d="M400.025 388.737V385.723H401.843V386.052H400.391V387.075H401.752V387.394H400.391V388.417H401.87V388.737H400.025Z" fill="#C5C5D3"/>
<path d="M403.432 388.737H402.5V385.723H403.468C403.761 385.723 404.007 385.787 404.217 385.905C404.427 386.024 404.583 386.198 404.692 386.426C404.802 386.654 404.857 386.919 404.857 387.23C404.857 387.54 404.802 387.814 404.692 388.043C404.583 388.271 404.418 388.445 404.199 388.563C403.98 388.682 403.724 388.746 403.423 388.746L403.432 388.737ZM402.865 388.408H403.404C403.651 388.408 403.861 388.362 404.025 388.262C404.19 388.162 404.309 388.025 404.391 387.851C404.473 387.677 404.51 387.458 404.51 387.212C404.51 386.965 404.473 386.755 404.391 386.581C404.309 386.408 404.19 386.271 404.035 386.17C403.879 386.079 403.678 386.024 403.441 386.024H402.856V388.39L402.865 388.408Z" fill="#C5C5D3"/>
<path d="M407.625 388.774C407.433 388.774 407.26 388.737 407.104 388.673C406.949 388.609 406.83 388.518 406.739 388.39C406.648 388.271 406.602 388.134 406.593 387.97H406.967C406.967 388.07 407.004 388.153 407.068 388.226C407.132 388.299 407.205 388.353 407.296 388.39C407.387 388.427 407.497 388.445 407.616 388.445C407.744 388.445 407.862 388.427 407.963 388.381C408.063 388.335 408.146 388.271 408.2 388.189C408.255 388.107 408.283 388.015 408.283 387.906C408.283 387.796 408.255 387.696 408.2 387.614C408.146 387.531 408.063 387.458 407.963 387.413C407.862 387.367 407.725 387.34 407.57 387.34H407.333V387.02H407.57C407.689 387.02 407.799 387.002 407.89 386.956C407.981 386.91 408.054 386.855 408.1 386.773C408.155 386.691 408.173 386.6 408.173 386.499C408.173 386.399 408.155 386.307 408.109 386.234C408.063 386.161 407.999 386.097 407.917 386.061C407.835 386.024 407.735 385.997 407.625 385.997C407.524 385.997 407.424 386.015 407.333 386.052C407.241 386.088 407.168 386.143 407.104 386.216C407.04 386.289 407.013 386.371 407.013 386.472H406.657C406.657 386.317 406.712 386.17 406.803 386.052C406.894 385.933 407.013 385.842 407.15 385.768C407.296 385.705 407.451 385.668 407.625 385.668C407.817 385.668 407.972 385.705 408.109 385.778C408.246 385.851 408.347 385.951 408.42 386.079C408.493 386.198 408.529 386.335 408.529 386.481C408.529 386.654 408.484 386.791 408.392 386.919C408.301 387.038 408.182 387.12 408.027 387.166V387.193C408.219 387.221 408.365 387.303 408.474 387.44C408.584 387.577 408.639 387.732 408.639 387.924C408.639 388.089 408.593 388.235 408.502 388.363C408.411 388.49 408.292 388.591 408.136 388.673C407.981 388.746 407.808 388.783 407.616 388.783L407.625 388.774Z" fill="#C5C5D3"/>
<path d="M410.228 388.774C410.009 388.774 409.817 388.71 409.662 388.591C409.507 388.472 409.388 388.289 409.306 388.061C409.223 387.833 409.178 387.55 409.178 387.221C409.178 386.892 409.223 386.618 409.306 386.38C409.388 386.152 409.507 385.969 409.662 385.851C409.817 385.732 410.009 385.668 410.228 385.668C410.447 385.668 410.639 385.732 410.794 385.851C410.95 385.969 411.069 386.152 411.151 386.38C411.233 386.609 411.279 386.892 411.279 387.221C411.279 387.55 411.233 387.833 411.151 388.061C411.069 388.289 410.95 388.472 410.794 388.591C410.639 388.71 410.447 388.774 410.228 388.774ZM410.228 388.454C410.447 388.454 410.621 388.344 410.74 388.134C410.858 387.924 410.922 387.623 410.922 387.23C410.922 386.965 410.895 386.746 410.84 386.563C410.785 386.38 410.703 386.243 410.603 386.143C410.502 386.042 410.374 385.997 410.228 385.997C410.009 385.997 409.835 386.106 409.717 386.316C409.598 386.527 409.534 386.837 409.534 387.23C409.534 387.495 409.561 387.714 409.616 387.897C409.671 388.079 409.753 388.216 409.854 388.317C409.954 388.408 410.082 388.463 410.228 388.463V388.454Z" fill="#C5C5D3"/>
<path d="M412.822 388.774C412.603 388.774 412.411 388.71 412.256 388.591C412.1 388.472 411.982 388.289 411.899 388.061C411.817 387.833 411.771 387.55 411.771 387.221C411.771 386.892 411.817 386.618 411.899 386.38C411.982 386.152 412.1 385.969 412.256 385.851C412.411 385.732 412.603 385.668 412.822 385.668C413.041 385.668 413.233 385.732 413.388 385.851C413.544 385.969 413.662 386.152 413.744 386.38C413.827 386.609 413.872 386.892 413.872 387.221C413.872 387.55 413.827 387.833 413.744 388.061C413.662 388.289 413.544 388.472 413.388 388.591C413.233 388.71 413.041 388.774 412.822 388.774ZM412.822 388.454C413.041 388.454 413.215 388.344 413.333 388.134C413.452 387.924 413.516 387.623 413.516 387.23C413.516 386.965 413.489 386.746 413.434 386.563C413.379 386.38 413.297 386.243 413.196 386.143C413.096 386.042 412.968 385.997 412.822 385.997C412.603 385.997 412.429 386.106 412.31 386.316C412.192 386.527 412.128 386.837 412.128 387.23C412.128 387.495 412.155 387.714 412.21 387.897C412.265 388.079 412.347 388.216 412.447 388.317C412.548 388.408 412.676 388.463 412.822 388.463V388.454Z" fill="#C5C5D3"/>
<path d="M414.484 388.737V385.723H414.85V388.417H416.256V388.737H414.484Z" fill="#C5C5D3"/>
<path d="M416.814 388.737V385.723H417.864C418.074 385.723 418.248 385.759 418.385 385.832C418.522 385.905 418.622 385.997 418.686 386.125C418.75 386.252 418.787 386.38 418.787 386.526C418.787 386.654 418.759 386.764 418.714 386.846C418.668 386.928 418.604 387.001 418.531 387.047C418.458 387.093 418.376 387.129 418.294 387.157V387.184C418.385 387.184 418.476 387.221 418.568 387.285C418.659 387.339 418.741 387.431 418.805 387.54C418.869 387.65 418.896 387.787 418.896 387.942C418.896 388.098 418.86 388.235 418.796 388.353C418.732 388.472 418.622 388.573 418.467 388.636C418.312 388.7 418.129 388.746 417.892 388.746H416.805L416.814 388.737ZM417.179 387.047H417.855C417.965 387.047 418.065 387.029 418.157 386.983C418.248 386.938 418.312 386.883 418.367 386.8C418.421 386.718 418.449 386.627 418.449 386.526C418.449 386.389 418.403 386.28 418.312 386.189C418.22 386.097 418.074 386.052 417.873 386.052H417.188V387.056L417.179 387.047ZM417.179 388.408H417.901C418.138 388.408 418.312 388.362 418.412 388.271C418.513 388.18 418.568 388.061 418.568 387.933C418.568 387.833 418.54 387.741 418.485 387.65C418.431 387.559 418.358 387.495 418.266 387.44C418.175 387.385 418.056 387.358 417.928 387.358H417.188V388.408H417.179Z" fill="#C5C5D3"/>
<path d="M421.162 386.472C421.143 386.326 421.07 386.207 420.943 386.125C420.815 386.042 420.659 385.997 420.477 385.997C420.34 385.997 420.23 386.015 420.13 386.061C420.029 386.106 419.956 386.161 419.901 386.243C419.846 386.316 419.819 386.408 419.819 386.499C419.819 386.581 419.837 386.645 419.874 386.709C419.91 386.764 419.965 386.819 420.02 386.855C420.084 386.892 420.148 386.928 420.212 386.947C420.276 386.965 420.34 386.992 420.394 387.002L420.705 387.084C420.787 387.102 420.869 387.129 420.97 387.166C421.07 387.202 421.162 387.248 421.244 387.312C421.335 387.376 421.408 387.458 421.463 387.55C421.518 387.641 421.545 387.769 421.545 387.906C421.545 388.07 421.5 388.216 421.418 388.344C421.335 388.472 421.207 388.582 421.043 388.655C420.879 388.728 420.687 388.774 420.449 388.774C420.23 388.774 420.047 388.737 419.892 388.673C419.737 388.6 419.609 388.509 419.518 388.381C419.426 388.253 419.381 388.116 419.362 387.942H419.737C419.746 388.052 419.782 388.152 419.856 388.226C419.92 388.299 420.011 388.353 420.111 388.39C420.212 388.426 420.331 388.445 420.449 388.445C420.586 388.445 420.714 388.426 420.824 388.381C420.933 388.335 421.025 388.271 421.089 388.189C421.153 388.107 421.189 388.006 421.189 387.897C421.189 387.796 421.162 387.714 421.107 387.65C421.052 387.586 420.979 387.54 420.888 387.495C420.796 387.458 420.696 387.422 420.595 387.394L420.221 387.285C419.983 387.221 419.801 387.12 419.664 386.992C419.527 386.865 419.454 386.7 419.454 386.499C419.454 386.326 419.499 386.179 419.591 386.052C419.682 385.924 419.81 385.823 419.965 385.759C420.12 385.686 420.294 385.65 420.486 385.65C420.678 385.65 420.851 385.686 421.006 385.75C421.162 385.823 421.281 385.915 421.363 386.033C421.454 386.152 421.5 386.289 421.5 386.444H421.143L421.162 386.472Z" fill="#C5C5D3"/>
<path d="M249.401 188.505L248.561 185.491H249.036L249.62 187.829H249.648L250.26 185.491H250.735L251.346 187.829H251.374L251.958 185.491H252.443L251.602 188.505H251.146L250.506 186.249H250.479L249.839 188.505H249.383H249.401Z" fill="#C5C5D3"/>
<path d="M252.862 188.505V185.491H254.753V185.883H253.319V186.806H254.653V187.199H253.319V188.121H254.771V188.514H252.862V188.505Z" fill="#C5C5D3"/>
<path d="M255.822 185.482V188.496H255.365V185.482H255.822Z" fill="#C5C5D3"/>
<path d="M258.526 186.441C258.499 186.349 258.462 186.267 258.417 186.203C258.371 186.13 258.316 186.075 258.243 186.021C258.17 185.966 258.106 185.929 258.015 185.902C257.933 185.874 257.841 185.865 257.741 185.865C257.567 185.865 257.421 185.911 257.284 185.993C257.147 186.075 257.038 186.212 256.964 186.377C256.882 186.541 256.846 186.751 256.846 186.998C256.846 187.245 256.882 187.446 256.964 187.619C257.047 187.793 257.156 187.921 257.293 188.003C257.43 188.085 257.586 188.131 257.768 188.131C257.933 188.131 258.079 188.094 258.198 188.03C258.316 187.966 258.417 187.866 258.481 187.747C258.545 187.628 258.581 187.482 258.581 187.318L258.7 187.336H257.832V186.961H259.02V187.309C259.02 187.564 258.965 187.784 258.855 187.966C258.746 188.149 258.6 188.295 258.408 188.396C258.216 188.496 258.006 188.551 257.759 188.551C257.485 188.551 257.248 188.487 257.038 188.359C256.827 188.231 256.672 188.058 256.553 187.82C256.435 187.592 256.38 187.318 256.38 186.998C256.38 186.76 256.416 186.541 256.48 186.349C256.544 186.158 256.645 185.993 256.764 185.856C256.882 185.719 257.028 185.619 257.193 185.546C257.357 185.473 257.54 185.436 257.732 185.436C257.896 185.436 258.042 185.463 258.188 185.509C258.335 185.555 258.453 185.628 258.563 185.71C258.673 185.801 258.764 185.902 258.837 186.021C258.91 186.139 258.956 186.276 258.983 186.423H258.517L258.526 186.441Z" fill="#C5C5D3"/>
<path d="M259.595 188.505V185.491H260.051V186.806H261.559V185.491H262.015V188.505H261.559V187.19H260.051V188.505H259.595Z" fill="#C5C5D3"/>
<path d="M262.526 185.874V185.482H264.865V185.874H263.924V188.496H263.467V185.874H262.526Z" fill="#C5C5D3"/>
<path d="M266.473 188.505V185.491H267.578C267.788 185.491 267.971 185.527 268.108 185.6C268.245 185.673 268.354 185.765 268.418 185.883C268.482 186.002 268.519 186.139 268.519 186.285C268.519 186.413 268.501 186.514 268.446 186.605C268.391 186.696 268.336 186.76 268.263 186.815C268.19 186.87 268.099 186.907 268.007 186.925V186.952C268.108 186.952 268.208 186.989 268.3 187.053C268.391 187.107 268.473 187.199 268.537 187.308C268.601 187.418 268.628 187.546 268.628 187.71C268.628 187.875 268.592 188.003 268.519 188.121C268.446 188.24 268.336 188.341 268.181 188.414C268.035 188.487 267.834 188.523 267.605 188.523H266.445L266.473 188.505ZM266.929 186.788H267.541C267.642 186.788 267.733 186.77 267.815 186.733C267.898 186.696 267.962 186.642 268.007 186.569C268.053 186.495 268.08 186.413 268.08 186.313C268.08 186.185 268.035 186.084 267.952 186.002C267.861 185.92 267.733 185.874 267.551 185.874H266.929V186.788ZM266.929 188.112H267.587C267.806 188.112 267.962 188.067 268.053 187.984C268.144 187.902 268.19 187.793 268.19 187.665C268.19 187.573 268.163 187.482 268.117 187.4C268.071 187.318 267.998 187.254 267.907 187.208C267.815 187.162 267.715 187.135 267.587 187.135H266.911V188.103L266.929 188.112Z" fill="#C5C5D3"/>
<path d="M269.186 188.505V185.491H271.076V185.883H269.642V186.806H270.976V187.199H269.642V188.121H271.095V188.514H269.186V188.505Z" fill="#C5C5D3"/>
<path d="M271.944 188.505H271.46L272.547 185.491H273.077L274.164 188.505H273.68L272.83 186.039H272.803L271.944 188.505ZM272.026 187.318H273.597V187.701H272.026V187.318Z" fill="#C5C5D3"/>
<path d="M274.593 188.505V185.491H275.671C275.908 185.491 276.1 185.527 276.256 185.609C276.411 185.692 276.53 185.801 276.603 185.947C276.676 186.094 276.712 186.249 276.712 186.441C276.712 186.632 276.676 186.788 276.594 186.925C276.52 187.062 276.402 187.171 276.246 187.254C276.091 187.336 275.899 187.372 275.662 187.372H274.849V186.98H275.625C275.771 186.98 275.89 186.961 275.982 186.916C276.073 186.87 276.146 186.815 276.182 186.733C276.228 186.651 276.246 186.559 276.246 186.441C276.246 186.322 276.228 186.231 276.182 186.148C276.137 186.066 276.073 186.002 275.982 185.957C275.89 185.911 275.762 185.893 275.616 185.893H275.041V188.523H274.584L274.593 188.505ZM276.082 187.144L276.831 188.505H276.31L275.58 187.144H276.082Z" fill="#C5C5D3"/>
<path d="M277.726 185.482V188.496H277.27V185.482H277.726Z" fill="#C5C5D3"/>
<path d="M280.823 185.482V188.496H280.402L278.868 186.285H278.841V188.496H278.384V185.482H278.804L280.339 187.701H280.366V185.482H280.814H280.823Z" fill="#C5C5D3"/>
<path d="M283.526 186.441C283.499 186.349 283.462 186.267 283.417 186.203C283.371 186.13 283.316 186.075 283.243 186.021C283.17 185.966 283.106 185.929 283.015 185.902C282.933 185.874 282.841 185.865 282.741 185.865C282.567 185.865 282.421 185.911 282.284 185.993C282.147 186.075 282.038 186.212 281.964 186.377C281.882 186.541 281.846 186.751 281.846 186.998C281.846 187.245 281.882 187.446 281.964 187.619C282.047 187.793 282.156 187.921 282.293 188.003C282.43 188.085 282.586 188.131 282.768 188.131C282.933 188.131 283.079 188.094 283.198 188.03C283.316 187.966 283.417 187.866 283.481 187.747C283.545 187.628 283.581 187.482 283.581 187.318L283.7 187.336H282.832V186.961H284.02V187.309C284.02 187.564 283.965 187.784 283.855 187.966C283.746 188.149 283.6 188.295 283.408 188.396C283.216 188.496 283.006 188.551 282.759 188.551C282.485 188.551 282.248 188.487 282.038 188.359C281.827 188.231 281.672 188.058 281.553 187.82C281.435 187.592 281.38 187.318 281.38 186.998C281.38 186.76 281.416 186.541 281.48 186.349C281.544 186.158 281.645 185.993 281.764 185.856C281.882 185.719 282.028 185.619 282.193 185.546C282.357 185.473 282.54 185.436 282.732 185.436C282.896 185.436 283.042 185.463 283.188 185.509C283.335 185.555 283.453 185.628 283.563 185.71C283.673 185.801 283.764 185.902 283.837 186.021C283.91 186.139 283.956 186.276 283.983 186.423H283.517L283.526 186.441Z" fill="#C5C5D3"/>
<path d="M285.609 188.505V188.204L287.198 185.883H285.6V185.491H287.755V185.792L286.166 188.112H287.764V188.505H285.609Z" fill="#C5C5D3"/>
<path d="M290.825 186.998C290.825 187.318 290.77 187.601 290.652 187.829C290.533 188.058 290.368 188.24 290.168 188.359C289.967 188.487 289.729 188.542 289.473 188.542C289.218 188.542 288.98 188.478 288.77 188.359C288.569 188.231 288.405 188.058 288.286 187.829C288.167 187.601 288.112 187.318 288.112 186.998C288.112 186.678 288.167 186.395 288.286 186.167C288.405 185.938 288.569 185.756 288.77 185.637C288.971 185.509 289.208 185.454 289.473 185.454C289.738 185.454 289.967 185.518 290.168 185.637C290.368 185.765 290.533 185.938 290.652 186.167C290.77 186.395 290.825 186.678 290.825 186.998ZM290.368 186.998C290.368 186.751 290.332 186.541 290.25 186.377C290.168 186.212 290.058 186.085 289.921 185.993C289.784 185.911 289.629 185.865 289.455 185.865C289.281 185.865 289.126 185.911 288.989 185.993C288.852 186.075 288.743 186.212 288.669 186.377C288.587 186.541 288.551 186.751 288.551 186.998C288.551 187.245 288.587 187.455 288.669 187.619C288.752 187.784 288.852 187.911 288.989 188.003C289.126 188.094 289.281 188.131 289.455 188.131C289.629 188.131 289.784 188.085 289.921 188.003C290.058 187.921 290.168 187.793 290.25 187.619C290.332 187.455 290.368 187.245 290.368 186.998Z" fill="#C5C5D3"/>
<path d="M293.821 185.482V188.496H293.401L291.866 186.285H291.839V188.496H291.382V185.482H291.802L293.337 187.701H293.364V185.482H293.812H293.821Z" fill="#C5C5D3"/>
<path d="M294.487 188.505V185.491H296.378V185.883H294.944V186.806H296.278V187.199H294.944V188.121H296.396V188.514H294.487V188.505Z" fill="#C5C5D3"/>
<path d="M434.197 192.195V285.703H436.937V192.195C436.937 188.578 433.996 185.637 430.379 185.637H337.328V188.377H430.379C432.48 188.377 434.197 190.094 434.197 192.195Z" fill="#C5C5D3"/>
<path d="M237.198 285.703V192.195C237.198 190.094 238.916 188.377 241.016 188.377H246.926V185.637H241.016C237.399 185.637 234.458 188.578 234.458 192.195V285.703H237.198Z" fill="#C5C5D3"/>
<path d="M434.197 289.183V382.179C434.197 384.289 432.48 385.997 430.379 385.997H423.346V388.737H430.379C433.996 388.737 436.937 385.796 436.937 382.179V289.183H434.197Z" fill="#C5C5D3"/>
<path d="M237.198 382.179V289.183H234.458V382.179C234.458 385.796 237.399 388.737 241.016 388.737H369.435V385.997H241.016C238.906 385.997 237.198 384.28 237.198 382.179Z" fill="#C5C5D3"/>
<g clip-path="url(#clip1_380_16541)">
<path d="M320.638 75.0352V74.419C320.638 74.3703 320.595 74.3313 320.547 74.337C318.647 74.5562 317.193 76.0477 316.976 77.9298C316.97 77.9785 317.009 78.0215 317.058 78.0215H317.692C317.731 78.0215 317.764 77.9923 317.769 77.9525C317.966 76.4748 319.084 75.3145 320.571 75.1124C320.61 75.1067 320.639 75.075 320.639 75.0352" fill="black"/>
<path d="M321.429 81.8028V82.4182C321.429 82.4669 321.472 82.5059 321.52 82.5002C323.42 82.281 324.874 80.7903 325.09 78.9074C325.096 78.8587 325.057 78.8157 325.009 78.8157H324.374C324.335 78.8157 324.302 78.8449 324.298 78.8847C324.101 80.3624 322.983 81.5235 321.497 81.7248C321.459 81.7297 321.429 81.7622 321.429 81.802" fill="black"/>
<path d="M324.375 78.0215H325.01C325.058 78.0215 325.097 77.9777 325.091 77.9298C324.875 76.0477 323.421 74.5562 321.521 74.337C321.472 74.3313 321.43 74.3711 321.43 74.419V75.0344C321.43 75.0742 321.459 75.1067 321.498 75.1116C322.985 75.3129 324.102 76.474 324.299 77.9517C324.303 77.9907 324.336 78.0207 324.375 78.0207" fill="black"/>
<path d="M317.693 78.8164H317.059C317.01 78.8164 316.971 78.8603 316.977 78.9082C317.194 80.7902 318.648 82.2817 320.547 82.501C320.596 82.5066 320.638 82.4669 320.638 82.419V81.8027C320.638 81.7629 320.609 81.7304 320.57 81.7256C319.084 81.5242 317.966 80.3631 317.77 78.8854C317.765 78.8464 317.732 78.8164 317.693 78.8164Z" fill="black"/>
<path d="M341.595 75.0352V74.419C341.595 74.3703 341.552 74.3313 341.504 74.337C339.605 74.5562 338.15 76.0477 337.934 77.9298C337.928 77.9785 337.968 78.0215 338.016 78.0215H338.651C338.69 78.0215 338.723 77.9923 338.727 77.9525C338.924 76.4748 340.042 75.3137 341.528 75.1124C341.566 75.1067 341.596 75.075 341.596 75.0352" fill="black"/>
<path d="M345.331 78.0215H345.966C346.014 78.0215 346.053 77.9777 346.047 77.9298C345.83 76.0477 344.377 74.5562 342.477 74.337C342.429 74.3313 342.386 74.3711 342.386 74.419V75.0344C342.386 75.0742 342.415 75.1067 342.454 75.1116C343.94 75.3129 345.059 76.474 345.255 77.9517C345.26 77.9907 345.292 78.0207 345.331 78.0207" fill="black"/>
<path d="M338.65 78.8164H338.015C337.967 78.8164 337.928 78.8603 337.933 78.9082C338.15 80.7902 339.604 82.2817 341.503 82.501C341.552 82.5066 341.594 82.4669 341.594 82.419V81.8027C341.594 81.7629 341.565 81.7304 341.526 81.7256C340.039 81.5242 338.922 80.3631 338.726 78.8854C338.721 78.8464 338.688 78.8164 338.649 78.8164" fill="black"/>
<path d="M342.386 81.8028V82.4182C342.386 82.4669 342.429 82.5059 342.477 82.5002C344.377 82.281 345.831 80.7903 346.047 78.9074C346.053 78.8587 346.014 78.8157 345.966 78.8157H345.331C345.292 78.8157 345.259 78.8449 345.255 78.8847C345.059 80.3624 343.94 81.5235 342.454 81.7248C342.416 81.7297 342.386 81.7622 342.386 81.802" fill="black"/>
<path d="M351.707 77.942C350.635 77.5904 349.958 77.3176 349.958 76.4545C349.958 75.5914 350.646 75.0807 351.594 75.0807C352.593 75.0807 353.196 75.6385 353.501 76.3181C353.521 76.3612 353.57 76.3782 353.611 76.3555L354.135 76.0599C354.173 76.0388 354.188 75.9925 354.17 75.9536C353.751 75.0426 352.86 74.3086 351.594 74.3086C350.329 74.3086 349.168 75.0921 349.168 76.4886C349.168 77.9534 350.409 78.2944 351.696 78.7255C352.858 79.112 353.637 79.4067 353.637 80.3266C353.637 81.1784 352.971 81.7573 351.774 81.7573C350.577 81.7573 349.838 81.184 349.536 80.2844C349.519 80.2365 349.465 80.2138 349.422 80.2398L348.888 80.5532C348.854 80.5735 348.838 80.6165 348.851 80.653C349.274 81.8182 350.333 82.5294 351.763 82.5294C353.343 82.5294 354.426 81.6663 354.426 80.3039C354.426 78.8278 353.14 78.4194 351.706 77.942" fill="black"/>
<path d="M335.649 74.9493C335.68 74.9176 335.68 74.8673 335.649 74.8356L335.192 74.376C335.16 74.3444 335.109 74.3444 335.079 74.376L332.167 77.3063C332.136 77.338 332.136 77.3883 332.167 77.42L332.624 77.8795C332.655 77.9112 332.705 77.9112 332.737 77.8795L335.649 74.9493Z" fill="black"/>
<path d="M335.483 81.8799L332.122 78.4982L331.552 77.925L328.191 74.5433C328.16 74.5116 328.109 74.5116 328.078 74.5433L327.621 75.0028C327.59 75.0345 327.59 75.0848 327.621 75.1165L330.982 78.4982L327.621 81.8799C327.59 81.9116 327.59 81.9627 327.621 81.9936L328.078 82.4531C328.109 82.4848 328.16 82.4848 328.191 82.4531L331.552 79.0714L334.913 82.4531C334.945 82.4848 334.995 82.4848 335.026 82.4531L335.483 81.9936C335.515 81.9619 335.515 81.9108 335.483 81.8799Z" fill="black"/>
</g>
</g>
<g clip-path="url(#clip2_380_16541)">
<g filter="url(#filter0_d_380_16541)">
<path d="M395.573 486.832C395.573 486.832 362.266 388.572 360.238 360.954C360.238 360.954 357.397 331.1 357.397 324.605C357.397 318.111 362.676 315.874 362.676 315.874C362.676 315.874 384.203 298.411 392.121 278.302C392.121 278.302 400.04 267.744 401.867 265.507C403.693 263.27 426.032 239.917 426.032 239.917C426.032 239.917 431.923 232.538 428.945 228.683C425.968 224.828 421.839 227.396 417.912 231.258L433.886 213.86C433.886 213.86 440.589 206.279 435.914 201.676C431.239 197.073 426.572 200.461 425.356 201.676C425.356 201.676 434.426 195.448 430.362 190.104C426.298 184.76 417.704 190.104 417.704 190.104L392.725 205.877L403.557 196.944C403.557 196.944 406.872 193.067 402.809 187.731C398.745 182.394 388.597 187.731 388.597 187.731L374.788 196.807C374.788 196.807 365.445 202.424 353.262 211.494C341.078 220.563 332.886 227.065 332.886 227.065C332.886 227.065 338.705 220.096 336.403 213.795C336.403 213.795 335.317 210.544 333.627 208.789L333.354 207.775C333.354 207.775 332.541 206.488 328.816 209.94C325.09 213.392 322.386 216.845 322.386 216.845C322.386 216.845 319.61 220.297 316.495 221.987C313.381 223.677 310.677 225.166 306.139 233.631C301.6 242.096 294.494 251.978 294.494 251.978C294.494 251.978 291.107 255.567 290.366 264.234C289.625 272.9 289.755 293.751 292.193 299.907C294.631 306.064 296.659 311.688 297.673 319.47C298.688 327.252 300.651 345.736 302.14 351.216C303.629 356.697 307.491 377.482 307.555 386.415C307.62 395.347 312.36 431.495 312.36 431.495L317.776 486.839" fill="white"/>
<path d="M395.573 486.832C395.573 486.832 362.266 388.572 360.238 360.954C360.238 360.954 357.397 331.1 357.397 324.605C357.397 318.111 362.676 315.874 362.676 315.874C362.676 315.874 384.203 298.411 392.121 278.302C392.121 278.302 400.04 267.744 401.867 265.507C403.693 263.27 426.032 239.917 426.032 239.917C426.032 239.917 431.923 232.538 428.945 228.683C425.968 224.828 421.839 227.396 417.912 231.258L433.886 213.86C433.886 213.86 440.589 206.279 435.914 201.676C431.239 197.073 426.572 200.461 425.356 201.676C425.356 201.676 434.426 195.448 430.362 190.104C426.298 184.76 417.704 190.104 417.704 190.104L392.725 205.877L403.557 196.944C403.557 196.944 406.872 193.067 402.809 187.731C398.745 182.394 388.597 187.731 388.597 187.731L374.788 196.807C374.788 196.807 365.445 202.424 353.262 211.494C341.078 220.563 332.886 227.065 332.886 227.065C332.886 227.065 338.705 220.096 336.403 213.795C336.403 213.795 335.317 210.544 333.627 208.789L333.354 207.775C333.354 207.775 332.541 206.488 328.816 209.94C325.09 213.392 322.386 216.845 322.386 216.845C322.386 216.845 319.61 220.297 316.495 221.987C313.381 223.677 310.677 225.166 306.139 233.631C301.6 242.096 294.494 251.978 294.494 251.978C294.494 251.978 291.107 255.567 290.366 264.234C289.625 272.9 289.755 293.751 292.193 299.907C294.631 306.064 296.659 311.688 297.673 319.47C298.688 327.252 300.651 345.736 302.14 351.216C303.629 356.697 307.491 377.482 307.555 386.415C307.62 395.347 312.36 431.495 312.36 431.495L317.776 486.839" stroke="#595CFF" stroke-width="2.7576" stroke-miterlimit="10"/>
</g>
<path d="M305.102 299.925C307.961 297.815 310.366 295.968 312.866 293.531C315.331 291.125 317.656 288.429 318.804 285.31C318.927 284.923 319.795 285.34 319.703 285.741C317.91 290.515 313.811 294.154 309.998 297.742C308.559 298.824 307.083 299.861 305.51 300.798C305.243 300.957 304.841 300.106 305.102 299.925Z" fill="#595CFF"/>
<path d="M349.833 302.997C347.476 307.905 345.449 312.93 344.118 318.038C342.779 323.095 341.966 328.371 343.574 333.441C343.618 333.563 343.511 333.699 343.333 333.718C343.172 333.737 343.02 333.673 342.975 333.563C339.966 325.868 342.574 317.716 345.52 310.221C346.583 307.705 347.78 305.235 349.199 302.81C349.369 302.532 349.994 302.687 349.833 302.997Z" fill="#595CFF"/>
<path d="M298.651 266.14C301.204 260.156 304.074 253.92 308.892 249.404C311.927 246.455 328.994 229.855 332.404 226.547C333.087 225.899 334.101 226.921 333.389 227.597L314.2 245.448C311.446 248.102 307.166 251.561 305.124 254.783C302.657 258.358 300.65 262.263 298.91 266.255C298.852 266.42 298.579 266.32 298.651 266.154V266.14Z" fill="#595CFF"/>
<path d="M352.018 236.17C359.426 232.099 365.69 226.281 371.839 220.527C378.226 214.845 385.051 209.753 392.15 204.97C393.351 204.193 394.545 205.999 393.315 206.79C386.224 211.314 379.283 216.233 372.853 221.678C369.653 224.432 366.531 227.395 363.151 229.956C359.756 232.552 356.261 234.998 352.42 236.983C351.902 237.242 351.464 236.443 352.018 236.17Z" fill="#595CFF"/>
<path d="M426.118 202.453C422.867 205.553 417.789 210.422 414.603 213.471C409.554 217.851 404.591 222.375 399.334 226.561C397.442 228.165 395.558 229.869 394.012 231.797C393.386 232.602 392.581 233.264 391.861 233.962C389.934 235.81 387.086 238.198 385.396 240.197C384.791 241.291 383.806 242.06 382.979 242.966C380.972 244.973 378.923 246.908 376.858 248.842C376.513 249.166 375.945 248.648 376.319 248.274C378.829 245.814 381.361 243.362 383.72 240.758C383.964 240.478 384.223 240.169 384.41 239.91C385.295 238.385 386.798 237.27 387.978 236.019C389.222 234.796 391.696 232.509 392.825 231.257C393.127 230.84 393.487 230.373 393.825 229.992C395.688 227.863 397.838 225.885 400.039 224.108C404.282 220.44 408.432 216.6 412.604 212.795C414.402 211.155 416.876 208.573 418.631 206.862C418.631 206.862 424.6 200.914 424.607 200.906C425.614 199.928 427.146 201.424 426.118 202.453Z" fill="#595CFF"/>
<path d="M418.688 232.013C415.416 235.206 408.209 242.672 404.894 245.577C401.247 248.958 396.572 252.777 393.25 256.394C391.257 258.94 388.905 261.256 386.856 263.737C385.568 265.327 384.008 267.017 383.238 268.865C383.152 269.088 382.907 269.196 382.684 269.11C381.462 268.571 385.525 263.845 386.065 263.083C388.129 260.451 390.481 258.027 392.451 255.337C396.544 250.863 401.736 246.397 406.059 242.132C407.555 240.564 415.473 232.243 417.128 230.51C418.106 229.481 419.695 230.948 418.681 232.006L418.688 232.013Z" fill="#595CFF"/>
<path d="M428.693 196.807C427.916 197.677 427.096 198.533 426.118 199.187C425.78 199.389 425.421 199.626 424.939 199.583C424.083 199.367 423.543 198.785 422.925 198.238C421.788 197.109 420.753 195.886 420.192 194.347C419.35 192.038 422.486 189.406 424.637 189.464V189.535C423.205 189.881 421.983 191.024 421.228 192.24C420.825 192.865 420.659 193.412 420.875 194.138C421.285 195.548 422.256 196.828 423.256 197.9C423.745 198.389 424.342 199.022 424.982 199.216C426.356 199.137 427.65 197.634 428.635 196.749L428.686 196.8L428.693 196.807Z" fill="#595CFF"/>
<path d="M429.16 195.807C429.325 193.146 427.261 191.125 425.183 189.794L425.211 189.73C427.139 190.248 428.923 191.801 429.253 193.836C429.404 194.498 429.325 195.181 429.232 195.822L429.16 195.814V195.807Z" fill="#595CFF"/>
<path d="M429.282 202.338C428.578 203.546 427.563 205.258 427.794 206.524C428.678 207.739 429.707 209.221 431.044 209.883C431.749 210.12 432.411 209.595 433.008 209.242C433.662 208.789 434.295 208.279 434.914 207.746L434.971 207.797C434.044 208.969 432.821 210.551 431.181 210.559C430.167 210.321 429.498 209.444 428.894 208.761C428.362 208.106 427.866 207.423 427.427 206.704C427.197 205.833 427.592 205.057 427.945 204.309C428.311 203.597 428.736 202.928 429.218 202.302L429.275 202.345L429.282 202.338Z" fill="#595CFF"/>
<path d="M431.714 201.734C433.584 202.439 435.454 203.999 435.706 206.085C434.922 204.194 433.318 202.935 431.714 201.734Z" fill="#595CFF"/>
<path d="M423.521 229.064C422.982 229.999 422.212 231.394 422.385 232.322C423.068 233.264 423.903 234.429 424.931 234.926C425.463 235.098 425.96 234.703 426.42 234.436C426.938 234.091 427.441 233.703 427.945 233.293L428.002 233.343C427.34 234.278 426.513 235.285 425.334 235.566C425.132 235.609 424.881 235.566 424.708 235.487C423.435 234.796 422.802 233.638 422.033 232.516C421.838 231.804 422.162 231.193 422.45 230.589C422.745 230.028 423.083 229.51 423.471 229.021L423.529 229.064H423.521Z" fill="#595CFF"/>
<path d="M425.428 228.589C426.924 229.085 428.427 230.351 428.564 232.005C427.895 230.545 426.665 229.582 425.428 228.589Z" fill="#595CFF"/>
<path d="M402.369 194.038C401.247 195.189 400.197 196.397 398.701 197.087C398.507 197.159 398.255 197.217 398.018 197.145C396.68 196.605 395.731 195.447 394.817 194.383C394.084 193.405 393.307 192.326 393.242 191.032C393.386 189.176 395.839 187.241 397.651 187.162C397.709 187.162 397.752 187.205 397.752 187.263C397.752 187.32 397.701 187.363 397.644 187.363C395.867 187.608 394.192 189.248 393.954 191.024C393.997 192.11 394.637 193.132 395.256 194.045C396.047 195.081 396.917 196.224 398.111 196.792C398.248 196.85 398.413 196.814 398.586 196.756C399.974 196.167 401.132 194.944 402.211 193.887C402.304 193.786 402.463 193.93 402.369 194.031V194.038Z" fill="#595CFF"/>
<path d="M402.362 193.384C402.527 190.722 400.463 188.701 398.385 187.371L398.414 187.306C400.341 187.824 402.125 189.377 402.456 191.413C402.607 192.075 402.527 192.758 402.434 193.398L402.362 193.391V193.384Z" fill="#595CFF"/>
<path d="M333.526 209.537C331.419 212.738 328.837 215.866 325.255 217.42C325.162 217.456 325.054 217.42 325.011 217.319C324.975 217.226 325.011 217.125 325.104 217.082C326.751 216.219 328.096 214.91 329.269 213.486C330.419 212.062 331.455 210.465 332.275 208.84C332.735 207.962 334.037 208.689 333.534 209.544L333.526 209.537Z" fill="#595CFF"/>
</g>
<defs>
<filter id="filter0_d_380_16541" x="280.869" y="180.673" width="165.802" height="318.734" filterUnits="userSpaceOnUse" color-interpolation-filters="sRGB">
<feFlood flood-opacity="0" result="BackgroundImageFix"/>
<feColorMatrix in="SourceAlpha" type="matrix" values="0 0 0 0 0 0 0 0 0 0 0 0 0 0 0 0 0 0 127 0" result="hardAlpha"/>
<feOffset dy="4.41216"/>
<feGaussianBlur stdDeviation="3.86064"/>
<feComposite in2="hardAlpha" operator="out"/>
<feColorMatrix type="matrix" values="0 0 0 0 0.254331 0 0 0 0 0.255896 0 0 0 0 0.340952 0 0 0 0.2 0"/>
<feBlend mode="multiply" in2="BackgroundImageFix" result="effect1_dropShadow_380_16541"/>
<feBlend mode="normal" in="SourceGraphic" in2="effect1_dropShadow_380_16541" result="shape"/>
</filter>
<clipPath id="clip0_380_16541">
<rect width="406.474" height="443.011" fill="white" transform="translate(130.638 5.80176)"/>
</clipPath>
<clipPath id="clip1_380_16541">
<rect width="37.4504" height="8.22083" fill="white" transform="translate(316.977 74.3086)"/>
</clipPath>
<clipPath id="clip2_380_16541">
<rect width="218.309" height="346.188" fill="white" transform="translate(251.21 137.335)"/>
</clipPath>
</defs>
</svg>
