<svg width="740" height="1059" viewBox="0 0 740 1059" fill="none" xmlns="http://www.w3.org/2000/svg">
<path d="M542.256 843.33C511.466 791.143 447.191 681.832 436.472 662.086C423.072 637.402 411.083 594.383 411.788 575.342C412.494 556.301 413.904 509.755 402.62 465.326C393.593 429.782 387.571 342.855 385.695 303.827C385.695 295.125 388.093 273.784 397.684 257.987C402.155 254.461 411.788 244.306 414.609 231.894C418.136 216.378 418.136 203.684 417.43 196.632C416.866 190.99 419.081 183.472 420.251 180.412C422.367 171.483 423.777 153.331 412.494 152.202C401.21 151.074 398.389 161.61 398.389 167.012C397.684 157.139 395.85 136.687 394.158 133.866C392.465 131.045 393.452 127.054 394.158 125.403C398.149 116.235 406.147 94.5142 406.147 80.9737C410.843 70.1554 416.866 47.6867 403.326 44.3016C402.62 44.3016 400.787 44.8658 399.094 47.1225C397.402 44.3016 393.692 43.1309 392.042 42.8911L391.337 44.3016C387.811 51.3539 380.617 67.0101 380.053 73.2161C378.642 76.9821 375.822 86.8976 375.822 96.4888C372.535 103.301 365.525 118.633 363.833 125.403C361.717 133.866 358.896 144.445 354.665 150.792C350.433 157.139 349.023 158.549 348.317 171.949C344.552 181.582 336.329 206.082 333.508 226.957C330.687 247.832 330.447 265.745 330.687 272.092C329.516 289.483 325.609 332.037 319.403 363.067C311.645 401.855 302.477 470.967 301.067 479.43C299.656 487.893 298.951 569.7 298.951 588.036C298.951 606.372 304.593 618.361 305.298 621.887C306.004 625.413 317.992 656.444 320.108 686.063C322.224 715.683 322.224 753.766 336.329 786.912C350.433 820.058 376.527 856.025 394.158 871.54" stroke="#595CFF" stroke-width="4.2314" stroke-linecap="round" stroke-linejoin="round"/>
<path d="M323.606 623.135C328.676 609.527 331.098 594.17 320.372 581.835C320.298 581.748 319.108 581.296 319.886 582.591C327.867 591.908 327.643 602.467 325.4 612.746C324.581 616.188 323.491 619.656 321.941 623.084C321.701 623.546 322.066 625.381 323.205 624.058L323.606 623.135Z" fill="#595CFF"/>
<path d="M400.251 67.2782C401.421 62.8071 402.888 53.5403 398.939 47.8984M351.688 247.479C354.749 247.24 362.126 247.338 367.204 249.595C372.281 251.852 379.193 251.95 382.013 251.711C384.834 251.95 390.899 253.262 392.592 256.647M373.551 136.758C376.837 136.518 384.834 137.181 390.476 141.694M384.834 112.075C387.19 112.314 392.169 113.344 393.297 115.601M390.476 92.3281C391.887 92.3281 395.131 92.7512 396.823 94.4438" stroke="#595CFF" stroke-width="1.41047" stroke-linecap="round"/>
<path d="M360.165 135.503C361.491 133.105 367.626 122.414 368.769 120.228C369.657 118.451 372.662 112.343 373.381 110.919C379.122 96.0383 380.941 79.9307 388.135 65.5863C389.489 63.2026 392.352 61.6229 395.159 62.1589C398.262 63.1603 400.772 65.5017 401.873 68.5765C402.973 71.482 402.324 74.571 401.887 77.5047C401.026 82.7376 399.447 89.5501 398.219 93.8097C397.486 100.848 396.428 109.748 394.707 115.658C393.932 124.544 392.972 133.557 391.633 142.344C391.153 146.632 391.365 151.202 390.673 155.757C390.025 160.327 388.642 164.742 386.893 168.945C386.061 174.573 385.723 183.91 386.611 190.709C387.5 197.973 389.418 206.732 384.891 213.177C384.693 213.502 384.256 213.615 383.931 213.403C383.649 213.22 383.551 212.867 383.678 212.571C384.044 211.682 384.425 210.864 384.693 210.018C386.005 205.688 385.328 201.047 384.792 196.604C383.17 187.211 382.944 177.549 384.439 168.085C386.16 163.995 387.5 159.763 388.12 155.405C388.783 151.117 388.586 146.674 389.094 142.062C389.757 137.534 390.377 133.275 390.857 128.761C391.365 124.29 391.802 119.805 392.211 115.319C393.212 111.864 393.819 108.168 394.383 104.501C394.933 100.834 395.384 97.1384 395.751 93.4571C397.542 86.7433 399.249 79.9166 399.982 73.0336C400.448 69.324 398.036 65.6709 394.51 64.5567L394.623 64.5849C393.875 64.472 392.888 64.6272 392.169 65.008C391.491 65.276 390.504 66.3762 390.321 66.7429C388.628 70.2267 387.161 73.8939 385.85 77.5894C382.055 88.8872 379.855 100.65 375.426 111.765C374.354 113.881 371.674 119.198 370.631 121.243C369.474 123.387 363.169 134.177 361.858 136.49C361.237 137.576 359.53 136.646 360.165 135.517V135.503Z" fill="#595CFF"/>
<path d="M396.287 190.299C400.688 183.938 397.515 175.518 397.19 168.352C397.105 167.21 396.95 166.039 397.712 164.897C398.022 164.417 398.77 164.417 399.08 164.897C400.237 166.843 399.715 169.241 400.209 171.413C400.843 177.041 402.225 183.106 399.743 188.564C399.235 189.524 397.797 192.923 396.302 191.667C395.921 191.287 395.949 190.694 396.302 190.313L396.287 190.299Z" fill="#595CFF"/>
</svg>
